<svg width="23" height="22" viewBox="0 0 23 22" fill="none" xmlns="http://www.w3.org/2000/svg">
<path fill-rule="evenodd" clip-rule="evenodd" d="M5.43334 3.9681C6.97301 2.73647 8.92601 2 11.051 2C16.0216 2 20.051 6.02944 20.051 11C20.051 13.125 19.3146 15.078 18.0829 16.6177L5.43334 3.9681ZM4.01913 5.38231C2.7875 6.92199 2.05103 8.87499 2.05103 11C2.05103 15.9706 6.08046 20 11.051 20C13.176 20 15.129 19.2635 16.6687 18.0319L4.01913 5.38231ZM11.051 0C4.97589 0 0.0510254 4.92487 0.0510254 11C0.0510254 17.0751 4.97589 22 11.051 22C17.1262 22 22.051 17.0751 22.051 11C22.051 4.92487 17.1262 0 11.051 0Z" fill="#8CAEC5"/>
</svg>
