<svg width="26" height="24" viewBox="0 0 26 24" fill="none" xmlns="http://www.w3.org/2000/svg">
<path d="M12.9 5.75V5.85H13H25.4V23.15H0.6V0.85H12.9V5.75ZM10.5 20.85H10.6V20.75V18.25V18.15H10.5H3H2.9V18.25V20.75V20.85H3H10.5ZM10.5 15.85H10.6V15.75V13.25V13.15H10.5H3H2.9V13.25V15.75V15.85H3H10.5ZM10.5 10.85H10.6V10.75V8.25V8.15H10.5H3H2.9V8.25V10.75V10.85H3H10.5ZM10.5 5.85H10.6V5.75V3.25V3.15H10.5H3H2.9V3.25V5.75V5.85H3H10.5ZM23 20.85H23.1V20.75V8.25V8.15H23H13H12.9V8.25V20.75V20.85H13H23ZM15.6 10.85H20.4V13.15H15.6V10.85ZM15.6 15.85H20.4V18.15H15.6V15.85Z" fill="#8CAEC5" stroke="white" stroke-width="0.2"/>
</svg>
