<svg width="24" height="7" viewBox="0 0 24 7" fill="none" xmlns="http://www.w3.org/2000/svg">
<path d="M2.55929 7L2.84365 4.256L0.746459 5.88L0 4.536L2.41711 3.472L0.0177729 2.44533L0.710914 1.13867L2.86143 2.76267L2.55929 0H3.98112L3.67898 2.76267L5.81172 1.13867L6.48709 2.42667L4.08775 3.49067L6.50486 4.536L5.77617 5.86133L3.67898 4.256L3.96334 7H2.55929Z" fill="#8CAEC5"/>
<path d="M11.3069 7L11.5912 4.256L9.49403 5.88L8.74757 4.536L11.1647 3.472L8.76534 2.44533L9.45848 1.13867L11.609 2.76267L11.3069 0H12.7287L12.4265 2.76267L14.5593 1.13867L15.2347 2.42667L12.8353 3.49067L15.2524 4.536L14.5237 5.86133L12.4265 4.256L12.7109 7H11.3069Z" fill="#8CAEC5"/>
<path d="M20.0544 7L20.3388 4.256L18.2416 5.88L17.4951 4.536L19.9122 3.472L17.5129 2.44533L18.2061 1.13867L20.3566 2.76267L20.0544 0H21.4763L21.1741 2.76267L23.3069 1.13867L23.9822 2.42667L21.5829 3.49067L24 4.536L23.2713 5.86133L21.1741 4.256L21.4585 7H20.0544Z" fill="#8CAEC5"/>
</svg>
