<svg width="46" height="56" viewBox="0 0 46 56" fill="none" xmlns="http://www.w3.org/2000/svg">
<path fill-rule="evenodd" clip-rule="evenodd" d="M22.1222 0.659177C22.6882 0.446941 23.3118 0.446941 23.8778 0.659177L43.8778 8.15918C44.8536 8.52509 45.5 9.45789 45.5 10.5V28C45.5 36.6161 39.7956 43.5007 34.6463 48.0064C32.0191 50.3052 29.4036 52.1021 27.45 53.3231C26.4706 53.9353 25.6508 54.4068 25.0702 54.7282C24.7797 54.889 24.5486 55.0125 24.3867 55.0975C24.3057 55.14 24.2421 55.1729 24.1969 55.196L24.1431 55.2234L24.1269 55.2316L24.1216 55.2343C24.1208 55.2347 24.118 55.2361 23 53C21.882 55.2361 21.8812 55.2357 21.8804 55.2353L21.8731 55.2316L21.8569 55.2234L21.8031 55.196C21.7579 55.1729 21.6943 55.14 21.6133 55.0975C21.4514 55.0125 21.2203 54.889 20.9298 54.7282C20.3492 54.4068 19.5294 53.9353 18.55 53.3231C16.5964 52.1021 13.9809 50.3052 11.3537 48.0064C6.20437 43.5007 0.5 36.6161 0.5 28V10.5C0.5 9.45789 1.14643 8.52509 2.12219 8.15918L22.1222 0.659177ZM23 53L21.8804 55.2353C22.5842 55.5872 23.4142 55.588 24.118 55.2361L23 53ZM23 50.1569C23.4791 49.8853 24.0918 49.5258 24.8 49.0831C26.5964 47.9604 28.9809 46.3197 31.3537 44.2436C36.2044 39.9993 40.5 34.3839 40.5 28V12.2325L23 5.67L5.5 12.2325V28C5.5 34.3839 9.79564 39.9993 14.6463 44.2436C17.0191 46.3197 19.4036 47.9604 21.2 49.0831C21.9082 49.5258 22.5209 49.8853 23 50.1569Z" fill="#8CAEC5"/>
</svg>
