<svg width="25" height="16" viewBox="0 0 25 16" fill="none" xmlns="http://www.w3.org/2000/svg">
<path d="M22.0776 2.48047C22.7183 3.12109 23.2065 3.84766 23.5425 4.66016C23.8784 5.47266 24.0503 6.33594 24.0581 7.25C24.0581 7.52344 24.0503 7.85156 24.0347 8.23438C24.019 8.61719 23.9878 9.03125 23.9409 9.47656C23.894 9.92188 23.8198 10.3789 23.7183 10.8477C23.6167 11.3164 23.4878 11.7812 23.3315 12.2422C23.0972 12.9141 22.8237 13.4609 22.5112 13.8828C22.1987 14.3047 21.8745 14.6367 21.5386 14.8789C21.2026 15.1211 20.8628 15.2852 20.519 15.3711C20.1753 15.457 19.855 15.5 19.5581 15.5C19.3003 15.5 19.0659 15.457 18.855 15.3711C18.644 15.2852 18.4409 15.168 18.2456 15.0195C18.0503 14.8711 17.8706 14.7109 17.7065 14.5391C17.5425 14.3672 17.3745 14.1797 17.2026 13.9766C17.0386 13.7891 16.8784 13.6094 16.7222 13.4375C16.5659 13.2656 16.3979 13.1133 16.2183 12.9805C16.0386 12.8477 15.8589 12.7344 15.6792 12.6406C15.4995 12.5469 15.2886 12.5 15.0464 12.5H9.06982C8.84326 12.5078 8.63623 12.5547 8.44873 12.6406C8.26123 12.7266 8.07764 12.8359 7.89795 12.9688C7.71826 13.1016 7.5542 13.2578 7.40576 13.4375C7.25732 13.6172 7.09326 13.7969 6.91357 13.9766C6.74951 14.1641 6.58545 14.3477 6.42139 14.5273C6.25732 14.707 6.07764 14.8711 5.88232 15.0195C5.68701 15.168 5.48389 15.2812 5.27295 15.3594C5.06201 15.4375 4.82373 15.4844 4.55811 15.5C4.26123 15.5 3.94092 15.457 3.59717 15.3711C3.25342 15.2852 2.91357 15.125 2.57764 14.8906C2.2417 14.6562 1.91748 14.3242 1.60498 13.8945C1.29248 13.4648 1.01904 12.9141 0.784668 12.2422C0.628418 11.7891 0.503418 11.3281 0.409668 10.8594C0.315918 10.3906 0.241699 9.92969 0.187012 9.47656C0.132324 9.02344 0.097168 8.60938 0.081543 8.23438C0.065918 7.85938 0.0581055 7.53125 0.0581055 7.25C0.0581055 6.34375 0.226074 5.48438 0.562012 4.67188C0.897949 3.85938 1.39014 3.12891 2.03857 2.48047C2.67139 1.83984 3.39795 1.35156 4.21826 1.01562C5.03857 0.679688 5.90186 0.507812 6.80811 0.5H17.3081C18.2144 0.5 19.0737 0.667969 19.8862 1.00391C20.6987 1.33984 21.4292 1.83203 22.0776 2.48047ZM21.9136 11.75C22.062 11.3359 22.1792 10.9062 22.2651 10.4609C22.3511 10.0156 22.4136 9.58984 22.4526 9.18359C22.4917 8.77734 22.519 8.40234 22.5347 8.05859C22.5503 7.71484 22.5581 7.44531 22.5581 7.25C22.5581 6.52344 22.4214 5.84375 22.1479 5.21094C21.8745 4.57812 21.4995 4.02344 21.0229 3.54688C20.5464 3.07031 19.9917 2.69531 19.3589 2.42188C18.7261 2.14844 18.0425 2.00781 17.3081 2H6.80811C6.08154 2 5.40186 2.13672 4.76904 2.41016C4.13623 2.68359 3.58154 3.05859 3.10498 3.53516C2.62842 4.01172 2.25342 4.56641 1.97998 5.19922C1.70654 5.83203 1.56592 6.51562 1.55811 7.25C1.55811 7.45312 1.56201 7.72266 1.56982 8.05859C1.57764 8.39453 1.60498 8.76562 1.65186 9.17188C1.69873 9.57812 1.76514 10.0078 1.85107 10.4609C1.93701 10.9141 2.0542 11.3438 2.20264 11.75C2.39795 12.3125 2.61279 12.7461 2.84717 13.0508C3.08154 13.3555 3.30811 13.5781 3.52686 13.7188C3.74561 13.8594 3.94873 13.9414 4.13623 13.9648C4.32373 13.9883 4.46436 14 4.55811 14C4.72998 14 4.91748 13.8984 5.12061 13.6953C5.32373 13.4922 5.54248 13.2578 5.77686 12.9922C5.96436 12.7734 6.16357 12.5508 6.37451 12.3242C6.58545 12.0977 6.82373 11.8867 7.08936 11.6914C7.35498 11.4961 7.64795 11.3359 7.96826 11.2109C8.28857 11.0859 8.64404 11.0156 9.03467 11H15.0815C15.4722 11.0156 15.8276 11.0859 16.1479 11.2109C16.4683 11.3359 16.7573 11.4922 17.0151 11.6797C17.2729 11.8672 17.5112 12.0781 17.73 12.3125C17.9487 12.5469 18.1519 12.7734 18.3394 12.9922C18.5659 13.25 18.7808 13.4805 18.9839 13.6836C19.187 13.8867 19.3784 13.9922 19.5581 14C19.6519 14 19.7886 13.9883 19.9683 13.9648C20.1479 13.9414 20.3511 13.8594 20.5776 13.7188C20.8042 13.5781 21.0347 13.3555 21.269 13.0508C21.5034 12.7461 21.7183 12.3125 21.9136 11.75ZM6.05811 6.5H7.55811V8H6.05811V9.5H4.55811V8H3.05811V6.5H4.55811V5H6.05811V6.5ZM19.5581 8C19.769 8 19.9644 8.03906 20.144 8.11719C20.3237 8.19531 20.48 8.30078 20.6128 8.43359C20.7456 8.56641 20.855 8.72656 20.9409 8.91406C21.0269 9.10156 21.0659 9.29688 21.0581 9.5C21.0581 9.71094 21.019 9.90625 20.9409 10.0859C20.8628 10.2656 20.7573 10.4219 20.6245 10.5547C20.4917 10.6875 20.3315 10.7969 20.144 10.8828C19.9565 10.9688 19.7612 11.0078 19.5581 11C19.3472 11 19.1519 10.9609 18.9722 10.8828C18.7925 10.8047 18.6362 10.6992 18.5034 10.5664C18.3706 10.4336 18.2612 10.2734 18.1753 10.0859C18.0894 9.89844 18.0503 9.70312 18.0581 9.5C18.0581 9.28906 18.0972 9.09375 18.1753 8.91406C18.2534 8.73438 18.3589 8.57812 18.4917 8.44531C18.6245 8.3125 18.7847 8.20312 18.9722 8.11719C19.1597 8.03125 19.355 7.99219 19.5581 8ZM16.5581 5C16.769 5 16.9644 5.03906 17.144 5.11719C17.3237 5.19531 17.48 5.30078 17.6128 5.43359C17.7456 5.56641 17.855 5.72656 17.9409 5.91406C18.0269 6.10156 18.0659 6.29688 18.0581 6.5C18.0581 6.71094 18.019 6.90625 17.9409 7.08594C17.8628 7.26562 17.7573 7.42188 17.6245 7.55469C17.4917 7.6875 17.3315 7.79688 17.144 7.88281C16.9565 7.96875 16.7612 8.00781 16.5581 8C16.3472 8 16.1519 7.96094 15.9722 7.88281C15.7925 7.80469 15.6362 7.69922 15.5034 7.56641C15.3706 7.43359 15.2612 7.27344 15.1753 7.08594C15.0894 6.89844 15.0503 6.70312 15.0581 6.5C15.0581 6.28906 15.0972 6.09375 15.1753 5.91406C15.2534 5.73438 15.3589 5.57812 15.4917 5.44531C15.6245 5.3125 15.7847 5.20312 15.9722 5.11719C16.1597 5.03125 16.355 4.99219 16.5581 5Z" fill="#48CEF3"/>
</svg>
