<svg width="44" height="56" viewBox="0 0 44 56" fill="none" xmlns="http://www.w3.org/2000/svg">
<path fill-rule="evenodd" clip-rule="evenodd" d="M22.0018 11.7503C22.001 11.7503 22.0001 11.7503 21.9993 11.7503C21.9933 11.7503 21.9873 11.7503 21.9813 11.7503C14.5109 11.7603 8.45817 17.8193 8.45817 25.292V41.542H35.5415V25.292C35.5415 18.0099 29.7936 12.0704 22.5872 11.7628L22.0018 11.7503ZM16.6368 7.10272C16.6011 6.8515 16.5826 6.59474 16.5826 6.33366C16.5826 3.34212 19.0078 0.916992 21.9993 0.916992C24.9909 0.916992 27.416 3.34212 27.416 6.33366C27.416 6.59457 27.3975 6.85118 27.3619 7.10224C35.2212 9.41525 40.9585 16.6835 40.9585 25.2917V41.542C42.4542 41.5421 43.6666 42.7546 43.6666 44.2503C43.6666 45.7461 42.454 46.9587 40.9583 46.9587H3.04159C1.54581 46.9587 0.333252 45.7461 0.333252 44.2503C0.333252 42.7546 1.54581 41.542 3.04159 41.542H3.04183V25.2917C3.04183 16.6841 8.77832 9.41625 16.6368 7.10272ZM16.5833 49.6669C16.5838 52.6581 19.0087 55.0828 22 55.0828C24.9913 55.0828 27.4163 52.6581 27.4167 49.6669H16.5833Z" fill="#8CAEC5"/>
</svg>
