<svg width="24" height="24" viewBox="0 0 24 24" fill="none" xmlns="http://www.w3.org/2000/svg">
<path fill-rule="evenodd" clip-rule="evenodd" d="M4 4C3.73478 4 3.48043 4.10536 3.29289 4.29289C3.10536 4.48043 3 4.73478 3 5V11C3 13.3869 3.94821 15.6761 5.63604 17.364C6.47177 18.1997 7.46392 18.8626 8.55585 19.3149C9.64778 19.7672 10.8181 20 12 20C14.3869 20 16.6761 19.0518 18.364 17.364C20.0518 15.6761 21 13.3869 21 11V5C21 4.73478 20.8946 4.48043 20.7071 4.29289C20.5196 4.10536 20.2652 4 20 4H4ZM4 2H20C20.7957 2 21.5587 2.31607 22.1213 2.87868C22.6839 3.44129 23 4.20435 23 5V11C23 13.9174 21.8411 16.7153 19.7782 18.7782C17.7153 20.8411 14.9174 22 12 22C10.5555 22 9.12506 21.7155 7.79048 21.1627C6.4559 20.6099 5.24327 19.7996 4.22183 18.7782C2.15893 16.7153 1 13.9174 1 11V5C1 4.20435 1.31607 3.44129 1.87868 2.87868C2.44129 2.31607 3.20435 2 4 2Z" fill="#FC2323"/>
<path d="M12.008 7C10.6471 7 9.76564 7.57486 9.0736 8.60007C8.94806 8.78604 8.98677 9.04103 9.16189 9.17793L9.89739 9.75289C10.0743 9.89114 10.3259 9.85882 10.4644 9.67998C10.8914 9.12836 11.2082 8.81076 11.8754 8.81076C12.3999 8.81076 13.0487 9.15879 13.0487 9.68318C13.0487 10.0796 12.7313 10.2832 12.2133 10.5825C11.6094 10.9316 10.8101 11.3661 10.8101 12.4529V12.625C10.8101 12.858 10.9933 13.0469 11.2193 13.0469H12.455C12.681 13.0469 12.8642 12.858 12.8642 12.625V12.5235C12.8642 11.7701 15 11.7387 15 9.7C15 8.16466 13.4553 7 12.008 7ZM11.8372 13.5647C11.1859 13.5647 10.6561 14.1109 10.6561 14.7824C10.6561 15.4538 11.1859 16 11.8372 16C12.4884 16 13.0182 15.4538 13.0182 14.7823C13.0182 14.1109 12.4884 13.5647 11.8372 13.5647Z" fill="#FC2323"/>
</svg>
