<svg width="60" height="60" viewBox="0 0 60 60" fill="none" xmlns="http://www.w3.org/2000/svg">
<path fill-rule="evenodd" clip-rule="evenodd" d="M29.1222 2.65918C29.6882 2.44694 30.3118 2.44694 30.8778 2.65918L50.8778 10.1592C51.8536 10.5251 52.5 11.4579 52.5 12.5V30C52.5 38.6161 46.7956 45.5007 41.6463 50.0064C39.0191 52.3052 36.4036 54.1021 34.45 55.3231C33.4706 55.9353 32.6508 56.4068 32.0702 56.7282C31.7797 56.889 31.5486 57.0125 31.3867 57.0975C31.3057 57.14 31.2421 57.1729 31.1969 57.196L31.1431 57.2234L31.1269 57.2316L31.1216 57.2343C31.1208 57.2347 31.118 57.2361 30 55C28.882 57.2361 28.8812 57.2357 28.8804 57.2353L28.8731 57.2316L28.8569 57.2234L28.8031 57.196C28.7579 57.1729 28.6943 57.14 28.6133 57.0975C28.4514 57.0125 28.2203 56.889 27.9298 56.7282C27.3492 56.4068 26.5294 55.9353 25.55 55.3231C23.5964 54.1021 20.9809 52.3052 18.3537 50.0064C13.2044 45.5007 7.5 38.6161 7.5 30V12.5C7.5 11.4579 8.14643 10.5251 9.12219 10.1592L29.1222 2.65918ZM30 55L28.8804 57.2353C29.5842 57.5872 30.4142 57.588 31.118 57.2361L30 55ZM30 52.1569C30.4791 51.8853 31.0918 51.5258 31.8 51.0831C33.5964 49.9604 35.9809 48.3197 38.3537 46.2436C43.2044 41.9993 47.5 36.3839 47.5 30V14.2325L30 7.67L12.5 14.2325V30C12.5 36.3839 16.7956 41.9993 21.6463 46.2436C24.0191 48.3197 26.4036 49.9604 28.2 51.0831C28.9082 51.5258 29.5209 51.8853 30 52.1569Z" fill="#8CAEC5"/>
<path fill-rule="evenodd" clip-rule="evenodd" d="M18.2322 23.2322C19.2085 22.2559 20.7915 22.2559 21.7678 23.2322L30 31.4645L38.2322 23.2322C39.2085 22.2559 40.7915 22.2559 41.7678 23.2322C42.7441 24.2085 42.7441 25.7915 41.7678 26.7678L31.7678 36.7678C30.7915 37.7441 29.2085 37.7441 28.2322 36.7678L18.2322 26.7678C17.2559 25.7915 17.2559 24.2085 18.2322 23.2322Z" fill="#8CAEC5"/>
</svg>
