<svg width="23" height="23" viewBox="0 0 23 23" fill="none" xmlns="http://www.w3.org/2000/svg">
<path d="M17.3081 6.75C17.0972 6.75 16.9019 6.71094 16.7222 6.63281C16.5425 6.55469 16.3862 6.44922 16.2534 6.31641C16.1206 6.18359 16.0112 6.02344 15.9253 5.83594C15.8394 5.64844 15.8003 5.45312 15.8081 5.25C15.8081 5.03906 15.8472 4.84375 15.9253 4.66406C16.0034 4.48438 16.1089 4.32812 16.2417 4.19531C16.3745 4.0625 16.5347 3.95312 16.7222 3.86719C16.9097 3.78125 17.105 3.74219 17.3081 3.75C17.519 3.75 17.7144 3.78906 17.894 3.86719C18.0737 3.94531 18.23 4.05078 18.3628 4.18359C18.4956 4.31641 18.605 4.47656 18.6909 4.66406C18.7769 4.85156 18.8159 5.04688 18.8081 5.25C18.8081 5.46094 18.769 5.65625 18.6909 5.83594C18.6128 6.01562 18.5073 6.17188 18.3745 6.30469C18.2417 6.4375 18.0815 6.54688 17.894 6.63281C17.7065 6.71875 17.5112 6.75781 17.3081 6.75ZM11.4723 0.585786C11.8474 0.210713 12.3561 0 12.8865 0H21.5581C22.1104 0 22.5581 0.447715 22.5581 1V9.67157C22.5581 10.202 22.3474 10.7107 21.9723 11.0858L11.2652 21.7929C10.8747 22.1834 10.2415 22.1834 9.851 21.7929L0.765212 12.7071C0.374688 12.3166 0.374688 11.6834 0.765212 11.2929L11.4723 0.585786ZM21.0581 9.87891V1.5H12.6792L2.1792 12L10.5581 20.3789L21.0581 9.87891Z" fill="#8BC63E"/>
</svg>
