<svg width="25" height="21" viewBox="0 0 25 21" fill="none" xmlns="http://www.w3.org/2000/svg">
<path d="M24.0581 6.35156V16.875C24.0581 17.2734 23.9722 17.6328 23.8003 17.9531C23.6284 18.2734 23.3979 18.5469 23.1089 18.7734C22.8198 19 22.4995 19.1797 22.1479 19.3125C21.7964 19.4453 21.4331 19.5078 21.0581 19.5C20.6909 19.5 20.3276 19.4375 19.9683 19.3125C19.6089 19.1875 19.2886 19.0117 19.0073 18.7852C18.7261 18.5586 18.4995 18.2812 18.3276 17.9531C18.1558 17.625 18.0659 17.2656 18.0581 16.875C18.0581 16.4766 18.144 16.1172 18.3159 15.7969C18.4878 15.4766 18.7183 15.1992 19.0073 14.9648C19.2964 14.7305 19.6167 14.5547 19.9683 14.4375C20.3198 14.3203 20.6831 14.2578 21.0581 14.25C21.5737 14.25 22.0737 14.3711 22.5581 14.6133V8.27344L15.0581 10.1484V18.375C15.0581 18.7734 14.9722 19.1328 14.8003 19.4531C14.6284 19.7734 14.3979 20.0469 14.1089 20.2734C13.8198 20.5 13.4995 20.6797 13.1479 20.8125C12.7964 20.9453 12.4331 21.0078 12.0581 21C11.6909 21 11.3276 20.9375 10.9683 20.8125C10.6089 20.6875 10.2886 20.5117 10.0073 20.2852C9.72607 20.0586 9.49951 19.7812 9.32764 19.4531C9.15576 19.125 9.06592 18.7656 9.05811 18.375C9.05811 17.9766 9.14404 17.6172 9.31592 17.2969C9.48779 16.9766 9.71826 16.6992 10.0073 16.4648C10.2964 16.2305 10.6167 16.0547 10.9683 15.9375C11.3198 15.8203 11.6831 15.7578 12.0581 15.75C12.5737 15.75 13.0737 15.8711 13.5581 16.1133V8.97656L24.0581 6.35156ZM12.0581 19.5C12.2144 19.5 12.3784 19.4766 12.5503 19.4297C12.7222 19.3828 12.8862 19.3125 13.0425 19.2188C13.1987 19.125 13.3198 19.0078 13.4058 18.8672C13.4917 18.7266 13.5425 18.5625 13.5581 18.375C13.5581 18.1875 13.5112 18.0234 13.4175 17.8828C13.3237 17.7422 13.1987 17.625 13.0425 17.5312C12.8862 17.4375 12.7261 17.3672 12.562 17.3203C12.3979 17.2734 12.23 17.25 12.0581 17.25C11.9019 17.25 11.7378 17.2734 11.5659 17.3203C11.394 17.3672 11.23 17.4375 11.0737 17.5312C10.9175 17.625 10.7964 17.7422 10.7104 17.8828C10.6245 18.0234 10.5737 18.1875 10.5581 18.375C10.5581 18.5625 10.605 18.7266 10.6987 18.8672C10.7925 19.0078 10.9175 19.125 11.0737 19.2188C11.23 19.3125 11.3901 19.3828 11.5542 19.4297C11.7183 19.4766 11.8862 19.5 12.0581 19.5ZM21.0581 18C21.2144 18 21.3784 17.9766 21.5503 17.9297C21.7222 17.8828 21.8862 17.8125 22.0425 17.7188C22.1987 17.625 22.3198 17.5078 22.4058 17.3672C22.4917 17.2266 22.5425 17.0625 22.5581 16.875C22.5581 16.6875 22.5112 16.5234 22.4175 16.3828C22.3237 16.2422 22.1987 16.125 22.0425 16.0312C21.8862 15.9375 21.7261 15.8672 21.562 15.8203C21.3979 15.7734 21.23 15.75 21.0581 15.75C20.9019 15.75 20.7378 15.7734 20.5659 15.8203C20.394 15.8672 20.23 15.9375 20.0737 16.0312C19.9175 16.125 19.7964 16.2422 19.7104 16.3828C19.6245 16.5234 19.5737 16.6875 19.5581 16.875C19.5581 17.0625 19.605 17.2266 19.6987 17.3672C19.7925 17.5078 19.9175 17.625 20.0737 17.7188C20.23 17.8125 20.3901 17.8828 20.5542 17.9297C20.7183 17.9766 20.8862 18 21.0581 18ZM4.55811 6H3.05811V4.5H4.55811V6ZM3.05811 7.5H4.55811V9H3.05811V7.5ZM13.5581 4.5H15.0581V6H13.5581V4.5ZM12.0581 13.5H0.0581055V0H18.0581V6L16.5581 6.375V1.5H15.0581V3H13.5581V1.5H4.55811V3H3.05811V1.5H1.55811V12H3.05811V10.5H4.55811V12H12.0581V13.5Z" fill="#EE2A7B"/>
</svg>
