<svg width="20" height="20" viewBox="0 0 20 20" fill="none" xmlns="http://www.w3.org/2000/svg">
<path fill-rule="evenodd" clip-rule="evenodd" d="M10.0811 0.509041C10.2746 0.852424 10.2484 1.27745 10.0141 1.59442C9.15985 2.75008 8.74879 4.17395 8.85566 5.60706C8.96254 7.04018 9.58023 8.38733 10.5964 9.40351C11.6126 10.4197 12.9597 11.0374 14.3929 11.1443C15.826 11.2511 17.2498 10.8401 18.4055 9.98585C18.7225 9.75156 19.1475 9.72532 19.4909 9.91884C19.8343 10.1124 20.0319 10.4895 19.9957 10.882C19.8209 12.7734 19.1111 14.5758 17.9493 16.0785C16.7875 17.5811 15.2218 18.7218 13.4353 19.3671C11.6489 20.0124 9.71564 20.1355 7.86177 19.7221C6.0079 19.3088 4.3101 18.376 2.96702 17.0329C1.62394 15.6898 0.691147 13.992 0.277778 12.1381C-0.135591 10.2843 -0.0124347 8.35102 0.632836 6.56459C1.27811 4.77816 2.4188 3.21244 3.92145 2.05065C5.4241 0.88886 7.22654 0.179044 9.11788 0.00425972C9.51037 -0.0320113 9.88755 0.165658 10.0811 0.509041ZM7.31629 2.43908C6.53868 2.72043 5.8055 3.12204 5.14478 3.63289C3.94266 4.56232 3.0301 5.81489 2.51389 7.24404C1.99767 8.67318 1.89914 10.2198 2.22984 11.7029C2.56054 13.186 3.30677 14.5442 4.38123 15.6187C5.45569 16.6931 6.81394 17.4394 8.29703 17.7701C9.78013 18.1008 11.3267 18.0022 12.7559 17.486C14.185 16.9698 15.4376 16.0573 16.367 14.8551C16.8779 14.1944 17.2795 13.4612 17.5608 12.6836C16.5077 13.0646 15.3781 13.2233 14.2441 13.1387C12.3333 12.9962 10.5371 12.1726 9.1822 10.8177C7.82729 9.46282 7.0037 7.66661 6.8612 5.7558C6.77664 4.62183 6.93528 3.4922 7.31629 2.43908Z" fill="#8CAEC5"/>
</svg>
