<svg width="80" height="80" viewBox="0 0 80 80" fill="none" xmlns="http://www.w3.org/2000/svg">
<mask id="mask0" mask-type="alpha" maskUnits="userSpaceOnUse" x="0" y="0" width="80" height="80">
<circle cx="40" cy="40" r="40" fill="#48CEF3"/>
</mask>
<g mask="url(#mask0)">
<path d="M101.075 -1.82259C99.236 -1.04416 97.3922 -0.263284 95.6802 0.764832C94.9022 1.22993 94.1559 1.74398 93.356 2.16747C92.4951 2.62767 91.5805 2.97528 90.6733 3.34736C88.1697 4.37376 85.7383 5.56944 83.3959 6.92618C83.5983 4.29469 83.2154 1.43555 81.6473 -0.615784C81.4169 -0.919788 81.1607 -1.20317 80.8815 -1.46275C79.7718 -2.49576 78.1988 -2.76258 77.1086 -3.66586C77.772 -4.83595 79.245 -5.89834 80.2474 -6.79182C81.3302 -7.75303 82.4537 -8.66446 83.6178 -9.52612C85.9446 -11.2508 88.4219 -12.7607 91.0196 -14.0376C92.6683 -14.8478 94.3901 -15.5724 96.2094 -15.8197C96.4386 -15.8715 96.6782 -15.8501 96.8947 -15.7585C97.1776 -15.6018 97.28 -15.2493 97.3483 -14.9335C97.6873 -13.3546 97.8605 -11.7341 98.1434 -10.143C98.282 -9.32527 98.4702 -8.51678 98.7068 -7.72202C99.0108 -6.78209 99.3616 -5.85808 99.7579 -4.95345C100.198 -3.91065 100.637 -2.86703 101.075 -1.82259Z" fill="#FBBEBE"/>
<path d="M48.8817 42.7971C48.8811 46.0466 47.8579 49.2129 45.9581 51.844C44.0583 54.4752 41.3791 56.4368 38.3027 57.4489C35.2263 58.461 31.91 58.4719 28.8271 57.4799C25.7442 56.488 23.0522 54.544 21.1354 51.9253C19.1958 49.2802 18.1506 46.0814 18.1527 42.7971C18.1527 38.707 19.7715 34.7844 22.6529 31.8923C25.5343 29.0002 29.4423 27.3754 33.5172 27.3754C37.5921 27.3754 41.5001 29.0002 44.3815 31.8923C47.2629 34.7844 48.8817 38.707 48.8817 42.7971Z" fill="#BE6F72"/>
<path d="M28.0132 56.3879C28.835 57.8102 29.6642 59.2446 30.191 60.7942C30.7178 62.3437 30.9227 64.0597 30.4886 65.6434C35.7223 62.8773 41.951 63.1001 47.7115 61.6999C47.8656 61.6821 48.0075 61.607 48.109 61.4894C48.1441 61.4091 48.1622 61.3224 48.1622 61.2348C48.1622 61.1471 48.1441 61.0605 48.109 60.9802C46.9031 56.501 46.4393 51.8533 46.736 47.223L43.7289 49.0075C42.4126 49.8236 41.0484 50.5593 39.6439 51.2106C37.6563 52.0845 35.5467 52.6133 33.4712 53.2253C31.8275 53.7148 28.5643 54.3488 27.5303 55.7907C27.7168 55.9675 27.8792 56.1683 28.0132 56.3879Z" fill="#BE6F72"/>
<path d="M19.3746 35.1807L19.3891 35.1759C19.7538 35.0538 20.1427 34.9052 20.558 34.7464L20.6019 34.7296C21.0297 34.5661 21.4825 34.3937 21.9416 34.2404C22.8524 33.9362 23.8376 33.689 24.7818 33.7408C24.7819 33.7408 24.7819 33.7408 24.782 33.7408L24.7546 34.24C25.997 34.3077 25.995 35.8871 25.9933 37.174C25.9928 37.5165 25.9924 37.8382 26.0155 38.1053L19.3746 35.1807ZM19.3746 35.1807L19.3605 35.1864M19.3746 35.1807L19.3605 35.1864M19.3605 35.1864C18.8524 35.3916 18.3561 35.5878 17.8815 35.6732C17.4145 35.7573 17.0312 35.7219 16.7155 35.5281M19.3605 35.1864L16.7155 35.5281M16.7155 35.5281C16.2549 35.2422 16.0038 34.5921 16.0401 33.8964C16.0698 33.3268 16.247 32.7901 16.4475 32.1832C16.4977 32.0312 16.5494 31.8747 16.6005 31.7122L16.6008 31.7113C16.8235 30.9994 17.0004 30.2749 17.173 29.5677C17.194 29.482 17.2148 29.3964 17.2357 29.3112C17.4305 28.5168 17.6274 27.744 17.8905 26.9932C18.4167 25.4918 19.2497 24.1262 20.5113 23.3923C21.6785 22.7142 23.04 22.6407 24.5634 22.6593C24.7674 22.6618 24.9749 22.6661 25.1849 22.6704C26.4977 22.6972 27.9123 22.7262 29.2318 22.3439C29.8881 22.1554 30.492 21.8743 31.062 21.5797C31.3003 21.4565 31.5248 21.3354 31.745 21.2167C32.0715 21.0406 32.3884 20.8697 32.7268 20.7046C33.8401 20.1615 34.9786 19.8053 36.0239 20.0582L36.0276 20.0591C36.646 20.2037 37.2027 20.5418 37.8083 20.9601C37.9111 21.031 38.0159 21.1049 38.1229 21.1802C38.6225 21.5322 39.1684 21.9167 39.7608 22.1901C40.4406 22.504 41.1793 22.6737 41.8553 22.8289C41.9646 22.854 42.0723 22.8787 42.1779 22.9036C42.9623 23.0887 43.6524 23.2868 44.2353 23.6821L16.7155 35.5281ZM50.091 36.355L50.0891 36.348C49.1412 32.8299 47.8175 29.425 46.141 26.1923C45.609 25.1711 45.0631 24.2448 44.2356 23.6824L50.091 36.355ZM50.091 36.355L50.0931 36.362M50.091 36.355L50.0931 36.362M50.0931 36.362C50.463 37.5911 50.6747 38.8626 50.7231 40.1455C50.7334 41.76 50.2977 43.3545 49.8416 45.0034C49.8415 45.0039 49.8414 45.0043 49.8412 45.0048L49.1103 47.5971L49.1096 47.5996M50.0931 36.362L49.1096 47.5996M49.1096 47.5996C48.8369 48.5859 48.5732 49.5044 48.0977 50.3271C47.6302 51.136 46.9351 51.7699 46.1238 51.9833M49.1096 47.5996L46.1238 51.9833M42.753 44.0701L42.7533 44.0714C43.0566 45.6003 43.223 47.1533 43.2505 48.712M42.753 44.0701L42.7546 48.9237C42.7677 49.6416 42.7812 50.3764 43.0799 51.0252M42.753 44.0701C42.6023 43.3211 42.3817 42.4143 41.7718 41.7346C40.9748 40.8458 39.7524 40.5902 38.7256 40.5722L38.7233 40.5722M42.753 44.0701L38.7233 40.5722M43.2505 48.712C43.2505 48.7123 43.2505 48.7126 43.2505 48.713L42.7506 48.7218L43.2505 48.7108C43.2505 48.7112 43.2505 48.7116 43.2505 48.712ZM43.2505 48.712C43.2519 48.7736 43.2531 48.8345 43.2543 48.8946C43.2689 49.6375 43.2814 50.2668 43.5338 50.8155M43.5338 50.8155C43.5336 50.8152 43.5335 50.815 43.5334 50.8148L43.0799 51.0252M43.5338 50.8155C43.9564 51.7252 45.121 52.2424 46.1238 51.9833M43.5338 50.8155C43.5339 50.8157 43.534 50.8159 43.5341 50.8162L43.0799 51.0252M43.0799 51.0252L46.1238 51.9833M38.7233 40.5722C37.5241 40.5567 36.0616 40.8768 35.2523 42.0045L35.2514 42.0058M38.7233 40.5722L35.2514 42.0058M35.2514 42.0058C34.9934 42.3676 34.8217 42.7954 34.678 43.1532C34.6492 43.225 34.6215 43.294 34.5944 43.359C34.4197 43.7795 34.2587 44.0841 34.0103 44.2917C33.7675 44.4768 33.48 44.5933 33.1776 44.6293L33.1747 44.6297M35.2514 42.0058L33.1747 44.6297M33.1747 44.6297C32.4811 44.7164 31.7784 44.5673 31.179 44.2058M33.1747 44.6297L31.179 44.2058M31.179 44.2058C30.5816 43.8456 30.1209 43.2951 29.8705 42.6416M31.179 44.2058L29.8705 42.6416M29.8705 42.6416C29.8308 42.5267 29.7954 42.4078 29.7562 42.276C29.7455 42.24 29.7345 42.203 29.723 42.1648C29.6711 41.9921 29.6114 41.8014 29.5354 41.6171C29.3848 41.2519 29.1432 40.8437 28.681 40.613C28.4448 40.4944 28.2013 40.4538 28.0191 40.4276C27.9786 40.4217 27.9413 40.4166 27.9065 40.4118C27.7651 40.3923 27.6661 40.3786 27.5681 40.3489L29.8705 42.6416ZM26.8269 39.5627C26.6468 39.1293 26.5599 38.5894 26.5136 38.062L27.5678 40.3488C27.2448 40.2506 27.0051 39.9915 26.8269 39.5627Z" fill="#121212" stroke="#121212"/>
<path d="M23.4507 52.8167L23.4507 52.8166C23.178 52.9485 22.9341 53.0725 22.7341 53.2208C22.538 53.3661 22.4154 53.5125 22.3546 53.6738C22.3292 53.7413 22.3115 53.8196 22.2875 53.9385C22.2858 53.9467 22.2841 53.9552 22.2824 53.9639C22.2614 54.0685 22.2335 54.2075 22.1875 54.3444L22.1862 54.3484L22.1862 54.3484C21.9493 55.0347 21.3755 55.4114 20.9083 55.6854C20.813 55.7414 20.7216 55.7935 20.6342 55.8434C20.2516 56.0618 19.9464 56.2361 19.7213 56.4892C19.4638 56.8235 19.2902 57.2155 19.2157 57.6319L19.2134 57.6449L19.2104 57.6578C18.7709 59.5346 18.9132 61.5013 19.6181 63.2946L19.6208 63.3014L19.6233 63.3084C19.815 63.8417 20.1102 64.3315 20.4915 64.7494C21.5224 65.7978 23.3869 65.829 24.8032 65.0363C26.2222 64.242 27.2316 62.8302 28.1308 61.3023L28.1367 61.2924L28.1368 61.2925C28.5969 60.5503 28.982 59.7638 29.2865 58.9447C29.5536 58.1086 29.7442 57.2497 29.8559 56.3787L29.8575 56.3664L29.8576 56.3664C29.9147 55.9945 29.9734 55.6193 30.0325 55.2418C30.5145 52.1625 31.022 48.92 30.883 45.9037C30.6006 45.8942 30.2836 45.8934 29.9741 45.9165C29.464 45.9545 29.0746 46.0516 28.8713 46.1963L23.4507 52.8167ZM23.4507 52.8167L23.457 52.8135M23.4507 52.8167L23.457 52.8135M23.457 52.8135C25.192 51.944 27.407 50.7931 28.1761 48.539M23.457 52.8135L28.1761 48.539M28.1761 48.539C28.2656 48.2802 28.3116 48.0098 28.3453 47.7656C28.3584 47.6715 28.3693 47.5842 28.3798 47.5006C28.3985 47.3507 28.4158 47.2128 28.441 47.0685C28.5164 46.6356 28.6318 46.3674 28.8713 46.1963L28.1761 48.539Z" fill="#121212" stroke="#121212"/>
<path d="M20.91 48.9355L20.91 48.9355L20.918 48.9412C21.3023 49.2125 21.825 49.8818 22.3193 50.7055C22.6186 51.2043 22.8877 51.7262 23.092 52.193C22.8492 52.1166 22.5875 52.0184 22.309 51.9135L22.2948 51.9081C21.9839 51.791 21.6514 51.6659 21.338 51.5739C21.1312 51.5132 20.9117 51.4603 20.695 51.4367C20.1862 50.5248 19.7284 49.5851 19.3237 48.6221C19.4539 48.5028 19.5911 48.4487 19.7399 48.4409C19.9812 48.4281 20.3603 48.531 20.91 48.9355Z" fill="#121212" stroke="#121212"/>
<path d="M37.6535 14.1568C36.6609 14.6831 36.0463 14.7076 35.5561 14.6023C35.0659 14.4971 34.0928 14.9867 34.0928 14.9867C25.496 17.9388 25.157 19.3317 25.157 19.3317L35.1098 15.8043C37.0242 14.9622 37.0608 15.2584 37.0608 15.2584C38.5241 16.639 40.3874 15.7039 40.3874 15.7039C40.3874 15.7039 42.9652 14.4799 42.2067 13.3025C41.4483 12.1251 38.6485 13.6403 37.6535 14.1568ZM41.7995 13.9365C41.7995 13.9365 41.0678 15.8948 38.4363 15.5766C38.4363 15.5766 37.1438 15.3857 37.69 14.4187C37.69 14.4187 40.3728 13.2878 41.0824 13.3686C41.7921 13.4494 41.7921 13.9463 41.7921 13.9463L41.7995 13.9365Z" fill="#E8E8F0"/>
<path opacity="0.1" d="M37.6535 14.1568C36.6609 14.6831 36.0463 14.7076 35.5561 14.6023C35.0659 14.4971 34.0928 14.9867 34.0928 14.9867C25.496 17.9388 25.157 19.3317 25.157 19.3317L35.1098 15.8043C37.0242 14.9622 37.0608 15.2584 37.0608 15.2584C38.5241 16.639 40.3874 15.7039 40.3874 15.7039C40.3874 15.7039 42.9652 14.4799 42.2067 13.3025C41.4483 12.1251 38.6485 13.6403 37.6535 14.1568ZM41.7995 13.9365C41.7995 13.9365 41.0678 15.8948 38.4363 15.5766C38.4363 15.5766 37.1438 15.3857 37.69 14.4187C37.69 14.4187 40.3728 13.2878 41.0824 13.3686C41.7921 13.4494 41.7921 13.9463 41.7921 13.9463L41.7995 13.9365Z" fill="#121212"/>
<path d="M38.2001 8.69789C36.7124 8.74684 36.4027 9.86308 36.4027 9.86308C36.1049 10.2198 35.9303 10.6639 35.9053 11.1287C35.8802 11.5934 36.006 12.0538 36.2637 12.4407L33.6224 15.0771C33.122 15.2709 32.6918 15.6123 32.3884 16.0563C32.3884 16.0563 26.5889 21.1968 26.6743 21.6644C26.6743 21.6644 27.6205 22.154 33.6224 16.6633L35.1979 15.2631C35.1979 15.2631 35.5466 12.6463 38.0074 12.1494C38.0074 12.1494 38.2513 12.2571 38.3805 11.6745C38.5185 11.3951 38.7023 11.1411 38.9244 10.923C39.2512 10.6195 39.6877 8.64648 38.2001 8.69789ZM38.6171 10.4677C38.6171 10.4677 37.8196 12.5337 36.6831 11.9364C35.5466 11.3392 36.6514 9.96099 36.6514 9.96099C38.622 8.03695 38.6171 10.4677 38.6171 10.4677Z" fill="#E8E8F0"/>
<path opacity="0.1" d="M33.674 16.1057C33.8477 16.1057 33.9886 15.9643 33.9886 15.7899C33.9886 15.6155 33.8477 15.4741 33.674 15.4741C33.5002 15.4741 33.3594 15.6155 33.3594 15.7899C33.3594 15.9643 33.5002 16.1057 33.674 16.1057Z" fill="#121212"/>
<path d="M61.195 5.80532C60.2769 5.31991 59.3239 4.90423 58.344 4.56178C57.0414 4.19103 55.703 3.96125 54.3517 3.87638C50.0821 3.46839 45.7996 3.23177 41.504 3.16649C40.7455 3.16649 39.97 3.14935 39.2506 3.41128C38.6079 3.6588 38.0257 4.04197 37.5434 4.53486C36.7077 5.33673 36.0438 6.30128 35.5923 7.36952C35.4473 7.63718 35.404 7.94857 35.4704 8.24587C35.568 8.52983 35.9582 8.71831 36.1801 8.51758C35.6124 8.97684 35.1953 9.59681 34.9831 10.297C34.7709 10.9972 34.7733 11.7452 34.9899 12.444C34.6514 12.6217 34.3643 12.884 34.1562 13.2056C33.9482 13.5272 33.8263 13.8972 33.8022 14.2799C35.5753 14.6094 37.4005 14.5206 39.1335 14.0205C38.6165 13.8883 38.0824 14.3754 38.0507 14.909C38.0541 15.1771 38.1313 15.4391 38.2738 15.6659C38.4162 15.8927 38.6184 16.0755 38.8579 16.1942C39.3416 16.424 39.8745 16.5299 40.409 16.5026C42.4747 16.5026 44.4842 15.8001 46.545 15.7095C48.1205 15.6385 49.7448 15.9249 51.2495 15.4647C52.9957 14.9213 54.5541 13.3816 56.3539 13.7022C57.7904 13.9593 58.7269 15.2983 59.6634 16.4194C61.1608 18.2088 63.0119 19.658 64.8483 21.0949C66.2628 22.2013 67.7408 23.3371 69.4943 23.7117C70.019 23.8552 70.5755 23.8287 71.0844 23.6358C71.5096 23.4074 71.8665 23.0694 72.1184 22.6566C74.0085 19.9639 74.0109 16.5736 73.9012 13.4183C73.8451 11.8051 73.4939 11.5872 72.0062 10.919C70.2796 10.1405 68.5594 9.34334 66.8457 8.52738C64.9532 7.63961 63.0696 6.73226 61.195 5.80532Z" fill="#FBBEBE"/>
<path d="M80.9616 11.8462C80.6709 12.0206 80.3638 12.1657 80.0446 12.2795C79.5105 12.4068 78.9667 12.1792 78.4472 12.0029C76.2523 11.2685 73.8135 11.4423 71.6917 10.5342C72.3875 14.5428 71.4767 18.665 69.1578 22.0026C68.7188 22.6292 68.1408 23.2706 67.3799 23.3195C67.7189 24.3648 68.7627 24.9963 69.7529 25.4663C71.3341 26.2175 72.9882 26.8032 74.689 27.2141C75.1768 27.3292 75.7718 27.3855 76.0547 26.9693C76.2255 26.7245 76.2986 26.306 76.5986 26.3206C77.0571 26.8102 76.9059 27.8139 77.54 28.0342C77.7376 28.0847 77.9447 28.0847 78.1424 28.0342L79.5569 27.7894C79.9812 27.7525 80.39 27.6113 80.747 27.3781C80.9707 27.1832 81.1552 26.9472 81.2909 26.6829C82.8761 23.9731 83.4858 20.8374 83.7297 17.7408C83.8492 16.2035 83.998 14.5732 83.8931 13.031C83.7955 11.7092 82.1079 11.3102 80.9616 11.8462Z" fill="#E8E8F0"/>
<path opacity="0.1" d="M80.9616 11.8462C80.6709 12.0206 80.3638 12.1657 80.0446 12.2795C79.5105 12.4068 78.9667 12.1792 78.4472 12.0029C76.2523 11.2685 73.8135 11.4423 71.6917 10.5342C72.3875 14.5428 71.4767 18.665 69.1578 22.0026C68.7188 22.6292 68.1408 23.2706 67.3799 23.3195C67.7189 24.3648 68.7627 24.9963 69.7529 25.4663C71.3341 26.2175 72.9882 26.8032 74.689 27.2141C75.1768 27.3292 75.7718 27.3855 76.0547 26.9693C76.2255 26.7245 76.2986 26.306 76.5986 26.3206C77.0571 26.8102 76.9059 27.8139 77.54 28.0342C77.7376 28.0847 77.9447 28.0847 78.1424 28.0342L79.5569 27.7894C79.9812 27.7525 80.39 27.6113 80.747 27.3781C80.9707 27.1832 81.1552 26.9472 81.2909 26.6829C82.8761 23.9731 83.4858 20.8374 83.7297 17.7408C83.8492 16.2035 83.998 14.5732 83.8931 13.031C83.7955 11.7092 82.1079 11.3102 80.9616 11.8462Z" fill="#121212"/>
<path d="M67.5631 88.7193C67.3778 89.1256 67.1046 89.5271 67.1461 89.9702C67.1705 90.2345 67.307 90.4842 67.2875 90.7462C67.2485 91.2602 66.6559 91.5466 66.1437 91.5515C65.6316 91.5564 65.117 91.3899 64.6122 91.4781C63.783 91.62 63.222 92.3862 62.505 92.8293C61.5051 93.4462 60.2564 93.4095 59.0907 93.5147C56.6519 93.735 54.3447 94.653 52.1376 95.6982C50.6378 96.4081 49.0452 97.3187 48.4794 98.8805C47.6673 101.084 49.2428 103.404 49.5915 105.735C49.685 106.519 49.7078 107.311 49.6598 108.099C49.4037 116.329 48.9623 124.654 48.494 132.874L-40.9031 132.98L-36.501 125.237C-32.2087 117.685 -27.8018 109.992 -21.3267 104.217C-20.3663 103.347 -19.2872 102.618 -18.1221 102.053L-12.9299 106.704C-12.5142 107.119 -12.0319 107.461 -11.5032 107.715C-10.5277 108.114 -9.43508 107.886 -8.38883 107.921C-6.37681 107.987 -4.53794 109.017 -2.79175 110.023C-1.51097 110.721 -0.278961 111.505 0.895733 112.371C1.58348 112.9 2.57608 113.23 3.29309 113.717L3.12481 104.929C3.10774 104.136 3.09554 103.323 3.3321 102.567C3.7906 101.098 5.10025 100.06 5.72946 98.6626C6.0148 98.0335 6.15382 97.3481 6.39282 96.7043C6.73072 95.8767 7.15068 95.0854 7.64637 94.3421L10.8827 89.1232C11.6826 87.8356 12.4801 86.548 13.3483 85.3069C17.1455 79.8701 22.2573 75.5153 27.23 71.1458C27.1145 69.9006 27.4009 68.6511 28.047 67.5817C28.3018 67.2257 28.513 66.8402 28.6762 66.4336C28.7815 65.9517 28.812 65.4562 28.7665 64.9649C28.7665 64.8401 28.7665 64.7201 28.7665 64.5879C28.8205 63.7875 29.1538 63.0317 29.7079 62.4534C30.2786 61.8585 31.0419 61.4962 31.7931 61.1584C35.6803 59.4135 39.7221 58.0383 43.8652 57.0509C44.5261 56.8942 45.226 56.7473 45.8772 56.9456C46.0747 57.5845 46.7479 57.8097 47.421 57.9713L47.8526 58.0716C48.9958 58.3194 50.062 58.8419 50.9597 59.5942C51.9035 60.4216 52.5522 61.5281 53.1839 62.6174C57.9323 70.8007 60.1199 81.5372 67.4656 87.4831C67.8216 87.7646 67.7485 88.3276 67.5631 88.7193Z" fill="#8BC63E"/>
<path d="M117.298 37.1229C117.032 39.1059 116.568 41.0569 115.912 42.9465C115.668 43.6343 115.368 44.3051 115.059 44.966C113.242 48.8312 112.244 53.0098 111.769 57.2593C111.732 57.5939 111.671 57.9252 111.586 58.2507C111.227 59.6215 110.471 60.8455 109.893 62.1355C109.304 63.5289 108.815 64.963 108.43 66.4267C108.291 66.7939 108.244 67.1899 108.293 67.5796C108.384 67.9933 108.681 68.314 108.891 68.6885C109.974 70.5612 108.723 72.85 108.301 74.9698C108.157 75.7042 108.093 76.5022 107.618 77.075C107.213 77.5646 106.584 77.7898 105.986 77.9954C97.4697 80.9015 88.753 83.1792 79.9057 84.8104C78.5863 85.0552 77.223 85.2828 75.9134 85.038C74.6037 84.7932 73.299 83.9805 72.8502 82.7125C72.5917 81.9781 72.6356 81.1801 72.6576 80.4017C72.7063 78.7665 72.6576 77.1215 72.5698 75.4741C72.2869 70.052 71.6455 64.6103 73.0575 59.4159C73.4794 57.8835 74.0745 56.405 74.5525 54.8898C75.4866 51.9351 75.728 48.8802 75.9621 45.8154C76.1548 43.2892 76.3426 40.7532 76.906 38.2612C77.3254 36.4033 77.0474 34.4719 77.023 32.5674C76.9747 28.2092 78.2508 23.9397 80.6813 20.3279C81.1032 19.7037 81.5665 19.0868 81.7885 18.3696C82.1006 17.3415 81.886 16.2375 81.7446 15.1702C81.3885 12.449 81.5324 9.68541 82.1689 7.01628C82.369 6.01757 82.7501 5.06423 83.2932 4.20365C83.9005 3.31506 84.7711 2.64434 85.6418 2.01278C90.6964 -1.64484 96.2738 -4.51285 102.184 -6.49365C102.728 -5.11304 103.25 -3.49988 103.667 -2.08744C103.723 -1.89651 103.762 -1.65416 103.606 -1.53177C103.45 -1.40937 103.289 -1.47547 103.118 -1.47057C102.942 -1.4514 102.776 -1.37918 102.641 -1.2634C102.507 -1.14762 102.41 -0.993706 102.365 -0.821881C102.279 -0.475219 102.312 -0.10989 102.457 0.216024C102.789 1.07279 103.504 1.71169 104.191 2.31632L107.65 5.34437C108.064 5.73316 108.515 6.07924 108.998 6.37738C109.432 6.62217 109.905 6.79597 110.352 7.02118C112.142 7.92935 113.378 9.69917 114.069 11.5889C114.759 13.4787 114.447 15.7504 115.346 17.5447C118.336 23.4931 118.312 30.5308 117.298 37.1229Z" fill="#E8E8F0"/>
<path d="M105.083 76.2961L105.083 76.2961C103.192 75.9925 101.31 76.3149 99.3917 76.8836C98.4332 77.1679 97.4757 77.5105 96.5076 77.8623C96.4134 77.8966 96.319 77.9309 96.2246 77.9653C95.3529 78.2826 94.4717 78.6034 93.5906 78.8835L93.5905 78.8835C91.3077 79.6087 88.929 80.0752 86.588 80.5343C85.873 80.6746 85.1615 80.8141 84.4573 80.9601C81.4263 81.5886 78.5022 82.3408 75.8465 83.7745L75.8365 83.7799L75.8264 83.7848C75.4001 83.9907 75.0129 84.27 74.6825 84.61C74.3075 85.0826 74.0713 85.6512 74.0009 86.2519L73.9997 86.2616L73.9982 86.2713C73.7727 87.7079 74.0497 89.1785 74.7821 90.4331C74.8934 90.6228 75.0107 90.801 75.1358 90.991C75.1934 91.0785 75.2527 91.1685 75.3138 91.2633C75.5 91.5523 75.6911 91.8685 75.8398 92.2181L75.8398 92.2182C76.1948 93.0532 76.2447 93.9314 76.2035 94.7711C76.1828 95.1917 76.1386 95.6134 76.0942 96.0205C76.0903 96.0563 76.0864 96.0919 76.0825 96.1275C76.0417 96.5008 76.0023 96.8608 75.9786 97.2156L75.9785 97.2162C75.8614 98.939 76.1347 100.653 76.4841 102.416C76.5487 102.742 76.616 103.07 76.6837 103.4C76.9789 104.838 77.282 106.315 77.3975 107.804L105.083 76.2961ZM105.083 76.2961C105.888 76.4251 106.68 76.3534 107.404 76.2855L107.44 76.2821C108.037 76.2261 108.587 76.1745 109.126 76.2055C109.618 78.7061 110.798 80.9434 112.055 83.0942C112.302 83.5162 112.551 83.9342 112.799 84.3503C113.892 86.1847 114.963 87.9819 115.699 89.916L115.699 89.9162C117.31 94.1442 117.233 98.8956 116.268 103.385C115.343 107.686 113.654 111.78 111.952 115.903C111.876 116.087 111.8 116.272 111.724 116.457C111.169 117.72 110.703 119.02 110.327 120.348L110.327 120.348L110.324 120.359C109.278 124.416 110.14 128.55 111.234 132.466L80.7354 132.365C80.8384 130.625 80.5303 128.921 80.17 127.266C80.0981 126.936 80.0243 126.609 79.951 126.283C79.6127 124.782 79.2838 123.322 79.1931 121.841L79.1931 121.841C79.1658 121.403 79.1606 120.974 79.1551 120.531C79.1527 120.334 79.1502 120.133 79.1458 119.928C79.1315 119.275 79.0967 118.597 78.9687 117.903C78.8406 117.21 78.6235 116.548 78.4088 115.918C78.3852 115.849 78.3616 115.78 78.3381 115.711C78.1452 115.148 77.9612 114.61 77.8292 114.059L77.8291 114.059M105.083 76.2961L77.8291 114.059M77.8291 114.059C77.5941 113.08 77.5255 112.067 77.4974 111.015M77.8291 114.059L77.4974 111.015M77.4974 111.015C77.4892 110.709 77.4845 110.396 77.4797 110.08M77.4974 111.015L77.4797 110.08M77.4797 110.08C77.4684 109.329 77.4568 108.559 77.3976 107.804L77.4797 110.08Z" fill="#121212" stroke="#121212"/>
<path d="M36.2671 61.0313L36.2671 61.0314C37.1102 60.8162 37.9762 60.6465 38.8252 60.4802C39.1973 60.4072 39.5662 60.335 39.9285 60.2598C41.1329 60.0098 42.2944 59.7225 43.3918 59.2629C43.8931 59.052 44.3792 58.8068 44.8828 58.5527C45.011 58.488 45.1403 58.4228 45.2713 58.3574C45.5328 58.2268 45.7995 58.0965 46.0719 57.9726C45.8548 57.8245 45.6587 57.6306 45.5198 57.3747C45.0693 57.301 44.5648 57.399 43.9813 57.5373L36.2671 61.0313ZM36.2671 61.0313L36.2608 61.033M36.2671 61.0313L36.2608 61.033M36.2608 61.033C33.9189 61.6635 31.6615 62.5761 29.5381 63.7509M36.2608 61.033L29.5381 63.7509M29.5381 63.7509C29.5041 63.7696 29.4643 63.7949 29.421 63.8246C29.5583 63.4419 29.7748 63.0894 30.0596 62.7921C30.554 62.2768 31.2299 61.9485 31.9886 61.6073C35.8505 59.8772 39.8656 58.5146 43.9811 57.5374L29.5381 63.7509Z" fill="#121212" stroke="#121212"/>
<path opacity="0.1" d="M107.274 35.0058C107.15 36.0633 106.757 37.0669 106.36 38.0509C105.384 40.4988 104.338 42.9223 102.865 45.0935C101.85 46.5892 100.643 47.9404 99.5847 49.4018C98.4983 50.953 97.5016 52.5655 96.5996 54.2315C94.9364 57.1886 93.3154 60.1701 91.7366 63.1761C90.9831 64.6155 90.2343 66.0671 89.2613 67.3669C88.5784 68.2442 87.8455 69.0812 87.0663 69.8736C85.3592 71.6801 83.6057 73.3496 82.079 75.3079C81.3229 76.2871 80.0621 76.664 78.8841 76.997C78.4902 77.1285 78.0796 77.2027 77.6647 77.2173C77.2471 77.1881 76.8361 77.0965 76.4453 76.9455C75.1297 76.5426 73.8424 76.0519 72.592 75.4768C72.3091 70.0547 71.6677 64.613 73.0797 59.4186C73.5017 57.8862 74.0967 56.4077 74.5747 54.8925C75.5088 51.9379 75.7503 48.8829 75.9844 45.8181C76.2746 45.2037 76.5843 44.5942 76.8843 44.0018C78.9183 39.9677 80.6328 35.5247 80.1035 31.0279C79.9688 30.2173 79.8751 29.4003 79.8231 28.58C79.8281 27.5744 79.997 26.5764 80.323 25.6254C81.0529 23.3795 82.2595 21.3191 83.8594 19.5864C85.4594 17.8537 87.4147 16.4899 89.5905 15.5891C90.2777 15.2668 91.0269 15.0996 91.7854 15.0995C92.7609 15.1509 93.695 15.6601 94.6461 15.474C97.8678 16.8962 100.475 19.3246 102.424 22.2669C104.372 25.2093 104.479 29.1406 106.599 31.9606C107.226 32.8174 107.396 33.9507 107.274 35.0058Z" fill="#121212"/>
<path d="M36.7583 21.7211L36.6558 21.4983L32.6708 23.344L32.005 23.6524L31.3417 23.9584L36.9607 36.1857L37.624 35.8772L38.2898 35.5688L42.2748 33.7231L42.1724 33.5028L38.1874 35.3485L38.085 35.1257L42.07 33.28L41.9675 33.0572L37.9825 34.903L37.8801 34.6802L41.8651 32.8345L41.7651 32.6117L37.7777 34.4574L37.6752 34.2371L41.6627 32.3914L41.5603 32.1687L37.5728 34.0144L37.4704 33.7916L41.4578 31.9459L41.3554 31.7231L37.3704 33.5689L37.268 33.3461L41.253 31.5004L41.1505 31.2801L37.1655 33.1258L37.0631 32.903L41.0481 31.0573L40.9457 30.8346L36.9607 32.6803L36.8583 32.4575L40.8457 30.6118L40.7433 30.389L36.7558 32.2348L36.6534 32.0144L40.6408 30.1663L40.5384 29.946L36.551 31.7917L36.451 31.5689L40.436 29.7232L40.3335 29.5005L36.3485 31.3462L36.2461 31.1234L40.2311 29.2777L40.1287 29.0549L36.1437 30.9007L36.0412 30.6803L40.0263 28.8346L39.9263 28.6119L35.9388 30.4576L35.8364 30.2348L39.8238 28.3891L39.7214 28.1664L35.7339 30.0121L35.634 29.7893L39.619 27.946L39.5165 27.7233L35.5315 29.569L35.4291 29.3462L39.4141 27.5005L39.3117 27.2778L35.3267 29.1235L35.2242 28.9007L39.2092 27.055L39.1093 26.8323L35.1218 28.6804L35.0194 28.4577L39.0068 26.6119L38.9044 26.3892L34.917 28.2349L34.8145 28.0121L38.802 26.1664L38.6995 25.9437L34.7145 27.7894L34.6121 27.5666L38.5971 25.7209L38.4947 25.5006L34.5097 27.3463L34.4072 27.1236L38.3923 25.2778L38.2898 25.0551L34.3048 26.9008L34.2024 26.678L38.1898 24.8323L38.0874 24.612L34.1 26.4553L33.9975 26.235L37.985 24.3893L37.8825 24.1665L33.8951 26.0122L33.7951 25.7894L37.7801 23.9437L37.6777 23.721L33.6927 25.5667L33.5902 25.3439L37.5753 23.4982L37.4728 23.2779L33.4878 25.1236L33.3854 24.9009L37.3704 23.0552L37.2704 22.8324L33.283 24.6781L33.1805 24.4554L37.168 22.6096L37.0655 22.3869L33.0781 24.2326L32.9757 24.0123L36.9631 22.1666L36.8607 21.9438L32.8732 23.7895L32.7733 23.5668L36.7583 21.7211Z" fill="#121212"/>
<path opacity="0.1" d="M49.2699 48.6132C48.7553 49.4871 47.9676 50.2459 46.9896 50.5029C45.7702 50.8187 44.3509 50.2067 43.8192 49.0611C43.4924 48.3512 43.507 47.5385 43.49 46.7577C43.463 45.2284 43.2998 43.7046 43.0022 42.2046C42.851 41.4531 42.6486 40.6722 42.1388 40.1043C41.4804 39.3699 40.4317 39.1251 39.4562 39.108C38.3148 39.0933 37.0637 39.4042 36.3979 40.3319C35.8638 41.081 35.7711 42.1336 35.0614 42.7186C34.7459 42.9615 34.371 43.1146 33.9762 43.1617C33.1711 43.2624 32.3556 43.0892 31.6601 42.6699C30.9647 42.2505 30.4294 41.6092 30.1399 40.8484C29.9155 40.2022 29.8058 39.3993 29.1961 39.0957C28.879 38.9366 28.501 38.966 28.162 38.8632C27.1231 38.5474 26.85 37.2256 26.7548 36.1411C26.6451 34.8707 27.067 32.3616 25.494 32.2759C23.8112 32.1829 21.8577 33.1645 20.2993 33.6859C19.2994 34.0898 18.1239 34.5549 17.2044 33.9894C16.5289 33.5708 16.2509 32.7018 16.2923 31.9063C16.3338 31.1107 16.6362 30.3568 16.8752 29.5979C17.2849 28.3152 17.5313 26.9836 17.9068 25.6813C17.7302 26.0497 17.5731 26.4272 17.4361 26.8122C16.8947 28.3568 16.6411 29.9945 16.1436 31.5464C15.8997 32.3053 15.6022 33.0592 15.5607 33.8548C15.5192 34.6504 15.8046 35.5194 16.4728 35.938C17.3922 36.5034 18.5677 36.0383 19.5677 35.6344C21.1261 35.113 23.0795 34.1314 24.7623 34.2244C26.3354 34.3101 25.9134 36.8192 26.0232 38.0897C26.1183 39.1741 26.3914 40.4959 27.4304 40.8117C27.7694 40.9145 28.1474 40.8852 28.4644 41.0443C29.0741 41.3478 29.1961 42.1507 29.4083 42.797C29.6977 43.5577 30.233 44.199 30.9285 44.6184C31.624 45.0377 32.4394 45.2109 33.2445 45.1102C33.6394 45.0631 34.0143 44.9101 34.3298 44.6672C35.0395 44.0821 35.1321 43.0295 35.6662 42.2805C36.332 41.3478 37.5831 41.0369 38.7245 41.0565C39.7 41.0712 40.7609 41.316 41.4072 42.0528C41.9169 42.6207 42.1193 43.4016 42.2706 44.1531C42.5681 45.6532 42.7314 47.1769 42.7583 48.7062C42.7754 49.4871 42.7583 50.2998 43.0875 51.0096C43.6168 52.1553 45.0386 52.7672 46.258 52.4515C47.2335 52.1944 48.0237 51.4356 48.5383 50.5617C48.93 49.8481 49.2315 49.0883 49.4358 48.2998C49.3821 48.4124 49.3285 48.5128 49.2699 48.6132Z" fill="#121212"/>
<path d="M61.8525 46.3499C59.7974 44.5842 57.9185 42.6073 56.052 40.6347C54.2636 38.7483 52.4699 36.8524 50.9945 34.7128C50.081 33.3894 49.2506 31.9363 47.9126 31.049C46.8968 30.3715 45.6867 30.0973 44.5785 29.5991C43.7812 29.24 43.0386 28.77 42.2502 28.3957C40.5309 27.5861 38.6285 27.2488 36.7373 27.4182C35.9524 27.49 35.0692 27.7243 34.7038 28.4268C34.5783 28.6669 34.528 28.9419 34.3999 29.1797C34.0059 29.9378 32.9684 30.2054 32.6544 30.9957C32.1245 32.3254 34.0137 33.4116 34.2095 34.8299C34.3038 35.5405 33.9497 36.2276 33.8756 36.9404C33.7506 38.1735 34.4477 39.3032 35.1173 40.3341C36.5502 42.5423 38.278 44.952 40.8698 45.3802C41.7872 45.5313 42.7403 45.4107 43.6406 45.6487C44.3684 45.8789 45.0503 46.2359 45.655 46.7032C48.1679 48.4681 50.4147 50.5867 52.3263 52.994C53.2158 54.1127 54.0303 55.2873 54.9267 56.3983C57.7788 59.9174 61.4174 62.712 65.547 64.5551L67.9905 54.8533C68.3669 53.3607 68.6149 51.3286 67.2397 50.2596C65.5139 48.8698 63.5552 47.8072 61.8525 46.3499Z" fill="#FBBEBE"/>
<path d="M94.3904 14.2604C93.4393 14.444 92.4954 13.9373 91.5297 13.8859C90.7711 13.8855 90.0218 14.0527 89.3347 14.3754C87.1592 15.2769 85.2042 16.6408 83.6044 18.3735C82.0045 20.1061 80.7977 22.1661 80.0672 24.4118C79.7443 25.3667 79.5779 26.3678 79.5746 27.3762C79.5892 28.1963 79.76 29.0041 79.8551 29.8241C80.3843 34.3135 78.6698 38.7589 76.6383 42.7979C75.514 45.028 74.2458 47.3804 74.5116 49.865C74.5458 50.1979 74.5994 50.5725 74.397 50.8442C74.1531 51.1673 73.6263 51.1844 73.3995 51.5247C73.1727 51.8649 73.38 52.379 73.1995 52.7633C72.9557 53.3068 72.1606 53.2407 71.5924 53.0473C70.0347 52.5182 68.592 51.6957 67.3415 50.6239C65.3149 51.8111 63.1467 53.226 62.481 55.4829C62.3246 56.0588 62.2161 56.6467 62.1566 57.2405L61.1103 66.004C60.9713 67.1643 60.903 68.5253 61.7761 69.2989C63.2809 70.6354 65.9611 68.9048 67.5708 70.114C67.9829 70.4224 68.2512 70.8826 68.5463 71.3012C70.3047 73.7222 73.3312 74.787 76.17 75.7074C76.5612 75.8565 76.972 75.9472 77.3894 75.9767C77.8046 75.965 78.2157 75.8907 78.6088 75.7564C79.7892 75.4235 81.0476 75.0367 81.8037 74.0698C83.3328 72.1115 85.0863 70.442 86.7935 68.6355C87.5714 67.8419 88.3042 67.005 88.9884 66.1288C89.964 64.8265 90.7102 63.3749 91.4638 61.9356C93.0393 58.9296 94.6587 55.948 96.3219 52.991C97.2332 51.3318 98.2388 49.7266 99.3339 48.1833C100.395 46.7146 101.6 45.3682 102.614 43.875C104.077 41.7013 105.128 39.2681 106.109 36.8324C106.506 35.8533 106.899 34.8423 107.026 33.7872C107.153 32.7322 106.982 31.5988 106.343 30.7494C104.224 27.927 104.119 23.9981 102.17 21.0557C100.222 18.1134 97.6145 15.6802 94.3904 14.2604Z" fill="#E8E8F0"/>
<path d="M37.2177 23.1648C37.2032 23.135 37.188 23.1077 37.1739 23.084C37.3593 22.9257 37.572 22.7655 37.7623 22.6938C37.8559 22.6585 37.9061 22.6598 37.9249 22.6633C37.9251 22.6634 37.9253 22.6634 37.9256 22.6634C37.9314 22.6643 37.9548 22.6679 37.9957 22.722C38.3608 23.2207 38.5733 23.6672 38.5188 24.0708L38.5172 24.0822L38.5162 24.0938C38.5123 24.138 38.4961 24.1798 38.47 24.2147C38.4266 24.2419 38.3798 24.2631 38.3307 24.2776L38.3159 24.282L38.3013 24.2873C37.8852 24.4394 37.4866 24.6358 37.1124 24.8734L37.1124 24.8734L37.1105 24.8745C37.0959 24.8839 37.0815 24.8932 37.0674 24.9022C36.9154 24.9999 36.7961 25.0765 36.6756 25.1295C36.5677 25.177 36.4998 25.1859 36.4541 25.1813C36.3665 25.1499 36.285 25.1041 36.2129 25.0458C36.2354 25.0245 36.2619 25.0018 36.2928 24.9771C36.3479 24.9333 36.4082 24.8903 36.4816 24.8384L36.4896 24.8327C36.5574 24.7847 36.6372 24.7283 36.7144 24.6673C36.8957 24.5244 37.0797 24.3233 37.1954 24.0825C37.3127 23.8384 37.3791 23.5046 37.2199 23.1693L37.2199 23.1693L37.2177 23.1648ZM37.0946 22.9573C37.0947 22.9573 37.0953 22.9584 37.0962 22.9604C37.095 22.9583 37.0946 22.9573 37.0946 22.9573Z" fill="#121212" stroke="#121212"/>
</g>
</svg>
