<svg width="68" height="44" viewBox="0 0 68 44" fill="none" xmlns="http://www.w3.org/2000/svg">
<path d="M12.8527 32.3656C12.1493 31.0476 12.9495 29.4336 13.8641 28.2588C14.7788 27.084 15.8988 25.8622 15.8745 24.3648C15.8397 22.2134 13.5841 20.9435 11.7821 19.8031C10.4448 18.9567 9.2113 17.9531 8.10718 16.8132C7.66442 16.3553 7.23521 15.8669 6.97749 15.2825C6.60545 14.4411 6.61514 13.4851 6.63936 12.5633C6.71687 9.49074 6.86672 6.42407 7.08891 3.36328" stroke="#494949" stroke-width="2" stroke-miterlimit="10"/>
<path d="M3.66234 3.19533C3.68887 2.63401 3.85431 2.08844 4.14345 1.60869C4.43259 1.12894 4.83618 0.730395 5.31715 0.449646L6.0593 1.93526L6.03702 0.136834C6.71124 -0.0642463 7.43116 -0.0432488 8.09282 0.196793C8.75449 0.436834 9.32366 0.8835 9.71815 1.47229C10.1126 2.06109 10.312 2.76154 10.2876 3.47251C10.2631 4.18348 10.016 4.86818 9.58194 5.42775C9.1479 5.98731 8.54938 6.39278 7.87281 6.58561C7.19624 6.77845 6.47662 6.74866 5.81786 6.50055C5.15911 6.25245 4.5953 5.79887 4.20786 5.2053C3.82042 4.61173 3.62938 3.90889 3.66234 3.19827V3.19533Z" fill="#8BC63E"/>
<path d="M9.57424 25.9021C9.90754 26.5596 10.446 27.0872 11.1061 27.403C11.7661 27.7188 12.5107 27.8052 13.2242 27.6487C13.9377 27.4921 14.5802 27.1015 15.0518 26.5374C15.5233 25.9733 15.7977 25.2674 15.8321 24.5293C15.8553 24.0653 15.7816 23.6015 15.6161 23.1682C15.374 22.5326 14.9466 21.9867 14.3906 21.6029C13.8346 21.2191 13.1763 21.0156 12.5033 21.0196C11.8303 21.0235 11.1745 21.2347 10.6229 21.6249C10.0713 22.0152 9.65014 22.5661 9.41535 23.2045L11.4858 24.9088L9.20801 24.3724C9.20707 24.9047 9.33268 25.4293 9.57424 25.9021Z" fill="#8BC63E"/>
<path d="M11.211 19.3892C12.0238 19.4268 12.8219 19.1606 13.4534 18.6412C14.0848 18.1218 14.5055 17.3855 14.6354 16.5725C14.7652 15.7596 14.5951 14.9266 14.1575 14.2323C13.7199 13.538 13.0453 13.0309 12.2622 12.8074L12.2796 14.189L11.5336 12.6858H11.5249C10.6465 12.6443 9.78775 12.9577 9.13764 13.557C8.48753 14.1563 8.09928 14.9925 8.05829 15.8816C8.01731 16.7706 8.32695 17.6397 8.9191 18.2977C9.51125 18.9557 10.3374 19.3487 11.2158 19.3902L11.211 19.3892Z" fill="#8BC63E"/>
<path d="M3.16351 13.969C3.67674 13.9943 4.18875 13.8985 4.65913 13.6892C5.12952 13.4799 5.5454 13.1628 5.87395 12.763C6.20251 12.3631 6.43474 11.8915 6.55232 11.3852C6.6699 10.8789 6.6696 10.3519 6.55146 9.84581C6.43332 9.33968 6.20057 8.86828 5.87157 8.4688C5.54257 8.06932 5.12634 7.7527 4.65572 7.54394C4.1851 7.33518 3.67299 7.23999 3.15979 7.26588C2.64659 7.29177 2.14637 7.43804 1.6986 7.69313L2.27991 9.31799L1.0795 8.14421C0.758596 8.43977 0.498433 8.79647 0.313897 9.19391C0.12936 9.59135 0.0240736 10.0217 0.00406145 10.4604C-0.0113251 10.7708 0.0170565 11.0818 0.0883517 11.3841C0.253141 12.095 0.642598 12.732 1.1976 13.1986C1.7526 13.6651 2.44283 13.9356 3.16351 13.969Z" fill="#8BC63E"/>
<path opacity="0.1" d="M4.10783 4.08985C4.87323 4.17517 5.61731 4.41541 6.38465 4.46346C7.15199 4.51151 7.99586 4.32618 8.48126 3.72213C8.74285 3.39657 8.87365 2.98472 9.09455 2.62974C9.30386 2.29899 9.59077 2.02578 9.92971 1.83447C10.1408 2.25969 10.2601 2.72548 10.2796 3.20093C10.2992 3.67638 10.2187 4.15061 10.0434 4.59214C9.86806 5.03368 9.60195 5.43242 9.26273 5.76191C8.9235 6.0914 8.51892 6.3441 8.07582 6.50323C7.63273 6.66237 7.16126 6.7243 6.69271 6.68492C6.22416 6.64554 5.76925 6.50574 5.35816 6.27482C4.94707 6.04389 4.58921 5.7271 4.30833 5.3455C4.02745 4.96389 3.82997 4.52618 3.729 4.06142C3.85786 4.0673 3.98381 4.07613 4.10783 4.08985Z" fill="#494949"/>
<path opacity="0.1" d="M3.16357 13.9694C3.73484 13.9961 4.30323 13.8728 4.81355 13.6116C5.32388 13.3504 5.75882 12.9601 6.07615 12.4785C6.39349 11.997 6.58244 11.4406 6.62468 10.8634C6.66692 10.2862 6.561 9.70767 6.31721 9.18408C6.054 9.36322 5.82762 9.59234 5.65063 9.85874C5.41423 10.2196 5.27181 10.6364 4.99375 10.9678C4.47734 11.5817 3.59568 11.7827 2.7954 11.7464C1.99513 11.7101 1.22294 11.4787 0.426541 11.4052C0.316091 11.3954 0.203704 11.3875 0.0922852 11.3846C0.256889 12.0948 0.645769 12.7314 1.19999 13.1979C1.75421 13.6643 2.44356 13.9352 3.16357 13.9694Z" fill="#494949"/>
<path opacity="0.1" d="M11.2104 19.3886C11.7761 19.4155 12.3392 19.2952 12.8459 19.0393C13.3527 18.7833 13.7861 18.4002 14.105 17.9265C14.4239 17.4528 14.6175 16.9043 14.6675 16.3334C14.7174 15.7624 14.6219 15.188 14.3902 14.665C14.1172 14.8486 13.8798 15.0812 13.6897 15.3515C13.432 15.7192 13.2712 16.1428 12.9699 16.4821C12.4108 17.1126 11.471 17.3352 10.6233 17.3146C9.80266 17.297 9.01207 17.093 8.19629 17.0293C8.39826 17.6883 8.79596 18.2684 9.33529 18.6906C9.87461 19.1128 10.5294 19.3565 11.2104 19.3886Z" fill="#494949"/>
<path opacity="0.1" d="M9.57422 25.9024C9.90752 26.5598 10.446 27.0874 11.106 27.4032C11.7661 27.7191 12.5107 27.8054 13.2242 27.6489C13.9377 27.4924 14.5801 27.1017 15.0517 26.5376C15.5233 25.9735 15.7976 25.2676 15.8321 24.5295C15.8552 24.0655 15.7816 23.6018 15.616 23.1685C15.3433 23.3498 15.0984 23.5708 14.8894 23.8245C14.5745 24.2167 14.3662 24.6541 14.0019 25.0169C13.3237 25.6896 12.2299 25.9681 11.2562 25.9975C10.6941 25.9995 10.1325 25.9677 9.57422 25.9024Z" fill="#494949"/>
<path d="M54.1149 21.504L66.7556 22.831L67.4804 38.4893L51.1476 41.4961L50.8336 41.4691L50.8313 41.4689L36.5 40.167V24.1847L54.1149 21.504Z" fill="#494949" stroke="#494949"/>
<path opacity="0.1" d="M68 38.8301L51.3788 42L51 41.9662V24.2722L67.2496 22L68 38.8301Z" fill="#121212"/>
<path opacity="0.05" d="M68 22.6206L67.995 22.6254L51.148 25L36 23.9994L54.5434 21L67.995 22.5009L68 22.5823V22.6206Z" fill="#121212"/>
<path d="M38 40.6069L21.6978 44L21.3263 43.9639L7 42.4925V24.0174L24.5375 21L37.2593 22.5099L37.264 22.5918V22.6303L38 40.6069Z" fill="#8BC63E"/>
<path opacity="0.1" d="M38 40.5132L21.3788 44L21 43.9629V24.4994L37.2496 22L38 40.5132Z" fill="#494949"/>
<path opacity="0.05" d="M36 22.6206L35.9955 22.6254L20.7279 25L7 23.9994L23.805 21L35.9955 22.5009L36 22.5823V22.6206Z" fill="#494949"/>
<path d="M29.8384 24.464L29.8379 24.4639L15.5 23.0375V5.44063L33.116 2.50476L45.7537 3.95765L46.4824 21.1992L30.1469 24.495L29.8384 24.464Z" fill="#494949" stroke="#494949"/>
<path opacity="0.1" d="M47 21.6697L30.3788 25L30 24.9622V6.38556L46.2496 4L47 21.6697Z" fill="#121212"/>
<path opacity="0.05" d="M46 3.62059L45.9952 3.62537L29.6746 6L15 4.9994L32.964 2L45.9952 3.5009L46 3.58229V3.62059Z" fill="#121212"/>
</svg>
