<svg width="45" height="45" viewBox="0 0 45 45" fill="none" xmlns="http://www.w3.org/2000/svg">
<g clip-path="url(#clip0)">
<g clip-path="url(#clip1)">
<g clip-path="url(#clip2)">
<path d="M26.256 22.2429C26.4242 22.2429 26.5606 22.1068 26.5606 21.9389V20.9254C26.5606 20.7575 26.4242 20.6213 26.256 20.6213H18.744C18.5758 20.6213 18.4395 20.7575 18.4395 20.9254V22.0592C18.4395 22.2271 18.5758 22.3632 18.744 22.3632H20.9083C21.6013 22.3632 22.1331 22.6155 22.4556 23.0537H18.744C18.5758 23.0537 18.4395 23.1898 18.4395 23.3578V24.3712C18.4395 24.5392 18.5758 24.6753 18.744 24.6753H22.773C22.6152 25.5896 21.9365 26.1609 20.8758 26.1609H18.744C18.5758 26.1609 18.4395 26.297 18.4395 26.4649V27.8081C18.4395 27.8929 18.475 27.9739 18.5375 28.0315L22.7262 31.8918C22.7825 31.9436 22.8562 31.9724 22.9328 31.9724H25.0281C25.3053 31.9724 25.4383 31.6327 25.2346 31.4449L21.4055 27.9161C23.3469 27.8568 24.7337 26.5632 24.9158 24.6753H26.256C26.4242 24.6753 26.5606 24.5392 26.5606 24.3712V23.3578C26.5606 23.1898 26.4242 23.0537 26.256 23.0537H24.7666C24.6781 22.7613 24.5564 22.4901 24.4049 22.2429H26.256Z" fill="#EE4730"/>
</g>
<path d="M25.8682 15.1875L29.109 10.8315C29.2053 10.6388 29.2508 10.4247 29.2413 10.2095C29.2317 9.99429 29.1674 9.78508 29.0544 9.60169C28.9414 9.41829 28.7835 9.26677 28.5955 9.16148C28.4076 9.05619 28.1959 9.00061 27.9805 9H17.0117C16.796 8.99998 16.5839 9.0551 16.3954 9.16014C16.207 9.26517 16.0485 9.41662 15.9351 9.60012C15.8217 9.78362 15.757 9.99306 15.7473 10.2086C15.7376 10.4241 15.7831 10.6385 15.8795 10.8315L19.1181 15.1875C8.7917 21.5019 9.00033 29.6745 9.00033 30.7266C9.00033 33.6391 11.5901 36 14.7848 36H30.209C33.4032 36 35.9929 33.6391 35.9929 30.7266C35.9929 29.6935 36.1377 21.4676 25.8682 15.1875ZM25.8679 11.25L23.6212 14.625H21.3712L19.1179 11.25H25.8679ZM33.7429 30.7266C33.7429 32.2385 32.0025 33.75 30.209 33.75H14.7848C12.9918 33.75 11.2462 32.2385 11.2462 30.7266C11.203 26.4551 13.5133 21.3337 20.8054 16.875H24.1837C31.4389 21.3142 33.7783 26.4514 33.7429 30.7266Z" fill="#EE4730"/>
</g>
</g>
<defs>
<clipPath id="clip0">
<rect width="27" height="27" fill="white" transform="translate(9.00002 9)"/>
</clipPath>
<clipPath id="clip1">
<rect width="27" height="27" fill="white" transform="translate(9.00002 9)"/>
</clipPath>
<clipPath id="clip2">
<rect width="8.12109" height="12.9727" fill="white" transform="translate(18.4395 19.8105)"/>
</clipPath>
</defs>
</svg>
