<svg width="12" height="20" viewBox="0 0 12 20" fill="none" xmlns="http://www.w3.org/2000/svg">
<path fill-rule="evenodd" clip-rule="evenodd" d="M8.31786 2.07968C9.09546 2.86957 9.63171 3.88698 9.81106 5.01925H10.7601C11.224 5.01925 11.6 5.39527 11.6 5.85911C11.6 6.32296 11.224 6.69897 10.7601 6.69897H9.81105C9.39664 9.31521 7.07673 11.3182 4.27692 11.3182H2.83682L9.84439 18.1494C10.1808 18.4774 10.1808 19.0092 9.84439 19.3372C9.50794 19.6652 8.96244 19.6652 8.62599 19.3372L0.399994 11.3182V11.3182V10.6385C0.399994 10.0862 0.847709 9.63847 1.39999 9.63847H4.27692C6.12197 9.63847 7.666 8.38204 8.05777 6.69897L1.23985 6.69897C0.776012 6.69897 0.399994 6.32296 0.399994 5.85911C0.399994 5.39527 0.776012 5.01925 1.23985 5.01925L8.05777 5.01925C7.66601 3.33617 6.12198 2.07973 4.27692 2.07973H1.23985C0.776012 2.07973 0.399994 1.70371 0.399994 1.23986V1.23982C0.399994 0.775982 0.776012 0.399963 1.23985 0.399963H10.7601C11.224 0.399963 11.6 0.775982 11.6 1.23982C11.6 1.70367 11.224 2.07968 10.7601 2.07968L8.31786 2.07968Z" fill="black"/>
</svg>
