<svg width="33" height="33" viewBox="0 0 33 33" fill="none" xmlns="http://www.w3.org/2000/svg">
<path fill-rule="evenodd" clip-rule="evenodd" d="M17.808 15.2917L19.464 13.6356L20.8948 15.0664L24.2784 18.45C24.4346 18.6062 24.6879 18.6062 24.8441 18.45L28.5693 14.7248C28.7255 14.5687 28.7255 14.3155 28.5695 14.1593L25.9939 11.5807L24.5631 10.1499L22.4169 8.00366L20.9861 6.57285L18.0925 3.67925C17.9363 3.52304 17.683 3.52304 17.5268 3.67925L13.8001 7.40598C13.6439 7.56219 13.6439 7.81545 13.8001 7.97166L17.5432 11.7148L18.6145 12.7861L17.1837 14.2169L8.88793 22.5126C8.73172 22.6688 8.73172 22.9221 8.88793 23.0783L9.17179 23.3622C9.328 23.5184 9.58126 23.5184 9.73747 23.3622L17.808 15.2917ZM19.5499 17.0336L23.8972 21.3809C24.2877 21.7714 24.9209 21.7714 25.3114 21.3809L31.543 15.1492C31.9336 14.7587 31.9336 14.1256 31.543 13.735L26.3034 8.49535L22.4804 4.67242L18.5151 0.707053C18.1245 0.316529 17.4914 0.316528 17.1009 0.707053L10.8692 6.93871C10.4787 7.32923 10.4787 7.9624 10.8692 8.35292L15.2593 12.7431L5.91403 22.0884C5.52351 22.4789 5.52351 23.1121 5.91403 23.5026L8.79039 26.3789C9.18092 26.7695 9.81408 26.7695 10.2046 26.3789L19.5499 17.0336Z" fill="#EE4730"/>
<path d="M19.4238 26.4315C18.8715 26.4315 18.4238 26.8792 18.4238 27.4315L18.4238 27.8344C18.4238 28.3867 18.8715 28.8344 19.4238 28.8344L31.841 28.8344C32.3933 28.8344 32.841 28.3867 32.841 27.8344L32.841 27.4315C32.841 26.8792 32.3933 26.4315 31.841 26.4315L19.4238 26.4315Z" fill="#EE4730"/>
</svg>
