<svg width="40" height="40" viewBox="0 0 40 40" fill="none" xmlns="http://www.w3.org/2000/svg">
<path fill-rule="evenodd" clip-rule="evenodd" d="M19.4884 20.7279L20.5001 19.5001L21.6148 20.5007C21.7607 20.6317 21.7901 20.8492 21.6843 21.0143L20.9967 22.0868C20.9579 22.1473 20.9127 22.2034 20.8619 22.2542L13.2784 29.8377C12.8879 30.2283 12.2547 30.2283 11.8642 29.8377L9.7072 27.6807C9.31667 27.2902 9.31667 26.657 9.7072 26.2665L17.2128 18.7609C17.3145 18.6592 17.4369 18.5807 17.5717 18.5306L18.7595 18.0894C18.9061 18.035 19.071 18.071 19.1816 18.1816L20.0001 19.0001L18.9688 19.8333L12.1114 26.6908C11.9552 26.847 11.9552 27.1003 12.1114 27.2565L12.2528 27.3979C12.409 27.5541 12.6623 27.5541 12.8185 27.3979L19.4884 20.7279ZM26.9131 23.2028C26.5225 22.8123 26.5225 22.1791 26.9131 21.7886L28.3982 20.3035C28.5543 20.1473 28.5544 19.8942 28.3983 19.738L26.302 17.6391L25.111 16.4482L23.3247 14.6618L22.1337 13.4709L19.7727 11.1098C19.6165 10.9536 19.3632 10.9536 19.207 11.1098L17.7207 12.5962C17.3301 12.9867 16.697 12.9867 16.3065 12.5962C15.9159 12.2057 15.9159 11.5725 16.3065 11.182L18.7813 8.7071C19.1719 8.31658 19.805 8.31658 20.1955 8.7071L23.3775 11.8891L26.5595 15.0711L30.8021 19.3137C31.1927 19.7042 31.1927 20.3374 30.8021 20.7279L28.3273 23.2028C27.9367 23.5933 27.3036 23.5933 26.9131 23.2028Z" fill="#494949"/>
<path d="M21.0001 30.0001C20.4478 30.0001 20.0001 30.4478 20.0001 31.0001C20.0001 31.5523 20.4478 32.0001 21.0001 32.0001L26.5001 32.0001C27.0524 32.0001 27.5001 31.5523 27.5001 31.0001C27.5001 30.4478 27.0524 30.0001 26.5001 30.0001L21.0001 30.0001Z" fill="#494949"/>
<path fill-rule="evenodd" clip-rule="evenodd" d="M8.29289 8.29289C8.68342 7.90237 9.31658 7.90237 9.70711 8.29289L31.7071 30.2929C32.0976 30.6834 32.0976 31.3166 31.7071 31.7071C31.3166 32.0976 30.6834 32.0976 30.2929 31.7071L8.29289 9.70711C7.90237 9.31658 7.90237 8.68342 8.29289 8.29289Z" fill="#494949"/>
</svg>
