<svg width="23" height="22" viewBox="0 0 23 22" fill="none" xmlns="http://www.w3.org/2000/svg">
<path fill-rule="evenodd" clip-rule="evenodd" d="M12.5908 10.5824L13.6935 9.47968L14.6463 10.4324L16.8048 12.5909C16.961 12.7472 17.2143 12.7472 17.3705 12.5909L19.662 10.2994C19.8182 10.1433 19.8182 9.89012 19.6622 9.73388L18.0416 8.11135L17.0889 7.15862L15.6598 5.72952L14.707 4.77678L12.8748 2.94452C12.7186 2.78831 12.4653 2.78831 12.3091 2.94452L10.0166 5.23704C9.86036 5.39325 9.86036 5.64651 10.0166 5.80272L12.4145 8.20067L13.1278 8.91399L12.1751 9.86672L6.7457 15.2961C6.58949 15.4523 6.58949 15.7056 6.7457 15.8618C6.90191 16.018 7.15517 16.018 7.31138 15.8618L12.5908 10.5824ZM13.7507 11.7423L16.4092 14.4008C16.7997 14.7913 17.4329 14.7913 17.8234 14.4008L21.5003 10.7238C21.8909 10.3333 21.8909 9.70014 21.5003 9.30962L18.2476 6.05693L15.7021 3.51134L13.2979 1.10718C12.9074 0.716655 12.2742 0.716655 11.8837 1.10718L8.20673 4.78413C7.8162 5.17466 7.8162 5.80782 8.20673 6.19835L10.8937 8.88535L4.90722 14.8719C4.51669 15.2624 4.51669 15.8956 4.90722 16.2861L6.34998 17.7288C6.7405 18.1194 7.37366 18.1194 7.76419 17.7288L13.7507 11.7423Z" fill="#8BC63E"/>
<path d="M13.8001 18.0001C13.3583 18.0001 13.0001 18.3583 13.0001 18.8001C13.0001 19.2419 13.3583 19.6001 13.8001 19.6001L21.8001 19.6001C22.2419 19.6001 22.6001 19.2419 22.6001 18.8001C22.6001 18.3583 22.2419 18.0001 21.8001 18.0001L13.8001 18.0001Z" fill="#8BC63E"/>
</svg>
