<svg width="107" height="64" viewBox="0 0 107 64" fill="none" xmlns="http://www.w3.org/2000/svg">
<path d="M107 0L0.5 64H53L107 33V0Z" fill="#1BA318"/>
<path d="M48.9786 51.9377L45.4824 54.0291L45.9023 56.0945L44.4726 56.9498L42.4619 46.7982L44.0478 45.8495L52.0416 52.4219L50.5999 53.2844L48.9786 51.9377ZM47.9258 51.0503L44.2467 47.9818L45.1985 52.6818L47.9258 51.0503ZM58.2729 39.7054L60.1786 47.5543L58.7368 48.4168L54.4781 44.3247L56.0696 50.0123L54.6279 50.8748L48.6013 45.491L49.995 44.6573L54.5606 49.1532L52.7823 42.9899L54.212 42.1346L58.7272 46.628L56.9273 40.5104L58.2729 39.7054ZM60.802 42.6461C60.4043 41.9813 60.1883 41.3112 60.154 40.6356C60.1277 39.9553 60.2669 39.3337 60.5718 38.7706C60.8799 38.1948 61.3223 37.7344 61.899 37.3894C62.4196 37.078 62.9344 36.9114 63.4435 36.8896C63.9557 36.8551 64.419 36.9205 64.8334 37.0859L64.2584 36.1248L65.64 35.2983L69.6002 41.9182L68.2185 42.7447L67.6292 41.7595C67.5838 42.2109 67.4231 42.6604 67.1472 43.1082C66.8713 43.5561 66.477 43.9333 65.9644 44.24C65.3957 44.5801 64.7889 44.7474 64.1438 44.7418C63.494 44.7281 62.8732 44.5448 62.2814 44.1919C61.6928 43.8262 61.1997 43.3109 60.802 42.6461ZM66.2349 39.4287C65.9617 38.9722 65.6285 38.6332 65.235 38.4118C64.8495 38.1856 64.4519 38.0754 64.0421 38.0813C63.6324 38.0872 63.2513 38.1955 62.8988 38.4063C62.5464 38.6172 62.2707 38.9017 62.0718 39.26C61.868 39.6103 61.7707 40.0111 61.7797 40.4625C61.7919 40.9011 61.9346 41.3487 62.2077 41.8052C62.4808 42.2618 62.8125 42.6071 63.2027 42.8414C63.601 43.0708 64.0074 43.1866 64.422 43.1887C64.8398 43.178 65.2209 43.0697 65.5653 42.8637C65.9177 42.6528 66.1934 42.3683 66.3923 42.01C66.5913 41.6517 66.6822 41.2493 66.6652 40.8027C66.6514 40.3433 66.508 39.8853 66.2349 39.4287ZM69.3836 34.3639C69.3826 33.9077 69.4912 33.4893 69.7094 33.1086C69.9308 32.7152 70.2698 32.3819 70.7263 32.1088L71.5744 33.5265L71.226 33.7349C70.6894 34.0559 70.3623 34.4364 70.2449 34.8765C70.1355 35.3117 70.282 35.8657 70.6845 36.5385L72.7688 40.0227L71.3991 40.842L67.439 34.2221L68.8086 33.4028L69.3836 34.3639ZM73.5555 35.0168C73.1578 34.352 72.9418 33.6818 72.9075 33.0063C72.8812 32.326 73.0205 31.7043 73.3253 31.1413C73.6334 30.5655 74.0798 30.1027 74.6645 29.7529C75.097 29.4942 75.579 29.3363 76.1105 29.2794C76.6452 29.2097 77.1302 29.2567 77.5653 29.4206L75.6536 26.2248L77.0352 25.3982L82.3537 34.2889L80.972 35.1154L80.3755 34.1182C80.3429 34.5727 80.1886 35.0239 79.9127 35.4717C79.6448 35.9148 79.2546 36.2896 78.742 36.5963C78.1653 36.9412 77.5504 37.1133 76.8973 37.1124C76.2475 37.0988 75.6267 36.9155 75.0349 36.5626C74.4463 36.1969 73.9532 35.6816 73.5555 35.0168ZM78.9884 31.7994C78.7153 31.3429 78.382 31.0039 77.9885 30.7825C77.6031 30.5563 77.2054 30.4461 76.7957 30.452C76.3859 30.4579 76.0048 30.5662 75.6524 30.777C75.2999 30.9878 75.0243 31.2724 74.8253 31.6307C74.6216 31.981 74.5242 32.3818 74.5332 32.8332C74.5454 33.2718 74.6881 33.7194 74.9612 34.1759C75.2343 34.6324 75.566 34.9778 75.9563 35.212C76.3545 35.4415 76.7609 35.5572 77.1755 35.5594C77.5933 35.5487 77.9744 35.4404 78.3188 35.2343C78.6712 35.0235 78.9469 34.739 79.1459 34.3807C79.3448 34.0224 79.4358 33.62 79.4188 33.1734C79.405 32.7139 79.2615 32.256 78.9884 31.7994ZM88.1428 26.111C88.2914 26.3593 88.4095 26.5932 88.4972 26.8126L83.4392 29.8384C83.7955 30.3431 84.2457 30.6502 84.7897 30.7597C85.3338 30.8693 85.8622 30.7708 86.3748 30.4641C87.1117 30.0233 87.4478 29.4035 87.3832 28.6047L88.861 27.7207C89.0249 28.4492 88.9599 29.1678 88.6661 29.8765C88.3755 30.5724 87.8417 31.1527 87.0647 31.6175C86.432 31.996 85.7795 32.196 85.1072 32.2176C84.4381 32.2263 83.806 32.0606 83.211 31.7205C82.6193 31.3675 82.1197 30.8507 81.7125 30.1699C81.3052 29.489 81.0844 28.8109 81.0501 28.1353C81.019 27.447 81.1678 26.8142 81.4967 26.2368C81.8336 25.6546 82.3265 25.1694 82.9753 24.7813C83.6 24.4076 84.2381 24.2107 84.8896 24.1908C85.5411 24.1708 86.1516 24.3277 86.721 24.6614C87.2856 24.9871 87.7595 25.4703 88.1428 26.111ZM86.4544 26.5338C86.1445 26.034 85.7223 25.7373 85.1878 25.6438C84.6533 25.5502 84.1258 25.6592 83.6052 25.9706C83.1326 26.2533 82.8191 26.6475 82.6648 27.1531C82.5057 27.6507 82.5474 28.1749 82.79 28.7259L86.4544 26.5338ZM89.1132 25.71C88.7155 25.0452 88.4995 24.3751 88.4652 23.6995C88.4389 23.0192 88.5781 22.3976 88.883 21.8345C89.1911 21.2587 89.6375 20.7959 90.2222 20.4461C90.6547 20.1874 91.1367 20.0295 91.6682 19.9726C92.2029 19.9029 92.6878 19.95 93.123 20.1138L91.2112 16.918L92.5929 16.0915L97.9114 24.9821L96.5297 25.8086L95.9332 24.8114C95.9006 25.266 95.7463 25.7171 95.4704 26.165C95.2025 26.608 94.8123 26.9828 94.2996 27.2895C93.723 27.6345 93.1081 27.8065 92.455 27.8057C91.8052 27.792 91.1844 27.6087 90.5926 27.2558C90.004 26.8901 89.5109 26.3748 89.1132 25.71ZM94.5461 22.4926C94.2729 22.0361 93.9397 21.6971 93.5462 21.4757C93.1607 21.2495 92.7631 21.1393 92.3533 21.1452C91.9436 21.1511 91.5625 21.2594 91.21 21.4702C90.8576 21.6811 90.5819 21.9656 90.383 22.3239C90.1792 22.6742 90.0819 23.075 90.0909 23.5264C90.1031 23.965 90.2458 24.4126 90.5189 24.8691C90.792 25.3257 91.1237 25.671 91.5139 25.9052C91.9122 26.1347 92.3186 26.2504 92.7332 26.2526C93.151 26.2419 93.5321 26.1336 93.8765 25.9276C94.2289 25.7167 94.5046 25.4322 94.7035 25.0739C94.9025 24.7156 94.9934 24.3132 94.9764 23.8666C94.9626 23.4072 94.8192 22.9492 94.5461 22.4926Z" fill="white"/>
</svg>
