<svg width="37" height="41" viewBox="0 0 37 41" fill="none" xmlns="http://www.w3.org/2000/svg">
<path fill-rule="evenodd" clip-rule="evenodd" d="M31.106 35.4673L32.3418 36.701C33.1223 37.4803 33.1223 38.779 32.3418 39.5582C31.5613 40.3374 30.2605 40.3374 29.48 39.5582L27.919 37.9997C25.2523 39.6231 22.1304 40.5322 18.7483 40.5322C15.3662 40.5322 12.2442 39.6231 9.57755 37.9997L7.95154 39.5582C7.17105 40.3374 5.87024 40.3374 5.08975 39.5582C4.30926 38.779 4.30926 37.4803 5.08975 36.701L6.32552 35.4673C3.07349 32.2854 0.992188 27.8049 0.992188 22.8699C0.992188 13.1296 8.92715 5.20753 18.6832 5.20753C28.4393 5.20753 36.3743 13.1296 36.3743 22.8699C36.3743 27.8049 34.358 32.2854 31.106 35.4673ZM19.4637 21.8309L18.9434 11.6361H18.4881L17.9678 21.8309C17.6426 22.0906 17.3824 22.4803 17.3824 22.9348C17.3824 23.6491 17.9678 24.2335 18.6832 24.2335C19.3336 24.2335 19.854 23.779 19.9841 23.1945H30.3255V22.9997V22.6751H19.9841C19.919 22.2854 19.7239 22.0257 19.4637 21.8309ZM19.2036 8.51922V11.1166H18.228V8.51922C15.8215 8.58415 13.6101 9.2335 11.6589 10.3374L12.4393 11.6361L12.1141 11.8309L11.3336 10.5322C9.25235 11.766 7.49625 13.5192 6.26048 15.5971L7.56129 16.3764L7.36617 16.701L6.06536 15.9218C4.95967 17.8699 4.30926 20.0777 4.24422 22.4803H6.97593V23.4543H4.30926C4.3743 25.8569 5.02471 28.0647 6.1304 30.0127L7.43121 29.2335L7.62633 29.5582L6.32552 30.3374C7.56129 32.4153 9.31739 34.1686 11.3987 35.4023L12.1792 34.1036L12.5044 34.2984L11.7239 35.5971C13.6751 36.701 15.8865 37.3504 18.293 37.4153V34.8179H19.2686V37.4153C21.6751 37.3504 23.8865 36.701 25.8377 35.5971L25.0572 34.2984L25.3824 34.1036L26.1629 35.4023C28.2442 34.1686 30.0003 32.4153 31.2361 30.3374L29.9353 29.5582L30.1304 29.2335L31.4312 30.0127C32.5369 28.0647 33.1873 25.8569 33.2523 23.4543H30.7158V22.4803H33.1223C33.0572 20.0777 32.4068 17.8699 31.3011 15.9218L30.0003 16.701L29.8052 16.3764L31.106 15.5971C29.8702 13.5192 28.1141 11.766 26.0328 10.5322L25.2523 11.8309L25.0572 11.6361L25.8377 10.3374C23.8215 9.2335 21.6101 8.58415 19.2036 8.51922ZM18.7483 2.02571C15.8215 2.02571 13.1548 3.38934 11.5288 5.5322C13.7402 4.62311 16.2117 4.10363 18.7483 4.10363C21.3499 4.10363 23.7564 4.62311 25.9678 5.5322C24.2767 3.38934 21.6751 2.02571 18.7483 2.02571ZM18.7483 0.272461C19.6589 0.272461 20.4393 0.727006 20.9597 1.37636C20.2442 1.24649 19.4637 1.11662 18.7483 1.11662C17.9678 1.11662 17.2523 1.18155 16.5369 1.37636C16.9922 0.727006 17.8377 0.272461 18.7483 0.272461Z" fill="#48CEF3"/>
</svg>
