<svg width="12" height="18" viewBox="0 0 12 18" fill="none" xmlns="http://www.w3.org/2000/svg">
<path fill-rule="evenodd" clip-rule="evenodd" d="M0.75 0.787369C0.75 0.352518 1.10252 0 1.53737 0H10.4626C10.8975 0 11.25 0.352517 11.25 0.787369C11.25 1.22222 10.8975 1.57474 10.4626 1.57474L8.173 1.57474C8.902 2.31526 9.40473 3.26908 9.57287 4.33058H10.4626C10.8975 4.33058 11.25 4.6831 11.25 5.11795C11.25 5.5528 10.8975 5.90532 10.4626 5.90532H9.57287C9.18436 8.35804 7.00944 10.2358 4.38462 10.2358H3.03453L9.60412 16.6401C9.91954 16.9476 9.91954 17.4462 9.60412 17.7536C9.2887 18.0611 8.77729 18.0611 8.46187 17.7536L0.75 10.2358V10.2358V9.6611C0.75 9.10882 1.19772 8.6611 1.75 8.6611H4.38462C6.11436 8.6611 7.56188 7.48319 7.92916 5.90532L1.53737 5.90532C1.10252 5.90532 0.75 5.5528 0.75 5.11795C0.75 4.6831 1.10252 4.33058 1.53737 4.33058L7.92917 4.33058C7.56189 2.7527 6.11436 1.57478 4.38462 1.57478H1.53737C1.10252 1.57478 0.75 1.22226 0.75 0.787408V0.787369Z" fill="#0F1C23"/>
</svg>
