<svg width="20" height="18" viewBox="0 0 20 18" fill="none" xmlns="http://www.w3.org/2000/svg">
<path fill-rule="evenodd" clip-rule="evenodd" d="M19.6004 9.6C19.6004 10.2365 19.3475 10.847 18.8974 11.2971C18.4474 11.7471 17.8369 12 17.2004 12H10.8004L10.8004 16.8C10.8004 17.2418 10.4422 17.6 10.0004 17.6C9.55856 17.6 9.20039 17.2418 9.20039 16.8L9.20039 12H2.80039C2.16387 12 1.55342 11.7471 1.10333 11.2971C0.653247 10.847 0.400391 10.2365 0.400391 9.6V2.4C0.400391 1.76348 0.653247 1.15303 1.10333 0.702945C1.55342 0.252856 2.16387 0 2.80039 0H17.2004C17.8369 0 18.4474 0.252856 18.8974 0.702945C19.3475 1.15303 19.6004 1.76348 19.6004 2.4V9.6ZM2.23471 10.1657C2.08468 10.0157 2.00039 9.81217 2.00039 9.6V2.4C2.00039 2.18783 2.08468 1.98434 2.23471 1.83431C2.38473 1.68429 2.58822 1.6 2.80039 1.6H17.2004C17.4126 1.6 17.616 1.68429 17.7661 1.83431C17.9161 1.98434 18.0004 2.18783 18.0004 2.4V9.6C18.0004 9.81217 17.9161 10.0157 17.7661 10.1657C17.616 10.3157 17.4126 10.4 17.2004 10.4H2.80039C2.58822 10.4 2.38473 10.3157 2.23471 10.1657ZM4.12246 8.8V3.2H6.37046C6.95179 3.2 7.39446 3.336 7.69846 3.608C8.00779 3.87467 8.16246 4.21867 8.16246 4.64C8.16246 4.992 8.06646 5.27467 7.87446 5.488C7.68779 5.696 7.45846 5.83733 7.18646 5.912C7.50646 5.976 7.77046 6.136 7.97846 6.392C8.18646 6.64267 8.29046 6.936 8.29046 7.272C8.29046 7.71467 8.13046 8.08 7.81046 8.368C7.49046 8.656 7.03713 8.8 6.45046 8.8H4.12246ZM5.14646 5.552H6.21846C6.50646 5.552 6.72779 5.48533 6.88246 5.352C7.03713 5.21867 7.11446 5.02933 7.11446 4.784C7.11446 4.54933 7.03713 4.36533 6.88246 4.232C6.73313 4.09333 6.50646 4.024 6.20246 4.024H5.14646V5.552ZM5.14646 7.968H6.29046C6.59446 7.968 6.82913 7.89867 6.99446 7.76C7.16513 7.616 7.25046 7.416 7.25046 7.16C7.25046 6.89867 7.16246 6.69333 6.98646 6.544C6.81046 6.39467 6.57313 6.32 6.27446 6.32H5.14646V7.968ZM9.16934 8.8V3.2H10.1933V8.8H9.16934ZM11.2787 3.2V8.8H13.1907C13.8467 8.8 14.3854 8.68533 14.8067 8.456C15.2334 8.22133 15.548 7.896 15.7507 7.48C15.9587 7.05867 16.0627 6.56533 16.0627 6C16.0627 5.43467 15.9587 4.944 15.7507 4.528C15.548 4.10667 15.2334 3.78133 14.8067 3.552C14.3854 3.31733 13.8467 3.2 13.1907 3.2H11.2787ZM13.1427 7.92H12.3027V4.072H13.1427C13.612 4.072 13.9827 4.14933 14.2547 4.304C14.5267 4.45867 14.7214 4.68 14.8387 4.968C14.956 5.256 15.0147 5.6 15.0147 6C15.0147 6.40533 14.956 6.752 14.8387 7.04C14.7214 7.32267 14.5267 7.54133 14.2547 7.696C13.9827 7.84533 13.612 7.92 13.1427 7.92Z" fill="#8BC63E"/>
</svg>
