<svg width="23" height="25" viewBox="0 0 23 25" fill="none" xmlns="http://www.w3.org/2000/svg">
<path fill-rule="evenodd" clip-rule="evenodd" d="M8.4545 2.7045C8.66548 2.49353 8.95163 2.375 9.25 2.375H13.75C14.0484 2.375 14.3345 2.49353 14.5455 2.7045C14.7565 2.91548 14.875 3.20163 14.875 3.5V4.625H8.125V3.5C8.125 3.20163 8.24353 2.91548 8.4545 2.7045ZM5.875 4.625V3.5C5.875 2.60489 6.23058 1.74645 6.86352 1.11351C7.49645 0.480579 8.35489 0.125 9.25 0.125H13.75C14.6451 0.125 15.5035 0.480579 16.1365 1.11351C16.7694 1.74645 17.125 2.60489 17.125 3.5V4.625H19.375H21.625C22.2463 4.625 22.75 5.12868 22.75 5.75C22.75 6.37132 22.2463 6.875 21.625 6.875H20.5V21.5C20.5 22.3951 20.1444 23.2536 19.5115 23.8865C18.8786 24.5194 18.0201 24.875 17.125 24.875H5.875C4.97989 24.875 4.12145 24.5194 3.48851 23.8865C2.85558 23.2535 2.5 22.3951 2.5 21.5V6.875H1.375C0.75368 6.875 0.25 6.37132 0.25 5.75C0.25 5.12868 0.75368 4.625 1.375 4.625H3.625H5.875ZM4.75 6.875V21.5C4.75 21.7984 4.86853 22.0845 5.0795 22.2955C5.29048 22.5065 5.57663 22.625 5.875 22.625H17.125C17.4234 22.625 17.7095 22.5065 17.9205 22.2955C18.1315 22.0845 18.25 21.7984 18.25 21.5V6.875H16H7H4.75Z" fill="#FC2323"/>
</svg>
