<svg width="38" height="36" viewBox="0 0 38 36" fill="none" xmlns="http://www.w3.org/2000/svg">
<path fill-rule="evenodd" clip-rule="evenodd" d="M22.8326 14.9755C23.0558 14.7523 23.0558 14.3905 22.8326 14.1674C22.6095 13.9442 22.2477 13.9442 22.0245 14.1674L19 17.1919L15.9755 14.1674C15.7523 13.9442 15.3905 13.9442 15.1674 14.1674C14.9442 14.3905 14.9442 14.7523 15.1674 14.9755L18.1919 18L15.1674 21.0245C14.9442 21.2477 14.9442 21.6095 15.1674 21.8326C15.3905 22.0558 15.7523 22.0558 15.9755 21.8326L19 18.8081L22.0245 21.8326C22.2477 22.0558 22.6095 22.0558 22.8326 21.8326C23.0558 21.6095 23.0558 21.2477 22.8326 21.0245L19.8081 18L22.8326 14.9755Z" fill="#FC2323" stroke="#FC2323" stroke-width="0.2" stroke-linecap="round" stroke-linejoin="round"/>
<path d="M18.1461 3.32278C18.5358 2.68332 19.4642 2.68332 19.8539 3.32278L32.7474 24.4796C33.1535 25.146 32.6739 26 31.8935 26H6.1065C5.32612 26 4.84647 25.146 5.25258 24.4796L18.1461 3.32278Z" stroke="#FC2323" stroke-width="2"/>
</svg>
