<svg width="60" height="42" viewBox="0 0 60 42" fill="none" xmlns="http://www.w3.org/2000/svg">
<path d="M48.263 15.8736C46.5942 6.84966 39.1581 0.0751953 30.2249 0.0751953C23.1324 0.0751953 16.9724 4.36482 13.9047 10.6423C6.51765 11.4793 0.774902 18.1492 0.774902 26.2314C0.774902 34.8892 7.37661 41.9252 15.4999 41.9252H47.4041C54.1776 41.9252 59.6749 36.0662 59.6749 28.8471C59.6749 21.9418 54.6439 16.3444 48.263 15.8736ZM47.4041 36.6939H15.4999C10.0762 36.6939 5.68324 32.012 5.68324 26.2314C5.68324 20.8694 9.43811 16.3967 14.4201 15.8474L17.046 15.5597L18.2731 13.0749C20.6046 8.28826 25.1693 5.30644 30.2249 5.30644C36.6548 5.30644 42.2012 10.1715 43.4529 16.8937L44.1891 20.8171L47.944 21.1048C51.7725 21.3664 54.7666 24.7929 54.7666 28.8471C54.7666 33.1628 51.4534 36.6939 47.4041 36.6939ZM20.4082 23.6158H26.6664V31.4627H33.7834V23.6158H40.0416L30.2249 13.1533L20.4082 23.6158Z" fill="#4B6E82"/>
</svg>
