<svg width="16" height="17" viewBox="0 0 16 17" fill="none" xmlns="http://www.w3.org/2000/svg">
<path fill-rule="evenodd" clip-rule="evenodd" d="M10.7604 0.521935C11.6101 0.279176 12.4957 0.771163 12.7384 1.62082C12.7793 1.76377 12.8 1.91171 12.8 2.06037V3.39978H14.4C15.2837 3.39978 16 4.11613 16 4.99978V14.5998C16 15.4834 15.2837 16.1998 14.4 16.1998H1.6C0.716344 16.1998 0 15.4834 0 14.5998H0.0213622C0.00716122 14.5138 0 14.4266 0 14.3392V4.80323C0 4.08886 0.473564 3.46104 1.16045 3.26479L10.7604 0.521935ZM6.51205 14.5998H14.4L14.4 8.19979H12.8V11.5963C12.8 12.3107 12.3264 12.9385 11.6396 13.1348L6.51205 14.5998ZM12.8 4.99978H14.4L14.4 6.59979H12.8V4.99978ZM1.6 4.80321V14.3392L11.2 11.5963V2.06035L1.6 4.80321ZM9.6 6.59979C9.6 7.04161 9.24183 7.39979 8.8 7.39979C8.35817 7.39979 8 7.04161 8 6.59979C8 6.15796 8.35817 5.79979 8.8 5.79979C9.24183 5.79979 9.6 6.15796 9.6 6.59979Z" fill="#8BC63E"/>
</svg>
