<svg width="40" height="40" viewBox="0 0 40 40" fill="none" xmlns="http://www.w3.org/2000/svg">
<ellipse cx="17" cy="19" rx="9" ry="4" fill="#FF9500"/>
<path d="M17 27C21.9706 27 26 25.2091 26 23V21C26 23.2091 21.9706 25 17 25C12.0294 25 8 23.2091 8 21V23C8 25.2091 12.0294 27 17 27Z" fill="#FF9500"/>
<path d="M17 31C21.9706 31 26 29.2091 26 27V25C26 27.2091 21.9706 29 17 29C12.0294 29 8 27.2091 8 25V27C8 29.2091 12.0294 31 17 31Z" fill="#FF9500"/>
<path fill-rule="evenodd" clip-rule="evenodd" d="M28 23.3264C30.412 22.6089 32 21.3868 32 20V18C32 19.3868 30.412 20.6089 28 21.3264V23.3264Z" fill="#FF9500"/>
<path fill-rule="evenodd" clip-rule="evenodd" d="M26.3731 15.7096C29.6724 15.1164 32 13.679 32 12C32 9.79086 27.9706 8 23 8C18.0294 8 14 9.79086 14 12C14 12.4018 14.1333 12.7898 14.3813 13.1557C15.2259 13.0532 16.1042 13 17 13C19.6981 13 22.237 13.4821 24.1762 14.344C24.9799 14.7011 25.7416 15.1507 26.3731 15.7096Z" fill="#FF9500"/>
<path fill-rule="evenodd" clip-rule="evenodd" d="M27.6631 17.4219C27.8727 17.8968 28.0001 18.4247 28.0001 19V19.3264C30.4121 18.6089 32.0001 17.3869 32.0001 16V14C32.0001 15.4505 30.2631 16.7206 27.6631 17.4219Z" fill="#FF9500"/>
</svg>
