<svg width="18" height="18" viewBox="0 0 18 18" fill="none" xmlns="http://www.w3.org/2000/svg">
<path fill-rule="evenodd" clip-rule="evenodd" d="M12.9601 2.13131C13.2725 1.81889 13.2725 1.31236 12.9601 0.99994C12.6476 0.68752 12.1411 0.68752 11.8287 0.99994L8.44201 4.38662C8.29284 4.53193 8.2002 4.735 8.2002 4.9597C8.2002 5.08636 8.22963 5.20614 8.28203 5.31258C8.31178 5.37314 8.34966 5.43071 8.39565 5.48367C8.40924 5.49934 8.42343 5.51447 8.43819 5.52904L11.8287 8.91954C12.1411 9.23195 12.6476 9.23195 12.9601 8.91954C13.2725 8.60712 13.2725 8.10058 12.9601 7.78816L10.9316 5.7597H16.9198C17.3616 5.7597 17.7198 5.40153 17.7198 4.9597C17.7198 4.51787 17.3616 4.1597 16.9198 4.1597H10.9317L12.9601 2.13131ZM4.95993 8.99994C5.27235 8.68752 5.77888 8.68752 6.0913 8.99994L9.47797 12.3866C9.62715 12.5319 9.71979 12.735 9.71979 12.9597C9.71979 13.0864 9.69036 13.2061 9.63796 13.3126C9.6082 13.3731 9.57033 13.4307 9.52433 13.4837C9.51074 13.4993 9.49654 13.5145 9.48179 13.5291L6.0913 16.9195C5.77888 17.232 5.27235 17.232 4.95993 16.9195C4.64751 16.6071 4.64751 16.1006 4.95993 15.7882L6.9884 13.7597H1.0002C0.558368 13.7597 0.200195 13.4015 0.200195 12.9597C0.200195 12.5179 0.558368 12.1597 1.0002 12.1597H6.98832L4.95993 10.1313C4.64751 9.81889 4.64751 9.31236 4.95993 8.99994Z" fill="#48CEF3"/>
</svg>
