<svg width="18" height="18" viewBox="0 0 18 18" fill="none" xmlns="http://www.w3.org/2000/svg">
<path fill-rule="evenodd" clip-rule="evenodd" d="M12.9601 2.13717C13.2725 1.82475 13.2725 1.31822 12.9601 1.0058C12.6476 0.69338 12.1411 0.69338 11.8287 1.0058L8.44201 4.39248C8.29284 4.53779 8.2002 4.74086 8.2002 4.96556C8.2002 5.09222 8.22963 5.212 8.28203 5.31844C8.31178 5.379 8.34966 5.43657 8.39565 5.48953C8.40924 5.5052 8.42343 5.52033 8.43819 5.5349L11.8287 8.9254C12.1411 9.23781 12.6476 9.23781 12.9601 8.9254C13.2725 8.61297 13.2725 8.10644 12.9601 7.79402L10.9316 5.76556H16.9198C17.3616 5.76556 17.7198 5.40739 17.7198 4.96556C17.7198 4.52373 17.3616 4.16556 16.9198 4.16556H10.9317L12.9601 2.13717ZM4.95993 9.0058C5.27235 8.69338 5.77888 8.69338 6.0913 9.0058L9.47797 12.3925C9.62715 12.5378 9.71979 12.7409 9.71979 12.9656C9.71979 13.0922 9.69036 13.212 9.63796 13.3184C9.6082 13.379 9.57033 13.4366 9.52433 13.4895C9.51074 13.5052 9.49654 13.5203 9.48179 13.5349L6.0913 16.9254C5.77888 17.2378 5.27235 17.2378 4.95993 16.9254C4.64751 16.613 4.64751 16.1064 4.95993 15.794L6.9884 13.7656H1.0002C0.558368 13.7656 0.200195 13.4074 0.200195 12.9656C0.200195 12.5237 0.558368 12.1656 1.0002 12.1656H6.98832L4.95993 10.1372C4.64751 9.82475 4.64751 9.31822 4.95993 9.0058Z" fill="#48CEF3"/>
</svg>
