<svg width="20" height="20" viewBox="0 0 20 20" fill="none" xmlns="http://www.w3.org/2000/svg">
<path fill-rule="evenodd" clip-rule="evenodd" d="M2 4C2 2.89543 2.89543 2 4 2C5.10457 2 6 2.89543 6 4C6 5.10457 5.10457 6 4 6C2.89543 6 2 5.10457 2 4ZM5 7.87398C6.72523 7.42994 8 5.86384 8 4C8 1.79086 6.20914 0 4 0C1.79086 0 0 1.79086 0 4C0 5.86384 1.27477 7.42994 3 7.87398V19C3 19.5523 3.44772 20 4 20C4.55228 20 5 19.5523 5 19V7.87398ZM14 16C14 14.8954 14.8954 14 16 14C17.1046 14 18 14.8954 18 16C18 17.1046 17.1046 18 16 18C14.8954 18 14 17.1046 14 16ZM12 16C12 14.1362 13.2748 12.5701 15 12.126V6C15 5.73478 14.8946 5.48043 14.7071 5.29289C14.5196 5.10536 14.2652 5 14 5H11C10.4477 5 10 4.55228 10 4C10 3.44772 10.4477 3 11 3H14C14.7956 3 15.5587 3.31607 16.1213 3.87868C16.6839 4.44129 17 5.20435 17 6V12.126C18.7252 12.5701 20 14.1362 20 16C20 18.2091 18.2091 20 16 20C13.7909 20 12 18.2091 12 16Z" fill="#8CAEC5"/>
</svg>
