<svg width="20" height="17" viewBox="0 0 20 17" fill="none" xmlns="http://www.w3.org/2000/svg">
<path fill-rule="evenodd" clip-rule="evenodd" d="M8.82278 1.22664C9.18221 1.02428 9.58773 0.917969 10.0002 0.917969C10.4127 0.917969 10.8182 1.02428 11.1776 1.22664C11.5371 1.429 11.8383 1.72059 12.0522 2.07326L12.0545 2.07706L18.8305 13.3891L18.837 13.4001C19.0466 13.763 19.1574 14.1745 19.1586 14.5935C19.1598 15.0126 19.0512 15.4247 18.8437 15.7887C18.6362 16.1528 18.3369 16.4562 17.9758 16.6687C17.6146 16.8813 17.204 16.9955 16.785 17.0001L16.7762 17.0002L3.22421 17.0002H3.21542C2.79638 16.9956 2.38585 16.8813 2.02467 16.6687C1.66349 16.4562 1.36425 16.1528 1.15673 15.7887C0.949209 15.4247 0.840633 15.0126 0.841806 14.5935C0.84298 14.1745 0.953862 13.763 1.16342 13.4001L1.16992 13.3891L7.94592 2.07707L8.6322 2.48815L7.94821 2.07326C8.16214 1.72059 8.46335 1.429 8.82278 1.22664ZM9.31718 2.90147L2.54636 14.2048C2.47822 14.3247 2.44219 14.4601 2.4418 14.598C2.44141 14.7377 2.4776 14.8751 2.54677 14.9964C2.61595 15.1178 2.7157 15.2189 2.83609 15.2898C2.95543 15.36 3.09093 15.398 3.22933 15.4002H16.7711C16.9095 15.398 17.045 15.36 17.1643 15.2898C17.2847 15.2189 17.3845 15.1178 17.4536 14.9964C17.5228 14.8751 17.559 14.7377 17.5586 14.598C17.5582 14.4601 17.5222 14.3247 17.4541 14.2049L10.6842 2.90307L10.6832 2.90147C10.612 2.78463 10.512 2.68801 10.3927 2.62086C10.2729 2.55341 10.1377 2.51797 10.0002 2.51797C9.86272 2.51797 9.72754 2.55341 9.60773 2.62086C9.48846 2.68801 9.38843 2.78463 9.31718 2.90147ZM10.0002 5.80016C10.442 5.80016 10.8002 6.15834 10.8002 6.60016V9.80016C10.8002 10.242 10.442 10.6002 10.0002 10.6002C9.55838 10.6002 9.20021 10.242 9.20021 9.80016V6.60016C9.20021 6.15834 9.55838 5.80016 10.0002 5.80016ZM10.0002 12.2002C9.55838 12.2002 9.20021 12.5583 9.20021 13.0002C9.20021 13.442 9.55838 13.8002 10.0002 13.8002H10.0082C10.45 13.8002 10.8082 13.442 10.8082 13.0002C10.8082 12.5583 10.45 12.2002 10.0082 12.2002H10.0002Z" fill="#FC2323"/>
</svg>
