<svg width="40" height="40" viewBox="0 0 40 40" fill="none" xmlns="http://www.w3.org/2000/svg">
<g clip-path="url(#clip0)">
<path fill-rule="evenodd" clip-rule="evenodd" d="M19.9977 13C19.3682 12.9985 18.7408 13.0703 18.1279 13.2137C17.5902 13.3396 17.0522 13.0057 16.9263 12.4679C16.8004 11.9302 17.1343 11.3922 17.6721 11.2663C18.4355 11.0876 19.2171 10.9983 20.0012 11L20.0023 11L20 12V11L20.0012 11C23.9001 11.0005 26.8957 13.2267 28.8545 15.3161C29.8432 16.3706 30.5979 17.4213 31.1057 18.2075C31.3601 18.6015 31.5542 18.9317 31.686 19.166C31.752 19.2833 31.8025 19.3767 31.8372 19.4425C31.8546 19.4753 31.8681 19.5013 31.8777 19.5198L31.889 19.5421L31.8925 19.5489L31.8936 19.5512L29.858 19.9978C29.7488 19.8093 29.6044 19.5694 29.4256 19.2926C28.9646 18.5787 28.2818 17.6294 27.3955 16.684C25.6045 14.7736 23.1005 13 20 13L19.9977 13ZM29.858 19.9978C29.3406 20.8982 28.7439 21.7511 28.0748 22.5462C27.7193 22.9688 27.7736 23.5996 28.1962 23.9552C28.6187 24.3108 29.2496 24.2565 29.6052 23.8339C30.479 22.7953 31.2421 21.6684 31.8819 20.4714C32.0348 20.1854 32.0395 19.8429 31.8944 19.5528L29.858 19.9978C29.8892 20.0517 29.8326 19.9526 29.858 19.9978ZM13.4531 13.2652C13.8512 12.9612 14.4129 12.9987 14.7671 13.3529L18.5832 17.169C18.5855 17.1713 18.5878 17.1736 18.5901 17.1759L22.824 21.4098C22.8264 21.4122 22.8287 21.4145 22.8311 21.4169L26.6471 25.2329C26.8511 25.4369 26.9571 25.7191 26.9378 26.007C26.9184 26.2949 26.7757 26.5604 26.5462 26.7353C24.6671 28.1677 22.3789 28.9613 20.0163 28.9999L20 29C16.1005 29 13.1045 26.7736 11.1455 24.684C10.1568 23.6294 9.40207 22.5787 8.89434 21.7926C8.63985 21.3985 8.44579 21.0684 8.31397 20.834C8.24802 20.7168 8.19754 20.6233 8.16275 20.5576C8.14536 20.5247 8.13188 20.4988 8.12234 20.4802L8.11099 20.458L8.10754 20.4512L8.10637 20.4488C8.10637 20.4488 8.10557 20.4472 9 20L8.10557 20.4472C7.96026 20.1566 7.96521 19.8135 8.11884 19.5272C9.43015 17.0835 11.2489 14.9484 13.4531 13.2652ZM10.1426 20.0032C10.2516 20.1916 10.3959 20.4311 10.5744 20.7075C11.0354 21.4213 11.7182 22.3706 12.6045 23.3161C14.3939 25.2248 16.8951 26.9969 19.9918 27C21.5373 26.9734 23.0437 26.5524 24.3714 25.7856L22.0497 23.464C21.891 23.5635 21.7251 23.652 21.5531 23.7286C21.0625 23.9472 20.5328 24.0648 19.9957 24.0742C19.4586 24.0837 18.9252 23.9849 18.4271 23.7837C17.929 23.5826 17.4766 23.2831 17.0967 22.9033C16.7169 22.5235 16.4175 22.071 16.2163 21.5729C16.0151 21.0749 15.9163 20.5414 15.9258 20.0043C15.9353 19.4672 16.0528 18.9375 16.2714 18.4469C16.3481 18.2749 16.4365 18.109 16.536 17.9503L13.9871 15.4013C12.4503 16.7014 11.1493 18.2582 10.1426 20.0032ZM18.0279 19.4421C17.9637 19.6346 17.9291 19.836 17.9255 20.0396C17.9207 20.3081 17.9701 20.5749 18.0707 20.8239C18.1713 21.0729 18.321 21.2992 18.511 21.4891C18.7009 21.679 18.9271 21.8287 19.1761 21.9293C19.4252 22.0299 19.6919 22.0793 19.9604 22.0745C20.164 22.071 20.3655 22.0363 20.5579 21.9721L18.0279 19.4421Z" fill="#494949"/>
<path fill-rule="evenodd" clip-rule="evenodd" d="M8.29289 8.29289C8.68342 7.90237 9.31658 7.90237 9.70711 8.29289L31.7071 30.2929C32.0976 30.6834 32.0976 31.3166 31.7071 31.7071C31.3166 32.0976 30.6834 32.0976 30.2929 31.7071L8.29289 9.70711C7.90237 9.31658 7.90237 8.68342 8.29289 8.29289Z" fill="#494949"/>
</g>
<defs>
<clipPath id="clip0">
<rect width="24" height="24" fill="white" transform="translate(8 8)"/>
</clipPath>
</defs>
</svg>
