<svg width="343" height="266" viewBox="0 0 343 266" fill="none" xmlns="http://www.w3.org/2000/svg">
<g clip-path="url(#clip0)">
<path d="M15.2115 258.412C25.9028 266.13 39.7579 266.518 53.1503 265.57C55.0204 265.437 56.8773 265.282 58.7169 265.115C58.728 265.112 58.7426 265.113 58.7539 265.11C58.8423 265.102 58.9309 265.093 59.0155 265.088C59.3952 265.053 59.7751 265.017 60.1512 264.981L60.0624 265.151L59.7835 265.678C59.8837 265.502 59.9839 265.329 60.0841 265.153C60.1136 265.1 60.1466 265.047 60.1759 264.994C63.6453 258.944 67.0863 252.671 67.964 245.763C68.8713 238.592 66.3215 230.472 60.0238 226.947C59.1978 226.487 58.3231 226.119 57.416 225.853C57.0393 225.738 56.6576 225.645 56.2715 225.563C53.9096 225.037 51.4506 225.152 49.1474 225.894C46.8441 226.637 44.7798 227.98 43.1667 229.788C41.5535 231.595 40.4498 233.8 39.9689 236.176C39.488 238.552 39.6474 241.014 40.4306 243.308C35.0912 237.821 36.0873 228.92 37.9291 221.481C39.7745 214.043 42.0085 205.765 38.2551 199.084C36.1687 195.365 32.4996 193.058 28.3819 192.128C28.2556 192.101 28.1295 192.074 28.0029 192.05C23.0969 191.054 17.9965 191.95 13.7206 194.558C5.84733 199.53 1.80351 208.957 0.491064 218.191C-1.62354 233.051 3.05611 249.636 15.2115 258.412Z" fill="#E9EBEE"/>
<path d="M18.6636 234.591C18.974 237.868 19.7597 241.083 20.996 244.134C22.1353 246.834 23.6709 249.347 25.552 251.592C29.3945 256.224 34.4755 259.706 39.9935 262.027C44.2128 263.759 48.6335 264.949 53.1506 265.57C55.0207 265.437 56.8776 265.282 58.7172 265.115C58.7283 265.112 58.7429 265.113 58.7542 265.11C58.8426 265.102 58.9312 265.093 59.0158 265.088C59.3955 265.053 59.7754 265.017 60.1515 264.981L60.0627 265.151L59.7838 265.678C59.884 265.502 59.9842 265.329 60.0844 265.153C60.1139 265.1 60.1469 265.047 60.1762 264.994C56.7897 261.613 54.2613 257.467 52.8028 252.905C51.3443 248.343 50.9982 243.497 51.7934 238.773C52.6257 234.083 54.5523 229.656 57.4163 225.853C57.0396 225.738 56.6579 225.645 56.2718 225.563C55.1834 227.054 54.2286 228.639 53.4187 230.299C50.5127 236.217 49.5856 242.917 50.7746 249.405C51.88 255.276 54.634 260.709 58.7133 265.067C58.3561 265.042 57.9954 265.012 57.6425 264.98C50.9574 264.413 44.2859 262.972 38.2224 260.022C33.0395 257.562 28.5398 253.862 25.1197 249.249C21.4475 244.173 19.8293 238.068 19.5513 231.864C19.2566 225.221 20.1167 218.461 21.6294 212.001C23.1741 205.379 25.5217 198.971 28.6198 192.919C28.689 192.782 28.703 192.623 28.6588 192.476C28.6146 192.329 28.5156 192.204 28.3823 192.128C28.2711 192.053 28.1349 192.025 28.0032 192.05C27.9388 192.067 27.879 192.098 27.8284 192.142C27.7778 192.185 27.7376 192.24 27.7109 192.301C27.3287 193.048 26.9536 193.796 26.5928 194.553C23.5877 200.853 21.3754 207.503 20.0064 214.35C18.6775 220.955 17.9682 227.865 18.6636 234.591Z" fill="white"/>
<mask id="path-3-inside-1" fill="white">
<path d="M336.121 228.695H159.299C157.475 228.693 155.726 227.966 154.437 226.674C153.147 225.382 152.422 223.629 152.42 221.802V6.89329C152.422 5.06571 153.147 3.31357 154.437 2.02127C155.726 0.728973 157.475 0.00205739 159.299 0H336.121C337.945 0.00205739 339.693 0.728973 340.983 2.02127C342.272 3.31357 342.998 5.06571 343 6.89329V221.802C342.998 223.629 342.272 225.382 340.983 226.674C339.693 227.966 337.945 228.693 336.121 228.695ZM159.299 0.810976C157.689 0.8128 156.147 1.4542 155.009 2.59446C153.871 3.73472 153.231 5.28072 153.229 6.89329V221.802C153.231 223.414 153.871 224.96 155.009 226.101C156.147 227.241 157.689 227.882 159.299 227.884H336.121C337.73 227.882 339.273 227.241 340.411 226.101C341.548 224.96 342.188 223.414 342.19 221.802V6.89329C342.188 5.28072 341.548 3.73472 340.411 2.59446C339.273 1.4542 337.73 0.8128 336.121 0.810976H159.299Z"/>
</mask>
<path d="M336.121 228.695H159.299C157.475 228.693 155.726 227.966 154.437 226.674C153.147 225.382 152.422 223.629 152.42 221.802V6.89329C152.422 5.06571 153.147 3.31357 154.437 2.02127C155.726 0.728973 157.475 0.00205739 159.299 0H336.121C337.945 0.00205739 339.693 0.728973 340.983 2.02127C342.272 3.31357 342.998 5.06571 343 6.89329V221.802C342.998 223.629 342.272 225.382 340.983 226.674C339.693 227.966 337.945 228.693 336.121 228.695ZM159.299 0.810976C157.689 0.8128 156.147 1.4542 155.009 2.59446C153.871 3.73472 153.231 5.28072 153.229 6.89329V221.802C153.231 223.414 153.871 224.96 155.009 226.101C156.147 227.241 157.689 227.882 159.299 227.884H336.121C337.73 227.882 339.273 227.241 340.411 226.101C341.548 224.96 342.188 223.414 342.19 221.802V6.89329C342.188 5.28072 341.548 3.73472 340.411 2.59446C339.273 1.4542 337.73 0.8128 336.121 0.810976H159.299Z" fill="#121212"/>
<path d="M159.299 228.695L159.297 229.695H159.299V228.695ZM152.42 221.802H151.42L151.42 221.803L152.42 221.802ZM152.42 6.89329L151.42 6.89217V6.89329H152.42ZM159.299 0V-1L159.297 -0.999999L159.299 0ZM336.121 0L336.122 -1H336.121V0ZM343 6.89329H344V6.89217L343 6.89329ZM343 221.802L344 221.803V221.802H343ZM159.299 0.810976V-0.189025L159.297 -0.189024L159.299 0.810976ZM153.229 6.89329L152.229 6.89216V6.89329H153.229ZM153.229 221.802H152.229L152.229 221.803L153.229 221.802ZM159.299 227.884L159.297 228.884H159.299V227.884ZM336.121 227.884V228.884H336.122L336.121 227.884ZM342.19 221.802L343.19 221.803V221.802H342.19ZM342.19 6.89329H343.19V6.89216L342.19 6.89329ZM336.121 0.810976L336.122 -0.189024H336.121V0.810976ZM336.121 227.695H159.299V229.695H336.121V227.695ZM159.3 227.695C157.742 227.693 156.247 227.072 155.145 225.967L153.729 227.38C155.206 228.86 157.208 229.693 159.297 229.695L159.3 227.695ZM155.145 225.967C154.042 224.863 153.422 223.364 153.42 221.801L151.42 221.803C151.422 223.895 152.252 225.9 153.729 227.38L155.145 225.967ZM153.42 221.802V6.89329H151.42V221.802H153.42ZM153.42 6.89442C153.422 5.33098 154.042 3.8325 155.145 2.72763L153.729 1.31491C152.252 2.79463 151.422 4.80044 151.42 6.89217L153.42 6.89442ZM155.145 2.72763C156.247 1.62282 157.742 1.00176 159.3 0.999999L159.297 -0.999999C157.208 -0.997642 155.206 -0.164876 153.729 1.31491L155.145 2.72763ZM159.299 1H336.121V-1H159.299V1ZM336.12 0.999999C337.678 1.00176 339.172 1.62282 340.275 2.72763L341.69 1.31491C340.214 -0.164876 338.211 -0.997642 336.122 -0.999999L336.12 0.999999ZM340.275 2.72763C341.377 3.8325 341.998 5.33098 342 6.89442L344 6.89217C343.997 4.80044 343.167 2.79463 341.69 1.31491L340.275 2.72763ZM342 6.89329V221.802H344V6.89329H342ZM342 221.801C341.998 223.364 341.377 224.863 340.275 225.967L341.69 227.38C343.167 225.9 343.997 223.895 344 221.803L342 221.801ZM340.275 225.967C339.172 227.072 337.678 227.693 336.12 227.695L336.122 229.695C338.211 229.693 340.214 228.86 341.69 227.38L340.275 225.967ZM159.297 -0.189024C157.423 -0.186898 155.626 0.560348 154.301 1.8881L155.717 3.30081C156.667 2.34805 157.956 1.8125 159.3 1.81097L159.297 -0.189024ZM154.301 1.8881C152.976 3.21578 152.231 5.01545 152.229 6.89216L154.229 6.89442C154.231 5.54599 154.766 4.25365 155.717 3.30081L154.301 1.8881ZM152.229 6.89329V221.802H154.229V6.89329H152.229ZM152.229 221.803C152.231 223.68 152.976 225.479 154.301 226.807L155.717 225.394C154.766 224.441 154.231 223.149 154.229 221.801L152.229 221.803ZM154.301 226.807C155.626 228.135 157.423 228.882 159.297 228.884L159.3 226.884C157.956 226.883 156.667 226.347 155.717 225.394L154.301 226.807ZM159.299 228.884H336.121V226.884H159.299V228.884ZM336.122 228.884C337.997 228.882 339.794 228.135 341.118 226.807L339.703 225.394C338.752 226.347 337.463 226.883 336.12 226.884L336.122 228.884ZM341.118 226.807C342.443 225.479 343.188 223.68 343.19 221.803L341.19 221.801C341.189 223.149 340.654 224.441 339.703 225.394L341.118 226.807ZM343.19 221.802V6.89329H341.19V221.802H343.19ZM343.19 6.89216C343.188 5.01545 342.443 3.21578 341.118 1.8881L339.703 3.30081C340.654 4.25365 341.189 5.54599 341.19 6.89442L343.19 6.89216ZM341.118 1.8881C339.794 0.560348 337.997 -0.186898 336.122 -0.189024L336.12 1.81097C337.463 1.8125 338.752 2.34805 339.703 3.30081L341.118 1.8881ZM336.121 -0.189024H159.299V1.81098H336.121V-0.189024Z" fill="#121212" mask="url(#path-3-inside-1)"/>
<mask id="path-5-inside-2" fill="white">
<path d="M342.595 16.8643H152.825V17.6752H342.595V16.8643Z"/>
</mask>
<path d="M342.595 16.8643H152.825V17.6752H342.595V16.8643Z" fill="#121212"/>
<path d="M152.825 16.8643V15.8643H151.825V16.8643H152.825ZM342.595 16.8643H343.595V15.8643H342.595V16.8643ZM342.595 17.6752V18.6752H343.595V17.6752H342.595ZM152.825 17.6752H151.825V18.6752H152.825V17.6752ZM152.825 17.8643H342.595V15.8643H152.825V17.8643ZM341.595 16.8643V17.6752H343.595V16.8643H341.595ZM342.595 16.6752H152.825V18.6752H342.595V16.6752ZM153.825 17.6752V16.8643H151.825V17.6752H153.825Z" fill="#121212" mask="url(#path-5-inside-2)"/>
<path d="M164.868 8.92066C164.868 10.4371 163.642 11.6646 162.131 11.6646C160.62 11.6646 159.394 10.4371 159.394 8.92066C159.394 7.40424 160.62 6.17676 162.131 6.17676C163.642 6.17676 164.868 7.40424 164.868 8.92066Z" fill="#121212" stroke="#121212"/>
<path d="M174.984 8.92066C174.984 10.4371 173.757 11.6646 172.247 11.6646C170.736 11.6646 169.51 10.4371 169.51 8.92066C169.51 7.40424 170.736 6.17676 172.247 6.17676C173.757 6.17676 174.984 7.40424 174.984 8.92066Z" fill="#121212" stroke="#121212"/>
<path d="M185.1 8.92066C185.1 10.4371 183.873 11.6646 182.363 11.6646C180.852 11.6646 179.625 10.4371 179.625 8.92066C179.625 7.40424 180.852 6.17676 182.363 6.17676C183.873 6.17676 185.1 7.40424 185.1 8.92066Z" fill="#121212" stroke="#121212"/>
<mask id="path-10-inside-3" fill="white">
<path d="M308.712 49.0642H182.468C181.073 49.0642 179.735 48.5088 178.748 47.5202C177.762 46.5317 177.208 45.1909 177.208 43.7928C177.208 42.3948 177.762 41.054 178.748 40.0654C179.735 39.0769 181.073 38.5215 182.468 38.5215H308.712C310.107 38.5215 311.445 39.0769 312.431 40.0654C313.418 41.054 313.972 42.3948 313.972 43.7928C313.972 45.1909 313.418 46.5317 312.431 47.5202C311.445 48.5088 310.107 49.0642 308.712 49.0642ZM182.468 39.3325C181.287 39.3325 180.155 39.8024 179.32 40.6389C178.486 41.4754 178.017 42.6099 178.017 43.7928C178.017 44.9758 178.486 46.1103 179.32 46.9468C180.155 47.7833 181.287 48.2532 182.468 48.2532H308.712C309.892 48.2532 311.024 47.7833 311.859 46.9468C312.693 46.1103 313.162 44.9758 313.162 43.7928C313.162 42.6099 312.693 41.4754 311.859 40.6389C311.024 39.8024 309.892 39.3325 308.712 39.3325H182.468Z"/>
</mask>
<path d="M308.712 49.0642H182.468C181.073 49.0642 179.735 48.5088 178.748 47.5202C177.762 46.5317 177.208 45.1909 177.208 43.7928C177.208 42.3948 177.762 41.054 178.748 40.0654C179.735 39.0769 181.073 38.5215 182.468 38.5215H308.712C310.107 38.5215 311.445 39.0769 312.431 40.0654C313.418 41.054 313.972 42.3948 313.972 43.7928C313.972 45.1909 313.418 46.5317 312.431 47.5202C311.445 48.5088 310.107 49.0642 308.712 49.0642ZM182.468 39.3325C181.287 39.3325 180.155 39.8024 179.32 40.6389C178.486 41.4754 178.017 42.6099 178.017 43.7928C178.017 44.9758 178.486 46.1103 179.32 46.9468C180.155 47.7833 181.287 48.2532 182.468 48.2532H308.712C309.892 48.2532 311.024 47.7833 311.859 46.9468C312.693 46.1103 313.162 44.9758 313.162 43.7928C313.162 42.6099 312.693 41.4754 311.859 40.6389C311.024 39.8024 309.892 39.3325 308.712 39.3325H182.468Z" fill="#121212"/>
<path d="M182.468 49.0642V50.0642V49.0642ZM308.712 48.0642H182.468V50.0642H308.712V48.0642ZM182.468 48.0642C181.339 48.0642 180.255 47.6147 179.456 46.8139L178.04 48.2266C179.214 49.4029 180.807 50.0642 182.468 50.0642V48.0642ZM179.456 46.8139C178.657 46.013 178.208 44.9263 178.208 43.7928H176.208C176.208 45.4554 176.867 47.0503 178.04 48.2266L179.456 46.8139ZM178.208 43.7928C178.208 42.6593 178.657 41.5727 179.456 40.7718L178.04 39.3591C176.867 40.5353 176.208 42.1302 176.208 43.7928H178.208ZM179.456 40.7718C180.255 39.971 181.339 39.5215 182.468 39.5215V37.5215C180.807 37.5215 179.214 38.1827 178.04 39.3591L179.456 40.7718ZM182.468 39.5215H308.712V37.5215H182.468V39.5215ZM308.712 39.5215C309.841 39.5215 310.924 39.971 311.723 40.7718L313.139 39.3591C311.965 38.1827 310.372 37.5215 308.712 37.5215V39.5215ZM311.723 40.7718C312.522 41.5726 312.972 42.6593 312.972 43.7928H314.972C314.972 42.1303 314.313 40.5353 313.139 39.3591L311.723 40.7718ZM312.972 43.7928C312.972 44.9264 312.522 46.013 311.723 46.8139L313.139 48.2266C314.313 47.0503 314.972 45.4554 314.972 43.7928H312.972ZM311.723 46.8139C310.924 47.6147 309.841 48.0642 308.712 48.0642V50.0642C310.372 50.0642 311.965 49.4029 313.139 48.2266L311.723 46.8139ZM182.468 38.3325C181.021 38.3325 179.635 38.9083 178.613 39.9325L180.028 41.3452C180.676 40.6965 181.553 40.3325 182.468 40.3325V38.3325ZM178.613 39.9325C177.591 40.9567 177.017 42.3453 177.017 43.7928H179.017C179.017 42.8744 179.381 41.994 180.028 41.3452L178.613 39.9325ZM177.017 43.7928C177.017 45.2403 177.591 46.629 178.613 47.6531L180.028 46.2404C179.381 45.5916 179.017 44.7112 179.017 43.7928H177.017ZM178.613 47.6531C179.635 48.6774 181.021 49.2532 182.468 49.2532V47.2532C181.553 47.2532 180.676 46.8891 180.028 46.2404L178.613 47.6531ZM182.468 49.2532H308.712V47.2532H182.468V49.2532ZM308.712 49.2532C310.158 49.2532 311.545 48.6774 312.567 47.6531L311.151 46.2404C310.504 46.8891 309.626 47.2532 308.712 47.2532V49.2532ZM312.567 47.6531C313.589 46.629 314.162 45.2403 314.162 43.7928H312.162C312.162 44.7113 311.798 45.5916 311.151 46.2404L312.567 47.6531ZM314.162 43.7928C314.162 42.3453 313.589 40.9567 312.567 39.9325L311.151 41.3452C311.798 41.994 312.162 42.8744 312.162 43.7928H314.162ZM312.567 39.9325C311.545 38.9083 310.158 38.3325 308.712 38.3325V40.3325C309.626 40.3325 310.504 40.6965 311.151 41.3452L312.567 39.9325ZM308.712 38.3325H182.468V40.3325H308.712V38.3325Z" fill="#121212" mask="url(#path-10-inside-3)"/>
<mask id="path-12-inside-4" fill="white">
<path d="M229.704 123.268H179.935C178.111 123.266 176.363 122.539 175.073 121.247C173.784 119.955 173.058 118.202 173.056 116.375V75.4206C173.058 73.5931 173.784 71.8409 175.073 70.5486C176.363 69.2563 178.111 68.5294 179.935 68.5273H229.704C231.528 68.5294 233.276 69.2563 234.566 70.5486C235.855 71.8409 236.581 73.5931 236.583 75.4206V116.375C236.581 118.202 235.855 119.955 234.566 121.247C233.276 122.539 231.528 123.266 229.704 123.268ZM179.935 69.3383C178.326 69.3401 176.783 69.9815 175.645 71.1218C174.507 72.2621 173.867 73.8081 173.865 75.4206V116.375C173.867 117.987 174.507 119.533 175.645 120.674C176.783 121.814 178.326 122.455 179.935 122.457H229.704C231.313 122.455 232.856 121.814 233.994 120.674C235.132 119.533 235.772 117.987 235.773 116.375V75.4206C235.772 73.8081 235.132 72.2621 233.994 71.1218C232.856 69.9815 231.313 69.3401 229.704 69.3383H179.935Z"/>
</mask>
<path d="M229.704 123.268H179.935C178.111 123.266 176.363 122.539 175.073 121.247C173.784 119.955 173.058 118.202 173.056 116.375V75.4206C173.058 73.5931 173.784 71.8409 175.073 70.5486C176.363 69.2563 178.111 68.5294 179.935 68.5273H229.704C231.528 68.5294 233.276 69.2563 234.566 70.5486C235.855 71.8409 236.581 73.5931 236.583 75.4206V116.375C236.581 118.202 235.855 119.955 234.566 121.247C233.276 122.539 231.528 123.266 229.704 123.268ZM179.935 69.3383C178.326 69.3401 176.783 69.9815 175.645 71.1218C174.507 72.2621 173.867 73.8081 173.865 75.4206V116.375C173.867 117.987 174.507 119.533 175.645 120.674C176.783 121.814 178.326 122.455 179.935 122.457H229.704C231.313 122.455 232.856 121.814 233.994 120.674C235.132 119.533 235.772 117.987 235.773 116.375V75.4206C235.772 73.8081 235.132 72.2621 233.994 71.1218C232.856 69.9815 231.313 69.3401 229.704 69.3383H179.935Z" fill="#121212"/>
<path d="M179.935 123.268L179.934 124.268H179.935V123.268ZM173.056 116.375H172.056L172.056 116.376L173.056 116.375ZM173.056 75.4206L172.056 75.4195V75.4206H173.056ZM179.935 68.5273V67.5273L179.934 67.5273L179.935 68.5273ZM229.704 68.5273L229.705 67.5273H229.704V68.5273ZM236.583 75.4206H237.583V75.4195L236.583 75.4206ZM236.583 116.375L237.583 116.376V116.375H236.583ZM179.935 69.3383V68.3383L179.934 68.3383L179.935 69.3383ZM173.865 75.4206L172.865 75.4195V75.4206H173.865ZM173.865 116.375H172.865L172.865 116.376L173.865 116.375ZM179.935 122.457L179.934 123.457H179.935V122.457ZM229.704 122.457V123.457H229.705L229.704 122.457ZM235.773 116.375L236.773 116.376V116.375H235.773ZM235.773 75.4206H236.773V75.4195L235.773 75.4206ZM229.704 69.3383L229.705 68.3383H229.704V69.3383ZM229.704 122.268H179.935V124.268H229.704V122.268ZM179.936 122.268C178.378 122.266 176.883 121.645 175.781 120.541L174.365 121.953C175.842 123.433 177.844 124.266 179.934 124.268L179.936 122.268ZM175.781 120.541C174.678 119.436 174.058 117.937 174.056 116.374L172.056 116.376C172.059 118.468 172.889 120.474 174.365 121.953L175.781 120.541ZM174.056 116.375V75.4206H172.056V116.375H174.056ZM174.056 75.4218C174.058 73.8583 174.678 72.3599 175.781 71.255L174.365 69.8423C172.889 71.322 172.059 73.3278 172.056 75.4195L174.056 75.4218ZM175.781 71.255C176.883 70.1502 178.378 69.5291 179.936 69.5273L179.934 67.5273C177.844 67.5297 175.842 68.3625 174.365 69.8423L175.781 71.255ZM179.935 69.5273H229.704V67.5273H179.935V69.5273ZM229.703 69.5273C231.261 69.5291 232.755 70.1502 233.858 71.255L235.274 69.8423C233.797 68.3625 231.794 67.5297 229.705 67.5273L229.703 69.5273ZM233.858 71.255C234.96 72.3599 235.581 73.8583 235.583 75.4218L237.583 75.4195C237.58 73.3278 236.75 71.322 235.274 69.8423L233.858 71.255ZM235.583 75.4206V116.375H237.583V75.4206H235.583ZM235.583 116.374C235.581 117.937 234.96 119.436 233.858 120.541L235.274 121.953C236.75 120.474 237.58 118.468 237.583 116.376L235.583 116.374ZM233.858 120.541C232.755 121.645 231.261 122.266 229.703 122.268L229.705 124.268C231.794 124.266 233.797 123.433 235.274 121.953L233.858 120.541ZM179.934 68.3383C178.059 68.3404 176.262 69.0877 174.937 70.4155L176.353 71.8282C177.304 70.8754 178.592 70.3398 179.936 70.3383L179.934 68.3383ZM174.937 70.4155C173.612 71.7431 172.868 73.5428 172.865 75.4195L174.865 75.4218C174.867 74.0733 175.402 72.781 176.353 71.8282L174.937 70.4155ZM172.865 75.4206V116.375H174.865V75.4206H172.865ZM172.865 116.376C172.868 118.253 173.612 120.052 174.937 121.38L176.353 119.967C175.402 119.015 174.867 117.722 174.865 116.374L172.865 116.376ZM174.937 121.38C176.262 122.708 178.059 123.455 179.934 123.457L179.936 121.457C178.592 121.456 177.304 120.92 176.353 119.967L174.937 121.38ZM179.935 123.457H229.704V121.457H179.935V123.457ZM229.705 123.457C231.58 123.455 233.377 122.708 234.702 121.38L233.286 119.967C232.335 120.92 231.047 121.456 229.703 121.457L229.705 123.457ZM234.702 121.38C236.026 120.052 236.771 118.253 236.773 116.376L234.773 116.374C234.772 117.722 234.237 119.015 233.286 119.967L234.702 121.38ZM236.773 116.375V75.4206H234.773V116.375H236.773ZM236.773 75.4195C236.771 73.5428 236.026 71.7431 234.702 70.4155L233.286 71.8282C234.237 72.781 234.772 74.0733 234.773 75.4218L236.773 75.4195ZM234.702 70.4155C233.377 69.0877 231.58 68.3404 229.705 68.3383L229.703 70.3383C231.047 70.3398 232.335 70.8754 233.286 71.8282L234.702 70.4155ZM229.704 68.3383H179.935V70.3383H229.704V68.3383Z" fill="#121212" mask="url(#path-12-inside-4)"/>
<path d="M315.485 70.5547H265.716C262.14 70.5547 259.242 73.4594 259.242 77.0425V117.997C259.242 121.58 262.14 124.485 265.716 124.485H315.485C319.06 124.485 321.959 121.58 321.959 117.997V77.0425C321.959 73.4594 319.06 70.5547 315.485 70.5547Z" fill="#E9EBEE"/>
<mask id="path-15-inside-5" fill="white">
<path d="M229.704 199.5H179.935C178.111 199.498 176.363 198.771 175.073 197.478C173.784 196.186 173.058 194.434 173.056 192.606V151.652C173.058 149.824 173.784 148.072 175.073 146.78C176.363 145.488 178.111 144.761 179.935 144.759H229.704C231.528 144.761 233.276 145.488 234.566 146.78C235.855 148.072 236.581 149.824 236.583 151.652V192.606C236.581 194.434 235.855 196.186 234.566 197.478C233.276 198.771 231.528 199.498 229.704 199.5ZM179.935 145.57C178.326 145.572 176.783 146.213 175.645 147.353C174.507 148.494 173.867 150.04 173.865 151.652V192.606C173.867 194.219 174.507 195.765 175.645 196.905C176.783 198.045 178.326 198.687 179.935 198.689H229.704C231.313 198.687 232.856 198.045 233.994 196.905C235.132 195.765 235.772 194.219 235.773 192.606V151.652C235.772 150.04 235.132 148.494 233.994 147.353C232.856 146.213 231.313 145.572 229.704 145.57H179.935Z"/>
</mask>
<path d="M229.704 199.5H179.935C178.111 199.498 176.363 198.771 175.073 197.478C173.784 196.186 173.058 194.434 173.056 192.606V151.652C173.058 149.824 173.784 148.072 175.073 146.78C176.363 145.488 178.111 144.761 179.935 144.759H229.704C231.528 144.761 233.276 145.488 234.566 146.78C235.855 148.072 236.581 149.824 236.583 151.652V192.606C236.581 194.434 235.855 196.186 234.566 197.478C233.276 198.771 231.528 199.498 229.704 199.5ZM179.935 145.57C178.326 145.572 176.783 146.213 175.645 147.353C174.507 148.494 173.867 150.04 173.865 151.652V192.606C173.867 194.219 174.507 195.765 175.645 196.905C176.783 198.045 178.326 198.687 179.935 198.689H229.704C231.313 198.687 232.856 198.045 233.994 196.905C235.132 195.765 235.772 194.219 235.773 192.606V151.652C235.772 150.04 235.132 148.494 233.994 147.353C232.856 146.213 231.313 145.572 229.704 145.57H179.935Z" fill="#121212"/>
<path d="M179.935 199.5L179.934 200.5H179.935V199.5ZM173.056 192.606H172.056L172.056 192.607L173.056 192.606ZM173.056 151.652L172.056 151.651V151.652H173.056ZM179.935 144.759V143.759L179.934 143.759L179.935 144.759ZM229.704 144.759L229.705 143.759H229.704V144.759ZM236.583 151.652H237.583V151.651L236.583 151.652ZM236.583 192.606L237.583 192.607V192.606H236.583ZM179.935 145.57V144.57L179.934 144.57L179.935 145.57ZM173.865 151.652L172.865 151.651V151.652H173.865ZM173.865 192.606H172.865L172.865 192.607L173.865 192.606ZM179.935 198.689L179.934 199.689H179.935V198.689ZM229.704 198.689V199.689H229.705L229.704 198.689ZM235.773 192.606L236.773 192.607V192.606H235.773ZM235.773 151.652H236.773V151.651L235.773 151.652ZM229.704 145.57L229.705 144.57H229.704V145.57ZM229.704 198.5H179.935V200.5H229.704V198.5ZM179.936 198.5C178.378 198.498 176.883 197.877 175.781 196.772L174.365 198.185C175.842 199.665 177.844 200.497 179.934 200.5L179.936 198.5ZM175.781 196.772C174.678 195.667 174.058 194.169 174.056 192.605L172.056 192.607C172.059 194.699 172.889 196.705 174.365 198.185L175.781 196.772ZM174.056 192.606V151.652H172.056V192.606H174.056ZM174.056 151.653C174.058 150.09 174.678 148.591 175.781 147.486L174.365 146.074C172.889 147.553 172.059 149.559 172.056 151.651L174.056 151.653ZM175.781 147.486C176.883 146.382 178.378 145.761 179.936 145.759L179.934 143.759C177.844 143.761 175.842 144.594 174.365 146.074L175.781 147.486ZM179.935 145.759H229.704V143.759H179.935V145.759ZM229.703 145.759C231.261 145.761 232.755 146.382 233.858 147.486L235.274 146.074C233.797 144.594 231.794 143.761 229.705 143.759L229.703 145.759ZM233.858 147.486C234.96 148.591 235.581 150.09 235.583 151.653L237.583 151.651C237.58 149.559 236.75 147.553 235.274 146.074L233.858 147.486ZM235.583 151.652V192.606H237.583V151.652H235.583ZM235.583 192.605C235.581 194.169 234.96 195.667 233.858 196.772L235.274 198.185C236.75 196.705 237.58 194.699 237.583 192.607L235.583 192.605ZM233.858 196.772C232.755 197.877 231.261 198.498 229.703 198.5L229.705 200.5C231.794 200.497 233.797 199.665 235.274 198.185L233.858 196.772ZM179.934 144.57C178.059 144.572 176.262 145.319 174.937 146.647L176.353 148.06C177.304 147.107 178.592 146.571 179.936 146.57L179.934 144.57ZM174.937 146.647C173.612 147.975 172.868 149.774 172.865 151.651L174.865 151.653C174.867 150.305 175.402 149.012 176.353 148.06L174.937 146.647ZM172.865 151.652V192.606H174.865V151.652H172.865ZM172.865 192.607C172.868 194.484 173.612 196.284 174.937 197.612L176.353 196.199C175.402 195.246 174.867 193.954 174.865 192.605L172.865 192.607ZM174.937 197.612C176.262 198.939 178.059 199.687 179.934 199.689L179.936 197.689C178.592 197.687 177.304 197.152 176.353 196.199L174.937 197.612ZM179.935 199.689H229.704V197.689H179.935V199.689ZM229.705 199.689C231.58 199.687 233.377 198.939 234.702 197.612L233.286 196.199C232.335 197.152 231.047 197.687 229.703 197.689L229.705 199.689ZM234.702 197.612C236.026 196.284 236.771 194.484 236.773 192.607L234.773 192.605C234.772 193.954 234.237 195.246 233.286 196.199L234.702 197.612ZM236.773 192.606V151.652H234.773V192.606H236.773ZM236.773 151.651C236.771 149.774 236.026 147.975 234.702 146.647L233.286 148.06C234.237 149.012 234.772 150.305 234.773 151.653L236.773 151.651ZM234.702 146.647C233.377 145.319 231.58 144.572 229.705 144.57L229.703 146.57C231.047 146.571 232.335 147.107 233.286 148.06L234.702 146.647ZM229.704 144.57H179.935V146.57H229.704V144.57Z" fill="#121212" mask="url(#path-15-inside-5)"/>
<path d="M315.485 146.786H265.716C262.14 146.786 259.242 149.691 259.242 153.274V194.228C259.242 197.811 262.14 200.716 265.716 200.716H315.485C319.06 200.716 321.959 197.811 321.959 194.228V153.274C321.959 149.691 319.06 146.786 315.485 146.786Z" fill="#E9EBEE"/>
<path d="M192.435 113.364C192.426 113.364 192.417 113.363 192.408 113.363L186.747 113.153C186.571 113.148 186.402 113.078 186.272 112.958C186.143 112.838 186.061 112.675 186.042 112.499C185.652 109.015 184.049 91.2631 190.766 83.8848C191.717 82.8194 192.892 81.9795 194.207 81.426C195.522 80.8724 196.943 80.6192 198.368 80.6846C198.426 80.6883 198.484 80.676 198.535 80.6491C198.587 80.6223 198.63 80.5818 198.66 80.5321L200.03 78.374C200.105 78.2571 200.211 78.1636 200.337 78.104C200.462 78.0444 200.602 78.0213 200.739 78.037C201.838 78.1701 207.439 78.7981 209.793 78.1149C209.932 78.0738 210.08 78.0747 210.219 78.1174C210.357 78.16 210.48 78.2426 210.572 78.3548L212.371 80.5589C212.402 80.5987 212.442 80.6306 212.488 80.6519C212.534 80.6731 212.584 80.683 212.634 80.6808C213.549 80.6624 216.759 80.84 219.567 83.9883C222.609 87.3973 225.747 95.0889 223.429 112.371C223.405 112.548 223.317 112.711 223.183 112.829C223.048 112.947 222.876 113.013 222.697 113.013H218.238C218.061 113.013 217.891 112.948 217.757 112.832C217.623 112.716 217.535 112.556 217.509 112.381L216.052 102.31C216.04 102.227 215.998 102.152 215.933 102.099C215.868 102.046 215.786 102.02 215.703 102.025C215.619 102.03 215.541 102.066 215.483 102.127C215.425 102.187 215.392 102.267 215.391 102.351L215.29 107.079C215.287 107.219 215.244 107.356 215.167 107.472C215.089 107.589 214.98 107.682 214.852 107.739C213.263 108.439 204.865 111.723 195.583 107.61C195.457 107.553 195.35 107.463 195.272 107.349C195.195 107.235 195.151 107.101 195.145 106.964L194.962 102.667C194.959 102.584 194.924 102.504 194.864 102.445C194.805 102.386 194.725 102.351 194.641 102.349C194.558 102.346 194.476 102.374 194.412 102.429C194.349 102.484 194.309 102.561 194.299 102.644L193.168 112.707C193.147 112.888 193.06 113.054 192.925 113.175C192.79 113.296 192.616 113.363 192.435 113.364Z" fill="#FF9500"/>
<path d="M215.852 187.554H215.848L193.666 187.413C193.504 187.412 193.349 187.352 193.229 187.244C193.109 187.136 193.032 186.988 193.013 186.827L190.782 167.821C190.768 167.698 190.711 167.585 190.62 167.501C190.53 167.417 190.412 167.369 190.289 167.366C188.528 167.308 184.338 166.906 183.47 164.421C182.697 162.207 184.812 158.943 189.756 154.717C189.84 154.645 189.941 154.595 190.049 154.572C190.157 154.549 190.27 154.554 190.376 154.585C190.482 154.617 190.578 154.675 190.656 154.753C190.734 154.832 190.791 154.929 190.822 155.036L193.389 163.91C193.42 164.016 193.485 164.11 193.573 164.177C193.662 164.244 193.769 164.281 193.88 164.282L214.912 164.423C215.022 164.424 215.13 164.39 215.219 164.325C215.308 164.26 215.374 164.168 215.406 164.062L218.262 154.956C218.294 154.854 218.35 154.762 218.425 154.686C218.5 154.611 218.592 154.555 218.693 154.522C218.794 154.49 218.902 154.483 219.007 154.501C219.111 154.519 219.21 154.563 219.294 154.627C221.243 156.119 227.521 161.24 226.488 164.515C225.947 166.23 223.506 167.186 219.233 167.357C219.11 167.361 218.993 167.409 218.903 167.493C218.813 167.576 218.756 167.689 218.742 167.811L216.509 186.967C216.491 187.129 216.413 187.278 216.292 187.386C216.171 187.494 216.014 187.554 215.852 187.554Z" fill="#48CEF3"/>
<path d="M313.057 107.517C306.087 108.862 299.514 111.779 293.835 116.048C293.548 115.282 293.007 114.638 292.303 114.224C291.822 113.925 291.297 113.704 290.747 113.569C290.247 113.441 289.767 113.746 289.326 114.184C288.818 114.747 288.392 115.379 288.061 116.061C280.444 110.821 268.888 107.478 268.888 107.478V106.43C268.898 106.183 268.923 105.937 268.963 105.693C269.003 105.411 269.052 105.162 269.114 104.858C270.094 99.8602 273.97 88.4408 273.97 88.4408H278.352L286.849 90.2092L296.407 89.623L306.035 87.6155L307.283 87.3535C309.365 88.9909 311.727 100.453 312.655 105.333C312.773 105.951 312.865 106.462 312.933 106.839C313.015 107.265 313.057 107.517 313.057 107.517Z" fill="white"/>
<path d="M286.909 157.823C286.909 157.823 284.873 158.333 281.717 166.902C278.56 175.47 277.441 186.541 277.441 186.541C277.441 186.541 275.666 189.553 283.243 189.755C283.243 189.755 282.634 191.744 286.909 191.439C291.184 191.133 290.569 191.136 290.569 191.136C290.569 191.136 293.317 189.402 294.539 189.707C295.761 190.013 296.524 190.116 297.847 191.237C299.169 192.358 303.397 191.901 303.447 191.036C303.481 190.61 303.481 190.183 303.447 189.758C303.447 189.758 309.912 190.167 308.69 185.473C307.468 180.78 306.45 173.077 306.45 173.077C306.45 173.077 303.143 158.031 299.373 157.826C295.604 157.621 286.909 157.823 286.909 157.823Z" fill="white"/>
<mask id="path-22-inside-6" fill="white">
<path d="M164.309 266H10.1463C10.039 266 9.9361 265.958 9.86022 265.882C9.78434 265.806 9.7417 265.702 9.7417 265.595C9.7417 265.487 9.78434 265.384 9.86022 265.308C9.9361 265.232 10.039 265.189 10.1463 265.189H164.309C164.417 265.189 164.52 265.232 164.596 265.308C164.671 265.384 164.714 265.487 164.714 265.595C164.714 265.702 164.671 265.806 164.596 265.882C164.52 265.958 164.417 266 164.309 266Z"/>
</mask>
<path d="M164.309 266H10.1463C10.039 266 9.9361 265.958 9.86022 265.882C9.78434 265.806 9.7417 265.702 9.7417 265.595C9.7417 265.487 9.78434 265.384 9.86022 265.308C9.9361 265.232 10.039 265.189 10.1463 265.189H164.309C164.417 265.189 164.52 265.232 164.596 265.308C164.671 265.384 164.714 265.487 164.714 265.595C164.714 265.702 164.671 265.806 164.596 265.882C164.52 265.958 164.417 266 164.309 266Z" fill="#121212"/>
<path d="M164.309 265H10.1463V267H164.309V265ZM10.1463 265C10.305 265 10.4566 265.064 10.5681 265.175L9.15236 266.588C9.41558 266.852 9.77306 267 10.1463 267V265ZM10.5681 265.175C10.6795 265.287 10.7417 265.438 10.7417 265.595H8.7417C8.7417 265.967 8.88921 266.324 9.15236 266.588L10.5681 265.175ZM10.7417 265.595C10.7417 265.752 10.6795 265.903 10.5681 266.015L9.15236 264.602C8.88921 264.866 8.7417 265.223 8.7417 265.595H10.7417ZM10.5681 266.015C10.4566 266.126 10.305 266.189 10.1463 266.189V264.189C9.77306 264.189 9.41558 264.338 9.15236 264.602L10.5681 266.015ZM10.1463 266.189H164.309V264.189H10.1463V266.189ZM164.309 266.189C164.151 266.189 163.999 266.126 163.888 266.015L165.303 264.602C165.04 264.338 164.683 264.189 164.309 264.189V266.189ZM163.888 266.015C163.776 265.903 163.714 265.752 163.714 265.595H165.714C165.714 265.223 165.567 264.866 165.303 264.602L163.888 266.015ZM163.714 265.595C163.714 265.438 163.776 265.287 163.888 265.175L165.303 266.588C165.567 266.324 165.714 265.967 165.714 265.595H163.714ZM163.888 265.175C163.999 265.064 164.151 265 164.309 265V267C164.683 267 165.04 266.852 165.303 266.588L163.888 265.175Z" fill="#121212" mask="url(#path-22-inside-6)"/>
<path d="M43.6756 92.9439C43.2936 90.3296 43.6669 87.6605 44.7515 85.2515C45.8362 82.8424 47.5868 80.7939 49.797 79.3476C50.2287 65.9982 59.3 55.3359 70.4292 55.3359C81.8339 55.3359 91.0792 66.5319 91.0792 80.3429C91.0792 94.1539 81.8339 105.35 70.4292 105.35C69.3545 105.35 68.2821 105.249 67.2259 105.05C66.848 107.187 65.9737 109.206 64.6734 110.943C63.3731 112.68 61.6831 114.088 59.7396 115.053C57.7961 116.017 55.6534 116.512 53.4839 116.496C51.3144 116.481 49.1789 115.956 47.2492 114.964C45.3196 113.972 43.6497 112.541 42.3741 110.785C41.0985 109.03 40.2528 106.999 39.9051 104.857C39.5575 102.714 39.7175 100.52 40.3724 98.4511C41.0273 96.382 42.1588 94.4956 43.6756 92.9439H43.6756Z" fill="#494949"/>
<path d="M82.6987 85.6932C82.5992 86.477 82.6896 87.2727 82.9626 88.0159C83.428 89.0709 84.5713 90.0177 84.2358 91.1188C84.0193 91.8293 83.2543 92.2243 82.5367 92.4621C79.1405 93.5876 75.4331 92.9173 71.8508 93.0691C70.6561 93.1715 69.4568 93.2123 68.2577 93.1912C67.0494 93.167 65.8801 92.7683 64.918 92.0525C66.7833 91.1648 68.5443 90.0811 70.1699 88.8203C70.5639 88.5348 70.9198 88.2021 71.2292 87.83C71.9928 86.8459 72.1083 85.5326 72.1495 84.2976C72.1903 83.0747 72.1867 81.8513 72.1386 80.6276C74.7023 80.6006 77.2661 80.5894 79.83 80.5941C80.6518 80.5956 83.166 80.4 83.4527 81.2667C83.5966 81.7015 83.045 82.9692 82.9618 83.4576C82.8356 84.198 82.7478 84.9442 82.6987 85.6932Z" fill="#FBBEBE"/>
<path opacity="0.05" d="M82.6987 85.6932C82.5992 86.477 82.6896 87.2727 82.9626 88.0159C83.428 89.0709 84.5713 90.0177 84.2358 91.1188C84.0193 91.8293 83.2543 92.2243 82.5367 92.4621C79.1405 93.5876 75.4331 92.9173 71.8508 93.0691C70.6561 93.1715 69.4568 93.2123 68.2577 93.1912C67.0494 93.167 65.8801 92.7683 64.918 92.0525C66.7833 91.1648 68.5443 90.0811 70.1699 88.8203C70.5639 88.5348 70.9198 88.2021 71.2292 87.83C71.9928 86.8459 72.1083 85.5326 72.1495 84.2976C72.1903 83.0747 72.1867 81.8513 72.1386 80.6276C74.7023 80.6006 77.2661 80.5894 79.83 80.5941C80.6518 80.5956 83.166 80.4 83.4527 81.2667C83.5966 81.7015 83.045 82.9692 82.9618 83.4576C82.8356 84.198 82.7478 84.9442 82.6987 85.6932Z" fill="#121212"/>
<path d="M95.7759 133.342C96.1482 136.179 95.8138 139.065 94.8031 141.737C89.3816 141.162 83.9342 140.872 78.4829 140.868C79.4257 139.596 80.0263 138.098 80.2261 136.521C80.3707 135.043 80.3802 133.555 80.2546 132.075L90.8351 132.038C91.6106 132.005 92.3873 132.064 93.1493 132.213C94.1771 132.457 94.7381 133.147 95.7759 133.342Z" fill="#FBBEBE"/>
<path d="M99.5515 139.061C100.117 140.005 100.802 140.868 101.432 141.769C102.592 143.468 103.618 145.257 104.501 147.119C105.614 149.4 106.609 151.75 107.958 153.895C108.715 154.949 109.363 156.079 109.89 157.268C110.269 158.404 110.459 159.596 110.451 160.795C110.492 162.39 110.356 164.095 109.406 165.366C108.99 165.91 108.448 166.341 107.828 166.62C107.209 166.9 106.53 167.019 105.854 166.967C105.161 166.928 104.506 166.64 104.004 166.154C103.075 165.186 103.167 163.636 103.416 162.309C103.591 161.379 103.811 160.402 103.516 159.504C103.333 159.059 103.12 158.628 102.878 158.214C102.445 157.207 102.181 156.135 102.095 155.04C101.82 152.937 101.523 150.707 100.203 149.06C99.4949 148.178 98.5366 147.526 97.8412 146.634C97.4769 146.166 97.1898 145.638 96.8015 145.191C96.2487 144.554 95.485 144.069 95.1665 143.284C95.0153 142.77 94.9181 142.24 94.8766 141.705C94.6677 140.859 94.3627 140.04 93.9677 139.265C92.7083 136.333 92.3707 133.092 92.0479 129.91C93.4015 129.854 94.7385 129.586 96.0119 129.117C95.6472 129.252 99.1668 138.42 99.5515 139.061Z" fill="#FBBEBE"/>
<path opacity="0.05" d="M99.5515 139.061C100.117 140.005 100.802 140.868 101.432 141.769C102.592 143.468 103.618 145.257 104.501 147.119C105.614 149.4 106.609 151.75 107.958 153.895C108.715 154.949 109.363 156.079 109.89 157.268C110.269 158.404 110.459 159.596 110.451 160.795C110.492 162.39 110.356 164.095 109.406 165.366C108.99 165.91 108.448 166.341 107.828 166.62C107.209 166.9 106.53 167.019 105.854 166.967C105.161 166.928 104.506 166.64 104.004 166.154C103.075 165.186 103.167 163.636 103.416 162.309C103.591 161.379 103.811 160.402 103.516 159.504C103.333 159.059 103.12 158.628 102.878 158.214C102.445 157.207 102.181 156.135 102.095 155.04C101.82 152.937 101.523 150.707 100.203 149.06C99.4949 148.178 98.5366 147.526 97.8412 146.634C97.4769 146.166 97.1898 145.638 96.8015 145.191C96.2487 144.554 95.485 144.069 95.1665 143.284C95.0153 142.77 94.9181 142.24 94.8766 141.705C94.6677 140.859 94.3627 140.04 93.9677 139.265C92.7083 136.333 92.3707 133.092 92.0479 129.91C93.4015 129.854 94.7385 129.586 96.0119 129.117C95.6472 129.252 99.1668 138.42 99.5515 139.061Z" fill="#121212"/>
<path d="M77.9987 84.4599C83.0824 84.4599 87.2035 80.3308 87.2035 75.2373C87.2035 70.1438 83.0824 66.0146 77.9987 66.0146C72.9151 66.0146 68.7939 70.1438 68.7939 75.2373C68.7939 80.3308 72.9151 84.4599 77.9987 84.4599Z" fill="#FBBEBE"/>
<path d="M95.7886 169.129C97.5221 171.208 98.1986 173.958 98.824 176.602L101.121 186.313C102.131 190.248 102.915 194.238 103.47 198.265C103.741 200.552 103.854 202.93 103.098 205.102C102.468 206.714 101.552 208.195 100.395 209.473C97.9285 212.463 94.9124 214.943 91.5133 216.774C89.7121 217.719 87.8074 218.444 85.956 219.285C83.1951 220.538 80.5558 222.046 77.9211 223.552L68.0054 229.218C65.8786 230.433 63.728 231.666 61.9571 233.368C60.312 234.952 59.0444 236.892 58.2501 239.044C58.1145 239.609 57.8112 240.119 57.3808 240.505C56.8155 240.896 56.0534 240.769 55.3987 240.567C52.9946 239.758 50.9193 238.175 49.4912 236.06C48.0631 233.944 47.3613 231.414 47.4933 228.856C54.7793 226.275 61.5051 222.3 67.3028 217.146C71.7285 213.208 75.717 208.514 81.118 206.122C83.48 205.076 86.3133 204.277 87.4174 201.922C87.8409 200.826 88.0372 199.654 87.9942 198.479C88.0927 195.243 88.1887 191.975 87.5787 188.796C87.0631 186.109 86.0545 183.549 85.2957 180.921C83.7765 175.662 83.2665 170.166 82.7638 164.71C86.2919 164.285 89.842 164.073 93.3951 164.075C93.707 164.035 94.022 164.12 94.273 164.311C94.4316 164.513 94.5264 164.759 94.545 165.016C94.8023 166.435 94.8688 168.025 95.7886 169.129Z" fill="#FBBEBE"/>
<path opacity="0.05" d="M95.7886 169.129C97.5221 171.208 98.1986 173.958 98.824 176.602L101.121 186.313C102.131 190.248 102.915 194.238 103.47 198.265C103.741 200.552 103.854 202.93 103.098 205.102C102.468 206.714 101.552 208.195 100.395 209.473C97.9285 212.463 94.9124 214.943 91.5133 216.774C89.7121 217.719 87.8074 218.444 85.956 219.285C83.1951 220.538 80.5558 222.046 77.9211 223.552L68.0054 229.218C65.8786 230.433 63.728 231.666 61.9571 233.368C60.312 234.952 59.0444 236.892 58.2501 239.044C58.1145 239.609 57.8112 240.119 57.3808 240.505C56.8155 240.896 56.0534 240.769 55.3987 240.567C52.9946 239.758 50.9193 238.175 49.4912 236.06C48.0631 233.944 47.3613 231.414 47.4933 228.856C54.7793 226.275 61.5051 222.3 67.3028 217.146C71.7285 213.208 75.717 208.514 81.118 206.122C83.48 205.076 86.3133 204.277 87.4174 201.922C87.8409 200.826 88.0372 199.654 87.9942 198.479C88.0927 195.243 88.1887 191.975 87.5787 188.796C87.0631 186.109 86.0545 183.549 85.2957 180.921C83.7765 175.662 83.2665 170.166 82.7638 164.71C86.2919 164.285 89.842 164.073 93.3951 164.075C93.707 164.035 94.022 164.12 94.273 164.311C94.4316 164.513 94.5264 164.759 94.545 165.016C94.8023 166.435 94.8688 168.025 95.7886 169.129Z" fill="#121212"/>
<path d="M44.2669 233.02C45.996 236.229 47.7242 239.437 49.4516 242.644C49.8536 243.386 50.2557 244.134 50.5868 244.915C51.1492 246.234 51.5065 247.645 52.1398 248.929C52.8856 250.302 53.7845 251.577 54.8176 252.729C55.945 254.09 57.0723 255.449 58.1996 256.806C58.5548 257.296 58.9974 257.708 59.503 258.021C59.758 258.173 60.0488 258.246 60.3418 258.232C60.6348 258.218 60.918 258.117 61.1585 257.942C61.3445 257.769 61.4924 257.556 61.5922 257.318C61.8549 256.738 61.9742 256.099 61.939 255.459C61.917 254.938 61.7971 254.426 61.5861 253.953C61.3751 253.481 61.0771 253.056 60.7092 252.704C60.2414 252.275 59.6449 251.926 59.4426 251.31C59.3572 250.973 59.3384 250.621 59.3874 250.276C59.6265 247.241 59.8683 244.178 60.7276 241.269C61.3688 239.094 62.3621 236.859 61.8865 234.637C60.9825 234.351 59.8079 234.156 59.2665 234.964C58.2128 236.545 58.1523 235.951 56.5283 235.712C54.9227 235.481 53.3854 235.368 52.1977 234.043C50.6236 232.289 50.7576 229.567 50.9889 227.175C49.3281 227.095 47.7461 227.719 46.2404 228.511C45.7122 228.789 45.1945 229.086 44.6847 229.38C44.4033 229.52 44.1486 229.713 43.9332 229.949C43.2525 230.788 43.7492 232.061 44.2669 233.02Z" fill="#8BC63E"/>
<path d="M95.2302 161.658C95.803 163.557 96.2535 165.492 96.5788 167.45C96.7341 168.528 96.8134 169.615 96.8926 170.701C93.2603 171.575 89.491 171.621 85.7582 171.662L70.1977 171.832C69.8548 169.704 69.7141 167.547 69.7775 165.392C69.9942 161.847 71.3129 158.39 71.0893 154.846C75.3588 154.075 79.6749 153.598 84.0079 153.418C84.7966 153.337 85.5934 153.413 86.3533 153.643C87.0578 153.905 87.6456 154.415 88.3233 154.743C89.8467 155.479 92.1334 155.12 93.4277 156.314C94.6105 157.405 94.8087 160.145 95.2302 161.658Z" fill="#8BC63E"/>
<path opacity="0.1" d="M95.2302 161.658C95.803 163.557 96.2535 165.492 96.5788 167.45C96.7341 168.528 96.8134 169.615 96.8926 170.701C93.2603 171.575 89.491 171.621 85.7582 171.662L70.1977 171.832C69.8548 169.704 69.7141 167.547 69.7775 165.392C69.9942 161.847 71.3129 158.39 71.0893 154.846C75.3588 154.075 79.6749 153.598 84.0079 153.418C84.7966 153.337 85.5934 153.413 86.3533 153.643C87.0578 153.905 87.6456 154.415 88.3233 154.743C89.8467 155.479 92.1334 155.12 93.4277 156.314C94.6105 157.405 94.8087 160.145 95.2302 161.658Z" fill="#121212"/>
<path d="M94.141 166.625C95.2936 172.24 94.0741 178.043 93.7918 183.775C93.5898 187.877 93.8712 191.985 93.9854 196.091C94.0536 197.271 94.0016 198.455 93.8301 199.624C93.6151 200.659 93.3115 201.673 92.923 202.653L91.5494 206.432C90.2596 209.98 88.9454 213.787 90.259 217.487C90.6097 218.441 90.6794 219.481 90.4594 220.476C88.4908 228.961 90.2652 237.971 90.546 246.691C90.521 247.548 90.6654 248.402 90.9706 249.201C91.6718 250.733 93.4041 251.479 94.3124 252.891C95.4153 254.605 95.0198 257.047 93.7194 258.607C92.419 260.166 90.4009 260.933 88.4137 261.103C85.9276 261.315 83.4377 260.693 81.0011 260.284L80.7305 260.018C80.4234 258.27 81.3542 256.656 81.6443 254.87C81.7812 253.812 81.8421 252.745 81.8264 251.678C81.8432 250.723 81.8813 249.767 81.8187 248.814C81.7377 247.845 81.6047 246.881 81.4203 245.928L79.347 234.064L78.8993 231.502L77.0375 220.849C76.6856 218.836 77.547 216.584 77.7716 214.551C78.2367 210.343 78.7026 206.116 78.5665 201.883C78.5519 200.721 78.4201 199.564 78.1731 198.43C77.9051 197.381 77.7482 196.305 77.7053 195.221C77.6726 193.915 77.1655 192.631 76.6723 191.348C75.0184 187.048 75.0871 182.288 74.7267 177.676C74.6879 176.698 74.516 175.73 74.2161 174.801C73.7003 173.395 72.6703 172.267 71.858 171.018C71.0457 169.769 70.4295 168.208 70.8881 166.781C71.6209 164.499 74.6261 163.768 76.4504 163.103C79.5728 161.926 82.9771 161.807 86.1696 162.763C88.9796 163.683 91.6599 164.982 94.141 166.625Z" fill="#FBBEBE"/>
<path d="M80.1958 264.786C80.3162 265.021 80.4998 265.218 80.7259 265.355C80.9827 265.46 81.2613 265.5 81.5373 265.472C85.6958 265.385 89.8533 265.296 94.0099 265.207C95.5437 265.132 97.0811 265.188 98.6055 265.374C99.8186 265.557 101.007 265.909 102.231 265.983C105.07 266.161 107.767 264.86 110.313 263.591C110.717 263.439 111.063 263.163 111.302 262.804C111.461 262.413 111.468 261.977 111.321 261.582C111.097 260.773 110.608 260.062 109.933 259.564C109.851 259.509 109.767 259.455 109.679 259.405C108.979 259.074 108.223 258.877 107.45 258.826C104.553 258.446 101.507 257.877 99.3104 255.95C98.6765 255.395 98.1383 254.744 97.5508 254.143C96.3101 252.94 94.9722 251.842 93.5509 250.859C93.4124 250.727 93.2485 250.624 93.0691 250.557C92.8897 250.489 92.6985 250.459 92.5072 250.468C92.2917 250.53 92.0947 250.643 91.9334 250.799C91.3357 251.222 90.8675 251.803 90.581 252.478C90.4494 252.818 90.4447 253.194 90.5676 253.537C90.6905 253.881 90.9329 254.168 91.2504 254.348C91.7367 254.553 92.264 254.446 92.7039 254.728C91.805 255.378 90.417 255.704 89.4061 256.376C88.4074 257.143 87.2871 257.736 86.0919 258.131C84.8761 258.446 83.428 258.23 82.633 257.257C82.204 256.732 81.6603 255.928 81.0783 256.272C80.8805 256.42 80.7381 256.63 80.674 256.868C80.0699 258.28 79.6715 259.772 79.4909 261.297C79.3496 262.506 79.5965 263.727 80.1958 264.786Z" fill="#8BC63E"/>
<path d="M83.5786 134.944C84.2832 134.928 84.9868 135.008 85.6709 135.181C86.3242 135.398 86.951 135.691 87.539 136.053L94.2197 139.827C94.7108 140.076 95.168 140.39 95.5797 140.76C96.5422 141.704 96.8203 143.156 96.8778 144.516C97.1017 149.81 94.7565 154.889 94.4614 160.18C94.3308 162.54 94.6104 164.905 95.2874 167.166C95.4552 167.726 95.6202 168.413 95.2178 168.831C95.0654 168.97 94.8857 169.076 94.6906 169.139C92.5752 169.978 90.2733 170.164 88.0099 170.34C82.4712 170.772 76.8835 171.203 71.3782 170.449C71.1022 170.43 70.8333 170.351 70.5896 170.218C70.275 169.966 70.0423 169.623 69.9218 169.234C69.2269 167.574 68.5451 165.909 67.8763 164.238C66.7541 161.435 65.6488 158.484 65.9321 155.47C66.2841 151.726 68.697 148.565 70.104 145.088C70.524 144.05 70.8577 142.973 71.3675 141.977C71.9396 140.963 72.5767 139.989 73.2747 139.06C73.816 138.275 74.337 136.511 74.9977 135.961C75.8056 135.288 78.0859 135.304 79.1087 135.182C80.5921 135.005 82.0851 134.926 83.5786 134.944Z" fill="#6B9C2E"/>
<path opacity="0.1" d="M44.2693 233.528C46.0046 236.672 47.7391 239.815 49.4727 242.957C49.8761 243.685 50.2797 244.417 50.612 245.183C51.1764 246.476 51.535 247.858 52.1706 249.116C52.9191 250.461 53.8212 251.711 54.858 252.839C55.9894 254.173 57.1208 255.505 58.2522 256.835C58.6087 257.314 59.0529 257.719 59.5603 258.025C59.8162 258.174 60.1081 258.246 60.4021 258.232C60.6962 258.218 60.9804 258.119 61.2218 257.947C61.4085 257.778 61.5569 257.569 61.657 257.336C61.9207 256.768 62.0404 256.142 62.0051 255.515C60.7678 254.898 59.6507 254.056 58.7085 253.031C57.9689 252.122 57.3262 251.136 56.7912 250.089C56.3244 249.251 55.8567 248.412 55.3881 247.572C52.9855 243.254 50.5812 238.935 48.1751 234.616C47.1792 232.931 46.5245 231.058 46.2499 229.109C45.7198 229.381 45.2002 229.672 44.6886 229.961C44.4062 230.098 44.1506 230.287 43.9343 230.518C43.2513 231.34 43.7497 232.588 44.2693 233.528Z" fill="#121212"/>
<path d="M66.4604 90.0927C70.9149 90.8582 75.4194 91.2891 79.9368 91.3821C81.0496 91.4049 82.3961 91.2704 82.8888 90.2614C83.1194 89.7891 83.105 89.2021 83.4277 88.7886C84.034 88.0116 85.2523 88.3956 86.1248 88.8443C87.3437 89.4712 88.6213 90.151 89.3497 91.3211C89.8271 92.2288 90.1358 93.2173 90.2605 94.2375C90.6832 96.4106 91.3305 98.6848 92.9615 100.163C93.8087 100.931 94.8713 101.432 95.6858 102.235C97.0006 103.532 97.5125 105.476 97.5162 107.333C97.5198 109.19 97.0765 111.014 96.7481 112.841C95.5414 119.593 95.8906 126.537 97.7684 133.131C97.8587 133.363 97.8839 133.617 97.8411 133.863C97.71 134.337 97.1413 134.506 96.6605 134.586C89.1983 135.829 81.1932 134.649 74.3265 137.854C73.7549 136.427 72.339 135.617 71.6392 134.25C71.0721 133.143 71.1511 131.829 71.0005 130.591C70.5931 127.242 68.4795 124.39 67.2803 121.241C66.2289 118.48 65.864 115.438 64.3917 112.881C63.8689 111.973 63.2161 111.146 62.7057 110.231C61.4672 107.713 60.5923 105.028 60.1079 102.258C59.8108 98.6746 61.4657 95.2219 63.4165 92.2151C64.1685 91.0561 65.109 89.8604 66.4604 90.0927Z" fill="#494949"/>
<path opacity="0.1" d="M88.1724 102.905C89.0855 103.087 89.6211 103.905 90.0466 104.644C90.3331 105.108 90.574 105.594 90.7666 106.095C91.0163 106.941 91.1174 107.816 91.0663 108.69C91.0864 109.244 91.0195 109.798 90.8672 110.336C90.7105 110.879 90.3231 111.347 89.7861 111.642" stroke="#121212" stroke-miterlimit="10"/>
<path d="M65.0241 181.54L64.1333 179.452C61.0097 171.946 58.9222 167.047 60.7636 163.002C61.1006 162.227 61.5884 161.527 62.1982 160.945C62.808 160.363 63.5273 159.91 64.3137 159.613C65.1001 159.316 65.9374 159.182 66.7762 159.218C67.6151 159.253 68.4383 159.458 69.1971 159.82C70.0953 160.242 70.8916 160.857 71.5308 161.62C72.1701 162.384 72.6369 163.279 72.8989 164.243C73.7944 163.815 74.7714 163.589 75.7621 163.581C76.7529 163.572 77.7335 163.782 78.6361 164.194C79.403 164.539 80.0935 165.035 80.6669 165.654C81.2403 166.272 81.6848 167.001 81.9741 167.796C82.2634 168.591 82.3917 169.437 82.3513 170.283C82.3109 171.129 82.1027 171.958 81.7389 172.721C79.8975 176.766 74.8536 178.361 67.1751 180.861L65.0241 181.54Z" fill="#EE2A7B"/>
<path d="M76.6519 73.4446C82.1708 72.0304 86.0803 68.6698 85.3842 65.9385C84.688 63.2072 79.6498 62.1395 74.1309 63.5537C68.6121 64.9678 64.7025 68.3284 65.3987 71.0597C66.0948 73.791 71.1331 74.8587 76.6519 73.4446Z" fill="#494949"/>
<path d="M70.64 105.041C70.3848 102.435 69.4959 99.9324 68.0518 97.7542C67.4884 96.8033 66.6855 96.019 65.7244 95.4805C65.2403 95.2201 64.6922 95.1046 64.145 95.1474C63.5977 95.1902 63.074 95.3897 62.6358 95.7223C62.089 96.2998 61.7058 97.014 61.5259 97.7908C60.2378 101.125 59.6808 104.701 59.8929 108.272C59.9132 111.528 59.9385 114.824 60.7563 117.975C61.22 119.761 61.9342 121.481 62.2887 123.292C62.6433 125.104 62.6002 127.091 61.635 128.661C60.8551 129.878 60.2715 131.211 59.9059 132.612C59.5782 134.296 59.4745 136.017 59.5974 137.729L59.7284 142.432C59.8994 148.567 60.0651 154.765 58.846 160.778C58.2897 163.522 56.8935 166.117 57.2129 168.898C57.3708 169.905 57.6571 170.888 58.0647 171.821C58.5873 173.164 59.2187 174.614 60.4978 175.265C61.1199 175.546 61.7935 175.694 62.4756 175.698C63.3218 175.741 64.1701 175.704 65.0093 175.586C65.5232 175.515 66.1872 175.169 66.0127 174.677C65.9315 174.511 65.806 174.37 65.6503 174.271C64.9943 173.74 64.4645 173.069 64.0996 172.305C63.7347 171.542 63.5438 170.706 63.541 169.859C63.5511 167.425 65.1245 165.083 64.6338 162.7C64.3296 161.222 63.2465 159.791 63.7032 158.353C64.7339 155.11 64.8591 151.624 65.7372 148.335L66.598 145.111C67.11 143.194 67.6223 141.275 68.0439 139.335C69.2103 133.964 69.6762 128.463 69.4297 122.97C69.3911 122.114 69.8646 121.138 69.9356 120.285C70.0194 119.277 69.9179 118.264 69.9324 117.254C69.9924 113.093 71.0405 109.182 70.64 105.041Z" fill="#FBBEBE"/>
<path d="M222.205 89.5036L220.87 88.3342C216.13 84.1074 213 81.364 213 77.9466C213 75.1584 215.209 73 218.063 73C218.853 73.0041 219.633 73.1751 220.348 73.5013C221.063 73.8275 221.697 74.3009 222.205 74.8888C222.713 74.3009 223.346 73.8275 224.062 73.5013C224.777 73.1751 225.557 73.0041 226.347 73C229.201 73 231.41 75.1584 231.41 77.9466C231.41 81.364 228.28 84.1074 223.54 88.3342L222.205 89.5036Z" fill="#EE2A7B"/>
<path d="M310.269 73.9562C310.919 73.6597 311.629 73.5039 312.348 73.5C314.936 73.5006 316.91 75.4458 316.91 77.9466C316.91 79.4874 316.209 80.9161 314.869 82.5158C313.555 84.0845 311.68 85.756 309.376 87.8101C309.321 87.8597 309.265 87.9095 309.209 87.9595C309.208 87.96 309.207 87.9605 309.207 87.961L308.205 88.8389L307.203 87.961C307.202 87.9605 307.202 87.96 307.201 87.9595C307.145 87.9095 307.089 87.8597 307.034 87.8102C304.73 85.7561 302.855 84.0845 301.541 82.5158C300.201 80.9161 299.5 79.4874 299.5 77.9466C299.5 75.4458 301.474 73.5006 304.061 73.5C304.781 73.5039 305.49 73.6598 306.14 73.9562C306.791 74.2529 307.366 74.683 307.826 75.2157L308.205 75.6535L308.583 75.2157C309.043 74.683 309.619 74.2529 310.269 73.9562Z" fill="white" stroke="#E9EBEE"/>
<path d="M222.205 166.008L220.87 164.838C216.13 160.611 213 157.868 213 154.45C213 151.662 215.209 149.504 218.063 149.504C218.853 149.508 219.633 149.679 220.348 150.005C221.063 150.331 221.697 150.805 222.205 151.393C222.713 150.805 223.346 150.331 224.062 150.005C224.777 149.679 225.557 149.508 226.347 149.504C229.201 149.504 231.41 151.662 231.41 154.45C231.41 157.868 228.28 160.611 223.54 164.838L222.205 166.008Z" fill="#EE2A7B"/>
<path d="M310.269 150.46C310.919 150.164 311.629 150.008 312.348 150.004C314.936 150.005 316.91 151.95 316.91 154.45C316.91 155.991 316.209 157.42 314.869 159.02C313.555 160.588 311.68 162.26 309.376 164.314C309.321 164.364 309.265 164.413 309.209 164.463C309.208 164.464 309.207 164.464 309.207 164.465L308.205 165.343L307.203 164.465C307.202 164.464 307.202 164.464 307.201 164.463C307.145 164.413 307.089 164.364 307.034 164.314C304.73 162.26 302.855 160.588 301.541 159.02C300.201 157.42 299.5 155.991 299.5 154.45C299.5 151.95 301.474 150.005 304.061 150.004C304.781 150.008 305.49 150.164 306.14 150.46C306.791 150.757 307.366 151.187 307.826 151.72L308.205 152.157L308.583 151.72C309.043 151.187 309.619 150.757 310.269 150.46Z" fill="white" stroke="#E9EBEE"/>
</g>
<defs>
<clipPath id="clip0">
<rect width="343" height="266" fill="white"/>
</clipPath>
</defs>
</svg>
