<svg width="40" height="40" viewBox="0 0 40 40" fill="none" xmlns="http://www.w3.org/2000/svg">
<path d="M4 12C4 10.8954 4.89543 10 6 10H34C35.1046 10 36 10.8954 36 12V28C36 29.1046 35.1046 30 34 30H6C4.89543 30 4 29.1046 4 28V12Z" fill="#8BC63E"/>
<path fill-rule="evenodd" clip-rule="evenodd" d="M19.7027 19.3687C18.8728 19.3687 18.1017 19.6202 17.4611 20.051L19.3628 21.2449V21.9052C19.4722 21.8802 19.5857 21.8658 19.7027 21.8658C20.5441 21.8658 21.2269 22.5483 21.2269 23.3904C21.2269 24.232 20.5441 24.9145 19.7027 24.9145C18.8609 24.9145 18.1787 24.232 18.1787 23.3904C18.1787 22.9484 18.3678 22.5515 18.6682 22.273C17.8006 22.0962 17.0126 21.7014 16.3638 21.1479C15.9325 21.7885 15.6807 22.5601 15.6807 23.3904C15.6807 25.6113 17.4815 27.4121 19.7027 27.4121C21.9238 27.4121 23.7245 25.6113 23.7245 23.3904C23.7245 21.1694 21.9238 19.3687 19.7027 19.3687Z" fill="#BBE484"/>
<path fill-rule="evenodd" clip-rule="evenodd" d="M24.3466 17.232C24.3466 19.7969 22.2673 21.8757 19.7026 21.8757C17.1379 21.8757 15.0586 19.7969 15.0586 17.232C15.0586 14.6673 17.1379 12.5879 19.7026 12.5879C22.2673 12.5879 24.3466 14.6673 24.3466 17.232Z" fill="#BBE484"/>
<path fill-rule="evenodd" clip-rule="evenodd" d="M23.5531 13.8181C24.0965 13.7996 24.5335 13.1343 24.5335 12.5879H21.9238C22.5468 12.8865 23.0997 13.3072 23.5531 13.8181Z" fill="#CCFC9D"/>
<path fill-rule="evenodd" clip-rule="evenodd" d="M19.7022 19.3687C18.4924 19.3687 17.4082 19.9033 16.6709 20.7488C17.4519 21.4223 18.4588 21.8406 19.5635 21.873C19.609 21.8685 19.6554 21.8658 19.7022 21.8658C19.7489 21.8658 19.7952 21.8685 19.8411 21.873C20.9453 21.8406 21.9527 21.4225 22.7333 20.7488C21.9961 19.9033 20.912 19.3687 19.7022 19.3687Z" fill="white"/>
<path fill-rule="evenodd" clip-rule="evenodd" d="M9 13C9 14.6569 7.65685 16 6 16V24C7.65685 24 9 25.3431 9 27H13V24.2849C11.1486 23.1959 10 21.6784 10 20C10 18.3216 11.1486 16.8041 13 15.7151V13H9Z" fill="white"/>
<path fill-rule="evenodd" clip-rule="evenodd" d="M34 16V24C32.3431 24 31 25.3431 31 27H27V24.2849C28.8514 23.1959 30 21.6784 30 20C30 18.3216 28.8514 16.8041 27 15.7151V13H31C31 14.6569 32.3431 16 34 16Z" fill="white"/>
</svg>
