<svg width="16" height="18" viewBox="0 0 16 18" fill="none" xmlns="http://www.w3.org/2000/svg">
<path fill-rule="evenodd" clip-rule="evenodd" d="M1.14286 18C0.511675 18 0 17.5971 0 17.1L0 0.9C0 0.402945 0.511675 0 1.14286 0C1.77404 0 2.28571 0.402945 2.28571 0.9L2.28571 17.1C2.28571 17.5971 1.77404 18 1.14286 18ZM8 15C7.36882 15 6.85714 14.5971 6.85714 14.1L6.85714 3.9C6.85714 3.40294 7.36882 3 8 3C8.63118 3 9.14286 3.40294 9.14286 3.9V14.1C9.14286 14.5971 8.63118 15 8 15ZM13.7143 11.1C13.7143 11.5971 14.226 12 14.8571 12C15.4883 12 16 11.5971 16 11.1V6.9C16 6.40294 15.4883 6 14.8571 6C14.226 6 13.7143 6.40294 13.7143 6.9V11.1Z" fill="#4E4E4E"/>
</svg>
