<svg width="18" height="20" viewBox="0 0 18 20" fill="none" xmlns="http://www.w3.org/2000/svg">
<path fill-rule="evenodd" clip-rule="evenodd" d="M7.11043 0.00620445C7.65934 0.0671941 8.05487 0.561613 7.99388 1.11052L7.4506 6.00009H11.4383L12.0061 0.889657C12.0671 0.34075 12.5615 -0.0547852 13.1104 0.00620445C13.6593 0.0671941 14.0549 0.561613 13.9939 1.11052L13.4506 6.00009H17C17.5523 6.00009 18 6.4478 18 7.00009C18 7.55237 17.5523 8.00009 17 8.00009H13.2284L12.7839 12.0001H17C17.5523 12.0001 18 12.4478 18 13.0001C18 13.5524 17.5523 14.0001 17 14.0001H12.5617L11.9939 19.1105C11.9329 19.6594 11.4385 20.055 10.8896 19.994C10.3407 19.933 9.94513 19.4386 10.0061 18.8897L10.5494 14.0001H6.56171L5.99388 19.1105C5.93289 19.6594 5.43848 20.055 4.88957 19.994C4.34066 19.933 3.94513 19.4386 4.00612 18.8897L4.5494 14.0001H1C0.447715 14.0001 0 13.5524 0 13.0001C0 12.4478 0.447715 12.0001 1 12.0001H4.77162L5.21607 8.00009H1C0.447715 8.00009 0 7.55237 0 7.00009C0 6.4478 0.447715 6.00009 1 6.00009H5.43829L6.00612 0.889657C6.06711 0.34075 6.56152 -0.0547852 7.11043 0.00620445ZM10.7716 12.0001L11.2161 8.00009H7.22838L6.78393 12.0001H10.7716Z" fill="#8CAEC5"/>
</svg>
