<svg width="14" height="16" viewBox="0 0 14 16" fill="none" xmlns="http://www.w3.org/2000/svg">
<path fill-rule="evenodd" clip-rule="evenodd" d="M5.53034 0.00496352C5.95726 0.0537548 6.2649 0.449286 6.21747 0.888408L5.79491 4.80003H8.89645L9.33809 0.711719C9.38553 0.272597 9.77007 -0.0438277 10.197 0.00496352C10.6239 0.0537548 10.9316 0.449286 10.8841 0.888408L10.4616 4.80003H13.2222C13.6518 4.80003 14 5.1582 14 5.60002C14 6.04185 13.6518 6.40001 13.2222 6.40001H10.2887L9.94306 9.59999H13.2222C13.6518 9.59999 14 9.95816 14 10.4C14 10.8418 13.6518 11.2 13.2222 11.2H9.77022L9.32858 15.2883C9.28114 15.7274 8.89659 16.0438 8.46966 15.995C8.04274 15.9462 7.7351 15.5507 7.78253 15.1116L8.20509 11.2H5.10355L4.66191 15.2883C4.61447 15.7274 4.22993 16.0438 3.803 15.995C3.37607 15.9462 3.06843 15.5507 3.11587 15.1116L3.53842 11.2H0.777778C0.348223 11.2 0 10.8418 0 10.4C0 9.95816 0.348223 9.59999 0.777778 9.59999H3.71126L4.05694 6.40001H0.777778C0.348223 6.40001 0 6.04185 0 5.60002C0 5.1582 0.348223 4.80003 0.777778 4.80003H4.22978L4.67142 0.711719C4.71886 0.272597 5.10341 -0.0438277 5.53034 0.00496352ZM8.37793 9.59999L8.72361 6.40001H5.62207L5.27639 9.59999H8.37793Z" fill="black" fill-opacity="0.5"/>
</svg>
