<svg width="32" height="32" viewBox="0 0 32 32" fill="none" xmlns="http://www.w3.org/2000/svg">
<path fill-rule="evenodd" clip-rule="evenodd" d="M15.9997 8.79971C12.0233 8.79971 8.79971 12.0233 8.79971 15.9997C8.79971 19.9762 12.0233 23.1997 15.9997 23.1997C19.9762 23.1997 23.1997 19.9762 23.1997 15.9997C23.1997 12.0233 19.9762 8.79971 15.9997 8.79971ZM7.19971 15.9997C7.19971 11.1396 11.1396 7.19971 15.9997 7.19971C20.8598 7.19971 24.7997 11.1396 24.7997 15.9997C24.7997 20.8598 20.8598 24.7997 15.9997 24.7997C11.1396 24.7997 7.19971 20.8598 7.19971 15.9997Z" fill="#8BC63E"/>
<path fill-rule="evenodd" clip-rule="evenodd" d="M16.2063 12.8193C15.8339 12.7554 15.4509 12.8254 15.1251 13.0169C14.7993 13.2083 14.5519 13.5089 14.4265 13.8653C14.2799 14.2821 13.8231 14.5012 13.4063 14.3545C12.9895 14.2079 12.7705 13.7512 12.9171 13.3344C13.1679 12.6215 13.6629 12.0204 14.3144 11.6375C14.9659 11.2546 15.732 11.1146 16.4768 11.2424C17.2216 11.3701 17.8972 11.7574 18.3839 12.3355C18.8705 12.9135 19.1368 13.6451 19.1358 14.4006C19.1354 15.6249 18.2278 16.4334 17.5796 16.8655C17.2311 17.0978 16.8882 17.2687 16.6357 17.3809C16.5083 17.4375 16.401 17.4805 16.3237 17.51C16.285 17.5247 16.2536 17.5361 16.2308 17.5443L16.203 17.554L16.1941 17.557L16.191 17.5581L16.1898 17.5585C16.1895 17.5586 16.1888 17.5588 15.9358 16.7999L16.1888 17.5588C15.7696 17.6985 15.3166 17.472 15.1769 17.0529C15.0372 16.634 15.2634 16.1812 15.682 16.0412L15.681 16.0415C15.681 16.0415 15.6811 16.0415 15.682 16.0412L15.6947 16.0367C15.7071 16.0323 15.7272 16.025 15.7541 16.0148C15.8081 15.9942 15.8883 15.9622 15.9859 15.9188C16.1834 15.8311 16.4405 15.7019 16.692 15.5342C17.2437 15.1664 17.5358 14.7752 17.5358 14.3999L17.5358 14.3987C17.5364 14.0208 17.4032 13.655 17.1598 13.3659C16.9165 13.0768 16.5787 12.8832 16.2063 12.8193Z" fill="#8BC63E"/>
<path fill-rule="evenodd" clip-rule="evenodd" d="M15.1997 19.9997C15.1997 19.5579 15.5579 19.1997 15.9997 19.1997H16.0077C16.4495 19.1997 16.8077 19.5579 16.8077 19.9997C16.8077 20.4415 16.4495 20.7997 16.0077 20.7997H15.9997C15.5579 20.7997 15.1997 20.4415 15.1997 19.9997Z" fill="#8BC63E"/>
</svg>
