<svg width="24" height="18" viewBox="0 0 24 18" fill="none" xmlns="http://www.w3.org/2000/svg">
<path fill-rule="evenodd" clip-rule="evenodd" d="M11.9977 2.00002C11.3682 1.99854 10.7408 2.07025 10.1279 2.21371C9.59016 2.33958 9.05219 2.00569 8.92632 1.46794C8.80045 0.930189 9.13434 0.392217 9.67209 0.266343C10.4355 0.087647 11.2171 -0.00172473 12.0012 2.52064e-05L12.0023 2.79482e-05L12 1.00003V2.51467e-05L12.0012 2.52064e-05C15.9001 0.000464969 18.8957 2.22667 20.8545 4.31608C21.8432 5.37062 22.5979 6.42134 23.1057 7.2075C23.3601 7.60154 23.5542 7.93167 23.686 8.16601C23.752 8.28325 23.8025 8.37672 23.8372 8.44246C23.8546 8.47534 23.8681 8.5013 23.8777 8.51985L23.889 8.54206L23.8925 8.54889L23.8936 8.55122L21.858 8.9978C21.7488 8.80927 21.6044 8.56938 21.4256 8.29255C20.9646 7.57871 20.2818 6.62943 19.3955 5.68397C17.6045 3.77359 15.1005 2.00003 12 2.00003L11.9977 2.00002ZM21.858 8.9978C21.3406 9.89819 20.7439 10.7511 20.0748 11.5462C19.7193 11.9688 19.7736 12.5996 20.1962 12.9552C20.6187 13.3108 21.2496 13.2565 21.6052 12.8339C22.479 11.7953 23.2421 10.6684 23.8819 9.47144C24.0348 9.18538 24.0395 8.84293 23.8944 8.55281L21.858 8.9978C21.8892 9.05168 21.8326 8.95264 21.858 8.9978ZM5.4531 2.26525C5.85123 1.96123 6.41289 1.9987 6.76711 2.35292L10.5832 6.16899C10.5855 6.1713 10.5878 6.17361 10.5901 6.17594L14.824 10.4098C14.8264 10.4122 14.8287 10.4145 14.8311 10.4169L18.6471 14.2329C18.8511 14.4369 18.9571 14.7191 18.9378 15.007C18.9184 15.2949 18.7757 15.5604 18.5462 15.7353C16.6671 17.1677 14.3789 17.9613 12.0163 17.9999L12 18C8.10049 18 5.10448 15.7736 3.14546 13.684C2.15683 12.6294 1.40207 11.5787 0.894336 10.7926C0.63985 10.3985 0.445792 10.0684 0.313971 9.83404C0.248023 9.71679 0.19754 9.62333 0.162753 9.55759C0.145357 9.52471 0.131875 9.49875 0.122338 9.4802L0.11099 9.45798L0.107539 9.45116L0.10637 9.44883C0.10637 9.44883 0.105573 9.44724 1 9.00002L0.105573 9.44724C-0.0397387 9.15662 -0.0347895 8.81351 0.118844 8.5272C1.43015 6.08345 3.24891 3.94839 5.4531 2.26525ZM2.14257 9.00318C2.25165 9.19157 2.39592 9.43113 2.57441 9.7075C3.03543 10.4213 3.71817 11.3706 4.60454 12.3161C6.39395 14.2248 8.89512 15.9969 11.9918 16C13.5373 15.9734 15.0437 15.5524 16.3714 14.7856L14.0497 12.464C13.891 12.5635 13.7251 12.652 13.5531 12.7286C13.0625 12.9472 12.5328 13.0648 11.9957 13.0742C11.4586 13.0837 10.9252 12.9849 10.4271 12.7837C9.92902 12.5826 9.47657 12.2831 9.09674 11.9033C8.71691 11.5235 8.41747 11.071 8.21629 10.5729C8.01511 10.0749 7.91631 9.54138 7.92579 9.00429C7.93527 8.46721 8.05282 7.93754 8.27145 7.44688C8.34805 7.27494 8.43652 7.10903 8.53604 6.95028L5.9871 4.40134C4.45031 5.7014 3.14935 7.25819 2.14257 9.00318ZM10.0279 8.44213C9.96372 8.63456 9.92907 8.836 9.92548 9.03958C9.92074 9.30812 9.97014 9.57486 10.0707 9.8239C10.1713 10.0729 10.321 10.2992 10.511 10.4891C10.7009 10.679 10.9271 10.8287 11.1761 10.9293C11.4252 11.0299 11.6919 11.0793 11.9604 11.0745C12.164 11.071 12.3655 11.0363 12.5579 10.9721L10.0279 8.44213Z" fill="#494949"/>
</svg>
