<svg width="40" height="40" viewBox="0 0 40 40" fill="none" xmlns="http://www.w3.org/2000/svg">
<path fill-rule="evenodd" clip-rule="evenodd" d="M13 9.00005V9C13 8.44772 13.4477 8 14 8L26 8C26.5523 8 27 8.44772 27 9V9.09965C27 9.65194 26.5523 10.0997 26 10.0997L22.8973 10.0997C23.8693 11.087 24.5396 12.3588 24.7638 13.7741H26C26.5523 13.7741 27 14.2218 27 14.7741V14.8738C27 15.4261 26.5523 15.8738 26 15.8738H24.7638C24.2458 19.1441 21.3459 21.6478 17.8462 21.6478H16.046L24.8509 30.2311C25.2464 30.6167 25.2464 31.2417 24.8509 31.6272L24.76 31.7158C24.3646 32.1013 23.7234 32.1013 23.3279 31.7158L13 21.6478V21.6478V20.5481C13 19.9959 13.4477 19.5481 14 19.5481H17.8462C20.1525 19.5481 22.0825 17.9776 22.5722 15.8738L14 15.8738C13.4477 15.8738 13 15.4261 13 14.8738V14.7741C13 14.2218 13.4477 13.7741 14 13.7741L22.5722 13.7741C22.0825 11.6703 20.1525 10.0997 17.8462 10.0997H14C13.4477 10.0997 13 9.65199 13 9.0997V9.09965V9.00005Z" fill="#8CAEC5"/>
</svg>
