<svg width="22" height="21" viewBox="0 0 22 21" fill="none" xmlns="http://www.w3.org/2000/svg">
<path fill-rule="evenodd" clip-rule="evenodd" d="M15.9498 1.70711C16.3403 1.31658 16.3403 0.683418 15.9498 0.292893C15.5593 -0.0976311 14.9261 -0.0976311 14.5356 0.292893L10.3023 4.52624C10.1158 4.70789 10 4.96172 10 5.24259C10 5.40092 10.0368 5.55065 10.1023 5.6837C10.1395 5.75939 10.1868 5.83135 10.2443 5.89756C10.2613 5.91714 10.279 5.93606 10.2975 5.95427L14.5356 10.1924C14.9261 10.5829 15.5593 10.5829 15.9498 10.1924C16.3403 9.80186 16.3403 9.1687 15.9498 8.77817L13.4142 6.24259H20.8995C21.4518 6.24259 21.8995 5.79488 21.8995 5.24259C21.8995 4.69031 21.4518 4.24259 20.8995 4.24259H13.4143L15.9498 1.70711ZM5.94967 10.2929C6.3402 9.90237 6.97336 9.90237 7.36389 10.2929L11.5972 14.5262C11.7837 14.7079 11.8995 14.9617 11.8995 15.2426C11.8995 15.4009 11.8627 15.5506 11.7972 15.6837C11.76 15.7594 11.7127 15.8314 11.6552 15.8976C11.6382 15.9172 11.6204 15.9361 11.602 15.9543L7.36389 20.1924C6.97336 20.5829 6.3402 20.5829 5.94967 20.1924C5.55915 19.8019 5.55915 19.1687 5.94967 18.7782L8.48525 16.2426H1C0.447715 16.2426 0 15.7949 0 15.2426C0 14.6903 0.447716 14.2426 1 14.2426H8.48516L5.94967 11.7071C5.55915 11.3166 5.55915 10.6834 5.94967 10.2929Z" fill="white"/>
</svg>
