<svg width="18" height="16" viewBox="0 0 18 16" fill="none" xmlns="http://www.w3.org/2000/svg">
<path fill-rule="evenodd" clip-rule="evenodd" d="M18 14.8571C18 15.4883 17.5971 16 17.1 16H0.9C0.402945 16 0 15.4883 0 14.8571C0 14.226 0.402945 13.7143 0.9 13.7143L17.1 13.7143C17.5971 13.7143 18 14.226 18 14.8571ZM15 8C15 8.63118 14.5971 9.14286 14.1 9.14286H3.9C3.40294 9.14286 3 8.63118 3 8C3 7.36882 3.40294 6.85714 3.9 6.85714L14.1 6.85714C14.5971 6.85714 15 7.36882 15 8ZM11.1 2.28571C11.5971 2.28571 12 1.77404 12 1.14286C12 0.511674 11.5971 0 11.1 0H6.9C6.40294 0 6 0.511674 6 1.14286C6 1.77404 6.40294 2.28571 6.9 2.28571H11.1Z" fill="white"/>
</svg>
