<svg width="22" height="22" viewBox="0 0 22 22" fill="none" xmlns="http://www.w3.org/2000/svg">
<path fill-rule="evenodd" clip-rule="evenodd" d="M21.5855 11.0935C21.5855 11.4096 21.4389 11.6914 21.21 11.8746C21.1458 11.926 21.0751 11.9696 20.9994 12.0041L1.92746 21.1869C1.55804 21.3648 1.11746 21.2991 0.815955 21.0212C0.514449 20.7434 0.413115 20.3096 0.560303 19.9269L3.95777 11.0935L0.560303 2.2601C0.413114 1.87741 0.514448 1.44365 0.815954 1.16578C1.11746 0.887912 1.55804 0.822249 1.92746 1.00012L20.9994 10.1829C21.0755 10.2175 21.1464 10.2614 21.2109 10.3131C21.2583 10.3511 21.302 10.3932 21.3414 10.4387C21.4935 10.6142 21.5855 10.8431 21.5855 11.0935ZM16.2035 10.0935L3.33246 3.89635L5.71598 10.0935H16.2035ZM5.71598 12.0935H16.2035L3.33246 18.2907L5.71598 12.0935Z" fill="#8CAEC5"/>
</svg>
