<svg width="16" height="12" viewBox="0 0 16 12" fill="none" xmlns="http://www.w3.org/2000/svg">
<path fill-rule="evenodd" clip-rule="evenodd" d="M12.8552 2.52063L11.695 1.25625C11.4382 0.978891 11.0913 0.823279 10.7297 0.823282H5.20146C4.84071 0.823282 4.49215 0.980001 4.23621 1.25625L3.07596 2.52063H0.83781C0.485395 2.52063 0.199707 2.80631 0.199707 3.15873C0.199707 3.51171 0.486279 3.79763 0.839259 3.79683L2.53971 3.79297H3.56102L5.06496 2.15672C5.08933 2.14609 5.11195 2.1361 5.13449 2.12614C5.15702 2.11619 5.17954 2.10624 5.20389 2.09563H6.58596L5.64264 3.03859C4.92602 3.75313 4.88458 4.95906 5.53539 5.72938C5.89614 6.15969 7.02714 6.82375 8.00946 5.84625L8.20933 5.64703L10.8467 7.97922C10.9296 8.05359 10.9418 8.18906 10.876 8.27938L10.2398 9.13469C10.1715 9.225 10.0496 9.24094 9.96433 9.16656L9.38177 8.65125L8.65052 9.62078C8.50427 9.81469 8.28489 9.74828 8.21177 9.68453L7.31477 8.84781L6.93452 9.35781C6.59571 9.81203 5.97902 9.88109 5.58658 9.53312L3.21489 7.19563H2.53971H0.837207C0.485126 7.19563 0.199707 7.48104 0.199707 7.83313C0.199707 8.18521 0.485125 8.47062 0.837207 8.47062H0.875945C0.777029 8.35463 0.717168 8.20326 0.717168 8.03766C0.717168 7.67254 1.00818 7.37655 1.36717 7.37655C1.72615 7.37655 2.01717 7.67254 2.01717 8.03766C2.01717 8.20325 1.95731 8.35463 1.85839 8.47062H2.53727H2.75908L4.82121 10.5C5.57439 11.1667 6.62008 11.1827 7.39521 10.6009C7.69989 10.8878 8.02896 11.0233 8.39702 11.0233C8.84064 11.0233 9.25746 10.8267 9.58652 10.3858C10.1252 10.6169 10.7614 10.4548 11.1465 9.93953L11.7851 9.08156C11.9216 8.89828 12.007 8.68844 12.0508 8.47062H13.4621H14.1385C14.0396 8.35463 13.9797 8.20325 13.9797 8.03766C13.9797 7.67254 14.2707 7.37655 14.6297 7.37655C14.9887 7.37655 15.2797 7.67254 15.2797 8.03766C15.2797 8.20325 15.2198 8.35463 15.1209 8.47062H15.1622C15.5143 8.47062 15.7997 8.18521 15.7997 7.83313C15.7997 7.48104 15.5143 7.19563 15.1622 7.19563H13.4597H11.773C11.7169 7.12125 11.6535 7.05219 11.5853 6.99109L9.08196 4.77578L9.38664 4.47297C9.54508 4.31359 9.55727 4.04531 9.41102 3.87266L9.14533 3.56188C8.99908 3.38922 8.75289 3.37859 8.59446 3.53531L7.24896 4.87938C7.0174 5.11047 6.62252 5.12906 6.40558 4.87938C6.17889 4.61641 6.19839 4.21266 6.43483 3.97891L8.03383 2.3825C8.21421 2.20188 8.44821 2.10359 8.69196 2.10359L10.7321 2.09828C10.7833 2.09828 10.8321 2.11953 10.8662 2.15938L12.3701 3.79563H13.4597H15.1622C15.5143 3.79563 15.7997 3.51021 15.7997 3.15813C15.7997 2.80604 15.5143 2.52063 15.1622 2.52063H12.8552Z" fill="#48CEF3"/>
<path fill-rule="evenodd" clip-rule="evenodd" d="M0.875945 8.47062H1.85839C1.95731 8.35463 2.01717 8.20325 2.01717 8.03766C2.01717 7.67254 1.72615 7.37655 1.36717 7.37655C1.00818 7.37655 0.717168 7.67254 0.717168 8.03766C0.717168 8.20326 0.777029 8.35463 0.875945 8.47062Z" fill="#48CEF3"/>
<path fill-rule="evenodd" clip-rule="evenodd" d="M15.2797 8.03766C15.2797 8.20325 15.2198 8.35463 15.1209 8.47062H14.1385C14.0396 8.35463 13.9797 8.20325 13.9797 8.03766C13.9797 7.67254 14.2707 7.37655 14.6297 7.37655C14.9887 7.37655 15.2797 7.67254 15.2797 8.03766Z" fill="#48CEF3"/>
</svg>
