<svg width="40" height="40" viewBox="0 0 40 40" fill="none" xmlns="http://www.w3.org/2000/svg">
<path fill-rule="evenodd" clip-rule="evenodd" d="M14.4444 15.5556V19.4445L10 22.7778V28.8889L14.4444 28.8889C14.4444 30.1162 15.4394 31.1112 16.6667 31.1112H18.8889V32.2223H21.1111V31.1112H23.3333C24.5606 31.1112 25.5556 30.1162 25.5556 28.8889V28.8889H30V22.7778L25.5556 19.4444V15.5556C25.5556 12.0489 23.4294 7.77783 20 7.77783C16.5706 7.77783 14.4444 12.0489 14.4444 15.5556ZM21.1111 28.8889H23.3333V17.7778L23.3334 17.7779V15.5556C23.3334 13.1192 21.7807 10 20.0001 10C18.2195 10 16.6668 13.1192 16.6668 15.5556V28.8889H18.8889V22.2223H21.1111V28.8889ZM12.2222 23.8889L14.4444 22.2222V26.6667H12.2222V23.8889ZM25.5556 26.6667V22.2222L27.7778 23.8889V26.6667H25.5556ZM20 18.8889C18.7727 18.8889 17.7778 17.894 17.7778 16.6667C17.7778 15.4394 18.7727 14.4445 20 14.4445C21.2273 14.4445 22.2222 15.4394 22.2222 16.6667C22.2222 17.894 21.2273 18.8889 20 18.8889Z" fill="white"/>
</svg>
