<svg width="107" height="64" viewBox="0 0 107 64" fill="none" xmlns="http://www.w3.org/2000/svg">
<path d="M107 0L0.5 64H53L107 33V0Z" fill="#FA2525"/>
<path d="M49.3024 54.0606L45.382 51.8705L44.3368 52.4958L46.3348 55.8358L44.9652 56.6551L39.9701 48.3052L42.8536 46.5802C43.4943 46.1969 44.102 45.9856 44.6767 45.9464C45.2594 45.9023 45.7715 46.0038 46.213 46.2509C46.6624 46.4932 47.0261 46.8466 47.304 47.3112C47.6298 47.8558 47.7667 48.4483 47.7146 49.0885C47.6658 49.7159 47.3609 50.3061 46.7999 50.8592L50.9363 53.0831L49.3024 54.0606ZM43.6828 51.4025L45.1966 50.4969C45.7092 50.1903 46.017 49.8321 46.12 49.4225C46.2309 49.0081 46.1571 48.5846 45.8983 48.1521C45.6396 47.7196 45.3102 47.4598 44.9102 47.3729C44.5053 47.2779 44.0426 47.3861 43.522 47.6976L42.0082 48.6032L43.6828 51.4025ZM56.5465 45.0124C56.695 45.2607 56.8131 45.4945 56.9009 45.7139L51.8428 48.7397C52.1991 49.2444 52.6493 49.5515 53.1934 49.6611C53.7374 49.7706 54.2658 49.6721 54.7784 49.3654C55.5153 48.9246 55.8514 48.3048 55.7869 47.506L57.2646 46.622C57.4285 47.3505 57.3636 48.0691 57.0697 48.7778C56.7791 49.4737 56.2453 50.0541 55.4684 50.5188C54.8356 50.8973 54.1831 51.0974 53.5108 51.1189C52.8417 51.1276 52.2097 50.9619 51.6147 50.6218C51.0229 50.2689 50.5234 49.752 50.1161 49.0712C49.7088 48.3904 49.488 47.7122 49.4537 47.0367C49.4226 46.3484 49.5715 45.7155 49.9004 45.1381C50.2373 44.5559 50.7301 44.0708 51.3789 43.6826C52.0036 43.3089 52.6418 43.1121 53.2932 43.0921C53.9447 43.0722 54.5552 43.229 55.1246 43.5627C55.6892 43.8884 56.1631 44.3716 56.5465 45.0124ZM54.858 45.4351C54.5481 44.9353 54.126 44.6387 53.5915 44.5451C53.057 44.4516 52.5294 44.5605 52.0088 44.872C51.5362 45.1547 51.2228 45.5488 51.0684 46.0544C50.9093 46.552 50.951 47.0763 51.1936 47.6272L54.858 45.4351ZM56.1835 39.7644C55.9352 39.9129 55.6766 39.9534 55.4078 39.8858C55.139 39.8183 54.9303 39.6603 54.7817 39.412C54.6332 39.1637 54.5927 38.9052 54.6603 38.6363C54.7279 38.3675 54.8858 38.1588 55.1341 38.0103C55.3744 37.8666 55.629 37.8285 55.8978 37.8961C56.1666 37.9637 56.3753 38.1216 56.5238 38.3699C56.6724 38.6182 56.7128 38.8767 56.6453 39.1456C56.5777 39.4144 56.4237 39.6207 56.1835 39.7644ZM62.1172 48.1564C62.5054 48.8052 62.6215 49.372 62.4656 49.8568C62.3225 50.3448 61.9425 50.7733 61.3258 51.1422L60.6169 51.5663L59.927 50.4129L60.3955 50.1326C60.6759 49.9649 60.8386 49.7914 60.8836 49.6122C60.9415 49.4362 60.8961 49.2241 60.7476 48.9758L56.0113 41.0583L57.3809 40.239L62.1172 48.1564ZM67.1294 38.6815C67.278 38.9298 67.3961 39.1637 67.4838 39.3831L62.4258 42.4089C62.7821 42.9135 63.2323 43.2207 63.7763 43.3302C64.3204 43.4398 64.8488 43.3412 65.3614 43.0346C66.0983 42.5938 66.4344 41.974 66.3698 41.1751L67.8476 40.2911C68.0115 41.0196 67.9465 41.7383 67.6527 42.447C67.362 43.1429 66.8283 43.7232 66.0513 44.188C65.4186 44.5665 64.766 44.7665 64.0937 44.788C63.4247 44.7968 62.7926 44.6311 62.1976 44.2909C61.6058 43.938 61.1063 43.4211 60.6991 42.7403C60.2918 42.0595 60.071 41.3813 60.0367 40.7058C60.0055 40.0175 60.1544 39.3846 60.4833 38.8072C60.8202 38.225 61.3131 37.7399 61.9619 37.3518C62.5866 36.9781 63.2247 36.7812 63.8762 36.7613C64.5277 36.7413 65.1381 36.8982 65.7075 37.2319C66.2721 37.5575 66.7461 38.0408 67.1294 38.6815ZM65.441 39.1043C65.1311 38.6045 64.7089 38.3078 64.1744 38.2142C63.6399 38.1207 63.1124 38.2297 62.5917 38.5411C62.1192 38.8238 61.8057 39.2179 61.6514 39.7235C61.4923 40.2211 61.534 40.7454 61.7766 41.2964L65.441 39.1043ZM68.1142 38.3045C67.7069 37.6237 67.4861 36.9455 67.4518 36.27C67.4207 35.5817 67.5656 34.9512 67.8864 34.3786C68.2073 33.806 68.6841 33.3304 69.3169 32.9519C70.1179 32.4728 70.8936 32.2697 71.6443 32.3427C72.3981 32.4029 73.0779 32.7304 73.6838 33.325L72.206 34.209C71.8894 33.9525 71.5439 33.8112 71.1694 33.7851C70.7948 33.759 70.4073 33.8657 70.0069 34.1053C69.4462 34.4407 69.1174 34.9092 69.0206 35.511C68.927 36.0999 69.0934 36.7508 69.5198 37.4636C69.9463 38.1765 70.4435 38.6349 71.0114 38.8389C71.5874 39.0382 72.1557 38.9701 72.7164 38.6347C73.5094 38.1604 73.8256 37.4981 73.665 36.6479L75.1428 35.7639C75.353 36.5517 75.3136 37.304 75.0246 38.0207C74.7307 38.7294 74.1913 39.3185 73.4064 39.7881C72.7736 40.1666 72.1291 40.3618 71.4728 40.3738C70.8117 40.3777 70.1877 40.2072 69.6007 39.8623C69.017 39.5046 68.5214 38.9853 68.1142 38.3045ZM76.0645 30.5794L78.2566 34.2438C78.4051 34.4921 78.569 34.6388 78.7482 34.6838C78.9306 34.7161 79.162 34.6484 79.4423 34.4807L80.2833 33.9776L80.9661 35.1189L79.8848 35.7658C79.2681 36.1347 78.7093 36.2732 78.2084 36.1813C77.7075 36.0894 77.263 35.7191 76.8749 35.0703L74.6828 31.4059L73.9019 31.8731L73.2335 30.7558L74.0144 30.2886L73.0298 28.6426L74.4114 27.8161L75.3961 29.4621L77.006 28.499L77.6744 29.6163L76.0645 30.5794ZM86.2187 27.2621C86.3672 27.5104 86.4853 27.7443 86.5731 27.9637L81.515 30.9895C81.8713 31.4941 82.3215 31.8012 82.8656 31.9108C83.4096 32.0204 83.938 31.9218 84.4506 31.6152C85.1875 31.1744 85.5236 30.5545 85.4591 29.7557L86.9368 28.8717C87.1007 29.6002 87.0358 30.3188 86.7419 31.0275C86.4513 31.7234 85.9175 32.3038 85.1406 32.7685C84.5078 33.1471 83.8553 33.3471 83.183 33.3686C82.5139 33.3773 81.8819 33.2116 81.2869 32.8715C80.6951 32.5186 80.1956 32.0017 79.7883 31.3209C79.381 30.6401 79.1602 29.9619 79.1259 29.2864C79.0948 28.5981 79.2437 27.9652 79.5726 27.3878C79.9095 26.8056 80.4023 26.3205 81.0511 25.9324C81.6758 25.5586 82.314 25.3618 82.9654 25.3418C83.6169 25.3219 84.2274 25.4788 84.7968 25.8125C85.3614 26.1381 85.8353 26.6213 86.2187 27.2621ZM84.5302 27.6849C84.2203 27.1851 83.7982 26.8884 83.2637 26.7948C82.7292 26.7013 82.2016 26.8102 81.681 27.1217C81.2084 27.4044 80.895 27.7985 80.7406 28.3041C80.5815 28.8017 80.6232 29.326 80.8658 29.8769L84.5302 27.6849ZM87.189 26.8611C86.7913 26.1963 86.5753 25.5261 86.541 24.8506C86.5147 24.1703 86.654 23.5486 86.9588 22.9856C87.2669 22.4098 87.7133 21.947 88.298 21.5972C88.7305 21.3384 89.2125 21.1806 89.744 21.1237C90.2787 21.054 90.7637 21.101 91.1988 21.2649L89.287 18.069L90.6687 17.2425L95.9872 26.1331L94.6055 26.9597L94.009 25.9625C93.9764 26.417 93.8221 26.8682 93.5462 27.316C93.2783 27.7591 92.8881 28.1339 92.3755 28.4405C91.7988 28.7855 91.1839 28.9576 90.5308 28.9567C89.881 28.9431 89.2602 28.7598 88.6684 28.4069C88.0798 28.0411 87.5867 27.5259 87.189 26.8611ZM92.6219 23.6437C92.3488 23.1872 92.0155 22.8482 91.622 22.6268C91.2365 22.4006 90.8389 22.2904 90.4292 22.2963C90.0194 22.3021 89.6383 22.4105 89.2859 22.6213C88.9334 22.8321 88.6577 23.1167 88.4588 23.475C88.2551 23.8252 88.1577 24.2261 88.1667 24.6775C88.1789 25.1161 88.3216 25.5636 88.5947 26.0202C88.8678 26.4767 89.1995 26.8221 89.5898 27.0563C89.988 27.2857 90.3944 27.4015 90.809 27.4037C91.2268 27.393 91.6079 27.2847 91.9523 27.0786C92.3047 26.8678 92.5804 26.5833 92.7793 26.225C92.9783 25.8667 93.0693 25.4642 93.0522 25.0176C93.0384 24.5582 92.895 24.1002 92.6219 23.6437Z" fill="white"/>
</svg>
