<svg width="44" height="44" viewBox="0 0 44 44" fill="none" xmlns="http://www.w3.org/2000/svg">
<path fill-rule="evenodd" clip-rule="evenodd" d="M11.9999 14V21.0001L4 27V38H11.9999C11.9999 40.2091 13.7908 42 15.9999 42H20V44.0001H24V42H27.9999C30.2091 42 31.9999 40.2091 31.9999 38H39.9999V27L31.9999 21V14C31.9999 7.68785 28.1728 0 21.9999 0C15.827 0 11.9999 7.68785 11.9999 14ZM24 37.9999H27.9999V18L28.0002 18.0002V13.9999C28.0002 9.61437 25.2052 3.9999 22.0002 3.9999C18.7951 3.9999 16.0002 9.61437 16.0002 13.9999V37.9999H20V26.0001H24V37.9999ZM7.99996 28.9999L12 25.9999V33.9999H7.99996V28.9999ZM32.0001 33.9999V25.9999L36.0001 28.9999V33.9999H32.0001ZM22 20C19.7909 20 18 18.2092 18 16C18 13.7909 19.7909 12 22 12C24.2092 12 26 13.7909 26 16C26 18.2092 24.2092 20 22 20Z" fill="#EE2A7B"/>
</svg>
