<svg width="32" height="32" viewBox="0 0 32 32" fill="none" xmlns="http://www.w3.org/2000/svg">
<path fill-rule="evenodd" clip-rule="evenodd" d="M18.3183 8.07962C19.0959 8.86951 19.6321 9.88692 19.8115 11.0192H20.7605C21.2244 11.0192 21.6004 11.3952 21.6004 11.8591C21.6004 12.3229 21.2244 12.6989 20.7605 12.6989H19.8114C19.397 15.3151 17.0771 17.3181 14.2773 17.3181H12.8372L19.8448 24.1494C20.1812 24.4774 20.1812 25.0091 19.8448 25.3371C19.5083 25.6651 18.9628 25.6651 18.6264 25.3371L10.4004 17.3181V17.3181V16.6384C10.4004 16.0861 10.8481 15.6384 11.4004 15.6384H14.2773C16.1224 15.6384 17.6664 14.382 18.0582 12.6989L11.2403 12.6989C10.7764 12.6989 10.4004 12.3229 10.4004 11.8591C10.4004 11.3952 10.7764 11.0192 11.2403 11.0192L18.0582 11.0192C17.6664 9.33611 16.1224 8.07966 14.2773 8.07966H11.2403C10.7764 8.07966 10.4004 7.70365 10.4004 7.2398V7.23976C10.4004 6.77592 10.7764 6.3999 11.2403 6.3999H20.7605C21.2244 6.3999 21.6004 6.77592 21.6004 7.23976C21.6004 7.70361 21.2244 8.07962 20.7605 8.07962L18.3183 8.07962Z" fill="black" fill-opacity="0.5"/>
</svg>
