<svg width="44" height="44" viewBox="0 0 44 44" fill="none" xmlns="http://www.w3.org/2000/svg">
<path fill-rule="evenodd" clip-rule="evenodd" d="M12 4C7.58172 4 4 7.58172 4 12V32C4 36.4183 7.58172 40 12 40H32C36.4183 40 40 36.4183 40 32V12C40 7.58172 36.4183 4 32 4H12ZM0 12C0 5.37258 5.37258 0 12 0H32C38.6274 0 44 5.37258 44 12V32C44 38.6274 38.6274 44 32 44H12C5.37258 44 0 38.6274 0 32V12ZM22.9666 15.9784C21.7183 15.7933 20.4433 16.0065 19.3231 16.5877C18.2029 17.169 17.2945 18.0886 16.7271 19.2159C16.1597 20.3432 15.9622 21.6207 16.1627 22.8667C16.3632 24.1127 16.9515 25.2637 17.8439 26.1561C18.7363 27.0485 19.8873 27.6368 21.1333 27.8373C22.3793 28.0378 23.6568 27.8403 24.7841 27.2729C25.9114 26.7055 26.831 25.7971 27.4123 24.6769C27.9935 23.5567 28.2067 22.2817 28.0216 21.0334C27.8328 19.76 27.2394 18.5811 26.3292 17.6708C25.4189 16.7606 24.24 16.1672 22.9666 15.9784ZM17.4808 13.0372C19.3478 12.0685 21.4728 11.7131 23.5534 12.0216C25.6757 12.3363 27.6405 13.3253 29.1576 14.8424C30.6747 16.3595 31.6637 18.3243 31.9784 20.4466C32.2869 22.5273 31.9315 24.6522 30.9628 26.5192C29.994 28.3862 28.4612 29.9002 26.5824 30.8458C24.7036 31.7915 22.5745 32.1206 20.4978 31.7865C18.4212 31.4523 16.5028 30.4718 15.0155 28.9845C13.5282 27.4972 12.5477 25.5788 12.2135 23.5022C11.8794 21.4255 12.2085 19.2964 13.1542 17.4176C14.0998 15.5388 15.6138 14.006 17.4808 13.0372Z" fill="white"/>
</svg>
