<svg width="27" height="27" viewBox="0 0 27 27" fill="none" xmlns="http://www.w3.org/2000/svg">
<path fill-rule="evenodd" clip-rule="evenodd" d="M21.5604 2.57288C21.8266 2.46261 22.1119 2.40586 22.4001 2.40586C22.6882 2.40586 22.9735 2.46261 23.2397 2.57288C23.5059 2.68314 23.7478 2.84476 23.9515 3.0485C24.1553 3.25224 24.3169 3.49412 24.4272 3.76032C24.5374 4.02652 24.5942 4.31183 24.5942 4.59997C24.5942 4.88811 24.5374 5.17342 24.4272 5.43962C24.3169 5.70582 24.1553 5.9477 23.9515 6.15144L9.39416 20.7088L8.66592 19.3578C8.33215 18.7386 7.82429 18.2307 7.20508 17.8969L6.42217 17.4749L20.8486 3.0485C21.0523 2.84476 21.2942 2.68314 21.5604 2.57288ZM4.81948 19.2229L3.71034 23.2897L7.60149 22.2285L6.96886 21.0548C6.63509 20.4356 6.12723 19.9278 5.50803 19.594L4.81948 19.2229ZM22.4001 0.00585938C21.7968 0.00585938 21.1994 0.124689 20.642 0.355565C20.0846 0.586441 19.5782 0.924841 19.1515 1.35144L2.95155 17.5514C2.80388 17.6991 2.69731 17.8828 2.64236 18.0842L0.84236 24.6842C0.729054 25.0997 0.847048 25.544 1.15155 25.8485C1.45605 26.153 1.90036 26.271 2.31582 26.1577L8.91582 24.3577C9.11729 24.3027 9.30094 24.1962 9.44861 24.0485L25.6486 7.8485C26.0752 7.4219 26.4136 6.91545 26.6445 6.35806C26.8754 5.80068 26.9942 5.20328 26.9942 4.59997C26.9942 3.99667 26.8754 3.39927 26.6445 2.84188C26.4136 2.2845 26.0752 1.77805 25.6486 1.35144C25.222 0.924841 24.7156 0.586441 24.1582 0.355565C23.6008 0.124689 23.0034 0.00585938 22.4001 0.00585938Z" fill="#494949"/>
</svg>
