<svg width="280" height="212" viewBox="0 0 280 212" fill="none" xmlns="http://www.w3.org/2000/svg">
<g clip-path="url(#clip0)">
<path d="M72.1196 187.02C72.1196 187.02 73.4677 181.344 82.9046 183.236C92.3414 185.128 93.6896 187.02 93.6896 187.02H72.1196Z" fill="#494949"/>
<path d="M25.6094 179.587C25.6094 179.587 26.9575 173.912 36.3943 175.804C45.8312 177.695 47.1793 179.587 47.1793 179.587H25.6094Z" fill="#494949"/>
<path d="M104.474 187.02C104.474 187.02 96.9249 182.425 93.6895 187.02H104.474Z" fill="#494949"/>
<path d="M69.2886 174.047C69.2886 174.047 61.7392 169.452 58.5037 174.047H69.2886Z" fill="#494949"/>
<path d="M26.9378 169.825C29.1854 174.004 33.9557 175.797 33.9557 175.797C33.9557 175.797 35.0818 170.817 32.8342 166.638C30.5866 162.46 25.8163 160.667 25.8163 160.667C25.8163 160.667 24.6902 165.647 26.9378 169.825Z" fill="#494949"/>
<path d="M28.4824 168.451C32.5403 170.898 34.1031 175.759 34.1031 175.759C34.1031 175.759 29.0868 176.652 25.0289 174.205C20.971 171.758 19.4082 166.897 19.4082 166.897C19.4082 166.897 24.4245 166.004 28.4824 168.451Z" fill="#8BC63E"/>
<path d="M251.285 183.641C251.285 183.641 252.633 177.965 262.07 179.857C271.506 181.749 272.855 183.641 272.855 183.641H251.285Z" fill="#494949"/>
<path d="M229.715 187.02C223.158 185.991 216.854 185.116 210.802 184.394L213.133 179.723C212.324 179.452 208.819 182.155 208.819 182.155L211.785 168.642C207.74 169.182 205.853 182.966 205.853 182.966L201.269 178.371L203.526 183.573C185.007 181.623 169.028 181.014 155.596 181.154L157.59 177.155C156.781 176.885 153.276 179.588 153.276 179.588L156.242 166.074C152.198 166.615 150.31 180.398 150.31 180.398L145.727 175.804L148.116 181.313C138.915 181.581 129.734 182.323 120.609 183.534C122.599 177.319 129.549 171.344 129.549 171.344C124.205 173.011 121.425 175.726 119.986 178.243C119.695 165.474 121.654 152.755 125.775 140.669C125.775 140.669 114.99 164.993 116.607 181.209L116.813 184.09C107.43 185.557 102.722 187.02 102.722 187.02H229.715Z" fill="#494949"/>
<path d="M159.343 199.317C159.343 199.317 208.954 192.02 239.691 199.317H159.343Z" fill="#494949"/>
<path d="M86.2749 209.317C86.2749 209.317 135.886 202.02 166.623 209.317H86.2749Z" fill="#494949"/>
<path d="M178.217 212C178.217 212 207.6 204.53 225.805 212H178.217Z" fill="#494949"/>
<path d="M260.287 182.009L259.808 181.761C266.032 169.7 262.704 154.038 258.816 143.023C256.177 135.619 252.81 128.496 248.765 121.759L249.221 121.471C253.287 128.242 256.671 135.401 259.325 142.842C263.248 153.958 266.599 169.777 260.287 182.009Z" fill="#494949"/>
<path d="M264.903 121.568L261.405 140.758L261.936 140.855L265.434 121.665L264.903 121.568Z" fill="#494949"/>
<path d="M241.641 137.917L241.246 138.286L259.311 157.745L259.706 157.377L241.641 137.917Z" fill="#494949"/>
<path d="M274.117 159.293L264.954 171.999L265.391 172.315L274.554 159.61L274.117 159.293Z" fill="#494949"/>
<path d="M266.518 116.48C268.007 116.48 269.214 115.27 269.214 113.777C269.214 112.285 268.007 111.075 266.518 111.075C265.029 111.075 263.822 112.285 263.822 113.777C263.822 115.27 265.029 116.48 266.518 116.48Z" fill="#8BC63E"/>
<path d="M237.129 137.291C238.618 137.291 239.826 136.081 239.826 134.588C239.826 133.095 238.618 131.885 237.129 131.885C235.64 131.885 234.433 133.095 234.433 134.588C234.433 136.081 235.64 137.291 237.129 137.291Z" fill="#494949"/>
<path d="M248.993 139.993C250.482 139.993 251.689 138.783 251.689 137.291C251.689 135.798 250.482 134.588 248.993 134.588C247.504 134.588 246.297 135.798 246.297 137.291C246.297 138.783 247.504 139.993 248.993 139.993Z" fill="#494949"/>
<path d="M243.6 150.534C245.089 150.534 246.297 149.324 246.297 147.831C246.297 146.338 245.089 145.128 243.6 145.128C242.111 145.128 240.904 146.338 240.904 147.831C240.904 149.324 242.111 150.534 243.6 150.534Z" fill="#8BC63E"/>
<path d="M277.303 157.291C278.793 157.291 280 156.081 280 154.588C280 153.095 278.793 151.885 277.303 151.885C275.814 151.885 274.607 153.095 274.607 154.588C274.607 156.081 275.814 157.291 277.303 157.291Z" fill="#494949"/>
<path d="M268.406 160.263C269.895 160.263 271.102 159.053 271.102 157.561C271.102 156.068 269.895 154.858 268.406 154.858C266.917 154.858 265.71 156.068 265.71 157.561C265.71 159.053 266.917 160.263 268.406 160.263Z" fill="#494949"/>
<path d="M274.607 168.912C276.096 168.912 277.303 167.702 277.303 166.21C277.303 164.717 276.096 163.507 274.607 163.507C273.118 163.507 271.911 164.717 271.911 166.21C271.911 167.702 273.118 168.912 274.607 168.912Z" fill="#494949"/>
<path d="M246.297 119.723C247.786 119.723 248.993 118.513 248.993 117.021C248.993 115.528 247.786 114.318 246.297 114.318C244.807 114.318 243.6 115.528 243.6 117.021C243.6 118.513 244.807 119.723 246.297 119.723Z" fill="#494949"/>
<path d="M88.5076 102.694C88.5076 136.102 68.6945 147.767 44.2538 147.767C19.8131 147.767 0 136.102 0 102.694C0 69.2862 44.2538 26.7861 44.2538 26.7861C44.2538 26.7861 88.5076 69.2862 88.5076 102.694Z" fill="#BBE484"/>
<path d="M42.6415 142.656L43.0945 114.697L61.9566 80.1073L43.1657 110.311L43.3692 97.7393L56.3692 72.7139L43.4232 94.4123L43.7899 71.8017L57.71 51.8784L43.8473 68.2463L44.0762 26.7861L42.6375 81.6716L42.7556 79.4076L28.6028 57.6924L42.5288 83.7541L41.2101 109.006L41.1707 108.336L24.855 85.484L41.1214 110.704L40.9564 113.862L40.927 113.909L40.9405 114.169L37.5947 178.236H42.0648L42.6011 145.144L58.8276 119.986L42.6415 142.656Z" fill="#494949"/>
<path d="M234.478 92.7349C234.478 133.548 210.273 147.799 180.414 147.799C150.556 147.799 126.35 133.548 126.35 92.7349C126.35 51.9213 180.414 0 180.414 0C180.414 0 234.478 51.9213 234.478 92.7349Z" fill="#BBE484"/>
<path d="M178.444 141.556L178.998 107.399L202.041 65.1411L179.085 102.04L179.334 86.6817L195.215 56.109L179.4 82.6175L179.847 54.9944L196.853 30.6546L179.918 50.6507L180.197 0L178.439 67.0524L178.584 64.2862L161.294 37.7575L178.307 69.5962L176.696 100.446L176.648 99.6276L156.715 71.71L176.587 102.52L176.386 106.378L176.35 106.436L176.366 106.753L172.279 185.023H177.74L178.395 144.595L198.219 113.86L178.444 141.556Z" fill="#494949"/>
<path d="M136.745 151.517L139.208 159.16C139.208 159.16 136.98 166.333 138.035 174.33C139.091 182.326 138.505 182.561 138.505 182.561C138.505 182.561 127.955 181.953 129.011 185.128C130.067 188.303 140.382 186.442 140.382 186.442C140.382 186.442 142.363 185.907 143.301 180.263C144.24 174.618 146.599 163.746 146.599 163.746L144.38 153.483L136.745 151.517Z" fill="#FBBEBE"/>
<path d="M137.566 135.877C137.566 135.877 133.108 137.523 133.108 141.992C133.108 146.46 134.75 152.575 135.806 152.928C136.862 153.281 143.901 158.102 145.191 154.692C146.481 151.282 137.566 135.877 137.566 135.877Z" fill="#8BC63E"/>
<path d="M174.871 188.794L184.257 188.441L191.413 187.383L189.301 194.438L171.939 194.909L174.871 188.794Z" fill="#FBBEBE"/>
<path d="M188.363 189.735C188.363 189.735 188.245 187.148 187.189 187.266C186.134 187.383 186.838 186.325 187.776 186.09C188.715 185.855 191.413 184.679 191.413 184.679L202.088 185.384C202.088 185.384 209.01 191.499 206.194 194.792C203.379 198.084 196.105 195.145 196.105 195.145L188.245 195.262C188.245 195.262 185.664 191.029 188.363 189.735Z" fill="#2F2E41"/>
<path d="M192.586 180.68L195.988 196.673L203.027 195.262L199.038 175.27L194.815 173.036L192.586 180.68Z" fill="#FBBEBE"/>
<path d="M152.112 178.681C152.112 178.681 132.404 187.618 140.733 196.673C140.733 196.673 140.733 200.906 149.531 200.083C158.33 199.26 175.341 197.731 176.162 198.202C176.983 198.672 179.564 188.912 177.335 188.442C175.106 187.971 172.408 187.383 172.408 187.383C172.408 187.383 174.754 187.03 174.754 185.031C174.754 185.031 181.441 184.561 183.435 180.328C185.429 176.094 187.306 172.919 187.306 172.919L191.882 184.679C191.882 184.679 197.161 174.918 201.15 179.269C201.15 179.269 196.692 151.164 193.29 148.577C189.887 145.99 187.541 145.167 184.374 147.519C181.206 149.871 178.273 155.868 178.273 155.868L152.112 178.681Z" fill="#2F2E41"/>
<path d="M199.155 191.852C198.335 192.472 197.552 193.139 196.809 193.851C195.87 194.791 194.58 194.321 194.463 193.851C194.345 193.38 192.234 194.203 191.999 197.614C191.764 201.024 190.357 204.081 194.111 205.14C197.865 206.198 197.747 209.255 197.747 209.255C200.718 210.684 204.127 210.895 207.25 209.843C212.529 208.08 210.652 206.198 210.652 206.198L203.613 194.556C203.613 194.556 201.736 191.028 199.155 191.852Z" fill="#2F2E41"/>
<path d="M179.681 133.525C179.681 133.525 190.944 137.406 192.117 138.229C193.29 139.052 198.569 142.932 195.988 144.932C193.407 146.931 191.295 148.224 186.251 146.695C181.207 145.167 175.575 140.463 175.575 140.463L179.681 133.525Z" fill="#FBBEBE"/>
<path d="M168.419 128.351C168.419 128.351 172.877 127.527 176.045 129.291C179.212 131.055 181.91 134.583 181.91 134.583C181.91 134.583 178.977 140.815 176.866 141.756C174.754 142.697 170.883 137.993 170.883 137.993L168.419 128.351Z" fill="#8BC63E"/>
<path d="M147.89 124.941C147.89 124.941 148.007 129.527 147.538 129.997C147.068 130.468 153.169 144.344 159.856 138.229C166.542 132.114 161.381 129.644 161.381 129.644C161.381 129.644 158.917 125.058 159.034 124.588C159.152 124.118 148.124 124.588 148.124 124.588L147.89 124.941Z" fill="#FBBEBE"/>
<path opacity="0.1" d="M147.89 124.941C147.89 124.941 148.007 129.527 147.538 129.997C147.068 130.468 153.169 144.344 159.856 138.229C166.542 132.114 161.381 129.644 161.381 129.644C161.381 129.644 158.917 125.058 159.034 124.588C159.152 124.118 148.124 124.588 148.124 124.588L147.89 124.941Z" fill="#121212"/>
<path d="M149.766 133.76C149.766 133.76 154.224 136.818 156.101 136.112C157.978 135.407 160.324 132.349 160.559 132.114C160.793 131.879 172.759 155.986 172.759 155.986C172.759 155.986 171 164.805 166.307 167.392C161.615 169.979 161.673 172.037 161.087 173.801C160.5 175.565 152.933 168.215 152.933 168.215L148.124 147.754V135.289L149.766 133.76Z" fill="#8BC63E"/>
<path d="M147.831 128.292C147.831 128.292 146.364 127.998 144.839 129.292C143.314 130.585 136.158 135.407 136.51 135.877C136.862 136.348 140.03 143.05 140.733 145.755C141.437 148.46 142.493 148.813 142.493 148.813C142.493 148.813 144.957 150.576 144.605 151.87C144.253 153.164 142.728 170.803 144.839 174.683C146.951 178.564 146.599 181.974 146.012 182.915C145.426 183.856 151.644 180.21 151.644 180.21C151.644 180.21 160.911 172.684 161.615 170.45C162.07 168.914 162.385 167.339 162.554 165.746C162.554 165.746 156.571 141.992 154.694 140.699C152.817 139.405 147.831 128.292 147.831 128.292Z" fill="#4B6E82"/>
<path d="M160.719 128.385C160.719 128.385 163.609 126.587 164.196 127.057C164.782 127.528 170.296 127.528 170.413 127.998C170.531 128.469 170.765 139.758 174.754 142.697C178.743 145.637 176.162 151.517 176.162 151.517L179.095 156.221C179.095 156.221 163.14 171.624 164.196 166.334C164.254 166.04 164.196 165.981 164.196 165.981C164.196 165.981 157.978 139.287 158.799 137.876C159.621 136.465 161.113 130.066 160.719 128.385Z" fill="#4B6E82"/>
<path d="M185.312 139.169L169.358 144.696C169.358 144.696 153.52 148.459 155.984 152.81C158.447 157.161 168.888 149.753 168.888 149.753L190.135 147.367C190.135 147.367 198.569 140.228 185.312 139.169Z" fill="#FBBEBE"/>
<path d="M154.224 129.291C159.018 129.291 162.905 125.395 162.905 120.589C162.905 115.783 159.018 111.887 154.224 111.887C149.429 111.887 145.543 115.783 145.543 120.589C145.543 125.395 149.429 129.291 154.224 129.291Z" fill="#FBBEBE"/>
<path d="M147.311 111.941L145.705 111.356C145.705 111.356 149.063 107.99 153.734 108.283L152.42 106.966C152.42 106.966 155.632 105.795 158.552 108.868C160.087 110.484 161.862 112.383 162.969 114.522H164.689L163.971 115.961L166.484 117.399L163.905 117.141C164.149 118.383 164.065 119.668 163.661 120.868L163.077 122.477C163.077 122.477 160.742 117.795 160.742 117.209V118.673C160.742 118.673 159.136 117.356 159.136 116.478L158.26 117.502L157.822 115.892L152.42 117.502L153.296 116.185L149.939 116.624L151.253 115.014C151.253 115.014 147.457 116.917 147.311 118.526C147.165 120.136 145.267 122.185 145.267 122.185L144.391 120.721C144.391 120.721 143.077 114.136 147.311 111.941Z" fill="#2F2E41"/>
</g>
<defs>
<clipPath id="clip0">
<rect width="280" height="212" fill="white"/>
</clipPath>
</defs>
</svg>
