<svg width="313" height="255" viewBox="0 0 313 255" fill="none" xmlns="http://www.w3.org/2000/svg">
<path d="M184.122 249.565C181.611 251.364 178.889 252.848 176.016 253.985C175.263 254.285 174.507 254.565 173.737 254.82H134.468C134.309 254.544 134.154 254.264 133.995 253.985C130.81 248.287 127.921 242.368 127.101 235.932C126.119 228.204 128.874 219.454 135.684 215.657C136.576 215.16 137.522 214.765 138.502 214.479C138.908 214.354 139.321 214.253 139.74 214.166C142.292 213.6 144.95 213.723 147.439 214.523C149.929 215.324 152.16 216.772 153.903 218.719C155.646 220.666 156.839 223.042 157.359 225.603C157.879 228.163 157.706 230.816 156.86 233.288C162.633 227.373 161.555 217.783 159.565 209.767C157.57 201.752 155.154 192.83 159.213 185.629C161.467 181.623 165.434 179.138 169.883 178.135C170.021 178.106 170.159 178.077 170.292 178.052C175.596 176.979 181.11 177.944 185.732 180.754C194.244 186.109 198.613 196.272 200.03 206.221C202.317 222.236 197.258 240.105 184.122 249.565Z" fill="#E9EBEE"/>
<path d="M142.821 219.27C145.965 225.647 146.967 232.867 145.68 239.858C144.709 244.985 142.569 249.818 139.426 253.985C139.213 254.269 138.995 254.549 138.774 254.82H137.223C137.461 254.549 137.695 254.269 137.917 253.985C140.772 250.432 142.841 246.315 143.99 241.906C145.138 237.496 145.34 232.894 144.581 228.401C143.68 223.347 141.597 218.577 138.502 214.479C138.908 214.354 139.321 214.254 139.74 214.166C140.917 215.772 141.948 217.48 142.821 219.27Z" fill="white"/>
<path d="M180.389 223.894C180.053 227.426 179.204 230.89 177.868 234.177C176.636 237.086 174.976 239.795 172.943 242.214C168.791 247.205 163.298 250.96 157.332 253.458C156.897 253.642 156.458 253.817 156.015 253.984C155.246 254.285 154.468 254.561 153.686 254.82H149.451C150.45 254.569 151.445 254.289 152.428 253.984C154.764 253.258 157.043 252.36 159.247 251.299C164.848 248.646 169.712 244.66 173.411 239.691C177.378 234.219 179.13 227.64 179.431 220.953C179.749 213.798 178.817 206.513 177.182 199.55C175.514 192.414 172.977 185.508 169.628 178.987C169.553 178.84 169.537 178.669 169.585 178.51C169.632 178.352 169.739 178.218 169.882 178.135C170.003 178.055 170.15 178.026 170.292 178.052C170.362 178.07 170.427 178.103 170.482 178.149C170.537 178.195 170.58 178.254 170.61 178.319C171.024 179.125 171.429 179.931 171.818 180.746C175.065 187.537 177.456 194.703 178.938 202.082C180.372 209.199 181.141 216.647 180.389 223.894Z" fill="white"/>
<path d="M144.098 249.868L139.109 248.694L141.269 228.91L148.632 230.643L144.098 249.868Z" fill="#FFB8B8"/>
<path d="M144.229 255L128.143 251.213L128.191 251.01C128.384 250.188 128.738 249.413 129.232 248.728C129.725 248.043 130.349 247.462 131.067 247.018C131.786 246.574 132.585 246.276 133.418 246.14C134.252 246.005 135.104 246.034 135.927 246.228L135.927 246.228L145.752 248.541L144.229 255Z" fill="#494949"/>
<path d="M163.538 250.036H158.413L155.975 230.284L163.539 230.284L163.538 250.036Z" fill="#FFB8B8"/>
<path d="M164.845 255L148.318 254.999V254.79C148.318 253.947 148.485 253.111 148.808 252.331C149.131 251.551 149.605 250.843 150.202 250.246C150.8 249.649 151.509 249.176 152.289 248.853C153.07 248.53 153.906 248.364 154.751 248.364H154.751L164.845 248.364L164.845 255Z" fill="#494949"/>
<path d="M176.595 132.3C177.479 133.442 178.178 134.718 178.665 136.08C179.14 137.728 179.394 139.432 179.423 141.147L179.706 145.84C180.075 151.961 180.455 158.146 182.199 164.024C182.994 166.706 184.613 169.167 184.54 171.964C184.471 172.98 184.272 173.983 183.948 174.948C183.546 176.33 183.044 177.83 181.827 178.59C181.233 178.924 180.574 179.131 179.895 179.195C179.056 179.312 178.208 179.349 177.362 179.306C176.844 179.28 176.152 178.994 176.282 178.489C176.348 178.317 176.461 178.166 176.608 178.054C177.214 177.468 177.683 176.752 177.979 175.96C178.276 175.168 178.392 174.32 178.32 173.476C178.096 171.054 176.323 168.862 176.602 166.446C176.775 164.948 177.728 163.428 177.147 162.038C175.835 158.899 175.404 155.441 174.24 152.244L173.099 149.111C172.42 147.247 171.741 145.382 171.15 143.488C169.516 138.244 169.461 139.921 169.223 134.432L176.595 132.3Z" fill="#FBBEBE"/>
<path d="M177.215 133.665L167.677 137.193C167.406 137.293 167.116 137.334 166.827 137.312C166.539 137.291 166.258 137.207 166.005 137.067C165.751 136.928 165.531 136.735 165.359 136.503C165.187 136.27 165.067 136.003 165.007 135.72L162.919 125.807C162.413 124.417 162.479 122.883 163.103 121.541C163.728 120.2 164.859 119.161 166.249 118.651C167.639 118.142 169.174 118.204 170.518 118.824C171.863 119.444 172.906 120.571 173.42 121.958L178.282 130.811C178.421 131.065 178.504 131.345 178.525 131.633C178.546 131.922 178.504 132.211 178.403 132.482C178.301 132.753 178.143 132.999 177.938 133.203C177.733 133.407 177.487 133.565 177.215 133.665V133.665Z" fill="#8BC63E"/>
<path d="M163.198 242.946C163.173 242.946 163.148 242.945 163.123 242.944L155.858 242.654C155.367 242.637 154.902 242.428 154.564 242.072C154.227 241.715 154.042 241.241 154.052 240.75L154.609 200.651C154.612 200.49 154.552 200.334 154.442 200.216C154.332 200.098 154.181 200.026 154.02 200.017C153.858 200.007 153.7 200.06 153.577 200.164C153.454 200.269 153.375 200.417 153.359 200.577L149.144 240.72C149.1 241.128 148.924 241.512 148.642 241.811C148.36 242.11 147.988 242.309 147.582 242.378L147.557 242.382L140.737 241.846C140.468 241.887 140.194 241.869 139.932 241.794C139.671 241.719 139.429 241.588 139.223 241.41C139.018 241.233 138.853 241.013 138.74 240.765C138.628 240.518 138.571 240.249 138.572 239.977L138.98 171.985L172.447 174.102L165.068 241.271C165.016 241.731 164.797 242.155 164.452 242.464C164.108 242.773 163.661 242.944 163.198 242.946Z" fill="#494949"/>
<path d="M157.081 112.631C162.752 112.631 167.349 108.038 167.349 102.372C167.349 96.7064 162.752 92.1133 157.081 92.1133C151.41 92.1133 146.812 96.7064 146.812 102.372C146.812 108.038 151.41 112.631 157.081 112.631Z" fill="#FFB8B8"/>
<path d="M170.784 177.095C170.737 177.095 170.689 177.093 170.642 177.09L139.711 174.829C139.23 174.794 138.781 174.576 138.457 174.22C138.132 173.863 137.957 173.396 137.967 172.915L138.783 134.109C138.728 131.728 139.16 129.361 140.053 127.153C140.946 124.944 142.28 122.941 143.974 121.266C145.669 119.59 147.687 118.278 149.907 117.409C152.126 116.54 154.5 116.133 156.883 116.212C159.265 116.292 161.606 116.856 163.763 117.87C165.92 118.885 167.847 120.329 169.426 122.113C171.005 123.897 172.202 125.984 172.946 128.247C173.69 130.51 173.963 132.901 173.75 135.273C173.209 141.254 172.779 167.381 172.66 175.246C172.653 175.739 172.452 176.208 172.101 176.554C171.75 176.9 171.277 177.094 170.784 177.095Z" fill="#8BC63E"/>
<path d="M115.661 113.893C115.712 114.118 115.746 114.347 115.761 114.578L133.72 124.929L138.086 122.419L142.739 128.505L135.444 133.7C134.854 134.12 134.145 134.337 133.421 134.32C132.698 134.302 131.999 134.051 131.431 133.603L112.912 119.006C112.076 119.315 111.166 119.363 110.303 119.142C108.758 118.748 104.501 116.917 106.999 109.922C105.886 107.145 103.83 107.172 104.501 105.925C104.922 105.141 109.001 107.924 109.001 107.924C110.303 108.923 113.231 110.646 114.334 111.644C114.995 112.242 115.458 113.026 115.661 113.893Z" fill="#FFB8B8"/>
<path d="M133.968 123.895C134.022 123.63 134.133 123.38 134.292 123.162C134.452 122.944 134.656 122.763 134.892 122.631L143.134 118.027C144.229 117.183 145.614 116.808 146.986 116.982C148.358 117.157 149.604 117.868 150.452 118.96C151.3 120.051 151.68 121.434 151.51 122.805C151.339 124.176 150.631 125.423 149.542 126.274L142.971 133.091C142.783 133.286 142.556 133.438 142.304 133.537C142.053 133.635 141.783 133.679 141.513 133.664C141.243 133.649 140.979 133.577 140.74 133.451C140.501 133.325 140.291 133.15 140.126 132.936L134.322 125.42C134.156 125.206 134.039 124.959 133.978 124.696C133.917 124.433 133.914 124.159 133.968 123.895Z" fill="#8BC63E"/>
<path d="M162.387 110.494C160.807 110.482 159.255 110.07 157.877 109.297C156.499 108.524 155.34 107.415 154.507 106.073C154.417 105.931 153.923 105.206 153.35 104.367C151.742 102.007 151.365 101.446 151.333 101.364C150.898 100.242 149.516 99.8087 148.434 99.6427C148.232 99.6117 148.028 99.5844 147.822 99.5567C146.298 99.3527 144.722 99.1418 143.858 97.4682C143.224 96.24 142.188 91.2387 142.984 90.0166C143.982 88.4837 145.898 88.9813 147.751 89.4631C148.937 89.7706 150.163 90.0892 151.14 89.8861C155.375 89.0058 160.175 88.0081 164.414 90.5872C167.787 92.6394 169.816 96.5153 169.709 100.702C169.594 105.199 167.631 108.748 164.459 110.197L163.798 110.389L163.427 110.435C163.082 110.474 162.734 110.494 162.387 110.494Z" fill="#494949"/>
<path d="M248.478 254.174C248.478 254.175 248.478 254.175 248.478 254.175C248.478 254.174 248.478 254.174 248.478 254.174L248.478 254.174ZM65.5217 254.174C65.5223 254.173 65.5223 254.173 65.5216 254.174L65.5217 254.174Z" fill="#121212" stroke="#121212"/>
<path d="M77 81.9418C71.4621 81.9418 66.0486 80.3008 61.444 77.2263C56.8395 74.1518 53.2506 69.7819 51.1314 64.6692C49.0121 59.5565 48.4576 53.9306 49.538 48.503C50.6184 43.0754 53.2852 38.0898 57.201 34.1767C61.1169 30.2636 66.106 27.5987 71.5375 26.5191C76.969 25.4395 82.5988 25.9936 87.7151 28.1113C92.8315 30.2291 97.2045 33.8154 100.281 38.4167C103.358 43.018 105 48.4277 105 53.9617C104.992 61.3799 102.039 68.4919 96.7897 73.7373C91.5405 78.9828 84.4235 81.9334 77 81.9418ZM77 27.3138C71.7258 27.3138 66.5701 28.8767 62.1848 31.8048C57.7995 34.7329 54.3816 38.8947 52.3632 43.764C50.3449 48.6332 49.8168 53.9912 50.8457 59.1604C51.8747 64.3296 54.4144 69.0777 58.1438 72.8045C61.8732 76.5313 66.6248 79.0692 71.7976 80.0974C76.9704 81.1256 82.3322 80.5979 87.2049 78.581C92.0776 76.5641 96.2424 73.1486 99.1725 68.7664C102.103 64.3842 103.667 59.2321 103.667 53.9617C103.659 46.8967 100.847 40.1233 95.8474 35.1276C90.8481 30.1319 84.07 27.3218 77 27.3138Z" fill="#8CAEC5"/>
<path d="M85.3711 52.0328C81.8884 46.929 80.1081 40.8522 80.285 34.673C80.2881 34.5304 80.2419 34.3911 80.1542 34.2788C80.0665 34.1664 79.9426 34.088 79.8037 34.0567V32.9766H73.7978V34.0417H73.7151C73.6342 34.0418 73.5541 34.0579 73.4793 34.089C73.4046 34.1201 73.3367 34.1657 73.2796 34.2231C73.2224 34.2804 73.1771 34.3485 73.1462 34.4235C73.1154 34.4984 73.0995 34.5786 73.0996 34.6597C73.0997 34.6747 73.1002 34.6897 73.1013 34.7046C73.5745 41.3102 71.9768 47.2339 68.3082 52.4758C68.0971 52.7771 67.9893 53.1388 68.0008 53.5066L68.6575 73.8512C68.6733 74.305 68.8635 74.7351 69.1884 75.0519C69.5132 75.3686 69.9477 75.5474 70.401 75.551H83.9853C84.4438 75.5473 84.8828 75.3644 85.2086 75.0413C85.5345 74.7182 85.7215 74.2804 85.7298 73.8212L85.9829 54.0683C85.9904 53.3433 85.777 52.6332 85.3711 52.0328Z" fill="#8BC63E"/>
<path d="M83.2216 58.791H71.3975C71.2225 58.791 71.0496 58.8289 70.8905 58.9021C70.7315 58.9754 70.5902 59.0821 70.4762 59.2152C70.3622 59.3482 70.2783 59.5044 70.2303 59.6729C70.1822 59.8415 70.1711 60.0184 70.1977 60.1917L71.9845 71.8234H82.2444L84.4148 60.2309C84.4476 60.0553 84.4415 59.8746 84.3967 59.7017C84.3519 59.5288 84.2697 59.3678 84.1557 59.2304C84.0418 59.0929 83.8991 58.9823 83.7376 58.9063C83.5762 58.8304 83.4 58.791 83.2216 58.791V58.791Z" fill="#F6F8FC"/>
<path d="M157 55.9604C151.462 55.9604 146.049 54.3194 141.444 51.2449C136.839 48.1704 133.251 43.8005 131.131 38.6878C129.012 33.5751 128.458 27.9492 129.538 22.5215C130.618 17.0939 133.285 12.1083 137.201 8.19522C141.117 4.28212 146.106 1.61727 151.537 0.537644C156.969 -0.541978 162.599 0.0121252 167.715 2.12988C172.831 4.24763 177.204 7.83392 180.281 12.4352C183.358 17.0366 185 22.4462 185 27.9802C184.992 35.3984 182.039 42.5104 176.79 47.7559C171.541 53.0014 164.423 55.952 157 55.9604ZM157 1.3324C151.726 1.3324 146.57 2.89526 142.185 5.82336C137.799 8.75146 134.382 12.9133 132.363 17.7825C130.345 22.6518 129.817 28.0098 130.846 33.1789C131.875 38.3481 134.414 43.0963 138.144 46.8231C141.873 50.5498 146.625 53.0878 151.798 54.116C156.97 55.1442 162.332 54.6165 167.205 52.5996C172.078 50.5827 176.242 47.1671 179.173 42.7849C182.103 38.4027 183.667 33.2506 183.667 27.9802C183.659 20.9152 180.847 14.1419 175.847 9.14616C170.848 4.15046 164.07 1.34037 157 1.3324Z" fill="#8CAEC5"/>
<path d="M166.957 20.4268L166.763 20.4001L167.495 15.077C167.607 14.2599 167.39 13.4316 166.891 12.7744C166.393 12.1171 165.653 11.6848 164.836 11.5725L153.552 10.0221C152.734 9.90983 151.906 10.1267 151.248 10.6251C150.591 11.1235 150.158 11.8625 150.046 12.6796L146.029 41.8832C145.917 42.7003 146.134 43.5286 146.632 44.1858C147.131 44.843 147.87 45.2753 148.688 45.3877L159.972 46.938C160.789 47.0503 161.618 46.8335 162.276 46.3351C162.933 45.8367 163.366 45.0977 163.478 44.2806L166.241 24.1892L166.436 24.2159L166.957 20.4268Z" fill="#8BC63E"/>
<path d="M164.481 13.134L163.076 12.9409C163.119 13.1081 163.12 13.2833 163.079 13.451C163.038 13.6187 162.957 13.7738 162.842 13.9026C162.727 14.0314 162.582 14.13 162.42 14.1896C162.258 14.2493 162.084 14.2682 161.913 14.2446L155.747 13.3975C155.576 13.374 155.413 13.3088 155.273 13.2076C155.133 13.1065 155.02 12.9725 154.944 12.8175C154.868 12.6625 154.832 12.4912 154.838 12.3187C154.844 12.1462 154.892 11.9778 154.978 11.8284L153.666 11.6481C153.378 11.6085 153.084 11.626 152.803 11.6997C152.521 11.7734 152.257 11.9018 152.025 12.0776C151.793 12.2533 151.598 12.473 151.451 12.7241C151.304 12.9752 151.208 13.2528 151.168 13.541L147.343 41.356C147.303 41.6442 147.321 41.9374 147.395 42.2188C147.468 42.5003 147.597 42.7644 147.773 42.9962C147.948 43.228 148.168 43.4229 148.42 43.5698C148.671 43.7167 148.948 43.8127 149.237 43.8523L160.052 45.3382C160.634 45.4182 161.224 45.2637 161.693 44.9087C162.161 44.5537 162.469 44.0273 162.549 43.4453L166.375 15.6302C166.455 15.0482 166.3 14.4582 165.945 13.9901C165.59 13.5219 165.063 13.214 164.481 13.1339L164.481 13.134Z" fill="#F6F8FC"/>
<path d="M236 83.9404C230.462 83.9404 225.049 82.2994 220.444 79.2249C215.839 76.1504 212.251 71.7804 210.131 66.6677C208.012 61.555 207.458 55.9292 208.538 50.5015C209.618 45.0739 212.285 40.0883 216.201 36.1752C220.117 32.2621 225.106 29.5972 230.537 28.5176C235.969 27.438 241.599 27.9921 246.715 30.1099C251.831 32.2276 256.204 35.8139 259.281 40.4152C262.358 45.0165 264 50.4262 264 55.9602C263.992 63.3784 261.039 70.4904 255.79 75.7359C250.541 80.9814 243.423 83.932 236 83.9404ZM236 29.3124C230.726 29.3124 225.57 30.8752 221.185 33.8033C216.799 36.7314 213.382 40.8933 211.363 45.7625C209.345 50.6318 208.817 55.9898 209.846 61.1589C210.875 66.3281 213.414 71.0763 217.144 74.803C220.873 78.5298 225.625 81.0678 230.798 82.096C235.97 83.1242 241.332 82.5965 246.205 80.5795C251.078 78.5626 255.242 75.1471 258.173 70.7649C261.103 66.3827 262.667 61.2306 262.667 55.9602C262.659 48.8952 259.847 42.1219 254.847 37.1261C249.848 32.1304 243.07 29.3204 236 29.3124Z" fill="#8CAEC5"/>
<path d="M216.415 62.7365L217.367 62.9606L253.58 63.1253L253.908 62.3684C254.481 61.0701 254.682 59.6382 254.488 58.2325C254.336 57.1848 253.949 56.1427 253.063 55.6872L251.499 44.9845L231.465 44.8683L223.689 51.085C223.689 51.085 220.032 51.0046 218.036 53.468C217.316 54.3841 216.888 55.4956 216.809 56.6579L216.726 57.9432L216.415 62.7365Z" fill="#8BC63E"/>
<path d="M228.212 61.5847C228.768 63.7048 227.498 65.8739 225.376 66.429C223.254 66.984 221.083 65.7147 220.528 63.5945C219.973 61.4743 221.242 59.3053 223.365 58.7502C225.487 58.1951 227.657 59.4645 228.212 61.5847Z" fill="#121212" stroke="#121212"/>
<path d="M224.965 64.8648C226.222 64.5359 226.975 63.2506 226.646 61.994C226.316 60.7374 225.03 59.9853 223.773 60.3142C222.515 60.6431 221.763 61.9284 222.092 63.185C222.421 64.4416 223.707 65.1937 224.965 64.8648Z" fill="#CCCCCC"/>
<path d="M250.277 61.6848C250.832 63.8049 249.563 65.974 247.44 66.5291C245.318 67.0841 243.148 65.8148 242.593 63.6946C242.037 61.5744 243.307 59.4054 245.429 58.8503C247.551 58.2952 249.722 59.5646 250.277 61.6848Z" fill="#121212" stroke="#121212"/>
<path d="M247.029 64.9654C248.287 64.6365 249.039 63.3512 248.71 62.0946C248.381 60.838 247.095 60.0859 245.837 60.4148C244.58 60.7436 243.827 62.0289 244.156 63.2856C244.486 64.5422 245.772 65.2942 247.029 64.9654Z" fill="#CCCCCC"/>
<path d="M226.772 50.3677L237.589 50.4157L238.909 50.4211L241.139 50.4317L241.14 50.2689L241.149 48.3099L241.159 46.1101L239.676 46.1041L238.356 46.0973L236.017 46.0864L234.696 46.0811L231.996 46.0687L226.772 50.3677Z" fill="#F6F8FC"/>
<path d="M242.898 50.4397L248.615 50.4657L248.621 49.3446L248.629 47.3858L248.635 46.1443L247.798 46.1408L246.478 46.134L242.917 46.1182L242.898 50.4397Z" fill="#F6F8FC"/>
<path d="M218.024 57.1458C217.792 57.3 217.53 57.3993 217.258 57.4388L217.306 56.692C217.306 56.6918 217.306 56.6915 217.306 56.6913C217.369 55.7791 217.666 54.9012 218.165 54.1413C218.395 54.3271 218.579 54.566 218.699 54.8398C218.876 55.2421 218.906 55.6939 218.782 56.1157C218.659 56.5375 218.39 56.9023 218.024 57.1458Z" fill="#121212" stroke="#121212"/>
<path d="M285 149.894C279.462 149.894 274.049 148.253 269.444 145.178C264.839 142.104 261.251 137.734 259.131 132.621C257.012 127.509 256.458 121.883 257.538 116.455C258.618 111.028 261.285 106.042 265.201 102.129C269.117 98.2157 274.106 95.5509 279.537 94.4712C284.969 93.3916 290.599 93.9457 295.715 96.0635C300.831 98.1812 305.204 101.768 308.281 106.369C311.358 110.97 313 116.38 313 121.914C312.992 129.332 310.039 136.444 304.79 141.689C299.541 146.935 292.423 149.886 285 149.894ZM285 95.266C279.726 95.266 274.57 96.8289 270.185 99.757C265.799 102.685 262.382 106.847 260.363 111.716C258.345 116.585 257.817 121.943 258.846 127.113C259.875 132.282 262.414 137.03 266.144 140.757C269.873 144.483 274.625 147.021 279.798 148.05C284.97 149.078 290.332 148.55 295.205 146.533C300.078 144.516 304.242 141.101 307.173 136.719C310.103 132.336 311.667 127.184 311.667 121.914C311.659 114.849 308.847 108.075 303.847 103.08C298.848 98.0841 292.07 95.274 285 95.266Z" fill="#8CAEC5"/>
<path d="M286 122.913C292.075 122.913 297 117.992 297 111.921C297 105.85 292.075 100.929 286 100.929C279.925 100.929 275 105.85 275 111.921C275 117.992 279.925 122.913 286 122.913Z" fill="#8BC63E"/>
<path d="M285.956 127.417L286.484 144.398H285.513L285.956 127.417Z" fill="#121212" stroke="#121212"/>
<mask id="path-35-inside-1" fill="white">
<path d="M286.22 117.124L288 113.919L286.195 117.917L286 117.473L286.22 117.124Z"/>
</mask>
<path d="M286.22 117.124L288 113.919L286.195 117.917L286 117.473L286.22 117.124Z" fill="#121212"/>
<path d="M286.22 117.124L287.066 117.656L287.081 117.633L287.094 117.609L286.22 117.124ZM288 113.919L288.911 114.331L287.126 113.434L288 113.919ZM286.195 117.917L285.279 118.318L286.182 120.375L287.106 118.328L286.195 117.917ZM286 117.473L285.154 116.94L284.871 117.389L285.084 117.874L286 117.473ZM287.094 117.609L288.874 114.405L287.126 113.434L285.346 116.638L287.094 117.609ZM287.089 113.508L285.284 117.505L287.106 118.328L288.911 114.331L287.089 113.508ZM287.111 117.515L286.916 117.071L285.084 117.874L285.279 118.318L287.111 117.515ZM286.846 118.005L287.066 117.656L285.373 116.591L285.154 116.94L286.846 118.005Z" fill="#121212" mask="url(#path-35-inside-1)"/>
<mask id="path-37-inside-2" fill="white">
<path d="M285.671 120.122L283 116.917L285.707 120.915L286 120.471L285.671 120.122Z"/>
</mask>
<path d="M285.671 120.122L283 116.917L285.707 120.915L286 120.471L285.671 120.122Z" fill="#121212"/>
<path d="M285.671 120.122L284.902 120.762L284.922 120.786L284.943 120.808L285.671 120.122ZM283 116.917L283.768 116.277L282.172 117.478L283 116.917ZM285.707 120.915L284.879 121.475L285.718 122.714L286.542 121.465L285.707 120.915ZM286 120.471L286.835 121.021L287.271 120.36L286.727 119.784L286 120.471ZM286.439 119.481L283.768 116.277L282.232 117.558L284.902 120.762L286.439 119.481ZM282.172 117.478L284.879 121.475L286.535 120.354L283.828 116.357L282.172 117.478ZM286.542 121.465L286.835 121.021L285.165 119.92L284.872 120.364L286.542 121.465ZM286.727 119.784L286.398 119.435L284.943 120.808L285.273 121.157L286.727 119.784Z" fill="#121212" mask="url(#path-37-inside-2)"/>
<path d="M28 149.894C22.4621 149.894 17.0486 148.253 12.444 145.178C7.83946 142.104 4.25063 137.734 2.13138 132.621C0.0121263 127.509 -0.542359 121.883 0.538027 116.455C1.61841 111.028 4.28515 106.042 8.20102 102.129C12.1169 98.2157 17.106 95.5509 22.5375 94.4712C27.9689 93.3916 33.5988 93.9457 38.7151 96.0635C43.8315 98.1812 48.2045 101.768 51.2812 106.369C54.3578 110.97 56 116.38 56 121.914C55.9916 129.332 53.0389 136.444 47.7897 141.689C42.5405 146.935 35.4235 149.886 28 149.894ZM28 95.266C22.7258 95.266 17.5701 96.8289 13.1848 99.757C8.79949 102.685 5.38156 106.847 3.36322 111.716C1.34488 116.585 0.816796 121.943 1.84574 127.113C2.87467 132.282 5.41443 137.03 9.14383 140.757C12.8732 144.483 17.6248 147.021 22.7976 148.05C27.9704 149.078 33.3322 148.55 38.2049 146.533C43.0776 144.516 47.2424 141.101 50.1725 136.719C53.1027 132.336 54.6667 127.184 54.6667 121.914C54.6587 114.849 51.8466 108.075 46.8474 103.08C41.8481 98.0841 35.07 95.274 28 95.266Z" fill="#8CAEC5"/>
<path d="M18.0805 105.524L27.1706 101.928L28.2275 119.91C28.2275 119.91 30.1301 125.411 29.4959 127.527C29.4959 127.527 29.9187 131.123 28.8617 131.335C27.8048 131.546 24.8452 131.969 24.6338 131.758C24.4224 131.546 24.4224 130.912 24.4224 130.912C24.4224 130.912 22.3084 132.393 22.097 134.085C22.097 134.085 13.2184 136.835 13.007 134.297C12.7956 131.758 17.4463 129.642 17.4463 129.642L21.0401 124.142L18.0805 105.524Z" fill="#8BC63E"/>
<path d="M30.0805 107.523L39.1705 103.926L40.2275 121.909C40.2275 121.909 42.1301 127.41 41.4959 129.525C41.4959 129.525 41.9187 133.122 40.8617 133.333C39.8047 133.545 36.8452 133.968 36.6338 133.756C36.4224 133.545 36.4224 132.91 36.4224 132.91C36.4224 132.91 34.3084 134.391 34.097 136.084C34.097 136.084 25.2184 138.834 25.007 136.295C24.7956 133.756 29.4463 131.641 29.4463 131.641L33.0401 126.14L30.0805 107.523Z" fill="#8BC63E"/>
</svg>
