<svg width="44" height="44" viewBox="0 0 44 44" fill="none" xmlns="http://www.w3.org/2000/svg">
<path fill-rule="evenodd" clip-rule="evenodd" d="M7.59995 14.8C6.60584 14.8 5.79995 15.6059 5.79995 16.6V34.6C5.79995 35.5941 6.60584 36.4 7.59995 36.4H36.4C37.3941 36.4 38.2 35.5941 38.2 34.6V16.6C38.2 15.6059 37.3941 14.8 36.4 14.8H7.59995ZM2.19995 16.6C2.19995 13.6177 4.61761 11.2 7.59995 11.2H36.4C39.3823 11.2 41.8 13.6177 41.8 16.6V34.6C41.8 37.5824 39.3823 40 36.4 40H7.59995C4.61761 40 2.19995 37.5824 2.19995 34.6V16.6Z" fill="#82A5C2"/>
<path fill-rule="evenodd" clip-rule="evenodd" d="M14.5816 5.58162C15.5943 4.56893 16.9678 4 18.4 4H25.6C27.0322 4 28.4057 4.56893 29.4184 5.58162C30.4311 6.59432 31 7.96783 31 9.4V38.2C31 39.1941 30.1941 40 29.2 40C28.2059 40 27.4 39.1941 27.4 38.2V9.4C27.4 8.92261 27.2104 8.46477 26.8728 8.12721C26.5352 7.78964 26.0774 7.6 25.6 7.6H18.4C17.9226 7.6 17.4648 7.78964 17.1272 8.12721C16.7896 8.46477 16.6 8.92261 16.6 9.4V38.2C16.6 39.1941 15.7941 40 14.8 40C13.8059 40 13 39.1941 13 38.2V9.4C13 7.96783 13.5689 6.59432 14.5816 5.58162Z" fill="#82A5C2"/>
</svg>
