<svg width="27" height="27" viewBox="0 0 27 27" fill="none" xmlns="http://www.w3.org/2000/svg">
<path fill-rule="evenodd" clip-rule="evenodd" d="M21.5604 2.57297C21.8266 2.4627 22.1119 2.40595 22.4 2.40595C22.6882 2.40595 22.9735 2.4627 23.2397 2.57297C23.5059 2.68323 23.7478 2.84485 23.9515 3.04859C24.1552 3.25233 24.3169 3.49421 24.4271 3.76041C24.5374 4.02661 24.5941 4.31192 24.5941 4.60006C24.5941 4.8882 24.5374 5.17352 24.4271 5.43971C24.3169 5.70591 24.1552 5.94779 23.9515 6.15154L9.39411 20.7089L8.66587 19.3579C8.3321 18.7387 7.82424 18.2308 7.20503 17.897L6.42212 17.475L20.8486 3.04859C21.0523 2.84485 21.2942 2.68323 21.5604 2.57297ZM4.81943 19.2229L3.71029 23.2898L7.60144 22.2286L6.96881 21.0549C6.63505 20.4357 6.12718 19.9278 5.50798 19.5941L4.81943 19.2229ZM22.4 0.00595093C21.7967 0.00595093 21.1993 0.124781 20.6419 0.355657C20.0846 0.586532 19.5781 0.924932 19.1515 1.35154L2.9515 17.5515C2.80383 17.6992 2.69726 17.8829 2.64231 18.0843L0.84231 24.6843C0.729005 25.0998 0.846999 25.5441 1.1515 25.8486C1.456 26.1531 1.90031 26.2711 2.31577 26.1578L8.91577 24.3578C9.11724 24.3028 9.30089 24.1963 9.44856 24.0486L25.6486 7.84859C26.0752 7.42199 26.4136 6.91554 26.6444 6.35815C26.8753 5.80077 26.9941 5.20337 26.9941 4.60006C26.9941 3.99676 26.8753 3.39936 26.6444 2.84197C26.4136 2.28459 26.0752 1.77814 25.6486 1.35154C25.222 0.924932 24.7155 0.586532 24.1581 0.355657C23.6007 0.124781 23.0033 0.00595093 22.4 0.00595093Z" fill="#494949"/>
</svg>
