<svg width="223" height="194" viewBox="0 0 223 194" fill="none" xmlns="http://www.w3.org/2000/svg">
<g clip-path="url(#clip0)">
<path d="M147.381 194C181.327 194 208.845 192.618 208.845 190.913C208.845 189.209 181.327 187.827 147.381 187.827C113.435 187.827 85.917 189.209 85.917 190.913C85.917 192.618 113.435 194 147.381 194Z" fill="#E6E6E6"/>
<path d="M77.5015 60.9642C94.347 60.9642 108.003 47.3169 108.003 30.4821C108.003 13.6473 94.347 0 77.5015 0C60.656 0 47 13.6473 47 30.4821C47 47.3169 60.656 60.9642 77.5015 60.9642Z" fill="#E6E6E6"/>
<path d="M77.5014 55.8841C91.5394 55.8841 102.919 44.5113 102.919 30.4823C102.919 16.4533 91.5394 5.08057 77.5014 5.08057C63.4635 5.08057 52.0835 16.4533 52.0835 30.4823C52.0835 44.5113 63.4635 55.8841 77.5014 55.8841Z" fill="#8BC63E"/>
<path d="M75.1443 40.9189L67.7393 31.4043L72.0454 28.0568L75.5517 32.5621L87.3963 20.0669L91.3569 23.8169L75.1443 40.9189Z" fill="white"/>
<path d="M131.55 36.698C129.547 31.8631 129.221 27.3 132.045 23.2467C132.095 21.8847 132.419 20.5467 132.996 19.3119C133.573 18.0772 134.393 16.971 135.406 16.0588C136.42 15.1466 137.606 14.4471 138.895 14.0017C140.184 13.5563 141.549 13.3741 142.91 13.466L144.751 13.5903C146.651 13.7137 148.479 14.3693 150.024 15.4822C151.57 16.595 152.77 18.1201 153.489 19.883C156.922 28.3923 157.03 39.7016 156.173 51.8234H130.993C132.488 46.1544 133.256 40.8339 131.55 36.698Z" fill="#2F2E41"/>
<path d="M99.0321 51.5321L92.3778 48.5449C91.7148 48.2472 91.1235 47.8106 90.6441 47.2646C90.1647 46.7186 89.8084 46.076 89.5992 45.3804C89.3901 44.6847 89.333 43.9522 89.4319 43.2326C89.5308 42.513 89.7834 41.823 90.1725 41.2095C90.6027 40.531 91.1882 39.9644 91.8807 39.5565C92.5732 39.1486 93.3527 38.911 94.1551 38.8634C94.9575 38.8158 95.7597 38.9595 96.4956 39.2826C97.2315 39.6058 97.88 40.0991 98.3876 40.722L101.462 44.4942L115.794 57.1972L125.321 50.8436L129.639 58.1595L114.184 67.4886L99.0321 51.5321Z" fill="#9F616A"/>
<path d="M128.944 60.3113L123.691 50.2652L144.147 41.1592L144.325 43.0808C144.488 44.8491 144.185 46.6292 143.448 48.2447C142.71 49.8602 141.563 51.2551 140.12 52.2909L128.944 60.3113Z" fill="#8BC63E"/>
<path d="M155.454 40.5589L134.59 57.8146L133.391 56.1369L139.146 45.8315L141.784 44.6332C142.416 41.9571 140.803 38.3684 138.667 34.5674L148.739 33.1294C149.225 36.3941 151.439 38.8815 155.454 40.5589Z" fill="#9F616A"/>
<path d="M180.634 159.671L177.157 164.823L149.458 149.125L153.296 130.192L180.634 159.671Z" fill="#2F2E41"/>
<path d="M144.063 184.236L138.427 181.72L136.988 115.813L131.592 79.9832L152.576 76.0288L156.893 85.3756C167.501 99.9155 152.037 144.467 144.063 184.236Z" fill="#2F2E41"/>
<path d="M144.517 183.341L145.673 185.856C145.89 186.329 145.994 186.845 145.976 187.365C145.959 187.885 145.82 188.394 145.57 188.85C145.321 189.307 144.969 189.699 144.542 189.996C144.114 190.292 143.623 190.485 143.108 190.559L127.82 192.741C127.068 192.849 126.303 192.68 125.666 192.267C125.029 191.855 124.563 191.225 124.354 190.495C124.162 189.824 124.2 189.107 124.461 188.459C124.722 187.811 125.192 187.269 125.797 186.918L138.64 180.494L144.517 183.341Z" fill="#2F2E41"/>
<path d="M179.918 158.697L182.681 158.495C183.2 158.457 183.72 158.54 184.201 158.739C184.682 158.937 185.11 159.245 185.451 159.638C185.792 160.031 186.037 160.498 186.165 161.002C186.294 161.506 186.303 162.033 186.191 162.542L182.889 177.618C182.726 178.359 182.301 179.017 181.691 179.469C181.081 179.921 180.328 180.137 179.571 180.077C178.874 180.021 178.216 179.736 177.7 179.264C177.184 178.793 176.84 178.163 176.722 177.475L175.193 163.203L179.918 158.697Z" fill="#2F2E41"/>
<path d="M142.264 37.9229C147.562 37.9229 151.857 33.6309 151.857 28.3365C151.857 23.042 147.562 18.75 142.264 18.75C136.966 18.75 132.671 23.042 132.671 28.3365C132.671 33.6309 136.966 37.9229 142.264 37.9229Z" fill="#9F616A"/>
<path d="M152.096 77.4671L131.232 81.781L130.753 67.8806C127.732 64.6841 134.778 51.8822 137.228 45.8317L140.345 44.8731L135.069 54.4595L153.535 39.3608L157.132 40.3195L158.092 57.8148L152.096 77.4671Z" fill="#8BC63E"/>
<path d="M153.535 85.8554L149.011 91.5739C148.56 92.1437 147.992 92.6099 147.345 92.9411C146.698 93.2723 145.987 93.4606 145.261 93.4933C144.535 93.526 143.81 93.4023 143.136 93.1306C142.462 92.8589 141.854 92.4456 141.354 91.9186C140.801 91.3359 140.394 90.63 140.168 89.8593C139.941 89.0886 139.901 88.2751 140.051 87.4859C140.201 86.6967 140.536 85.9544 141.029 85.3202C141.523 84.6861 142.16 84.1782 142.888 83.8385L147.3 81.7811L163.128 70.9964L159.291 60.2116L167.444 57.8149L172.72 75.0706L153.535 85.8554Z" fill="#9F616A"/>
<path d="M154.374 49.9061H136.995C137.648 46.6232 139.398 43.6449 144.186 41.5094C147.677 34.8414 149.169 28.7932 144.186 24.752C138.495 23.4417 136.29 21.0623 136.995 17.7914L147.182 16.1138C155.561 23.5708 155.656 36.2998 154.374 49.9061Z" fill="#2F2E41"/>
<path d="M169.363 59.0132L158.331 61.6495L154.494 39.6006L156.402 39.8985C158.158 40.1726 159.811 40.9006 161.198 42.0101C162.586 43.1196 163.659 44.5723 164.311 46.224L169.363 59.0132Z" fill="#8BC63E"/>
</g>
<defs>
<clipPath id="clip0">
<rect width="223" height="194" fill="white"/>
</clipPath>
</defs>
</svg>
