<svg width="111" height="90" viewBox="0 0 111 90" fill="none" xmlns="http://www.w3.org/2000/svg">
<g clip-path="url(#clip0)">
<path d="M56.159 90C86.4467 90 111 88.0695 111 85.6882C111 83.3069 86.4467 81.3765 56.159 81.3765C25.8712 81.3765 1.31812 83.3069 1.31812 85.6882C1.31812 88.0695 25.8712 90 56.159 90Z" fill="#3F3D56"/>
<path d="M102.743 77.6779L103.257 81.4714L99.6594 81.8162L100.173 77.1606L102.743 77.6779Z" fill="#A0616A"/>
<path d="M85.7814 25.6055C85.7814 25.6055 86.124 30.261 86.124 30.4334C86.124 30.6058 83.7254 42.5033 83.7254 42.5033C83.7254 42.5033 80.2987 49.0555 83.7254 48.8831C87.152 48.7106 86.124 42.6757 86.124 42.6757L89.722 32.675L88.18 25.6055L85.7814 25.6055Z" fill="#A0616A"/>
<path d="M91.4354 77.6779L90.9214 81.4714L94.5194 81.8162L94.0054 77.1606L91.4354 77.6779Z" fill="#A0616A"/>
<path d="M87.4945 42.1583L86.6379 43.3653C86.6379 43.3653 86.1239 48.538 86.6379 50.2623C87.1519 51.9866 88.1799 59.9182 88.1799 60.4355C88.1799 60.9527 88.3512 61.2976 88.1799 61.47C88.0085 61.6424 87.4945 61.6425 87.8372 61.9873C88.1799 62.3322 88.1799 63.3667 88.1799 63.3667V64.2288L90.4072 76.9884C90.4072 76.9884 89.0365 78.5402 90.0645 78.5402C91.0925 78.5402 94.8619 78.5402 94.6906 76.816L94.3479 76.6436C94.3479 76.6436 93.8339 65.2634 94.0052 64.7461C94.1766 64.2289 94.0052 63.1943 94.0052 63.1943C94.0052 63.1943 93.6626 62.677 94.0052 62.5046C94.3479 62.3322 94.3479 60.9527 94.3479 60.9527L95.8899 50.4347C95.8899 50.4347 97.2606 57.5042 98.1172 58.1939C98.9739 58.8836 98.8026 60.6079 98.8026 60.6079L99.4879 75.7814C99.4879 75.7814 98.8026 77.5057 99.4879 77.8505C100.173 78.1954 103.086 79.4024 103.257 77.6781C103.429 75.9538 104.285 60.9527 104.285 60.263C104.285 59.5733 104.114 59.2285 104.285 58.7112C104.457 58.1939 104.114 58.1939 104.285 58.1939C104.457 58.1939 103.943 57.6766 103.943 57.3318V48.8829C103.943 48.8829 104.114 47.1586 104.285 46.8138C104.457 46.4689 104.114 46.1241 104.285 45.6068C104.457 45.0895 103.943 43.3653 103.943 43.3653L96.2326 41.2961L87.4945 42.1583Z" fill="#2F2E41"/>
<path d="M93.4914 80.7816C93.4914 80.7816 94.3481 79.9194 93.1488 79.9194C92.3788 79.9352 91.6204 80.1114 90.9214 80.4367L90.0648 83.5404C90.0648 83.5404 86.5524 86.3854 90.4931 86.0406C94.4338 85.6957 93.8341 85.9544 93.8341 85.9544C93.8341 85.9544 95.0334 85.6095 95.2048 85.2646C95.3761 84.9198 94.8621 79.9194 94.8621 79.9194C94.8621 79.9194 94.3481 81.2988 93.4914 80.7816Z" fill="#2F2E41"/>
<path d="M100.859 80.7818C100.859 80.7818 100.002 79.9197 101.201 79.9197C101.971 79.9355 102.73 80.1116 103.429 80.437L104.285 83.5406C104.285 83.5406 107.798 86.3857 103.857 86.0408C99.9163 85.696 100.002 85.9546 100.002 85.9546C100.002 85.9546 98.8027 85.6098 98.6313 85.2649C98.46 84.9201 99.488 79.9197 99.488 79.9197C99.488 79.9197 100.002 81.2991 100.859 80.7818Z" fill="#2F2E41"/>
<path d="M89.722 11.9838C92.1823 11.9838 94.1767 9.97661 94.1767 7.50067C94.1767 5.02473 92.1823 3.01758 89.722 3.01758C87.2618 3.01758 85.2673 5.02473 85.2673 7.50067C85.2673 9.97661 87.2618 11.9838 89.722 11.9838Z" fill="#A0616A"/>
<path d="M88.1799 10.7765C88.1799 10.7765 88.8653 14.225 88.8653 14.7423C88.8653 15.2596 91.7779 16.8114 91.7779 16.8114L95.0333 12.6732C95.0333 12.6732 92.9773 9.74195 92.9773 9.05225L88.1799 10.7765Z" fill="#A0616A"/>
<path d="M90.7499 15.2596C90.7499 15.2596 89.2566 14.8596 88.8039 14.1974C88.8039 14.1974 84.0679 18.8805 84.0679 19.7427L87.8372 26.4673C87.8372 26.4673 87.8372 28.8813 88.1799 29.0537C88.5226 29.2261 88.1799 29.0537 88.1799 29.7434C88.1799 30.4331 87.1519 34.9162 87.4945 35.6059C87.8372 36.2956 88.1799 35.7783 87.8372 36.8129C87.4946 37.8474 86.6379 43.3651 86.6379 43.3651C86.6379 43.3651 89.7219 42.3305 94.1766 44.0548C98.6313 45.7791 103.943 43.3651 103.943 43.3651C103.943 43.3651 102.572 40.2614 102.915 39.2269C103.257 38.1923 102.058 36.2956 102.058 36.2956L101.201 20.4324C101.201 20.4324 102.401 13.3629 101.544 13.018L99.8306 12.3283L94.3438 11.6497C94.3438 11.6497 92.9772 15.0871 90.7499 15.2596Z" fill="#D0CDE1"/>
<path d="M85.7813 18.5359L84.068 19.7429C84.068 19.7429 83.2113 22.3293 84.068 23.5363C84.9247 24.7432 85.2673 26.4675 85.2673 26.4675L88.694 26.1227L85.7813 18.5359Z" fill="#D0CDE1"/>
<path d="M86.3209 2.76269L85.5482 2.45137C85.5482 2.45137 87.1639 0.661256 89.4118 0.816921L88.7795 0.116432C88.7795 0.116432 90.325 -0.506211 91.7299 1.12824C92.4685 1.98743 93.323 2.99737 93.8557 4.13505H94.6832L94.3378 4.90039L95.5466 5.66572L94.3059 5.52825C94.4234 6.18899 94.3832 6.86837 94.1885 7.51039L94.2218 8.11531C94.2218 8.11531 92.7836 5.87593 92.7836 5.56461V6.34292C92.7836 6.34292 92.0109 5.64244 92.0109 5.17545L91.5894 5.72028L91.3787 4.86413L88.7795 5.72028L89.201 5.0198L87.5853 5.2533L88.2176 4.39715C88.2176 4.39715 86.3912 5.40896 86.3209 6.2651C86.2507 7.12124 85.3375 8.21088 85.3375 8.21088L84.916 7.43256C84.916 7.43256 84.2837 3.93016 86.3209 2.76269Z" fill="#2F2E41"/>
<path d="M87.3541 37.5234H19.2693V85.6558H87.3541V37.5234Z" fill="#F2F2F2"/>
<path d="M42.096 55.8879H25.0007V85.9209H42.096V55.8879Z" fill="#3F3D56"/>
<path d="M32.7678 57.6897H28.1628V62.0099H32.7678V57.6897Z" fill="#F2F2F2"/>
<path d="M38.9339 57.6897H34.3289V62.0099H38.9339V57.6897Z" fill="#F2F2F2"/>
<path d="M32.7678 63.5808H28.1628V68.0581H32.7678V63.5808Z" fill="#F2F2F2"/>
<path d="M38.9339 63.5808H34.3289V68.0581H38.9339V63.5808Z" fill="#F2F2F2"/>
<path d="M39.9219 74.0204C40.5223 74.0204 41.0089 73.5306 41.0089 72.9264C41.0089 72.3223 40.5223 71.8325 39.9219 71.8325C39.3216 71.8325 38.835 72.3223 38.835 72.9264C38.835 73.5306 39.3216 74.0204 39.9219 74.0204Z" fill="#48CEF3"/>
<path d="M81.6228 53.0366H47.8274V81.5779H81.6228V53.0366Z" fill="#3F3D56"/>
<path d="M94.469 46.5848H12.1545L17.6428 35.037L18.8711 32.4514L20.478 29.0701L21.7062 26.4845L23.1301 23.4893H87.9837L88.8246 26.4845L89.5508 29.0701L90.5006 32.4514L91.2268 35.037L94.469 46.5848Z" fill="#3F3D56"/>
<path d="M50.199 64.8713H49.0132V72.2304H50.199V64.8713Z" fill="#48CEF3"/>
<path d="M50.199 65.9651H49.0132V66.8601H50.199V65.9651Z" fill="#F2F2F2"/>
<path d="M50.199 70.2415H49.0132V71.1365H50.199V70.2415Z" fill="#F2F2F2"/>
<path d="M53.6574 64.8713H50.7917V72.2304H53.6574V64.8713Z" fill="#48CEF3"/>
<path d="M53.6574 65.9651H50.7917V66.8601H53.6574V65.9651Z" fill="#F2F2F2"/>
<path d="M53.6574 70.2415H50.7917V71.1365H53.6574V70.2415Z" fill="#F2F2F2"/>
<path d="M55.5352 64.8713H54.3494V72.2304H55.5352V64.8713Z" fill="#48CEF3"/>
<path d="M55.5352 65.9651H54.3494V66.8601H55.5352V65.9651Z" fill="#F2F2F2"/>
<path d="M55.5352 70.2415H54.3494V71.1365H55.5352V70.2415Z" fill="#F2F2F2"/>
<path d="M57.3137 64.8713H56.1279V72.2304H57.3137V64.8713Z" fill="#48CEF3"/>
<path d="M57.3137 65.9651H56.1279V66.8601H57.3137V65.9651Z" fill="#F2F2F2"/>
<path d="M57.3137 70.2415H56.1279V71.1365H57.3137V70.2415Z" fill="#F2F2F2"/>
<path d="M58.4565 64.8972L57.3469 65.3181L59.9262 72.2042L61.0358 71.7833L58.4565 64.8972Z" fill="#48CEF3"/>
<path d="M58.8401 65.9209L57.7305 66.3418L58.0442 67.1793L59.1538 66.7584L58.8401 65.9209Z" fill="#F2F2F2"/>
<path d="M60.3386 69.9223L59.229 70.3433L59.5427 71.1808L60.6523 70.7598L60.3386 69.9223Z" fill="#F2F2F2"/>
<path d="M80.5356 64.8713H77.6699V72.2304H80.5356V64.8713Z" fill="#48CEF3"/>
<path d="M80.5356 65.9651H77.6699V66.8601H80.5356V65.9651Z" fill="#F2F2F2"/>
<path d="M80.5356 70.2415H77.6699V71.1365H80.5356V70.2415Z" fill="#F2F2F2"/>
<path d="M76.9783 64.8713H75.7925V72.2304H76.9783V64.8713Z" fill="#48CEF3"/>
<path d="M76.9783 65.9651H75.7925V66.8601H76.9783V65.9651Z" fill="#F2F2F2"/>
<path d="M76.9783 70.2415H75.7925V71.1365H76.9783V70.2415Z" fill="#F2F2F2"/>
<path d="M75.1995 64.8713H74.0137V72.2304H75.1995V64.8713Z" fill="#48CEF3"/>
<path d="M75.1995 65.9651H74.0137V66.8601H75.1995V65.9651Z" fill="#F2F2F2"/>
<path d="M75.1995 70.2415H74.0137V71.1365H75.1995V70.2415Z" fill="#F2F2F2"/>
<path d="M72.871 64.8971L70.2917 71.7832L71.4013 72.2041L73.9806 65.318L72.871 64.8971Z" fill="#48CEF3"/>
<path d="M72.4875 65.9208L72.1738 66.7583L73.2834 67.1792L73.5971 66.3417L72.4875 65.9208Z" fill="#F2F2F2"/>
<path d="M70.989 69.9223L70.6753 70.7598L71.7849 71.1807L72.0986 70.3432L70.989 69.9223Z" fill="#F2F2F2"/>
<path d="M81.6228 72.2302H47.8274V72.9264H81.6228V72.2302Z" fill="#F2F2F2"/>
<path d="M68.7765 64.8713H62.551V72.2304H68.7765V64.8713Z" fill="#48CEF3"/>
<path d="M67.2449 66.4622H64.0828V67.8544H67.2449V66.4622Z" fill="#F2F2F2"/>
<path d="M65.0216 53.0366H64.4287V59.4012H65.0216V53.0366Z" fill="#F2F2F2"/>
<path d="M64.725 60.3962C65.2707 60.3962 65.7132 59.9509 65.7132 59.4017C65.7132 58.8525 65.2707 58.4072 64.725 58.4072C64.1792 58.4072 63.7368 58.8525 63.7368 59.4017C63.7368 59.9509 64.1792 60.3962 64.725 60.3962Z" fill="#F2F2F2"/>
<path d="M89.5509 29.0702H20.478L21.7063 26.4846H88.8246L89.5509 29.0702Z" fill="#48CEF3"/>
<path d="M91.2267 35.0368H17.6428L18.8711 32.4512H90.5005L91.2267 35.0368Z" fill="#48CEF3"/>
<path d="M98.4601 20.0876C98.4601 20.0876 97.468 22.6552 97.6752 25.1956C97.7131 25.6504 97.8653 26.0881 98.1175 26.4674L85.9623 32.2749C85.9623 32.2749 80.4701 32.8472 81.8408 35.2612C83.2114 37.6751 88.1801 34.0542 88.1801 34.0542C88.1801 34.0542 101.201 32.1575 102.229 30.2608C103.257 28.3641 103.943 20.4325 103.943 20.4325L98.4601 20.0876Z" fill="#A0616A"/>
<path d="M98.974 13.0183H101.544C101.544 13.0183 103.429 13.3632 103.943 16.8117C104.457 20.2602 104.971 21.1224 104.457 21.1224C103.943 21.1224 97.7747 20.9499 97.7747 20.7775C97.7747 20.6051 98.974 13.0183 98.974 13.0183Z" fill="#D0CDE1"/>
<path d="M13.1829 64.5271C20.4636 64.5271 26.3658 58.5873 26.3658 51.2601C26.3658 43.933 20.4636 37.9932 13.1829 37.9932C5.90218 37.9932 0 43.933 0 51.2601C0 58.5873 5.90218 64.5271 13.1829 64.5271Z" fill="#48CEF3"/>
<path opacity="0.1" d="M13.183 62.6703C19.4444 62.6703 24.5203 57.562 24.5203 51.2607C24.5203 44.9593 19.4444 39.8511 13.183 39.8511C6.92158 39.8511 1.8457 44.9593 1.8457 51.2607C1.8457 57.562 6.92158 62.6703 13.183 62.6703Z" fill="black"/>
<path d="M12.6396 57.993V56.3324C11.8055 56.316 10.9425 56.0199 10.4392 55.6089L10.7843 54.5073C11.3825 54.9584 12.1079 55.206 12.8553 55.2142C13.8764 55.2142 14.5667 54.5401 14.5667 53.603C14.5667 52.6986 14.0058 52.1397 12.9416 51.6464C11.4747 50.9887 10.5686 50.2323 10.5686 48.8019C10.5686 47.4372 11.4171 46.4014 12.7403 46.1548V44.4941H13.6319V46.089C14.2968 46.0982 14.9453 46.2978 15.5015 46.6645L15.142 47.7497C14.6085 47.3822 13.9764 47.1871 13.3299 47.1906C12.2226 47.1906 11.8055 47.9469 11.8055 48.6046C11.8055 49.4596 12.3376 49.8871 13.5888 50.479C15.0701 51.1696 15.818 52.0246 15.818 53.4879C15.818 54.7868 15.0269 56.0035 13.5456 56.2829V57.993H12.6396Z" fill="#F2F2F2"/>
</g>
<defs>
<clipPath id="clip0">
<rect width="111" height="90" fill="white"/>
</clipPath>
</defs>
</svg>
