<svg width="28" height="32" viewBox="0 0 28 32" fill="none" xmlns="http://www.w3.org/2000/svg">
<path fill-rule="evenodd" clip-rule="evenodd" d="M10.2101 3.81015C10.4726 3.5476 10.8287 3.4001 11.2 3.4001H16.8C17.1713 3.4001 17.5274 3.5476 17.7899 3.81015C18.0525 4.0727 18.2 4.4288 18.2 4.8001V6.2001H9.8V4.8001C9.8 4.4288 9.9475 4.0727 10.2101 3.81015ZM7 6.2001V4.8001C7 3.68619 7.4425 2.6179 8.23015 1.83025C9.0178 1.0426 10.0861 0.600098 11.2 0.600098H16.8C17.9139 0.600098 18.9822 1.0426 19.7698 1.83025C20.5575 2.6179 21 3.68619 21 4.8001V6.2001H23.8H26.6C27.3732 6.2001 28 6.8269 28 7.6001C28 8.3733 27.3732 9.0001 26.6 9.0001H25.2V27.2001C25.2 28.314 24.7575 29.3823 23.9698 30.1699C23.1822 30.9576 22.1139 31.4001 21 31.4001H7C5.88609 31.4001 4.8178 30.9576 4.03015 30.1699C3.2425 29.3823 2.8 28.314 2.8 27.2001V9.0001H1.4C0.626801 9.0001 0 8.3733 0 7.6001C0 6.8269 0.626801 6.2001 1.4 6.2001H4.2H7ZM5.6 9.0001V27.2001C5.6 27.5714 5.7475 27.9275 6.01005 28.19C6.2726 28.4526 6.6287 28.6001 7 28.6001H21C21.3713 28.6001 21.7274 28.4526 21.9899 28.19C22.2525 27.9275 22.4 27.5714 22.4 27.2001V9.0001H19.6H8.4H5.6Z" fill="#FC2323"/>
</svg>
