<svg width="28" height="28" viewBox="0 0 28 28" fill="none" xmlns="http://www.w3.org/2000/svg">
<path fill-rule="evenodd" clip-rule="evenodd" d="M23.0456 2.9472C23.3118 2.68103 23.6728 2.5315 24.0492 2.5315C24.4256 2.5315 24.7866 2.68103 25.0528 2.9472C25.319 3.21337 25.4685 3.57438 25.4685 3.9508C25.4685 4.32723 25.319 4.68823 25.0528 4.9544L13.2761 16.7311L10.5998 17.4002L11.2689 14.7239L23.0456 2.9472ZM24.0492 0C23.0014 0 21.9965 0.416245 21.2556 1.15716L9.23096 13.1818C9.06874 13.344 8.95366 13.5472 8.89802 13.7698L7.63228 18.8328C7.52444 19.2641 7.65083 19.7204 7.96521 20.0348C8.2796 20.3492 8.73588 20.4756 9.16722 20.3677L14.2302 19.102C14.4528 19.0463 14.656 18.9313 14.8182 18.769L26.8428 6.74444C27.5838 6.00352 28 4.99862 28 3.9508C28 2.90298 27.5838 1.89808 26.8428 1.15716C26.1019 0.416245 25.097 0 24.0492 0ZM3.79724 2.68506C2.79015 2.68506 1.82431 3.08512 1.11219 3.79724C0.400065 4.50936 0 5.47521 0 6.4823V24.2028C0 25.2099 0.400065 26.1757 1.11219 26.8878C1.82431 27.5999 2.79015 28 3.79724 28H21.5177C22.5248 28 23.4906 27.5999 24.2028 26.8878C24.9149 26.1757 25.3149 25.2099 25.3149 24.2028V15.3425C25.3149 14.6435 24.7482 14.0768 24.0492 14.0768C23.3501 14.0768 22.7834 14.6435 22.7834 15.3425V24.2028C22.7834 24.5385 22.6501 24.8604 22.4127 25.0978C22.1753 25.3352 21.8534 25.4685 21.5177 25.4685H3.79724C3.46154 25.4685 3.1396 25.3352 2.90222 25.0978C2.66485 24.8604 2.53149 24.5385 2.53149 24.2028V6.4823C2.53149 6.1466 2.66485 5.82465 2.90222 5.58728C3.1396 5.34991 3.46154 5.21655 3.79724 5.21655H12.6575C13.3565 5.21655 13.9232 4.64986 13.9232 3.9508C13.9232 3.25175 13.3565 2.68506 12.6575 2.68506H3.79724Z" fill="#FDD17C"/>
</svg>
