<svg width="22" height="18" viewBox="0 0 22 18" fill="none" xmlns="http://www.w3.org/2000/svg">
<path fill-rule="evenodd" clip-rule="evenodd" d="M2.1067 2.5539C2.272 2.2269 2.6121 2 3.0001 2H19.0001C19.388 2 19.7281 2.2269 19.8935 2.5539L11.0001 8.7793L2.1067 2.5539ZM0.000138941 2.9827C-3.10589e-05 2.9925 -4.16036e-05 3.0024 8.83964e-05 3.0122V15C8.83964e-05 16.6523 1.3478 18 3.0001 18H19.0001C20.6524 18 22.0001 16.6523 22.0001 15V3.0121C22.0002 3.0023 22.0002 2.9926 22 2.9829C21.9908 1.3384 20.6467 0 19.0001 0H3.0001C1.3536 0 0.00952894 1.3383 0.000138941 2.9827ZM20.0001 4.9207V15C20.0001 15.5477 19.5478 16 19.0001 16H3.0001C2.4524 16 2.0001 15.5477 2.0001 15V4.9207L10.4266 10.8192C10.7709 11.0603 11.2292 11.0603 11.5735 10.8192L20.0001 4.9207Z" fill="#8CAEC5"/>
</svg>
