<svg width="44" height="44" viewBox="0 0 44 44" fill="none" xmlns="http://www.w3.org/2000/svg">
<path fill-rule="evenodd" clip-rule="evenodd" d="M7.59995 7.6C7.12256 7.6 6.66472 7.78964 6.32716 8.12721C5.98959 8.46477 5.79995 8.92261 5.79995 9.4V20.2C5.79995 24.4965 7.50673 28.617 10.5448 31.6551C12.0491 33.1594 13.835 34.3527 15.8005 35.1669C17.766 35.981 19.8725 36.4 22 36.4C26.2965 36.4 30.417 34.6932 33.4551 31.6551C36.4932 28.617 38.2 24.4965 38.2 20.2V9.4C38.2 8.92261 38.0103 8.46477 37.6727 8.12721C37.3352 7.78964 36.8773 7.6 36.4 7.6H7.59995ZM7.59995 4H36.4C37.8321 4 39.2056 4.56893 40.2183 5.58162C41.231 6.59432 41.8 7.96783 41.8 9.4V20.2C41.8 25.4513 39.7139 30.4875 36.0007 34.2007C32.2874 37.9139 27.2512 40 22 40C19.3998 40 16.8251 39.4879 14.4228 38.4928C12.0206 37.4978 9.83784 36.0393 7.99924 34.2007C4.28602 30.4875 2.19995 25.4513 2.19995 20.2V9.4C2.19995 7.96783 2.76888 6.59432 3.78157 5.58162C4.79427 4.56893 6.16778 4 7.59995 4Z" fill="#82A5C2"/>
<path fill-rule="evenodd" clip-rule="evenodd" d="M13.5272 17.1272C14.2302 16.4243 15.3698 16.4243 16.0728 17.1272L22 23.0544L27.9272 17.1272C28.6302 16.4243 29.7698 16.4243 30.4728 17.1272C31.1757 17.8301 31.1757 18.9698 30.4728 19.6728L23.2728 26.8728C22.5698 27.5757 21.4302 27.5757 20.7272 26.8728L13.5272 19.6728C12.8243 18.9698 12.8243 17.8301 13.5272 17.1272Z" fill="#82A5C2"/>
</svg>
