<svg width="20" height="22" viewBox="0 0 20 22" fill="none" xmlns="http://www.w3.org/2000/svg">
<path fill-rule="evenodd" clip-rule="evenodd" d="M15.6565 2.58436C14.6151 2.58436 13.7708 3.42165 13.7708 4.45449C13.7708 4.77907 13.8542 5.08433 14.0008 5.35036C14.0105 5.36492 14.0199 5.37982 14.0289 5.39507C14.0378 5.41023 14.0462 5.42552 14.0542 5.44095C14.3869 5.97147 14.9801 6.32462 15.6565 6.32462C16.698 6.32462 17.5422 5.48734 17.5422 4.45449C17.5422 3.42165 16.698 2.58436 15.6565 2.58436ZM12.9769 7.08652C13.6604 7.77086 14.6085 8.19475 15.6565 8.19475C17.7394 8.19475 19.4279 6.52018 19.4279 4.45449C19.4279 2.3888 17.7394 0.714233 15.6565 0.714233C13.5736 0.714233 11.8851 2.3888 11.8851 4.45449C11.8851 4.80701 11.9343 5.14813 12.0262 5.47149L7.02173 8.36784C6.33826 7.68355 5.39015 7.25969 4.34223 7.25969C2.25933 7.25969 0.570801 8.93426 0.570801 10.9999C0.570801 13.0656 2.25933 14.7402 4.34223 14.7402C5.39039 14.7402 6.33869 14.3161 7.0222 13.6316L12.0274 16.5241C11.9347 16.8488 11.8851 17.1913 11.8851 17.5454C11.8851 19.6111 13.5736 21.2857 15.6565 21.2857C17.7394 21.2857 19.4279 19.6111 19.4279 17.5454C19.4279 15.4797 17.7394 13.8051 15.6565 13.8051C14.6102 13.8051 13.6633 14.2277 12.9801 14.9102L7.97272 12.0164C8.06454 11.6932 8.11366 11.3523 8.11366 10.9999C8.11366 10.6474 8.06447 10.3062 7.97254 9.98284L12.9769 7.08652ZM5.94504 10.0142C5.95287 10.0294 5.96115 10.0444 5.9699 10.0592C5.97872 10.0742 5.98789 10.0889 5.99741 10.1032C6.14438 10.3694 6.22794 10.675 6.22794 10.9999C6.22794 11.3246 6.14455 11.6299 5.99784 11.8959C5.98807 11.9106 5.97865 11.9256 5.9696 11.941C5.96082 11.956 5.9525 11.9711 5.94464 11.9863C5.61188 12.5169 5.01865 12.8701 4.34223 12.8701C3.30078 12.8701 2.45651 12.0328 2.45651 10.9999C2.45651 9.9671 3.30078 9.12982 4.34223 9.12982C5.01891 9.12982 5.61235 9.4833 5.94504 10.0142ZM13.7708 17.5454C13.7708 17.2413 13.844 16.9542 13.9738 16.7003C13.9971 16.67 14.0187 16.6379 14.0386 16.6042C14.0576 16.5718 14.0744 16.5388 14.0891 16.5053C14.4275 16.0047 15.0032 15.6753 15.6565 15.6753C16.698 15.6753 17.5422 16.5126 17.5422 17.5454C17.5422 18.5782 16.698 19.4155 15.6565 19.4155C14.6151 19.4155 13.7708 18.5782 13.7708 17.5454Z" fill="white"/>
</svg>
