<svg width="240" height="194" viewBox="0 0 240 194" fill="none" xmlns="http://www.w3.org/2000/svg">
<g clip-path="url(#clip0)">
<path d="M121.425 194C186.912 194 240 189.839 240 184.706C240 179.573 186.912 175.412 121.425 175.412C55.9381 175.412 2.85034 179.573 2.85034 184.706C2.85034 189.839 55.9381 194 121.425 194Z" fill="#3F3D56"/>
<path d="M222.148 167.439L223.259 175.616L215.48 176.36L216.591 166.324L222.148 167.439Z" fill="#A0616A"/>
<path d="M185.473 55.1938C185.473 55.1938 186.214 65.2291 186.214 65.6007C186.214 65.9724 181.027 91.618 181.027 91.618C181.027 91.618 173.618 105.742 181.027 105.37C188.436 104.998 186.214 91.9897 186.214 91.9897L193.993 70.4325L190.659 55.1939L185.473 55.1938Z" fill="#A0616A"/>
<path d="M197.698 167.439L196.587 175.616L204.366 176.36L203.255 166.324L197.698 167.439Z" fill="#A0616A"/>
<path d="M189.178 90.8745L187.325 93.4762C187.325 93.4762 186.214 104.626 187.325 108.343C188.437 112.06 190.66 129.157 190.66 130.272C190.66 131.387 191.03 132.13 190.66 132.502C190.289 132.874 189.178 132.874 189.919 133.617C190.66 134.36 190.66 136.59 190.66 136.59V138.449L195.475 165.953C195.475 165.953 192.512 169.298 194.735 169.298C196.957 169.298 205.107 169.298 204.737 165.581L203.996 165.209C203.996 165.209 202.884 140.679 203.255 139.564C203.625 138.449 203.255 136.219 203.255 136.219C203.255 136.219 202.514 135.104 203.255 134.732C203.996 134.36 203.996 131.387 203.996 131.387L207.33 108.715C207.33 108.715 210.293 123.954 212.146 125.44C213.998 126.927 213.628 130.644 213.628 130.644L215.109 163.351C215.109 163.351 213.628 167.068 215.109 167.811C216.591 168.555 222.889 171.156 223.259 167.439C223.63 163.723 225.482 131.387 225.482 129.9C225.482 128.414 225.112 127.67 225.482 126.555C225.852 125.44 225.112 125.44 225.482 125.44C225.852 125.44 224.741 124.325 224.741 123.582V105.37C224.741 105.37 225.112 101.653 225.482 100.91C225.852 100.166 225.112 99.423 225.482 98.308C225.852 97.193 224.741 93.4762 224.741 93.4762L208.071 89.0161L189.178 90.8745Z" fill="#2F2E41"/>
<path d="M202.144 174.13C202.144 174.13 203.996 172.271 201.403 172.271C199.738 172.306 198.098 172.685 196.587 173.387L194.735 180.077C194.735 180.077 187.14 186.209 195.661 185.466C204.181 184.723 202.885 185.28 202.885 185.28C202.885 185.28 205.478 184.537 205.848 183.793C206.219 183.05 205.107 172.271 205.107 172.271C205.107 172.271 203.996 175.245 202.144 174.13Z" fill="#2F2E41"/>
<path d="M218.073 174.13C218.073 174.13 216.22 172.271 218.814 172.271C220.478 172.305 222.118 172.685 223.629 173.386L225.482 180.076C225.482 180.076 233.076 186.209 224.556 185.466C216.035 184.722 216.22 185.28 216.22 185.28C216.22 185.28 213.627 184.537 213.257 183.793C212.886 183.05 215.109 172.271 215.109 172.271C215.109 172.271 216.22 175.245 218.073 174.13Z" fill="#2F2E41"/>
<path d="M193.994 25.8315C199.313 25.8315 203.625 21.505 203.625 16.1679C203.625 10.8309 199.313 6.50439 193.994 6.50439C188.674 6.50439 184.362 10.8309 184.362 16.1679C184.362 21.505 188.674 25.8315 193.994 25.8315Z" fill="#A0616A"/>
<path d="M190.659 23.2299C190.659 23.2299 192.141 30.6634 192.141 31.7785C192.141 32.8935 198.439 36.2385 198.439 36.2385L205.477 27.3184C205.477 27.3184 201.032 20.9999 201.032 19.5132L190.659 23.2299Z" fill="#A0616A"/>
<path d="M196.216 32.8932C196.216 32.8932 192.988 32.0309 192.009 30.6037C192.009 30.6037 181.769 40.6983 181.769 42.5567L189.919 57.052C189.919 57.052 189.919 62.2555 190.66 62.6272C191.401 62.9988 190.66 62.6272 190.66 64.1139C190.66 65.6006 188.437 75.2641 189.178 76.7508C189.919 78.2375 190.66 77.1225 189.919 79.3526C189.178 81.5826 187.326 93.4762 187.326 93.4762C187.326 93.4762 193.994 91.2462 203.625 94.9629C213.257 98.6796 224.741 93.4762 224.741 93.4762C224.741 93.4762 221.778 86.7861 222.518 84.556C223.259 82.326 220.666 78.2375 220.666 78.2375L218.814 44.0434C218.814 44.0434 221.407 28.8048 219.555 28.0614L215.85 26.5747L203.987 25.1118C203.987 25.1118 201.032 32.5215 196.216 32.8932Z" fill="#D0CDE1"/>
<path d="M185.473 39.9551L181.769 42.5568C181.769 42.5568 179.917 48.1319 181.769 50.7337C183.621 53.3354 184.362 57.0521 184.362 57.0521L191.771 56.3088L185.473 39.9551Z" fill="#D0CDE1"/>
<path d="M186.64 5.95514L184.969 5.28406C184.969 5.28406 188.462 1.42537 193.323 1.76092L191.956 0.250976C191.956 0.250976 195.297 -1.09117 198.335 2.43198C199.932 4.28402 201.779 6.46099 202.931 8.91333H204.72L203.973 10.5631L206.587 12.2128L203.904 11.9165C204.159 13.3407 204.072 14.8052 203.651 16.1891L203.723 17.493C203.723 17.493 200.613 12.6659 200.613 11.9948V13.6725C200.613 13.6725 198.942 12.1626 198.942 11.156L198.031 12.3304L197.575 10.4849L191.956 12.3304L192.867 10.8205L189.373 11.3238L190.74 9.4783C190.74 9.4783 186.791 11.6593 186.64 13.5048C186.488 15.3502 184.513 17.699 184.513 17.699L183.602 16.0213C183.602 16.0213 182.235 8.47167 186.64 5.95514Z" fill="#2F2E41"/>
<path d="M188.874 80.8833H41.6636V184.635H188.874V80.8833Z" fill="#F2F2F2"/>
<path d="M91.0185 120.469H54.0557V185.207H91.0185V120.469Z" fill="#3F3D56"/>
<path d="M70.8494 124.353H60.8926V133.666H70.8494V124.353Z" fill="#F2F2F2"/>
<path d="M84.1816 124.353H74.2249V133.666H84.1816V124.353Z" fill="#F2F2F2"/>
<path d="M70.8494 137.052H60.8926V146.703H70.8494V137.052Z" fill="#F2F2F2"/>
<path d="M84.1816 137.052H74.2249V146.703H84.1816V137.052Z" fill="#F2F2F2"/>
<path d="M86.3175 159.555C87.6155 159.555 88.6678 158.499 88.6678 157.197C88.6678 155.895 87.6155 154.839 86.3175 154.839C85.0195 154.839 83.9673 155.895 83.9673 157.197C83.9673 158.499 85.0195 159.555 86.3175 159.555Z" fill="#48CEF3"/>
<path d="M176.482 114.324H103.411V175.846H176.482V114.324Z" fill="#3F3D56"/>
<path d="M204.257 100.416H26.28L38.1466 75.5243L40.8023 69.9509L44.2766 62.6625L46.9323 57.0891L50.011 50.6326H190.235L192.053 57.0891L193.623 62.6625L195.677 69.9509L197.247 75.5243L204.257 100.416Z" fill="#3F3D56"/>
<path d="M108.538 139.833H105.974V155.696H108.538V139.833Z" fill="#48CEF3"/>
<path d="M108.538 142.191H105.974V144.12H108.538V142.191Z" fill="#F2F2F2"/>
<path d="M108.538 151.409H105.974V153.338H108.538V151.409Z" fill="#F2F2F2"/>
<path d="M116.016 139.833H109.82V155.696H116.016V139.833Z" fill="#48CEF3"/>
<path d="M116.016 142.191H109.82V144.12H116.016V142.191Z" fill="#F2F2F2"/>
<path d="M116.016 151.409H109.82V153.338H116.016V151.409Z" fill="#F2F2F2"/>
<path d="M120.076 139.833H117.512V155.696H120.076V139.833Z" fill="#48CEF3"/>
<path d="M120.076 142.191H117.512V144.12H120.076V142.191Z" fill="#F2F2F2"/>
<path d="M120.076 151.409H117.512V153.338H120.076V151.409Z" fill="#F2F2F2"/>
<path d="M123.922 139.833H121.358V155.696H123.922V139.833Z" fill="#48CEF3"/>
<path d="M123.922 142.191H121.358V144.12H123.922V142.191Z" fill="#F2F2F2"/>
<path d="M123.922 151.409H121.358V153.338H123.922V151.409Z" fill="#F2F2F2"/>
<path d="M126.392 139.889L123.993 140.797L129.57 155.64L131.969 154.733L126.392 139.889Z" fill="#48CEF3"/>
<path d="M127.221 142.096L124.822 143.003L125.501 144.809L127.9 143.901L127.221 142.096Z" fill="#F2F2F2"/>
<path d="M130.462 150.721L128.063 151.628L128.741 153.434L131.14 152.526L130.462 150.721Z" fill="#F2F2F2"/>
<path d="M174.131 139.833H167.935V155.696H174.131V139.833Z" fill="#48CEF3"/>
<path d="M174.131 142.191H167.935V144.12H174.131V142.191Z" fill="#F2F2F2"/>
<path d="M174.131 151.409H167.935V153.338H174.131V151.409Z" fill="#F2F2F2"/>
<path d="M166.44 139.833H163.876V155.696H166.44V139.833Z" fill="#48CEF3"/>
<path d="M166.44 142.191H163.876V144.12H166.44V142.191Z" fill="#F2F2F2"/>
<path d="M166.44 151.409H163.876V153.338H166.44V151.409Z" fill="#F2F2F2"/>
<path d="M162.594 139.833H160.03V155.696H162.594V139.833Z" fill="#48CEF3"/>
<path d="M162.594 142.191H160.03V144.12H162.594V142.191Z" fill="#F2F2F2"/>
<path d="M162.594 151.409H160.03V153.338H162.594V151.409Z" fill="#F2F2F2"/>
<path d="M157.559 139.89L151.983 154.733L154.382 155.64L159.959 140.797L157.559 139.89Z" fill="#48CEF3"/>
<path d="M156.73 142.096L156.052 143.901L158.451 144.809L159.129 143.003L156.73 142.096Z" fill="#F2F2F2"/>
<path d="M153.49 150.721L152.812 152.526L155.211 153.434L155.889 151.628L153.49 150.721Z" fill="#F2F2F2"/>
<path d="M176.482 155.696H103.411V157.197H176.482V155.696Z" fill="#F2F2F2"/>
<path d="M148.706 139.833H135.246V155.696H148.706V139.833Z" fill="#48CEF3"/>
<path d="M145.394 143.263H138.557V146.264H145.394V143.263Z" fill="#F2F2F2"/>
<path d="M140.587 114.324H139.305V128.043H140.587V114.324Z" fill="#F2F2F2"/>
<path d="M139.946 130.187C141.126 130.187 142.083 129.227 142.083 128.043C142.083 126.859 141.126 125.9 139.946 125.9C138.766 125.9 137.81 126.859 137.81 128.043C137.81 129.227 138.766 130.187 139.946 130.187Z" fill="#F2F2F2"/>
<path d="M193.623 62.6623H44.2766L46.9323 57.0889H192.053L193.623 62.6623Z" fill="#48CEF3"/>
<path d="M197.247 75.5241H38.1465L40.8022 69.9507H195.677L197.247 75.5241Z" fill="#48CEF3"/>
<path d="M212.886 43.3C212.886 43.3 210.741 48.8346 211.189 54.3104C211.271 55.2908 211.6 56.2343 212.145 57.052L185.864 69.5704C185.864 69.5704 173.989 70.804 176.952 76.0074C179.916 81.2109 190.659 73.4057 190.659 73.4057C190.659 73.4057 218.813 69.3173 221.036 65.2289C223.259 61.1404 224.741 44.0434 224.741 44.0434L212.886 43.3Z" fill="#A0616A"/>
<path d="M213.998 28.0613H219.555C219.555 28.0613 223.63 28.8046 224.741 36.2381C225.852 43.6716 226.964 45.53 225.852 45.53C224.741 45.53 211.405 45.1583 211.405 44.7867C211.405 44.415 213.998 28.0613 213.998 28.0613Z" fill="#D0CDE1"/>
<path d="M28.5036 139.092C44.2456 139.092 57.0071 126.289 57.0071 110.495C57.0071 94.7006 44.2456 81.897 28.5036 81.897C12.7615 81.897 0 94.7006 0 110.495C0 126.289 12.7615 139.092 28.5036 139.092Z" fill="#48CEF3"/>
<path opacity="0.1" d="M28.5035 135.089C42.0417 135.089 53.0166 124.078 53.0166 110.495C53.0166 96.9118 42.0417 85.9006 28.5035 85.9006C14.9654 85.9006 3.99048 96.9118 3.99048 110.495C3.99048 124.078 14.9654 135.089 28.5035 135.089Z" fill="black"/>
<path d="M27.3288 125.007V121.428C25.5253 121.393 23.6596 120.754 22.5713 119.868L23.3175 117.494C24.6108 118.466 26.1792 119 27.7953 119.018C30.0031 119.018 31.4957 117.565 31.4957 115.545C31.4957 113.595 30.2829 112.39 27.9819 111.327C24.8101 109.909 22.8511 108.279 22.8511 105.196C22.8511 102.254 24.6858 100.021 27.5466 99.4895V95.9099H29.4744V99.3478C30.912 99.3675 32.3142 99.7977 33.5169 100.588L32.7394 102.927C31.586 102.135 30.2192 101.715 28.8214 101.722C26.4272 101.722 25.5253 103.353 25.5253 104.77C25.5253 106.613 26.6759 107.535 29.3812 108.811C32.5839 110.299 34.201 112.142 34.201 115.296C34.201 118.096 32.4907 120.719 29.2878 121.321V125.007H27.3288Z" fill="#F2F2F2"/>
</g>
<defs>
<clipPath id="clip0">
<rect width="240" height="194" fill="white"/>
</clipPath>
</defs>
</svg>
