<svg width="376" height="317" viewBox="0 0 376 317" fill="none" xmlns="http://www.w3.org/2000/svg">
<g filter="url(#filter0_d)">
<circle cx="140.5" cy="191.5" r="109.5" fill="white"/>
</g>
<path d="M7 173C8.6859 137.507 35.6603 58.4085 136.814 53C155.359 53 254.827 63.1408 270 173" stroke="#48CEF3" stroke-width="4"/>
<ellipse cx="6.5" cy="178" rx="6.5" ry="7" fill="#48CEF3"/>
<circle cx="270.5" cy="177.5" r="6.5" fill="#48CEF3"/>
<circle cx="141" cy="7" r="7" fill="#48CEF3"/>
<rect x="140" y="5" width="2" height="28" fill="#48CEF3"/>
<line x1="276" y1="177" x2="366" y2="177" stroke="#48CEF3" stroke-width="4"/>
<path d="M376 177L365.5 183.062V170.938L376 177Z" fill="#48CEF3"/>
<circle cx="141" cy="53" r="19" fill="white" stroke="#48CEF3" stroke-width="2"/>
<path d="M137.026 58.28C138.562 56.952 139.77 55.864 140.65 55.016C141.546 54.152 142.29 53.256 142.882 52.328C143.474 51.4 143.77 50.472 143.77 49.544C143.77 48.584 143.538 47.832 143.074 47.288C142.626 46.744 141.914 46.472 140.938 46.472C139.994 46.472 139.258 46.776 138.73 47.384C138.218 47.976 137.946 48.776 137.914 49.784H135.274C135.322 47.96 135.866 46.568 136.906 45.608C137.962 44.632 139.298 44.144 140.914 44.144C142.658 44.144 144.018 44.624 144.994 45.584C145.986 46.544 146.482 47.824 146.482 49.424C146.482 50.576 146.186 51.688 145.594 52.76C145.018 53.816 144.322 54.768 143.506 55.616C142.706 56.448 141.682 57.416 140.434 58.52L139.354 59.48H146.962V61.76H135.298V59.768L137.026 58.28Z" fill="#48CEF3"/>
<circle cx="140.5" cy="191.5" r="101.5" fill="#48CEF3"/>
<g clip-path="url(#clip0)">
<mask id="mask0" style="mask-type:alpha" maskUnits="userSpaceOnUse" x="13" y="46" width="232" height="249">
<path d="M245 176.847C245 242.101 196.286 295 136.194 295C76.1018 295 13 229.407 13 164.153C13 98.8989 61.7142 46 121.806 46C181.898 46 245 111.593 245 176.847Z" fill="#C4C4C4"/>
</mask>
<g mask="url(#mask0)">
<path d="M179.084 115.152H37.5005V108.64C37.5005 107.353 38.5355 106.309 39.8101 106.309H176.78C178.054 106.309 179.089 107.353 179.089 108.64V115.152H179.084Z" fill="#000E8E" stroke="#263238" stroke-miterlimit="10" stroke-linecap="round" stroke-linejoin="round"/>
<path d="M186.798 116.79H43.6945V218.397H186.798V116.79Z" fill="white" stroke="#263238" stroke-miterlimit="10" stroke-linecap="round" stroke-linejoin="round"/>
<path d="M188.988 110.729C188.988 111.949 188.007 112.938 186.798 112.938C185.589 112.938 184.608 111.949 184.608 110.729C184.608 109.508 185.589 108.519 186.798 108.519C188.007 108.519 188.988 109.508 188.988 110.729Z" fill="white" stroke="#263238" stroke-miterlimit="10" stroke-linecap="round" stroke-linejoin="round"/>
<path d="M181.274 110.729C181.274 111.949 180.293 112.938 179.084 112.938C177.875 112.938 176.894 111.949 176.894 110.729C176.894 109.508 177.875 108.519 179.084 108.519C180.293 108.519 181.274 109.508 181.274 110.729Z" fill="white" stroke="#263238" stroke-miterlimit="10" stroke-linecap="round" stroke-linejoin="round"/>
<path d="M172.738 110.729C172.738 111.949 171.757 112.938 170.548 112.938C169.339 112.938 168.358 111.949 168.358 110.729C168.358 109.508 169.339 108.519 170.548 108.519C171.757 108.519 172.738 109.508 172.738 110.729Z" fill="white" stroke="#263238" stroke-miterlimit="10" stroke-linecap="round" stroke-linejoin="round"/>
<path d="M55.8029 178.902H98.6832" stroke="#263238" stroke-width="2" stroke-miterlimit="10" stroke-linecap="round" stroke-linejoin="round"/>
<path d="M55.8026 182.315H98.6829" stroke="#263238" stroke-width="2" stroke-miterlimit="10" stroke-linecap="round" stroke-linejoin="round"/>
<path d="M55.8026 185.795H89.6133" stroke="#263238" stroke-width="2" stroke-miterlimit="10" stroke-linecap="round" stroke-linejoin="round"/>
<path d="M144.778 119.285V119.56" stroke="#263238" stroke-linecap="round" stroke-linejoin="round"/>
<path d="M144.777 121.204V216.962" stroke="#263238" stroke-linecap="round" stroke-linejoin="round" stroke-dasharray="1 1"/>
<path d="M144.777 217.788V218.062" stroke="#263238" stroke-linecap="round" stroke-linejoin="round"/>
<path d="M45.6491 196.957H45.9214" stroke="#263238" stroke-linecap="round" stroke-linejoin="round"/>
<path d="M47.5552 196.957H183.751" stroke="#263238" stroke-linecap="round" stroke-linejoin="round" stroke-dasharray="1 1"/>
<path d="M184.569 196.957H184.841" stroke="#263238" stroke-linecap="round" stroke-linejoin="round"/>
<path d="M145.719 196.011H143.84V197.907H145.719V196.011Z" fill="white" stroke="#263238" stroke-miterlimit="10" stroke-linecap="round" stroke-linejoin="round"/>
<path d="M75.614 169.96C86.5586 169.96 95.4309 161.008 95.4309 149.965C95.4309 138.922 86.5586 129.97 75.614 129.97C64.6695 129.97 55.7971 138.922 55.7971 149.965C55.7971 161.008 64.6695 169.96 75.614 169.96Z" fill="#000E8E" stroke="#263238" stroke-miterlimit="10" stroke-linecap="round" stroke-linejoin="round"/>
<path d="M75.6151 149.959C78.1181 149.959 80.1472 147.912 80.1472 145.386C80.1472 142.861 78.1181 140.813 75.6151 140.813C73.1121 140.813 71.083 142.861 71.083 145.386C71.083 147.912 73.1121 149.959 75.6151 149.959Z" fill="white" stroke="#263238" stroke-width="1.5751" stroke-miterlimit="10" stroke-linecap="round" stroke-linejoin="round"/>
<path d="M78.1916 168.943H72.8854C68.5514 168.943 65.0029 166.183 65.0029 162.813V156.371C65.0029 153 68.5514 150.24 72.8854 150.24H78.1916C82.5256 150.24 86.0741 153 86.0741 156.371V162.813C86.0741 166.183 82.5256 168.943 78.1916 168.943Z" fill="white" stroke="#263238" stroke-width="1.595" stroke-miterlimit="10" stroke-linecap="round" stroke-linejoin="round"/>
<path d="M105.24 151.22C100.773 151.604 95.0996 146.218 95.0996 146.218C95.0996 146.218 94.23 147.061 93.5039 146.013C92.7778 144.957 89.6285 142.519 89.4512 140.406C89.2739 138.292 92.9889 134.867 92.9889 134.867C90.1182 135.659 89.8143 133.963 89.8143 133.963C89.8143 133.963 94.6353 129.941 96.3239 129.839C96.9824 129.796 99.8615 131.466 102.639 133.716C105.544 136.077 110.998 144.386 110.998 144.386C110.998 144.386 129.446 157.91 134.115 161.37C140.27 165.938 147.565 174.042 147.565 174.042C147.565 174.042 172.066 185.189 178.787 191.316L169.66 213.15C169.66 213.15 147.396 198.091 145.167 194.273C142.938 190.455 140.717 192.748 138.488 190.251C136.259 187.754 134.123 184.899 134.123 184.899C134.123 184.899 128.737 182.513 123.527 177.127C118.318 171.733 113.733 163.483 110.854 158.541C107.967 153.581 105.24 151.22 105.24 151.22Z" fill="white" stroke="#263238" stroke-miterlimit="10" stroke-linecap="round" stroke-linejoin="round"/>
<path d="M106.089 147.69C106.089 147.69 99.2215 146.17 98.6281 142.038C98.4361 140.693 97.1533 139.148 97.1533 139.148C97.1533 139.148 90.7395 138.862 91.1497 136.481L99.6927 135.789C99.6927 135.789 104.379 137.182 107.145 141.505" fill="white"/>
<path d="M106.089 147.69C106.089 147.69 99.2215 146.17 98.6281 142.038C98.4361 140.693 97.1533 139.148 97.1533 139.148C97.1533 139.148 90.7395 138.862 91.1497 136.481L99.6927 135.789C99.6927 135.789 104.379 137.182 107.145 141.505" stroke="#263238" stroke-miterlimit="10" stroke-linecap="round" stroke-linejoin="round"/>
<path d="M94.5022 146.84C94.5022 146.84 94.9069 146.226 94.7748 144.954C94.7748 144.954 96.559 144.607 96.3608 142.899C96.3608 142.899 99.0041 142.552 97.3025 139.189" stroke="#263238" stroke-miterlimit="10" stroke-linecap="round" stroke-linejoin="round"/>
<path d="M97.0308 142.59C97.0308 142.59 92.491 139.664 91.9737 138.339" stroke="#263238" stroke-miterlimit="10" stroke-linecap="round" stroke-linejoin="round"/>
<path d="M96.188 132.388C96.188 132.388 94.5981 134.496 91.9737 134.938" stroke="#263238" stroke-miterlimit="10" stroke-linecap="round" stroke-linejoin="round"/>
<path d="M94.5022 133.238C94.5022 133.238 95.8718 133.589 97.0307 134.088" stroke="#263238" stroke-miterlimit="10" stroke-linecap="round" stroke-linejoin="round"/>
<path d="M236.039 208.311C236.039 208.311 221.529 201.944 206.819 198.466C192.108 194.987 168.338 191.896 168.338 191.896C168.338 191.896 174.885 259.276 173.161 263.329C171.436 267.382 161.087 280.993 161.087 280.993C161.087 280.993 217.092 303.014 226.854 304.888C236.617 306.762 231.526 272.591 231.526 272.591C231.526 272.591 241.783 229.158 236.039 208.311Z" fill="#263238"/>
<path d="M216.655 200.85C216.655 200.85 218.043 203.485 214.395 204.825C204.944 208.303 194.873 205.233 195.947 201.546C196.357 200.137 198.696 201.546 198.547 196.284C198.53 195.606 198.285 194.815 197.91 193.971C197.334 192.667 196.427 191.24 195.51 189.962C193.913 187.735 192.273 185.935 192.273 185.935C192.273 185.935 207.274 176.395 218.401 185.935C218.401 185.935 214.264 188.022 216.655 200.85Z" fill="white" stroke="#263238" stroke-miterlimit="10" stroke-linecap="round" stroke-linejoin="round"/>
<path d="M233.954 321.943C228.248 331.324 199.294 335.729 183.49 335.313C167.694 334.905 122.211 313.175 119.126 308.574C116.268 304.313 109.247 290.229 120.07 281.716C120.929 281.044 121.89 280.406 122.986 279.811C130.395 275.763 179.671 288.528 179.671 288.528C179.671 288.528 182.723 286.581 183.844 286.725C187.283 287.167 189.719 289.974 196.69 291.973C201.553 293.376 214.829 287.984 223.308 292.619C224.236 293.121 225.095 293.742 225.888 294.507C233.811 302.144 239.652 312.563 233.954 321.943Z" fill="#000E8E"/>
<path opacity="0.3" d="M223.308 292.619C214.618 292.032 206.871 293.869 201.46 297.092C195.046 300.92 164.752 315.641 164.752 315.641C164.819 314.059 166.505 310.87 166.505 310.87C163.656 308.31 156.205 306.32 156.205 306.32C150.431 301.345 127.521 286.504 120.069 281.716C120.929 281.044 121.89 280.406 122.986 279.811C130.395 275.763 179.671 288.528 179.671 288.528C179.671 288.528 182.722 286.581 183.843 286.725C187.282 287.167 189.718 289.974 196.689 291.973C201.553 293.376 214.828 287.984 223.308 292.619Z" fill="black" fill-opacity="0.7"/>
<path d="M233.954 321.943C228.248 331.324 199.294 335.729 183.49 335.313C167.694 334.905 122.211 313.175 119.126 308.574C116.268 304.313 109.247 290.229 120.07 281.716C120.929 281.044 121.89 280.406 122.986 279.811C130.395 275.763 179.671 288.528 179.671 288.528C179.671 288.528 182.723 286.581 183.844 286.725C187.283 287.167 189.719 289.974 196.69 291.973C201.553 293.376 214.829 287.984 223.308 292.619C224.236 293.121 225.095 293.742 225.888 294.507C233.811 302.144 239.652 312.563 233.954 321.943Z" stroke="#263238" stroke-miterlimit="10" stroke-linecap="round" stroke-linejoin="round"/>
<path d="M224.312 295.818C221.42 292.612 218.529 292.467 212.46 292.901C212.46 292.901 196.622 297.97 185.58 304.714C174.538 311.458 158.405 318.543 158.405 318.543C158.405 318.543 153.491 317.106 150.069 318.543C150.069 318.543 147.666 318.73 149.276 322.965" stroke="#263238" stroke-miterlimit="10" stroke-linecap="round" stroke-linejoin="round"/>
<path d="M155.084 294.356C155.084 294.356 166.051 302.351 168.234 307.624C168.234 307.624 172.448 309.435 174.463 310.864" stroke="#263238" stroke-miterlimit="10" stroke-linecap="round" stroke-linejoin="round"/>
<path d="M182.107 295.087C182.107 295.087 185.774 300.028 186.684 304.051" stroke="#263238" stroke-miterlimit="10" stroke-linecap="round" stroke-linejoin="round"/>
<path d="M242.843 246.107C242.843 246.107 240.843 281.046 238.484 283.094C236.126 285.141 232.406 285.73 225.357 286.31C218.307 286.89 187.173 288.81 187.173 288.81L183.844 278.785C183.844 278.785 200.403 277.104 207.75 274.391C215.098 271.678 224.667 269.903 224.667 269.903C224.667 269.903 223.279 261.106 223.279 257.318C223.279 253.53 223.279 243.897 223.279 239.503" fill="white"/>
<path d="M242.843 246.107C242.843 246.107 240.843 281.046 238.484 283.094C236.126 285.141 232.406 285.73 225.357 286.31C218.307 286.89 187.173 288.81 187.173 288.81L183.844 278.785C183.844 278.785 200.403 277.104 207.75 274.391C215.098 271.678 224.667 269.903 224.667 269.903C224.667 269.903 223.279 261.106 223.279 257.318C223.279 253.53 223.279 243.897 223.279 239.503" stroke="#263238" stroke-miterlimit="10" stroke-linecap="round" stroke-linejoin="round"/>
<path d="M236.489 208.899C243.882 213.466 246.062 224.024 243.501 246.561C243.501 246.561 245.68 249.224 242.456 250.555C242.456 250.555 230.388 246.021 224.769 249.149C219.149 252.269 220.608 244.831 220.608 244.831C220.608 244.831 218.296 224.099 223.41 220.355" fill="#263238"/>
<path d="M221.772 216.55C221.772 216.55 216.53 224.262 221.142 243.733C221.142 243.733 220.5 247.278 220.506 248.575C220.512 249.872 221.772 250.555 221.772 250.555" stroke="white" stroke-miterlimit="10" stroke-linecap="round" stroke-linejoin="round"/>
<path d="M213.344 229.302C213.344 229.302 213.906 239.349 220.086 243.754" stroke="white" stroke-miterlimit="10" stroke-linecap="round" stroke-linejoin="round"/>
<path d="M215.029 208.015C215.029 208.015 204.257 212.202 195.69 207.563C190.608 204.815 192.699 200.398 192.699 200.398" stroke="white" stroke-miterlimit="10" stroke-linecap="round" stroke-linejoin="round"/>
<path d="M135.116 295.825H196.092C197.466 295.825 198.839 295.647 200.171 295.298L212.199 292.117C212.545 292.024 212.781 291.717 212.781 291.36C212.781 290.926 212.435 290.578 212.006 290.578H132.604C132.174 290.578 131.829 290.926 131.829 291.36V292.508C131.82 294.337 133.295 295.825 135.116 295.825Z" fill="#757575" stroke="#263238" stroke-miterlimit="10" stroke-linecap="round" stroke-linejoin="round"/>
<path d="M129.071 292.772H190.216C191.286 292.772 191.918 291.887 191.64 290.79L180.295 246.285C180.016 245.188 178.929 244.303 177.859 244.303H116.714C115.644 244.303 115.012 245.188 115.29 246.285L126.635 290.79C126.914 291.887 128.001 292.772 129.071 292.772Z" fill="#999999" stroke="#263238" stroke-miterlimit="10" stroke-linecap="round" stroke-linejoin="round"/>
<path d="M118.872 245.893H117.718" stroke="#263238" stroke-miterlimit="10" stroke-linecap="round" stroke-linejoin="round"/>
<path d="M127.833 245.893H121.857" stroke="#263238" stroke-miterlimit="10" stroke-linecap="round" stroke-linejoin="round"/>
<path d="M188.74 287.141L178.727 247.867C178.448 246.77 177.353 245.885 176.291 245.885H129.181" stroke="#263238" stroke-miterlimit="10" stroke-linecap="round" stroke-linejoin="round"/>
<path d="M189.617 290.57L189.364 289.591" stroke="#263238" stroke-miterlimit="10" stroke-linecap="round" stroke-linejoin="round"/>
<path d="M147.472 269.664C147.514 270.012 147.581 270.37 147.682 270.727C148.466 273.406 150.953 275.03 153.237 274.358C155.521 273.678 156.743 270.956 155.968 268.277C155.176 265.59 152.689 263.974 150.405 264.646C150.135 264.731 149.874 264.842 149.629 264.978C149.832 266.959 148.98 268.805 147.472 269.664Z" fill="white" stroke="#263238" stroke-miterlimit="10" stroke-linecap="round" stroke-linejoin="round"/>
<path d="M174.343 186.635C169.095 186.051 166.23 181.006 163.079 180.219C159.929 179.432 157.916 178.535 157.916 178.535C157.916 178.535 156.83 174.684 155.2 176.03C153.579 177.375 151.432 206.067 153.529 205.17C155.626 204.273 155.626 207.658 155.626 207.658L175.103 225.051L191.43 195.767C191.438 195.758 179.59 187.219 174.343 186.635Z" fill="#263238"/>
<path d="M178.787 194.447C178.787 194.447 172.799 203.855 172.044 218.25" stroke="white" stroke-miterlimit="10" stroke-linecap="round" stroke-linejoin="round"/>
<path d="M163.616 201.248C163.616 201.248 165.118 209.137 169.516 214.85" stroke="white" stroke-miterlimit="10" stroke-linecap="round" stroke-linejoin="round"/>
<path d="M183.844 234.402C183.844 234.402 191.264 259.355 207.444 266.707" stroke="white" stroke-miterlimit="10" stroke-linecap="round" stroke-linejoin="round"/>
<path d="M204.072 188.496C204.072 188.496 203.341 194.059 198.009 194.447C197.441 193.153 196.547 191.739 195.644 190.471C199.179 189.333 204.072 188.496 204.072 188.496Z" fill="#263238"/>
<path d="M214.971 188.853C214.971 188.853 223.711 189.933 227.37 178.094C231.028 166.256 228.154 157.334 213.681 153.039C205.657 150.658 197.641 152.572 194.749 158.695C192.271 163.943 193.443 168.314 192.87 170.074C192.229 172.048 186.32 173.723 186.32 175.075C186.32 176.198 189.599 178.094 189.599 178.094L188.638 181.037L189.549 181.522C189.549 181.522 187.871 188.147 188.638 190.486C189.203 192.195 204.004 192.901 205.159 188.674" fill="white"/>
<path d="M214.971 188.853C214.971 188.853 223.711 189.933 227.37 178.094C231.028 166.256 228.154 157.334 213.681 153.039C205.657 150.658 197.641 152.572 194.749 158.695C192.271 163.943 193.443 168.314 192.87 170.074C192.229 172.048 186.32 173.723 186.32 175.075C186.32 176.198 189.599 178.094 189.599 178.094L188.638 181.037L189.549 181.522C189.549 181.522 187.871 188.147 188.638 190.486C189.203 192.195 204.004 192.901 205.159 188.674" stroke="#263238" stroke-miterlimit="10" stroke-linecap="round" stroke-linejoin="round"/>
<path d="M194.825 162.998C194.825 162.998 197.717 163.73 198.509 165.261" stroke="#263238" stroke-miterlimit="10" stroke-linecap="round" stroke-linejoin="round"/>
<path d="M195.339 169.718C195.212 170.577 195.406 171.317 195.777 171.368C196.14 171.419 196.536 170.773 196.662 169.914C196.789 169.055 196.595 168.315 196.224 168.264C195.853 168.213 195.465 168.859 195.339 169.718Z" fill="#263238"/>
<path d="M189.54 181.523C189.54 181.523 194.244 183.343 195.997 182.246" stroke="#263238" stroke-miterlimit="10" stroke-linecap="round" stroke-linejoin="round"/>
<path d="M191.193 169.046C190.839 170.943 191.269 172.618 192.137 172.78C193.005 172.941 193.991 171.538 194.345 169.633C194.699 167.736 194.27 166.061 193.401 165.899C192.533 165.738 191.547 167.141 191.193 169.046Z" stroke="#263238" stroke-miterlimit="10" stroke-linecap="round" stroke-linejoin="round"/>
<path d="M227.758 159.351C227.758 159.351 227.084 154.392 222.263 150.795C217.441 147.197 211.667 146.423 211.667 146.423C211.667 146.423 214.466 147.657 215.519 149.272C215.519 149.272 208.296 143.795 199.715 147.393C191.143 150.99 192.196 160.337 192.196 160.337L193.452 157.888C193.452 157.888 193.309 160.805 194.826 161.876C194.826 161.876 195.745 159.053 196.672 157.794C196.672 157.794 198.948 164.7 205.211 167.03C205.211 167.03 204.536 165.67 205.118 163.628C205.118 163.628 208.582 171.215 207.571 174.906L208.683 176.853C208.683 176.853 212.67 172.78 215.907 176.173C217.77 178.121 212.342 185.503 211.575 185.503L214.853 190.367C214.853 190.367 223.046 191.541 227.767 182.594C232.487 173.647 231.332 169.82 231.332 169.82C231.332 169.82 232.875 171.997 233.069 173.256C233.052 173.256 234.4 163.628 227.758 159.351Z" fill="#263238"/>
<path d="M208.481 177.729C208.481 177.729 210.993 169.148 216.388 172.176C221.782 175.203 217.922 179.77 216 181.522C214.07 183.274 212.628 186.481 211.372 186.481C210.117 186.481 209.83 184.924 209.83 184.924" fill="white"/>
<path d="M208.481 177.729C208.481 177.729 210.993 169.148 216.388 172.176C221.782 175.203 217.922 179.77 216 181.522C214.07 183.274 212.628 186.481 211.372 186.481C210.117 186.481 209.83 184.924 209.83 184.924" stroke="#263238" stroke-miterlimit="10" stroke-linecap="round" stroke-linejoin="round"/>
<path d="M194.345 169.633L209.348 172.779" stroke="#263238" stroke-miterlimit="10" stroke-linecap="round" stroke-linejoin="round"/>
</g>
</g>
<defs>
<filter id="filter0_d" x="19" y="74" width="243" height="243" filterUnits="userSpaceOnUse" color-interpolation-filters="sRGB">
<feFlood flood-opacity="0" result="BackgroundImageFix"/>
<feColorMatrix in="SourceAlpha" type="matrix" values="0 0 0 0 0 0 0 0 0 0 0 0 0 0 0 0 0 0 127 0" result="hardAlpha"/>
<feMorphology radius="4" operator="dilate" in="SourceAlpha" result="effect1_dropShadow"/>
<feOffset dy="4"/>
<feGaussianBlur stdDeviation="4"/>
<feComposite in2="hardAlpha" operator="out"/>
<feColorMatrix type="matrix" values="0 0 0 0 0 0 0 0 0 0 0 0 0 0 0 0 0 0 0.1 0"/>
<feBlend mode="normal" in2="BackgroundImageFix" result="effect1_dropShadow"/>
<feBlend mode="normal" in="SourceGraphic" in2="effect1_dropShadow" result="shape"/>
</filter>
<clipPath id="clip0">
<rect width="257" height="198" fill="white" transform="translate(17 106)"/>
</clipPath>
</defs>
</svg>
