<svg width="20" height="20" viewBox="0 0 20 20" fill="none" xmlns="http://www.w3.org/2000/svg">
<path fill-rule="evenodd" clip-rule="evenodd" d="M2 3C2 2.44772 2.44772 2 3 2H17C17.5523 2 18 2.44772 18 3V10.5858L14.7071 7.29289C14.3166 6.90237 13.6834 6.90237 13.2929 7.29289L2.64909 17.9367C2.2699 17.7946 2 17.4288 2 17V3ZM20 3V12.999V13.001V17C20 18.6569 18.6569 20 17 20H3C1.34315 20 0 18.6569 0 17V3C0 1.34315 1.34315 0 3 0H17C18.6569 0 20 1.34315 20 3ZM14 9.41421L18 13.4142V17C18 17.5523 17.5523 18 17 18H5.41421L14 9.41421ZM5 6.5C5 5.67157 5.67157 5 6.5 5C7.32843 5 8 5.67157 8 6.5C8 7.32843 7.32843 8 6.5 8C5.67157 8 5 7.32843 5 6.5Z" fill="#8CAEC5"/>
</svg>
