<svg width="311" height="265" viewBox="0 0 311 265" fill="none" xmlns="http://www.w3.org/2000/svg">
<g filter="url(#filter0_d)">
<circle cx="116" cy="158.5" r="90.5" fill="white"/>
</g>
<path d="M5.5 143C6.89103 113.718 29.1474 48.462 112.609 44C127.91 44 209.981 52.3662 222.5 143" stroke="#EE2A7B" stroke-width="4"/>
<ellipse cx="5.5" cy="147" rx="5" ry="6" fill="#EE2A7B"/>
<circle cx="224" cy="145.5" r="5.5" fill="#EE2A7B"/>
<circle cx="116.5" cy="6" r="6" fill="#EE2A7B"/>
<rect x="115.5" y="4" width="2" height="23" fill="#EE2A7B"/>
<line x1="227.5" y1="146" x2="302.5" y2="146" stroke="#EE2A7B" stroke-width="4"/>
<path d="M310.5 146L301.5 151.196V140.804L310.5 146Z" fill="#EE2A7B"/>
<circle cx="116" cy="43.5" r="15.5" fill="white" stroke="#EE2A7B" stroke-width="2"/>
<path d="M110.767 39.824H113.431C113.599 38.6 114.487 37.448 116.407 37.448C118.279 37.448 119.263 38.456 119.263 39.968C119.263 41.84 117.751 42.56 115.279 42.584H114.631V44.84H115.255C118.111 44.84 119.599 45.632 119.599 47.936C119.599 49.568 118.591 50.816 116.551 50.816C114.487 50.816 113.287 49.568 113.167 47.936H110.527C110.695 51.368 113.263 53.096 116.575 53.096C120.223 53.096 122.191 50.984 122.191 48.2C122.191 45.776 121.015 44.264 119.191 43.712V43.616C120.559 43.16 121.879 41.744 121.879 39.656C121.879 37.112 119.983 35.096 116.503 35.096C113.311 35.096 110.959 36.8 110.767 39.824Z" fill="#EE2A7B"/>
<ellipse cx="116" cy="158" rx="83.5" ry="84" fill="#EE2A7B"/>
<mask id="mask0" style="mask-type:alpha" maskUnits="userSpaceOnUse" x="14" y="36" width="207" height="206">
<circle cx="117.5" cy="139" r="103" fill="#C4C4C4"/>
</mask>
<g mask="url(#mask0)">
<path d="M149.047 326.766H85.5905C74.6318 326.766 65.7539 317.89 65.7539 306.941V140.532C65.7539 129.582 74.6318 120.7 85.5905 120.7H149.047C159.999 120.7 168.883 129.576 168.883 140.532V306.941C168.877 317.89 159.999 326.766 149.047 326.766Z" fill="#263238"/>
<path d="M149.406 315.634H85.2254C77.0064 315.634 70.3398 308.969 70.3398 300.752V140.519C70.3398 132.302 77.0064 125.637 85.2254 125.637H149.399C157.618 125.637 164.285 132.302 164.285 140.519V300.752C164.291 308.969 157.625 315.634 149.406 315.634Z" fill="white"/>
<path d="M123.183 230.271C143.656 230.271 160.253 213.678 160.253 193.21C160.253 172.742 143.656 156.15 123.183 156.15C102.709 156.15 86.1123 172.742 86.1123 193.21C86.1123 213.678 102.709 230.271 123.183 230.271Z" fill="url(#paint0_radial)"/>
<path d="M123.887 176.425L123.679 158.856C123.679 158.602 123.881 158.393 124.129 158.393C124.383 158.393 124.592 158.596 124.592 158.843C124.592 158.843 124.592 158.85 124.592 158.856L124.383 176.425C124.383 176.562 124.266 176.672 124.129 176.672C123.998 176.672 123.894 176.562 123.887 176.425Z" fill="#505050"/>
<path d="M119.804 177.031L115.055 160.115C114.99 159.874 115.127 159.619 115.375 159.548C115.616 159.482 115.871 159.619 115.942 159.867C115.942 159.867 115.942 159.874 115.942 159.88L120.293 176.907C120.326 177.044 120.248 177.181 120.111 177.214C119.974 177.24 119.837 177.162 119.804 177.031Z" fill="#505050"/>
<path d="M116.014 178.668L107.051 163.558C106.921 163.343 106.993 163.063 107.214 162.932C107.43 162.802 107.71 162.874 107.841 163.095L107.847 163.102L116.458 178.42C116.523 178.544 116.484 178.694 116.36 178.766C116.236 178.825 116.086 178.785 116.014 178.668Z" fill="#505050"/>
<path d="M112.779 181.231L100.209 168.951C100.026 168.775 100.026 168.482 100.203 168.306C100.379 168.123 100.672 168.123 100.848 168.299L100.855 168.306L113.131 180.872C113.229 180.97 113.229 181.133 113.125 181.231C113.033 181.329 112.877 181.329 112.779 181.231Z" fill="#505050"/>
<path d="M110.319 184.55L94.9966 175.942C94.7748 175.818 94.6966 175.538 94.8205 175.316C94.9444 175.094 95.2249 175.016 95.4467 175.14L95.4532 175.146L110.567 184.113C110.685 184.185 110.724 184.341 110.658 184.459C110.587 184.576 110.437 184.615 110.319 184.55Z" fill="#505050"/>
<path d="M108.8 188.385L91.7745 184.035C91.5266 183.97 91.3831 183.722 91.4418 183.481C91.507 183.233 91.7549 183.089 91.9963 183.148C91.9963 183.148 92.0028 183.148 92.0093 183.148L108.93 187.896C109.067 187.935 109.145 188.072 109.106 188.209C109.067 188.346 108.93 188.424 108.8 188.385Z" fill="#505050"/>
<path d="M108.323 192.487L90.7502 192.695C90.4958 192.695 90.2871 192.493 90.2871 192.245C90.2871 191.991 90.4893 191.782 90.7372 191.782C90.7372 191.782 90.7437 191.782 90.7502 191.782L108.323 191.991C108.46 191.991 108.571 192.108 108.571 192.245C108.571 192.376 108.46 192.487 108.323 192.487Z" fill="#505050"/>
<path d="M108.93 196.575L92.0088 201.323C91.7675 201.388 91.5131 201.251 91.4413 201.003C91.3696 200.755 91.5131 200.508 91.761 200.436C91.761 200.436 91.7675 200.436 91.774 200.436L108.799 196.086C108.936 196.054 109.073 196.132 109.106 196.269C109.138 196.399 109.06 196.536 108.93 196.575Z" fill="#505050"/>
<path d="M110.567 200.364L95.4529 209.324C95.2377 209.455 94.9572 209.383 94.8267 209.161C94.6963 208.946 94.768 208.666 94.9898 208.535L94.9963 208.529L110.312 199.921C110.436 199.856 110.586 199.895 110.658 200.019C110.73 200.142 110.684 200.292 110.567 200.364Z" fill="#505050"/>
<path d="M113.137 203.599L100.861 216.165C100.685 216.348 100.391 216.348 100.215 216.172C100.032 215.996 100.032 215.702 100.208 215.526L100.215 215.52L112.785 203.247C112.883 203.149 113.046 203.149 113.144 203.253C113.228 203.344 113.228 203.501 113.137 203.599Z" fill="#505050"/>
<path d="M116.45 206.057L107.846 221.376C107.723 221.597 107.442 221.676 107.22 221.552C106.998 221.428 106.92 221.147 107.044 220.926L107.051 220.919L116.013 205.809C116.085 205.692 116.242 205.653 116.359 205.718C116.476 205.79 116.516 205.94 116.45 206.057Z" fill="#505050"/>
<path d="M120.293 207.577L115.942 224.597C115.877 224.845 115.629 224.988 115.388 224.93C115.14 224.865 114.996 224.617 115.055 224.375C115.055 224.375 115.055 224.369 115.055 224.362L119.804 207.446C119.843 207.309 119.98 207.231 120.117 207.27C120.247 207.309 120.326 207.446 120.293 207.577Z" fill="#505050"/>
<path d="M124.396 208.053L124.605 225.621C124.605 225.875 124.402 226.084 124.155 226.084C123.9 226.084 123.691 225.882 123.691 225.634C123.691 225.634 123.691 225.628 123.691 225.621L123.9 208.053C123.9 207.916 124.018 207.805 124.155 207.805C124.285 207.805 124.396 207.916 124.396 208.053Z" fill="#505050"/>
<path d="M128.479 207.446L133.228 224.362C133.293 224.604 133.156 224.858 132.908 224.93C132.667 224.995 132.412 224.858 132.341 224.61C132.341 224.61 132.341 224.604 132.341 224.597L127.99 207.577C127.957 207.44 128.035 207.303 128.172 207.27C128.309 207.238 128.44 207.316 128.479 207.446Z" fill="#505050"/>
<path d="M132.27 205.803L141.232 220.913C141.363 221.128 141.291 221.408 141.069 221.539C140.854 221.669 140.574 221.597 140.443 221.376L140.437 221.369L131.826 206.051C131.761 205.927 131.8 205.777 131.924 205.705C132.048 205.646 132.198 205.686 132.27 205.803Z" fill="#505050"/>
<path d="M135.505 203.24L148.075 215.513C148.257 215.689 148.257 215.983 148.081 216.159C147.905 216.341 147.612 216.341 147.436 216.165L147.429 216.159L135.153 203.592C135.055 203.494 135.055 203.331 135.159 203.234C135.251 203.142 135.407 203.142 135.505 203.24Z" fill="#505050"/>
<path d="M137.971 199.921L153.287 208.529C153.509 208.653 153.587 208.933 153.463 209.155C153.339 209.377 153.059 209.455 152.837 209.331L152.83 209.324L137.716 200.364C137.599 200.292 137.56 200.136 137.625 200.019C137.697 199.895 137.847 199.856 137.971 199.921Z" fill="#505050"/>
<path d="M139.484 196.086L156.509 200.436C156.757 200.501 156.9 200.749 156.841 200.99C156.776 201.238 156.528 201.382 156.287 201.323C156.287 201.323 156.281 201.323 156.274 201.323L139.353 196.575C139.216 196.536 139.138 196.399 139.177 196.262C139.216 196.132 139.353 196.054 139.484 196.086Z" fill="#505050"/>
<path d="M139.96 191.984L157.533 191.776C157.787 191.776 157.996 191.978 157.996 192.226C157.996 192.48 157.794 192.689 157.546 192.689C157.546 192.689 157.539 192.689 157.533 192.689L139.96 192.48C139.823 192.48 139.712 192.363 139.712 192.226C139.712 192.095 139.823 191.984 139.96 191.984Z" fill="#505050"/>
<path d="M139.36 187.902L156.281 183.155C156.522 183.089 156.777 183.226 156.848 183.474C156.914 183.715 156.777 183.97 156.529 184.042C156.529 184.042 156.522 184.042 156.516 184.042L139.49 188.391C139.354 188.424 139.217 188.346 139.184 188.209C139.145 188.072 139.223 187.935 139.36 187.902Z" fill="#505050"/>
<path d="M137.717 184.113L152.83 175.153C153.046 175.023 153.326 175.094 153.457 175.316C153.587 175.531 153.515 175.812 153.294 175.942L153.287 175.949L137.964 184.55C137.841 184.615 137.69 184.576 137.619 184.452C137.553 184.328 137.599 184.178 137.717 184.113Z" fill="#505050"/>
<path d="M135.146 180.879L147.423 168.312C147.599 168.13 147.893 168.13 148.069 168.306C148.251 168.482 148.251 168.775 148.075 168.951L148.069 168.958L135.499 181.231C135.401 181.329 135.238 181.329 135.14 181.224C135.055 181.133 135.055 180.976 135.146 180.879Z" fill="#505050"/>
<path d="M131.832 178.414L140.442 163.095C140.566 162.873 140.847 162.795 141.069 162.919C141.29 163.043 141.369 163.323 141.245 163.545L141.238 163.552L132.276 178.661C132.204 178.779 132.047 178.818 131.93 178.753C131.806 178.688 131.767 178.538 131.832 178.414Z" fill="#505050"/>
<path d="M127.99 176.894L132.341 159.874C132.406 159.626 132.654 159.482 132.895 159.541C133.143 159.606 133.287 159.854 133.228 160.095C133.228 160.095 133.228 160.102 133.228 160.108L128.479 177.025C128.44 177.162 128.303 177.24 128.166 177.201C128.035 177.162 127.957 177.031 127.99 176.894Z" fill="#505050"/>
<g opacity="0.1">
<path opacity="0.1" d="M109.804 161.347L109.602 143.988C109.602 143.74 109.797 143.531 110.052 143.531C110.3 143.531 110.508 143.727 110.508 143.981C110.508 143.981 110.508 143.988 110.508 143.994L110.306 161.354C110.306 161.491 110.189 161.602 110.052 161.602C109.915 161.589 109.804 161.484 109.804 161.347Z" fill="#505050"/>
<path opacity="0.1" d="M105.766 161.941L101.076 145.227C101.011 144.986 101.148 144.738 101.389 144.666C101.63 144.601 101.878 144.738 101.95 144.979C101.95 144.979 101.95 144.986 101.95 144.992L106.249 161.81C106.281 161.941 106.203 162.078 106.066 162.11C105.935 162.15 105.805 162.071 105.766 161.941Z" fill="#505050"/>
<path opacity="0.1" d="M102.022 163.565L93.1639 148.631C93.0334 148.416 93.1052 148.135 93.3204 148.012C93.5357 147.881 93.8162 147.953 93.9401 148.168L93.9466 148.175L102.453 163.31C102.518 163.428 102.479 163.584 102.355 163.649C102.244 163.721 102.094 163.682 102.022 163.565Z" fill="#505050"/>
<path opacity="0.1" d="M98.8258 166.101L86.4059 153.972C86.2298 153.796 86.2233 153.509 86.3994 153.333C86.5755 153.157 86.8625 153.15 87.0386 153.326L87.0452 153.333L99.178 165.749C99.2759 165.847 99.2694 166.004 99.1715 166.101C99.0737 166.193 98.9236 166.193 98.8258 166.101Z" fill="#505050"/>
<path opacity="0.1" d="M96.393 169.375L81.253 160.871C81.0378 160.747 80.9595 160.474 81.0834 160.252C81.2074 160.037 81.4813 159.958 81.7031 160.076L81.7096 160.082L96.6409 168.938C96.7583 169.01 96.7974 169.16 96.7257 169.277C96.6605 169.401 96.5104 169.44 96.393 169.375Z" fill="#505050"/>
<path opacity="0.1" d="M94.8929 173.17L78.07 168.873C77.8286 168.814 77.6786 168.566 77.7438 168.325C77.8025 168.084 78.0504 167.934 78.2917 167.999C78.2917 167.999 78.2983 167.999 78.3048 167.999L95.0234 172.688C95.1538 172.727 95.2321 172.864 95.193 172.994C95.1604 173.125 95.0234 173.203 94.8929 173.17Z" fill="#505050"/>
<path opacity="0.1" d="M94.4294 177.22L77.065 177.422C76.8171 177.422 76.6084 177.227 76.6084 176.972C76.6084 176.725 76.8041 176.516 77.0585 176.516C77.0585 176.516 77.065 176.516 77.0715 176.516L94.4359 176.718C94.5729 176.718 94.6838 176.835 94.6838 176.972C94.6707 177.109 94.5598 177.22 94.4294 177.22Z" fill="#505050"/>
<path opacity="0.1" d="M95.0233 181.257L78.3047 185.946C78.0634 186.011 77.8155 185.874 77.7438 185.633C77.6785 185.391 77.8155 185.143 78.0569 185.072C78.0569 185.072 78.0634 185.072 78.0699 185.072L94.8929 180.774C95.0233 180.742 95.1603 180.82 95.1929 180.957C95.2321 181.087 95.1538 181.218 95.0233 181.257Z" fill="#505050"/>
<path opacity="0.1" d="M96.6406 185L81.7094 193.856C81.4941 193.986 81.2136 193.915 81.0897 193.699C80.9592 193.484 81.031 193.204 81.2462 193.08L81.2527 193.073L96.3862 184.57C96.5036 184.504 96.6602 184.544 96.7254 184.667C96.7972 184.778 96.758 184.928 96.6406 185Z" fill="#505050"/>
<path opacity="0.1" d="M99.178 188.195L87.0452 200.612C86.869 200.788 86.582 200.795 86.4059 200.618C86.2298 200.442 86.2233 200.155 86.3994 199.979L86.4059 199.973L98.8258 187.843C98.9236 187.745 99.0802 187.752 99.178 187.85C99.2759 187.948 99.2759 188.098 99.178 188.195Z" fill="#505050"/>
<path opacity="0.1" d="M102.453 190.628L93.9539 205.764C93.8299 205.979 93.556 206.057 93.3342 205.94C93.1189 205.816 93.0406 205.542 93.1581 205.32L93.1646 205.314L102.023 190.387C102.095 190.269 102.245 190.23 102.362 190.302C102.479 190.361 102.525 190.51 102.453 190.628Z" fill="#505050"/>
<path opacity="0.1" d="M106.249 192.128L101.95 208.946C101.885 209.187 101.643 209.337 101.402 209.272C101.161 209.213 101.011 208.966 101.076 208.724C101.076 208.724 101.076 208.718 101.076 208.711L105.766 191.997C105.805 191.867 105.942 191.789 106.072 191.828C106.209 191.86 106.281 191.997 106.249 192.128Z" fill="#505050"/>
<path opacity="0.1" d="M110.306 192.597L110.508 209.957C110.508 210.205 110.313 210.413 110.058 210.413C109.81 210.413 109.602 210.218 109.602 209.963C109.602 209.963 109.602 209.957 109.602 209.95L109.804 192.591C109.804 192.454 109.921 192.343 110.058 192.343C110.195 192.349 110.306 192.46 110.306 192.597Z" fill="#505050"/>
<path opacity="0.1" d="M114.338 191.997L119.035 208.711C119.1 208.953 118.963 209.2 118.722 209.272C118.48 209.337 118.232 209.2 118.161 208.959C118.161 208.959 118.161 208.953 118.161 208.946L113.862 192.128C113.829 191.997 113.908 191.86 114.045 191.828C114.168 191.789 114.305 191.867 114.338 191.997Z" fill="#505050"/>
<path opacity="0.1" d="M118.082 190.374L126.94 205.301C127.071 205.516 126.999 205.796 126.784 205.92C126.568 206.051 126.288 205.979 126.164 205.764L126.157 205.757L117.651 190.621C117.586 190.504 117.625 190.347 117.749 190.282C117.867 190.217 118.017 190.263 118.082 190.374Z" fill="#505050"/>
<path opacity="0.1" d="M121.278 187.843L133.698 199.973C133.874 200.149 133.88 200.436 133.704 200.612C133.528 200.788 133.241 200.794 133.065 200.618L133.059 200.612L120.926 188.195C120.828 188.098 120.834 187.941 120.932 187.843C121.03 187.745 121.187 187.745 121.278 187.843Z" fill="#505050"/>
<path opacity="0.1" d="M123.718 184.563L138.852 193.067C139.067 193.191 139.145 193.465 139.028 193.686C138.904 193.902 138.63 193.98 138.408 193.862L138.402 193.856L123.47 185C123.353 184.928 123.314 184.778 123.386 184.661C123.451 184.537 123.601 184.498 123.718 184.563Z" fill="#505050"/>
<path opacity="0.1" d="M125.218 180.774L142.041 185.072C142.283 185.13 142.433 185.378 142.367 185.62C142.302 185.861 142.061 186.011 141.82 185.946C141.82 185.946 141.813 185.946 141.806 185.946L125.088 181.257C124.957 181.218 124.879 181.081 124.918 180.95C124.951 180.813 125.088 180.742 125.218 180.774Z" fill="#505050"/>
<path opacity="0.1" d="M125.681 176.718L143.039 176.516C143.287 176.516 143.496 176.712 143.496 176.966C143.496 177.214 143.3 177.422 143.046 177.422C143.046 177.422 143.039 177.422 143.032 177.422L125.675 177.22C125.538 177.22 125.427 177.103 125.427 176.966C125.44 176.829 125.551 176.725 125.681 176.718Z" fill="#505050"/>
<path opacity="0.1" d="M125.088 172.688L141.806 167.999C142.048 167.934 142.296 168.071 142.367 168.312C142.433 168.553 142.296 168.801 142.054 168.873C142.054 168.873 142.048 168.873 142.041 168.873L125.218 173.17C125.088 173.203 124.951 173.125 124.918 172.988C124.879 172.857 124.957 172.721 125.088 172.688Z" fill="#505050"/>
<path opacity="0.1" d="M123.464 168.938L138.395 160.082C138.61 159.952 138.891 160.024 139.015 160.239C139.145 160.454 139.073 160.734 138.858 160.858L138.851 160.865L123.711 169.369C123.594 169.434 123.437 169.395 123.372 169.271C123.307 169.16 123.346 169.01 123.464 168.938Z" fill="#505050"/>
<path opacity="0.1" d="M120.933 165.743L133.066 153.326C133.242 153.15 133.529 153.144 133.705 153.32C133.881 153.496 133.888 153.783 133.711 153.959L133.705 153.965L121.285 166.095C121.187 166.193 121.031 166.186 120.933 166.088C120.835 165.997 120.835 165.841 120.933 165.743Z" fill="#505050"/>
<path opacity="0.1" d="M117.652 163.317L126.158 148.181C126.282 147.966 126.556 147.888 126.777 148.005C126.993 148.129 127.071 148.403 126.947 148.624L126.94 148.631L118.082 163.558C118.01 163.676 117.86 163.715 117.743 163.643C117.625 163.584 117.586 163.434 117.652 163.317Z" fill="#505050"/>
<path opacity="0.1" d="M113.862 161.817L118.16 144.999C118.219 144.757 118.467 144.607 118.708 144.673C118.95 144.731 119.1 144.979 119.034 145.22C119.034 145.22 119.034 145.227 119.034 145.233L114.344 161.947C114.305 162.078 114.168 162.156 114.038 162.117C113.901 162.078 113.822 161.947 113.862 161.817Z" fill="#505050"/>
</g>
<path d="M126.548 149.818L92.4851 159.345L83.7051 193.608L108.995 218.337L143.058 208.809L151.838 174.546L126.548 149.818Z" fill="url(#paint1_radial)"/>
<path d="M135.46 153.45H100.085L82.3945 184.081L100.085 214.704H135.46L153.144 184.081L135.46 153.45Z" fill="url(#paint2_radial)"/>
<path d="M140.077 166.245L136.607 158.367L128.049 157.435L128.101 156.959L136.94 157.917L140.521 166.049L140.077 166.245Z" fill="#FDFDFD"/>
<path d="M125.133 157.115L123.678 156.959L123.73 156.483L125.185 156.639L125.133 157.115ZM117.846 156.32L114.931 156L114.983 155.524L117.899 155.844L117.846 156.32Z" fill="#FDFDFD"/>
<path d="M99.8308 161.856L99.4395 161.576L104.697 154.402L113.529 155.367L113.477 155.844L104.919 154.911L99.8308 161.856Z" fill="#FDFDFD"/>
<path d="M92.0349 172.499L91.6436 172.212L93.3787 169.845L93.7701 170.132L92.0349 172.499ZM97.2338 165.404L96.8424 165.117L97.71 163.936L98.1014 164.223L97.2338 165.404Z" fill="#FDFDFD"/>
<path d="M89.1131 188.698L85.5254 180.566L90.783 173.392L91.1678 173.679L86.0799 180.624L89.5501 188.502L89.1131 188.698Z" fill="#FDFDFD"/>
<path d="M94.4296 200.762L93.2489 198.082L93.6925 197.886L94.8731 200.566L94.4296 200.762ZM90.8875 192.715L90.2939 191.371L90.7375 191.176L91.3311 192.519L90.8875 192.715Z" fill="#FDFDFD"/>
<path d="M107.443 211.196L98.6046 210.237L95.0234 202.105L95.4605 201.91L98.9307 209.787L107.496 210.72L107.443 211.196Z" fill="#FDFDFD"/>
<path d="M120.554 212.631L117.638 212.311L117.69 211.835L120.606 212.155L120.554 212.631ZM111.813 211.679L110.358 211.522L110.411 211.046L111.865 211.202L111.813 211.679Z" fill="#FDFDFD"/>
<path d="M130.847 213.752L122.015 212.787L122.067 212.311L130.625 213.244L135.713 206.298L136.098 206.579L130.847 213.752Z" fill="#FDFDFD"/>
<path d="M137.834 204.218L137.442 203.931L138.31 202.751L138.701 203.038L137.834 204.218ZM142.165 198.31L141.774 198.023L143.509 195.656L143.9 195.943L142.165 198.31Z" fill="#FDFDFD"/>
<path d="M144.761 194.762L144.376 194.475L149.464 187.53L145.987 179.653L146.431 179.464L150.012 187.589L144.761 194.762Z" fill="#FDFDFD"/>
<path d="M144.807 176.972L144.213 175.629L144.656 175.433L145.25 176.777L144.807 176.972ZM141.852 170.269L140.671 167.588L141.114 167.393L142.295 170.073L141.852 170.269Z" fill="#FDFDFD"/>
<path d="M90.4312 196.008C89.6354 195.134 89.3093 193.686 89.4593 191.671L89.9551 184.772C90.0986 182.757 90.64 181.159 91.5793 179.985C92.5186 178.811 94.0059 178.042 96.0345 177.67C98.0763 177.298 99.5048 177.546 100.307 178.407C101.109 179.274 101.436 180.703 101.299 182.711L100.809 189.611C100.666 191.626 100.118 193.23 99.1721 194.423C98.2263 195.617 96.726 196.399 94.6843 196.771C92.636 197.13 91.2271 196.882 90.4312 196.008ZM96.0802 193.054C96.2955 192.63 96.4259 192.082 96.4716 191.41L97.1108 182.47C97.163 181.785 97.1043 181.263 96.9478 180.918C96.7912 180.572 96.4129 180.448 95.8258 180.559C95.2648 180.663 94.88 180.924 94.6712 181.348C94.456 181.772 94.3255 182.32 94.2798 182.992L93.6406 191.932C93.5949 192.604 93.6406 193.119 93.7841 193.478C93.9276 193.836 94.2929 193.96 94.88 193.856C95.467 193.745 95.8649 193.478 96.0802 193.054Z" fill="white"/>
<path d="M104.24 176.418L112.374 174.938L112.178 177.709L108.206 178.433L107.873 183.109L111.337 182.476L111.135 185.339L107.671 185.972L107.071 194.234L102.909 194.991L104.24 176.418Z" fill="white"/>
<path d="M114.325 174.579L122.46 173.099L122.264 175.87L118.291 176.594L117.959 181.27L121.423 180.637L121.22 183.5L117.757 184.133L117.17 192.389L113.008 193.145L114.325 174.579Z" fill="white"/>
<path d="M124.41 172.74L132.871 171.201L132.668 173.999L128.37 174.781L128.043 179.392L131.318 178.792L131.116 181.635L127.841 182.235L127.443 187.785L131.788 186.996L131.592 189.767L123.086 191.319L124.41 172.74Z" fill="white"/>
<path d="M134.794 170.849L139.974 169.903C142.035 169.525 143.568 169.603 144.566 170.132C145.57 170.66 146.001 171.84 145.87 173.673C145.779 174.912 145.551 175.929 145.172 176.718C144.794 177.514 144.148 178.192 143.235 178.766L145.172 187.282L140.874 188.065L139.4 180.116L138.212 180.331L137.619 188.652L133.457 189.408L134.794 170.849ZM139.556 177.768C140.391 177.618 140.991 177.292 141.356 176.796C141.722 176.301 141.937 175.616 141.996 174.742C142.054 173.901 141.944 173.301 141.663 172.936C141.383 172.571 140.861 172.46 140.104 172.597L138.754 172.844L138.388 177.983L139.556 177.768Z" fill="white"/>
<path d="M151.597 159.561L103.144 168.162V167.771L151.597 159.169V159.561Z" fill="white"/>
<path d="M143.848 160.408L147.579 143.127L160.684 155.002L143.848 160.408ZM147.781 143.76L144.291 159.913L160.031 154.859L147.781 143.76Z" fill="#D65517"/>
<path d="M93.3591 225.725L77.3711 222.628L88.0493 210.335L93.3591 225.725ZM78.0038 222.406L92.8568 225.288L87.9254 210.987L78.0038 222.406Z" fill="#D65517"/>
<path d="M132.204 200.045L83.751 208.646V208.255L132.204 199.653V200.045Z" fill="white"/>
<path d="M100.411 75.1038C100.065 73.7539 101.083 72.2214 102.459 72.0192C102.687 70.3302 104.468 69.0129 106.151 69.2999C106.953 69.4368 107.677 69.8737 108.467 70.0368C109.23 70.1998 110.026 70.1085 110.802 70.1933C111.578 70.278 112.407 70.6041 112.746 71.3019C113.124 72.0844 112.739 73.0626 112.087 73.63C111.435 74.2038 110.574 74.4582 109.739 74.6995C110.169 74.7777 110.43 75.2668 110.371 75.7037C110.319 76.1341 110.026 76.5058 109.7 76.7928C108.61 77.7449 106.96 78.0057 105.629 77.4319L103.685 76.7993C102.4 77.3014 100.763 76.4537 100.411 75.1038Z" fill="#263238"/>
<path d="M106.034 78.8666C106.412 79.0491 106.908 78.8405 107.103 78.4688C107.299 78.097 107.221 77.621 106.973 77.2754C106.725 76.9363 106.334 76.7211 105.923 76.6232C105.512 76.5254 105.088 76.5254 104.664 76.545C104.018 76.5776 103.366 76.6493 102.739 76.8384C102.518 76.9037 102.296 76.9884 102.126 77.1449C101.957 77.3014 101.846 77.5427 101.905 77.7645C101.989 78.0775 102.342 78.2275 102.648 78.3188C103.803 78.6709 104.99 78.9187 106.19 79.0622" fill="#FF725E"/>
<path d="M106.868 78.397C107.749 76.2711 111.428 75.2146 112.661 75.9646C113.678 74.869 115.616 74.8168 116.686 75.8667C118.062 75.6841 119.438 75.5081 120.815 75.3255C121.519 75.2342 122.256 75.1429 122.922 75.4037C123.58 75.6646 124.115 76.4015 123.887 77.0732C125.361 76.9362 126.614 78.7557 125.961 80.0795C126.718 80.4577 126.992 81.5663 126.503 82.251C128.016 83.1379 129.373 84.2792 130.501 85.6225C130.971 86.1834 131.428 86.8355 131.421 87.5659C131.415 88.2963 130.723 89.0527 130.019 88.8506C130.586 89.2353 130.893 89.9787 130.756 90.6569C131.408 90.4417 131.963 91.3678 131.689 92.0003C131.415 92.6329 130.71 92.9394 130.058 93.1611C129.406 93.3763 128.695 93.598 128.29 94.1589C128.381 94.3415 128.505 94.4458 128.649 94.4914C130.084 94.9936 130.965 96.4348 130.547 97.9021C130.508 98.039 130.475 98.1629 130.443 98.2738C130.26 98.9389 129.51 99.7606 129.04 100.269C127.853 101.56 126.927 101.73 125.381 102.552C126.209 103.445 124.396 106.732 120.528 105.532C115.055 109.34 110.913 111.531 104.644 113.807C103.75 114.133 102.628 114.401 101.943 113.742C101.285 114.199 100.384 114.14 99.6539 113.807C98.9298 113.475 98.3428 112.907 97.7753 112.347C96.0728 112.49 94.3441 111.427 93.7049 109.842C92.3611 109.399 91.2196 108.369 90.6521 107.071C88.9822 107.156 87.4428 105.499 87.658 103.836C87.3188 101.874 87.3058 99.8519 87.6189 97.889C86.51 98.039 85.6293 96.7934 85.7011 95.6783C85.7794 94.5632 86.4904 93.6111 87.1688 92.7307C86.4773 93.2133 85.4597 92.4894 85.3619 91.6482C85.2641 90.8069 85.7663 90.0244 86.3012 89.3723C87.084 88.4136 87.9842 87.5528 88.9691 86.8094C88.8452 85.3291 90.0194 83.1705 91.0696 82.1141C95.303 77.8753 98.6559 75.9776 106.868 78.397Z" fill="#263238"/>
<path d="M114.598 84.7618C114.292 83.6597 113.189 82.9815 112.067 83.1967L100.045 83.751C96.3531 84.4553 95.3029 89.5745 96.1639 93.2329C97.1163 97.2956 98.4405 102.219 99.8168 105.049C102.576 110.742 108.153 109.81 108.153 109.81C108.153 109.803 109.497 114.14 109.497 114.14L111.023 119.187C112.635 118.385 122.745 112.399 122.745 112.399L114.598 84.7618Z" fill="#FFBF9D"/>
<path d="M105.009 100.185C104.996 100.139 104.461 100.204 103.593 100.348C103.378 100.387 103.163 100.406 103.085 100.276C102.987 100.139 103.006 99.8845 103.039 99.6107C103.085 99.0433 103.13 98.4434 103.176 97.8173C103.352 95.2675 103.411 93.2003 103.306 93.1937C103.202 93.1872 102.98 95.2479 102.804 97.7977C102.765 98.4238 102.732 99.0237 102.693 99.5911C102.687 99.8519 102.628 100.165 102.837 100.452C102.941 100.595 103.13 100.661 103.274 100.654C103.424 100.654 103.541 100.621 103.646 100.595C104.5 100.38 105.022 100.23 105.009 100.185Z" fill="#263238"/>
<path d="M108.153 109.816C108.153 109.816 111.5 109.171 114.761 105.565C114.761 105.565 115.146 110.312 108.793 111.877L108.153 109.816Z" fill="#FF9A6C"/>
<path d="M105.289 89.9005C105.439 90.1026 106.229 89.744 107.233 89.5679C108.231 89.3723 109.099 89.4179 109.171 89.1766C109.197 89.0658 109.001 88.8897 108.616 88.7723C108.238 88.6484 107.677 88.5962 107.077 88.7071C106.477 88.818 105.974 89.0723 105.661 89.3201C105.348 89.5744 105.224 89.8092 105.289 89.9005Z" fill="#263238"/>
<path d="M97.4223 92.522C97.6246 92.6655 98.1334 92.3003 98.8183 92.0851C99.4902 91.8438 100.123 91.8308 100.195 91.596C100.227 91.4852 100.077 91.3221 99.7707 91.2243C99.4706 91.12 99.0075 91.1069 98.5378 91.2634C98.0747 91.42 97.7159 91.7134 97.5332 91.9743C97.3506 92.2351 97.331 92.4503 97.4223 92.522Z" fill="#263238"/>
<path d="M94.5136 96.9956C94.2461 96.0501 94.207 95.0132 94.5984 94.1133C94.8136 93.6242 95.1528 93.1872 95.3224 92.6721C95.6812 91.57 95.1593 90.3896 95.068 89.2354C94.9506 87.742 95.6094 86.216 96.7705 85.2704C97.7359 84.4879 99.0079 84.0966 99.8494 83.1836C100.476 82.5054 100.808 81.599 101.474 80.9599C102.765 79.7143 104.826 79.8774 106.581 80.236C107.273 81.2859 106.894 82.5445 106.529 83.7445C106.164 84.9509 105.237 85.9747 104.076 86.4638C103.176 86.8421 102.028 87.0116 101.611 87.8985C101.174 88.831 101.865 89.9527 101.585 90.9439C101.18 92.359 99.2102 92.5677 98.2578 93.6894C97.5272 94.5567 97.5272 95.7957 97.3967 96.9239C97.2728 98.0521 96.8227 99.3368 95.7334 99.6628C95.2637 98.802 94.781 97.9347 94.5136 96.9956Z" fill="#263238"/>
<path d="M105.028 83.1445C107.703 82.1598 110.573 81.6968 113.423 81.7946C114.271 81.8207 115.178 81.925 115.844 82.4532C116.431 82.9162 116.731 83.6466 116.972 84.3509C117.722 86.5681 117.781 89.581 117.657 91.9156L115.478 94.5371C113.176 94.7784 112.863 90.7744 112.321 88.9028C110.612 88.7723 109.027 87.5724 108.44 85.9617C106.953 85.6095 105.655 84.54 105.028 83.1445Z" fill="#263238"/>
<path d="M115.238 93.7285C114.879 92.4373 116.34 91.6482 117.658 91.9156C118.382 92.0656 119.073 92.6134 119.471 93.9763C120.521 97.6217 116.647 97.9217 116.608 97.8238C116.581 97.7651 115.655 95.2414 115.238 93.7285Z" fill="#FFBF9D"/>
<path d="M117.318 96.1218C117.331 96.1087 117.397 96.1479 117.514 96.1674C117.631 96.187 117.821 96.1674 117.99 96.0435C118.336 95.7892 118.479 95.0849 118.31 94.4262C118.225 94.0937 118.062 93.7937 117.873 93.5654C117.684 93.3307 117.455 93.1937 117.253 93.2133C117.044 93.2263 116.946 93.3828 116.927 93.4937C116.907 93.6111 116.953 93.6763 116.933 93.6893C116.927 93.7024 116.836 93.6502 116.822 93.4937C116.816 93.4155 116.836 93.3176 116.901 93.2263C116.966 93.1285 117.083 93.0568 117.227 93.0307C117.514 92.972 117.84 93.1546 118.055 93.4024C118.284 93.6502 118.473 93.9763 118.571 94.3545C118.76 95.0979 118.584 95.8935 118.101 96.1935C117.866 96.337 117.625 96.3174 117.494 96.2652C117.351 96.2131 117.305 96.1348 117.318 96.1218Z" fill="#FF9A6C"/>
<path d="M118.244 97.4847C118.244 97.4847 118.251 97.4978 118.27 97.5304C118.29 97.5565 118.309 97.6086 118.368 97.6478C118.459 97.7521 118.655 97.8434 118.916 97.876C119.177 97.9086 119.503 97.863 119.862 97.7521C120.044 97.6934 120.234 97.6151 120.423 97.5108C120.612 97.4065 120.808 97.2826 120.984 97.1L120.932 97.0934C121.179 97.5499 121.688 97.9673 122.334 98.0586C122.973 98.1564 123.736 97.863 124.16 97.2304L124.095 97.2434C124.258 97.3673 124.467 97.4195 124.676 97.3934C124.878 97.3673 125.074 97.276 125.237 97.1391C125.4 97.0021 125.524 96.813 125.569 96.5978C125.615 96.3826 125.602 96.1609 125.543 95.9457C125.419 95.5153 125.119 95.1436 124.735 94.8893C124.35 94.6284 123.913 94.4654 123.469 94.3024L123.495 94.3871C123.736 94.1067 123.815 93.7089 123.763 93.3437C123.71 92.972 123.547 92.6133 123.293 92.3264C123.032 92.0395 122.706 91.8243 122.354 91.6547C122.001 91.4852 121.63 91.3613 121.258 91.2374L121.29 91.3156C121.46 90.9569 121.434 90.52 121.277 90.1548C121.121 89.7831 120.847 89.4571 120.501 89.2353C119.836 88.8115 119.053 88.7202 118.329 88.6289L118.381 88.681C118.296 87.8333 117.768 87.0703 117.05 86.692C116.326 86.3138 115.459 86.3203 114.774 86.6594L114.852 86.6986C114.767 86.0073 114.304 85.4465 113.756 85.1269C113.208 84.8074 112.543 84.7161 111.988 84.9183L112.047 84.9509C111.819 84.2987 111.251 83.8618 110.69 83.6792C110.116 83.4901 109.51 83.5358 109.053 83.7901L109.105 83.8097C108.975 83.464 108.733 83.2032 108.492 82.9945C108.244 82.7858 107.983 82.6293 107.722 82.5315C107.201 82.3163 106.685 82.3293 106.313 82.4337C106.268 82.4467 106.222 82.4597 106.176 82.4728C106.131 82.4858 106.092 82.5119 106.052 82.525C105.974 82.5641 105.896 82.5902 105.837 82.6293C105.713 82.7141 105.602 82.7728 105.531 82.8445C105.459 82.9097 105.4 82.9619 105.361 83.001C105.322 83.0336 105.302 83.0532 105.309 83.0532C105.309 83.0532 105.328 83.0401 105.374 83.0075C105.42 82.9684 105.472 82.9228 105.55 82.8575C105.622 82.7858 105.739 82.7336 105.863 82.6489C105.929 82.6097 106 82.5837 106.079 82.551C106.118 82.538 106.157 82.5184 106.203 82.4989C106.248 82.4858 106.294 82.4728 106.339 82.4663C106.705 82.3685 107.207 82.3619 107.716 82.5771C107.97 82.675 108.231 82.8315 108.466 83.0401C108.701 83.2423 108.929 83.5032 109.053 83.8292L109.066 83.8683L109.105 83.8488C109.549 83.6075 110.129 83.5618 110.684 83.751C111.232 83.9336 111.767 84.3509 111.982 84.977L111.995 85.0226L112.041 85.0096C112.569 84.8204 113.202 84.9117 113.73 85.2182C114.252 85.5247 114.696 86.066 114.767 86.7116L114.774 86.7833L114.839 86.7507C115.491 86.4312 116.333 86.4247 117.018 86.7899C117.703 87.1485 118.211 87.8789 118.29 88.6875L118.296 88.7332L118.342 88.7397C119.066 88.831 119.829 88.9223 120.462 89.3266C120.788 89.5353 121.049 89.8483 121.192 90.194C121.343 90.5396 121.362 90.9374 121.206 91.2634L121.179 91.3221L121.245 91.3417C121.982 91.583 122.738 91.8504 123.234 92.3981C123.476 92.6655 123.632 93.0111 123.684 93.3568C123.736 93.7024 123.658 94.0611 123.443 94.3219L123.391 94.3806L123.463 94.4067C123.906 94.5697 124.337 94.7262 124.708 94.9806C125.08 95.2218 125.361 95.574 125.478 95.9783C125.602 96.3761 125.517 96.8261 125.204 97.0739C124.917 97.3282 124.467 97.4065 124.18 97.1782L124.141 97.1456L124.115 97.1847C123.717 97.7912 122.986 98.0782 122.373 97.9869C121.753 97.9021 121.258 97.5108 121.016 97.0674L120.997 97.0282L120.964 97.0608C120.801 97.2304 120.612 97.3608 120.423 97.4652C120.234 97.5695 120.051 97.6478 119.875 97.7064C119.523 97.8238 119.203 97.8695 118.942 97.8434C118.688 97.8173 118.498 97.7325 118.407 97.6412C118.283 97.5434 118.251 97.4847 118.244 97.4847Z" fill="#455A64"/>
<path d="M130.515 88.8701C130.515 88.8701 130.547 88.7854 130.573 88.6093C130.593 88.4332 130.606 88.1658 130.515 87.8333C130.423 87.5072 130.221 87.1094 129.83 86.8159C129.445 86.5225 128.864 86.3268 128.245 86.4507L128.29 86.4834C128.212 85.8964 127.892 85.2769 127.344 84.8335C127.077 84.6118 126.744 84.4357 126.385 84.3379C126.02 84.2335 125.629 84.2531 125.244 84.2205C125.055 84.2074 124.859 84.1748 124.676 84.1096C124.494 84.0444 124.331 83.927 124.194 83.7836C123.913 83.4966 123.724 83.1119 123.391 82.8119C122.739 82.225 121.682 82.0489 120.834 82.4989L120.919 82.538C120.75 81.6837 120.169 80.8686 119.341 80.4381C118.48 79.9882 117.429 80.0012 116.607 80.4055L116.686 80.4447C116.425 79.3621 115.479 78.5535 114.474 78.4166C113.463 78.2796 112.478 78.7491 111.95 79.4665L112.009 79.4534C111.513 79.2187 110.985 79.1404 110.489 79.1339C109.993 79.1339 109.53 79.1795 109.099 79.2904C108.245 79.486 107.553 79.8382 107.032 80.1773C106.51 80.5294 106.158 80.8751 105.955 81.1424C105.844 81.2663 105.792 81.3837 105.74 81.4555C105.694 81.5272 105.675 81.5663 105.675 81.5663C105.681 81.5728 105.773 81.4163 105.981 81.162C106.19 80.9012 106.542 80.5621 107.064 80.2229C107.586 79.8904 108.271 79.5513 109.119 79.3621C109.536 79.2578 110 79.2122 110.489 79.2187C110.972 79.2317 111.487 79.31 111.963 79.5382L111.996 79.5578L112.022 79.5252C112.531 78.8404 113.483 78.384 114.455 78.5209C115.414 78.6513 116.327 79.4339 116.575 80.4708L116.594 80.5425L116.66 80.5099C117.449 80.1186 118.46 80.1121 119.288 80.5425C120.084 80.9533 120.645 81.7424 120.808 82.5641L120.821 82.6423L120.887 82.6032C121.682 82.1793 122.693 82.3424 123.32 82.8967C123.633 83.1771 123.828 83.5553 124.122 83.8618C124.266 84.0118 124.448 84.1357 124.644 84.2074C124.84 84.2792 125.042 84.3118 125.237 84.3248C125.629 84.3574 126.014 84.3379 126.359 84.4357C126.712 84.527 127.025 84.6965 127.286 84.9117C127.821 85.3356 128.134 85.9356 128.212 86.5029L128.218 86.542L128.258 86.5355C128.851 86.4181 129.412 86.5942 129.791 86.8746C130.175 87.155 130.378 87.5398 130.475 87.8593C130.573 88.1789 130.567 88.4463 130.554 88.6223C130.534 88.7788 130.508 88.8701 130.515 88.8701Z" fill="#455A64"/>
<path d="M96.6726 101.874C96.666 101.88 96.7117 101.75 96.5812 101.574C96.516 101.489 96.4116 101.411 96.2681 101.352C96.1246 101.293 95.942 101.28 95.7463 101.287C95.5506 101.287 95.3288 101.313 95.107 101.247C94.8853 101.189 94.67 101.032 94.5004 100.817C94.3308 100.602 94.2069 100.328 94.1221 100.028C94.0307 99.728 93.9655 99.402 93.8481 99.0629C93.6133 98.3847 93.0849 97.7978 92.6478 97.113C92.4326 96.7674 92.2565 96.3826 92.1847 95.9522C92.1195 95.5349 92.1847 95.0653 92.4783 94.7197C92.7653 94.3676 93.1893 94.1458 93.5806 93.8524C93.7763 93.7089 93.972 93.5394 94.1155 93.3307C94.2656 93.122 94.3373 92.8612 94.3699 92.6068C94.4221 92.0917 94.3047 91.5765 94.2525 91.0678C94.2264 90.8135 94.2134 90.5526 94.259 90.3048C94.3047 90.057 94.4352 89.8288 94.6243 89.6592C94.8918 89.4375 95.2375 89.3332 95.5637 89.1767C95.7267 89.0984 95.8898 89.0071 96.0203 88.8767C96.1507 88.7463 96.2486 88.5832 96.3008 88.4071C96.3986 88.055 96.3529 87.6963 96.3529 87.3637C96.3399 87.0246 96.3986 86.6986 96.516 86.3986C96.7574 85.7986 97.2401 85.3161 97.8076 85.1074C98.3751 84.8922 99.0013 84.9118 99.5166 85.1204L99.5819 85.1465L99.5884 85.0813C99.6862 83.9531 100.332 83.0271 101.063 82.5054C101.434 82.238 101.839 82.075 102.224 81.9837C102.609 81.8924 102.974 81.8728 103.3 81.912C103.959 81.9902 104.415 82.2837 104.683 82.5054C104.82 82.6163 104.918 82.7141 104.976 82.7793C105.009 82.8119 105.029 82.8315 105.048 82.851C105.068 82.8641 105.074 82.8771 105.074 82.8771C105.074 82.8771 105.068 82.8641 105.055 82.851C105.035 82.8315 105.016 82.8054 104.989 82.7728C104.931 82.701 104.839 82.6032 104.702 82.4858C104.435 82.2576 103.978 81.9511 103.307 81.8598C102.974 81.8142 102.596 81.8272 102.204 81.9185C101.813 82.0098 101.402 82.1728 101.017 82.4467C100.26 82.9815 99.5949 83.9205 99.4905 85.0813L99.5558 85.0422C99.0143 84.8139 98.362 84.7944 97.7684 85.0226C97.1683 85.2443 96.6595 85.74 96.4117 86.3725C96.2812 86.6855 96.2225 87.0377 96.2355 87.3768C96.2355 87.7159 96.2747 88.068 96.1833 88.3876C96.0985 88.7202 95.8246 88.9484 95.5115 89.0919C95.1984 89.2419 94.8396 89.3462 94.5461 89.594C94.3373 89.7831 94.1938 90.0375 94.1416 90.3048C94.0894 90.5722 94.1025 90.8461 94.1286 91.1069C94.1873 91.6286 94.3047 92.1308 94.2525 92.6199C94.2264 92.8612 94.1612 93.1024 94.0177 93.2916C93.8807 93.4872 93.6981 93.6502 93.5089 93.7872C93.124 94.0741 92.6935 94.3024 92.3869 94.6741C92.2369 94.8567 92.126 95.0784 92.0869 95.3066C92.0412 95.5349 92.0412 95.7696 92.0803 95.9914C92.1521 96.4348 92.3413 96.8326 92.563 97.1848C93.0131 97.876 93.535 98.4564 93.7633 99.115C93.8807 99.4411 93.9459 99.7672 94.0438 100.074C94.1351 100.38 94.2656 100.661 94.4417 100.876C94.6178 101.098 94.8461 101.261 95.0809 101.319C95.3223 101.378 95.5441 101.352 95.7398 101.345C95.9355 101.339 96.1051 101.345 96.2486 101.397C96.3856 101.45 96.4899 101.528 96.5552 101.6C96.6921 101.75 96.6595 101.88 96.6726 101.874Z" fill="#455A64"/>
<path d="M87.7885 98.7824C87.7885 98.7824 87.795 98.7564 87.8015 98.7042C87.808 98.6455 87.8146 98.5672 87.8276 98.4694C87.8472 98.2542 87.8798 97.9542 87.9254 97.563C87.9711 97.1717 88.0037 96.6891 88.1016 96.1348C88.1994 95.5935 88.3755 94.9545 88.8452 94.4328C89.08 94.1719 89.3801 93.9502 89.6606 93.6828C89.8041 93.5459 89.9411 93.4024 90.0454 93.2263C90.1563 93.0503 90.2281 92.8481 90.2477 92.6329C90.2868 92.2025 90.1433 91.7786 90.1433 91.3482C90.1433 91.133 90.1889 90.9178 90.3129 90.7417C90.4303 90.5591 90.6129 90.4157 90.7956 90.2722C90.9782 90.1287 91.1739 89.9918 91.3435 89.8092C91.5131 89.6266 91.624 89.3853 91.6566 89.131C91.7153 88.6223 91.5457 88.1332 91.474 87.6376C91.4349 87.3898 91.4153 87.1355 91.4805 86.9007C91.5392 86.6594 91.7023 86.4573 91.9176 86.3268C92.3546 86.066 92.9156 86.0464 93.4113 85.7856C93.6592 85.6486 93.8549 85.4269 93.9723 85.1791C94.0897 84.9313 94.1484 84.6639 94.2006 84.4096C94.2528 84.1487 94.2985 83.8944 94.3767 83.6531C94.455 83.4118 94.5659 83.1836 94.742 83.0206C95.1008 82.6749 95.6161 82.6097 96.0988 82.5576C96.5815 82.5054 97.0838 82.4532 97.4948 82.1989C97.9122 81.9511 98.2123 81.5859 98.4863 81.2468C98.7668 80.9012 99.0146 80.549 99.3343 80.2947C99.9735 79.7795 100.737 79.5447 101.428 79.4795C102.126 79.4143 102.765 79.5447 103.287 79.7339C103.809 79.9295 104.207 80.2164 104.514 80.4577C104.807 80.7186 105.029 80.9338 105.153 81.0968C105.218 81.1685 105.27 81.2272 105.309 81.2729C105.342 81.312 105.362 81.3316 105.368 81.3316C105.368 81.3316 105.355 81.3055 105.322 81.2663C105.283 81.2207 105.238 81.1555 105.172 81.0838C105.048 80.9142 104.833 80.6925 104.54 80.4251C104.233 80.1773 103.835 79.8838 103.307 79.6817C102.778 79.4795 102.133 79.3426 101.422 79.4078C100.717 79.473 99.9344 79.7012 99.269 80.2295C98.9364 80.4968 98.682 80.849 98.408 81.1946C98.134 81.5337 97.834 81.8859 97.4426 82.1206C97.0512 82.3619 96.5685 82.4076 96.0858 82.4597C95.8444 82.4858 95.5966 82.5119 95.3487 82.5836C95.1008 82.6489 94.8595 82.7662 94.6638 82.9554C94.4681 83.1379 94.3441 83.3858 94.2659 83.6336C94.1876 83.8879 94.1419 84.1422 94.0832 84.4031C94.031 84.6574 93.9723 84.9117 93.8614 85.1465C93.7505 85.3813 93.5744 85.5769 93.3526 85.7008C92.896 85.9551 92.3285 85.9682 91.8589 86.2486C91.624 86.3921 91.4349 86.6203 91.3761 86.8877C91.3044 87.155 91.3305 87.4224 91.3696 87.6767C91.4479 88.1789 91.611 88.668 91.5523 89.1375C91.5197 89.3723 91.4283 89.5875 91.2718 89.757C91.1152 89.9331 90.9261 90.0635 90.7434 90.207C90.5608 90.3505 90.3716 90.5004 90.2411 90.7026C90.1041 90.8982 90.052 91.1461 90.052 91.3678C90.0585 91.8243 90.1955 92.2416 90.1629 92.6459C90.1368 93.0503 89.8824 93.3828 89.6084 93.6437C89.3344 93.9045 89.0344 94.1328 88.793 94.4002C88.3103 94.9414 88.1407 95.6001 88.0429 96.1479C87.9515 96.7022 87.9254 97.1847 87.8863 97.5825C87.8537 97.9738 87.8276 98.2738 87.8146 98.489C87.808 98.5868 87.8015 98.6651 87.795 98.7237C87.7819 98.7564 87.7819 98.7824 87.7885 98.7824Z" fill="#455A64"/>
<path d="M90.2736 93.7024C90.2736 93.7024 90.2475 93.7024 90.2019 93.7154C90.1562 93.7285 90.091 93.7546 90.0258 93.8263C89.8953 93.9567 89.804 94.2437 89.8953 94.5828C89.941 94.7523 90.0453 94.9153 90.1627 95.0914C90.2736 95.2675 90.4041 95.4501 90.4759 95.6783C90.5411 95.9066 90.5215 96.1609 90.4563 96.4283C90.3911 96.6956 90.2932 96.963 90.241 97.2695C90.1823 97.5695 90.2345 97.9412 90.4693 98.2021C90.6911 98.4629 91.0042 98.6455 91.2195 98.9129C91.4413 99.1802 91.5 99.5585 91.4674 99.9302C91.4413 100.308 91.3565 100.693 91.3499 101.104C91.3434 101.306 91.3695 101.521 91.4413 101.724C91.513 101.926 91.637 102.108 91.787 102.265C92.0936 102.578 92.4719 102.793 92.8242 103.047C93.1764 103.295 93.5091 103.615 93.6004 104.045C93.6982 104.476 93.6004 104.932 93.5939 105.402C93.5874 105.636 93.6134 105.878 93.6917 106.106C93.7765 106.334 93.92 106.53 94.0831 106.686C94.4223 107.006 94.8333 107.208 95.2116 107.423C95.5899 107.638 95.9422 107.88 96.19 108.212C96.451 108.538 96.6532 108.903 96.9532 109.197C97.1033 109.34 97.2794 109.458 97.4751 109.523C97.6708 109.588 97.873 109.595 98.0687 109.588C98.2579 109.582 98.447 109.575 98.6297 109.588C98.8058 109.608 98.9819 109.653 99.1385 109.725C99.4581 109.869 99.7386 110.077 99.993 110.286C100.254 110.495 100.495 110.703 100.75 110.879C101.258 111.238 101.832 111.375 102.315 111.355C102.804 111.342 103.215 111.212 103.522 111.055C103.829 110.899 104.037 110.723 104.161 110.599C104.285 110.469 104.337 110.39 104.337 110.39C104.324 110.371 104.109 110.716 103.502 111.016C103.202 111.166 102.791 111.284 102.315 111.29C101.839 111.303 101.285 111.16 100.795 110.808C100.547 110.632 100.306 110.429 100.052 110.214C99.7908 110.006 99.5168 109.79 99.1776 109.64C99.008 109.569 98.8254 109.516 98.6362 109.497C98.447 109.477 98.2579 109.49 98.0687 109.49C97.8795 109.49 97.6903 109.49 97.5142 109.425C97.3381 109.366 97.175 109.256 97.0315 109.125C96.751 108.851 96.5488 108.486 96.2814 108.153C96.027 107.801 95.6486 107.547 95.2703 107.332C94.892 107.11 94.4875 106.914 94.1679 106.608C94.0113 106.458 93.8809 106.275 93.8026 106.067C93.7309 105.858 93.7048 105.636 93.7113 105.408C93.7178 104.952 93.8222 104.489 93.7178 104.026C93.6656 103.797 93.5482 103.582 93.4047 103.406C93.2547 103.23 93.0786 103.086 92.8959 102.956C92.5371 102.702 92.1588 102.487 91.8718 102.193C91.7283 102.043 91.6174 101.874 91.5522 101.691C91.4869 101.502 91.4608 101.306 91.4674 101.111C91.4739 100.713 91.5587 100.328 91.5848 99.9432C91.6174 99.565 91.5522 99.1542 91.3108 98.8607C91.076 98.5738 90.7629 98.3977 90.5541 98.1499C90.3323 97.9086 90.2867 97.5825 90.3389 97.2891C90.3845 96.9956 90.4824 96.7217 90.5476 96.4478C90.6128 96.1805 90.6324 95.9066 90.5541 95.6653C90.4759 95.424 90.3389 95.2414 90.228 95.0653C90.1106 94.8958 90.0062 94.7328 89.9605 94.5762C89.8692 94.2567 89.954 93.9763 90.0649 93.8459C90.1693 93.7089 90.2802 93.7154 90.2736 93.7024Z" fill="#455A64"/>
<path d="M108.004 100.478C107.821 100.276 107.508 100.256 107.293 100.432C106.64 100.967 105.995 101.508 105.342 102.043L105.127 102.219C105.375 102.578 105.747 103.086 106.086 103.354C106.425 103.621 106.875 103.791 107.299 103.699C107.619 103.628 107.958 103.386 108.16 103.132C108.512 102.689 108.839 102.219 108.754 101.652C108.682 101.254 108.271 100.778 108.004 100.478Z" fill="#FF9A6C"/>
<path d="M120.149 96.1609C120.149 96.1609 120.39 96.1478 120.795 96.2848C121.193 96.4152 121.767 96.7413 122.165 97.4064C122.367 97.7325 122.51 98.1368 122.55 98.5868C122.582 99.0368 122.51 99.5259 122.308 99.9954C122.113 100.465 121.793 100.908 121.356 101.247C120.919 101.593 120.358 101.808 119.777 101.841C119.19 101.88 118.61 101.756 118.12 101.489C117.631 101.228 117.246 100.824 116.998 100.38C116.509 99.4802 116.548 98.4694 116.875 97.7847C117.044 97.4325 117.279 97.1782 117.501 96.976C117.723 96.7739 117.951 96.6369 118.14 96.5456C118.336 96.4543 118.492 96.4152 118.603 96.4022C118.714 96.3891 118.773 96.3957 118.773 96.3957C118.779 96.4152 118.531 96.4022 118.16 96.5978C117.977 96.6956 117.762 96.8326 117.546 97.0413C117.338 97.2434 117.109 97.5043 116.959 97.8368C116.659 98.502 116.633 99.4737 117.109 100.328C117.344 100.752 117.709 101.13 118.179 101.378C118.642 101.626 119.197 101.743 119.758 101.71C120.319 101.678 120.847 101.469 121.265 101.15C121.682 100.83 121.995 100.4 122.184 99.9563C122.38 99.5128 122.452 99.0433 122.426 98.6129C122.393 98.1825 122.263 97.7912 122.073 97.4717C121.702 96.8261 121.154 96.4935 120.775 96.35C120.384 96.187 120.149 96.1739 120.149 96.1609Z" fill="#E0E0E0"/>
<path d="M107.305 95.4044C107.416 95.8218 107.866 96.0761 108.303 95.9652C108.74 95.8544 109.008 95.4305 108.897 95.0066C108.786 94.5893 108.336 94.3349 107.899 94.4458C107.462 94.5501 107.194 94.9805 107.305 95.4044Z" fill="#263238"/>
<path d="M99.8434 98.0391C99.9543 98.4564 100.404 98.7108 100.841 98.5999C101.279 98.489 101.546 98.0651 101.435 97.6413C101.324 97.2239 100.874 96.9696 100.437 97.0804C100 97.1913 99.7325 97.6217 99.8434 98.0391Z" fill="#263238"/>
<path d="M98.4606 95.1957C98.578 95.287 99.0281 94.674 99.8174 94.4915C100.607 94.2958 101.292 94.6349 101.35 94.498C101.383 94.4393 101.246 94.2567 100.946 94.1002C100.652 93.9437 100.183 93.8328 99.6869 93.9567C99.1977 94.0741 98.8259 94.3871 98.6367 94.6545C98.441 94.9349 98.4019 95.1566 98.4606 95.1957Z" fill="#263238"/>
<path d="M105.962 93.259C106.105 93.3437 106.581 92.6068 107.501 92.2873C108.414 91.9612 109.262 92.2351 109.321 92.0786C109.354 92.0069 109.171 91.8308 108.799 91.7004C108.434 91.57 107.866 91.5178 107.292 91.7199C106.718 91.9221 106.314 92.3134 106.118 92.6394C105.909 92.972 105.89 93.2198 105.962 93.259Z" fill="#263238"/>
<path d="M106.686 103.595C106.679 103.602 106.783 103.667 106.992 103.693C107.201 103.719 107.52 103.66 107.847 103.471C108.173 103.276 108.512 102.963 108.734 102.506C108.845 102.278 108.91 101.997 108.877 101.71C108.845 101.424 108.727 101.156 108.571 100.915C108.414 100.674 108.225 100.465 108.029 100.282C107.931 100.191 107.788 100.08 107.599 100.093C107.41 100.113 107.305 100.23 107.22 100.302C106.881 100.602 106.562 100.882 106.268 101.143C105.733 101.626 105.407 101.939 105.433 101.965C105.453 101.991 105.818 101.73 106.385 101.28C106.692 101.032 107.025 100.765 107.377 100.484C107.573 100.308 107.684 100.282 107.866 100.465C108.042 100.641 108.225 100.837 108.362 101.058C108.662 101.495 108.727 102.01 108.532 102.415C108.342 102.826 108.042 103.132 107.762 103.328C107.475 103.523 107.194 103.595 107.005 103.602C106.803 103.602 106.692 103.569 106.686 103.595Z" fill="#263238"/>
<path d="M82.9616 83.9009C82.9877 83.9205 83.1573 83.5031 83.7379 82.9945C84.0314 82.7467 84.4293 82.4858 84.9446 82.3163C85.4534 82.1402 86.0862 82.0619 86.745 82.2119L86.8429 82.2315L86.8624 82.1337C86.9994 81.4163 87.4625 80.686 88.1866 80.1903C88.8976 79.6947 89.8956 79.4274 90.8415 79.7013L90.9589 79.7339L90.9915 79.6165C91.3372 78.4622 92.2048 77.3471 93.392 76.6884C94.3052 76.1798 95.3554 76.0102 96.3208 76.1276C97.2928 76.2385 98.1799 76.6232 98.8648 77.1645L98.9105 77.2036L98.9692 77.184C100.072 76.8449 101.161 76.7732 102.107 76.8841C103.053 76.9819 103.855 77.2427 104.488 77.5232C105.753 78.0905 106.334 78.6839 106.36 78.6448C106.366 78.6383 106.327 78.6057 106.255 78.5339C106.184 78.4687 106.079 78.3644 105.929 78.2535C105.636 78.0188 105.179 77.6992 104.54 77.3992C103.907 77.0993 103.092 76.8123 102.12 76.7015C101.154 76.571 100.039 76.6297 98.8909 76.9754L98.9953 76.9949C98.2843 76.4211 97.358 76.0167 96.3404 75.8928C95.3293 75.7689 94.2204 75.9385 93.255 76.4798C92.0026 77.171 91.1024 78.3383 90.7371 79.5643L90.8871 79.4795C89.85 79.1796 88.7867 79.486 88.0366 80.0208C87.2734 80.5555 86.7841 81.3446 86.6537 82.1141L86.7646 82.0359C86.0601 81.8924 85.4013 81.9902 84.8729 82.1858C84.338 82.375 83.9401 82.6619 83.6466 82.9293C83.3595 83.1966 83.1834 83.451 83.0725 83.6336C82.9943 83.7966 82.9551 83.9009 82.9616 83.9009Z" fill="#263238"/>
<path d="M106.745 74.1256C106.745 74.1256 107.097 74.1973 107.71 74.0278C108.304 73.8582 109.204 73.3952 109.765 72.3583C110.032 71.8432 110.182 71.191 110.091 70.5063C110.006 69.8281 109.712 69.1108 109.178 68.5369C108.643 67.963 107.84 67.5783 106.979 67.5457C106.125 67.5 105.205 67.7674 104.514 68.3934L104.664 68.3804C104.201 68.1 103.613 67.9956 103.046 68.0869C102.576 68.1587 102.139 68.3543 101.78 68.6543C101.428 68.9608 101.18 69.3716 101.076 69.8085C100.854 70.6759 101.096 71.6149 101.689 72.2018L101.8 71.9997C101.089 71.8562 100.391 72.1562 99.9475 72.6127C99.4844 73.0626 99.2691 73.7017 99.3082 74.2756C99.3865 75.4429 100.182 76.2776 100.926 76.5906C101.683 76.9297 102.361 76.9037 102.792 76.8515C103.013 76.8254 103.176 76.7798 103.281 76.7471C103.392 76.7145 103.444 76.6885 103.444 76.6819C103.437 76.6624 103.216 76.7341 102.778 76.7732C102.354 76.8058 101.696 76.7993 100.985 76.4537C100.287 76.1341 99.5626 75.332 99.5039 74.2625C99.4713 73.7343 99.6735 73.1735 100.098 72.7692C100.508 72.3649 101.135 72.104 101.741 72.2344L102.139 72.3192L101.852 72.0323C101.33 71.5106 101.109 70.6498 101.311 69.8737C101.409 69.4825 101.63 69.1238 101.944 68.8499C102.257 68.5825 102.655 68.3999 103.079 68.3412C103.587 68.263 104.116 68.3543 104.527 68.6021L104.605 68.6477L104.677 68.5825C105.309 68.0087 106.164 67.7543 106.96 67.7935C107.762 67.8261 108.499 68.1717 109.001 68.6999C109.51 69.2281 109.791 69.8998 109.882 70.5389C109.973 71.1845 109.849 71.7975 109.602 72.2866C109.093 73.2778 108.245 73.7539 107.671 73.943C107.097 74.1321 106.738 74.0995 106.745 74.1256Z" fill="#263238"/>
<path d="M127.013 77.4319C127.019 77.4319 127.026 77.3797 127.032 77.2753C127.039 77.171 127.039 77.0145 127.026 76.8123C126.986 76.408 126.869 75.8081 126.484 75.1559C126.106 74.5103 125.447 73.806 124.475 73.4343C123.516 73.0626 122.264 73.0235 121.135 73.5778L121.279 73.5974C120.489 72.8083 119.335 72.254 118.076 72.1757C117.143 72.117 116.23 72.3518 115.467 72.7692C114.704 73.1865 114.09 73.78 113.666 74.4321L113.784 74.3799C112.766 74.2299 111.807 74.3734 111.025 74.6668C110.235 74.9538 109.622 75.3777 109.179 75.7755C108.728 76.1798 108.441 76.5645 108.272 76.8319C108.102 77.1058 108.03 77.2688 108.043 77.2688C108.083 77.2949 108.37 76.6428 109.27 75.8733C109.72 75.5016 110.327 75.1038 111.09 74.8429C111.846 74.569 112.773 74.4451 113.745 74.6016L113.816 74.6147L113.856 74.5495C114.26 73.9299 114.854 73.3691 115.578 72.9778C116.302 72.5866 117.169 72.3648 118.05 72.4235C119.244 72.4953 120.346 73.0235 121.096 73.7669L121.161 73.8256L121.24 73.7865C122.29 73.2583 123.477 73.2778 124.397 73.6169C125.33 73.956 125.969 74.6082 126.347 75.2212C126.732 75.8407 126.876 76.4145 126.934 76.8058C126.999 77.2101 126.993 77.4319 127.013 77.4319Z" fill="#263238"/>
<path d="M93.3335 121.594C93.3335 121.594 93.0204 120.961 94.8142 118.94C96.6146 116.925 108.682 112.288 108.682 112.288C108.682 112.288 113.875 118.164 118.362 114.153C121.63 111.232 121.924 108.695 121.924 108.695C121.924 108.695 133.261 107.801 136.575 109.353L136.288 121.581L131.135 121.613L93.3335 121.594Z" fill="#861041"/>
<path d="M118.949 154.2L139.366 136.547L137.683 125.97L148.146 123.694C148.146 123.694 151.617 136.384 149.549 140.968C147.481 145.546 124.018 158.328 124.018 158.328L118.949 154.2Z" fill="#FFBF9D"/>
<path d="M136.047 109.151C136.308 109.216 139.106 109.647 142.974 114.114C146.692 118.405 149.863 126.478 149.863 126.478L136.445 129.745L136.047 109.151Z" fill="#861041"/>
<path d="M116.373 156.104L110.783 159.058C110.783 159.058 107.763 163.349 107.3 164.445C106.836 165.541 106.256 168.332 106.256 168.332C106.256 168.332 107.345 169.479 107.939 167.875L108.578 166.656L107.906 169.545C107.906 169.545 109.022 170.542 109.713 169.029C110.405 167.516 110.763 166.056 110.763 166.056L112.772 163.675L110.496 169.545C110.496 169.545 110.059 170.725 111.142 170.699C111.572 170.686 112.675 168.645 112.675 168.645C112.675 168.645 113.379 169.714 114.097 168.847C114.827 167.966 117.606 164.582 117.606 164.582C117.606 164.582 121.318 160.61 121.337 160.5C121.344 160.48 124.012 158.328 124.012 158.328L118.943 154.2L116.491 155.993C116.464 156.039 116.419 156.078 116.373 156.104Z" fill="#FFBF9D"/>
<path d="M107.933 169.434C107.939 169.434 107.979 169.316 108.037 169.101C108.096 168.866 108.181 168.56 108.279 168.188C108.376 167.797 108.494 167.334 108.618 166.825C108.683 166.571 108.748 166.297 108.813 166.023C108.885 165.749 109.003 165.482 109.14 165.208C109.694 164.132 110.386 163.258 110.888 162.645C111.142 162.339 111.351 162.091 111.501 161.921C111.651 161.752 111.729 161.66 111.723 161.654C111.716 161.647 111.625 161.732 111.468 161.895C111.312 162.058 111.09 162.293 110.829 162.593C110.314 163.199 109.609 164.067 109.042 165.162C108.905 165.436 108.787 165.717 108.709 165.997C108.644 166.277 108.579 166.545 108.52 166.806C108.403 167.314 108.292 167.777 108.2 168.175C108.116 168.553 108.05 168.86 107.992 169.101C107.946 169.31 107.926 169.434 107.933 169.434Z" fill="#FF9A6C"/>
<path d="M115.532 163.656C115.526 163.649 115.48 163.708 115.395 163.825C115.31 163.936 115.2 164.099 115.056 164.302C114.776 164.706 114.384 165.28 113.96 165.912V165.919C113.941 165.958 113.921 165.997 113.901 166.036C113.549 166.747 113.236 167.399 113.014 167.869C112.903 168.103 112.819 168.299 112.76 168.43C112.701 168.56 112.675 168.638 112.682 168.645C112.688 168.651 112.734 168.58 112.799 168.449C112.871 168.319 112.969 168.136 113.086 167.901C113.327 167.438 113.654 166.799 113.999 166.082C114.019 166.043 114.038 166.004 114.058 165.964L114.051 165.971C114.475 165.332 114.854 164.758 115.115 164.341C115.245 164.132 115.356 163.962 115.428 163.845C115.5 163.728 115.539 163.662 115.532 163.656Z" fill="#FF9A6C"/>
<path d="M86.6731 119.781C86.6992 119.833 86.7187 119.892 86.7383 119.95C86.8296 120.205 86.8818 120.479 86.9014 120.753C86.9079 120.876 86.8949 121.013 86.921 121.137C86.9405 121.222 86.9927 121.287 87.0253 121.366C87.2275 121.855 87.1819 122.442 87.1688 122.957C87.1493 123.544 87.1558 124.163 87.4624 124.659C87.7689 125.161 88.48 125.454 88.9627 125.122C88.8909 125.487 89.1779 125.865 89.5367 125.957C89.8955 126.048 90.2934 125.898 90.5608 125.637C90.8283 125.376 90.9783 125.017 91.0696 124.659C91.0435 125.096 91.474 125.467 91.9111 125.474C92.3481 125.48 92.7526 125.187 92.9809 124.815C93.2092 124.444 93.3005 124 93.3527 123.57C93.4049 123.133 93.5027 122.318 93.6201 121.9C93.6201 121.9 94.1681 121.992 94.4225 122.011C94.7617 122.044 94.4942 122.018 94.4942 122.018C94.6769 121.835 94.8204 121.522 95.0226 121.105C95.3748 120.387 95.6423 119.924 95.9097 119.272C96.1119 118.783 96.2424 118.294 95.9358 117.975C95.2052 117.205 93.7767 118.77 93.7767 118.77C93.5745 118.229 91.9176 118.138 91.598 118.861C91.4675 118.464 91.5197 118.229 91.1936 117.961C90.8674 117.694 90.4238 117.557 90.0194 117.668C89.615 117.779 89.2823 118.17 89.3084 118.588C88.9692 118.04 88.2582 117.74 87.632 117.883C87.2536 117.968 86.9144 118.209 86.6926 118.529C86.5818 118.692 86.5035 118.868 86.4513 119.057C86.4317 119.122 86.4056 119.201 86.4122 119.272C86.4187 119.305 86.4317 119.337 86.4448 119.37C86.5165 119.514 86.6078 119.637 86.6731 119.781Z" fill="#FFBF9D"/>
<path d="M84.9247 118.724C84.5659 118.711 84.168 118.783 83.9267 119.057C83.6396 119.377 83.5809 120.009 83.6135 120.433C84.1158 120.524 84.3702 120.544 84.8725 120.642C84.9769 120.661 85.0682 120.635 85.153 120.694C85.3813 120.857 85.3487 121.411 85.44 121.679C85.6031 122.142 86.1967 122.37 86.6533 122.2C87.1164 122.031 87.41 121.542 87.4361 121.053C87.4622 120.563 87.2404 120.081 86.9273 119.709C86.438 119.116 85.6944 118.751 84.9247 118.724Z" fill="#FFBF9D"/>
<path d="M89.3012 118.451C89.3926 118.457 89.3926 119.95 89.3012 121.796C89.2099 123.635 89.0534 125.128 88.962 125.122C88.8707 125.115 88.8707 123.622 88.962 121.776C89.0599 119.931 89.2099 118.444 89.3012 118.451Z" fill="#FF9A6C"/>
<path d="M91.6046 118.764C91.6959 118.757 91.8133 120.12 91.6698 121.796C91.5263 123.472 91.1741 124.796 91.0893 124.776C90.9914 124.757 91.1937 123.42 91.3306 121.77C91.4741 120.12 91.5068 118.77 91.6046 118.764Z" fill="#FF9A6C"/>
<path d="M93.8486 119.077C93.9464 119.077 93.9856 120.211 93.8095 121.581C93.6333 122.95 93.4246 124.046 93.3333 124.039C93.2354 124.033 93.2941 122.905 93.4703 121.542C93.6464 120.179 93.7573 119.07 93.8486 119.077Z" fill="#FF9A6C"/>
<path d="M85.6486 118.959C85.6486 118.92 85.8899 118.868 86.2357 119.024C86.5749 119.174 86.9662 119.572 87.1554 120.1C87.3381 120.635 87.3968 121.092 87.3837 121.476C87.3446 121.894 87.0445 122.011 87.038 121.959C87.0119 121.92 87.175 121.776 87.1489 121.47C87.1098 121.17 87.0054 120.681 86.8423 120.218C86.6727 119.748 86.3857 119.409 86.1182 119.233C85.8508 119.051 85.6421 119.011 85.6486 118.959Z" fill="#FF9A6C"/>
<path d="M136.046 115.32C136.138 115.32 136.307 118.542 136.418 122.526C136.529 126.511 136.542 129.739 136.444 129.745C136.353 129.745 136.183 126.524 136.073 122.539C135.968 118.555 135.955 115.32 136.046 115.32Z" fill="#263238"/>
</g>
<defs>
<filter id="filter0_d" x="13.5" y="60" width="205" height="205" filterUnits="userSpaceOnUse" color-interpolation-filters="sRGB">
<feFlood flood-opacity="0" result="BackgroundImageFix"/>
<feColorMatrix in="SourceAlpha" type="matrix" values="0 0 0 0 0 0 0 0 0 0 0 0 0 0 0 0 0 0 127 0" result="hardAlpha"/>
<feMorphology radius="4" operator="dilate" in="SourceAlpha" result="effect1_dropShadow"/>
<feOffset dy="4"/>
<feGaussianBlur stdDeviation="4"/>
<feComposite in2="hardAlpha" operator="out"/>
<feColorMatrix type="matrix" values="0 0 0 0 0 0 0 0 0 0 0 0 0 0 0 0 0 0 0.1 0"/>
<feBlend mode="normal" in2="BackgroundImageFix" result="effect1_dropShadow"/>
<feBlend mode="normal" in="SourceGraphic" in2="effect1_dropShadow" result="shape"/>
</filter>
<radialGradient id="paint0_radial" cx="0" cy="0" r="1" gradientUnits="userSpaceOnUse" gradientTransform="translate(123.186 193.212) scale(37.0705 37.0603)">
<stop offset="0.3494" stop-color="#D65517"/>
<stop offset="0.4286" stop-color="#DE7644"/>
<stop offset="0.5405" stop-color="#E89F7C"/>
<stop offset="0.6492" stop-color="#F0C1AB"/>
<stop offset="0.752" stop-color="#F7DCCF"/>
<stop offset="0.8475" stop-color="#FBEFEA"/>
<stop offset="0.933" stop-color="#FEFBF9"/>
<stop offset="1" stop-color="white"/>
</radialGradient>
<radialGradient id="paint1_radial" cx="0" cy="0" r="1" gradientUnits="userSpaceOnUse" gradientTransform="translate(115.613 172.82) rotate(-15.6249) scale(56.9118 56.8985)">
<stop offset="0.1627" stop-color="#E92878"/>
<stop offset="1" stop-color="#2B0716"/>
</radialGradient>
<radialGradient id="paint2_radial" cx="0" cy="0" r="1" gradientUnits="userSpaceOnUse" gradientTransform="translate(118.727 172.655) scale(56.9123 56.8966)">
<stop offset="0.1627" stop-color="#EE2A7B"/>
<stop offset="1" stop-color="#9A154C"/>
</radialGradient>
</defs>
</svg>
