<svg width="82" height="40" viewBox="0 0 82 40" fill="none" xmlns="http://www.w3.org/2000/svg">
<path d="M65.1001 17.7002L69.0001 21.6002L72.9001 17.7002" stroke="#4B6E82" stroke-width="2" stroke-linecap="round" stroke-linejoin="round"/>
<path d="M35.9084 24V14.2H42.3064V15.642H37.7004V18.33H41.8864V19.73H37.7004V22.558H42.3064V24H35.9084ZM43.8622 24V14.2H45.6542L50.2602 21.102V14.2H52.0522V24H50.2602L45.6542 17.112V24H43.8622Z" fill="#4B6E82"/>
<path fill-rule="evenodd" clip-rule="evenodd" d="M20 11C15.0294 11 11 15.0294 11 20C11 24.9706 15.0294 29 20 29C24.9706 29 29 24.9706 29 20C29 15.0294 24.9706 11 20 11ZM9 20C9 13.9249 13.9249 9 20 9C26.0751 9 31 13.9249 31 20C31 26.0751 26.0751 31 20 31C13.9249 31 9 26.0751 9 20Z" fill="#8CAEC5"/>
<path fill-rule="evenodd" clip-rule="evenodd" d="M9 20C9 19.4477 9.44772 19 10 19H30C30.5523 19 31 19.4477 31 20C31 20.5523 30.5523 21 30 21H10C9.44772 21 9 20.5523 9 20Z" fill="#8CAEC5"/>
<path fill-rule="evenodd" clip-rule="evenodd" d="M17.0002 20.0001C17.0688 23.0749 18.1263 26.0353 20 28.4493C21.8737 26.0353 22.9312 23.0749 22.9998 20.0001C22.9312 16.9253 21.8737 13.965 20 11.5509C18.1263 13.965 17.0688 16.9253 17.0002 20.0001ZM20 10.0001L19.2617 9.32568C16.5969 12.243 15.0825 16.029 15.0002 19.9793C14.9999 19.9932 14.9999 20.0071 15.0002 20.0209C15.0825 23.9713 16.5969 27.7572 19.2617 30.6745C19.4511 30.8819 19.7191 31.0001 20 31.0001C20.2809 31.0001 20.5489 30.8819 20.7383 30.6745C23.4031 27.7572 24.9175 23.9713 24.9998 20.0209C25.0001 20.0071 25.0001 19.9932 24.9998 19.9793C24.9175 16.029 23.4031 12.243 20.7383 9.32568L20 10.0001Z" fill="#8CAEC5"/>
</svg>
