<svg width="34" height="34" viewBox="0 0 34 34" fill="none" xmlns="http://www.w3.org/2000/svg">
<path fill-rule="evenodd" clip-rule="evenodd" d="M34.0004 29.7719C34.0004 32.1069 32.1077 34 29.773 34H4.22853C1.89333 34 0 32.1069 0 29.7719V4.22814C0 1.89313 1.89333 0 4.22853 0H29.773C32.1077 0 34.0004 1.89313 34.0004 4.22814V29.7719Z" fill="#8EC23C"/>
<path fill-rule="evenodd" clip-rule="evenodd" d="M16.8327 15.8662C15.3426 15.8662 13.958 16.318 12.8077 17.0915L16.2224 19.2352V20.4209C16.4188 20.3759 16.6227 20.3501 16.8327 20.3501C18.3437 20.3501 19.5696 21.5756 19.5696 23.0875C19.5696 24.5987 18.3437 25.8242 16.8327 25.8242C15.3213 25.8242 14.0962 24.5987 14.0962 23.0875C14.0962 22.2939 14.4358 21.5813 14.9753 21.0812C13.4173 20.7638 12.0024 20.0549 10.8374 19.0609C10.0629 20.2113 9.61078 21.5967 9.61078 23.0875C9.61078 27.0755 12.8443 30.3089 16.8327 30.3089C20.8211 30.3089 24.0544 27.0755 24.0544 23.0875C24.0544 19.0996 20.8211 15.8662 16.8327 15.8662Z" fill="#CAFC9D"/>
<path fill-rule="evenodd" clip-rule="evenodd" d="M25.1713 12.0299C25.1713 16.6354 21.4377 20.368 16.8323 20.368C12.2272 20.368 8.49359 16.6354 8.49359 12.0299C8.49359 7.42473 12.2272 3.69092 16.8323 3.69092C21.4377 3.69092 25.1713 7.42473 25.1713 12.0299Z" fill="#CAFC9D"/>
<path fill-rule="evenodd" clip-rule="evenodd" d="M23.7465 5.89993C24.7222 5.86661 25.507 4.67209 25.507 3.69092H20.821C21.9396 4.22705 22.9324 4.98245 23.7465 5.89993Z" fill="#CAFC9D"/>
<path fill-rule="evenodd" clip-rule="evenodd" d="M16.8328 15.8662C14.6605 15.8662 12.7137 16.8263 11.3898 18.3444C12.7922 19.5537 14.6001 20.3047 16.5838 20.3629C16.6656 20.3548 16.7488 20.3501 16.8328 20.3501C16.9168 20.3501 16.9998 20.3548 17.0822 20.3629C19.0651 20.3047 20.8738 19.5541 22.2756 18.3444C20.9519 16.8263 19.0051 15.8662 16.8328 15.8662Z" fill="#FCF5FF"/>
</svg>
