<svg width="44" height="44" viewBox="0 0 44 44" fill="none" xmlns="http://www.w3.org/2000/svg">
<path fill-rule="evenodd" clip-rule="evenodd" d="M42.0005 37.0257C42.0005 39.7728 39.7737 42 37.0271 42H6.97474C4.22744 42 2 39.7728 2 37.0257V6.97428C2 4.22721 4.22744 2 6.97474 2H37.0271C39.7737 2 42.0005 4.22721 42.0005 6.97428V37.0257Z" fill="#8EC23C"/>
<path fill-rule="evenodd" clip-rule="evenodd" d="M21.8032 20.6658C20.0502 20.6658 18.4212 21.1972 17.0679 22.1073L21.0852 24.6293V26.0242C21.3163 25.9713 21.5562 25.9409 21.8032 25.9409C23.5808 25.9409 25.023 27.3827 25.023 29.1615C25.023 30.9393 23.5808 32.3811 21.8032 32.3811C20.0251 32.3811 18.5838 30.9393 18.5838 29.1615C18.5838 28.2278 18.9833 27.3894 19.618 26.8011C17.7851 26.4276 16.1205 25.5937 14.75 24.4243C13.8387 25.7776 13.3068 27.4075 13.3068 29.1615C13.3068 33.8532 17.111 37.6571 21.8032 37.6571C26.4954 37.6571 30.2994 33.8532 30.2994 29.1615C30.2994 24.4697 26.4954 20.6658 21.8032 20.6658Z" fill="#CAFC9D"/>
<path fill-rule="evenodd" clip-rule="evenodd" d="M31.6133 16.1528C31.6133 21.5711 27.2208 25.9624 21.8027 25.9624C16.3849 25.9624 11.9924 21.5711 11.9924 16.1528C11.9924 10.735 16.3849 6.34229 21.8027 6.34229C27.2208 6.34229 31.6133 10.735 31.6133 16.1528Z" fill="#CAFC9D"/>
<path fill-rule="evenodd" clip-rule="evenodd" d="M29.9371 8.94112C31.085 8.90192 32.0082 7.4966 32.0082 6.34229H26.4953C27.8113 6.97303 28.9793 7.86173 29.9371 8.94112Z" fill="#CAFC9D"/>
<path fill-rule="evenodd" clip-rule="evenodd" d="M21.8033 20.6658C19.2476 20.6658 16.9573 21.7953 15.3998 23.5813C17.0496 25.004 19.1766 25.8876 21.5103 25.956C21.6066 25.9465 21.7044 25.9409 21.8033 25.9409C21.9021 25.9409 21.9998 25.9465 22.0967 25.956C24.4295 25.8876 26.5574 25.0044 28.2065 23.5813C26.6493 21.7953 24.359 20.6658 21.8033 20.6658Z" fill="#FCF5FF"/>
<rect x="1" y="1" width="42" height="42" rx="4" stroke="white" stroke-opacity="0.75" stroke-width="2"/>
</svg>
