<svg width="57" height="45" viewBox="0 0 57 45" fill="none" xmlns="http://www.w3.org/2000/svg">
<path d="M44.25 0.5H13C6.09668 0.5 0.5 6.09668 0.5 13V41.125C0.5 42.8506 1.89941 44.25 3.625 44.25H53.625C55.3506 44.25 56.75 42.8506 56.75 41.125V13C56.75 6.09668 51.1533 0.5 44.25 0.5ZM9.875 39.5625H5.1875V25.5H9.875V39.5625ZM9.875 20.8125H5.1875V13C5.1875 9.80469 7.12109 7.05859 9.875 5.84961V20.8125ZM42.6875 39.5625H14.5625V25.5H22.375V30.1875C22.375 31.0508 23.0742 31.75 23.9375 31.75H33.3125C34.1758 31.75 34.875 31.0508 34.875 30.1875V25.5H42.6875V39.5625ZM27.0625 25.5V22.375C27.0625 21.5117 27.7617 20.8125 28.625 20.8125C29.4883 20.8125 30.1875 21.5117 30.1875 22.375V25.5C30.1875 26.3633 29.4883 27.0625 28.625 27.0625C27.7617 27.0625 27.0625 26.3633 27.0625 25.5ZM42.6875 20.8125H34.875V17.6875C34.875 16.8242 34.1758 16.125 33.3125 16.125H23.9375C23.0742 16.125 22.375 16.8242 22.375 17.6875V20.8125H14.5625V5.1875H42.6875V20.8125ZM52.0625 39.5625H47.375V25.5H52.0625V39.5625ZM52.0625 20.8125H47.375V5.84961C50.1289 7.05859 52.0625 9.80469 52.0625 13V20.8125Z" fill="#FF9500"/>
</svg>
