<svg width="16" height="17" viewBox="0 0 16 17" fill="none" xmlns="http://www.w3.org/2000/svg">
<path fill-rule="evenodd" clip-rule="evenodd" d="M12.9234 0.830661C13.1012 0.652875 13.4052 0.778791 13.4052 1.03022V2.34446V3.34224L14.403 3.34224H15.7172C15.9686 3.34224 16.0946 3.64623 15.9168 3.82402L15.358 4.38283C15.2257 4.51514 15.0462 4.58947 14.8591 4.58947H13.1558L12.6465 5.09874L8.99343 8.75174C8.7179 9.02727 8.27119 9.02727 7.99566 8.75174C7.72013 8.47621 7.72014 8.02948 7.99567 7.75395L10.4015 5.34813V3.64486C10.4015 3.45774 10.4759 3.27829 10.6082 3.14597L11.167 2.58716C11.3448 2.40938 11.6487 2.53529 11.6487 2.78672V4.10096L12.158 3.59169V1.88836C12.158 1.70124 12.2323 1.52179 12.3646 1.38947L12.9234 0.830661ZM12.6465 5.09874H13.9607C14.2122 5.09874 14.3381 5.40273 14.1603 5.58052L13.6015 6.13933C13.4692 6.27164 13.2897 6.34598 13.1026 6.34598H11.3993L12.6465 5.09874ZM9.34898 2.83728C9.72635 2.93432 10.1109 2.70706 10.208 2.32968C10.305 1.9523 10.0778 1.5677 9.70039 1.47066C7.13145 0.81006 4.2868 1.48496 2.27311 3.49867C-0.757702 6.52951 -0.757703 11.4435 2.27311 14.4743C5.30392 17.5051 10.2178 17.5051 13.2486 14.4743C15.2623 12.4606 15.9372 9.61592 15.2766 7.04695C15.1796 6.66957 14.795 6.44231 14.4176 6.53935C14.0402 6.63639 13.813 7.02099 13.91 7.39837C14.4515 9.50403 13.8973 11.83 12.2509 13.4765C9.77111 15.9563 5.75064 15.9563 3.27088 13.4765C0.791129 10.9967 0.79113 6.97624 3.27088 4.49646C4.91734 2.84998 7.24334 2.29582 9.34898 2.83728ZM8.34941 5.50789C8.73367 5.5725 9.09755 5.31337 9.16216 4.9291C9.22677 4.54484 8.96765 4.18095 8.58338 4.11634C7.06342 3.86077 5.44353 4.31936 4.26866 5.49424C2.33996 7.42296 2.33996 10.55 4.26866 12.4787C6.19735 14.4075 9.32439 14.4075 11.2531 12.4787C12.428 11.3039 12.8865 9.68395 12.631 8.16397C12.5664 7.77971 12.2025 7.52058 11.8182 7.58519C11.434 7.6498 11.1748 8.01368 11.2394 8.39795C11.4226 9.48716 11.0938 10.6424 10.2553 11.481C8.87767 12.8586 6.64407 12.8586 5.26643 11.481C3.88879 10.1033 3.88879 7.86968 5.26643 6.49203C6.10495 5.65351 7.26021 5.32475 8.34941 5.50789ZM7.26198 7.48981C7.53751 7.76535 7.53751 8.21207 7.26198 8.4876C6.98646 8.76313 6.98646 9.20985 7.26198 9.48538C7.53751 9.76091 7.98423 9.76091 8.25976 9.48538C8.53529 9.20985 8.98201 9.20985 9.25753 9.48538C9.53306 9.76091 9.53306 10.2076 9.25753 10.4832C8.43095 11.3098 7.09079 11.3098 6.26421 10.4832C5.43762 9.65658 5.43762 8.31641 6.26421 7.48981C6.53974 7.21428 6.98646 7.21428 7.26198 7.48981Z" fill="white"/>
</svg>
