<svg width="40" height="40" viewBox="0 0 40 40" fill="none" xmlns="http://www.w3.org/2000/svg">
<path fill-rule="evenodd" clip-rule="evenodd" d="M21 27.3716H12.5V18.8716C12.5 14.1772 16.3056 10.3716 21 10.3716C25.6944 10.3716 29.5 14.1772 29.5 18.8716C29.5 23.566 25.6944 27.3716 21 27.3716ZM10.5 18.8716C10.5 13.0726 15.201 8.37158 21 8.37158C26.799 8.37158 31.5 13.0726 31.5 18.8716C31.5 24.6706 26.799 29.3716 21 29.3716H10.5V18.8716ZM16.9048 21C17.7332 21 18.4048 20.3284 18.4048 19.5C18.4048 18.6716 17.7332 18 16.9048 18C16.0764 18 15.4048 18.6716 15.4048 19.5C15.4048 20.3284 16.0764 21 16.9048 21ZM20.9048 21C21.7332 21 22.4048 20.3284 22.4048 19.5C22.4048 18.6716 21.7332 18 20.9048 18C20.0764 18 19.4048 18.6716 19.4048 19.5C19.4048 20.3284 20.0764 21 20.9048 21ZM26.4048 19.5C26.4048 20.3284 25.7332 21 24.9048 21C24.0764 21 23.4048 20.3284 23.4048 19.5C23.4048 18.6716 24.0764 18 24.9048 18C25.7332 18 26.4048 18.6716 26.4048 19.5Z" fill="#494949"/>
</svg>
