<svg width="24" height="24" viewBox="0 0 24 24" fill="none" xmlns="http://www.w3.org/2000/svg">
<g clip-path="url(#clip0)">
<g clip-path="url(#clip1)">
<path d="M15.3387 11.7715C15.4882 11.7715 15.6094 11.6505 15.6094 11.5012V10.6003C15.6094 10.4511 15.4882 10.3301 15.3387 10.3301H8.66133C8.51183 10.3301 8.39062 10.4511 8.39062 10.6003V11.6082C8.39062 11.7574 8.51183 11.8784 8.66133 11.8784H10.5851C11.2012 11.8784 11.6738 12.1027 11.9605 12.4922H8.66133C8.51183 12.4922 8.39062 12.6132 8.39062 12.7625V13.6633C8.39062 13.8126 8.51183 13.9336 8.66133 13.9336H12.2427C12.1024 14.7463 11.4991 15.2541 10.5563 15.2541H8.66133C8.51183 15.2541 8.39062 15.3751 8.39062 15.5244V16.7183C8.39062 16.7937 8.42221 16.8657 8.47772 16.9169L12.2011 20.3483C12.2511 20.3943 12.3166 20.4199 12.3847 20.4199H14.2472C14.4936 20.4199 14.6118 20.1179 14.4308 19.9511L11.0271 16.8143C12.7528 16.7616 13.9855 15.6117 14.1473 13.9336H15.3387C15.4882 13.9336 15.6094 13.8126 15.6094 13.6633V12.7625C15.6094 12.6132 15.4882 12.4922 15.3387 12.4922H14.0147C13.9361 12.2323 13.8279 11.9912 13.6932 11.7715H15.3387Z" fill="#8CAEC5"/>
</g>
<path d="M14.9939 5.5L17.8747 1.62797C17.9603 1.45669 18.0007 1.2664 17.9922 1.0751C17.9838 0.88381 17.9266 0.697851 17.8261 0.534832C17.7257 0.371814 17.5853 0.237132 17.4182 0.143539C17.2512 0.0499464 17.063 0.000540681 16.8715 4.66184e-09H7.12153C6.92977 -1.74502e-05 6.74119 0.0489811 6.5737 0.142343C6.4062 0.235705 6.26535 0.370332 6.16452 0.533439C6.06368 0.696547 6.00622 0.882721 5.99757 1.07428C5.98893 1.26585 6.02939 1.45644 6.11512 1.62797L8.9939 5.5C-0.185166 11.1128 0.000279585 18.3773 0.000279585 19.3125C0.000279585 21.9014 2.30231 24 5.142 24H18.8525C21.6917 24 23.9937 21.9014 23.9937 19.3125C23.9937 18.3942 24.1224 11.0823 14.9939 5.5ZM14.9937 2L12.9966 5H10.9966L8.99372 2H14.9937ZM21.9937 19.3125C21.9937 20.6564 20.4467 22 18.8525 22H5.142C3.54825 22 1.99661 20.6564 1.99661 19.3125C1.95817 15.5156 4.01184 10.9633 10.4937 7H13.4966C19.9457 10.9459 22.0251 15.5123 21.9937 19.3125Z" fill="#8CAEC5"/>
</g>
<defs>
<clipPath id="clip0">
<rect width="24" height="24" fill="white"/>
</clipPath>
<clipPath id="clip1">
<rect width="7.21875" height="11.5312" fill="white" transform="translate(8.39062 9.60938)"/>
</clipPath>
</defs>
</svg>
