<svg width="18" height="18" viewBox="0 0 18 18" fill="none" xmlns="http://www.w3.org/2000/svg">
<path fill-rule="evenodd" clip-rule="evenodd" d="M12.9591 2.13143C13.2715 1.81901 13.2715 1.31248 12.9591 1.00006C12.6467 0.687642 12.1401 0.687642 11.8277 1.00006L8.44103 4.38674C8.29186 4.53206 8.19922 4.73512 8.19922 4.95982C8.19922 5.08648 8.22865 5.20626 8.28105 5.31271C8.31081 5.37326 8.34868 5.43083 8.39468 5.4838C8.40827 5.49946 8.42246 5.5146 8.43721 5.52916L11.8277 8.91966C12.1401 9.23208 12.6467 9.23208 12.9591 8.91966C13.2715 8.60724 13.2715 8.10071 12.9591 7.78829L10.9306 5.75982H16.9188C17.3606 5.75982 17.7188 5.40165 17.7188 4.95982C17.7188 4.51799 17.3606 4.15982 16.9188 4.15982H10.9307L12.9591 2.13143ZM4.95896 9.00006C5.27138 8.68764 5.77791 8.68764 6.09033 9.00006L9.477 12.3867C9.62617 12.532 9.71881 12.7351 9.71881 12.9598C9.71881 13.0865 9.68938 13.2063 9.63698 13.3127C9.60723 13.3733 9.56935 13.4308 9.52336 13.4838C9.50976 13.4995 9.49557 13.5146 9.48081 13.5292L6.09033 16.9197C5.77791 17.2321 5.27138 17.2321 4.95896 16.9197C4.64654 16.6072 4.64654 16.1007 4.95896 15.7883L6.98742 13.7598H0.999219C0.557391 13.7598 0.199219 13.4017 0.199219 12.9598C0.199219 12.518 0.557391 12.1598 0.999219 12.1598H6.98735L4.95896 10.1314C4.64654 9.81901 4.64654 9.31248 4.95896 9.00006Z" fill="#48CEF3"/>
</svg>
