<svg width="22" height="14" viewBox="0 0 22 14" fill="none" xmlns="http://www.w3.org/2000/svg">
<path d="M0 11.0002V2.3102V2.2002H3.3V10.1202C3.3 10.6482 2.86 10.9269 2.64 11.0002H0Z" fill="#8BC63E"/>
<path d="M22 11.0002V2.3102V2.2002H18.7V10.1202C18.7 10.6482 19.14 10.9269 19.36 11.0002H22Z" fill="#8BC63E"/>
<path d="M4.29102 1.98L6.71102 0H9.79102C9.57102 0.22 8.80102 0.968 7.48102 2.2C5.50102 4.18 6.71102 5.61 7.04102 6.16C8.71302 7.832 10.7443 6.27 11.551 5.28C12.7243 6.27 15.445 8.602 16.941 10.01C16.941 12.54 14.851 11.33 14.631 11.55C12.871 14.52 11.441 12.43 11.111 12.43C10.495 13.398 9.16768 13.2733 8.58102 13.09L4.95102 9.68H4.29102V1.98Z" fill="#8BC63E"/>
<path d="M15.3988 0H11.4388C10.7055 0.66 8.90883 2.332 7.58884 3.74C7.14884 5.764 8.65217 5.75667 9.45884 5.5C10.1188 4.91333 11.6368 3.586 12.4288 2.97C13.2208 2.354 13.3455 3.22667 13.3088 3.74L12.4288 4.62L17.5988 8.8V2.09L15.3988 0Z" fill="#8BC63E"/>
<path d="M1.44655 10.0601C1.92616 10.0601 2.31497 9.67128 2.31497 9.19166C2.31497 8.71205 1.92616 8.32324 1.44655 8.32324C0.96693 8.32324 0.578125 8.71205 0.578125 9.19166C0.578125 9.67128 0.96693 10.0601 1.44655 10.0601Z" fill="white"/>
<path d="M20.552 10.0601C21.0316 10.0601 21.4204 9.67128 21.4204 9.19166C21.4204 8.71205 21.0316 8.32324 20.552 8.32324C20.0724 8.32324 19.6836 8.71205 19.6836 9.19166C19.6836 9.67128 20.0724 10.0601 20.552 10.0601Z" fill="white"/>
</svg>
