<svg width="24" height="24" viewBox="0 0 24 24" fill="none" xmlns="http://www.w3.org/2000/svg">
<path d="M14.9939 5.5L17.8747 1.62797C17.9603 1.45669 18.0007 1.2664 17.9922 1.0751C17.9838 0.88381 17.9266 0.697851 17.8261 0.534832C17.7257 0.371814 17.5853 0.237132 17.4182 0.143539C17.2512 0.0499464 17.063 0.000540681 16.8715 4.66184e-09H7.12153C6.92977 -1.74502e-05 6.74119 0.0489811 6.5737 0.142343C6.4062 0.235705 6.26535 0.370332 6.16452 0.533439C6.06368 0.696547 6.00622 0.882721 5.99757 1.07428C5.98893 1.26585 6.02939 1.45644 6.11512 1.62797L8.9939 5.5C-0.185166 11.1128 0.000279585 18.3773 0.000279585 19.3125C0.000279585 21.9014 2.30231 24 5.142 24H18.8525C21.6917 24 23.9937 21.9014 23.9937 19.3125C23.9937 18.3942 24.1224 11.0823 14.9939 5.5ZM14.9937 2L12.9966 5H10.9966L8.99372 2H14.9937ZM21.9937 19.3125C21.9937 20.6564 20.4467 22 18.8525 22H5.142C3.54825 22 1.99661 20.6564 1.99661 19.3125C1.95817 15.5156 4.01184 10.9633 10.4937 7H13.4966C19.9457 10.9459 22.0251 15.5123 21.9937 19.3125Z" fill="#8CAEC5"/>
</svg>
