<svg width="48" height="48" viewBox="0 0 48 48" fill="none" xmlns="http://www.w3.org/2000/svg">
<path d="M48 48C48 47.9875 48 47.9875 48 47.9875C47.975 47.8625 47.725 46.7375 46.075 39.1C45.4375 36.525 43.3875 34.6125 40.875 34.0875V12.75H38.0625V34.0875C37.05 34.3 36.1125 34.7375 35.3125 35.3625C34.2625 33.9125 32.675 32.9 30.8625 32.575L24.0125 31.35V29.45C24.425 29.175 24.8 28.8625 25.1625 28.525C26.675 29.5 28.4 30.025 30.175 29.7125C31.975 29.3875 33.5875 28.2875 34.975 26.425L35.8 25.325L34.775 24.525C34.55 24.25 33.8375 23.05 33.85 21.1875V14.65C33.85 11.2625 31.6875 8.025 28.8375 6.1625L30.4875 2.8H28.225C26.6125 2.8 25.35 2.2125 23.9 1.525C22.3625 0.8125 20.6125 0 18.375 0C16.1375 0 14.3875 0.8125 12.85 1.5375C11.4 2.225 10.1375 2.8125 8.525 2.8125H6.275L7.7125 5.725C4.5 8.35 2.775 12.4125 2.925 17.0875L2.9125 21.1625C2.8375 23.1375 2.2625 24.275 2.0625 24.475L0.95 25.3125L1.7875 26.4375C3.1875 28.3 4.8 29.4 6.5875 29.725C8.375 30.0375 10.1125 29.5125 11.625 28.525C11.975 28.8625 12.35 29.1625 12.75 29.4375V31.4125L5.6 33C2.35 33.7125 0 36.6 0 39.85V48C1.65 48 46.325 48 48 48ZM39.475 36.75C41.2375 36.75 42.775 37.9 43.2875 39.5625H35.65C36.1625 37.9 37.7125 36.75 39.475 36.75ZM14.05 4.0875C15.5 3.4 16.7625 2.8125 18.375 2.8125C19.9875 2.8125 21.25 3.4 22.7 4.0875C23.7125 4.5625 24.8125 5.075 26.0875 5.375L24.5375 8.5375H12.225L10.6625 5.375C11.9375 5.075 13.0375 4.5625 14.05 4.0875ZM9.875 26.2875C8.9 26.875 7.95 27.1 7.075 26.95C6.25 26.8 5.45 26.3375 4.7 25.5375C5.2875 24.4625 5.6625 22.925 5.7125 21.2375V17.025C5.6 13.5 6.7875 10.425 8.9875 8.35L10.4625 11.35H26.275L27.5625 8.725C29.6625 10.2 31.025 12.5 31.025 14.6625V21.1875C31.025 23.0625 31.5375 24.5375 32.075 25.5125C31.3125 26.3125 30.5 26.8 29.6625 26.95C28.7875 27.1 27.8625 26.8875 26.8875 26.3125C27.75 24.8125 28.2125 23.0875 28.2125 21.2875V18.475C28.2125 16.15 26.3375 14.2625 24.0125 14.2625H23.5875L23.2375 14.5C23.2 14.525 19.225 17.075 9.9375 17.075H8.525V21.2875C8.525 23.075 9.025 24.8 9.875 26.2875ZM11.3375 21.275V19.85C18.875 19.6375 23.0125 17.8 24.325 17.0875C24.95 17.225 25.4 17.7875 25.4 18.4625V21.275C25.4 26.125 21.35 27.7 21.175 27.85V32.1875L18.3625 37.8125L15.55 32.1875V27.825C15.3875 27.6875 11.3375 26.1 11.3375 21.275ZM9.9375 34.9125L13.3875 34.15L16.1 39.575H9.9375V34.9125ZM7.125 45.1875H2.8125V39.85C2.8125 37.9 4.2375 36.175 6.2125 35.7375L7.125 35.5375V45.1875ZM26.8125 45.1875H9.9375V42.375H26.8125V45.1875ZM26.8125 39.5625H20.65L23.3875 34.1L26.8125 34.7125V39.5625ZM32.8625 39.1L31.625 45.1875H29.625V35.2125L30.3625 35.35C31.7 35.5875 32.825 36.45 33.4125 37.65C33.175 38.0875 32.9875 38.575 32.8625 39.1ZM34.5 45.1875L35.075 42.375H43.9125L44.525 45.1875H34.5ZM48 48C48 48 48 47.9875 48 48C48 47.9875 48 48 48 48Z" fill="#A8A6CC"/>
</svg>
