<svg width="22" height="24" viewBox="0 0 22 24" fill="none" xmlns="http://www.w3.org/2000/svg">
<path fill-rule="evenodd" clip-rule="evenodd" d="M17.6 2.18182C16.385 2.18182 15.4 3.15865 15.4 4.36364C15.4 4.74231 15.4973 5.09844 15.6684 5.40882C15.6797 5.4258 15.6906 5.44319 15.7011 5.46098C15.7115 5.47866 15.7213 5.49651 15.7306 5.5145C16.1188 6.13344 16.8109 6.54545 17.6 6.54545C18.815 6.54545 19.8 5.56862 19.8 4.36364C19.8 3.15865 18.815 2.18182 17.6 2.18182ZM14.4738 7.43434C15.2712 8.23273 16.3774 8.72727 17.6 8.72727C20.0301 8.72727 22 6.77361 22 4.36364C22 1.95367 20.0301 0 17.6 0C15.1699 0 13.2 1.95367 13.2 4.36364C13.2 4.7749 13.2574 5.17288 13.3646 5.55013L7.52608 8.9292C6.7287 8.13087 5.62258 7.63636 4.4 7.63636C1.96995 7.63636 0 9.59003 0 12C0 14.41 1.96995 16.3636 4.4 16.3636C5.62286 16.3636 6.7292 15.8689 7.52663 15.0702L13.366 18.4449C13.2579 18.8236 13.2 19.2233 13.2 19.6364C13.2 22.0463 15.1699 24 17.6 24C20.0301 24 22 22.0463 22 19.6364C22 17.2264 20.0301 15.2727 17.6 15.2727C16.3793 15.2727 15.2746 15.7658 14.4775 16.562L8.63557 13.1859C8.74269 12.8088 8.8 12.411 8.8 12C8.8 11.5887 8.74262 11.1907 8.63536 10.8134L14.4738 7.43434ZM6.26994 10.85C6.27908 10.8676 6.28875 10.8852 6.29895 10.9025C6.30924 10.92 6.31994 10.9371 6.33104 10.9538C6.50251 11.2644 6.6 11.6209 6.6 12C6.6 12.3787 6.5027 12.7349 6.33155 13.0453C6.32014 13.0624 6.30915 13.08 6.2986 13.0979C6.28835 13.1154 6.27865 13.133 6.26949 13.1507C5.88126 13.7697 5.18915 14.1818 4.4 14.1818C3.18497 14.1818 2.2 13.205 2.2 12C2.2 10.795 3.18497 9.81818 4.4 9.81818C5.18946 9.81818 5.8818 10.2306 6.26994 10.85ZM15.4 19.6364C15.4 19.2816 15.4854 18.9466 15.6369 18.6505C15.664 18.6151 15.6893 18.5777 15.7124 18.5383C15.7346 18.5005 15.7542 18.462 15.7714 18.4229C16.1662 17.8389 16.8378 17.4545 17.6 17.4545C18.815 17.4545 19.8 18.4314 19.8 19.6364C19.8 20.8413 18.815 21.8182 17.6 21.8182C16.385 21.8182 15.4 20.8413 15.4 19.6364Z" fill="white"/>
</svg>
