<svg width="22" height="22" viewBox="0 0 22 22" fill="none" xmlns="http://www.w3.org/2000/svg">
<path fill-rule="evenodd" clip-rule="evenodd" d="M11.8967 0.557376C11.7283 0.216072 11.3806 0 11 0C10.6194 0 10.2718 0.216072 10.1033 0.557376L7.24577 6.34647L0.855401 7.28051C0.478841 7.33555 0.166161 7.59956 0.0487831 7.96157C-0.0685946 8.32358 0.0296782 8.72083 0.302296 8.98636L4.92551 13.4894L3.83442 19.851C3.77007 20.2261 3.92432 20.6053 4.2323 20.8291C4.54027 21.0528 4.94856 21.0823 5.28548 20.9051L11 17.8998L16.7146 20.9051C17.0515 21.0823 17.4598 21.0528 17.7678 20.8291C18.0757 20.6053 18.23 20.2261 18.1656 19.851L17.0746 13.4894L21.6978 8.98636C21.9704 8.72083 22.0687 8.32358 21.9513 7.96157C21.8339 7.59956 21.5212 7.33555 21.1447 7.28051L14.7543 6.34647L11.8967 0.557376Z" fill="#FF9500"/>
</svg>
