<svg width="23" height="23" viewBox="0 0 23 23" fill="none" xmlns="http://www.w3.org/2000/svg">
<path d="M15.7559 5.25023V5.25C15.7559 5.0398 15.7948 4.84529 15.8726 4.6664C15.9504 4.48736 16.0555 4.33173 16.1877 4.19946C16.32 4.06718 16.4796 3.95819 16.6665 3.87251C16.8532 3.78695 17.0476 3.74808 17.2498 3.75586H17.25C17.4602 3.75586 17.6547 3.79478 17.8336 3.87256C18.0126 3.95041 18.1683 4.05547 18.3005 4.18774C18.4328 4.32001 18.5418 4.47957 18.6275 4.6665C18.713 4.85318 18.7519 5.04758 18.7441 5.24977V5.25C18.7441 5.4602 18.7052 5.65471 18.6274 5.8336C18.5496 6.01264 18.4445 6.16827 18.3123 6.30054C18.18 6.43282 18.0204 6.54181 17.8335 6.62749C17.6468 6.71305 17.4524 6.75192 17.2502 6.74414H17.25C17.0398 6.74414 16.8453 6.70522 16.6664 6.62744C16.4874 6.54959 16.3317 6.44453 16.1995 6.31226C16.0672 6.17999 15.9582 6.02043 15.8725 5.8335C15.787 5.64682 15.7481 5.45242 15.7559 5.25023ZM21.0041 9.88305L21.0059 9.88477V9.87891V1.5H21V1.49414H12.6211V1.49171L12.617 1.49586L2.11695 11.9959L2.12109 12L2.11695 12.0041L10.4959 20.383L10.5 20.3789L10.5041 20.383L21.0041 9.88305ZM11.4184 0.589929C11.7923 0.215955 12.2995 0.00585938 12.8284 0.00585938H21.5C22.049 0.00585938 22.4941 0.450951 22.4941 1V9.67157C22.4941 10.2005 22.284 10.7077 21.9101 11.0816L11.203 21.7887C10.8147 22.177 10.1853 22.177 9.79704 21.7887L0.71125 12.703C0.323014 12.3147 0.323014 11.6853 0.71125 11.297L11.4184 0.589929Z" fill="#8FCDDF" stroke="white" stroke-width="0.0117188"/>
</svg>
