<svg width="30" height="16" viewBox="0 0 30 16" fill="none" xmlns="http://www.w3.org/2000/svg">
<path d="M14.7469 4.59106C12.1561 4.59106 10.0479 6.69925 10.0479 9.29008C10.0479 11.8809 12.1561 13.9891 14.7469 13.9891C16.0018 13.9891 17.1794 13.4987 18.0675 12.6107C18.9517 11.7265 19.4421 10.5449 19.4498 9.29008C19.4575 7.98115 18.9363 6.76875 17.9864 5.87296C17.7548 5.65288 17.3879 5.66446 17.1679 5.89999C16.9478 6.13166 16.9594 6.49847 17.1949 6.71855C17.9092 7.39039 18.2992 8.30162 18.2953 9.28235C18.2915 10.2322 17.9208 11.1241 17.2528 11.7921C16.5848 12.4601 15.6968 12.8307 14.7546 12.8307C12.8009 12.8307 11.214 11.24 11.214 9.29008C11.214 7.3402 12.8048 5.74941 14.7546 5.74941C15.0751 5.74941 15.3338 5.49071 15.3338 5.17024C15.3261 4.84976 15.0674 4.59106 14.7469 4.59106Z" fill="#8BC63E"/>
<path d="M14.7469 11.07C15.73 11.07 16.5269 10.2731 16.5269 9.29C16.5269 8.30694 15.73 7.51001 14.7469 7.51001C13.7638 7.51001 12.9669 8.30694 12.9669 9.29C12.9669 10.2731 13.7638 11.07 14.7469 11.07Z" fill="#8BC63E"/>
<path d="M29.8787 5.83425L29.8749 5.83039C29.7204 5.68753 29.4772 5.69911 29.3382 5.85742L27.7744 7.57563C27.2416 7.12387 26.6856 6.70301 26.1141 6.31303L27.4308 4.35929C27.5466 4.18554 27.5041 3.95001 27.3265 3.83032L27.3188 3.82646C27.1451 3.71062 26.9095 3.7531 26.7898 3.93071L25.4655 5.89217C24.8786 5.52536 24.2724 5.18944 23.6469 4.88055L24.6855 2.72217C24.7782 2.53297 24.6971 2.30517 24.5079 2.2125L24.5002 2.20864C24.311 2.11597 24.0832 2.19706 23.9905 2.38625L22.948 4.55235C22.7472 4.46355 22.5503 4.3786 22.3457 4.29752C21.9055 4.1199 21.4614 3.95774 21.0097 3.81101L21.7317 1.49819C21.7935 1.29741 21.6815 1.08505 21.4808 1.02327L21.473 1.01941C21.2723 0.957628 21.0599 1.0696 20.9981 1.27038L20.2722 3.58707C19.6081 3.39787 18.9324 3.24342 18.2528 3.12373L18.639 0.714376C18.6737 0.505874 18.5308 0.312817 18.3223 0.278067H18.3146C18.1061 0.243316 17.9131 0.386179 17.8783 0.59468L17.4922 3.00789C16.8088 2.91523 16.1215 2.85731 15.4265 2.83414L15.4651 0.386179C15.469 0.177677 15.2991 0.00392568 15.0906 6.4539e-05H15.0828C14.8743 -0.0037966 14.7006 0.166094 14.6967 0.374595L14.6581 2.82256C13.9631 2.82642 13.2758 2.86117 12.5885 2.93453L12.2758 0.509735C12.2488 0.301234 12.0596 0.15451 11.8511 0.181538H11.8433C11.6348 0.208566 11.4881 0.397762 11.5151 0.606264L11.8279 3.0272C11.1445 3.12759 10.4649 3.25887 9.79694 3.42876L9.14441 1.08891C9.08649 0.888127 8.87798 0.768432 8.67721 0.826349L8.66948 0.83021C8.46871 0.888127 8.34901 1.09663 8.40693 1.29741L9.05945 3.6334C8.41078 3.8226 7.76598 4.04654 7.13275 4.30524C7.12116 4.3091 7.10958 4.31296 7.098 4.32068L6.12113 2.12369C6.03618 1.93064 5.81224 1.84569 5.61918 1.93064L5.61146 1.9345C5.4184 2.01944 5.33346 2.24339 5.4184 2.43645L6.39141 4.62571C5.75818 4.91144 5.14039 5.23191 4.54192 5.57942L3.27932 3.57548C3.16735 3.39787 2.93183 3.34381 2.75421 3.45579L2.74648 3.45965C2.56887 3.57162 2.51482 3.80715 2.6268 3.98476L3.88552 5.97711C3.29863 6.35164 2.7349 6.7532 2.18662 7.18951L0.676918 5.42497C0.541778 5.26666 0.29852 5.24736 0.140213 5.3825L0.132493 5.38636C-0.0258142 5.5215 -0.0451143 5.76475 0.0900257 5.92306L1.59201 7.67988C1.19817 8.01966 0.812054 8.37488 0.441384 8.74555L0.302389 8.88456C0.0745812 9.11236 0.0745812 9.47917 0.302389 9.70312C0.530196 9.93092 0.897003 9.93092 1.12095 9.70312L1.25994 9.56412C3.07854 7.74552 5.19832 6.3362 7.56134 5.37864C9.84327 4.45196 12.2565 3.98476 14.7315 3.98476C17.2065 3.98476 19.6197 4.45582 21.9016 5.37864C24.1488 6.28987 26.1721 7.60652 27.9289 9.29384C26.3999 10.7649 24.6546 11.958 22.7434 12.8461C20.7819 13.7535 18.693 14.3172 16.5346 14.5218C12.1947 14.9311 7.81617 13.8384 4.206 11.4406C3.93958 11.263 3.58049 11.3364 3.40288 11.6028C3.22527 11.8692 3.29864 12.2283 3.56505 12.4059C6.87019 14.599 10.7777 15.7651 14.7469 15.7651C15.3801 15.7651 16.0134 15.7342 16.6427 15.6763C18.9363 15.4601 21.1526 14.8616 23.2299 13.9002C25.3805 12.904 27.3304 11.541 29.0254 9.84598L29.1644 9.70698C29.2725 9.59887 29.3343 9.45214 29.3343 9.2977C29.3343 9.14325 29.2725 8.99653 29.1644 8.88842L29.0254 8.74942C28.8015 8.52547 28.5698 8.30538 28.3343 8.09302L29.8865 6.38253C30.0448 6.2165 30.0332 5.97711 29.8787 5.83425Z" fill="#8BC63E"/>
</svg>
