<svg width="159" height="42" viewBox="0 0 159 42" fill="none" xmlns="http://www.w3.org/2000/svg">
<path fill-rule="evenodd" clip-rule="evenodd" d="M102.898 27.5638C102.567 26.9144 102.401 26.106 102.401 25.1397V15.5232H106.96V10.0933H102.401V4H96.2665V10.0933H93.4902V15.5232H96.2665V28.1653C96.2665 29.7124 96.571 30.9005 97.1788 31.7298C97.7869 32.5591 98.6368 33.1185 99.728 33.4078C100.82 33.6985 102.249 33.8439 104.017 33.8439C104.874 33.8439 105.8 33.7878 106.795 33.6776V28.4549C106.298 28.5113 105.772 28.5381 105.22 28.5381C104.004 28.5381 103.229 28.2127 102.898 27.5638ZM51.9163 24.6208C51.3639 25.5754 50.6104 26.3205 49.6573 26.8587C48.7045 27.3984 47.6475 27.6676 46.4873 27.6676C44.5528 27.6676 43.0261 27.0945 41.9066 25.9472C40.7869 24.8012 40.2271 23.3146 40.2271 21.4926C40.2271 19.7237 40.8009 18.2519 41.948 17.0784C43.0937 15.9035 44.6069 15.3156 46.4873 15.3156C47.6475 15.3156 48.7045 15.5851 49.6573 16.124C50.6104 16.6637 51.3639 17.4022 51.9163 18.3422C52.4696 19.2823 52.7462 20.3318 52.7462 21.4926C52.7462 22.6253 52.4696 23.668 51.9163 24.6208ZM47.1089 41.8438C50.7285 41.8438 53.5541 40.8958 55.5847 39.0045C57.6157 37.1111 58.6313 34.5203 58.6313 31.2321V10.4663H52.4969V12.0831C50.8382 10.7299 48.7103 10.0521 46.1134 10.0521C43.6816 10.0521 41.5609 10.5635 39.7514 11.586C37.9409 12.6077 36.5518 13.9833 35.5852 15.7099C34.6178 17.4371 34.1348 19.365 34.1348 21.4926C34.1348 23.5917 34.6178 25.5121 35.5852 27.2534C36.5518 28.9937 37.9483 30.3699 39.7716 31.3771C41.595 32.3873 43.7092 32.8918 46.1134 32.8918C48.7103 32.8918 50.8382 32.2133 52.4969 30.8598V31.2321C52.4969 34.7686 50.5494 36.5369 46.6521 36.5369C45.2157 36.5369 43.8551 36.3017 42.5706 35.8332C41.2845 35.3631 40.1722 34.7551 39.2334 34.0089L36.2068 38.4033C39.1359 40.6955 42.7694 41.8438 47.1089 41.8438ZM67.9576 33.263H61.7397V10.5076H67.9576V33.263ZM89.864 12.5804C91.2854 14.2668 91.9965 16.6706 91.9965 19.7921V33.2631H85.6557V19.7921C85.6557 16.7249 84.1908 15.1918 81.2626 15.1918C80.1296 15.1918 79.1061 15.641 78.1949 16.5392C77.2824 17.4371 76.8545 18.9917 76.9096 21.2015V33.2631H70.7344V10.4663H76.9096V12.4977C77.655 11.7511 78.5945 11.1575 79.7285 10.7153C80.8612 10.2739 81.9531 10.0521 83.0027 10.0521C86.153 10.0521 88.4397 10.8952 89.864 12.5804ZM124.244 17.2023C123.111 16.0002 121.591 15.3988 119.684 15.3988C117.751 15.3988 116.224 16.0002 115.105 17.2023C113.985 18.404 113.426 19.9585 113.426 21.8646C113.426 23.7167 113.999 25.2498 115.146 26.467C116.293 27.6808 117.805 28.2884 119.684 28.2884C121.619 28.2884 123.146 27.7158 124.265 26.569C125.384 25.4233 125.944 23.8547 125.944 21.8646C125.944 19.9585 125.377 18.404 124.244 17.2023ZM125.695 30.9848C125.17 31.7034 124.265 32.3444 122.98 32.9111C121.695 33.4761 120.292 33.7609 118.772 33.7609C116.424 33.7609 114.386 33.236 112.659 32.1854C110.932 31.1359 109.612 29.7054 108.7 27.8952C107.789 26.086 107.333 24.076 107.333 21.8646C107.333 19.6548 107.789 17.6438 108.7 15.8343C109.612 14.0252 110.932 12.5941 112.659 11.5441C114.386 10.4941 116.424 9.96814 118.772 9.96814C120.348 9.96814 121.737 10.2384 122.939 10.777C124.14 11.316 125.059 12.0001 125.695 12.8289V10.4662H131.829V33.2628H125.695V30.9848ZM145.922 15.3988C147.829 15.3988 149.348 16.0002 150.482 17.2023C151.614 18.404 152.181 19.9585 152.181 21.8646C152.181 23.8547 151.622 25.4233 150.502 26.569C149.383 27.7158 147.856 28.2884 145.922 28.2884C144.042 28.2884 142.529 27.6808 141.384 26.467C140.236 25.2498 139.663 23.7167 139.663 21.8646C139.663 19.9585 140.223 18.404 141.342 17.2023C142.462 16.0002 143.987 15.3988 145.922 15.3988ZM149.218 32.9111C150.502 32.3444 151.406 31.7034 151.932 30.9848V33.2628H158.067V10.4662H151.932V12.8289C151.296 12.0001 150.378 11.316 149.176 10.777C147.974 10.2384 146.585 9.96814 145.011 9.96814C142.662 9.96814 140.622 10.4941 138.897 11.5441C137.169 12.5941 135.85 14.0252 134.938 15.8343C134.027 17.6438 133.571 19.6548 133.571 21.8646C133.571 24.076 134.027 26.086 134.938 27.8952C135.85 29.7054 137.169 31.1359 138.897 32.1854C140.622 33.236 142.662 33.7609 145.011 33.7609C146.53 33.7609 147.932 33.4761 149.218 32.9111Z" fill="white"/>
<path fill-rule="evenodd" clip-rule="evenodd" d="M10.7918 23.1486C8.86347 23.1486 7.07163 23.7332 5.58294 24.7342L10.0021 27.5085V29.0428C10.2562 28.9847 10.5201 28.9512 10.7918 28.9512C12.7472 28.9512 14.3336 30.5371 14.3336 32.4938C14.3336 34.4495 12.7472 36.0354 10.7918 36.0354C8.83591 36.0354 7.25051 34.4495 7.25051 32.4938C7.25051 31.4667 7.68992 30.5445 8.38808 29.8974C6.37195 29.4866 4.54081 28.5692 3.03324 27.2829C2.03092 28.7716 1.4458 30.5644 1.4458 32.4938C1.4458 37.6547 5.63041 41.8391 10.7918 41.8391C15.9532 41.8391 20.1376 37.6547 20.1376 32.4938C20.1376 27.3329 15.9532 23.1486 10.7918 23.1486Z" fill="white"/>
<path fill-rule="evenodd" clip-rule="evenodd" d="M21.5829 18.1842C21.5829 24.1443 16.7512 28.9747 10.7913 28.9747C4.83173 28.9747 0 24.1443 0 18.1842C0 12.2246 4.83173 7.39258 10.7913 7.39258C16.7512 7.39258 21.5829 12.2246 21.5829 18.1842Z" fill="white"/>
<path fill-rule="evenodd" clip-rule="evenodd" d="M19.7391 10.2513C21.0018 10.2082 22.0173 8.66233 22.0173 7.39258H15.9531C17.4007 8.0864 18.6855 9.06397 19.7391 10.2513Z" fill="white"/>
<path fill-rule="evenodd" clip-rule="evenodd" d="M10.7919 23.1486C7.98063 23.1486 5.46129 24.391 3.74805 26.3556C5.56285 27.9206 7.90254 28.8925 10.4696 28.9678C10.5755 28.9574 10.6832 28.9512 10.7919 28.9512C10.9006 28.9512 11.008 28.9574 11.1147 28.9678C13.6807 28.8925 16.0214 27.9211 17.8355 26.3556C16.1225 24.391 13.6031 23.1486 10.7919 23.1486Z" fill="#48CEF3"/>
<path fill-rule="evenodd" clip-rule="evenodd" d="M66.8859 5.70009C66.2229 6.34951 65.4207 6.67383 64.4811 6.67383C63.514 6.67383 62.6916 6.34951 62.0156 5.70009C61.3376 5.05016 61 4.25682 61 3.31625C61 2.40374 61.3376 1.62419 62.0156 0.974767C62.6916 0.325092 63.514 0 64.4811 0C65.4207 0 66.2229 0.325092 66.8859 0.974767C67.5491 1.62419 67.8803 2.40374 67.8803 3.31625C67.8803 4.25682 67.5491 5.05016 66.8859 5.70009Z" fill="white"/>
</svg>
