<svg width="24" height="24" viewBox="0 0 24 24" fill="none" xmlns="http://www.w3.org/2000/svg">
<path d="M14.4694 9.0002L14.9996 9.53029C15.0693 9.59995 15.1519 9.65521 15.2429 9.69291C15.3339 9.73061 15.4315 9.75002 15.53 9.75002C15.6285 9.75002 15.726 9.73061 15.817 9.69291C15.908 9.65521 15.9907 9.59995 16.0603 9.53029L23.7803 1.81048C23.921 1.66983 24 1.47907 24 1.28016C24 1.08125 23.921 0.890491 23.7803 0.749841L23.2501 0.219658C23.1095 0.0790127 22.9187 0 22.7198 0C22.5209 0 22.3301 0.0790127 22.1895 0.219658L14.4694 7.93947C14.3288 8.08014 14.2498 8.27091 14.2498 8.46983C14.2498 8.66876 14.3288 8.85953 14.4694 9.0002ZM11.2496 4.28029C11.3192 4.34995 11.4019 4.40521 11.4929 4.44291C11.5839 4.48062 11.6814 4.50002 11.7799 4.50002C11.8784 4.50002 11.9759 4.48062 12.0669 4.44291C12.1579 4.40521 12.2406 4.34995 12.3102 4.28029L14.7802 1.81048C14.9208 1.66983 14.9998 1.47907 14.9998 1.28016C14.9998 1.08125 14.9208 0.890491 14.7802 0.749841L14.25 0.219658C14.1093 0.0790127 13.9186 0 13.7197 0C13.5207 0 13.33 0.0790127 13.1893 0.219658L10.7194 2.68947C10.5787 2.83014 10.4997 3.02092 10.4997 3.21984C10.4997 3.41876 10.5787 3.60953 10.7194 3.7502L11.2496 4.28029ZM23.2501 9.21965C23.1095 9.07901 22.9187 9 22.7198 9C22.5209 9 22.3301 9.07901 22.1895 9.21965L19.7195 11.6895C19.5789 11.8301 19.4999 12.0209 19.4999 12.2198C19.4999 12.4188 19.5789 12.6095 19.7195 12.7502L20.2497 13.2803C20.3194 13.3499 20.402 13.4052 20.493 13.4429C20.584 13.4806 20.6816 13.5 20.7801 13.5C20.8785 13.5 20.9761 13.4806 21.0671 13.4429C21.1581 13.4052 21.2407 13.3499 21.3104 13.2803L23.7803 10.8105C23.921 10.6698 24 10.4791 24 10.2802C24 10.0812 23.921 9.89048 23.7803 9.74983L23.2501 9.21965ZM17.0763 12.5285L12.1638 11.8115L9.96505 7.34887C9.8764 7.16846 9.73896 7.0165 9.56833 6.91023C9.39771 6.80397 9.20071 6.74764 8.9997 6.74764C8.79869 6.74764 8.60169 6.80397 8.43107 6.91023C8.26044 7.0165 8.123 7.16846 8.03435 7.34887L5.83558 11.8115L0.923136 12.5285C0.042016 12.6553 -0.31468 13.7429 0.327666 14.3662L3.88584 17.8349L3.04207 22.7378C3.0157 22.8924 3.02333 23.051 3.06442 23.2024C3.10551 23.3538 3.17908 23.4945 3.28001 23.6146C3.38095 23.7347 3.50682 23.8314 3.6489 23.8979C3.79097 23.9645 3.94584 23.9993 4.10273 24C4.27747 23.9996 4.44935 23.9557 4.60289 23.8723L8.9997 21.5571L13.3965 23.8723C13.5504 23.9544 13.722 23.9976 13.8964 23.998C14.0533 23.9978 14.2082 23.9633 14.3504 23.8971C14.4925 23.8308 14.6185 23.7343 14.7196 23.6143C14.8206 23.4943 14.8942 23.3537 14.9353 23.2023C14.9763 23.0509 14.9839 22.8924 14.9573 22.7378L14.1187 17.8349L17.6761 14.3662C18.3141 13.7429 17.9574 12.6553 17.0763 12.5285ZM11.7016 17.0492L12.3384 20.7722L8.9997 19.0142L5.66373 20.7708L6.30406 17.0501L3.5979 14.412L7.33112 13.867L8.9997 10.4805L10.6683 13.867L14.4056 14.4126L11.7016 17.0492Z" fill="#8CAEC5"/>
</svg>
