<svg width="10" height="10" viewBox="0 0 10 10" fill="none" xmlns="http://www.w3.org/2000/svg">
<path fill-rule="evenodd" clip-rule="evenodd" d="M7.41772 1.16526C7.57393 1.00905 7.57393 0.755781 7.41772 0.599572C7.26151 0.443362 7.00825 0.443362 6.85204 0.599572L5.1587 2.29291C5.08411 2.36557 5.03779 2.4671 5.03779 2.57945C5.03779 2.64278 5.05251 2.70267 5.07871 2.75589C5.09359 2.78617 5.11252 2.81496 5.13552 2.84144C5.14232 2.84927 5.14941 2.85684 5.15679 2.86412L6.85204 4.55937C7.00825 4.71558 7.26151 4.71558 7.41772 4.55937C7.57393 4.40316 7.57393 4.14989 7.41772 3.99368L6.40349 2.97945H9.39759C9.6185 2.97945 9.79759 2.80037 9.79759 2.57945C9.79759 2.35854 9.6185 2.17945 9.39759 2.17945H6.40353L7.41772 1.16526ZM2.61766 5.39957C2.77387 5.24336 3.02714 5.24336 3.18335 5.39957L4.87668 7.09291C4.95127 7.16556 4.99759 7.2671 4.99759 7.37945C4.99759 7.44278 4.98287 7.50267 4.95667 7.55589C4.9418 7.58617 4.92286 7.61496 4.89986 7.64144C4.89306 7.64927 4.88597 7.65684 4.87859 7.66413L3.18335 9.35937C3.02714 9.51558 2.77387 9.51558 2.61766 9.35937C2.46145 9.20316 2.46145 8.94989 2.61766 8.79368L3.63189 7.77945H0.637793C0.416879 7.77945 0.237793 7.60037 0.237793 7.37945C0.237793 7.15854 0.416879 6.97945 0.637793 6.97945H3.63186L2.61766 5.96526C2.46145 5.80905 2.46145 5.55578 2.61766 5.39957Z" fill="#6B9C2E"/>
</svg>
