<svg width="20" height="20" viewBox="0 0 20 20" fill="none" xmlns="http://www.w3.org/2000/svg">
<path fill-rule="evenodd" clip-rule="evenodd" d="M19.6464 0.236988C19.8707 0.426991 20 0.706055 20 1.00001V14C20 16.2091 18.2091 18 16 18C13.7909 18 12 16.2091 12 14C12 11.7909 13.7909 10 16 10C16.7286 10 17.4117 10.1948 18 10.5351V2.18047L8 3.84713V16C8 18.2091 6.20914 20 4 20C1.79086 20 0 18.2091 0 16C0 13.7909 1.79086 12 4 12C4.72857 12 5.41165 12.1948 6 12.5351V3.00001C6 2.51117 6.35341 2.09398 6.8356 2.01361L18.8356 0.0136136C19.1256 -0.0347118 19.4221 0.0469841 19.6464 0.236988ZM18 14C18 12.8954 17.1046 12 16 12C14.8954 12 14 12.8954 14 14C14 15.1046 14.8954 16 16 16C17.1046 16 18 15.1046 18 14ZM4 14C5.10457 14 6 14.8954 6 16C6 17.1046 5.10457 18 4 18C2.89543 18 2 17.1046 2 16C2 14.8954 2.89543 14 4 14Z" fill="#8CAEC5"/>
</svg>
