<svg width="24" height="24" viewBox="0 0 24 24" fill="none" xmlns="http://www.w3.org/2000/svg">
<path fill-rule="evenodd" clip-rule="evenodd" d="M23.3819 0.558107C23.7725 0.948632 23.7725 1.5818 23.3819 1.97232L14.9036 10.4507C15.7214 11.4727 16.2822 12.6542 16.4011 13.9213C16.5534 15.5461 15.9647 17.1678 14.5431 18.5893L13.836 19.2964L4.64361 10.104L5.35072 9.39694C6.77229 7.97538 8.394 7.3866 10.0187 7.53899C11.2859 7.65783 12.4674 8.21863 13.4894 9.03648L21.9677 0.558107C22.3583 0.167583 22.9914 0.167583 23.3819 0.558107ZM7.53465 10.1667L13.7734 16.4054C14.313 15.6135 14.4779 14.8347 14.4098 14.1081C14.3163 13.1106 13.7682 12.067 12.8206 11.1194C11.8731 10.1719 10.8294 9.6238 9.83198 9.53025C9.10538 9.4621 8.32655 9.62705 7.53465 10.1667ZM4.26367 11.1805C4.54782 11.6541 4.39425 12.2684 3.92067 12.5525L2.36728 13.4846L10.4555 21.5728L11.3875 20.0194C11.6717 19.5458 12.2859 19.3922 12.7595 19.6764C13.2331 19.9605 13.3867 20.5748 13.1025 21.0484L11.841 23.1509C11.3389 23.9877 10.1841 24.1298 9.49409 23.4398L0.500245 14.446C-0.18979 13.7559 -0.0476289 12.6011 0.789162 12.0991L2.89168 10.8375C3.36526 10.5534 3.97952 10.707 4.26367 11.1805Z" fill="#8CAEC5"/>
</svg>
