<svg width="22" height="22" viewBox="0 0 22 22" fill="none" xmlns="http://www.w3.org/2000/svg">
<path fill-rule="evenodd" clip-rule="evenodd" d="M21.5253 11.0934C21.5253 11.4094 21.3787 11.6913 21.1497 11.8745C21.0855 11.9259 21.0149 11.9695 20.9392 12.004L1.86722 21.1868C1.49779 21.3647 1.05722 21.299 0.755713 21.0211C0.454207 20.7433 0.352873 20.3095 0.500061 19.9268L3.89753 11.0934L0.500061 2.25998C0.352873 1.87729 0.454207 1.44353 0.755712 1.16566C1.05722 0.88779 1.49779 0.822127 1.86722 1L20.9392 10.1828C21.0152 10.2174 21.0862 10.2613 21.1506 10.313C21.1981 10.351 21.2417 10.3931 21.2811 10.4386C21.4332 10.6141 21.5253 10.843 21.5253 11.0934ZM16.1432 10.0934L3.27222 3.89623L5.65574 10.0934H16.1432ZM5.65574 12.0934H16.1432L3.27222 18.2905L5.65574 12.0934Z" fill="#8CAEC5"/>
</svg>
