<svg width="24" height="16" viewBox="0 0 24 16" fill="none" xmlns="http://www.w3.org/2000/svg">
<path fill-rule="evenodd" clip-rule="evenodd" d="M2 3C2 2.44772 2.44772 2 3 2H14C14.5523 2 15 2.44772 15 3V8V13C15 13.5523 14.5523 14 14 14H3C2.44772 14 2 13.5523 2 13V3ZM17 6.05681V3C17 1.34315 15.6569 0 14 0H3C1.34315 0 0 1.34315 0 3V13C0 14.6569 1.34315 16 3 16H14C15.6569 16 17 14.6569 17 13V9.94319L22.4188 13.8137C22.7236 14.0315 23.1245 14.0606 23.4576 13.8892C23.7907 13.7178 24 13.3746 24 13V3C24 2.62541 23.7907 2.28224 23.4576 2.11083C23.1245 1.93943 22.7236 1.96854 22.4188 2.18627L17 6.05681ZM22 11.0568L17.7205 8L22 4.94319V11.0568Z" fill="#121212"/>
</svg>
