<svg width="18" height="22" viewBox="0 0 18 22" fill="none" xmlns="http://www.w3.org/2000/svg">
<path fill-rule="evenodd" clip-rule="evenodd" d="M2 3C2 2.44772 2.44772 2 3 2H10V5C10 6.65685 11.3431 8 13 8H16V19C16 19.5523 15.5523 20 15 20H3C2.44772 20 2 19.5523 2 19V3ZM14.5858 6L12 3.41421V5C12 5.55228 12.4477 6 13 6H14.5858ZM3 0C1.34315 0 0 1.34315 0 3V19C0 20.6569 1.34315 22 3 22H15C16.6569 22 18 20.6569 18 19V7C18 6.73478 17.8946 6.48043 17.7071 6.29289L11.7071 0.292893C11.5196 0.105357 11.2652 0 11 0H3ZM4 8C4 7.44772 4.44772 7 5 7H7C7.55228 7 8 7.44772 8 8C8 8.55229 7.55228 9 7 9H5C4.44772 9 4 8.55229 4 8ZM5 11C4.44772 11 4 11.4477 4 12C4 12.5523 4.44772 13 5 13H13C13.5523 13 14 12.5523 14 12C14 11.4477 13.5523 11 13 11H5ZM5 15C4.44772 15 4 15.4477 4 16C4 16.5523 4.44772 17 5 17H13C13.5523 17 14 16.5523 14 16C14 15.4477 13.5523 15 13 15H5Z" fill="#8CAEC5"/>
</svg>
