<svg width="40" height="40" viewBox="0 0 40 40" fill="none" xmlns="http://www.w3.org/2000/svg">
<path fill-rule="evenodd" clip-rule="evenodd" d="M22 11C22 10.4477 22.4477 10 23 10H29C29.5523 10 30 10.4477 30 11V17C30 17.5523 29.5523 18 29 18C28.4477 18 28 17.5523 28 17V12H23C22.4477 12 22 11.5523 22 11Z" fill="#494949"/>
<path fill-rule="evenodd" clip-rule="evenodd" d="M11 22C11.5523 22 12 22.4477 12 23V28H17C17.5523 28 18 28.4477 18 29C18 29.5523 17.5523 30 17 30H11C10.4477 30 10 29.5523 10 29V23C10 22.4477 10.4477 22 11 22Z" fill="#494949"/>
<path fill-rule="evenodd" clip-rule="evenodd" d="M29.7071 10.2929C30.0976 10.6834 30.0976 11.3166 29.7071 11.7071L22.7071 18.7071C22.3166 19.0976 21.6834 19.0976 21.2929 18.7071C20.9024 18.3166 20.9024 17.6834 21.2929 17.2929L28.2929 10.2929C28.6834 9.90237 29.3166 9.90237 29.7071 10.2929Z" fill="#494949"/>
<path fill-rule="evenodd" clip-rule="evenodd" d="M18.7071 21.2929C19.0976 21.6834 19.0976 22.3166 18.7071 22.7071L11.7071 29.7071C11.3166 30.0976 10.6834 30.0976 10.2929 29.7071C9.90237 29.3166 9.90237 28.6834 10.2929 28.2929L17.2929 21.2929C17.6834 20.9024 18.3166 20.9024 18.7071 21.2929Z" fill="#494949"/>
</svg>
