<svg width="21" height="21" viewBox="0 0 21 21" fill="none" xmlns="http://www.w3.org/2000/svg">
<path fill-rule="evenodd" clip-rule="evenodd" d="M0.991895 0C0.444087 0 0 0.444192 0 0.99213V10.9134C0 11.1768 0.104662 11.4293 0.290928 11.6154L8.81051 20.1271L8.81072 20.1273C9.08704 20.4039 9.41515 20.6234 9.7763 20.7731C10.1375 20.9229 10.5248 21 10.9158 21C11.3069 21 11.6941 20.9229 12.0553 20.7731C12.4164 20.6234 12.7444 20.404 13.0207 20.1275L13.0211 20.1271L20.1326 13.0139L19.4312 12.3123L20.1347 13.0118C20.6889 12.4541 21 11.6998 21 10.9134C21 10.1271 20.6889 9.37274 20.1347 8.81507L20.1326 8.81299L11.6122 0.290588C11.4262 0.104528 11.1739 0 10.9109 0H0.991895ZM18.7287 11.612L18.7278 11.6129L11.618 18.7244L11.6176 18.7248C11.5255 18.817 11.4161 18.8902 11.2956 18.9401C11.1752 18.99 11.0462 19.0157 10.9158 19.0157C10.7855 19.0157 10.6564 18.99 10.536 18.9401C10.4156 18.8902 10.3062 18.817 10.214 18.7248L10.2132 18.724L1.98379 10.5021V1.98426H10.5L18.7278 10.214L18.7287 10.2149C18.9129 10.4007 19.0162 10.6518 19.0162 10.9134C19.0162 11.1751 18.9129 11.4262 18.7287 11.612ZM5.95137 4.96065C5.40356 4.96065 4.95948 5.40484 4.95948 5.95278C4.95948 6.50072 5.40356 6.94491 5.95137 6.94491H5.96129C6.5091 6.94491 6.95319 6.50072 6.95319 5.95278C6.95319 5.40484 6.5091 4.96065 5.96129 4.96065H5.95137Z" fill="#8CAEC5"/>
</svg>
