<svg width="19" height="22" viewBox="0 0 19 22" fill="none" xmlns="http://www.w3.org/2000/svg">
<path fill-rule="evenodd" clip-rule="evenodd" d="M2.05249 3C2.05249 2.44772 2.50021 2 3.05249 2H10.0525V5C10.0525 6.65685 11.3956 8 13.0525 8H16.0525V19C16.0525 19.5523 15.6048 20 15.0525 20H3.05249C2.50021 20 2.05249 19.5523 2.05249 19V3ZM14.6383 6L12.0525 3.41421V5C12.0525 5.55228 12.5002 6 13.0525 6H14.6383ZM3.05249 0C1.39564 0 0.0524902 1.34315 0.0524902 3V19C0.0524902 20.6569 1.39564 22 3.05249 22H15.0525C16.7093 22 18.0525 20.6569 18.0525 19V7C18.0525 6.73478 17.9471 6.48043 17.7596 6.29289L11.7596 0.292893C11.5721 0.105357 11.3177 0 11.0525 0H3.05249ZM4.05249 8C4.05249 7.44772 4.50021 7 5.05249 7H7.05249C7.60477 7 8.05249 7.44772 8.05249 8C8.05249 8.55229 7.60477 9 7.05249 9H5.05249C4.50021 9 4.05249 8.55229 4.05249 8ZM5.05249 11C4.50021 11 4.05249 11.4477 4.05249 12C4.05249 12.5523 4.50021 13 5.05249 13H13.0525C13.6048 13 14.0525 12.5523 14.0525 12C14.0525 11.4477 13.6048 11 13.0525 11H5.05249ZM5.05249 15C4.50021 15 4.05249 15.4477 4.05249 16C4.05249 16.5523 4.50021 17 5.05249 17H13.0525C13.6048 17 14.0525 16.5523 14.0525 16C14.0525 15.4477 13.6048 15 13.0525 15H5.05249Z" fill="#8CAEC5"/>
</svg>
