<svg width="308" height="321" viewBox="0 0 308 321" fill="none" xmlns="http://www.w3.org/2000/svg">
<path d="M48.8984 181.187C48.8994 177.495 47.4729 173.945 44.9172 171.281C42.3616 168.616 38.8748 167.043 35.1859 166.89V166.737H42.6099C42.3355 164.805 41.373 163.037 39.8993 161.758C38.4256 160.479 36.5398 159.774 34.5884 159.774C32.637 159.774 30.7511 160.479 29.2774 161.758C27.8037 163.037 26.8412 164.805 26.5668 166.737H33.9994V166.89C30.9588 167.013 28.0367 168.103 25.658 170.001C23.2792 171.899 21.5675 174.506 20.7718 177.443C19.9761 180.38 20.1377 183.495 21.2332 186.334C22.3287 189.173 24.301 191.588 26.8634 193.23L24.9735 198.832C24.9323 198.954 24.9155 199.084 24.9243 199.213C24.9331 199.341 24.9672 199.467 25.0246 199.583C25.0821 199.699 25.1618 199.802 25.2592 199.887C25.3566 199.972 25.4697 200.037 25.5922 200.078C25.6934 200.111 25.7992 200.128 25.9057 200.129C26.1042 200.125 26.2971 200.063 26.4601 199.95C26.6231 199.837 26.7488 199.678 26.821 199.493L28.5923 194.221C30.4285 195.068 32.4233 195.516 34.4452 195.535C36.4671 195.554 38.47 195.144 40.3217 194.332L42.0167 199.493C42.0492 199.625 42.1088 199.749 42.1917 199.857C42.2746 199.965 42.379 200.055 42.4983 200.12C42.6177 200.186 42.7493 200.226 42.8849 200.238C43.0205 200.25 43.1571 200.233 43.2861 200.19C43.4151 200.146 43.5336 200.076 43.6341 199.984C43.7347 199.893 43.8151 199.781 43.8702 199.657C43.9253 199.532 43.954 199.398 43.9545 199.261C43.9549 199.125 43.9271 198.991 43.8727 198.866L42.076 193.374C44.1599 192.095 45.8811 190.303 47.0755 188.17C48.2699 186.036 48.8975 183.632 48.8984 181.187ZM34.5926 192.577C32.3402 192.576 30.1388 191.906 28.2668 190.654C26.3947 189.401 24.9361 187.621 24.0753 185.54C23.2145 183.459 22.9901 181.169 23.4306 178.96C23.8711 176.751 24.9566 174.722 26.5499 173.13C28.1432 171.538 30.1728 170.454 32.382 170.015C34.5913 169.576 36.8811 169.802 38.9619 170.664C41.0428 171.527 42.8212 172.987 44.0724 174.86C45.3236 176.733 45.9915 178.935 45.9915 181.187C45.987 184.208 44.7843 187.104 42.6473 189.239C40.5104 191.375 37.6136 192.575 34.5926 192.577Z" fill="#263238"/>
<path d="M34.5932 179.865H34.5423L30.7455 173.856C30.7028 173.778 30.6444 173.709 30.5741 173.654C30.5039 173.6 30.4231 173.56 30.3368 173.537C30.2506 173.515 30.1606 173.511 30.0726 173.524C29.9845 173.538 29.9002 173.57 29.8248 173.617C29.7494 173.665 29.6846 173.727 29.6343 173.801C29.584 173.874 29.5493 173.957 29.5323 174.045C29.5154 174.132 29.5165 174.222 29.5357 174.309C29.5548 174.396 29.5916 174.479 29.6438 174.551L33.4321 180.56C33.3302 180.75 33.275 180.962 33.2711 181.178C33.2721 181.411 33.3345 181.639 33.4521 181.84C33.5696 182.041 33.7381 182.208 33.9406 182.322V187.331C33.9589 187.493 34.036 187.641 34.1572 187.75C34.2783 187.858 34.435 187.917 34.5974 187.917C34.7598 187.917 34.9165 187.858 35.0376 187.75C35.1588 187.641 35.2358 187.493 35.2542 187.331V182.322C35.5058 182.177 35.7024 181.952 35.8135 181.683C35.9246 181.415 35.944 181.117 35.8687 180.836C35.7934 180.555 35.6277 180.307 35.3971 180.13C35.1665 179.953 34.8839 179.857 34.5932 179.856V179.865Z" fill="#263238"/>
<path d="M40.9971 207.617C55.9384 204.233 65.3077 189.378 61.9241 174.437C58.5405 159.496 43.6853 150.126 28.744 153.51C13.8027 156.893 4.43339 171.749 7.81699 186.69C11.2006 201.631 26.0558 211.001 40.9971 207.617Z" stroke="white" stroke-width="2" stroke-linecap="round" stroke-linejoin="round"/>
<path d="M276.367 174.915V166.373C276.309 165.817 276.035 165.306 275.603 164.951C275.172 164.596 274.618 164.424 274.062 164.474H259.476C258.92 164.424 258.366 164.596 257.934 164.951C257.503 165.306 257.229 165.817 257.171 166.373V174.915C257.188 175.288 257.314 175.648 257.534 175.949C257.754 176.251 258.058 176.481 258.408 176.61C258.057 176.738 257.752 176.967 257.531 177.269C257.311 177.571 257.185 177.932 257.171 178.305V183.119C257.201 183.548 257.371 183.954 257.654 184.277C257.937 184.6 258.318 184.821 258.739 184.907C257.84 185.963 257.292 187.272 257.171 188.653V199.942C257.231 200.496 257.506 201.005 257.937 201.358C258.368 201.712 258.921 201.882 259.476 201.832H274.062C274.617 201.882 275.169 201.712 275.601 201.358C276.032 201.005 276.307 200.496 276.367 199.942V188.594C276.246 187.213 275.698 185.904 274.799 184.848C275.22 184.762 275.601 184.541 275.884 184.218C276.167 183.895 276.337 183.488 276.367 183.06V178.246C276.352 177.873 276.227 177.512 276.006 177.21C275.786 176.908 275.481 176.679 275.129 176.551C275.471 176.426 275.769 176.205 275.988 175.915C276.207 175.625 276.339 175.278 276.367 174.915Z" fill="#263238"/>
<path d="M265.325 159.364H268.206C268.376 159.364 268.543 159.397 268.699 159.462C268.856 159.526 268.998 159.621 269.117 159.741C269.237 159.861 269.332 160.003 269.397 160.159C269.461 160.315 269.495 160.483 269.495 160.652V163.415H264.037V160.652C264.037 160.483 264.07 160.315 264.135 160.159C264.2 160.003 264.294 159.861 264.414 159.741C264.534 159.621 264.676 159.526 264.832 159.462C264.988 159.397 265.156 159.364 265.325 159.364Z" fill="#263238"/>
<path d="M268.892 162.228H264.655V166.279H268.892V162.228Z" fill="#263238"/>
<path d="M258.282 175.704C258.314 176.023 258.431 176.328 258.622 176.586C258.813 176.844 259.071 177.046 259.367 177.17C259.054 177.298 258.785 177.513 258.592 177.789C258.398 178.066 258.287 178.392 258.274 178.729V183.238C258.288 183.632 258.431 184.011 258.68 184.317C258.929 184.623 259.272 184.839 259.655 184.933C258.854 185.938 258.373 187.16 258.274 188.441V199.001C258.313 199.506 258.549 199.975 258.931 200.306C259.314 200.638 259.811 200.805 260.316 200.773H273.223C273.728 200.805 274.226 200.638 274.608 200.306C274.991 199.975 275.227 199.506 275.266 199.001V188.416C275.167 187.135 274.686 185.912 273.885 184.907C274.268 184.814 274.61 184.597 274.859 184.291C275.109 183.986 275.251 183.607 275.266 183.212V178.729C275.252 178.392 275.142 178.066 274.948 177.789C274.754 177.513 274.485 177.298 274.173 177.17C274.469 177.046 274.726 176.844 274.917 176.586C275.108 176.328 275.226 176.023 275.257 175.704C275.257 175.704 275.257 175.636 275.257 175.602V170.83C273.237 171.583 271.135 172.095 268.994 172.356C264.994 172.771 263.867 171.381 260.342 171.381C259.618 171.389 258.906 171.57 258.265 171.907V175.602C258.265 175.602 258.265 175.67 258.265 175.704H258.282Z" fill="white"/>
<path d="M271.104 183.933C271.13 184.541 271.033 185.148 270.819 185.717C270.604 186.287 270.277 186.807 269.856 187.246C269.435 187.686 268.93 188.036 268.37 188.275C267.81 188.514 267.208 188.637 266.6 188.637C265.991 188.637 265.389 188.514 264.829 188.275C264.269 188.036 263.764 187.686 263.343 187.246C262.922 186.807 262.595 186.287 262.38 185.717C262.166 185.148 262.069 184.541 262.095 183.933C262.095 181.441 266.595 176.305 266.595 176.305C266.595 176.305 271.104 181.441 271.104 183.933Z" fill="#263238"/>
<path d="M286.385 200.184C297.217 189.351 297.217 171.788 286.385 160.955C275.552 150.123 257.989 150.123 247.156 160.955C236.324 171.788 236.324 189.351 247.156 200.184C257.989 211.016 275.552 211.016 286.385 200.184Z" stroke="white" stroke-width="2" stroke-linecap="round" stroke-linejoin="round"/>
<path d="M54.3912 129.532C60.4292 129.532 65.3239 123.924 65.3239 117.006C65.3239 110.088 60.4292 104.48 54.3912 104.48C48.3532 104.48 43.4585 110.088 43.4585 117.006C43.4585 123.924 48.3532 129.532 54.3912 129.532Z" fill="#263238"/>
<path d="M54.3911 129.93C48.1366 129.93 43.0601 124.133 43.0601 117.006C43.0601 109.878 48.145 104.081 54.3911 104.081C60.6372 104.081 65.7221 109.878 65.7221 117.006C65.7221 124.133 60.6372 129.93 54.3911 129.93ZM54.3911 104.878C48.5773 104.878 43.8482 110.319 43.8482 117.006C43.8482 123.693 48.5773 129.15 54.3911 129.15C60.2049 129.15 64.9594 123.693 64.9594 117.006C64.9594 110.319 60.1965 104.878 54.3911 104.878Z" fill="white"/>
<path d="M50.8139 129.532C56.8519 129.532 61.7467 123.924 61.7467 117.006C61.7467 110.088 56.8519 104.48 50.8139 104.48C44.776 104.48 39.8812 110.088 39.8812 117.006C39.8812 123.924 44.776 129.532 50.8139 129.532Z" fill="#263238"/>
<path d="M50.8136 129.93C44.5591 129.93 39.4741 124.133 39.4741 117.006C39.4741 109.878 44.5591 104.081 50.8136 104.081C57.0682 104.081 62.1447 109.878 62.1447 117.006C62.1447 124.133 57.0597 129.93 50.8136 129.93ZM50.8136 104.878C44.9998 104.878 40.2708 110.319 40.2708 117.006C40.2708 123.693 44.9998 129.15 50.8136 129.15C56.6275 129.15 61.348 123.709 61.348 117.023C61.348 110.336 56.619 104.878 50.8136 104.878Z" fill="white"/>
<path d="M52.0006 118.396H29.5334V114.819H52.0006C52.2358 114.818 52.4688 114.864 52.6863 114.953C52.9037 115.043 53.1013 115.174 53.2676 115.34C53.4339 115.507 53.5655 115.704 53.655 115.922C53.7445 116.139 53.79 116.372 53.7888 116.607C53.7888 116.842 53.7426 117.075 53.6527 117.292C53.5629 117.509 53.4311 117.706 53.2651 117.872C53.099 118.038 52.9019 118.17 52.6849 118.26C52.468 118.349 52.2355 118.396 52.0006 118.396Z" fill="#263238"/>
<path d="M52.0015 118.794H29.119V114.421H52.0015C52.5814 114.421 53.1375 114.651 53.5476 115.061C53.9576 115.471 54.188 116.028 54.188 116.607C54.188 117.187 53.9576 117.744 53.5476 118.154C53.1375 118.564 52.5814 118.794 52.0015 118.794ZM29.9665 117.997H52.0015C52.3701 117.997 52.7236 117.851 52.9843 117.59C53.2449 117.33 53.3914 116.976 53.3914 116.607C53.3914 116.239 53.2449 115.885 52.9843 115.625C52.7236 115.364 52.3701 115.218 52.0015 115.218H29.9665V117.997Z" fill="white"/>
<path d="M34.9067 129.532C40.9447 129.532 45.8394 123.924 45.8394 117.006C45.8394 110.088 40.9447 104.48 34.9067 104.48C28.8687 104.48 23.974 110.088 23.974 117.006C23.974 123.924 28.8687 129.532 34.9067 129.532Z" fill="#263238"/>
<path d="M34.9064 129.93C28.6519 129.93 23.5669 124.133 23.5669 117.006C23.5669 109.878 28.6519 104.081 34.9064 104.081C41.1609 104.081 46.2375 109.878 46.2375 117.006C46.2375 124.133 41.1525 129.93 34.9064 129.93ZM34.9064 104.878C29.0926 104.878 24.3635 110.319 24.3635 117.006C24.3635 123.693 29.0926 129.15 34.9064 129.15C40.7203 129.15 45.4662 123.693 45.4662 117.006C45.4662 110.319 40.7118 104.878 34.9064 104.878Z" fill="white"/>
<path d="M31.3222 129.532C37.3602 129.532 42.255 123.924 42.255 117.006C42.255 110.088 37.3602 104.48 31.3222 104.48C25.2843 104.48 20.3895 110.088 20.3895 117.006C20.3895 123.924 25.2843 129.532 31.3222 129.532Z" fill="#263238"/>
<path d="M31.3221 129.93C25.0761 129.93 19.9911 124.133 19.9911 117.006C19.9911 109.878 25.0761 104.081 31.3221 104.081C37.5682 104.081 42.6617 109.878 42.6617 117.006C42.6617 124.133 37.5767 129.93 31.3221 129.93ZM31.3221 104.878C25.5168 104.878 20.7877 110.319 20.7877 117.006C20.7877 123.693 25.5168 129.15 31.3221 129.15C37.1275 129.15 41.865 123.709 41.865 117.023C41.865 110.336 37.136 104.878 31.3221 104.878Z" fill="white"/>
<path d="M35.2965 117.006C35.2965 119.548 33.5083 121.574 31.3048 121.574C29.1013 121.574 27.3131 119.531 27.3131 117.006C27.3131 114.48 29.1013 112.429 31.3048 112.429C33.5083 112.429 35.2965 114.48 35.2965 117.006Z" fill="#263238"/>
<path d="M31.322 121.972C28.9067 121.972 26.932 119.743 26.932 117.006C26.932 114.268 28.9067 112.031 31.322 112.031C33.7374 112.031 35.7121 114.26 35.7121 117.006C35.7121 119.752 33.7459 121.972 31.322 121.972ZM31.322 112.828C29.3389 112.828 27.7287 114.701 27.7287 117.006C27.7287 119.311 29.3389 121.176 31.322 121.176C33.3052 121.176 34.9154 119.303 34.9154 117.006C34.9154 114.709 33.3052 112.828 31.322 112.828Z" fill="white"/>
<path d="M33.7288 117.006C33.7288 119.548 31.9406 121.574 29.7371 121.574C27.5336 121.574 25.7454 119.531 25.7454 117.006C25.7454 114.48 27.5251 112.429 29.7371 112.429C31.949 112.429 33.7288 114.48 33.7288 117.006Z" fill="#263238"/>
<path d="M29.737 121.972C27.3131 121.972 25.3469 119.743 25.3469 117.006C25.3469 114.268 27.3131 112.031 29.737 112.031C32.1608 112.031 34.127 114.26 34.127 117.006C34.127 119.752 32.1523 121.972 29.737 121.972ZM29.737 112.828C27.7538 112.828 26.1351 114.701 26.1351 117.006C26.1351 119.311 27.7538 121.176 29.737 121.176C31.7201 121.176 33.3304 119.303 33.3304 117.006C33.3304 114.709 31.7116 112.828 29.737 112.828Z" fill="white"/>
<path d="M68.8706 127.374C74.9621 113.318 68.5052 96.9845 54.4488 90.893C40.3923 84.8014 24.0592 91.2583 17.9676 105.315C11.8761 119.371 18.333 135.704 32.3895 141.796C46.4459 147.887 62.7791 141.431 68.8706 127.374Z" stroke="white" stroke-width="2" stroke-linecap="round" stroke-linejoin="round"/>
<path d="M279.987 103.641C279.987 103.641 283.182 99.827 280.699 98.8439C278.215 97.8608 275.986 105.514 275.986 105.514C275.986 105.514 276.487 101.437 274.817 99.5812C273.147 97.7252 272.656 101.768 273.232 105.081C273.474 106.55 273.875 107.988 274.427 109.37C273.736 108.639 272.985 107.967 272.181 107.361C266.808 103.242 261.435 112.446 261.435 112.446C261.435 112.446 248.324 123.464 246.138 131.091C243.951 138.719 266.944 126.371 273.258 121.548C277.809 118.082 278.02 114.387 275.8 111.048C278.046 111.243 282.699 111.489 284.012 110.438C285.767 109.031 280.97 108.319 280.97 108.319C280.97 108.319 288.343 106.065 289.284 102.725C290.224 99.3863 279.987 103.641 279.987 103.641Z" fill="#263238"/>
<path d="M254.044 125.489C253.981 125.508 253.915 125.511 253.85 125.499C253.785 125.488 253.724 125.461 253.671 125.421C253.203 125.085 252.658 124.87 252.087 124.794C252.031 124.791 251.977 124.777 251.927 124.752C251.878 124.728 251.833 124.694 251.797 124.652C251.761 124.61 251.733 124.561 251.716 124.509C251.699 124.456 251.692 124.4 251.697 124.345C251.7 124.29 251.714 124.236 251.739 124.186C251.763 124.136 251.797 124.092 251.839 124.056C251.881 124.019 251.93 123.992 251.982 123.974C252.035 123.957 252.091 123.951 252.146 123.955C252.878 124.037 253.576 124.309 254.171 124.743C254.26 124.809 254.32 124.908 254.337 125.017C254.355 125.126 254.329 125.238 254.265 125.328C254.212 125.406 254.134 125.463 254.044 125.489Z" fill="white"/>
<path d="M267.723 122.659C267.616 122.691 267.499 122.679 267.4 122.627C267.3 122.575 267.225 122.486 267.19 122.379C266.686 120.562 265.756 118.892 264.478 117.506C264.417 117.423 264.389 117.322 264.398 117.22C264.406 117.119 264.451 117.024 264.525 116.952C264.598 116.881 264.694 116.839 264.796 116.833C264.898 116.827 264.999 116.859 265.079 116.921C266.458 118.396 267.461 120.18 268.003 122.125C268.035 122.233 268.024 122.349 267.972 122.449C267.92 122.548 267.83 122.624 267.723 122.659Z" fill="white"/>
<path d="M263.147 116.218C263.093 116.24 263.035 116.252 262.977 116.252C262.919 116.252 262.861 116.24 262.808 116.218C262.176 115.821 261.474 115.551 260.74 115.421C260.628 115.406 260.526 115.348 260.457 115.26C260.387 115.171 260.355 115.058 260.367 114.946C260.38 114.835 260.436 114.734 260.523 114.664C260.61 114.594 260.722 114.562 260.833 114.573C261.687 114.719 262.505 115.03 263.24 115.489C263.308 115.531 263.363 115.593 263.398 115.666C263.433 115.738 263.446 115.82 263.436 115.9C263.427 115.98 263.394 116.056 263.343 116.118C263.291 116.18 263.223 116.227 263.147 116.252V116.218Z" fill="white"/>
<path d="M273.054 120.15C272.989 120.163 272.923 120.163 272.859 120.15C272.748 120.129 272.65 120.066 272.585 119.975C272.52 119.883 272.494 119.77 272.511 119.659C272.694 118.717 272.591 117.742 272.217 116.859C271.842 115.976 271.213 115.224 270.409 114.701C270.312 114.643 270.241 114.55 270.212 114.44C270.183 114.33 270.199 114.214 270.257 114.116C270.314 114.018 270.408 113.947 270.518 113.919C270.627 113.89 270.744 113.906 270.842 113.963C271.791 114.581 272.538 115.463 272.99 116.501C273.442 117.539 273.579 118.687 273.384 119.803C273.373 119.888 273.335 119.968 273.275 120.03C273.216 120.093 273.138 120.135 273.054 120.15Z" fill="white"/>
<path d="M261.111 125.989C261.004 126.021 260.887 126.01 260.788 125.958C260.688 125.906 260.613 125.816 260.578 125.71C260.345 125.137 260.001 124.617 259.564 124.181C259.127 123.744 258.607 123.399 258.035 123.167C257.932 123.124 257.85 123.042 257.805 122.939C257.761 122.837 257.758 122.721 257.798 122.616C257.817 122.564 257.846 122.516 257.883 122.475C257.921 122.434 257.966 122.402 258.017 122.379C258.068 122.356 258.122 122.343 258.178 122.342C258.233 122.34 258.288 122.35 258.34 122.37C259.041 122.649 259.676 123.068 260.207 123.604C260.738 124.139 261.153 124.778 261.425 125.481C261.448 125.59 261.429 125.703 261.37 125.798C261.312 125.893 261.219 125.961 261.111 125.989Z" fill="white"/>
<path d="M273.706 143.336C288.627 139.864 297.908 124.953 294.435 110.032C290.963 95.1114 276.053 85.8303 261.132 89.3025C246.211 92.7748 236.93 107.685 240.402 122.606C243.874 137.527 258.785 146.808 273.706 143.336Z" stroke="white" stroke-width="2" stroke-linecap="round" stroke-linejoin="round"/>
<path d="M95.952 62.6302C96.4641 62.4852 96.9047 62.1563 97.1894 61.7065C98.1809 60.1386 97.7233 57.1893 97.1385 55.096C95.8878 53.3601 94.2643 51.9263 92.3872 50.8997C90.51 49.8731 88.4269 49.2799 86.2905 49.1635C91.4094 51.367 95.1893 56.4944 95.952 62.6302Z" fill="#263238"/>
<path d="M81.308 67.3678C85.7839 68.0325 90.3475 67.7991 94.7323 66.6813C94.7963 66.093 94.8302 65.5018 94.834 64.91C94.834 64.6219 94.834 64.3394 94.834 64.0625H94.7917C91.6305 64.0625 88.7575 62.0794 85.7234 59.9945C84.27 58.9562 82.7652 57.9916 81.2147 57.1046C78.965 55.8423 76.4208 55.199 73.8415 55.2401C72.122 57.6528 71.195 60.5404 71.1888 63.5032C72.1719 64.4947 74.9348 66.5203 81.308 67.3678Z" fill="#263238"/>
<path d="M99.0203 58.6472C99.1435 59.9421 98.8748 61.2442 98.2491 62.3846C98.0037 62.7709 97.6841 63.1047 97.3088 63.3666C96.9334 63.6285 96.5098 63.8132 96.0626 63.9101C96.0626 64.2406 96.0626 64.5712 96.0626 64.9102C96.0626 65.2492 96.0626 65.817 96.0117 66.2662C97.3705 65.808 98.6553 65.1542 99.8255 64.3254C99.8255 64.0542 99.8255 63.7915 99.8255 63.5288C99.8425 61.8672 99.57 60.2153 99.0203 58.6472Z" fill="#263238"/>
<path d="M95.469 69.7748C96.4107 69.6563 97.3636 69.8788 98.1556 70.4019C98.9026 69.0176 99.4179 67.5203 99.6811 65.9695C98.4905 66.6779 97.2221 67.2467 95.9012 67.6645C95.8013 68.3762 95.6569 69.081 95.469 69.7748Z" fill="#263238"/>
<path d="M93.4524 71.673C92.6982 72.0375 91.8676 72.5205 90.9693 73.046C88.6895 74.3766 86.1131 75.8851 83.2316 76.3428C82.5752 76.4425 81.9124 76.4935 81.2485 76.4953C80.4873 76.4937 79.7275 76.4285 78.9772 76.3004C82.131 77.9286 85.7798 78.3185 89.2065 77.3936C91.0507 75.846 92.5051 73.8864 93.4524 71.673Z" fill="#263238"/>
<path d="M95.2733 71.0461L95.036 71.0969C94.3669 72.9846 93.3715 74.7402 92.0952 76.2836C94.2693 75.1667 96.1218 73.5126 97.4768 71.4783C96.828 71.0493 96.0361 70.894 95.2733 71.0461Z" fill="#263238"/>
<path d="M81.7903 55.9859C83.3819 56.8927 84.9263 57.88 86.4176 58.9437C89.3754 60.9777 91.9603 62.7574 94.6977 62.7828C93.8502 55.8588 88.8669 50.3161 82.553 49.4686C79.5655 50.1085 76.8588 51.6815 74.8239 53.9604C77.2708 54.0914 79.6546 54.7845 81.7903 55.9859Z" fill="#263238"/>
<path d="M83.0359 75.0971C85.6801 74.6818 88.1208 73.2326 90.3243 71.9613C91.5047 71.21 92.7532 70.5716 94.0533 70.0544C94.2559 69.3979 94.4201 68.73 94.5449 68.0543C91.9561 68.6979 89.2968 69.014 86.6293 68.9951C84.7953 68.9898 82.9637 68.8653 81.1459 68.6222C75.866 67.9187 72.8828 66.4272 71.2726 65.2322C71.6704 68.5353 73.2044 71.5973 75.6118 73.8936C77.9112 75.0258 80.4965 75.4449 83.0359 75.0971Z" fill="#263238"/>
<path d="M91.8206 90.5478C106.742 87.0756 116.023 72.165 112.55 57.2441C109.078 42.3231 94.1675 33.0421 79.2466 36.5143C64.3257 39.9865 55.0446 54.8971 58.5168 69.8181C61.9891 84.739 76.8997 94.02 91.8206 90.5478Z" stroke="white" stroke-width="2" stroke-linecap="round" stroke-linejoin="round"/>
<path d="M238.866 64.4948C238.866 71.9359 232.781 79.8345 226.95 79.8345C225.526 79.8345 221.805 79.8346 220.483 79.3261C213.263 76.5378 210.474 69.6222 210.474 63.605C210.474 60.4862 211.407 57.0792 213.864 54.9944C217.144 52.24 220.755 53.9774 224.56 53.9774C227.873 53.9774 232.518 52.6214 235.043 54.4774C238.247 56.8334 238.866 60.7913 238.866 64.4948Z" fill="#263238"/>
<path d="M224.196 54.9858C224.764 53.219 225.429 51.4847 226.188 49.7907C226.724 48.7233 227.564 47.8387 228.603 47.2482L230.12 47.8838C229.017 48.6154 228.033 49.513 227.205 50.5449C226.156 52.2336 225.265 54.0152 224.543 55.8672" fill="#263238"/>
<path d="M225.179 52.706C225.193 52.3232 225.12 51.9421 224.966 51.5914C224.812 51.2406 224.58 50.9292 224.289 50.6805C222.714 49.6288 221.062 48.6967 219.348 47.8922C219.348 47.8922 218.967 50.0449 220.195 51.2822C221.424 52.5196 225.179 52.706 225.179 52.706Z" fill="#263238"/>
<path d="M234.959 59.4946C234.485 60.3421 233.035 60.3929 231.73 59.6386C230.425 58.8844 229.747 57.5962 230.23 56.7656C230.713 55.9351 232.154 55.8673 233.468 56.6215C234.781 57.3758 235.442 58.664 234.959 59.4946Z" fill="white"/>
<path d="M250.606 73.3123C256.009 58.9769 248.767 42.9761 234.432 37.5736C220.097 32.171 204.096 39.4124 198.693 53.7477C193.291 68.0831 200.532 84.0839 214.868 89.4865C229.203 94.8891 245.204 87.6476 250.606 73.3123Z" stroke="white" stroke-width="2" stroke-linecap="round" stroke-linejoin="round"/>
<path d="M167.396 40.0358L167.269 39.968C167.184 39.968 158.65 35.3576 156.624 34.9508C154.162 34.6886 151.683 34.615 149.209 34.7305H148.277C146.988 34.7305 145.921 34.9932 145.785 35.3322C145.734 35.4847 145.87 35.8237 146.438 36.3407C148.133 37.8832 151.421 38.1205 152.997 38.2391C153.368 38.2461 153.737 38.2886 154.099 38.3662C154.967 38.9048 155.738 39.5868 156.379 40.3833L156.904 40.9765L134.945 43.2309C134.673 43.2455 134.418 43.3675 134.236 43.5702C134.054 43.7728 133.96 44.0395 133.975 44.3114C133.99 44.5834 134.112 44.8384 134.314 45.0204C134.517 45.2024 134.784 45.2964 135.056 45.2818L151.582 45.0276L132.996 49.1888C132.882 49.2136 132.774 49.2617 132.679 49.3303C132.584 49.3988 132.505 49.4863 132.445 49.5871C132.382 49.6868 132.34 49.7986 132.323 49.9154C132.305 50.0321 132.312 50.1512 132.344 50.2651C132.401 50.4602 132.522 50.6301 132.689 50.7471C132.855 50.8641 133.056 50.9213 133.259 50.9092L147.166 49.7312L147.319 50.5278L134.886 54.1636C134.656 54.2407 134.463 54.4008 134.345 54.6126C134.226 54.8245 134.191 55.0728 134.246 55.3091C134.302 55.5454 134.443 55.7526 134.643 55.8903C134.842 56.028 135.086 56.0862 135.327 56.0535L147.344 53.9517L147.556 54.7399L140.327 57.3756C140.261 57.4019 140.204 57.4446 140.159 57.4994C140.115 57.5543 140.085 57.6196 140.073 57.6892C140.064 57.7601 140.074 57.8321 140.102 57.8977C140.131 57.9633 140.176 58.0201 140.234 58.0621C140.271 58.0909 140.313 58.1118 140.358 58.1234C140.403 58.1351 140.45 58.1373 140.497 58.1299C142.505 57.9265 152.599 56.8586 154.285 56.4857C156.124 56.0789 165.718 52.1211 165.811 52.0788H165.955L185.236 51.6635L180.846 37.4848H180.804L167.396 40.0358Z" fill="#263238"/>
<path d="M137.529 52.5619L141.563 51.3838L141.809 51.0194L138.165 51.333L137.529 52.5619Z" fill="#263238"/>
<path d="M141.955 51.0109L141.862 51.2905L143.201 50.9007L141.955 51.0109Z" fill="#263238"/>
<path d="M136.31 46.0953C135.988 46.5869 135.726 46.9428 135.556 47.2225C135.387 47.5022 135.293 47.6547 135.175 47.8836L143.65 45.9852L136.31 46.0953Z" fill="#263238"/>
<path d="M139.565 48.4853L138.574 50.4854L147.184 49.7566L147.337 50.5532L141.548 52.2482L140.574 55.1636L144.981 54.3924C146.218 53.1381 147.362 51.8499 147.362 51.8499C146.768 52.6063 146.23 53.405 145.752 54.2398L147.362 53.9602L147.574 54.7483L145.404 55.5365C145.417 55.5766 145.437 55.614 145.464 55.6467C146.099 56.2823 147.159 56.9095 147.786 56.2823C148.413 55.6552 153.481 49.1125 154.566 48.4769C157.17 47.0001 159.64 45.2986 161.948 43.3919C162.651 42.7901 164.126 41.2307 165.956 39.2222C163.414 37.917 158.193 35.222 156.634 34.9169C154.171 34.6547 151.692 34.581 149.218 34.6965H148.286C146.998 34.6965 145.93 34.9593 145.794 35.2983C145.743 35.4508 145.879 35.7898 146.447 36.3068C148.142 37.8492 151.43 38.0865 153.006 38.2052C153.377 38.2121 153.746 38.2547 154.108 38.3323C154.977 38.8709 155.748 39.5529 156.388 40.3493L156.913 40.9426L138.446 42.8579C137.87 43.7054 137.328 44.5529 136.862 45.2394L151.6 45.0106L134.777 48.7904C134.516 49.4522 134.304 50.1319 134.141 50.8244L137.582 50.5363C138.565 49.4938 139.565 48.4853 139.565 48.4853Z" fill="#263238"/>
<path d="M135.556 52.9178C135.901 52.3927 136.296 51.9017 136.734 51.4516L133.938 51.6889L133.87 52.0703C133.87 52.0703 135.133 53.7568 135.556 52.9178Z" fill="#263238"/>
<path d="M139.352 35.6288C140.746 35.3397 142.166 35.1976 143.589 35.2051L139.013 42.0105L155.209 40.3155C154.806 39.8538 154.338 39.454 153.819 39.129C153.521 39.082 153.221 39.0537 152.92 39.0442C151.124 38.9086 147.776 38.6628 145.878 36.9339C145.581 36.6712 144.691 35.8576 145.03 35.0271C145.403 34.0525 147.225 33.9084 148.276 33.9084H149.191C151.736 33.789 154.287 33.8683 156.819 34.1457C158.514 34.4847 164.074 37.3407 166.523 38.6289C172.337 32.188 181.134 21.9163 181.134 21.9163L166.98 16.6533C166.345 16.6533 159.811 29.5099 159.811 29.5099C159.811 29.5099 148.429 27.8149 146.954 28.0352C145.479 28.2556 138.937 31.832 137.462 32.4676C135.987 33.1033 134.301 33.7304 135.14 34.5779C135.711 35.0696 136.39 35.4207 137.121 35.6032C137.853 35.7856 138.617 35.7944 139.352 35.6288Z" fill="#263238"/>
<path d="M142.403 56.6298L141.81 56.8502C141.969 56.8303 142.123 56.7845 142.267 56.7146L142.403 56.6298Z" fill="#263238"/>
<path d="M142.998 55.5704L140.565 55.9942C140.641 56.124 140.729 56.246 140.828 56.3586L142.998 55.5704Z" fill="#263238"/>
<path d="M140.845 52.4432L137.031 53.5534L136.819 53.9687C136.894 54.5746 137.051 55.1675 137.285 55.7315L138.658 55.4857C139.285 54.7229 140.141 53.4602 140.845 52.4432Z" fill="#263238"/>
<path d="M154.048 26.8491C154.048 26.8491 151.048 20.4504 148.819 22.6116C146.446 24.9761 154.048 26.8491 154.048 26.8491Z" fill="#263238"/>
<path d="M163.268 26.8491C163.268 26.8491 166.268 20.4504 168.506 22.6116C170.896 24.9761 163.268 26.8491 163.268 26.8491Z" fill="#263238"/>
<path d="M155.514 26.3913C155.406 26.3891 155.302 26.3444 155.226 26.2667C155.15 26.1891 155.108 26.0847 155.108 25.976V11.9415C155.11 11.8343 155.153 11.732 155.229 11.6562C155.305 11.5804 155.407 11.5368 155.514 11.5347C155.568 11.5347 155.621 11.5452 155.67 11.5656C155.719 11.5861 155.764 11.616 155.802 11.6538C155.84 11.6916 155.87 11.7364 155.89 11.7858C155.911 11.8351 155.921 11.888 155.921 11.9415V25.976C155.922 26.0302 155.913 26.084 155.893 26.1343C155.873 26.1847 155.843 26.2305 155.805 26.2692C155.767 26.3079 155.722 26.3386 155.672 26.3596C155.622 26.3805 155.568 26.3913 155.514 26.3913Z" fill="#263238"/>
<path d="M158.497 31.4932C158.389 31.4932 158.285 31.4503 158.209 31.3741C158.133 31.2978 158.09 31.1943 158.09 31.0864V28.1032C158.09 27.9953 158.133 27.8918 158.209 27.8156C158.285 27.7393 158.389 27.6964 158.497 27.6964C158.604 27.6986 158.706 27.7421 158.782 27.818C158.858 27.8938 158.901 27.996 158.904 28.1032V31.0864C158.901 31.1936 158.858 31.2958 158.782 31.3717C158.706 31.4475 158.604 31.491 158.497 31.4932Z" fill="white"/>
<path d="M158.497 28.5184C158.443 28.5184 158.389 28.5076 158.339 28.4866C158.289 28.4656 158.244 28.4349 158.206 28.3962C158.168 28.3576 158.138 28.3117 158.119 28.2614C158.099 28.211 158.089 28.1572 158.09 28.1031V20.4756C158.089 20.4219 158.099 20.3685 158.119 20.3186C158.139 20.2687 158.169 20.2234 158.207 20.1854C158.245 20.1474 158.29 20.1175 158.34 20.0974C158.39 20.0774 158.443 20.0677 158.497 20.0688C158.55 20.0688 158.603 20.0793 158.653 20.0998C158.702 20.1202 158.747 20.1502 158.784 20.188C158.822 20.2257 158.852 20.2706 158.873 20.3199C158.893 20.3693 158.904 20.4222 158.904 20.4756V28.1031C158.904 28.2118 158.861 28.3161 158.785 28.3938C158.709 28.4714 158.606 28.5162 158.497 28.5184Z" fill="#263238"/>
<path d="M162.107 30.2136C161.999 30.2136 161.896 30.1708 161.82 30.0945C161.743 30.0182 161.7 29.9147 161.7 29.8068V17.2808C161.7 17.1721 161.743 17.0678 161.819 16.9901C161.895 16.9125 161.999 16.8678 162.107 16.8655C162.161 16.8655 162.215 16.8763 162.265 16.8973C162.315 16.9183 162.36 16.949 162.398 16.9877C162.436 17.0263 162.466 17.0722 162.486 17.1225C162.505 17.1729 162.515 17.2267 162.514 17.2808V29.8238C162.513 29.8761 162.502 29.9277 162.481 29.9756C162.459 30.0235 162.429 30.0668 162.391 30.103C162.354 30.1392 162.309 30.1676 162.26 30.1866C162.212 30.2056 162.16 30.2148 162.107 30.2136Z" fill="#263238"/>
<path d="M162.107 16.4331C162.054 16.4331 162.001 16.4225 161.952 16.4021C161.902 16.3816 161.857 16.3517 161.82 16.3139C161.782 16.2761 161.752 16.2313 161.731 16.1819C161.711 16.1326 161.7 16.0797 161.7 16.0263V12.7973C161.7 12.6886 161.743 12.5842 161.819 12.5066C161.895 12.429 161.999 12.3842 162.107 12.382C162.161 12.382 162.215 12.3928 162.265 12.4138C162.315 12.4347 162.36 12.4655 162.398 12.5041C162.436 12.5428 162.466 12.5887 162.486 12.639C162.505 12.6894 162.515 12.7432 162.514 12.7973V15.9839C162.521 16.041 162.516 16.0991 162.499 16.154C162.482 16.209 162.453 16.2596 162.414 16.3023C162.376 16.345 162.328 16.3788 162.275 16.4014C162.222 16.424 162.165 16.4348 162.107 16.4331Z" fill="#263238"/>
<path d="M151.692 36.1885C150.863 35.8035 149.965 35.5866 149.052 35.5503C148.139 35.5139 147.227 35.6588 146.37 35.9766C143.395 37.036 144.675 39.1632 146.582 38.7394C148.488 38.3157 151.692 36.1885 151.692 36.1885Z" fill="#263238"/>
<path d="M152.751 40.8495C152.643 40.8495 152.54 40.8067 152.464 40.7304C152.387 40.6541 152.344 40.5506 152.344 40.4428V36.6121C152.347 36.5048 152.39 36.4026 152.466 36.3268C152.542 36.251 152.644 36.2074 152.751 36.2053C152.859 36.2053 152.963 36.2481 153.039 36.3244C153.115 36.4007 153.158 36.5042 153.158 36.6121V40.4428C153.159 40.4965 153.15 40.5499 153.129 40.5998C153.109 40.6497 153.08 40.695 153.042 40.733C153.003 40.771 152.958 40.8009 152.908 40.8209C152.858 40.841 152.805 40.8507 152.751 40.8495Z" fill="white"/>
<path d="M179.348 60.8425C190.181 50.0099 190.181 32.4468 179.348 21.6142C168.515 10.7816 150.952 10.7816 140.12 21.6142C129.287 32.4468 129.287 50.0099 140.12 60.8425C150.952 71.6751 168.515 71.6751 179.348 60.8425Z" stroke="white" stroke-width="2" stroke-linecap="round" stroke-linejoin="round"/>
<path d="M142.083 320.685C183.071 320.685 216.298 315.563 216.298 309.244C216.298 302.925 183.071 297.803 142.083 297.803C101.095 297.803 67.8672 302.925 67.8672 309.244C67.8672 315.563 101.095 320.685 142.083 320.685Z" fill="#EEF7FC"/>
<path d="M129.775 184.653C128.504 190.115 127.542 195.644 126.894 201.213C125.673 211.138 127.69 226.638 127.69 226.638C127.69 226.638 113.283 219.248 105.444 220.223C97.6042 221.197 66.0349 232.401 61.8736 232.011C61.8736 232.011 58.7633 237.529 61.7889 237.452C65.9247 237.351 110.003 238.3 117.131 239.105C124.411 239.953 134.725 242.156 138.318 238.868C140.776 236.639 149.768 208.671 149.903 199.501C149.949 194.345 150.311 189.197 150.988 184.085" fill="white"/>
<path d="M129.775 184.653C128.504 190.115 127.542 195.644 126.894 201.213C125.673 211.138 127.69 226.638 127.69 226.638C127.69 226.638 113.283 219.248 105.444 220.223C97.6042 221.197 66.0349 232.401 61.8736 232.011C61.8736 232.011 58.7633 237.529 61.7889 237.452C65.9247 237.351 110.003 238.3 117.131 239.105C124.411 239.953 134.725 242.156 138.318 238.868C140.776 236.639 149.768 208.671 149.903 199.501C149.949 194.345 150.311 189.197 150.988 184.085" stroke="#263238" stroke-linecap="round" stroke-linejoin="round"/>
<path d="M126.885 201.188C125.673 211.112 127.733 226.613 127.733 226.613C127.733 226.613 113.325 219.223 105.486 220.197C102.711 220.675 99.9688 221.324 97.2737 222.138C95.3075 225.96 93.5532 231.816 96.2906 238.122C105.85 238.41 114.368 238.749 117.173 239.08C124.453 239.927 134.767 242.131 138.36 238.842C140.818 236.613 149.81 208.646 149.946 199.476C149.992 194.32 150.354 189.172 151.03 184.06L129.792 184.594C128.513 190.066 127.543 195.607 126.885 201.188Z" fill="#263238" stroke="#263238" stroke-linecap="round" stroke-linejoin="round"/>
<path d="M140.623 188.772L135.902 191.154C135.902 191.154 134.326 190.984 137.318 186.848" fill="white"/>
<path d="M140.623 188.772L135.902 191.154C135.902 191.154 134.326 190.984 137.318 186.848" stroke="#263238" stroke-linecap="round" stroke-linejoin="round"/>
<path d="M156.437 90.2842C156.437 90.2842 151.691 86.9959 143.674 86.6315C135.657 86.2671 130.216 97.2083 131.275 104.141C132.335 111.073 132.004 118.362 122.521 117.269C113.037 116.175 101.375 117.269 98.7906 127.439C96.2057 137.608 107.537 150.414 120.3 145.677C133.063 140.939 129.987 131.566 135.979 129.625C141.971 127.684 148.013 127.803 148.742 120.514C149.471 113.226 144.733 106.658 148.013 100.09C149.976 96.181 152.869 92.814 156.437 90.2842Z" fill="#263238" stroke="#263238" stroke-linecap="round" stroke-linejoin="round"/>
<path d="M151.251 91.776C151.251 91.776 141.301 89.8437 137.979 98.1322C134.657 106.421 142.132 113.608 139.674 121.862C137.216 130.117 127.809 136.507 120.054 133.727C112.3 130.947 104.791 128.303 104.266 132.685C103.74 137.066 109.512 138.21 110.893 137.38C112.274 136.549 110.342 134.897 110.342 134.897" stroke="white" stroke-linecap="round" stroke-linejoin="round"/>
<path d="M119.393 124.15C118.238 123.847 117.058 123.649 115.867 123.557" stroke="white" stroke-linecap="round" stroke-linejoin="round"/>
<path d="M143.513 90.6743C143.513 90.6743 134.114 92.3693 134.114 102.277C134.114 112.184 138.809 118.311 134.665 124.667C131.792 129.074 127.885 127.108 122.953 125.303" stroke="white" stroke-linecap="round" stroke-linejoin="round"/>
<path d="M161.87 100.115C161.87 100.115 162.2 105.446 161.022 108.59C159.844 111.735 154.581 116.76 154.887 119.438C155.192 122.116 162.87 127.625 165.319 126.701C167.769 125.778 169.811 111.862 169.811 111.862C169.811 111.862 165.506 101.963 161.87 100.115Z" fill="white" stroke="#263238" stroke-linecap="round" stroke-linejoin="round"/>
<path d="M166.167 109.802C167.743 112.751 169.091 115.201 172.6 115.845C177.405 116.692 179.176 110.506 179.82 104.234C179.98 104.303 180.148 104.348 180.32 104.37C180.921 104.459 181.534 104.41 182.113 104.227C182.691 104.043 183.22 103.73 183.659 103.31C184.049 102.912 183.456 102.149 182.676 101.327C180.388 98.9034 180.193 97.0304 180.219 93.6997C180.295 92.2094 180.169 90.7156 179.846 89.2588C179.759 88.9423 179.654 88.6311 179.532 88.3266C176.032 79.7669 158.514 79.4533 157.565 90.0216C157.293 93.7592 157.73 97.5145 158.853 101.09" fill="white"/>
<path d="M180.217 93.7254C180.293 92.235 180.168 90.7412 179.844 89.2845C179.757 88.968 179.653 88.6567 179.53 88.3522C176.03 79.7925 158.513 79.4789 157.563 90.0472C157.29 93.7676 157.725 97.506 158.843 101.065C165.826 98.7582 172.994 97.057 180.268 95.9797C180.217 95.2932 180.217 94.5559 180.217 93.7254Z" fill="#92E3A9"/>
<path opacity="0.5" d="M180.217 93.7254C180.293 92.235 180.168 90.7412 179.844 89.2845C179.757 88.968 179.653 88.6567 179.53 88.3522C176.03 79.7925 158.513 79.4789 157.563 90.0472C157.29 93.7676 157.725 97.506 158.843 101.065C165.826 98.7582 172.994 97.057 180.268 95.9797C180.217 95.2932 180.217 94.5559 180.217 93.7254Z" fill="white"/>
<path d="M166.167 109.802C167.743 112.751 169.091 115.201 172.6 115.845C177.405 116.692 179.176 110.506 179.82 104.234C179.98 104.303 180.148 104.348 180.32 104.37C180.921 104.459 181.534 104.41 182.113 104.227C182.691 104.043 183.22 103.73 183.659 103.31C184.049 102.912 183.456 102.149 182.676 101.327C180.388 98.9034 180.193 97.0304 180.219 93.6997C180.295 92.2094 180.169 90.7156 179.846 89.2588C179.759 88.9423 179.654 88.6311 179.532 88.3266C176.032 79.7669 158.514 79.4533 157.565 90.0216C157.293 93.7592 157.73 97.5145 158.853 101.09" stroke="#263238" stroke-linecap="round" stroke-linejoin="round"/>
<path d="M177.795 97.6067C177.795 98.2507 177.617 98.7847 177.312 98.8016C177.007 98.8186 176.736 98.3101 176.693 97.666C176.651 97.0219 176.871 96.488 177.176 96.471C177.482 96.4541 177.761 96.9456 177.795 97.6067Z" fill="#263238"/>
<path d="M177.676 106.785C177.676 106.785 175.074 106.955 174.549 105.048" stroke="#263238" stroke-linecap="round" stroke-linejoin="round"/>
<path d="M178.523 86.64C173.549 79.8092 157.438 84.801 156.556 94.5811C156.115 99.522 155.929 106.158 160.675 106.929C162.141 102.327 166.879 102.2 166.726 99.8356C166.514 96.3269 173.506 96.4456 172.574 91.1403C171.837 86.5383 175.489 89.3181 178.523 86.64Z" fill="#263238" stroke="#263238" stroke-linecap="round" stroke-linejoin="round"/>
<path d="M156.726 98.5051L181.134 90.2759C181.134 90.2759 177.947 81.8009 173.812 79.6313C169.676 77.4617 159.845 79.6313 156.489 83.9366C153.133 88.2418 155.141 91.3606 156.726 98.5051Z" fill="#8BC63E"/>
<path opacity="0.2" d="M160.93 86.3774C161.201 82.3264 165.43 79.6737 166.591 79.0211C162.633 79.6398 158.455 81.4195 156.489 83.9366C153.099 88.2419 155.141 91.3607 156.726 98.5051L164.252 95.9626C162.854 93.2167 160.726 89.3182 160.93 86.3774Z" fill="black"/>
<path d="M156.726 98.5051L181.134 90.2759C181.134 90.2759 177.947 81.8009 173.812 79.6313C169.676 77.4617 159.845 79.6313 156.489 83.9366C153.133 88.2418 155.141 91.3606 156.726 98.5051Z" stroke="#263238" stroke-linecap="round" stroke-linejoin="round"/>
<path d="M172.981 93.2167C172.981 93.2167 183.49 92.8523 188.668 93.3862C193.846 93.9201 190.634 91.2675 181.134 90.2759C181.134 90.2759 174.795 92.5302 172.981 93.2167Z" fill="white" stroke="#263238" stroke-linecap="round" stroke-linejoin="round"/>
<path d="M157.591 113.319C157.591 113.319 167.439 120.523 169.558 127.023C172.202 135.151 171.092 141.711 168.557 149.058C166.023 156.406 162.71 156.745 160.727 164.559C158.54 173.187 158.108 190.043 153.862 197.73C145.98 212.01 123.954 199.264 123.581 185.569C123.174 170.763 136.878 161.923 138.463 154.482C140.158 146.414 138.285 135.244 142.014 127.684C145.743 120.125 152.87 113.048 157.591 113.319Z" fill="#263238" stroke="#263238" stroke-linecap="round" stroke-linejoin="round"/>
<path d="M154.691 120.37C152.174 121.064 149.925 122.503 148.242 124.498C144.131 129.396 139.156 148.677 138.148 151.618C136.665 155.974 134.08 171.653 135.122 171.958C136.165 172.263 142.657 172.059 153.886 173.136C165.115 174.212 186.133 168.305 186.133 168.305C186.133 168.305 189.599 170.636 192.617 169.72C193.006 169.602 193.354 169.483 193.676 169.373C194.607 169.046 195.396 168.405 195.905 167.559C196.111 167.24 196.268 166.891 196.371 166.525C196.542 165.976 196.565 165.391 196.439 164.83C196.42 163.607 196.131 162.403 195.591 161.305C194.871 160.076 194.413 160.754 193.413 160.22C192.158 159.669 190.76 159.532 189.421 159.83C188.574 160.177 185.599 164.245 185.599 164.245C185.599 164.245 173.26 165.678 162.42 162.203C152.632 159.076 150.301 159.093 150.301 159.093C150.301 159.093 159.742 137.405 163.013 131.337" fill="#8BC63E"/>
<path d="M154.691 120.37C152.174 121.064 149.925 122.503 148.242 124.498C144.131 129.396 139.156 148.677 138.148 151.618C136.665 155.974 134.08 171.653 135.122 171.958C136.165 172.263 142.657 172.059 153.886 173.136C165.115 174.212 186.133 168.305 186.133 168.305C186.133 168.305 189.599 170.636 192.617 169.72C193.006 169.602 193.354 169.483 193.676 169.373C194.607 169.046 195.396 168.405 195.905 167.559C196.111 167.24 196.268 166.891 196.371 166.525C196.542 165.976 196.565 165.391 196.439 164.83C196.42 163.607 196.131 162.403 195.591 161.305C194.871 160.076 194.413 160.754 193.413 160.22C192.158 159.669 190.76 159.532 189.421 159.83C188.574 160.177 185.599 164.245 185.599 164.245C185.599 164.245 173.26 165.678 162.42 162.203C152.632 159.076 150.301 159.093 150.301 159.093C150.301 159.093 159.742 137.405 163.013 131.337" stroke="#263238" stroke-linecap="round" stroke-linejoin="round"/>
<path d="M192.617 169.78L193.389 169.525C193.978 169.342 194.525 169.041 194.997 168.642C195.469 168.244 195.855 167.754 196.135 167.203C196.24 167.008 196.32 166.8 196.372 166.585C196.543 166.035 196.566 165.451 196.44 164.89C196.421 163.666 196.132 162.462 195.592 161.364C194.872 160.135 194.414 160.813 193.414 160.279C192.159 159.728 190.761 159.592 189.422 159.889C188.575 160.237 185.6 164.305 185.6 164.305C182.755 164.562 179.895 164.636 177.04 164.525L177.151 170.568C182.371 169.424 186.168 168.356 186.168 168.356C186.168 168.356 189.6 170.678 192.617 169.78Z" fill="white" stroke="#263238" stroke-linecap="round" stroke-linejoin="round"/>
<path d="M193.379 160.288C193.379 160.288 194.422 163.169 193.778 164.686C193.134 166.203 190.964 162.525 190.964 162.525" stroke="#263238" stroke-linecap="round" stroke-linejoin="round"/>
<path d="M192.482 167.288L192.05 164.474C192.05 164.474 188.592 168.152 187.075 166.635" stroke="#263238" stroke-linecap="round" stroke-linejoin="round"/>
<path d="M173.54 140.168C173.125 138.253 172.582 136.354 171.998 134.464C171.218 131.981 170.353 129.515 169.557 127.066C169.368 126.507 169.138 125.964 168.87 125.439V124.184C168.87 122.828 170.455 120.345 170.455 120.345C169.277 119.035 167.993 117.825 166.616 116.726C163.684 114.243 158.488 110.862 158.488 110.862L156.048 113.523C151.42 114.565 145.352 120.989 142.013 127.769C138.284 135.329 140.191 146.499 138.462 154.567C137.564 158.805 132.767 163.457 128.86 169.407C137.95 174.598 148.03 177.82 158.446 178.865C159.175 173.526 159.794 168.339 160.726 164.644C161.73 160.797 163.672 157.259 166.379 154.347C170.286 150.084 174.955 146.668 173.54 140.168Z" fill="#8BC63E"/>
<path opacity="0.2" d="M142.437 173.221C142.437 171.966 151.217 162.254 153.098 159.745C154.98 157.237 145.259 159.118 143.691 159.118C142.123 159.118 148.081 151.906 152.166 144.389C156.251 136.871 155.293 134.981 155.293 134.981L144.623 130.261C144.623 130.261 142.928 131.066 140.453 132.269C138.86 139.329 139.86 147.957 138.453 154.525C137.555 158.762 132.758 163.415 128.851 169.364C133.077 171.805 137.548 173.793 142.191 175.297C142.319 174.611 142.401 173.917 142.437 173.221Z" fill="black"/>
<path d="M173.54 140.168C173.125 138.253 172.582 136.354 171.998 134.464C171.218 131.981 170.353 129.515 169.557 127.066C169.368 126.507 169.138 125.964 168.87 125.439V124.184C168.87 122.828 170.455 120.345 170.455 120.345C169.277 119.035 167.993 117.825 166.616 116.726C163.684 114.243 158.488 110.862 158.488 110.862L156.048 113.523C151.42 114.565 145.352 120.989 142.013 127.769C138.284 135.329 140.191 146.499 138.462 154.567C137.564 158.805 132.767 163.457 128.86 169.407C137.95 174.598 148.03 177.82 158.446 178.865C159.175 173.526 159.794 168.339 160.726 164.644C161.73 160.797 163.672 157.259 166.379 154.347C170.286 150.084 174.955 146.668 173.54 140.168Z" stroke="#263238" stroke-linecap="round" stroke-linejoin="round"/>
<path d="M158.421 119.455C155.969 118.582 153.312 118.464 150.793 119.116C144.615 120.752 129.445 133.659 126.919 135.498C123.199 138.202 112.063 149.533 112.707 150.423C113.351 151.313 118.809 154.838 127.377 162.186C135.945 169.534 153.649 176.187 153.649 176.187C153.649 176.187 157.988 180.704 160.98 181.687C161.878 181.984 162.607 182.179 163.209 182.314C163.379 182.374 163.557 182.433 163.726 182.475C164.315 182.69 164.952 182.739 165.567 182.618C166.183 182.497 166.754 182.211 167.218 181.789C167.669 181.438 168.023 180.977 168.243 180.45C168.926 179.431 169.375 178.273 169.557 177.06C169.675 175.644 167.574 175.365 167.065 174.373C166.359 173.196 165.292 172.277 164.023 171.754C163.175 171.568 158.361 173.161 158.361 173.161C158.361 173.161 147.513 167.229 140.623 158.101C134.42 149.914 132.504 148.584 132.504 148.584C132.504 148.584 152.709 136.287 158.853 133.185" fill="#8BC63E"/>
<path opacity="0.2" d="M166.26 181.356C159.361 179.475 151.217 173.204 145.259 169.441C139.301 165.678 123.003 151.889 120.808 151.262C118.613 150.635 121.435 149.694 124.885 147.185C128.334 144.677 120.495 147.185 118.613 147.185C116.732 147.185 145.886 128.379 149.971 123.684C153.047 120.133 148.971 120.515 146.793 120.913C139.648 124.955 128.995 133.981 126.902 135.498C123.181 138.202 112.045 149.533 112.689 150.423C113.333 151.313 118.791 154.838 127.359 162.186C135.928 169.534 153.632 176.187 153.632 176.187C153.632 176.187 157.971 180.704 160.963 181.687C161.861 181.984 162.59 182.179 163.192 182.314C163.361 182.373 163.539 182.433 163.709 182.475C164.298 182.69 164.935 182.739 165.55 182.618C166.166 182.497 166.736 182.21 167.2 181.789L167.336 181.67L166.26 181.356Z" fill="black"/>
<path d="M158.421 119.455C155.969 118.582 153.312 118.464 150.793 119.116C144.615 120.752 129.445 133.659 126.919 135.498C123.199 138.202 112.063 149.533 112.707 150.423C113.351 151.313 118.809 154.838 127.377 162.186C135.945 169.534 153.649 176.187 153.649 176.187C153.649 176.187 157.988 180.704 160.98 181.687C161.878 181.984 162.607 182.179 163.209 182.314C163.379 182.374 163.557 182.433 163.726 182.475C164.315 182.69 164.952 182.739 165.567 182.618C166.183 182.497 166.754 182.211 167.218 181.789C167.669 181.438 168.023 180.977 168.243 180.45C168.926 179.431 169.375 178.273 169.557 177.06C169.675 175.644 167.574 175.365 167.065 174.373C166.359 173.196 165.292 172.277 164.023 171.754C163.175 171.568 158.361 173.161 158.361 173.161C158.361 173.161 147.513 167.229 140.623 158.101C134.42 149.914 132.504 148.584 132.504 148.584C132.504 148.584 152.709 136.287 158.853 133.185" stroke="#263238" stroke-linecap="round" stroke-linejoin="round"/>
<path d="M167.074 174.373C166.368 173.196 165.301 172.277 164.031 171.754C163.184 171.568 158.37 173.161 158.37 173.161C156.621 172.166 154.924 171.083 153.285 169.915L149.378 174.466C151.92 175.56 153.615 176.161 153.615 176.161C153.615 176.161 157.955 180.678 160.946 181.662C161.845 181.958 162.573 182.153 163.175 182.289C163.345 182.348 163.523 182.407 163.692 182.45C164.281 182.664 164.918 182.714 165.534 182.593C166.149 182.472 166.72 182.185 167.184 181.763C167.635 181.413 167.989 180.952 168.209 180.424C168.892 179.405 169.341 178.247 169.523 177.034C169.684 175.644 167.582 175.382 167.074 174.373Z" fill="white" stroke="#263238" stroke-linecap="round" stroke-linejoin="round"/>
<path d="M165.641 101.624C165.641 101.624 162.997 96.81 160.912 98.505C158.827 100.2 161.31 103.412 164.082 104.336C166.853 105.26 165.709 103.488 165.709 103.488" fill="white"/>
<path d="M165.641 101.624C165.641 101.624 162.997 96.81 160.912 98.505C158.827 100.2 161.31 103.412 164.082 104.336C166.853 105.26 165.709 103.488 165.709 103.488" stroke="#263238" stroke-linecap="round" stroke-linejoin="round"/>
<path d="M135.437 197.84C139.301 201.905 143.389 205.75 147.683 209.358C155.311 215.824 169.201 221.731 169.201 221.731C169.201 221.731 161.633 239.385 161.913 247.241C162.192 255.097 170.532 287.582 169.769 291.684C169.769 291.684 174.362 295.167 175.185 292.26C176.524 287.565 179.032 249.402 180.032 242.13C181.015 235.003 183.626 222.172 183.617 218.858C183.617 212.502 166.532 194.34 158.946 189.196C154.666 186.321 150.565 183.188 146.666 179.814" fill="white"/>
<path d="M135.437 197.84C139.301 201.905 143.389 205.75 147.683 209.358C155.311 215.824 169.201 221.731 169.201 221.731C169.201 221.731 161.633 239.385 161.913 247.241C162.192 255.097 170.532 287.582 169.769 291.684C169.769 291.684 174.362 295.167 175.185 292.26C176.524 287.565 179.032 249.402 180.032 242.13C181.015 235.003 183.626 222.172 183.617 218.858C183.617 212.502 166.532 194.34 158.946 189.196C154.666 186.321 150.565 183.188 146.666 179.814" stroke="#263238" stroke-linecap="round" stroke-linejoin="round"/>
<path d="M158.946 189.187C154.666 186.313 150.565 183.18 146.666 179.805L135.437 197.84C139.301 201.905 143.389 205.75 147.683 209.358C155.311 215.824 169.201 221.731 169.201 221.731C169.201 221.731 161.633 239.385 161.913 247.241C162.23 250.775 162.77 254.285 163.531 257.75C168.471 258.776 173.55 258.953 178.549 258.275C179.151 250.953 179.685 244.665 180.032 242.13C181.015 235.003 183.626 222.172 183.617 218.858C183.609 212.502 166.532 194.34 158.946 189.187Z" fill="#263238" stroke="#263238" stroke-linecap="round" stroke-linejoin="round"/>
<path d="M133.657 200.001C137.488 203.103 143.488 207.629 147.683 209.324" stroke="white" stroke-linecap="round" stroke-linejoin="round"/>
<path d="M129.937 196.9C129.937 196.9 130.589 197.467 131.632 198.366" stroke="white" stroke-linecap="round" stroke-linejoin="round"/>
<path d="M142.115 178.484L155.192 185.908" stroke="white" stroke-linecap="round" stroke-linejoin="round"/>
<path d="M133.802 174.068C133.802 174.068 128.157 177.043 128.454 179.712C128.751 182.382 135.285 177.933 134.692 180.899C134.098 183.865 130.878 184.416 134.098 185.653C137.319 186.891 151.625 198.425 160.54 204.375C169.456 210.324 178.66 218.333 177.77 220.706C176.88 223.079 168.558 244.436 170.337 258.436" stroke="white" stroke-linecap="round" stroke-linejoin="round"/>
<path d="M95.469 232.545C95.469 232.545 116.86 235.808 125.767 236.698C134.674 237.588 135.573 235.808 134.089 234.028C132.606 232.249 135.573 234.622 136.166 231.944C136.759 229.266 137.954 212.638 138.251 208.476" stroke="white" stroke-linecap="round" stroke-linejoin="round"/>
<path d="M62.6874 232.469C62.6874 232.469 57.1872 224.774 55.382 225.689C53.5768 226.604 49.2885 229.605 46.9663 230.85C44.6442 232.096 40.4915 237.122 40.5254 238.749C40.5593 240.376 44.9578 237.741 47.8732 237.156C50.7886 236.571 61.7891 237.503 61.7891 237.503C61.7891 237.503 61.1958 233.274 62.6874 232.469Z" fill="#8BC63E" stroke="#263238" stroke-linecap="round" stroke-linejoin="round"/>
<path d="M57.1363 226.24C56.4244 225.723 55.8057 225.46 55.382 225.672C53.5853 226.57 49.2885 229.588 46.9663 230.833C44.6442 232.079 40.4915 237.105 40.5254 238.732C40.5254 239.334 41.1525 239.351 42.0593 239.105C43.8306 235.588 47.6528 233.757 51.2632 230.63C53.1098 229.024 55.0729 227.556 57.1363 226.24Z" fill="white" stroke="#263238" stroke-linecap="round" stroke-linejoin="round"/>
<path d="M169.769 291.684C169.769 291.684 165.811 300.286 167.506 301.396C169.201 302.506 173.93 304.786 176.167 306.142C178.405 307.498 184.82 308.685 186.219 307.837C187.617 306.99 183.142 304.489 181.193 302.252C179.244 300.015 175.201 292.277 175.201 292.277C175.201 292.277 171.209 292.582 169.769 291.684Z" fill="#8BC63E" stroke="#263238" stroke-linecap="round" stroke-linejoin="round"/>
<path d="M186.203 307.82C186.804 307.456 186.304 306.778 185.355 305.947C184.087 306.095 182.807 306.121 181.533 306.023C179.075 305.778 170.66 301.294 167.125 299.362C166.981 300.345 167.041 301.116 167.465 301.396C169.16 302.515 173.889 304.786 176.126 306.142C178.363 307.498 184.804 308.659 186.203 307.82Z" fill="white" stroke="#263238" stroke-linecap="round" stroke-linejoin="round"/>
</svg>
