<svg width="40" height="40" viewBox="0 0 40 40" fill="none" xmlns="http://www.w3.org/2000/svg">
<g clip-path="url(#clip0)">
<ellipse cx="15.1998" cy="18.4" rx="14.4" ry="6.4" fill="#FF9500"/>
<path d="M15.1998 31.1996C23.1527 31.1996 29.5998 28.3342 29.5998 24.7996V21.5996C29.5998 25.1342 23.1527 27.9996 15.1998 27.9996C7.2469 27.9996 0.799805 25.1342 0.799805 21.5996V24.7996C0.799805 28.3342 7.2469 31.1996 15.1998 31.1996Z" fill="#FF9500"/>
<path d="M15.1998 37.6C23.1527 37.6 29.5998 34.7346 29.5998 31.2V28C29.5998 31.5346 23.1527 34.4 15.1998 34.4C7.2469 34.4 0.799805 31.5346 0.799805 28V31.2C0.799805 34.7346 7.2469 37.6 15.1998 37.6Z" fill="#FF9500"/>
<path fill-rule="evenodd" clip-rule="evenodd" d="M32.7998 25.3221C36.6589 24.174 39.1998 22.2188 39.1998 19.9998V16.7998C39.1998 19.0188 36.6589 20.974 32.7998 22.1221V25.3221Z" fill="#FF9500"/>
<path fill-rule="evenodd" clip-rule="evenodd" d="M30.1968 13.1351C35.4757 12.186 39.1998 9.88621 39.1998 7.19981C39.1998 3.66518 32.7527 0.799805 24.7998 0.799805C16.8469 0.799805 10.3998 3.66518 10.3998 7.19981C10.3998 7.84272 10.6131 8.46348 11.0099 9.0489C12.3613 8.88484 13.7665 8.79982 15.1998 8.79982C19.5168 8.79982 23.579 9.57112 26.6817 10.9501C27.9676 11.5216 29.1864 12.2409 30.1968 13.1351Z" fill="#FF9500"/>
<path fill-rule="evenodd" clip-rule="evenodd" d="M32.2606 15.875C32.596 16.6348 32.7998 17.4794 32.7998 18.3999V18.9222C36.659 17.7741 39.1998 15.8189 39.1998 13.5999V10.3999C39.1998 12.7206 36.4205 14.7529 32.2606 15.875Z" fill="#FF9500"/>
</g>
<defs>
<clipPath id="clip0">
<rect width="38.4" height="38.4" fill="white" transform="translate(0.799805 0.799805)"/>
</clipPath>
</defs>
</svg>
