<svg width="48" height="33" viewBox="0 0 48 33" fill="none" xmlns="http://www.w3.org/2000/svg">
<path fill-rule="evenodd" clip-rule="evenodd" d="M0.34164 9.16361C0.188733 9.16361 0.0923835 8.99899 0.167261 8.86567L4.85995 0.51031C5.03697 0.195113 5.37034 0 5.73184 0H14.8343L12.261 9.16361H0.34164ZM0.248212 12.2182C0.158157 12.2182 0.113989 12.3279 0.178924 12.3903L20.7026 32.1117C21.0222 32.4188 21.5298 32.0555 21.3422 31.654L12.2609 12.2182H0.248212ZM15.2279 9.16361L17.7047 0H29.0689L31.5457 9.16361H15.2279ZM23.8925 29.7219C23.7537 30.0393 23.3046 30.0423 23.1616 29.7268L15.2279 12.218H31.5457L23.8925 29.7219ZM41.7809 0C42.1275 0 42.4494 0.179513 42.6316 0.474411L47.8113 8.85849C47.8936 8.99174 47.7978 9.16361 47.6412 9.16361H34.5126L31.682 0H41.7809ZM46.5254 12.2182C46.6155 12.2182 46.6596 12.3279 46.5947 12.3903L26.071 32.1117C25.7514 32.4188 25.2438 32.0555 25.4315 31.654L34.5127 12.2182H46.5254Z" fill="#48CEF3"/>
</svg>
