<svg width="32" height="32" viewBox="0 0 32 32" fill="none" xmlns="http://www.w3.org/2000/svg">
<path fill-rule="evenodd" clip-rule="evenodd" d="M9.47505 2.95029C8.8982 2.95029 8.34498 3.17944 7.93709 3.58734C7.5292 3.99523 7.30005 4.54845 7.30005 5.12529C7.30005 5.70214 7.5292 6.25536 7.93709 6.66325C8.34498 7.07114 8.8982 7.30029 9.47505 7.30029H14.0484C13.8714 6.83718 13.6473 6.32795 13.3702 5.82408C12.4582 4.16589 11.2062 2.95029 9.47505 2.95029ZM4.40005 5.12529C4.40005 5.88486 4.57033 6.62687 4.88974 7.30029H1.50005C0.699236 7.30029 0.0500488 7.94948 0.0500488 8.75029V16.0003C0.0500488 16.8011 0.699236 17.4503 1.50005 17.4503H2.95005V30.5003C2.95005 31.3011 3.59924 31.9503 4.40005 31.9503H16H27.6C28.4009 31.9503 29.05 31.3011 29.05 30.5003V17.4503H30.5C31.3009 17.4503 31.9501 16.8011 31.9501 16.0003V8.75029C31.9501 7.94948 31.3009 7.30029 30.5 7.30029H27.1104C27.4298 6.62687 27.6001 5.88486 27.6001 5.12529C27.6001 3.77932 27.0654 2.48847 26.1136 1.53673C25.1619 0.584979 23.871 0.050293 22.5251 0.050293C19.1812 0.050293 17.1707 2.45969 16.0889 4.42651C16.0588 4.48134 16.0291 4.53614 16.0001 4.59086C15.971 4.53614 15.9413 4.48134 15.9112 4.42651C14.8294 2.45969 12.8189 0.050293 9.47505 0.050293C8.12908 0.050293 6.83823 0.584979 5.88648 1.53673C4.93473 2.48847 4.40005 3.77932 4.40005 5.12529ZM17.9517 7.30029H22.5251C23.1019 7.30029 23.6551 7.07114 24.063 6.66325C24.4709 6.25536 24.7001 5.70214 24.7001 5.12529C24.7001 4.54845 24.4709 3.99523 24.063 3.58734C23.6551 3.17944 23.1019 2.95029 22.5251 2.95029C20.7939 2.95029 19.542 4.16589 18.6299 5.82408C18.3528 6.32795 18.1287 6.83718 17.9517 7.30029ZM17.4501 10.2003V14.5503H27.6H29.05V10.2003H22.5251H17.4501ZM9.47505 10.2003H14.55V14.5503H4.40005H2.95005V10.2003H9.47505ZM17.4501 29.0503H26.15V17.4503H17.4501V29.0503ZM14.55 17.4503V29.0503H5.85005V17.4503H14.55Z" fill="#EE2A7B"/>
</svg>
