<svg width="703" height="428" viewBox="0 0 703 428" fill="none" xmlns="http://www.w3.org/2000/svg">
<g clip-path="url(#clip0)">
<g opacity="0.4">
<ellipse cx="10.8108" cy="13.2824" rx="10.8108" ry="4.75802" fill="#EE2A7B"/>
<path d="M10.8108 22.7986C16.7815 22.7986 21.6216 20.6684 21.6216 18.0406V15.6616C21.6216 18.2894 16.7815 20.4196 10.8108 20.4196C4.84017 20.4196 0 18.2894 0 15.6616V18.0406C0 20.6684 4.84017 22.7986 10.8108 22.7986Z" fill="#EE2A7B"/>
<path d="M10.8108 27.5565C16.7815 27.5565 21.6216 25.4262 21.6216 22.7984V20.4194C21.6216 23.0472 16.7815 25.1775 10.8108 25.1775C4.84017 25.1775 0 23.0472 0 20.4194V22.7984C0 25.4262 4.84017 27.5565 10.8108 27.5565Z" fill="#EE2A7B"/>
<path fill-rule="evenodd" clip-rule="evenodd" d="M24.024 18.429C26.9212 17.5755 28.8287 16.1219 28.8287 14.4723V12.0933C28.8287 13.7429 26.9212 15.1965 24.024 16.05V18.429Z" fill="#EE2A7B"/>
<path fill-rule="evenodd" clip-rule="evenodd" d="M22.0697 9.36884C26.0329 8.66327 28.8288 6.95347 28.8288 4.95626C28.8288 2.32848 23.9886 0.198242 18.018 0.198242C12.0473 0.198242 7.20715 2.32848 7.20715 4.95626C7.20715 5.43421 7.36727 5.8957 7.66519 6.33091C8.67966 6.20895 9.73456 6.14575 10.8106 6.14575C14.0516 6.14575 17.1012 6.71917 19.4307 7.74439C20.396 8.16926 21.3111 8.70404 22.0697 9.36884Z" fill="#EE2A7B"/>
<path fill-rule="evenodd" clip-rule="evenodd" d="M23.6191 11.4054C23.8709 11.9703 24.0239 12.5982 24.0239 13.2825V13.6708C26.9213 12.8173 28.8289 11.3637 28.8289 9.71397V7.33496C28.8289 9.06031 26.7423 10.5712 23.6191 11.4054Z" fill="#EE2A7B"/>
<path d="M111.955 5.84318H108.791C108.95 5.39033 109.052 4.89366 109.052 4.38238C109.052 1.95747 107.107 0 104.698 0C103.174 0 101.853 0.788829 101.069 1.97207L100.343 2.95081L99.6176 1.95746C98.8338 0.788829 97.513 0 95.989 0C93.5796 0 91.6346 1.95747 91.6346 4.38238C91.6346 4.89366 91.7362 5.39033 91.8959 5.84318H88.7317C87.1206 5.84318 85.8433 7.14329 85.8433 8.76477L85.8288 24.8335C85.8288 26.455 87.1206 27.7551 88.7317 27.7551H111.955C113.566 27.7551 114.858 26.455 114.858 24.8335V8.76477C114.858 7.14329 113.566 5.84318 111.955 5.84318ZM104.698 2.92159C105.496 2.92159 106.149 3.57895 106.149 4.38238C106.149 5.18582 105.496 5.84318 104.698 5.84318C103.899 5.84318 103.246 5.18582 103.246 4.38238C103.246 3.57895 103.899 2.92159 104.698 2.92159ZM95.989 2.92159C96.7873 2.92159 97.4404 3.57895 97.4404 4.38238C97.4404 5.18582 96.7873 5.84318 95.989 5.84318C95.1907 5.84318 94.5375 5.18582 94.5375 4.38238C94.5375 3.57895 95.1907 2.92159 95.989 2.92159ZM111.955 24.8335H88.7317V21.9119H111.955V24.8335ZM111.955 17.5295H88.7317V8.76477H96.1051L93.0861 12.8988L95.4374 14.6079L98.8919 9.87497L100.343 7.88829L101.795 9.87497L105.249 14.6079L107.601 12.8988L104.582 8.76477H111.955V17.5295Z" fill="#EE2A7B"/>
<path fill-rule="evenodd" clip-rule="evenodd" d="M173.86 3.96484C172.754 3.96484 171.858 4.85244 171.858 5.94735V21.8074C171.858 22.9023 172.754 23.7899 173.86 23.7899H201.888C202.994 23.7899 203.89 22.9023 203.89 21.8074V5.94735C203.89 4.85244 202.994 3.96484 201.888 3.96484H173.86ZM173.86 9.91237C175.518 9.91237 176.863 8.58097 176.863 6.9386H180.867V9.63C179.014 10.7094 177.864 12.2136 177.864 13.8774C177.864 15.5411 179.014 17.0453 180.867 18.1248V20.8162H176.863C176.863 19.1738 175.518 17.8424 173.86 17.8424V9.91237ZM201.888 17.8424C200.229 17.8424 198.885 19.1738 198.885 20.8162H194.881V18.1248C196.734 17.0453 197.884 15.5411 197.884 13.8774C197.884 12.2136 196.734 10.7094 194.881 9.63V6.9386H198.885C198.885 8.58097 200.229 9.91237 201.888 9.91237V17.8424ZM187.576 15.7369C187.628 15.7369 187.679 15.7361 187.729 15.7345C188.5 15.8104 189.102 16.4546 189.102 17.2382C189.102 18.0725 188.419 18.749 187.577 18.749C186.734 18.749 186.051 18.0725 186.051 17.2382C186.051 16.8001 186.24 16.4067 186.541 16.1306C185.673 15.9554 184.884 15.564 184.234 15.0153C183.803 15.6504 183.551 16.4152 183.551 17.2382C183.551 19.4398 185.353 21.2247 187.577 21.2247C189.8 21.2247 191.602 19.4398 191.602 17.2382C191.602 16.2361 191.229 15.3203 190.612 14.6199C191.6 13.7759 192.225 12.5272 192.225 11.1339C192.225 8.59159 190.144 6.53034 187.576 6.53034C185.009 6.53034 182.928 8.59159 182.928 11.1339C182.928 13.6763 185.009 15.7369 187.576 15.7369ZM184.542 14.6197C185.28 13.7817 186.365 13.2517 187.576 13.2517C188.787 13.2517 189.873 13.7817 190.61 14.6197C189.878 15.2458 188.946 15.6492 187.921 15.7236C187.856 15.7284 187.789 15.7318 187.723 15.7339L187.715 15.7341C187.669 15.7296 187.623 15.727 187.576 15.727C187.529 15.727 187.483 15.7296 187.437 15.7341C186.332 15.702 185.324 15.2873 184.542 14.6197ZM192.412 6.53034C192.412 7.072 191.975 7.73143 191.431 7.74983C190.977 7.24333 190.423 6.82631 189.8 6.53034H192.412Z" fill="#EE2A7B"/>
<path d="M284.101 2.38525H267.522C263.859 2.38525 260.89 5.32555 260.89 8.95231V23.7282C260.89 24.6347 261.632 25.3699 262.548 25.3699H289.074C289.99 25.3699 290.732 24.6347 290.732 23.7282V8.95231C290.732 5.32555 287.763 2.38525 284.101 2.38525ZM265.864 22.9073H263.377V15.5194H265.864V22.9073ZM265.864 13.0567H263.377V8.95231C263.377 7.2736 264.403 5.83091 265.864 5.19575V13.0567ZM283.272 22.9073H268.351V15.5194H272.495V17.982C272.495 18.4355 272.866 18.8029 273.324 18.8029H278.298C278.756 18.8029 279.127 18.4355 279.127 17.982V15.5194H283.272V22.9073ZM274.982 15.5194V13.8776C274.982 13.4241 275.353 13.0567 275.811 13.0567C276.269 13.0567 276.64 13.4241 276.64 13.8776V15.5194C276.64 15.9729 276.269 16.3402 275.811 16.3402C275.353 16.3402 274.982 15.9729 274.982 15.5194ZM283.272 13.0567H279.127V11.415C279.127 10.9614 278.756 10.5941 278.298 10.5941H273.324C272.866 10.5941 272.495 10.9614 272.495 11.415V13.0567H268.351V4.8479H283.272V13.0567ZM288.245 22.9073H285.759V15.5194H288.245V22.9073ZM288.245 13.0567H285.759V5.19575C287.22 5.83091 288.245 7.2736 288.245 8.95231V13.0567Z" fill="#EE2A7B"/>
<path fill-rule="evenodd" clip-rule="evenodd" d="M348.076 7.72748C347.922 7.72748 347.826 7.56214 347.902 7.42881L351.631 0.85383C351.808 0.54068 352.141 0.347168 352.501 0.347168H359.797L357.705 7.72748H348.076ZM347.982 10.1877C347.892 10.1877 347.848 10.2979 347.914 10.3601L364.279 25.9323C364.6 26.2377 365.105 25.8724 364.916 25.4719L357.704 10.1877H347.982ZM360.117 7.72748L362.132 0.347168H371.375L373.389 7.72748H360.117ZM367.231 24.1341C367.092 24.4497 366.645 24.4527 366.502 24.139L360.117 10.1875H373.389L367.231 24.1341ZM381.612 0.347168C381.957 0.347168 382.278 0.525082 382.461 0.817854L386.581 7.42162C386.664 7.55483 386.568 7.72748 386.411 7.72748H375.802L373.5 0.347168H381.612ZM385.524 10.1877C385.614 10.1877 385.658 10.2979 385.593 10.3601L369.228 25.9323C368.907 26.2377 368.401 25.8724 368.59 25.4719L375.802 10.1877H385.524Z" fill="#EE2A7B"/>
<ellipse cx="47.8108" cy="174.548" rx="10.8108" ry="4.75802" fill="#EE2A7B"/>
<path d="M47.8108 184.064C53.7815 184.064 58.6216 181.934 58.6216 179.306V176.927C58.6216 179.555 53.7815 181.685 47.8108 181.685C41.8402 181.685 37 179.555 37 176.927V179.306C37 181.934 41.8402 184.064 47.8108 184.064Z" fill="#EE2A7B"/>
<path d="M47.8108 188.822C53.7815 188.822 58.6216 186.692 58.6216 184.064V181.685C58.6216 184.313 53.7815 186.443 47.8108 186.443C41.8402 186.443 37 184.313 37 181.685V184.064C37 186.692 41.8402 188.822 47.8108 188.822Z" fill="#EE2A7B"/>
<path fill-rule="evenodd" clip-rule="evenodd" d="M61.024 179.695C63.9212 178.841 65.8287 177.388 65.8287 175.738V173.359C65.8287 175.009 63.9212 176.462 61.024 177.316V179.695Z" fill="#EE2A7B"/>
<path fill-rule="evenodd" clip-rule="evenodd" d="M59.0697 170.634C63.0329 169.929 65.8288 168.219 65.8288 166.222C65.8288 163.594 60.9886 161.464 55.018 161.464C49.0473 161.464 44.2072 163.594 44.2072 166.222C44.2072 166.7 44.3673 167.161 44.6652 167.597C45.6797 167.475 46.7346 167.411 47.8106 167.411C51.0516 167.411 54.1012 167.985 56.4307 169.01C57.396 169.435 58.3111 169.97 59.0697 170.634Z" fill="#EE2A7B"/>
<path fill-rule="evenodd" clip-rule="evenodd" d="M60.6191 172.671C60.8709 173.236 61.0239 173.864 61.0239 174.548V174.936C63.9212 174.083 65.8288 172.629 65.8288 170.98V168.601C65.8288 170.326 63.7422 171.837 60.6191 172.671Z" fill="#EE2A7B"/>
<path d="M148.955 167.109H145.791C145.95 166.656 146.052 166.159 146.052 165.648C146.052 163.223 144.107 161.266 141.698 161.266C140.174 161.266 138.853 162.054 138.069 163.238L137.343 164.216L136.618 163.223C135.834 162.054 134.513 161.266 132.989 161.266C130.58 161.266 128.635 163.223 128.635 165.648C128.635 166.159 128.736 166.656 128.896 167.109H125.732C124.121 167.109 122.843 168.409 122.843 170.03L122.829 186.099C122.829 187.721 124.121 189.021 125.732 189.021H148.955C150.566 189.021 151.858 187.721 151.858 186.099V170.03C151.858 168.409 150.566 167.109 148.955 167.109ZM141.698 164.187C142.496 164.187 143.149 164.845 143.149 165.648C143.149 166.451 142.496 167.109 141.698 167.109C140.899 167.109 140.246 166.451 140.246 165.648C140.246 164.845 140.899 164.187 141.698 164.187ZM132.989 164.187C133.787 164.187 134.44 164.845 134.44 165.648C134.44 166.451 133.787 167.109 132.989 167.109C132.191 167.109 131.538 166.451 131.538 165.648C131.538 164.845 132.191 164.187 132.989 164.187ZM148.955 186.099H125.732V183.178H148.955V186.099ZM148.955 178.795H125.732V170.03H133.105L130.086 174.164L132.437 175.874L135.892 171.141L137.343 169.154L138.795 171.141L142.249 175.874L144.601 174.164L141.582 170.03H148.955V178.795Z" fill="#EE2A7B"/>
<path fill-rule="evenodd" clip-rule="evenodd" d="M210.86 165.23C209.754 165.23 208.858 166.118 208.858 167.213V183.073C208.858 184.168 209.754 185.056 210.86 185.056H238.888C239.994 185.056 240.89 184.168 240.89 183.073V167.213C240.89 166.118 239.994 165.23 238.888 165.23H210.86ZM210.86 171.178C212.518 171.178 213.863 169.847 213.863 168.204H217.867V170.896C216.014 171.975 214.864 173.479 214.864 175.143C214.864 176.807 216.014 178.311 217.867 179.39V182.082H213.863C213.863 180.439 212.518 179.108 210.86 179.108V171.178ZM238.888 179.108C237.229 179.108 235.885 180.439 235.885 182.082H231.881V179.39C233.734 178.311 234.884 176.807 234.884 175.143C234.884 173.479 233.734 171.975 231.881 170.896V168.204H235.885C235.885 169.847 237.229 171.178 238.888 171.178V179.108ZM224.576 177.003C224.628 177.003 224.679 177.002 224.729 177C225.5 177.076 226.102 177.72 226.102 178.504C226.102 179.338 225.419 180.015 224.577 180.015C223.734 180.015 223.051 179.338 223.051 178.504C223.051 178.066 223.24 177.672 223.541 177.396C222.673 177.221 221.884 176.83 221.234 176.281C220.803 176.916 220.551 177.681 220.551 178.504C220.551 180.705 222.353 182.49 224.577 182.49C226.8 182.49 228.602 180.705 228.602 178.504C228.602 177.502 228.229 176.586 227.612 175.886C228.6 175.041 229.225 173.793 229.225 172.399C229.225 169.857 227.144 167.796 224.576 167.796C222.009 167.796 219.928 169.857 219.928 172.399C219.928 174.942 222.009 177.003 224.576 177.003ZM221.542 175.885C222.28 175.047 223.365 174.517 224.576 174.517C225.787 174.517 226.873 175.047 227.61 175.885C226.878 176.511 225.946 176.915 224.921 176.989C224.856 176.994 224.789 176.997 224.723 176.999L224.715 177C224.669 176.995 224.623 176.993 224.576 176.993C224.529 176.993 224.483 176.995 224.437 177C223.332 176.968 222.324 176.553 221.542 175.885ZM229.412 167.796C229.412 168.338 228.975 168.997 228.431 169.015C227.977 168.509 227.423 168.092 226.8 167.796H229.412Z" fill="#EE2A7B"/>
<path d="M321.101 163.651H304.522C300.859 163.651 297.89 166.591 297.89 170.218V184.994C297.89 185.9 298.632 186.636 299.548 186.636H326.074C326.99 186.636 327.732 185.9 327.732 184.994V170.218C327.732 166.591 324.763 163.651 321.101 163.651ZM302.864 184.173H300.377V176.785H302.864V184.173ZM302.864 174.322H300.377V170.218C300.377 168.539 301.403 167.097 302.864 166.461V174.322ZM320.272 184.173H305.351V176.785H309.495V179.248C309.495 179.701 309.866 180.069 310.324 180.069H315.298C315.756 180.069 316.127 179.701 316.127 179.248V176.785H320.272V184.173ZM311.982 176.785V175.143C311.982 174.69 312.353 174.322 312.811 174.322C313.269 174.322 313.64 174.69 313.64 175.143V176.785C313.64 177.239 313.269 177.606 312.811 177.606C312.353 177.606 311.982 177.239 311.982 176.785ZM320.272 174.322H316.127V172.681C316.127 172.227 315.756 171.86 315.298 171.86H310.324C309.866 171.86 309.495 172.227 309.495 172.681V174.322H305.351V166.114H320.272V174.322ZM325.245 184.173H322.759V176.785H325.245V184.173ZM325.245 174.322H322.759V166.461C324.22 167.097 325.245 168.539 325.245 170.218V174.322Z" fill="#EE2A7B"/>
<path fill-rule="evenodd" clip-rule="evenodd" d="M385.076 168.993C384.922 168.993 384.826 168.828 384.902 168.694L388.631 162.119C388.808 161.806 389.141 161.613 389.501 161.613H396.797L394.705 168.993H385.076ZM384.982 171.453C384.892 171.453 384.848 171.563 384.914 171.626L401.279 187.198C401.6 187.503 402.105 187.138 401.916 186.737L394.704 171.453H384.982ZM397.117 168.993L399.132 161.613H408.375L410.389 168.993H397.117ZM404.231 185.4C404.092 185.715 403.645 185.718 403.502 185.405L397.117 171.453H410.389L404.231 185.4ZM418.612 161.613C418.957 161.613 419.278 161.791 419.461 162.083L423.581 168.687C423.664 168.82 423.568 168.993 423.411 168.993H412.802L410.5 161.613H418.612ZM422.524 171.453C422.614 171.453 422.658 171.563 422.593 171.626L406.228 187.198C405.907 187.503 405.401 187.138 405.59 186.737L412.802 171.453H422.524Z" fill="#EE2A7B"/>
<path d="M60.2107 56.1401H43.6316C39.9692 56.1401 37 59.0804 37 62.7072V77.4831C37 78.3896 37.7424 79.1248 38.6579 79.1248H65.1845C66.0999 79.1248 66.8424 78.3896 66.8424 77.4831V62.7072C66.8424 59.0804 63.8732 56.1401 60.2107 56.1401ZM41.9737 76.6622H39.4869V69.2742H41.9737V76.6622ZM41.9737 66.8116H39.4869V62.7072C39.4869 61.0285 40.5127 59.5858 41.9737 58.9506V66.8116ZM59.3818 76.6622H44.4606V69.2742H48.6054V71.7369C48.6054 72.1904 48.9763 72.5578 49.4343 72.5578H54.4081C54.8661 72.5578 55.237 72.1904 55.237 71.7369V69.2742H59.3818V76.6622ZM51.0922 69.2742V67.6325C51.0922 67.1789 51.4632 66.8116 51.9212 66.8116C52.3792 66.8116 52.7501 67.1789 52.7501 67.6325V69.2742C52.7501 69.7278 52.3792 70.0951 51.9212 70.0951C51.4632 70.0951 51.0922 69.7278 51.0922 69.2742ZM59.3818 66.8116H55.237V65.1698C55.237 64.7163 54.8661 64.349 54.4081 64.349H49.4343C48.9763 64.349 48.6054 64.7163 48.6054 65.1698V66.8116H44.4606V58.6028H59.3818V66.8116ZM64.3555 76.6622H61.8687V69.2742H64.3555V76.6622ZM64.3555 66.8116H61.8687V58.9506C63.3297 59.5858 64.3555 61.0285 64.3555 62.7072V66.8116Z" fill="#EE2A7B"/>
<path fill-rule="evenodd" clip-rule="evenodd" d="M124.186 61.4824C124.033 61.4824 123.936 61.317 124.012 61.1837L127.741 54.6087C127.919 54.2956 128.251 54.1021 128.611 54.1021H135.908L133.815 61.4824H124.186ZM124.093 63.9425C124.002 63.9425 123.958 64.0527 124.024 64.115L140.389 79.6872C140.71 79.9925 141.215 79.6273 141.026 79.2267L133.815 63.9425H124.093ZM136.228 61.4824L138.242 54.1021H147.485L149.499 61.4824H136.228ZM143.341 77.889C143.202 78.2046 142.755 78.2076 142.612 77.8939L136.228 63.9424H149.499L143.341 77.889ZM157.722 54.1021C158.067 54.1021 158.388 54.28 158.571 54.5727L162.691 61.1765C162.774 61.3097 162.678 61.4824 162.521 61.4824H151.912L149.61 54.1021H157.722ZM161.634 63.9425C161.724 63.9425 161.769 64.0527 161.703 64.115L145.338 79.6872C145.017 79.9925 144.512 79.6273 144.701 79.2267L151.912 63.9425H161.634Z" fill="#EE2A7B"/>
<ellipse cx="230.692" cy="67.0373" rx="10.8108" ry="4.75802" fill="#EE2A7B"/>
<path d="M230.692 76.5535C236.663 76.5535 241.503 74.4233 241.503 71.7955V69.4165C241.503 72.0443 236.663 74.1745 230.692 74.1745C224.722 74.1745 219.881 72.0443 219.881 69.4165V71.7955C219.881 74.4233 224.722 76.5535 230.692 76.5535Z" fill="#EE2A7B"/>
<path d="M230.692 81.3113C236.663 81.3113 241.503 79.1811 241.503 76.5533V74.1743C241.503 76.8021 236.663 78.9323 230.692 78.9323C224.722 78.9323 219.881 76.8021 219.881 74.1743V76.5533C219.881 79.1811 224.722 81.3113 230.692 81.3113Z" fill="#EE2A7B"/>
<path fill-rule="evenodd" clip-rule="evenodd" d="M243.906 72.1839C246.803 71.3304 248.71 69.8768 248.71 68.2272V65.8481C248.71 67.4978 246.803 68.9513 243.906 69.8049V72.1839Z" fill="#EE2A7B"/>
<path fill-rule="evenodd" clip-rule="evenodd" d="M241.951 63.1237C245.914 62.4181 248.71 60.7083 248.71 58.7111C248.71 56.0834 243.87 53.9531 237.899 53.9531C231.929 53.9531 227.089 56.0834 227.089 58.7111C227.089 59.1891 227.249 59.6506 227.547 60.0858C228.561 59.9638 229.616 59.9006 230.692 59.9006C233.933 59.9006 236.983 60.4741 239.312 61.4993C240.278 61.9241 241.193 62.4589 241.951 63.1237Z" fill="#EE2A7B"/>
<path fill-rule="evenodd" clip-rule="evenodd" d="M243.501 65.1603C243.752 65.7251 243.905 66.353 243.905 67.0374V67.4257C246.803 66.5721 248.71 65.1185 248.71 63.4689V61.0898C248.71 62.8152 246.624 64.3261 243.501 65.1603Z" fill="#EE2A7B"/>
<path d="M331.836 59.5981H328.672C328.832 59.1452 328.934 58.6485 328.934 58.1373C328.934 55.7123 326.989 53.7549 324.579 53.7549C323.055 53.7549 321.734 54.5437 320.951 55.727L320.225 56.7057L319.499 55.7123C318.715 54.5437 317.395 53.7549 315.87 53.7549C313.461 53.7549 311.516 55.7123 311.516 58.1373C311.516 58.6485 311.618 59.1452 311.777 59.5981H308.613C307.002 59.5981 305.725 60.8982 305.725 62.5197L305.71 78.5884C305.71 80.2099 307.002 81.51 308.613 81.51H331.836C333.448 81.51 334.739 80.2099 334.739 78.5884V62.5197C334.739 60.8982 333.448 59.5981 331.836 59.5981ZM324.579 56.6765C325.378 56.6765 326.031 57.3338 326.031 58.1373C326.031 58.9407 325.378 59.5981 324.579 59.5981C323.781 59.5981 323.128 58.9407 323.128 58.1373C323.128 57.3338 323.781 56.6765 324.579 56.6765ZM315.87 56.6765C316.669 56.6765 317.322 57.3338 317.322 58.1373C317.322 58.9407 316.669 59.5981 315.87 59.5981C315.072 59.5981 314.419 58.9407 314.419 58.1373C314.419 57.3338 315.072 56.6765 315.87 56.6765ZM331.836 78.5884H308.613V75.6668H331.836V78.5884ZM331.836 71.2844H308.613V62.5197H315.987L312.968 66.6537L315.319 68.3628L318.773 63.6299L320.225 61.6432L321.676 63.6299L325.131 68.3628L327.482 66.6537L324.463 62.5197H331.836V71.2844Z" fill="#EE2A7B"/>
<path fill-rule="evenodd" clip-rule="evenodd" d="M393.741 57.7197C392.636 57.7197 391.739 58.6073 391.739 59.7022V75.5623C391.739 76.6572 392.636 77.5448 393.741 77.5448H421.769C422.875 77.5448 423.771 76.6572 423.771 75.5623V59.7022C423.771 58.6073 422.875 57.7197 421.769 57.7197H393.741ZM393.741 63.6672C395.4 63.6672 396.744 62.3359 396.744 60.6935H400.748V63.3849C398.895 64.4643 397.745 65.9685 397.745 67.6323C397.745 69.296 398.895 70.8002 400.748 71.8796V74.571H396.744C396.744 72.9287 395.4 71.5973 393.741 71.5973V63.6672ZM421.769 71.5973C420.111 71.5973 418.766 72.9287 418.766 74.571H414.762V71.8796C416.616 70.8002 417.765 69.296 417.765 67.6323C417.765 65.9685 416.616 64.4643 414.762 63.3849V60.6935H418.766C418.766 62.3359 420.111 63.6672 421.769 63.6672V71.5973ZM407.458 69.4918C407.509 69.4918 407.56 69.491 407.611 69.4894C408.381 69.5653 408.984 70.2095 408.984 70.9931C408.984 71.8273 408.3 72.5039 407.458 72.5039C406.615 72.5039 405.933 71.8273 405.933 70.9931C405.933 70.555 406.122 70.1616 406.423 69.8855C405.554 69.7103 404.765 69.3189 404.116 68.7702C403.684 69.4052 403.432 70.1701 403.432 70.9931C403.432 73.1946 405.235 74.9796 407.458 74.9796C409.681 74.9796 411.484 73.1946 411.484 70.9931C411.484 69.991 411.11 69.0752 410.494 68.3748C411.482 67.5307 412.107 66.2821 412.107 64.8887C412.107 62.3465 410.025 60.2852 407.458 60.2852C404.891 60.2852 402.809 62.3465 402.809 64.8887C402.809 67.4312 404.891 69.4918 407.458 69.4918ZM404.423 68.3746C405.161 67.5366 406.247 67.0066 407.458 67.0066C408.669 67.0066 409.754 67.5366 410.492 68.3746C409.759 69.0007 408.827 69.4041 407.803 69.4785C407.737 69.4833 407.671 69.4867 407.604 69.4887L407.597 69.489C407.551 69.4845 407.505 69.4819 407.458 69.4819C407.411 69.4819 407.365 69.4845 407.319 69.489C406.213 69.4568 405.205 69.0422 404.423 68.3746ZM412.293 60.2852C412.293 60.8269 411.856 61.4863 411.312 61.5047C410.858 60.9982 410.305 60.5812 409.681 60.2852H412.293Z" fill="#EE2A7B"/>
<path d="M23.2107 217.406H6.63164C2.96921 217.406 0 220.346 0 223.973V238.749C0 239.655 0.742433 240.39 1.65791 240.39H28.1845C29.0999 240.39 29.8424 239.655 29.8424 238.749V223.973C29.8424 220.346 26.8732 217.406 23.2107 217.406ZM4.97373 237.928H2.48687V230.54H4.97373V237.928ZM4.97373 228.077H2.48687V223.973C2.48687 222.294 3.5127 220.851 4.97373 220.216V228.077ZM22.3818 237.928H7.4606V230.54H11.6054V233.003C11.6054 233.456 11.9763 233.823 12.4343 233.823H17.4081C17.8661 233.823 18.237 233.456 18.237 233.003V230.54H22.3818V237.928ZM14.0922 230.54V228.898C14.0922 228.445 14.4632 228.077 14.9212 228.077C15.3792 228.077 15.7501 228.445 15.7501 228.898V230.54C15.7501 230.993 15.3792 231.361 14.9212 231.361C14.4632 231.361 14.0922 230.993 14.0922 230.54ZM22.3818 228.077H18.237V226.435C18.237 225.982 17.8661 225.615 17.4081 225.615H12.4343C11.9763 225.615 11.6054 225.982 11.6054 226.435V228.077H7.4606V219.868H22.3818V228.077ZM27.3555 237.928H24.8687V230.54H27.3555V237.928ZM27.3555 228.077H24.8687V220.216C26.3297 220.851 27.3555 222.294 27.3555 223.973V228.077Z" fill="#EE2A7B"/>
<path fill-rule="evenodd" clip-rule="evenodd" d="M87.1859 222.748C87.0326 222.748 86.9363 222.583 87.0119 222.449L90.741 215.874C90.9186 215.561 91.2508 215.368 91.6108 215.368H98.9075L96.8146 222.748H87.1859ZM87.0926 225.208C87.0023 225.208 86.9582 225.318 87.0236 225.381L103.389 240.953C103.71 241.258 104.215 240.893 104.026 240.492L96.8145 225.208H87.0926ZM99.2276 222.748L101.242 215.368H110.485L112.499 222.748H99.2276ZM106.341 239.155C106.202 239.47 105.755 239.473 105.612 239.159L99.2276 225.208H112.499L106.341 239.155ZM120.722 215.368C121.067 215.368 121.388 215.546 121.571 215.838L125.691 222.442C125.774 222.575 125.678 222.748 125.521 222.748H114.912L112.61 215.368H120.722ZM124.634 225.208C124.724 225.208 124.769 225.318 124.703 225.381L108.338 240.953C108.017 241.258 107.512 240.893 107.701 240.492L114.912 225.208H124.634Z" fill="#EE2A7B"/>
<ellipse cx="193.692" cy="228.303" rx="10.8108" ry="4.75802" fill="#EE2A7B"/>
<path d="M193.692 237.819C199.663 237.819 204.503 235.689 204.503 233.061V230.682C204.503 233.31 199.663 235.44 193.692 235.44C187.722 235.44 182.881 233.31 182.881 230.682V233.061C182.881 235.689 187.722 237.819 193.692 237.819Z" fill="#EE2A7B"/>
<path d="M193.692 242.577C199.663 242.577 204.503 240.447 204.503 237.819V235.44C204.503 238.068 199.663 240.198 193.692 240.198C187.722 240.198 182.881 238.068 182.881 235.44V237.819C182.881 240.447 187.722 242.577 193.692 242.577Z" fill="#EE2A7B"/>
<path fill-rule="evenodd" clip-rule="evenodd" d="M206.906 233.45C209.803 232.596 211.71 231.142 211.71 229.493V227.114C211.71 228.763 209.803 230.217 206.906 231.071V233.45Z" fill="#EE2A7B"/>
<path fill-rule="evenodd" clip-rule="evenodd" d="M204.951 224.389C208.914 223.684 211.71 221.974 211.71 219.977C211.71 217.349 206.87 215.219 200.899 215.219C194.929 215.219 190.089 217.349 190.089 219.977C190.089 220.455 190.249 220.916 190.547 221.351C191.561 221.229 192.616 221.166 193.692 221.166C196.933 221.166 199.983 221.74 202.312 222.765C203.278 223.19 204.193 223.725 204.951 224.389Z" fill="#EE2A7B"/>
<path fill-rule="evenodd" clip-rule="evenodd" d="M206.501 226.426C206.752 226.991 206.905 227.619 206.905 228.303V228.691C209.803 227.838 211.71 226.384 211.71 224.734V222.355C211.71 224.081 209.624 225.592 206.501 226.426Z" fill="#EE2A7B"/>
<path d="M294.836 220.864H291.672C291.832 220.411 291.934 219.914 291.934 219.403C291.934 216.978 289.989 215.021 287.579 215.021C286.055 215.021 284.734 215.809 283.951 216.993L283.225 217.971L282.499 216.978C281.715 215.809 280.395 215.021 278.87 215.021C276.461 215.021 274.516 216.978 274.516 219.403C274.516 219.914 274.618 220.411 274.777 220.864H271.613C270.002 220.864 268.725 222.164 268.725 223.785L268.71 239.854C268.71 241.476 270.002 242.776 271.613 242.776H294.836C296.448 242.776 297.739 241.476 297.739 239.854V223.785C297.739 222.164 296.448 220.864 294.836 220.864ZM287.579 217.942C288.378 217.942 289.031 218.599 289.031 219.403C289.031 220.206 288.378 220.864 287.579 220.864C286.781 220.864 286.128 220.206 286.128 219.403C286.128 218.599 286.781 217.942 287.579 217.942ZM278.87 217.942C279.669 217.942 280.322 218.599 280.322 219.403C280.322 220.206 279.669 220.864 278.87 220.864C278.072 220.864 277.419 220.206 277.419 219.403C277.419 218.599 278.072 217.942 278.87 217.942ZM294.836 239.854H271.613V236.932H294.836V239.854ZM294.836 232.55H271.613V223.785H278.987L275.968 227.919L278.319 229.628L281.773 224.895L283.225 222.909L284.676 224.895L288.131 229.628L290.482 227.919L287.463 223.785H294.836V232.55Z" fill="#EE2A7B"/>
<path fill-rule="evenodd" clip-rule="evenodd" d="M356.741 218.985C355.636 218.985 354.739 219.873 354.739 220.968V236.828C354.739 237.923 355.636 238.81 356.741 238.81H384.769C385.875 238.81 386.771 237.923 386.771 236.828V220.968C386.771 219.873 385.875 218.985 384.769 218.985H356.741ZM356.741 224.933C358.4 224.933 359.744 223.601 359.744 221.959H363.748V224.651C361.895 225.73 360.745 227.234 360.745 228.898C360.745 230.562 361.895 232.066 363.748 233.145V235.837H359.744C359.744 234.194 358.4 232.863 356.741 232.863V224.933ZM384.769 232.863C383.111 232.863 381.766 234.194 381.766 235.837H377.762V233.145C379.616 232.066 380.765 230.562 380.765 228.898C380.765 227.234 379.616 225.73 377.762 224.651V221.959H381.766C381.766 223.601 383.111 224.933 384.769 224.933V232.863ZM370.458 230.757C370.509 230.757 370.56 230.757 370.611 230.755C371.381 230.831 371.984 231.475 371.984 232.259C371.984 233.093 371.3 233.769 370.458 233.769C369.615 233.769 368.933 233.093 368.933 232.259C368.933 231.821 369.122 231.427 369.423 231.151C368.554 230.976 367.765 230.585 367.116 230.036C366.684 230.671 366.432 231.436 366.432 232.259C366.432 234.46 368.235 236.245 370.458 236.245C372.681 236.245 374.484 234.46 374.484 232.259C374.484 231.257 374.11 230.341 373.494 229.64C374.482 228.796 375.107 227.548 375.107 226.154C375.107 223.612 373.025 221.551 370.458 221.551C367.891 221.551 365.809 223.612 365.809 226.154C365.809 228.697 367.891 230.757 370.458 230.757ZM367.423 229.64C368.161 228.802 369.247 228.272 370.458 228.272C371.669 228.272 372.754 228.802 373.492 229.64C372.759 230.266 371.827 230.67 370.803 230.744C370.737 230.749 370.671 230.752 370.604 230.754L370.597 230.755C370.551 230.75 370.505 230.748 370.458 230.748C370.411 230.748 370.365 230.75 370.319 230.755C369.213 230.722 368.205 230.308 367.423 229.64ZM375.293 221.551C375.293 222.093 374.856 222.752 374.312 222.77C373.858 222.264 373.305 221.847 372.681 221.551H375.293Z" fill="#EE2A7B"/>
<path fill-rule="evenodd" clip-rule="evenodd" d="M2.002 111.475C0.896328 111.475 0 112.363 0 113.458V129.318C0 130.413 0.896328 131.3 2.002 131.3H30.0301C31.1357 131.3 32.0321 130.413 32.0321 129.318V113.458C32.0321 112.363 31.1357 111.475 30.0301 111.475H2.002ZM2.002 117.423C3.66052 117.423 5.00501 116.091 5.00501 114.449H9.00902V117.14C7.1558 118.22 6.00601 119.724 6.00601 121.388C6.00601 123.051 7.1558 124.556 9.00902 125.635V128.326H5.00501C5.00501 126.684 3.66052 125.353 2.002 125.353V117.423ZM30.0301 125.353C28.3716 125.353 27.0271 126.684 27.0271 128.326H23.0231V125.635C24.8763 124.556 26.0261 123.051 26.0261 121.388C26.0261 119.724 24.8763 118.22 23.0231 117.14V114.449H27.0271C27.0271 116.091 28.3716 117.423 30.0301 117.423V125.353ZM15.7185 123.247C15.7697 123.247 15.8207 123.246 15.8715 123.245C16.6421 123.321 17.2444 123.965 17.2444 124.748C17.2444 125.583 16.561 126.259 15.7186 126.259C14.8761 126.259 14.1931 125.583 14.1931 124.748C14.1931 124.31 14.3824 123.917 14.6832 123.641C13.8147 123.466 13.0259 123.074 12.3764 122.526C11.9447 123.161 11.6926 123.925 11.6926 124.748C11.6926 126.95 13.4952 128.735 15.7186 128.735C17.942 128.735 19.7445 126.95 19.7445 124.748C19.7445 123.746 19.3711 122.831 18.7545 122.13C19.7421 121.286 20.3673 120.037 20.3673 118.644C20.3673 116.102 18.2859 114.041 15.7185 114.041C13.1513 114.041 11.0699 116.102 11.0699 118.644C11.0699 121.187 13.1513 123.247 15.7185 123.247ZM12.6841 122.13C13.4221 121.292 14.5074 120.762 15.7184 120.762C16.9294 120.762 18.0147 121.292 18.7526 122.13C18.02 122.756 17.088 123.159 16.0635 123.234C15.9977 123.239 15.9314 123.242 15.8649 123.244L15.8574 123.244C15.8115 123.24 15.7652 123.237 15.7184 123.237C15.6716 123.237 15.6252 123.24 15.5796 123.244C14.4737 123.212 13.4659 122.798 12.6841 122.13ZM20.5541 114.041C20.5541 114.582 20.1166 115.242 19.5727 115.26C19.1188 114.754 18.5654 114.337 17.9418 114.041H20.5541Z" fill="#EE2A7B"/>
<path d="M115.158 113.353H111.994C112.154 112.901 112.255 112.404 112.255 111.893C112.255 109.468 110.31 107.51 107.901 107.51C106.377 107.51 105.056 108.299 104.272 109.482L103.547 110.461L102.821 109.468C102.037 108.299 100.716 107.51 99.1923 107.51C96.7829 107.51 94.8379 109.468 94.8379 111.893C94.8379 112.404 94.9395 112.901 95.0992 113.353H91.935C90.3239 113.353 89.0466 114.654 89.0466 116.275L89.0321 132.344C89.0321 133.965 90.3239 135.265 91.935 135.265H115.158C116.769 135.265 118.061 133.965 118.061 132.344V116.275C118.061 114.654 116.769 113.353 115.158 113.353ZM107.901 110.432C108.699 110.432 109.352 111.089 109.352 111.893C109.352 112.696 108.699 113.353 107.901 113.353C107.103 113.353 106.45 112.696 106.45 111.893C106.45 111.089 107.103 110.432 107.901 110.432ZM99.1923 110.432C99.9906 110.432 100.644 111.089 100.644 111.893C100.644 112.696 99.9906 113.353 99.1923 113.353C98.394 113.353 97.7408 112.696 97.7408 111.893C97.7408 111.089 98.394 110.432 99.1923 110.432ZM115.158 132.344H91.935V129.422H115.158V132.344ZM115.158 125.04H91.935V116.275H99.3084L96.2894 120.409L98.6407 122.118L102.095 117.385L103.547 115.399L104.998 117.385L108.453 122.118L110.804 120.409L107.785 116.275H115.158V125.04Z" fill="#EE2A7B"/>
<path d="M198.272 109.896H181.693C178.03 109.896 175.061 112.836 175.061 116.463V131.238C175.061 132.145 175.804 132.88 176.719 132.88H203.246C204.161 132.88 204.904 132.145 204.904 131.238V116.463C204.904 112.836 201.934 109.896 198.272 109.896ZM180.035 130.418H177.548V123.03H180.035V130.418ZM180.035 120.567H177.548V116.463C177.548 114.784 178.574 113.341 180.035 112.706V120.567ZM197.443 130.418H182.522V123.03H186.667V125.492C186.667 125.946 187.037 126.313 187.495 126.313H192.469C192.927 126.313 193.298 125.946 193.298 125.492V123.03H197.443V130.418ZM189.153 123.03V121.388C189.153 120.934 189.524 120.567 189.982 120.567C190.44 120.567 190.811 120.934 190.811 121.388V123.03C190.811 123.483 190.44 123.85 189.982 123.85C189.524 123.85 189.153 123.483 189.153 123.03ZM197.443 120.567H193.298V118.925C193.298 118.472 192.927 118.104 192.469 118.104H187.495C187.037 118.104 186.667 118.472 186.667 118.925V120.567H182.522V112.358H197.443V120.567ZM202.417 130.418H199.93V123.03H202.417V130.418ZM202.417 120.567H199.93V112.706C201.391 113.341 202.417 114.784 202.417 116.463V120.567Z" fill="#EE2A7B"/>
<path fill-rule="evenodd" clip-rule="evenodd" d="M262.247 115.238C262.094 115.238 261.997 115.072 262.073 114.939L265.802 108.364C265.98 108.051 266.312 107.857 266.672 107.857H273.969L271.876 115.238H262.247ZM262.154 117.698C262.063 117.698 262.019 117.808 262.085 117.87L278.45 133.443C278.771 133.748 279.276 133.383 279.087 132.982L271.876 117.698H262.154ZM274.289 115.238L276.303 107.857H285.546L287.56 115.238H274.289ZM281.402 131.644C281.263 131.96 280.816 131.963 280.673 131.649L274.289 117.698H287.56L281.402 131.644ZM295.783 107.857C296.129 107.857 296.449 108.035 296.632 108.328L300.752 114.932C300.835 115.065 300.739 115.238 300.582 115.238H289.973L287.671 107.857H295.783ZM299.695 117.698C299.786 117.698 299.83 117.808 299.764 117.87L283.399 133.443C283.078 133.748 282.573 133.383 282.762 132.982L289.973 117.698H299.695Z" fill="#EE2A7B"/>
<ellipse cx="368.753" cy="120.793" rx="10.8108" ry="4.75802" fill="#EE2A7B"/>
<path d="M368.753 130.309C374.724 130.309 379.564 128.179 379.564 125.551V123.172C379.564 125.8 374.724 127.93 368.753 127.93C362.783 127.93 357.943 125.8 357.943 123.172V125.551C357.943 128.179 362.783 130.309 368.753 130.309Z" fill="#EE2A7B"/>
<path d="M368.753 135.067C374.724 135.067 379.564 132.936 379.564 130.309V127.93C379.564 130.557 374.724 132.688 368.753 132.688C362.783 132.688 357.943 130.557 357.943 127.93V130.309C357.943 132.936 362.783 135.067 368.753 135.067Z" fill="#EE2A7B"/>
<path fill-rule="evenodd" clip-rule="evenodd" d="M381.967 125.939C384.864 125.086 386.771 123.632 386.771 121.983V119.604C386.771 121.253 384.864 122.707 381.967 123.56V125.939Z" fill="#EE2A7B"/>
<path fill-rule="evenodd" clip-rule="evenodd" d="M380.012 116.879C383.975 116.174 386.771 114.464 386.771 112.467C386.771 109.839 381.931 107.708 375.961 107.708C369.99 107.708 365.15 109.839 365.15 112.467C365.15 112.944 365.31 113.406 365.608 113.841C366.622 113.719 367.677 113.656 368.753 113.656C371.994 113.656 375.044 114.229 377.373 115.255C378.339 115.68 379.254 116.214 380.012 116.879Z" fill="#EE2A7B"/>
<path fill-rule="evenodd" clip-rule="evenodd" d="M381.562 118.916C381.814 119.481 381.967 120.109 381.967 120.793V121.182C384.864 120.328 386.771 118.874 386.771 117.225V114.846C386.771 116.571 384.685 118.082 381.562 118.916Z" fill="#EE2A7B"/>
<path fill-rule="evenodd" clip-rule="evenodd" d="M39.002 272.74C37.8963 272.74 37 273.628 37 274.723V290.583C37 291.678 37.8963 292.565 39.002 292.565H67.0301C68.1357 292.565 69.0321 291.678 69.0321 290.583V274.723C69.0321 273.628 68.1357 272.74 67.0301 272.74H39.002ZM39.002 278.688C40.6605 278.688 42.005 277.356 42.005 275.714H46.009V278.405C44.1558 279.485 43.006 280.989 43.006 282.653C43.006 284.317 44.1558 285.821 46.009 286.9V289.592H42.005C42.005 287.949 40.6605 286.618 39.002 286.618V278.688ZM67.0301 286.618C65.3716 286.618 64.0271 287.949 64.0271 289.592H60.0231V286.9C61.8763 285.821 63.0261 284.317 63.0261 282.653C63.0261 280.989 61.8763 279.485 60.0231 278.405V275.714H64.0271C64.0271 277.356 65.3716 278.688 67.0301 278.688V286.618ZM52.7185 284.512C52.7697 284.512 52.8207 284.512 52.8715 284.51C53.6421 284.586 54.2444 285.23 54.2444 286.014C54.2444 286.848 53.561 287.524 52.7186 287.524C51.8761 287.524 51.1931 286.848 51.1931 286.014C51.1931 285.575 51.3824 285.182 51.6832 284.906C50.8147 284.731 50.0259 284.339 49.3764 283.791C48.9447 284.426 48.6926 285.191 48.6926 286.014C48.6926 288.215 50.4952 290 52.7186 290C54.942 290 56.7445 288.215 56.7445 286.014C56.7445 285.012 56.3711 284.096 55.7545 283.395C56.7421 282.551 57.3673 281.303 57.3673 279.909C57.3673 277.367 55.2859 275.306 52.7185 275.306C50.1513 275.306 48.0699 277.367 48.0699 279.909C48.0699 282.452 50.1513 284.512 52.7185 284.512ZM49.6841 283.395C50.4221 282.557 51.5074 282.027 52.7184 282.027C53.9294 282.027 55.0147 282.557 55.7526 283.395C55.02 284.021 54.088 284.425 53.0635 284.499C52.9977 284.504 52.9314 284.507 52.8649 284.509L52.8574 284.509C52.8115 284.505 52.7652 284.502 52.7184 284.502C52.6716 284.502 52.6252 284.505 52.5796 284.509C51.4737 284.477 50.4659 284.063 49.6841 283.395ZM57.5541 275.306C57.5541 275.847 57.1166 276.507 56.5727 276.525C56.1188 276.019 55.5654 275.602 54.9418 275.306H57.5541Z" fill="#EE2A7B"/>
<path d="M152.158 274.619H148.994C149.154 274.166 149.255 273.669 149.255 273.158C149.255 270.733 147.31 268.775 144.901 268.775C143.377 268.775 142.056 269.564 141.272 270.747L140.547 271.726L139.821 270.733C139.037 269.564 137.716 268.775 136.192 268.775C133.783 268.775 131.838 270.733 131.838 273.158C131.838 273.669 131.94 274.166 132.099 274.619H128.935C127.324 274.619 126.047 275.919 126.047 277.54L126.032 293.609C126.032 295.23 127.324 296.53 128.935 296.53H152.158C153.769 296.53 155.061 295.23 155.061 293.609V277.54C155.061 275.919 153.769 274.619 152.158 274.619ZM144.901 271.697C145.699 271.697 146.352 272.354 146.352 273.158C146.352 273.961 145.699 274.619 144.901 274.619C144.103 274.619 143.45 273.961 143.45 273.158C143.45 272.354 144.103 271.697 144.901 271.697ZM136.192 271.697C136.991 271.697 137.644 272.354 137.644 273.158C137.644 273.961 136.991 274.619 136.192 274.619C135.394 274.619 134.741 273.961 134.741 273.158C134.741 272.354 135.394 271.697 136.192 271.697ZM152.158 293.609H128.935V290.687H152.158V293.609ZM152.158 286.305H128.935V277.54H136.308L133.289 281.674L135.641 283.383L139.095 278.65L140.547 276.664L141.998 278.65L145.453 283.383L147.804 281.674L144.785 277.54H152.158V286.305Z" fill="#EE2A7B"/>
<path d="M235.272 271.161H218.693C215.03 271.161 212.061 274.101 212.061 277.728V292.504C212.061 293.41 212.804 294.145 213.719 294.145H240.246C241.161 294.145 241.904 293.41 241.904 292.504V277.728C241.904 274.101 238.934 271.161 235.272 271.161ZM217.035 291.683H214.548V284.295H217.035V291.683ZM217.035 281.832H214.548V277.728C214.548 276.049 215.574 274.606 217.035 273.971V281.832ZM234.443 291.683H219.522V284.295H223.667V286.757C223.667 287.211 224.037 287.578 224.495 287.578H229.469C229.927 287.578 230.298 287.211 230.298 286.757V284.295H234.443V291.683ZM226.153 284.295V282.653C226.153 282.199 226.524 281.832 226.982 281.832C227.44 281.832 227.811 282.199 227.811 282.653V284.295C227.811 284.748 227.44 285.116 226.982 285.116C226.524 285.116 226.153 284.748 226.153 284.295ZM234.443 281.832H230.298V280.19C230.298 279.737 229.927 279.369 229.469 279.369H224.495C224.037 279.369 223.667 279.737 223.667 280.19V281.832H219.522V273.623H234.443V281.832ZM239.417 291.683H236.93V284.295H239.417V291.683ZM239.417 281.832H236.93V273.971C238.391 274.606 239.417 276.049 239.417 277.728V281.832Z" fill="#EE2A7B"/>
<path fill-rule="evenodd" clip-rule="evenodd" d="M299.247 276.503C299.094 276.503 298.997 276.338 299.073 276.204L302.802 269.629C302.98 269.316 303.312 269.123 303.672 269.123H310.969L308.876 276.503H299.247ZM299.154 278.963C299.063 278.963 299.019 279.073 299.085 279.135L315.45 294.708C315.771 295.013 316.276 294.648 316.087 294.247L308.876 278.963H299.154ZM311.289 276.503L313.303 269.123H322.546L324.56 276.503H311.289ZM318.402 292.91C318.263 293.225 317.816 293.228 317.673 292.914L311.289 278.963H324.56L318.402 292.91ZM332.783 269.123C333.129 269.123 333.449 269.3 333.632 269.593L337.752 276.197C337.835 276.33 337.739 276.503 337.582 276.503H326.973L324.671 269.123H332.783ZM336.695 278.963C336.786 278.963 336.83 279.073 336.764 279.135L320.399 294.708C320.078 295.013 319.573 294.648 319.762 294.247L326.973 278.963H336.695Z" fill="#EE2A7B"/>
<ellipse cx="405.753" cy="282.058" rx="10.8108" ry="4.75802" fill="#EE2A7B"/>
<path d="M405.753 291.574C411.724 291.574 416.564 289.444 416.564 286.816V284.437C416.564 287.065 411.724 289.195 405.753 289.195C399.783 289.195 394.943 287.065 394.943 284.437V286.816C394.943 289.444 399.783 291.574 405.753 291.574Z" fill="#EE2A7B"/>
<path d="M405.753 296.332C411.724 296.332 416.564 294.202 416.564 291.574V289.195C416.564 291.823 411.724 293.953 405.753 293.953C399.783 293.953 394.943 291.823 394.943 289.195V291.574C394.943 294.202 399.783 296.332 405.753 296.332Z" fill="#EE2A7B"/>
<path fill-rule="evenodd" clip-rule="evenodd" d="M418.967 287.204C421.864 286.351 423.771 284.897 423.771 283.248V280.869C423.771 282.518 421.864 283.972 418.967 284.825V287.204Z" fill="#EE2A7B"/>
<path fill-rule="evenodd" clip-rule="evenodd" d="M417.012 278.144C420.975 277.439 423.771 275.729 423.771 273.732C423.771 271.104 418.931 268.974 412.961 268.974C406.99 268.974 402.15 271.104 402.15 273.732C402.15 274.21 402.31 274.671 402.608 275.106C403.622 274.984 404.677 274.921 405.753 274.921C408.994 274.921 412.044 275.495 414.373 276.52C415.339 276.945 416.254 277.479 417.012 278.144Z" fill="#EE2A7B"/>
<path fill-rule="evenodd" clip-rule="evenodd" d="M418.562 280.181C418.814 280.746 418.967 281.374 418.967 282.058V282.446C421.864 281.593 423.771 280.139 423.771 278.489V276.11C423.771 277.836 421.685 279.347 418.562 280.181Z" fill="#EE2A7B"/>
<ellipse cx="10.8108" cy="335.813" rx="10.8108" ry="4.75802" fill="#EE2A7B"/>
<path d="M10.8108 345.329C16.7815 345.329 21.6216 343.199 21.6216 340.571V338.192C21.6216 340.82 16.7815 342.95 10.8108 342.95C4.84017 342.95 0 340.82 0 338.192V340.571C0 343.199 4.84017 345.329 10.8108 345.329Z" fill="#EE2A7B"/>
<path d="M10.8108 350.087C16.7815 350.087 21.6216 347.957 21.6216 345.329V342.95C21.6216 345.578 16.7815 347.708 10.8108 347.708C4.84017 347.708 0 345.578 0 342.95V345.329C0 347.957 4.84017 350.087 10.8108 350.087Z" fill="#EE2A7B"/>
<path fill-rule="evenodd" clip-rule="evenodd" d="M24.024 340.96C26.9212 340.106 28.8287 338.653 28.8287 337.003V334.624C28.8287 336.274 26.9212 337.727 24.024 338.581V340.96Z" fill="#EE2A7B"/>
<path fill-rule="evenodd" clip-rule="evenodd" d="M22.0697 331.9C26.0329 331.194 28.8288 329.484 28.8288 327.487C28.8288 324.859 23.9886 322.729 18.018 322.729C12.0473 322.729 7.20715 324.859 7.20715 327.487C7.20715 327.965 7.36727 328.426 7.66519 328.862C8.67966 328.74 9.73456 328.677 10.8106 328.677C14.0516 328.677 17.1012 329.25 19.4307 330.275C20.396 330.7 21.3111 331.235 22.0697 331.9Z" fill="#EE2A7B"/>
<path fill-rule="evenodd" clip-rule="evenodd" d="M23.6191 333.937C23.8709 334.502 24.0239 335.129 24.0239 335.814V336.202C26.9213 335.349 28.8289 333.895 28.8289 332.245V329.866C28.8289 331.592 26.7423 333.102 23.6191 333.937Z" fill="#EE2A7B"/>
<path d="M111.955 328.374H108.791C108.95 327.921 109.052 327.424 109.052 326.913C109.052 324.488 107.107 322.531 104.698 322.531C103.174 322.531 101.853 323.32 101.069 324.503L100.343 325.482L99.6176 324.488C98.8338 323.32 97.513 322.531 95.989 322.531C93.5796 322.531 91.6346 324.488 91.6346 326.913C91.6346 327.424 91.7362 327.921 91.8959 328.374H88.7317C87.1206 328.374 85.8433 329.674 85.8433 331.296L85.8288 347.364C85.8288 348.986 87.1206 350.286 88.7317 350.286H111.955C113.566 350.286 114.858 348.986 114.858 347.364V331.296C114.858 329.674 113.566 328.374 111.955 328.374ZM104.698 325.452C105.496 325.452 106.149 326.11 106.149 326.913C106.149 327.717 105.496 328.374 104.698 328.374C103.899 328.374 103.246 327.717 103.246 326.913C103.246 326.11 103.899 325.452 104.698 325.452ZM95.989 325.452C96.7873 325.452 97.4404 326.11 97.4404 326.913C97.4404 327.717 96.7873 328.374 95.989 328.374C95.1907 328.374 94.5375 327.717 94.5375 326.913C94.5375 326.11 95.1907 325.452 95.989 325.452ZM111.955 347.364H88.7317V344.443H111.955V347.364ZM111.955 340.06H88.7317V331.296H96.1051L93.0861 335.43L95.4374 337.139L98.8919 332.406L100.343 330.419L101.795 332.406L105.249 337.139L107.601 335.43L104.582 331.296H111.955V340.06Z" fill="#EE2A7B"/>
<path fill-rule="evenodd" clip-rule="evenodd" d="M173.86 326.496C172.754 326.496 171.858 327.383 171.858 328.478V344.338C171.858 345.433 172.754 346.321 173.86 346.321H201.888C202.994 346.321 203.89 345.433 203.89 344.338V328.478C203.89 327.383 202.994 326.496 201.888 326.496H173.86ZM173.86 332.443C175.518 332.443 176.863 331.112 176.863 329.469H180.867V332.161C179.014 333.24 177.864 334.744 177.864 336.408C177.864 338.072 179.014 339.576 180.867 340.656V343.347H176.863C176.863 341.705 175.518 340.373 173.86 340.373V332.443ZM201.888 340.373C200.229 340.373 198.885 341.705 198.885 343.347H194.881V340.656C196.734 339.576 197.884 338.072 197.884 336.408C197.884 334.744 196.734 333.24 194.881 332.161V329.469H198.885C198.885 331.112 200.229 332.443 201.888 332.443V340.373ZM187.576 338.268C187.628 338.268 187.679 338.267 187.729 338.265C188.5 338.341 189.102 338.985 189.102 339.769C189.102 340.603 188.419 341.28 187.577 341.28C186.734 341.28 186.051 340.603 186.051 339.769C186.051 339.331 186.24 338.937 186.541 338.661C185.673 338.486 184.884 338.095 184.234 337.546C183.803 338.181 183.551 338.946 183.551 339.769C183.551 341.971 185.353 343.756 187.577 343.756C189.8 343.756 191.602 341.971 191.602 339.769C191.602 338.767 191.229 337.851 190.612 337.151C191.6 336.307 192.225 335.058 192.225 333.665C192.225 331.122 190.144 329.061 187.576 329.061C185.009 329.061 182.928 331.122 182.928 333.665C182.928 336.207 185.009 338.268 187.576 338.268ZM184.542 337.151C185.28 336.312 186.365 335.782 187.576 335.782C188.787 335.782 189.873 336.312 190.61 337.151C189.878 337.777 188.946 338.18 187.921 338.254C187.856 338.259 187.789 338.263 187.723 338.265L187.715 338.265C187.669 338.26 187.623 338.258 187.576 338.258C187.529 338.258 187.483 338.26 187.437 338.265C186.332 338.233 185.324 337.818 184.542 337.151ZM192.412 329.061C192.412 329.603 191.975 330.262 191.431 330.281C190.977 329.774 190.423 329.357 189.8 329.061H192.412Z" fill="#EE2A7B"/>
<path d="M284.101 324.916H267.522C263.859 324.916 260.89 327.856 260.89 331.483V346.259C260.89 347.166 261.632 347.901 262.548 347.901H289.074C289.99 347.901 290.732 347.166 290.732 346.259V331.483C290.732 327.856 287.763 324.916 284.101 324.916ZM265.864 345.438H263.377V338.05H265.864V345.438ZM265.864 335.587H263.377V331.483C263.377 329.804 264.403 328.362 265.864 327.727V335.587ZM283.272 345.438H268.351V338.05H272.495V340.513C272.495 340.966 272.866 341.334 273.324 341.334H278.298C278.756 341.334 279.127 340.966 279.127 340.513V338.05H283.272V345.438ZM274.982 338.05V336.408C274.982 335.955 275.353 335.587 275.811 335.587C276.269 335.587 276.64 335.955 276.64 336.408V338.05C276.64 338.504 276.269 338.871 275.811 338.871C275.353 338.871 274.982 338.504 274.982 338.05ZM283.272 335.587H279.127V333.946C279.127 333.492 278.756 333.125 278.298 333.125H273.324C272.866 333.125 272.495 333.492 272.495 333.946V335.587H268.351V327.379H283.272V335.587ZM288.245 345.438H285.759V338.05H288.245V345.438ZM288.245 335.587H285.759V327.727C287.22 328.362 288.245 329.804 288.245 331.483V335.587Z" fill="#EE2A7B"/>
<path fill-rule="evenodd" clip-rule="evenodd" d="M348.076 330.258C347.922 330.258 347.826 330.093 347.902 329.96L351.631 323.385C351.808 323.071 352.141 322.878 352.501 322.878H359.797L357.705 330.258H348.076ZM347.982 332.718C347.892 332.718 347.848 332.829 347.914 332.891L364.279 348.463C364.6 348.768 365.105 348.403 364.916 348.003L357.704 332.718H347.982ZM360.117 330.258L362.132 322.878H371.375L373.389 330.258H360.117ZM367.231 346.665C367.092 346.98 366.645 346.983 366.502 346.67L360.117 332.718H373.389L367.231 346.665ZM381.612 322.878C381.957 322.878 382.278 323.056 382.461 323.349L386.581 329.952C386.664 330.086 386.568 330.258 386.411 330.258H375.802L373.5 322.878H381.612ZM385.524 332.718C385.614 332.718 385.658 332.829 385.593 332.891L369.228 348.463C368.907 348.768 368.401 348.403 368.59 348.003L375.802 332.718H385.524Z" fill="#EE2A7B"/>
<path d="M60.2107 378.671H43.6316C39.9692 378.671 37 381.612 37 385.238V400.014C37 400.921 37.7424 401.656 38.6579 401.656H65.1845C66.0999 401.656 66.8424 400.921 66.8424 400.014V385.238C66.8424 381.612 63.8732 378.671 60.2107 378.671ZM41.9737 399.193H39.4869V391.805H41.9737V399.193ZM41.9737 389.343H39.4869V385.238C39.4869 383.56 40.5127 382.117 41.9737 381.482V389.343ZM59.3818 399.193H44.4606V391.805H48.6054V394.268C48.6054 394.722 48.9763 395.089 49.4343 395.089H54.4081C54.8661 395.089 55.237 394.722 55.237 394.268V391.805H59.3818V399.193ZM51.0922 391.805V390.164C51.0922 389.71 51.4632 389.343 51.9212 389.343C52.3792 389.343 52.7501 389.71 52.7501 390.164V391.805C52.7501 392.259 52.3792 392.626 51.9212 392.626C51.4632 392.626 51.0922 392.259 51.0922 391.805ZM59.3818 389.343H55.237V387.701C55.237 387.248 54.8661 386.88 54.4081 386.88H49.4343C48.9763 386.88 48.6054 387.248 48.6054 387.701V389.343H44.4606V381.134H59.3818V389.343ZM64.3555 399.193H61.8687V391.805H64.3555V399.193ZM64.3555 389.343H61.8687V381.482C63.3297 382.117 64.3555 383.56 64.3555 385.238V389.343Z" fill="#EE2A7B"/>
<path fill-rule="evenodd" clip-rule="evenodd" d="M124.186 384.014C124.033 384.014 123.936 383.848 124.012 383.715L127.741 377.14C127.919 376.827 128.251 376.633 128.611 376.633H135.908L133.815 384.014H124.186ZM124.093 386.474C124.002 386.474 123.958 386.584 124.024 386.646L140.389 402.218C140.71 402.524 141.215 402.159 141.026 401.758L133.815 386.474H124.093ZM136.228 384.014L138.242 376.633H147.485L149.499 384.014H136.228ZM143.341 400.42C143.202 400.736 142.755 400.739 142.612 400.425L136.228 386.474H149.499L143.341 400.42ZM157.722 376.633C158.067 376.633 158.388 376.811 158.571 377.104L162.691 383.708C162.774 383.841 162.678 384.014 162.521 384.014H151.912L149.61 376.633H157.722ZM161.634 386.474C161.724 386.474 161.769 386.584 161.703 386.646L145.338 402.218C145.017 402.524 144.512 402.159 144.701 401.758L151.912 386.474H161.634Z" fill="#EE2A7B"/>
<ellipse cx="230.692" cy="389.569" rx="10.8108" ry="4.75802" fill="#EE2A7B"/>
<path d="M230.692 399.085C236.663 399.085 241.503 396.955 241.503 394.327V391.948C241.503 394.576 236.663 396.706 230.692 396.706C224.722 396.706 219.881 394.576 219.881 391.948V394.327C219.881 396.955 224.722 399.085 230.692 399.085Z" fill="#EE2A7B"/>
<path d="M230.692 403.843C236.663 403.843 241.503 401.712 241.503 399.085V396.706C241.503 399.333 236.663 401.464 230.692 401.464C224.722 401.464 219.881 399.333 219.881 396.706V399.085C219.881 401.712 224.722 403.843 230.692 403.843Z" fill="#EE2A7B"/>
<path fill-rule="evenodd" clip-rule="evenodd" d="M243.906 394.715C246.803 393.862 248.71 392.408 248.71 390.758V388.379C248.71 390.029 246.803 391.483 243.906 392.336V394.715Z" fill="#EE2A7B"/>
<path fill-rule="evenodd" clip-rule="evenodd" d="M241.951 385.655C245.914 384.949 248.71 383.24 248.71 381.242C248.71 378.615 243.87 376.484 237.899 376.484C231.929 376.484 227.089 378.615 227.089 381.242C227.089 381.72 227.249 382.182 227.547 382.617C228.561 382.495 229.616 382.432 230.692 382.432C233.933 382.432 236.983 383.005 239.312 384.031C240.278 384.455 241.193 384.99 241.951 385.655Z" fill="#EE2A7B"/>
<path fill-rule="evenodd" clip-rule="evenodd" d="M243.501 387.692C243.752 388.256 243.905 388.884 243.905 389.569V389.957C246.803 389.103 248.71 387.65 248.71 386V383.621C248.71 385.346 246.624 386.857 243.501 387.692Z" fill="#EE2A7B"/>
<path d="M331.836 382.129H328.672C328.832 381.676 328.934 381.18 328.934 380.669C328.934 378.244 326.989 376.286 324.579 376.286C323.055 376.286 321.734 377.075 320.951 378.258L320.225 379.237L319.499 378.244C318.715 377.075 317.395 376.286 315.87 376.286C313.461 376.286 311.516 378.244 311.516 380.669C311.516 381.18 311.618 381.676 311.777 382.129H308.613C307.002 382.129 305.725 383.429 305.725 385.051L305.71 401.12C305.71 402.741 307.002 404.041 308.613 404.041H331.836C333.448 404.041 334.739 402.741 334.739 401.12V385.051C334.739 383.429 333.448 382.129 331.836 382.129ZM324.579 379.208C325.378 379.208 326.031 379.865 326.031 380.669C326.031 381.472 325.378 382.129 324.579 382.129C323.781 382.129 323.128 381.472 323.128 380.669C323.128 379.865 323.781 379.208 324.579 379.208ZM315.87 379.208C316.669 379.208 317.322 379.865 317.322 380.669C317.322 381.472 316.669 382.129 315.87 382.129C315.072 382.129 314.419 381.472 314.419 380.669C314.419 379.865 315.072 379.208 315.87 379.208ZM331.836 401.12H308.613V398.198H331.836V401.12ZM331.836 393.816H308.613V385.051H315.987L312.968 389.185L315.319 390.894L318.773 386.161L320.225 384.174L321.676 386.161L325.131 390.894L327.482 389.185L324.463 385.051H331.836V393.816Z" fill="#EE2A7B"/>
<path fill-rule="evenodd" clip-rule="evenodd" d="M393.741 380.251C392.636 380.251 391.739 381.139 391.739 382.233V398.094C391.739 399.188 392.636 400.076 393.741 400.076H421.769C422.875 400.076 423.771 399.188 423.771 398.094V382.233C423.771 381.139 422.875 380.251 421.769 380.251H393.741ZM393.741 386.198C395.4 386.198 396.744 384.867 396.744 383.225H400.748V385.916C398.895 386.996 397.745 388.5 397.745 390.164C397.745 391.827 398.895 393.331 400.748 394.411V397.102H396.744C396.744 395.46 395.4 394.129 393.741 394.129V386.198ZM421.769 394.129C420.111 394.129 418.766 395.46 418.766 397.102H414.762V394.411C416.616 393.331 417.765 391.827 417.765 390.164C417.765 388.5 416.616 386.996 414.762 385.916V383.225H418.766C418.766 384.867 420.111 386.198 421.769 386.198V394.129ZM407.458 392.023C407.509 392.023 407.56 392.022 407.611 392.021C408.381 392.097 408.984 392.741 408.984 393.524C408.984 394.359 408.3 395.035 407.458 395.035C406.615 395.035 405.933 394.359 405.933 393.524C405.933 393.086 406.122 392.693 406.423 392.417C405.554 392.242 404.765 391.85 404.116 391.301C403.684 391.936 403.432 392.701 403.432 393.524C403.432 395.726 405.235 397.511 407.458 397.511C409.681 397.511 411.484 395.726 411.484 393.524C411.484 392.522 411.11 391.606 410.494 390.906C411.482 390.062 412.107 388.813 412.107 387.42C412.107 384.878 410.025 382.816 407.458 382.816C404.891 382.816 402.809 384.878 402.809 387.42C402.809 389.962 404.891 392.023 407.458 392.023ZM404.423 390.906C405.161 390.068 406.247 389.538 407.458 389.538C408.669 389.538 409.754 390.068 410.492 390.906C409.759 391.532 408.827 391.935 407.803 392.01C407.737 392.015 407.671 392.018 407.604 392.02L407.597 392.02C407.551 392.016 407.505 392.013 407.458 392.013C407.411 392.013 407.365 392.016 407.319 392.02C406.213 391.988 405.205 391.573 404.423 390.906ZM412.293 382.816C412.293 383.358 411.856 384.018 411.312 384.036C410.858 383.529 410.305 383.112 409.681 382.816H412.293Z" fill="#EE2A7B"/>
</g>
</g>
<g clip-path="url(#clip1)">
<g opacity="0.4">
<path d="M466.955 5.84318H463.791C463.95 5.39033 464.052 4.89366 464.052 4.38238C464.052 1.95747 462.107 0 459.698 0C458.174 0 456.853 0.788829 456.069 1.97207L455.343 2.95081L454.618 1.95746C453.834 0.788829 452.513 0 450.989 0C448.58 0 446.635 1.95747 446.635 4.38238C446.635 4.89366 446.736 5.39033 446.896 5.84318H443.732C442.121 5.84318 440.843 7.14329 440.843 8.76477L440.829 24.8335C440.829 26.455 442.121 27.7551 443.732 27.7551H466.955C468.566 27.7551 469.858 26.455 469.858 24.8335V8.76477C469.858 7.14329 468.566 5.84318 466.955 5.84318ZM459.698 2.92159C460.496 2.92159 461.149 3.57895 461.149 4.38238C461.149 5.18582 460.496 5.84318 459.698 5.84318C458.899 5.84318 458.246 5.18582 458.246 4.38238C458.246 3.57895 458.899 2.92159 459.698 2.92159ZM450.989 2.92159C451.787 2.92159 452.44 3.57895 452.44 4.38238C452.44 5.18582 451.787 5.84318 450.989 5.84318C450.191 5.84318 449.538 5.18582 449.538 4.38238C449.538 3.57895 450.191 2.92159 450.989 2.92159ZM466.955 24.8335H443.732V21.9119H466.955V24.8335ZM466.955 17.5295H443.732V8.76477H451.105L448.086 12.8988L450.437 14.6079L453.892 9.87497L455.343 7.88829L456.795 9.87497L460.249 14.6079L462.601 12.8988L459.582 8.76477H466.955V17.5295Z" fill="#EE2A7B"/>
<path fill-rule="evenodd" clip-rule="evenodd" d="M528.86 3.96484C527.754 3.96484 526.858 4.85244 526.858 5.94735V21.8074C526.858 22.9023 527.754 23.7899 528.86 23.7899H556.888C557.994 23.7899 558.89 22.9023 558.89 21.8074V5.94735C558.89 4.85244 557.994 3.96484 556.888 3.96484H528.86ZM528.86 9.91237C530.518 9.91237 531.863 8.58097 531.863 6.9386H535.867V9.63C534.014 10.7094 532.864 12.2136 532.864 13.8774C532.864 15.5411 534.014 17.0453 535.867 18.1248V20.8162H531.863C531.863 19.1738 530.518 17.8424 528.86 17.8424V9.91237ZM556.888 17.8424C555.229 17.8424 553.885 19.1738 553.885 20.8162H549.881V18.1248C551.734 17.0453 552.884 15.5411 552.884 13.8774C552.884 12.2136 551.734 10.7094 549.881 9.63V6.9386H553.885C553.885 8.58097 555.229 9.91237 556.888 9.91237V17.8424ZM542.576 15.7369C542.628 15.7369 542.679 15.7361 542.729 15.7345C543.5 15.8104 544.102 16.4546 544.102 17.2382C544.102 18.0725 543.419 18.749 542.577 18.749C541.734 18.749 541.051 18.0725 541.051 17.2382C541.051 16.8001 541.24 16.4067 541.541 16.1306C540.673 15.9554 539.884 15.564 539.234 15.0153C538.803 15.6504 538.551 16.4152 538.551 17.2382C538.551 19.4398 540.353 21.2247 542.577 21.2247C544.8 21.2247 546.602 19.4398 546.602 17.2382C546.602 16.2361 546.229 15.3203 545.612 14.6199C546.6 13.7759 547.225 12.5272 547.225 11.1339C547.225 8.59159 545.144 6.53034 542.576 6.53034C540.009 6.53034 537.928 8.59159 537.928 11.1339C537.928 13.6763 540.009 15.7369 542.576 15.7369ZM539.542 14.6197C540.28 13.7817 541.365 13.2517 542.576 13.2517C543.787 13.2517 544.873 13.7817 545.61 14.6197C544.878 15.2458 543.946 15.6492 542.921 15.7236C542.856 15.7284 542.789 15.7318 542.723 15.7339L542.715 15.7341C542.669 15.7296 542.623 15.727 542.576 15.727C542.529 15.727 542.483 15.7296 542.437 15.7341C541.332 15.702 540.324 15.2873 539.542 14.6197ZM547.412 6.53034C547.412 7.072 546.975 7.73143 546.431 7.74983C545.977 7.24333 545.423 6.82631 544.8 6.53034H547.412Z" fill="#EE2A7B"/>
<path d="M639.101 2.38525H622.522C618.859 2.38525 615.89 5.32555 615.89 8.95231V23.7282C615.89 24.6347 616.632 25.3699 617.548 25.3699H644.074C644.99 25.3699 645.732 24.6347 645.732 23.7282V8.95231C645.732 5.32555 642.763 2.38525 639.101 2.38525ZM620.864 22.9073H618.377V15.5194H620.864V22.9073ZM620.864 13.0567H618.377V8.95231C618.377 7.2736 619.403 5.83091 620.864 5.19575V13.0567ZM638.272 22.9073H623.35V15.5194H627.495V17.982C627.495 18.4355 627.866 18.8029 628.324 18.8029H633.298C633.756 18.8029 634.127 18.4355 634.127 17.982V15.5194H638.272V22.9073ZM629.982 15.5194V13.8776C629.982 13.4241 630.353 13.0567 630.811 13.0567C631.269 13.0567 631.64 13.4241 631.64 13.8776V15.5194C631.64 15.9729 631.269 16.3402 630.811 16.3402C630.353 16.3402 629.982 15.9729 629.982 15.5194ZM638.272 13.0567H634.127V11.415C634.127 10.9614 633.756 10.5941 633.298 10.5941H628.324C627.866 10.5941 627.495 10.9614 627.495 11.415V13.0567H623.35V4.8479H638.272V13.0567ZM643.245 22.9073H640.759V15.5194H643.245V22.9073ZM643.245 13.0567H640.759V5.19575C642.22 5.83091 643.245 7.2736 643.245 8.95231V13.0567Z" fill="#EE2A7B"/>
<path fill-rule="evenodd" clip-rule="evenodd" d="M703.076 7.72748C702.922 7.72748 702.826 7.56214 702.902 7.42881L706.631 0.85383C706.808 0.54068 707.141 0.347168 707.501 0.347168H714.797L712.705 7.72748H703.076ZM702.982 10.1877C702.892 10.1877 702.848 10.2979 702.914 10.3601L719.279 25.9323C719.6 26.2377 720.105 25.8724 719.916 25.4719L712.704 10.1877H702.982ZM715.117 7.72748L717.132 0.347168H726.375L728.389 7.72748H715.117ZM722.231 24.1341C722.092 24.4497 721.645 24.4527 721.502 24.139L715.117 10.1875H728.389L722.231 24.1341ZM736.612 0.347168C736.957 0.347168 737.278 0.525082 737.461 0.817854L741.581 7.42162C741.664 7.55483 741.568 7.72748 741.411 7.72748H730.802L728.5 0.347168H736.612ZM740.524 10.1877C740.614 10.1877 740.658 10.2979 740.593 10.3601L724.228 25.9323C723.907 26.2377 723.401 25.8724 723.59 25.4719L730.802 10.1877H740.524Z" fill="#EE2A7B"/>
<path d="M503.955 167.109H500.791C500.95 166.656 501.052 166.159 501.052 165.648C501.052 163.223 499.107 161.266 496.698 161.266C495.174 161.266 493.853 162.054 493.069 163.238L492.343 164.216L491.618 163.223C490.834 162.054 489.513 161.266 487.989 161.266C485.58 161.266 483.635 163.223 483.635 165.648C483.635 166.159 483.736 166.656 483.896 167.109H480.732C479.121 167.109 477.843 168.409 477.843 170.03L477.829 186.099C477.829 187.721 479.121 189.021 480.732 189.021H503.955C505.566 189.021 506.858 187.721 506.858 186.099V170.03C506.858 168.409 505.566 167.109 503.955 167.109ZM496.698 164.187C497.496 164.187 498.149 164.845 498.149 165.648C498.149 166.451 497.496 167.109 496.698 167.109C495.899 167.109 495.246 166.451 495.246 165.648C495.246 164.845 495.899 164.187 496.698 164.187ZM487.989 164.187C488.787 164.187 489.44 164.845 489.44 165.648C489.44 166.451 488.787 167.109 487.989 167.109C487.191 167.109 486.538 166.451 486.538 165.648C486.538 164.845 487.191 164.187 487.989 164.187ZM503.955 186.099H480.732V183.178H503.955V186.099ZM503.955 178.795H480.732V170.03H488.105L485.086 174.164L487.437 175.874L490.892 171.141L492.343 169.154L493.795 171.141L497.249 175.874L499.601 174.164L496.582 170.03H503.955V178.795Z" fill="#EE2A7B"/>
<path fill-rule="evenodd" clip-rule="evenodd" d="M565.86 165.23C564.754 165.23 563.858 166.118 563.858 167.213V183.073C563.858 184.168 564.754 185.056 565.86 185.056H593.888C594.994 185.056 595.89 184.168 595.89 183.073V167.213C595.89 166.118 594.994 165.23 593.888 165.23H565.86ZM565.86 171.178C567.518 171.178 568.863 169.847 568.863 168.204H572.867V170.896C571.014 171.975 569.864 173.479 569.864 175.143C569.864 176.807 571.014 178.311 572.867 179.39V182.082H568.863C568.863 180.439 567.518 179.108 565.86 179.108V171.178ZM593.888 179.108C592.229 179.108 590.885 180.439 590.885 182.082H586.881V179.39C588.734 178.311 589.884 176.807 589.884 175.143C589.884 173.479 588.734 171.975 586.881 170.896V168.204H590.885C590.885 169.847 592.229 171.178 593.888 171.178V179.108ZM579.576 177.003C579.628 177.003 579.679 177.002 579.729 177C580.5 177.076 581.102 177.72 581.102 178.504C581.102 179.338 580.419 180.015 579.577 180.015C578.734 180.015 578.051 179.338 578.051 178.504C578.051 178.066 578.24 177.672 578.541 177.396C577.673 177.221 576.884 176.83 576.234 176.281C575.803 176.916 575.551 177.681 575.551 178.504C575.551 180.705 577.353 182.49 579.577 182.49C581.8 182.49 583.602 180.705 583.602 178.504C583.602 177.502 583.229 176.586 582.612 175.886C583.6 175.041 584.225 173.793 584.225 172.399C584.225 169.857 582.144 167.796 579.576 167.796C577.009 167.796 574.928 169.857 574.928 172.399C574.928 174.942 577.009 177.003 579.576 177.003ZM576.542 175.885C577.28 175.047 578.365 174.517 579.576 174.517C580.787 174.517 581.873 175.047 582.61 175.885C581.878 176.511 580.946 176.915 579.921 176.989C579.856 176.994 579.789 176.997 579.723 176.999L579.715 177C579.669 176.995 579.623 176.993 579.576 176.993C579.529 176.993 579.483 176.995 579.437 177C578.332 176.968 577.324 176.553 576.542 175.885ZM584.412 167.796C584.412 168.338 583.975 168.997 583.431 169.015C582.977 168.509 582.423 168.092 581.8 167.796H584.412Z" fill="#EE2A7B"/>
<path d="M676.101 163.651H659.522C655.859 163.651 652.89 166.591 652.89 170.218V184.994C652.89 185.9 653.632 186.636 654.548 186.636H681.074C681.99 186.636 682.732 185.9 682.732 184.994V170.218C682.732 166.591 679.763 163.651 676.101 163.651ZM657.864 184.173H655.377V176.785H657.864V184.173ZM657.864 174.322H655.377V170.218C655.377 168.539 656.403 167.097 657.864 166.461V174.322ZM675.272 184.173H660.35V176.785H664.495V179.248C664.495 179.701 664.866 180.069 665.324 180.069H670.298C670.756 180.069 671.127 179.701 671.127 179.248V176.785H675.272V184.173ZM666.982 176.785V175.143C666.982 174.69 667.353 174.322 667.811 174.322C668.269 174.322 668.64 174.69 668.64 175.143V176.785C668.64 177.239 668.269 177.606 667.811 177.606C667.353 177.606 666.982 177.239 666.982 176.785ZM675.272 174.322H671.127V172.681C671.127 172.227 670.756 171.86 670.298 171.86H665.324C664.866 171.86 664.495 172.227 664.495 172.681V174.322H660.35V166.114H675.272V174.322ZM680.245 184.173H677.759V176.785H680.245V184.173ZM680.245 174.322H677.759V166.461C679.22 167.097 680.245 168.539 680.245 170.218V174.322Z" fill="#EE2A7B"/>
<path fill-rule="evenodd" clip-rule="evenodd" d="M479.186 61.4824C479.033 61.4824 478.936 61.317 479.012 61.1837L482.741 54.6087C482.919 54.2956 483.251 54.1021 483.611 54.1021H490.908L488.815 61.4824H479.186ZM479.093 63.9425C479.002 63.9425 478.958 64.0527 479.024 64.115L495.389 79.6872C495.71 79.9925 496.215 79.6273 496.026 79.2267L488.815 63.9425H479.093ZM491.228 61.4824L493.242 54.1021H502.485L504.499 61.4824H491.228ZM498.341 77.889C498.202 78.2046 497.755 78.2076 497.612 77.8939L491.228 63.9424H504.499L498.341 77.889ZM512.722 54.1021C513.067 54.1021 513.388 54.28 513.571 54.5727L517.691 61.1765C517.774 61.3097 517.678 61.4824 517.521 61.4824H506.912L504.61 54.1021H512.722ZM516.634 63.9425C516.724 63.9425 516.769 64.0527 516.703 64.115L500.338 79.6872C500.017 79.9925 499.512 79.6273 499.701 79.2267L506.912 63.9425H516.634Z" fill="#EE2A7B"/>
<ellipse cx="585.692" cy="67.0373" rx="10.8108" ry="4.75802" fill="#EE2A7B"/>
<path d="M585.692 76.5535C591.663 76.5535 596.503 74.4233 596.503 71.7955V69.4165C596.503 72.0443 591.663 74.1745 585.692 74.1745C579.722 74.1745 574.881 72.0443 574.881 69.4165V71.7955C574.881 74.4233 579.722 76.5535 585.692 76.5535Z" fill="#EE2A7B"/>
<path d="M585.692 81.3113C591.663 81.3113 596.503 79.1811 596.503 76.5533V74.1743C596.503 76.8021 591.663 78.9323 585.692 78.9323C579.722 78.9323 574.881 76.8021 574.881 74.1743V76.5533C574.881 79.1811 579.722 81.3113 585.692 81.3113Z" fill="#EE2A7B"/>
<path fill-rule="evenodd" clip-rule="evenodd" d="M598.906 72.1839C601.803 71.3304 603.71 69.8768 603.71 68.2272V65.8481C603.71 67.4978 601.803 68.9513 598.906 69.8049V72.1839Z" fill="#EE2A7B"/>
<path fill-rule="evenodd" clip-rule="evenodd" d="M596.951 63.1237C600.914 62.4181 603.71 60.7083 603.71 58.7111C603.71 56.0834 598.87 53.9531 592.899 53.9531C586.929 53.9531 582.089 56.0834 582.089 58.7111C582.089 59.1891 582.249 59.6506 582.547 60.0858C583.561 59.9638 584.616 59.9006 585.692 59.9006C588.933 59.9006 591.983 60.4741 594.312 61.4993C595.278 61.9241 596.193 62.4589 596.951 63.1237Z" fill="#EE2A7B"/>
<path fill-rule="evenodd" clip-rule="evenodd" d="M598.501 65.1603C598.752 65.7251 598.905 66.353 598.905 67.0374V67.4257C601.803 66.5721 603.71 65.1185 603.71 63.4689V61.0898C603.71 62.8152 601.624 64.3261 598.501 65.1603Z" fill="#EE2A7B"/>
<path d="M686.836 59.5981H683.672C683.832 59.1452 683.934 58.6485 683.934 58.1373C683.934 55.7123 681.989 53.7549 679.579 53.7549C678.055 53.7549 676.734 54.5437 675.951 55.727L675.225 56.7057L674.499 55.7123C673.715 54.5437 672.395 53.7549 670.87 53.7549C668.461 53.7549 666.516 55.7123 666.516 58.1373C666.516 58.6485 666.618 59.1452 666.777 59.5981H663.613C662.002 59.5981 660.725 60.8982 660.725 62.5197L660.71 78.5884C660.71 80.2099 662.002 81.51 663.613 81.51H686.836C688.448 81.51 689.739 80.2099 689.739 78.5884V62.5197C689.739 60.8982 688.448 59.5981 686.836 59.5981ZM679.579 56.6765C680.378 56.6765 681.031 57.3338 681.031 58.1373C681.031 58.9407 680.378 59.5981 679.579 59.5981C678.781 59.5981 678.128 58.9407 678.128 58.1373C678.128 57.3338 678.781 56.6765 679.579 56.6765ZM670.87 56.6765C671.669 56.6765 672.322 57.3338 672.322 58.1373C672.322 58.9407 671.669 59.5981 670.87 59.5981C670.072 59.5981 669.419 58.9407 669.419 58.1373C669.419 57.3338 670.072 56.6765 670.87 56.6765ZM686.836 78.5884H663.613V75.6668H686.836V78.5884ZM686.836 71.2844H663.613V62.5197H670.987L667.968 66.6537L670.319 68.3628L673.773 63.6299L675.225 61.6432L676.676 63.6299L680.131 68.3628L682.482 66.6537L679.463 62.5197H686.836V71.2844Z" fill="#EE2A7B"/>
<path fill-rule="evenodd" clip-rule="evenodd" d="M442.186 222.748C442.033 222.748 441.936 222.583 442.012 222.449L445.741 215.874C445.919 215.561 446.251 215.368 446.611 215.368H453.908L451.815 222.748H442.186ZM442.093 225.208C442.002 225.208 441.958 225.318 442.024 225.381L458.389 240.953C458.71 241.258 459.215 240.893 459.026 240.492L451.815 225.208H442.093ZM454.228 222.748L456.242 215.368H465.485L467.499 222.748H454.228ZM461.341 239.155C461.202 239.47 460.755 239.473 460.612 239.159L454.228 225.208H467.499L461.341 239.155ZM475.722 215.368C476.067 215.368 476.388 215.546 476.571 215.838L480.691 222.442C480.774 222.575 480.678 222.748 480.521 222.748H469.912L467.61 215.368H475.722ZM479.634 225.208C479.724 225.208 479.769 225.318 479.703 225.381L463.338 240.953C463.017 241.258 462.512 240.893 462.701 240.492L469.912 225.208H479.634Z" fill="#EE2A7B"/>
<ellipse cx="548.692" cy="228.303" rx="10.8108" ry="4.75802" fill="#EE2A7B"/>
<path d="M548.692 237.819C554.663 237.819 559.503 235.689 559.503 233.061V230.682C559.503 233.31 554.663 235.44 548.692 235.44C542.722 235.44 537.881 233.31 537.881 230.682V233.061C537.881 235.689 542.722 237.819 548.692 237.819Z" fill="#EE2A7B"/>
<path d="M548.692 242.577C554.663 242.577 559.503 240.447 559.503 237.819V235.44C559.503 238.068 554.663 240.198 548.692 240.198C542.722 240.198 537.881 238.068 537.881 235.44V237.819C537.881 240.447 542.722 242.577 548.692 242.577Z" fill="#EE2A7B"/>
<path fill-rule="evenodd" clip-rule="evenodd" d="M561.906 233.45C564.803 232.596 566.71 231.142 566.71 229.493V227.114C566.71 228.763 564.803 230.217 561.906 231.071V233.45Z" fill="#EE2A7B"/>
<path fill-rule="evenodd" clip-rule="evenodd" d="M559.951 224.389C563.914 223.684 566.71 221.974 566.71 219.977C566.71 217.349 561.87 215.219 555.899 215.219C549.929 215.219 545.089 217.349 545.089 219.977C545.089 220.455 545.249 220.916 545.547 221.351C546.561 221.229 547.616 221.166 548.692 221.166C551.933 221.166 554.983 221.74 557.312 222.765C558.278 223.19 559.193 223.725 559.951 224.389Z" fill="#EE2A7B"/>
<path fill-rule="evenodd" clip-rule="evenodd" d="M561.501 226.426C561.752 226.991 561.905 227.619 561.905 228.303V228.691C564.803 227.838 566.71 226.384 566.71 224.734V222.355C566.71 224.081 564.624 225.592 561.501 226.426Z" fill="#EE2A7B"/>
<path d="M649.836 220.864H646.672C646.832 220.411 646.934 219.914 646.934 219.403C646.934 216.978 644.989 215.021 642.579 215.021C641.055 215.021 639.734 215.809 638.951 216.993L638.225 217.971L637.499 216.978C636.715 215.809 635.395 215.021 633.87 215.021C631.461 215.021 629.516 216.978 629.516 219.403C629.516 219.914 629.618 220.411 629.777 220.864H626.613C625.002 220.864 623.725 222.164 623.725 223.785L623.71 239.854C623.71 241.476 625.002 242.776 626.613 242.776H649.836C651.448 242.776 652.739 241.476 652.739 239.854V223.785C652.739 222.164 651.448 220.864 649.836 220.864ZM642.579 217.942C643.378 217.942 644.031 218.599 644.031 219.403C644.031 220.206 643.378 220.864 642.579 220.864C641.781 220.864 641.128 220.206 641.128 219.403C641.128 218.599 641.781 217.942 642.579 217.942ZM633.87 217.942C634.669 217.942 635.322 218.599 635.322 219.403C635.322 220.206 634.669 220.864 633.87 220.864C633.072 220.864 632.419 220.206 632.419 219.403C632.419 218.599 633.072 217.942 633.87 217.942ZM649.836 239.854H626.613V236.932H649.836V239.854ZM649.836 232.55H626.613V223.785H633.987L630.968 227.919L633.319 229.628L636.773 224.895L638.225 222.909L639.676 224.895L643.131 229.628L645.482 227.919L642.463 223.785H649.836V232.55Z" fill="#EE2A7B"/>
<path d="M470.158 113.353H466.994C467.154 112.901 467.255 112.404 467.255 111.893C467.255 109.468 465.31 107.51 462.901 107.51C461.377 107.51 460.056 108.299 459.272 109.482L458.547 110.461L457.821 109.468C457.037 108.299 455.716 107.51 454.192 107.51C451.783 107.51 449.838 109.468 449.838 111.893C449.838 112.404 449.94 112.901 450.099 113.353H446.935C445.324 113.353 444.047 114.654 444.047 116.275L444.032 132.344C444.032 133.965 445.324 135.265 446.935 135.265H470.158C471.769 135.265 473.061 133.965 473.061 132.344V116.275C473.061 114.654 471.769 113.353 470.158 113.353ZM462.901 110.432C463.699 110.432 464.352 111.089 464.352 111.893C464.352 112.696 463.699 113.353 462.901 113.353C462.103 113.353 461.45 112.696 461.45 111.893C461.45 111.089 462.103 110.432 462.901 110.432ZM454.192 110.432C454.991 110.432 455.644 111.089 455.644 111.893C455.644 112.696 454.991 113.353 454.192 113.353C453.394 113.353 452.741 112.696 452.741 111.893C452.741 111.089 453.394 110.432 454.192 110.432ZM470.158 132.344H446.935V129.422H470.158V132.344ZM470.158 125.04H446.935V116.275H454.308L451.289 120.409L453.641 122.118L457.095 117.385L458.547 115.399L459.998 117.385L463.453 122.118L465.804 120.409L462.785 116.275H470.158V125.04Z" fill="#EE2A7B"/>
<path d="M553.272 109.896H536.693C533.03 109.896 530.061 112.836 530.061 116.463V131.238C530.061 132.145 530.804 132.88 531.719 132.88H558.246C559.161 132.88 559.904 132.145 559.904 131.238V116.463C559.904 112.836 556.934 109.896 553.272 109.896ZM535.035 130.418H532.548V123.03H535.035V130.418ZM535.035 120.567H532.548V116.463C532.548 114.784 533.574 113.341 535.035 112.706V120.567ZM552.443 130.418H537.522V123.03H541.667V125.492C541.667 125.946 542.037 126.313 542.495 126.313H547.469C547.927 126.313 548.298 125.946 548.298 125.492V123.03H552.443V130.418ZM544.153 123.03V121.388C544.153 120.934 544.524 120.567 544.982 120.567C545.44 120.567 545.811 120.934 545.811 121.388V123.03C545.811 123.483 545.44 123.85 544.982 123.85C544.524 123.85 544.153 123.483 544.153 123.03ZM552.443 120.567H548.298V118.925C548.298 118.472 547.927 118.104 547.469 118.104H542.495C542.037 118.104 541.667 118.472 541.667 118.925V120.567H537.522V112.358H552.443V120.567ZM557.417 130.418H554.93V123.03H557.417V130.418ZM557.417 120.567H554.93V112.706C556.391 113.341 557.417 114.784 557.417 116.463V120.567Z" fill="#EE2A7B"/>
<path fill-rule="evenodd" clip-rule="evenodd" d="M617.247 115.238C617.094 115.238 616.997 115.072 617.073 114.939L620.802 108.364C620.98 108.051 621.312 107.857 621.672 107.857H628.969L626.876 115.238H617.247ZM617.154 117.698C617.063 117.698 617.019 117.808 617.085 117.87L633.45 133.443C633.771 133.748 634.276 133.383 634.087 132.982L626.876 117.698H617.154ZM629.289 115.238L631.303 107.857H640.546L642.56 115.238H629.289ZM636.402 131.644C636.263 131.96 635.816 131.963 635.673 131.649L629.289 117.698H642.56L636.402 131.644ZM650.783 107.857C651.129 107.857 651.449 108.035 651.632 108.328L655.752 114.932C655.835 115.065 655.739 115.238 655.582 115.238H644.973L642.671 107.857H650.783ZM654.695 117.698C654.786 117.698 654.83 117.808 654.764 117.87L638.399 133.443C638.078 133.748 637.573 133.383 637.762 132.982L644.973 117.698H654.695Z" fill="#EE2A7B"/>
<path fill-rule="evenodd" clip-rule="evenodd" d="M394.002 272.74C392.896 272.74 392 273.628 392 274.723V290.583C392 291.678 392.896 292.565 394.002 292.565H422.03C423.136 292.565 424.032 291.678 424.032 290.583V274.723C424.032 273.628 423.136 272.74 422.03 272.74H394.002ZM394.002 278.688C395.661 278.688 397.005 277.356 397.005 275.714H401.009V278.405C399.156 279.485 398.006 280.989 398.006 282.653C398.006 284.317 399.156 285.821 401.009 286.9V289.592H397.005C397.005 287.949 395.661 286.618 394.002 286.618V278.688ZM422.03 286.618C420.372 286.618 419.027 287.949 419.027 289.592H415.023V286.9C416.876 285.821 418.026 284.317 418.026 282.653C418.026 280.989 416.876 279.485 415.023 278.405V275.714H419.027C419.027 277.356 420.372 278.688 422.03 278.688V286.618ZM407.719 284.512C407.77 284.512 407.821 284.512 407.871 284.51C408.642 284.586 409.244 285.23 409.244 286.014C409.244 286.848 408.561 287.524 407.719 287.524C406.876 287.524 406.193 286.848 406.193 286.014C406.193 285.575 406.382 285.182 406.683 284.906C405.815 284.731 405.026 284.339 404.376 283.791C403.945 284.426 403.693 285.191 403.693 286.014C403.693 288.215 405.495 290 407.719 290C409.942 290 411.745 288.215 411.745 286.014C411.745 285.012 411.371 284.096 410.754 283.395C411.742 282.551 412.367 281.303 412.367 279.909C412.367 277.367 410.286 275.306 407.719 275.306C405.151 275.306 403.07 277.367 403.07 279.909C403.07 282.452 405.151 284.512 407.719 284.512ZM404.684 283.395C405.422 282.557 406.507 282.027 407.718 282.027C408.929 282.027 410.015 282.557 410.753 283.395C410.02 284.021 409.088 284.425 408.064 284.499C407.998 284.504 407.931 284.507 407.865 284.509L407.857 284.509C407.811 284.505 407.765 284.502 407.718 284.502C407.672 284.502 407.625 284.505 407.58 284.509C406.474 284.477 405.466 284.063 404.684 283.395ZM412.554 275.306C412.554 275.847 412.117 276.507 411.573 276.525C411.119 276.019 410.565 275.602 409.942 275.306H412.554Z" fill="#EE2A7B"/>
<path d="M507.158 274.619H503.994C504.154 274.166 504.255 273.669 504.255 273.158C504.255 270.733 502.31 268.775 499.901 268.775C498.377 268.775 497.056 269.564 496.272 270.747L495.547 271.726L494.821 270.733C494.037 269.564 492.716 268.775 491.192 268.775C488.783 268.775 486.838 270.733 486.838 273.158C486.838 273.669 486.94 274.166 487.099 274.619H483.935C482.324 274.619 481.047 275.919 481.047 277.54L481.032 293.609C481.032 295.23 482.324 296.53 483.935 296.53H507.158C508.769 296.53 510.061 295.23 510.061 293.609V277.54C510.061 275.919 508.769 274.619 507.158 274.619ZM499.901 271.697C500.699 271.697 501.352 272.354 501.352 273.158C501.352 273.961 500.699 274.619 499.901 274.619C499.103 274.619 498.45 273.961 498.45 273.158C498.45 272.354 499.103 271.697 499.901 271.697ZM491.192 271.697C491.991 271.697 492.644 272.354 492.644 273.158C492.644 273.961 491.991 274.619 491.192 274.619C490.394 274.619 489.741 273.961 489.741 273.158C489.741 272.354 490.394 271.697 491.192 271.697ZM507.158 293.609H483.935V290.687H507.158V293.609ZM507.158 286.305H483.935V277.54H491.308L488.289 281.674L490.641 283.383L494.095 278.65L495.547 276.664L496.998 278.65L500.453 283.383L502.804 281.674L499.785 277.54H507.158V286.305Z" fill="#EE2A7B"/>
<path d="M590.272 271.161H573.693C570.03 271.161 567.061 274.101 567.061 277.728V292.504C567.061 293.41 567.804 294.145 568.719 294.145H595.246C596.161 294.145 596.904 293.41 596.904 292.504V277.728C596.904 274.101 593.934 271.161 590.272 271.161ZM572.035 291.683H569.548V284.295H572.035V291.683ZM572.035 281.832H569.548V277.728C569.548 276.049 570.574 274.606 572.035 273.971V281.832ZM589.443 291.683H574.522V284.295H578.667V286.757C578.667 287.211 579.037 287.578 579.495 287.578H584.469C584.927 287.578 585.298 287.211 585.298 286.757V284.295H589.443V291.683ZM581.153 284.295V282.653C581.153 282.199 581.524 281.832 581.982 281.832C582.44 281.832 582.811 282.199 582.811 282.653V284.295C582.811 284.748 582.44 285.116 581.982 285.116C581.524 285.116 581.153 284.748 581.153 284.295ZM589.443 281.832H585.298V280.19C585.298 279.737 584.927 279.369 584.469 279.369H579.495C579.037 279.369 578.667 279.737 578.667 280.19V281.832H574.522V273.623H589.443V281.832ZM594.417 291.683H591.93V284.295H594.417V291.683ZM594.417 281.832H591.93V273.971C593.391 274.606 594.417 276.049 594.417 277.728V281.832Z" fill="#EE2A7B"/>
<path fill-rule="evenodd" clip-rule="evenodd" d="M654.247 276.503C654.094 276.503 653.997 276.338 654.073 276.204L657.802 269.629C657.98 269.316 658.312 269.123 658.672 269.123H665.969L663.876 276.503H654.247ZM654.154 278.963C654.063 278.963 654.019 279.073 654.085 279.135L670.45 294.708C670.771 295.013 671.276 294.648 671.087 294.247L663.876 278.963H654.154ZM666.289 276.503L668.303 269.123H677.546L679.56 276.503H666.289ZM673.402 292.91C673.263 293.225 672.816 293.228 672.673 292.914L666.289 278.963H679.56L673.402 292.91ZM687.783 269.123C688.129 269.123 688.449 269.3 688.632 269.593L692.752 276.197C692.835 276.33 692.739 276.503 692.582 276.503H681.973L679.671 269.123H687.783ZM691.695 278.963C691.786 278.963 691.83 279.073 691.764 279.135L675.399 294.708C675.078 295.013 674.573 294.648 674.762 294.247L681.973 278.963H691.695Z" fill="#EE2A7B"/>
<path d="M466.955 328.374H463.791C463.95 327.921 464.052 327.424 464.052 326.913C464.052 324.488 462.107 322.531 459.698 322.531C458.174 322.531 456.853 323.32 456.069 324.503L455.343 325.482L454.618 324.488C453.834 323.32 452.513 322.531 450.989 322.531C448.58 322.531 446.635 324.488 446.635 326.913C446.635 327.424 446.736 327.921 446.896 328.374H443.732C442.121 328.374 440.843 329.674 440.843 331.296L440.829 347.364C440.829 348.986 442.121 350.286 443.732 350.286H466.955C468.566 350.286 469.858 348.986 469.858 347.364V331.296C469.858 329.674 468.566 328.374 466.955 328.374ZM459.698 325.452C460.496 325.452 461.149 326.11 461.149 326.913C461.149 327.717 460.496 328.374 459.698 328.374C458.899 328.374 458.246 327.717 458.246 326.913C458.246 326.11 458.899 325.452 459.698 325.452ZM450.989 325.452C451.787 325.452 452.44 326.11 452.44 326.913C452.44 327.717 451.787 328.374 450.989 328.374C450.191 328.374 449.538 327.717 449.538 326.913C449.538 326.11 450.191 325.452 450.989 325.452ZM466.955 347.364H443.732V344.443H466.955V347.364ZM466.955 340.06H443.732V331.296H451.105L448.086 335.43L450.437 337.139L453.892 332.406L455.343 330.419L456.795 332.406L460.249 337.139L462.601 335.43L459.582 331.296H466.955V340.06Z" fill="#EE2A7B"/>
<path fill-rule="evenodd" clip-rule="evenodd" d="M528.86 326.496C527.754 326.496 526.858 327.383 526.858 328.478V344.338C526.858 345.433 527.754 346.321 528.86 346.321H556.888C557.994 346.321 558.89 345.433 558.89 344.338V328.478C558.89 327.383 557.994 326.496 556.888 326.496H528.86ZM528.86 332.443C530.518 332.443 531.863 331.112 531.863 329.469H535.867V332.161C534.014 333.24 532.864 334.744 532.864 336.408C532.864 338.072 534.014 339.576 535.867 340.656V343.347H531.863C531.863 341.705 530.518 340.373 528.86 340.373V332.443ZM556.888 340.373C555.229 340.373 553.885 341.705 553.885 343.347H549.881V340.656C551.734 339.576 552.884 338.072 552.884 336.408C552.884 334.744 551.734 333.24 549.881 332.161V329.469H553.885C553.885 331.112 555.229 332.443 556.888 332.443V340.373ZM542.576 338.268C542.628 338.268 542.679 338.267 542.729 338.265C543.5 338.341 544.102 338.985 544.102 339.769C544.102 340.603 543.419 341.28 542.577 341.28C541.734 341.28 541.051 340.603 541.051 339.769C541.051 339.331 541.24 338.937 541.541 338.661C540.673 338.486 539.884 338.095 539.234 337.546C538.803 338.181 538.551 338.946 538.551 339.769C538.551 341.971 540.353 343.756 542.577 343.756C544.8 343.756 546.602 341.971 546.602 339.769C546.602 338.767 546.229 337.851 545.612 337.151C546.6 336.307 547.225 335.058 547.225 333.665C547.225 331.122 545.144 329.061 542.576 329.061C540.009 329.061 537.928 331.122 537.928 333.665C537.928 336.207 540.009 338.268 542.576 338.268ZM539.542 337.151C540.28 336.312 541.365 335.782 542.576 335.782C543.787 335.782 544.873 336.312 545.61 337.151C544.878 337.777 543.946 338.18 542.921 338.254C542.856 338.259 542.789 338.263 542.723 338.265L542.715 338.265C542.669 338.26 542.623 338.258 542.576 338.258C542.529 338.258 542.483 338.26 542.437 338.265C541.332 338.233 540.324 337.818 539.542 337.151ZM547.412 329.061C547.412 329.603 546.975 330.262 546.431 330.281C545.977 329.774 545.423 329.357 544.8 329.061H547.412Z" fill="#EE2A7B"/>
<path d="M639.101 324.916H622.522C618.859 324.916 615.89 327.856 615.89 331.483V346.259C615.89 347.166 616.632 347.901 617.548 347.901H644.074C644.99 347.901 645.732 347.166 645.732 346.259V331.483C645.732 327.856 642.763 324.916 639.101 324.916ZM620.864 345.438H618.377V338.05H620.864V345.438ZM620.864 335.587H618.377V331.483C618.377 329.804 619.403 328.362 620.864 327.727V335.587ZM638.272 345.438H623.35V338.05H627.495V340.513C627.495 340.966 627.866 341.334 628.324 341.334H633.298C633.756 341.334 634.127 340.966 634.127 340.513V338.05H638.272V345.438ZM629.982 338.05V336.408C629.982 335.955 630.353 335.587 630.811 335.587C631.269 335.587 631.64 335.955 631.64 336.408V338.05C631.64 338.504 631.269 338.871 630.811 338.871C630.353 338.871 629.982 338.504 629.982 338.05ZM638.272 335.587H634.127V333.946C634.127 333.492 633.756 333.125 633.298 333.125H628.324C627.866 333.125 627.495 333.492 627.495 333.946V335.587H623.35V327.379H638.272V335.587ZM643.245 345.438H640.759V338.05H643.245V345.438ZM643.245 335.587H640.759V327.727C642.22 328.362 643.245 329.804 643.245 331.483V335.587Z" fill="#EE2A7B"/>
<path fill-rule="evenodd" clip-rule="evenodd" d="M703.076 330.258C702.922 330.258 702.826 330.093 702.902 329.96L706.631 323.385C706.808 323.071 707.141 322.878 707.501 322.878H714.797L712.705 330.258H703.076ZM702.982 332.718C702.892 332.718 702.848 332.829 702.914 332.891L719.279 348.463C719.6 348.768 720.105 348.403 719.916 348.003L712.704 332.718H702.982ZM715.117 330.258L717.132 322.878H726.375L728.389 330.258H715.117ZM722.231 346.665C722.092 346.98 721.645 346.983 721.502 346.67L715.117 332.718H728.389L722.231 346.665ZM736.612 322.878C736.957 322.878 737.278 323.056 737.461 323.349L741.581 329.952C741.664 330.086 741.568 330.258 741.411 330.258H730.802L728.5 322.878H736.612ZM740.524 332.718C740.614 332.718 740.658 332.829 740.593 332.891L724.228 348.463C723.907 348.768 723.401 348.403 723.59 348.003L730.802 332.718H740.524Z" fill="#EE2A7B"/>
<path fill-rule="evenodd" clip-rule="evenodd" d="M479.186 384.014C479.033 384.014 478.936 383.848 479.012 383.715L482.741 377.14C482.919 376.827 483.251 376.633 483.611 376.633H490.908L488.815 384.014H479.186ZM479.093 386.474C479.002 386.474 478.958 386.584 479.024 386.646L495.389 402.218C495.71 402.524 496.215 402.159 496.026 401.758L488.815 386.474H479.093ZM491.228 384.014L493.242 376.633H502.485L504.499 384.014H491.228ZM498.341 400.42C498.202 400.736 497.755 400.739 497.612 400.425L491.228 386.474H504.499L498.341 400.42ZM512.722 376.633C513.067 376.633 513.388 376.811 513.571 377.104L517.691 383.708C517.774 383.841 517.678 384.014 517.521 384.014H506.912L504.61 376.633H512.722ZM516.634 386.474C516.724 386.474 516.769 386.584 516.703 386.646L500.338 402.218C500.017 402.524 499.512 402.159 499.701 401.758L506.912 386.474H516.634Z" fill="#EE2A7B"/>
<ellipse cx="585.692" cy="389.569" rx="10.8108" ry="4.75802" fill="#EE2A7B"/>
<path d="M585.692 399.085C591.663 399.085 596.503 396.955 596.503 394.327V391.948C596.503 394.576 591.663 396.706 585.692 396.706C579.722 396.706 574.881 394.576 574.881 391.948V394.327C574.881 396.955 579.722 399.085 585.692 399.085Z" fill="#EE2A7B"/>
<path d="M585.692 403.843C591.663 403.843 596.503 401.712 596.503 399.085V396.706C596.503 399.333 591.663 401.464 585.692 401.464C579.722 401.464 574.881 399.333 574.881 396.706V399.085C574.881 401.712 579.722 403.843 585.692 403.843Z" fill="#EE2A7B"/>
<path fill-rule="evenodd" clip-rule="evenodd" d="M598.906 394.715C601.803 393.862 603.71 392.408 603.71 390.758V388.379C603.71 390.029 601.803 391.483 598.906 392.336V394.715Z" fill="#EE2A7B"/>
<path fill-rule="evenodd" clip-rule="evenodd" d="M596.951 385.655C600.914 384.949 603.71 383.24 603.71 381.242C603.71 378.615 598.87 376.484 592.899 376.484C586.929 376.484 582.089 378.615 582.089 381.242C582.089 381.72 582.249 382.182 582.547 382.617C583.561 382.495 584.616 382.432 585.692 382.432C588.933 382.432 591.983 383.005 594.312 384.031C595.278 384.455 596.193 384.99 596.951 385.655Z" fill="#EE2A7B"/>
<path fill-rule="evenodd" clip-rule="evenodd" d="M598.501 387.692C598.752 388.256 598.905 388.884 598.905 389.569V389.957C601.803 389.103 603.71 387.65 603.71 386V383.621C603.71 385.346 601.624 386.857 598.501 387.692Z" fill="#EE2A7B"/>
<path d="M686.836 382.129H683.672C683.832 381.676 683.934 381.18 683.934 380.669C683.934 378.244 681.989 376.286 679.579 376.286C678.055 376.286 676.734 377.075 675.951 378.258L675.225 379.237L674.499 378.244C673.715 377.075 672.395 376.286 670.87 376.286C668.461 376.286 666.516 378.244 666.516 380.669C666.516 381.18 666.618 381.676 666.777 382.129H663.613C662.002 382.129 660.725 383.429 660.725 385.051L660.71 401.12C660.71 402.741 662.002 404.041 663.613 404.041H686.836C688.448 404.041 689.739 402.741 689.739 401.12V385.051C689.739 383.429 688.448 382.129 686.836 382.129ZM679.579 379.208C680.378 379.208 681.031 379.865 681.031 380.669C681.031 381.472 680.378 382.129 679.579 382.129C678.781 382.129 678.128 381.472 678.128 380.669C678.128 379.865 678.781 379.208 679.579 379.208ZM670.87 379.208C671.669 379.208 672.322 379.865 672.322 380.669C672.322 381.472 671.669 382.129 670.87 382.129C670.072 382.129 669.419 381.472 669.419 380.669C669.419 379.865 670.072 379.208 670.87 379.208ZM686.836 401.12H663.613V398.198H686.836V401.12ZM686.836 393.816H663.613V385.051H670.987L667.968 389.185L670.319 390.894L673.773 386.161L675.225 384.174L676.676 386.161L680.131 390.894L682.482 389.185L679.463 385.051H686.836V393.816Z" fill="#EE2A7B"/>
</g>
</g>
<defs>
<clipPath id="clip0">
<rect width="424" height="428" fill="white"/>
</clipPath>
<clipPath id="clip1">
<rect width="279" height="428" fill="white" transform="translate(424)"/>
</clipPath>
</defs>
</svg>
