<svg width="703" height="414" viewBox="0 0 703 414" fill="none" xmlns="http://www.w3.org/2000/svg">
<g clip-path="url(#clip0)">
<g opacity="0.4">
<ellipse cx="10.8108" cy="23.2824" rx="10.8108" ry="4.75802" fill="#8CAEC5"/>
<path d="M10.8108 32.7986C16.7815 32.7986 21.6216 30.6684 21.6216 28.0406V25.6616C21.6216 28.2894 16.7815 30.4196 10.8108 30.4196C4.84017 30.4196 0 28.2894 0 25.6616V28.0406C0 30.6684 4.84017 32.7986 10.8108 32.7986Z" fill="#8CAEC5"/>
<path d="M10.8108 37.5565C16.7815 37.5565 21.6216 35.4262 21.6216 32.7984V30.4194C21.6216 33.0472 16.7815 35.1775 10.8108 35.1775C4.84017 35.1775 0 33.0472 0 30.4194V32.7984C0 35.4262 4.84017 37.5565 10.8108 37.5565Z" fill="#8CAEC5"/>
<path fill-rule="evenodd" clip-rule="evenodd" d="M24.0242 28.429C26.9214 27.5755 28.8288 26.1219 28.8288 24.4723V22.0933C28.8288 23.7429 26.9214 25.1965 24.0242 26.05V28.429Z" fill="#8CAEC5"/>
<path fill-rule="evenodd" clip-rule="evenodd" d="M22.0698 19.3688C26.033 18.6633 28.8289 16.9535 28.8289 14.9563C28.8289 12.3285 23.9888 10.1982 18.0181 10.1982C12.0474 10.1982 7.20728 12.3285 7.20728 14.9563C7.20728 15.4342 7.3674 15.8957 7.66532 16.3309C8.67978 16.209 9.73469 16.1458 10.8107 16.1458C14.0517 16.1458 17.1014 16.7192 19.4308 17.7444C20.3962 18.1693 21.3112 18.704 22.0698 19.3688Z" fill="#8CAEC5"/>
<path fill-rule="evenodd" clip-rule="evenodd" d="M23.6191 21.4054C23.871 21.9703 24.024 22.5982 24.024 23.2825V23.6708C26.9213 22.8173 28.8289 21.3637 28.8289 19.714V17.335C28.8289 19.0603 26.7423 20.5712 23.6191 21.4054Z" fill="#8CAEC5"/>
<path d="M111.955 15.8432H108.791C108.951 15.3903 109.052 14.8937 109.052 14.3824C109.052 11.9575 107.107 10 104.698 10C103.174 10 101.853 10.7888 101.069 11.9721L100.343 12.9508L99.6177 11.9575C98.8339 10.7888 97.5131 10 95.989 10C93.5796 10 91.6347 11.9575 91.6347 14.3824C91.6347 14.8937 91.7363 15.3903 91.8959 15.8432H88.7318C87.1207 15.8432 85.8434 17.1433 85.8434 18.7648L85.8289 34.8335C85.8289 36.455 87.1207 37.7551 88.7318 37.7551H111.955C113.566 37.7551 114.858 36.455 114.858 34.8335V18.7648C114.858 17.1433 113.566 15.8432 111.955 15.8432ZM104.698 12.9216C105.496 12.9216 106.149 13.5789 106.149 14.3824C106.149 15.1858 105.496 15.8432 104.698 15.8432C103.899 15.8432 103.246 15.1858 103.246 14.3824C103.246 13.5789 103.899 12.9216 104.698 12.9216ZM95.989 12.9216C96.7873 12.9216 97.4405 13.5789 97.4405 14.3824C97.4405 15.1858 96.7873 15.8432 95.989 15.8432C95.1907 15.8432 94.5376 15.1858 94.5376 14.3824C94.5376 13.5789 95.1907 12.9216 95.989 12.9216ZM111.955 34.8335H88.7318V31.9119H111.955V34.8335ZM111.955 27.5295H88.7318V18.7648H96.1051L93.0861 22.8988L95.4375 24.6079L98.8919 19.875L100.343 17.8883L101.795 19.875L105.249 24.6079L107.601 22.8988L104.582 18.7648H111.955V27.5295Z" fill="#8CAEC5"/>
<path fill-rule="evenodd" clip-rule="evenodd" d="M173.86 13.9648C172.754 13.9648 171.858 14.8524 171.858 15.9474V31.8074C171.858 32.9023 172.754 33.7899 173.86 33.7899H201.888C202.994 33.7899 203.89 32.9023 203.89 31.8074V15.9474C203.89 14.8524 202.994 13.9648 201.888 13.9648H173.86ZM173.86 19.9124C175.518 19.9124 176.863 18.581 176.863 16.9386H180.867V19.63C179.014 20.7094 177.864 22.2136 177.864 23.8774C177.864 25.5411 179.014 27.0453 180.867 28.1248V30.8162H176.863C176.863 29.1738 175.518 27.8424 173.86 27.8424V19.9124ZM201.888 27.8424C200.229 27.8424 198.885 29.1738 198.885 30.8162H194.881V28.1248C196.734 27.0453 197.884 25.5411 197.884 23.8774C197.884 22.2136 196.734 20.7094 194.881 19.63V16.9386H198.885C198.885 18.581 200.229 19.9124 201.888 19.9124V27.8424ZM187.576 25.7369C187.628 25.7369 187.679 25.7361 187.729 25.7345C188.5 25.8104 189.102 26.4546 189.102 27.2382C189.102 28.0725 188.419 28.749 187.577 28.749C186.734 28.749 186.051 28.0725 186.051 27.2382C186.051 26.8001 186.24 26.4067 186.541 26.1306C185.673 25.9554 184.884 25.564 184.234 25.0153C183.803 25.6504 183.551 26.4152 183.551 27.2382C183.551 29.4398 185.353 31.2247 187.577 31.2247C189.8 31.2247 191.602 29.4398 191.602 27.2382C191.602 26.2361 191.229 25.3203 190.612 24.6199C191.6 23.7759 192.225 22.5272 192.225 21.1339C192.225 18.5916 190.144 16.5303 187.576 16.5303C185.009 16.5303 182.928 18.5916 182.928 21.1339C182.928 23.6763 185.009 25.7369 187.576 25.7369ZM184.542 24.6197C185.28 23.7817 186.365 23.2517 187.576 23.2517C188.787 23.2517 189.873 23.7817 190.61 24.6197C189.878 25.2458 188.946 25.6492 187.921 25.7236C187.856 25.7284 187.789 25.7318 187.723 25.7339L187.715 25.7341C187.669 25.7296 187.623 25.727 187.576 25.727C187.529 25.727 187.483 25.7296 187.437 25.7341C186.332 25.702 185.324 25.2873 184.542 24.6197ZM192.412 16.5303C192.412 17.072 191.975 17.7314 191.431 17.7498C190.977 17.2433 190.423 16.8263 189.8 16.5303H192.412Z" fill="#8CAEC5"/>
<path d="M284.101 12.3853H267.522C263.859 12.3853 260.89 15.3255 260.89 18.9523V33.7282C260.89 34.6347 261.632 35.3699 262.548 35.3699H289.074C289.99 35.3699 290.732 34.6347 290.732 33.7282V18.9523C290.732 15.3255 287.763 12.3853 284.101 12.3853ZM265.864 32.9073H263.377V25.5194H265.864V32.9073ZM265.864 23.0567H263.377V18.9523C263.377 17.2736 264.403 15.8309 265.864 15.1957V23.0567ZM283.272 32.9073H268.35V25.5194H272.495V27.982C272.495 28.4355 272.866 28.8029 273.324 28.8029H278.298C278.756 28.8029 279.127 28.4355 279.127 27.982V25.5194H283.272V32.9073ZM274.982 25.5194V23.8776C274.982 23.4241 275.353 23.0567 275.811 23.0567C276.269 23.0567 276.64 23.4241 276.64 23.8776V25.5194C276.64 25.9729 276.269 26.3402 275.811 26.3402C275.353 26.3402 274.982 25.9729 274.982 25.5194ZM283.272 23.0567H279.127V21.415C279.127 20.9614 278.756 20.5941 278.298 20.5941H273.324C272.866 20.5941 272.495 20.9614 272.495 21.415V23.0567H268.35V14.8479H283.272V23.0567ZM288.245 32.9073H285.759V25.5194H288.245V32.9073ZM288.245 23.0567H285.759V15.1957C287.22 15.8309 288.245 17.2736 288.245 18.9523V23.0567Z" fill="#8CAEC5"/>
<path fill-rule="evenodd" clip-rule="evenodd" d="M348.076 17.7275C347.923 17.7275 347.826 17.5621 347.902 17.4288L351.631 10.8538C351.809 10.5407 352.141 10.3472 352.501 10.3472H359.798L357.705 17.7275H348.076ZM347.983 20.1877C347.892 20.1877 347.848 20.2979 347.914 20.3601L364.279 35.9323C364.6 36.2377 365.105 35.8724 364.916 35.4719L357.705 20.1877H347.983ZM360.118 17.7275L362.132 10.3472H371.375L373.389 17.7275H360.118ZM367.231 34.1341C367.092 34.4497 366.645 34.4527 366.502 34.139L360.118 20.1875H373.389L367.231 34.1341ZM381.612 10.3472C381.957 10.3472 382.278 10.5251 382.461 10.8179L386.581 17.4216C386.664 17.5548 386.568 17.7275 386.411 17.7275H375.802L373.5 10.3472H381.612ZM385.524 20.1877C385.615 20.1877 385.659 20.2979 385.593 20.3601L369.228 35.9323C368.907 36.2377 368.402 35.8724 368.591 35.4719L375.802 20.1877H385.524Z" fill="#8CAEC5"/>
<ellipse cx="47.8108" cy="184.548" rx="10.8108" ry="4.75802" fill="#8CAEC5"/>
<path d="M47.8108 194.064C53.7815 194.064 58.6216 191.934 58.6216 189.306V186.927C58.6216 189.555 53.7815 191.685 47.8108 191.685C41.8402 191.685 37 189.555 37 186.927V189.306C37 191.934 41.8402 194.064 47.8108 194.064Z" fill="#8CAEC5"/>
<path d="M47.8108 198.822C53.7815 198.822 58.6216 196.692 58.6216 194.064V191.685C58.6216 194.313 53.7815 196.443 47.8108 196.443C41.8402 196.443 37 194.313 37 191.685V194.064C37 196.692 41.8402 198.822 47.8108 198.822Z" fill="#8CAEC5"/>
<path fill-rule="evenodd" clip-rule="evenodd" d="M61.0242 189.695C63.9214 188.841 65.8288 187.388 65.8288 185.738V183.359C65.8288 185.009 63.9214 186.462 61.0242 187.316V189.695Z" fill="#8CAEC5"/>
<path fill-rule="evenodd" clip-rule="evenodd" d="M59.0698 180.634C63.033 179.929 65.8289 178.219 65.8289 176.222C65.8289 173.594 60.9888 171.464 55.0181 171.464C49.0474 171.464 44.2073 173.594 44.2073 176.222C44.2073 176.7 44.3674 177.161 44.6653 177.597C45.6798 177.475 46.7347 177.411 47.8107 177.411C51.0517 177.411 54.1014 177.985 56.4308 179.01C57.3962 179.435 58.3112 179.97 59.0698 180.634Z" fill="#8CAEC5"/>
<path fill-rule="evenodd" clip-rule="evenodd" d="M60.6191 182.671C60.871 183.236 61.024 183.864 61.024 184.548V184.936C63.9213 184.083 65.8289 182.629 65.8289 180.98V178.601C65.8289 180.326 63.7423 181.837 60.6191 182.671Z" fill="#8CAEC5"/>
<path d="M148.955 177.109H145.791C145.951 176.656 146.052 176.159 146.052 175.648C146.052 173.223 144.107 171.266 141.698 171.266C140.174 171.266 138.853 172.054 138.069 173.238L137.343 174.216L136.618 173.223C135.834 172.054 134.513 171.266 132.989 171.266C130.58 171.266 128.635 173.223 128.635 175.648C128.635 176.159 128.736 176.656 128.896 177.109H125.732C124.121 177.109 122.843 178.409 122.843 180.03L122.829 196.099C122.829 197.721 124.121 199.021 125.732 199.021H148.955C150.566 199.021 151.858 197.721 151.858 196.099V180.03C151.858 178.409 150.566 177.109 148.955 177.109ZM141.698 174.187C142.496 174.187 143.149 174.845 143.149 175.648C143.149 176.451 142.496 177.109 141.698 177.109C140.899 177.109 140.246 176.451 140.246 175.648C140.246 174.845 140.899 174.187 141.698 174.187ZM132.989 174.187C133.787 174.187 134.44 174.845 134.44 175.648C134.44 176.451 133.787 177.109 132.989 177.109C132.191 177.109 131.538 176.451 131.538 175.648C131.538 174.845 132.191 174.187 132.989 174.187ZM148.955 196.099H125.732V193.178H148.955V196.099ZM148.955 188.795H125.732V180.03H133.105L130.086 184.164L132.437 185.874L135.892 181.141L137.343 179.154L138.795 181.141L142.249 185.874L144.601 184.164L141.582 180.03H148.955V188.795Z" fill="#8CAEC5"/>
<path fill-rule="evenodd" clip-rule="evenodd" d="M210.86 175.23C209.754 175.23 208.858 176.118 208.858 177.213V193.073C208.858 194.168 209.754 195.056 210.86 195.056H238.888C239.994 195.056 240.89 194.168 240.89 193.073V177.213C240.89 176.118 239.994 175.23 238.888 175.23H210.86ZM210.86 181.178C212.518 181.178 213.863 179.847 213.863 178.204H217.867V180.896C216.014 181.975 214.864 183.479 214.864 185.143C214.864 186.807 216.014 188.311 217.867 189.39V192.082H213.863C213.863 190.439 212.518 189.108 210.86 189.108V181.178ZM238.888 189.108C237.229 189.108 235.885 190.439 235.885 192.082H231.881V189.39C233.734 188.311 234.884 186.807 234.884 185.143C234.884 183.479 233.734 181.975 231.881 180.896V178.204H235.885C235.885 179.847 237.229 181.178 238.888 181.178V189.108ZM224.576 187.003C224.628 187.003 224.679 187.002 224.729 187C225.5 187.076 226.102 187.72 226.102 188.504C226.102 189.338 225.419 190.015 224.577 190.015C223.734 190.015 223.051 189.338 223.051 188.504C223.051 188.066 223.24 187.672 223.541 187.396C222.673 187.221 221.884 186.83 221.234 186.281C220.803 186.916 220.551 187.681 220.551 188.504C220.551 190.705 222.353 192.49 224.577 192.49C226.8 192.49 228.602 190.705 228.602 188.504C228.602 187.502 228.229 186.586 227.612 185.886C228.6 185.041 229.225 183.793 229.225 182.399C229.225 179.857 227.144 177.796 224.576 177.796C222.009 177.796 219.928 179.857 219.928 182.399C219.928 184.942 222.009 187.003 224.576 187.003ZM221.542 185.885C222.28 185.047 223.365 184.517 224.576 184.517C225.787 184.517 226.873 185.047 227.61 185.885C226.878 186.511 225.946 186.915 224.921 186.989C224.856 186.994 224.789 186.997 224.723 186.999L224.715 187C224.669 186.995 224.623 186.993 224.576 186.993C224.529 186.993 224.483 186.995 224.437 187C223.332 186.968 222.324 186.553 221.542 185.885ZM229.412 177.796C229.412 178.338 228.975 178.997 228.431 179.015C227.977 178.509 227.423 178.092 226.8 177.796H229.412Z" fill="#8CAEC5"/>
<path d="M321.101 173.651H304.522C300.859 173.651 297.89 176.591 297.89 180.218V194.994C297.89 195.9 298.632 196.636 299.548 196.636H326.074C326.99 196.636 327.732 195.9 327.732 194.994V180.218C327.732 176.591 324.763 173.651 321.101 173.651ZM302.864 194.173H300.377V186.785H302.864V194.173ZM302.864 184.322H300.377V180.218C300.377 178.539 301.403 177.097 302.864 176.461V184.322ZM320.272 194.173H305.35V186.785H309.495V189.248C309.495 189.701 309.866 190.069 310.324 190.069H315.298C315.756 190.069 316.127 189.701 316.127 189.248V186.785H320.272V194.173ZM311.982 186.785V185.143C311.982 184.69 312.353 184.322 312.811 184.322C313.269 184.322 313.64 184.69 313.64 185.143V186.785C313.64 187.239 313.269 187.606 312.811 187.606C312.353 187.606 311.982 187.239 311.982 186.785ZM320.272 184.322H316.127V182.681C316.127 182.227 315.756 181.86 315.298 181.86H310.324C309.866 181.86 309.495 182.227 309.495 182.681V184.322H305.35V176.114H320.272V184.322ZM325.245 194.173H322.759V186.785H325.245V194.173ZM325.245 184.322H322.759V176.461C324.22 177.097 325.245 178.539 325.245 180.218V184.322Z" fill="#8CAEC5"/>
<path fill-rule="evenodd" clip-rule="evenodd" d="M385.076 178.993C384.923 178.993 384.826 178.828 384.902 178.694L388.631 172.119C388.809 171.806 389.141 171.613 389.501 171.613H396.798L394.705 178.993H385.076ZM384.983 181.453C384.892 181.453 384.848 181.563 384.914 181.626L401.279 197.198C401.6 197.503 402.105 197.138 401.916 196.737L394.705 181.453H384.983ZM397.118 178.993L399.132 171.613H408.375L410.389 178.993H397.118ZM404.231 195.4C404.092 195.715 403.645 195.718 403.502 195.405L397.118 181.453H410.389L404.231 195.4ZM418.612 171.613C418.957 171.613 419.278 171.791 419.461 172.083L423.581 178.687C423.664 178.82 423.568 178.993 423.411 178.993H412.802L410.5 171.613H418.612ZM422.524 181.453C422.615 181.453 422.659 181.563 422.593 181.626L406.228 197.198C405.907 197.503 405.402 197.138 405.591 196.737L412.802 181.453H422.524Z" fill="#8CAEC5"/>
<path d="M60.2107 66.1401H43.6316C39.9692 66.1401 37 69.0804 37 72.7072V87.4831C37 88.3896 37.7424 89.1248 38.6579 89.1248H65.1845C66.0999 89.1248 66.8424 88.3896 66.8424 87.4831V72.7072C66.8424 69.0804 63.8732 66.1401 60.2107 66.1401ZM41.9737 86.6622H39.4869V79.2742H41.9737V86.6622ZM41.9737 76.8116H39.4869V72.7072C39.4869 71.0285 40.5127 69.5858 41.9737 68.9506V76.8116ZM59.3818 86.6622H44.4606V79.2742H48.6054V81.7369C48.6054 82.1904 48.9763 82.5578 49.4343 82.5578H54.4081C54.8661 82.5578 55.237 82.1904 55.237 81.7369V79.2742H59.3818V86.6622ZM51.0922 79.2742V77.6325C51.0922 77.1789 51.4632 76.8116 51.9212 76.8116C52.3792 76.8116 52.7501 77.1789 52.7501 77.6325V79.2742C52.7501 79.7278 52.3792 80.0951 51.9212 80.0951C51.4632 80.0951 51.0922 79.7278 51.0922 79.2742ZM59.3818 76.8116H55.237V75.1698C55.237 74.7163 54.8661 74.349 54.4081 74.349H49.4343C48.9763 74.349 48.6054 74.7163 48.6054 75.1698V76.8116H44.4606V68.6028H59.3818V76.8116ZM64.3555 86.6622H61.8687V79.2742H64.3555V86.6622ZM64.3555 76.8116H61.8687V68.9506C63.3297 69.5858 64.3555 71.0285 64.3555 72.7072V76.8116Z" fill="#8CAEC5"/>
<path fill-rule="evenodd" clip-rule="evenodd" d="M124.186 71.4824C124.032 71.4824 123.936 71.317 124.012 71.1837L127.741 64.6087C127.918 64.2956 128.251 64.1021 128.611 64.1021H135.907L133.814 71.4824H124.186ZM124.092 73.9425C124.002 73.9425 123.958 74.0527 124.024 74.115L140.389 89.6872C140.709 89.9925 141.215 89.6273 141.026 89.2267L133.814 73.9425H124.092ZM136.227 71.4824L138.242 64.1021H147.485L149.499 71.4824H136.227ZM143.341 87.889C143.202 88.2046 142.755 88.2076 142.611 87.8939L136.227 73.9424H149.499L143.341 87.889ZM157.722 64.1021C158.067 64.1021 158.388 64.28 158.571 64.5727L162.691 71.1765C162.774 71.3097 162.678 71.4824 162.521 71.4824H151.912L149.61 64.1021H157.722ZM161.634 73.9425C161.724 73.9425 161.768 74.0527 161.703 74.115L145.338 89.6872C145.017 89.9925 144.511 89.6273 144.7 89.2267L151.912 73.9425H161.634Z" fill="#8CAEC5"/>
<ellipse cx="230.692" cy="77.0373" rx="10.8108" ry="4.75802" fill="#8CAEC5"/>
<path d="M230.692 86.5535C236.663 86.5535 241.503 84.4233 241.503 81.7955V79.4165C241.503 82.0443 236.663 84.1745 230.692 84.1745C224.722 84.1745 219.881 82.0443 219.881 79.4165V81.7955C219.881 84.4233 224.722 86.5535 230.692 86.5535Z" fill="#8CAEC5"/>
<path d="M230.692 91.3113C236.663 91.3113 241.503 89.1811 241.503 86.5533V84.1743C241.503 86.8021 236.663 88.9323 230.692 88.9323C224.722 88.9323 219.881 86.8021 219.881 84.1743V86.5533C219.881 89.1811 224.722 91.3113 230.692 91.3113Z" fill="#8CAEC5"/>
<path fill-rule="evenodd" clip-rule="evenodd" d="M243.906 82.1839C246.803 81.3304 248.71 79.8768 248.71 78.2272V75.8481C248.71 77.4978 246.803 78.9513 243.906 79.8049V82.1839Z" fill="#8CAEC5"/>
<path fill-rule="evenodd" clip-rule="evenodd" d="M241.951 73.1237C245.914 72.4181 248.71 70.7083 248.71 68.7111C248.71 66.0834 243.87 63.9531 237.899 63.9531C231.929 63.9531 227.089 66.0834 227.089 68.7111C227.089 69.1891 227.249 69.6506 227.547 70.0858C228.561 69.9638 229.616 69.9006 230.692 69.9006C233.933 69.9006 236.983 70.4741 239.312 71.4993C240.278 71.9241 241.193 72.4589 241.951 73.1237Z" fill="#8CAEC5"/>
<path fill-rule="evenodd" clip-rule="evenodd" d="M243.5 75.1603C243.752 75.7251 243.905 76.353 243.905 77.0374V77.4257C246.803 76.5721 248.71 75.1185 248.71 73.4689V71.0898C248.71 72.8152 246.624 74.3261 243.5 75.1603Z" fill="#8CAEC5"/>
<path d="M331.836 69.5981H328.672C328.832 69.1452 328.933 68.6485 328.933 68.1373C328.933 65.7123 326.989 63.7549 324.579 63.7549C323.055 63.7549 321.734 64.5437 320.95 65.727L320.225 66.7057L319.499 65.7123C318.715 64.5437 317.394 63.7549 315.87 63.7549C313.461 63.7549 311.516 65.7123 311.516 68.1373C311.516 68.6485 311.618 69.1452 311.777 69.5981H308.613C307.002 69.5981 305.725 70.8982 305.725 72.5197L305.71 88.5884C305.71 90.2099 307.002 91.51 308.613 91.51H331.836C333.447 91.51 334.739 90.2099 334.739 88.5884V72.5197C334.739 70.8982 333.447 69.5981 331.836 69.5981ZM324.579 66.6765C325.377 66.6765 326.031 67.3338 326.031 68.1373C326.031 68.9407 325.377 69.5981 324.579 69.5981C323.781 69.5981 323.128 68.9407 323.128 68.1373C323.128 67.3338 323.781 66.6765 324.579 66.6765ZM315.87 66.6765C316.669 66.6765 317.322 67.3338 317.322 68.1373C317.322 68.9407 316.669 69.5981 315.87 69.5981C315.072 69.5981 314.419 68.9407 314.419 68.1373C314.419 67.3338 315.072 66.6765 315.87 66.6765ZM331.836 88.5884H308.613V85.6668H331.836V88.5884ZM331.836 81.2844H308.613V72.5197H315.986L312.967 76.6537L315.319 78.3628L318.773 73.6299L320.225 71.6432L321.676 73.6299L325.131 78.3628L327.482 76.6537L324.463 72.5197H331.836V81.2844Z" fill="#8CAEC5"/>
<path fill-rule="evenodd" clip-rule="evenodd" d="M393.741 67.7197C392.636 67.7197 391.739 68.6073 391.739 69.7022V85.5623C391.739 86.6572 392.636 87.5448 393.741 87.5448H421.769C422.875 87.5448 423.771 86.6572 423.771 85.5623V69.7022C423.771 68.6073 422.875 67.7197 421.769 67.7197H393.741ZM393.741 73.6672C395.4 73.6672 396.744 72.3359 396.744 70.6935H400.748V73.3849C398.895 74.4643 397.745 75.9685 397.745 77.6323C397.745 79.296 398.895 80.8002 400.748 81.8796V84.571H396.744C396.744 82.9287 395.4 81.5973 393.741 81.5973V73.6672ZM421.769 81.5973C420.111 81.5973 418.766 82.9287 418.766 84.571H414.762V81.8796C416.616 80.8002 417.765 79.296 417.765 77.6323C417.765 75.9685 416.616 74.4643 414.762 73.3849V70.6935H418.766C418.766 72.3359 420.111 73.6672 421.769 73.6672V81.5973ZM407.458 79.4918C407.509 79.4918 407.56 79.491 407.611 79.4894C408.381 79.5653 408.984 80.2095 408.984 80.9931C408.984 81.8273 408.3 82.5039 407.458 82.5039C406.615 82.5039 405.932 81.8273 405.932 80.9931C405.932 80.555 406.122 80.1616 406.422 79.8855C405.554 79.7103 404.765 79.3189 404.116 78.7702C403.684 79.4052 403.432 80.1701 403.432 80.9931C403.432 83.1946 405.234 84.9796 407.458 84.9796C409.681 84.9796 411.484 83.1946 411.484 80.9931C411.484 79.991 411.11 79.0752 410.494 78.3748C411.481 77.5307 412.107 76.2821 412.107 74.8887C412.107 72.3465 410.025 70.2852 407.458 70.2852C404.891 70.2852 402.809 72.3465 402.809 74.8887C402.809 77.4312 404.891 79.4918 407.458 79.4918ZM404.423 78.3746C405.161 77.5366 406.247 77.0066 407.458 77.0066C408.669 77.0066 409.754 77.5366 410.492 78.3746C409.759 79.0007 408.827 79.4041 407.803 79.4785C407.737 79.4833 407.671 79.4867 407.604 79.4887L407.597 79.489C407.551 79.4845 407.504 79.4819 407.458 79.4819C407.411 79.4819 407.364 79.4845 407.319 79.489C406.213 79.4568 405.205 79.0422 404.423 78.3746ZM412.293 70.2852C412.293 70.8269 411.856 71.4863 411.312 71.5047C410.858 70.9982 410.305 70.5812 409.681 70.2852H412.293Z" fill="#8CAEC5"/>
<path d="M23.2107 227.406H6.63164C2.96921 227.406 0 230.346 0 233.973V248.749C0 249.655 0.742433 250.39 1.65791 250.39H28.1845C29.0999 250.39 29.8424 249.655 29.8424 248.749V233.973C29.8424 230.346 26.8732 227.406 23.2107 227.406ZM4.97373 247.928H2.48687V240.54H4.97373V247.928ZM4.97373 238.077H2.48687V233.973C2.48687 232.294 3.5127 230.851 4.97373 230.216V238.077ZM22.3818 247.928H7.4606V240.54H11.6054V243.003C11.6054 243.456 11.9763 243.823 12.4343 243.823H17.4081C17.8661 243.823 18.237 243.456 18.237 243.003V240.54H22.3818V247.928ZM14.0922 240.54V238.898C14.0922 238.445 14.4632 238.077 14.9212 238.077C15.3792 238.077 15.7501 238.445 15.7501 238.898V240.54C15.7501 240.993 15.3792 241.361 14.9212 241.361C14.4632 241.361 14.0922 240.993 14.0922 240.54ZM22.3818 238.077H18.237V236.435C18.237 235.982 17.8661 235.615 17.4081 235.615H12.4343C11.9763 235.615 11.6054 235.982 11.6054 236.435V238.077H7.4606V229.868H22.3818V238.077ZM27.3555 247.928H24.8687V240.54H27.3555V247.928ZM27.3555 238.077H24.8687V230.216C26.3297 230.851 27.3555 232.294 27.3555 233.973V238.077Z" fill="#8CAEC5"/>
<path fill-rule="evenodd" clip-rule="evenodd" d="M87.1857 232.748C87.0325 232.748 86.9361 232.583 87.0118 232.449L90.7408 225.874C90.9184 225.561 91.2507 225.368 91.6107 225.368H98.9074L96.8145 232.748H87.1857ZM87.0924 235.208C87.0022 235.208 86.9581 235.318 87.0235 235.381L103.389 250.953C103.709 251.258 104.215 250.893 104.026 250.492L96.8144 235.208H87.0924ZM99.2275 232.748L101.242 225.368H110.485L112.499 232.748H99.2275ZM106.341 249.155C106.202 249.47 105.755 249.473 105.611 249.159L99.2275 235.208H112.499L106.341 249.155ZM120.722 225.368C121.067 225.368 121.388 225.546 121.571 225.838L125.691 232.442C125.774 232.575 125.678 232.748 125.521 232.748H114.912L112.61 225.368H120.722ZM124.634 235.208C124.724 235.208 124.768 235.318 124.703 235.381L108.338 250.953C108.017 251.258 107.511 250.893 107.7 250.492L114.912 235.208H124.634Z" fill="#8CAEC5"/>
<ellipse cx="193.692" cy="238.303" rx="10.8108" ry="4.75802" fill="#8CAEC5"/>
<path d="M193.692 247.819C199.663 247.819 204.503 245.689 204.503 243.061V240.682C204.503 243.31 199.663 245.44 193.692 245.44C187.722 245.44 182.881 243.31 182.881 240.682V243.061C182.881 245.689 187.722 247.819 193.692 247.819Z" fill="#8CAEC5"/>
<path d="M193.692 252.577C199.663 252.577 204.503 250.447 204.503 247.819V245.44C204.503 248.068 199.663 250.198 193.692 250.198C187.722 250.198 182.881 248.068 182.881 245.44V247.819C182.881 250.447 187.722 252.577 193.692 252.577Z" fill="#8CAEC5"/>
<path fill-rule="evenodd" clip-rule="evenodd" d="M206.906 243.45C209.803 242.596 211.71 241.142 211.71 239.493V237.114C211.71 238.763 209.803 240.217 206.906 241.071V243.45Z" fill="#8CAEC5"/>
<path fill-rule="evenodd" clip-rule="evenodd" d="M204.951 234.389C208.914 233.684 211.71 231.974 211.71 229.977C211.71 227.349 206.87 225.219 200.899 225.219C194.929 225.219 190.089 227.349 190.089 229.977C190.089 230.455 190.249 230.916 190.547 231.351C191.561 231.229 192.616 231.166 193.692 231.166C196.933 231.166 199.983 231.74 202.312 232.765C203.278 233.19 204.193 233.725 204.951 234.389Z" fill="#8CAEC5"/>
<path fill-rule="evenodd" clip-rule="evenodd" d="M206.5 236.426C206.752 236.991 206.905 237.619 206.905 238.303V238.691C209.803 237.838 211.71 236.384 211.71 234.734V232.355C211.71 234.081 209.624 235.592 206.5 236.426Z" fill="#8CAEC5"/>
<path d="M294.836 230.864H291.672C291.832 230.411 291.933 229.914 291.933 229.403C291.933 226.978 289.989 225.021 287.579 225.021C286.055 225.021 284.734 225.809 283.95 226.993L283.225 227.971L282.499 226.978C281.715 225.809 280.394 225.021 278.87 225.021C276.461 225.021 274.516 226.978 274.516 229.403C274.516 229.914 274.618 230.411 274.777 230.864H271.613C270.002 230.864 268.725 232.164 268.725 233.785L268.71 249.854C268.71 251.476 270.002 252.776 271.613 252.776H294.836C296.447 252.776 297.739 251.476 297.739 249.854V233.785C297.739 232.164 296.447 230.864 294.836 230.864ZM287.579 227.942C288.377 227.942 289.031 228.599 289.031 229.403C289.031 230.206 288.377 230.864 287.579 230.864C286.781 230.864 286.128 230.206 286.128 229.403C286.128 228.599 286.781 227.942 287.579 227.942ZM278.87 227.942C279.669 227.942 280.322 228.599 280.322 229.403C280.322 230.206 279.669 230.864 278.87 230.864C278.072 230.864 277.419 230.206 277.419 229.403C277.419 228.599 278.072 227.942 278.87 227.942ZM294.836 249.854H271.613V246.932H294.836V249.854ZM294.836 242.55H271.613V233.785H278.986L275.967 237.919L278.319 239.628L281.773 234.895L283.225 232.909L284.676 234.895L288.131 239.628L290.482 237.919L287.463 233.785H294.836V242.55Z" fill="#8CAEC5"/>
<path fill-rule="evenodd" clip-rule="evenodd" d="M356.741 228.985C355.636 228.985 354.739 229.873 354.739 230.968V246.828C354.739 247.923 355.636 248.81 356.741 248.81H384.769C385.875 248.81 386.771 247.923 386.771 246.828V230.968C386.771 229.873 385.875 228.985 384.769 228.985H356.741ZM356.741 234.933C358.4 234.933 359.744 233.601 359.744 231.959H363.748V234.651C361.895 235.73 360.745 237.234 360.745 238.898C360.745 240.562 361.895 242.066 363.748 243.145V245.837H359.744C359.744 244.194 358.4 242.863 356.741 242.863V234.933ZM384.769 242.863C383.111 242.863 381.766 244.194 381.766 245.837H377.762V243.145C379.616 242.066 380.765 240.562 380.765 238.898C380.765 237.234 379.616 235.73 377.762 234.651V231.959H381.766C381.766 233.601 383.111 234.933 384.769 234.933V242.863ZM370.458 240.757C370.509 240.757 370.56 240.757 370.611 240.755C371.381 240.831 371.984 241.475 371.984 242.259C371.984 243.093 371.3 243.769 370.458 243.769C369.615 243.769 368.932 243.093 368.932 242.259C368.932 241.821 369.122 241.427 369.422 241.151C368.554 240.976 367.765 240.585 367.116 240.036C366.684 240.671 366.432 241.436 366.432 242.259C366.432 244.46 368.234 246.245 370.458 246.245C372.681 246.245 374.484 244.46 374.484 242.259C374.484 241.257 374.11 240.341 373.494 239.64C374.481 238.796 375.107 237.548 375.107 236.154C375.107 233.612 373.025 231.551 370.458 231.551C367.891 231.551 365.809 233.612 365.809 236.154C365.809 238.697 367.891 240.757 370.458 240.757ZM367.423 239.64C368.161 238.802 369.247 238.272 370.458 238.272C371.669 238.272 372.754 238.802 373.492 239.64C372.759 240.266 371.827 240.67 370.803 240.744C370.737 240.749 370.671 240.752 370.604 240.754L370.597 240.755C370.551 240.75 370.504 240.748 370.458 240.748C370.411 240.748 370.364 240.75 370.319 240.755C369.213 240.722 368.205 240.308 367.423 239.64ZM375.293 231.551C375.293 232.093 374.856 232.752 374.312 232.77C373.858 232.264 373.305 231.847 372.681 231.551H375.293Z" fill="#8CAEC5"/>
<path fill-rule="evenodd" clip-rule="evenodd" d="M2.002 121.475C0.896328 121.475 0 122.363 0 123.458V139.318C0 140.413 0.896328 141.3 2.002 141.3H30.0301C31.1357 141.3 32.0321 140.413 32.0321 139.318V123.458C32.0321 122.363 31.1357 121.475 30.0301 121.475H2.002ZM2.002 127.423C3.66052 127.423 5.00501 126.091 5.00501 124.449H9.00902V127.14C7.1558 128.22 6.00601 129.724 6.00601 131.388C6.00601 133.051 7.1558 134.556 9.00902 135.635V138.326H5.00501C5.00501 136.684 3.66052 135.353 2.002 135.353V127.423ZM30.0301 135.353C28.3716 135.353 27.0271 136.684 27.0271 138.326H23.0231V135.635C24.8763 134.556 26.0261 133.051 26.0261 131.388C26.0261 129.724 24.8763 128.22 23.0231 127.14V124.449H27.0271C27.0271 126.091 28.3716 127.423 30.0301 127.423V135.353ZM15.7185 133.247C15.7697 133.247 15.8207 133.246 15.8715 133.245C16.6421 133.321 17.2444 133.965 17.2444 134.748C17.2444 135.583 16.561 136.259 15.7186 136.259C14.8761 136.259 14.1931 135.583 14.1931 134.748C14.1931 134.31 14.3824 133.917 14.6832 133.641C13.8147 133.466 13.0259 133.074 12.3764 132.526C11.9447 133.161 11.6926 133.925 11.6926 134.748C11.6926 136.95 13.4952 138.735 15.7186 138.735C17.942 138.735 19.7445 136.95 19.7445 134.748C19.7445 133.746 19.3711 132.831 18.7545 132.13C19.7421 131.286 20.3673 130.037 20.3673 128.644C20.3673 126.102 18.2859 124.041 15.7185 124.041C13.1513 124.041 11.0699 126.102 11.0699 128.644C11.0699 131.187 13.1513 133.247 15.7185 133.247ZM12.6841 132.13C13.4221 131.292 14.5074 130.762 15.7184 130.762C16.9294 130.762 18.0147 131.292 18.7526 132.13C18.02 132.756 17.088 133.159 16.0635 133.234C15.9977 133.239 15.9314 133.242 15.8649 133.244L15.8574 133.244C15.8115 133.24 15.7652 133.237 15.7184 133.237C15.6716 133.237 15.6252 133.24 15.5796 133.244C14.4737 133.212 13.4659 132.798 12.6841 132.13ZM20.5541 124.041C20.5541 124.582 20.1166 125.242 19.5727 125.26C19.1188 124.754 18.5654 124.337 17.9418 124.041H20.5541Z" fill="#8CAEC5"/>
<path d="M115.158 123.353H111.994C112.154 122.901 112.255 122.404 112.255 121.893C112.255 119.468 110.31 117.51 107.901 117.51C106.377 117.51 105.056 118.299 104.272 119.482L103.547 120.461L102.821 119.468C102.037 118.299 100.716 117.51 99.1922 117.51C96.7827 117.51 94.8378 119.468 94.8378 121.893C94.8378 122.404 94.9394 122.901 95.0991 123.353H91.9349C90.3238 123.353 89.0465 124.654 89.0465 126.275L89.032 142.344C89.032 143.965 90.3238 145.265 91.9349 145.265H115.158C116.769 145.265 118.061 143.965 118.061 142.344V126.275C118.061 124.654 116.769 123.353 115.158 123.353ZM107.901 120.432C108.699 120.432 109.352 121.089 109.352 121.893C109.352 122.696 108.699 123.353 107.901 123.353C107.103 123.353 106.449 122.696 106.449 121.893C106.449 121.089 107.103 120.432 107.901 120.432ZM99.1922 120.432C99.9905 120.432 100.644 121.089 100.644 121.893C100.644 122.696 99.9905 123.353 99.1922 123.353C98.3939 123.353 97.7407 122.696 97.7407 121.893C97.7407 121.089 98.3939 120.432 99.1922 120.432ZM115.158 142.344H91.9349V139.422H115.158V142.344ZM115.158 135.04H91.9349V126.275H99.3083L96.2892 130.409L98.6406 132.118L102.095 127.385L103.547 125.399L104.998 127.385L108.452 132.118L110.804 130.409L107.785 126.275H115.158V135.04Z" fill="#8CAEC5"/>
<path d="M198.272 119.896H181.693C178.03 119.896 175.061 122.836 175.061 126.463V141.238C175.061 142.145 175.803 142.88 176.719 142.88H203.246C204.161 142.88 204.903 142.145 204.903 141.238V126.463C204.903 122.836 201.934 119.896 198.272 119.896ZM180.035 140.418H177.548V133.03H180.035V140.418ZM180.035 130.567H177.548V126.463C177.548 124.784 178.574 123.341 180.035 122.706V130.567ZM197.443 140.418H182.522V133.03H186.666V135.492C186.666 135.946 187.037 136.313 187.495 136.313H192.469C192.927 136.313 193.298 135.946 193.298 135.492V133.03H197.443V140.418ZM189.153 133.03V131.388C189.153 130.934 189.524 130.567 189.982 130.567C190.44 130.567 190.811 130.934 190.811 131.388V133.03C190.811 133.483 190.44 133.85 189.982 133.85C189.524 133.85 189.153 133.483 189.153 133.03ZM197.443 130.567H193.298V128.925C193.298 128.472 192.927 128.104 192.469 128.104H187.495C187.037 128.104 186.666 128.472 186.666 128.925V130.567H182.522V122.358H197.443V130.567ZM202.417 140.418H199.93V133.03H202.417V140.418ZM202.417 130.567H199.93V122.706C201.391 123.341 202.417 124.784 202.417 126.463V130.567Z" fill="#8CAEC5"/>
<path fill-rule="evenodd" clip-rule="evenodd" d="M262.247 125.238C262.094 125.238 261.997 125.072 262.073 124.939L265.802 118.364C265.98 118.051 266.312 117.857 266.672 117.857H273.969L271.876 125.238H262.247ZM262.154 127.698C262.063 127.698 262.019 127.808 262.085 127.87L278.45 143.443C278.771 143.748 279.276 143.383 279.087 142.982L271.876 127.698H262.154ZM274.289 125.238L276.303 117.857H285.546L287.56 125.238H274.289ZM281.402 141.644C281.263 141.96 280.816 141.963 280.673 141.649L274.289 127.698H287.56L281.402 141.644ZM295.783 117.857C296.129 117.857 296.449 118.035 296.632 118.328L300.752 124.932C300.835 125.065 300.739 125.238 300.582 125.238H289.973L287.671 117.857H295.783ZM299.695 127.698C299.786 127.698 299.83 127.808 299.764 127.87L283.399 143.443C283.078 143.748 282.573 143.383 282.762 142.982L289.973 127.698H299.695Z" fill="#8CAEC5"/>
<ellipse cx="368.753" cy="130.793" rx="10.8108" ry="4.75802" fill="#8CAEC5"/>
<path d="M368.753 140.309C374.724 140.309 379.564 138.179 379.564 135.551V133.172C379.564 135.8 374.724 137.93 368.753 137.93C362.783 137.93 357.943 135.8 357.943 133.172V135.551C357.943 138.179 362.783 140.309 368.753 140.309Z" fill="#8CAEC5"/>
<path d="M368.753 145.067C374.724 145.067 379.564 142.936 379.564 140.309V137.93C379.564 140.557 374.724 142.688 368.753 142.688C362.783 142.688 357.943 140.557 357.943 137.93V140.309C357.943 142.936 362.783 145.067 368.753 145.067Z" fill="#8CAEC5"/>
<path fill-rule="evenodd" clip-rule="evenodd" d="M381.967 135.939C384.864 135.086 386.771 133.632 386.771 131.983V129.604C386.771 131.253 384.864 132.707 381.967 133.56V135.939Z" fill="#8CAEC5"/>
<path fill-rule="evenodd" clip-rule="evenodd" d="M380.012 126.879C383.976 126.174 386.772 124.464 386.772 122.467C386.772 119.839 381.931 117.708 375.961 117.708C369.99 117.708 365.15 119.839 365.15 122.467C365.15 122.944 365.31 123.406 365.608 123.841C366.622 123.719 367.677 123.656 368.753 123.656C371.994 123.656 375.044 124.229 377.373 125.255C378.339 125.68 379.254 126.214 380.012 126.879Z" fill="#8CAEC5"/>
<path fill-rule="evenodd" clip-rule="evenodd" d="M381.562 128.916C381.814 129.481 381.967 130.109 381.967 130.793V131.182C384.864 130.328 386.772 128.874 386.772 127.225V124.846C386.772 126.571 384.685 128.082 381.562 128.916Z" fill="#8CAEC5"/>
<path fill-rule="evenodd" clip-rule="evenodd" d="M39.002 282.74C37.8963 282.74 37 283.628 37 284.723V300.583C37 301.678 37.8963 302.565 39.002 302.565H67.0301C68.1357 302.565 69.0321 301.678 69.0321 300.583V284.723C69.0321 283.628 68.1357 282.74 67.0301 282.74H39.002ZM39.002 288.688C40.6605 288.688 42.005 287.356 42.005 285.714H46.009V288.405C44.1558 289.485 43.006 290.989 43.006 292.653C43.006 294.317 44.1558 295.821 46.009 296.9V299.592H42.005C42.005 297.949 40.6605 296.618 39.002 296.618V288.688ZM67.0301 296.618C65.3716 296.618 64.0271 297.949 64.0271 299.592H60.0231V296.9C61.8763 295.821 63.0261 294.317 63.0261 292.653C63.0261 290.989 61.8763 289.485 60.0231 288.405V285.714H64.0271C64.0271 287.356 65.3716 288.688 67.0301 288.688V296.618ZM52.7185 294.512C52.7697 294.512 52.8207 294.512 52.8715 294.51C53.6421 294.586 54.2444 295.23 54.2444 296.014C54.2444 296.848 53.561 297.524 52.7186 297.524C51.8761 297.524 51.1931 296.848 51.1931 296.014C51.1931 295.575 51.3824 295.182 51.6832 294.906C50.8147 294.731 50.0259 294.339 49.3764 293.791C48.9447 294.426 48.6926 295.191 48.6926 296.014C48.6926 298.215 50.4952 300 52.7186 300C54.942 300 56.7445 298.215 56.7445 296.014C56.7445 295.012 56.3711 294.096 55.7545 293.395C56.7421 292.551 57.3673 291.303 57.3673 289.909C57.3673 287.367 55.2859 285.306 52.7185 285.306C50.1513 285.306 48.0699 287.367 48.0699 289.909C48.0699 292.452 50.1513 294.512 52.7185 294.512ZM49.6841 293.395C50.4221 292.557 51.5074 292.027 52.7184 292.027C53.9294 292.027 55.0147 292.557 55.7526 293.395C55.02 294.021 54.088 294.425 53.0635 294.499C52.9977 294.504 52.9314 294.507 52.8649 294.509L52.8574 294.509C52.8115 294.505 52.7652 294.502 52.7184 294.502C52.6716 294.502 52.6252 294.505 52.5796 294.509C51.4737 294.477 50.4659 294.063 49.6841 293.395ZM57.5541 285.306C57.5541 285.847 57.1166 286.507 56.5727 286.525C56.1188 286.019 55.5654 285.602 54.9418 285.306H57.5541Z" fill="#8CAEC5"/>
<path d="M152.158 284.619H148.994C149.154 284.166 149.255 283.669 149.255 283.158C149.255 280.733 147.31 278.775 144.901 278.775C143.377 278.775 142.056 279.564 141.272 280.747L140.547 281.726L139.821 280.733C139.037 279.564 137.716 278.775 136.192 278.775C133.783 278.775 131.838 280.733 131.838 283.158C131.838 283.669 131.939 284.166 132.099 284.619H128.935C127.324 284.619 126.046 285.919 126.046 287.54L126.032 303.609C126.032 305.23 127.324 306.53 128.935 306.53H152.158C153.769 306.53 155.061 305.23 155.061 303.609V287.54C155.061 285.919 153.769 284.619 152.158 284.619ZM144.901 281.697C145.699 281.697 146.352 282.354 146.352 283.158C146.352 283.961 145.699 284.619 144.901 284.619C144.103 284.619 143.449 283.961 143.449 283.158C143.449 282.354 144.103 281.697 144.901 281.697ZM136.192 281.697C136.99 281.697 137.644 282.354 137.644 283.158C137.644 283.961 136.99 284.619 136.192 284.619C135.394 284.619 134.741 283.961 134.741 283.158C134.741 282.354 135.394 281.697 136.192 281.697ZM152.158 303.609H128.935V300.687H152.158V303.609ZM152.158 296.305H128.935V287.54H136.308L133.289 291.674L135.641 293.383L139.095 288.65L140.547 286.664L141.998 288.65L145.452 293.383L147.804 291.674L144.785 287.54H152.158V296.305Z" fill="#8CAEC5"/>
<path d="M235.272 281.161H218.693C215.03 281.161 212.061 284.101 212.061 287.728V302.504C212.061 303.41 212.803 304.145 213.719 304.145H240.246C241.161 304.145 241.903 303.41 241.903 302.504V287.728C241.903 284.101 238.934 281.161 235.272 281.161ZM217.035 301.683H214.548V294.295H217.035V301.683ZM217.035 291.832H214.548V287.728C214.548 286.049 215.574 284.606 217.035 283.971V291.832ZM234.443 301.683H219.522V294.295H223.666V296.757C223.666 297.211 224.037 297.578 224.495 297.578H229.469C229.927 297.578 230.298 297.211 230.298 296.757V294.295H234.443V301.683ZM226.153 294.295V292.653C226.153 292.199 226.524 291.832 226.982 291.832C227.44 291.832 227.811 292.199 227.811 292.653V294.295C227.811 294.748 227.44 295.116 226.982 295.116C226.524 295.116 226.153 294.748 226.153 294.295ZM234.443 291.832H230.298V290.19C230.298 289.737 229.927 289.369 229.469 289.369H224.495C224.037 289.369 223.666 289.737 223.666 290.19V291.832H219.522V283.623H234.443V291.832ZM239.417 301.683H236.93V294.295H239.417V301.683ZM239.417 291.832H236.93V283.971C238.391 284.606 239.417 286.049 239.417 287.728V291.832Z" fill="#8CAEC5"/>
<path fill-rule="evenodd" clip-rule="evenodd" d="M299.247 286.503C299.094 286.503 298.997 286.338 299.073 286.204L302.802 279.629C302.98 279.316 303.312 279.123 303.672 279.123H310.969L308.876 286.503H299.247ZM299.154 288.963C299.063 288.963 299.019 289.073 299.085 289.135L315.45 304.708C315.771 305.013 316.276 304.648 316.087 304.247L308.876 288.963H299.154ZM311.289 286.503L313.303 279.123H322.546L324.56 286.503H311.289ZM318.402 302.91C318.263 303.225 317.816 303.228 317.673 302.914L311.289 288.963H324.56L318.402 302.91ZM332.783 279.123C333.129 279.123 333.449 279.3 333.632 279.593L337.752 286.197C337.835 286.33 337.739 286.503 337.582 286.503H326.973L324.671 279.123H332.783ZM336.695 288.963C336.786 288.963 336.83 289.073 336.764 289.135L320.399 304.708C320.078 305.013 319.573 304.648 319.762 304.247L326.973 288.963H336.695Z" fill="#8CAEC5"/>
<ellipse cx="405.753" cy="292.058" rx="10.8108" ry="4.75802" fill="#8CAEC5"/>
<path d="M405.753 301.574C411.724 301.574 416.564 299.444 416.564 296.816V294.437C416.564 297.065 411.724 299.195 405.753 299.195C399.783 299.195 394.943 297.065 394.943 294.437V296.816C394.943 299.444 399.783 301.574 405.753 301.574Z" fill="#8CAEC5"/>
<path d="M405.753 306.332C411.724 306.332 416.564 304.202 416.564 301.574V299.195C416.564 301.823 411.724 303.953 405.753 303.953C399.783 303.953 394.943 301.823 394.943 299.195V301.574C394.943 304.202 399.783 306.332 405.753 306.332Z" fill="#8CAEC5"/>
<path fill-rule="evenodd" clip-rule="evenodd" d="M418.967 297.204C421.864 296.351 423.771 294.897 423.771 293.248V290.869C423.771 292.518 421.864 293.972 418.967 294.825V297.204Z" fill="#8CAEC5"/>
<path fill-rule="evenodd" clip-rule="evenodd" d="M417.012 288.144C420.976 287.439 423.772 285.729 423.772 283.732C423.772 281.104 418.931 278.974 412.961 278.974C406.99 278.974 402.15 281.104 402.15 283.732C402.15 284.21 402.31 284.671 402.608 285.106C403.622 284.984 404.677 284.921 405.753 284.921C408.994 284.921 412.044 285.495 414.373 286.52C415.339 286.945 416.254 287.479 417.012 288.144Z" fill="#8CAEC5"/>
<path fill-rule="evenodd" clip-rule="evenodd" d="M418.562 290.181C418.814 290.746 418.967 291.374 418.967 292.058V292.446C421.864 291.593 423.772 290.139 423.772 288.489V286.11C423.772 287.836 421.685 289.347 418.562 290.181Z" fill="#8CAEC5"/>
<ellipse cx="10.8108" cy="345.813" rx="10.8108" ry="4.75802" fill="#8CAEC5"/>
<path d="M10.8108 355.329C16.7815 355.329 21.6216 353.199 21.6216 350.571V348.192C21.6216 350.82 16.7815 352.95 10.8108 352.95C4.84017 352.95 0 350.82 0 348.192V350.571C0 353.199 4.84017 355.329 10.8108 355.329Z" fill="#8CAEC5"/>
<path d="M10.8108 360.087C16.7815 360.087 21.6216 357.957 21.6216 355.329V352.95C21.6216 355.578 16.7815 357.708 10.8108 357.708C4.84017 357.708 0 355.578 0 352.95V355.329C0 357.957 4.84017 360.087 10.8108 360.087Z" fill="#8CAEC5"/>
<path fill-rule="evenodd" clip-rule="evenodd" d="M24.0242 350.96C26.9214 350.106 28.8288 348.653 28.8288 347.003V344.624C28.8288 346.274 26.9214 347.727 24.0242 348.581V350.96Z" fill="#8CAEC5"/>
<path fill-rule="evenodd" clip-rule="evenodd" d="M22.0698 341.9C26.033 341.194 28.8289 339.484 28.8289 337.487C28.8289 334.859 23.9888 332.729 18.0181 332.729C12.0474 332.729 7.20728 334.859 7.20728 337.487C7.20728 337.965 7.3674 338.426 7.66532 338.862C8.67978 338.74 9.73469 338.677 10.8107 338.677C14.0517 338.677 17.1014 339.25 19.4308 340.275C20.3962 340.7 21.3112 341.235 22.0698 341.9Z" fill="#8CAEC5"/>
<path fill-rule="evenodd" clip-rule="evenodd" d="M23.6191 343.937C23.871 344.502 24.024 345.129 24.024 345.814V346.202C26.9213 345.349 28.8289 343.895 28.8289 342.245V339.866C28.8289 341.592 26.7423 343.102 23.6191 343.937Z" fill="#8CAEC5"/>
<path d="M111.955 338.374H108.791C108.951 337.921 109.052 337.424 109.052 336.913C109.052 334.488 107.107 332.531 104.698 332.531C103.174 332.531 101.853 333.32 101.069 334.503L100.343 335.482L99.6177 334.488C98.8339 333.32 97.5131 332.531 95.989 332.531C93.5796 332.531 91.6347 334.488 91.6347 336.913C91.6347 337.424 91.7363 337.921 91.8959 338.374H88.7318C87.1207 338.374 85.8434 339.674 85.8434 341.296L85.8289 357.364C85.8289 358.986 87.1207 360.286 88.7318 360.286H111.955C113.566 360.286 114.858 358.986 114.858 357.364V341.296C114.858 339.674 113.566 338.374 111.955 338.374ZM104.698 335.452C105.496 335.452 106.149 336.11 106.149 336.913C106.149 337.717 105.496 338.374 104.698 338.374C103.899 338.374 103.246 337.717 103.246 336.913C103.246 336.11 103.899 335.452 104.698 335.452ZM95.989 335.452C96.7873 335.452 97.4405 336.11 97.4405 336.913C97.4405 337.717 96.7873 338.374 95.989 338.374C95.1907 338.374 94.5376 337.717 94.5376 336.913C94.5376 336.11 95.1907 335.452 95.989 335.452ZM111.955 357.364H88.7318V354.443H111.955V357.364ZM111.955 350.06H88.7318V341.296H96.1051L93.0861 345.43L95.4375 347.139L98.8919 342.406L100.343 340.419L101.795 342.406L105.249 347.139L107.601 345.43L104.582 341.296H111.955V350.06Z" fill="#8CAEC5"/>
<path fill-rule="evenodd" clip-rule="evenodd" d="M173.86 336.496C172.754 336.496 171.858 337.383 171.858 338.478V354.338C171.858 355.433 172.754 356.321 173.86 356.321H201.888C202.994 356.321 203.89 355.433 203.89 354.338V338.478C203.89 337.383 202.994 336.496 201.888 336.496H173.86ZM173.86 342.443C175.518 342.443 176.863 341.112 176.863 339.469H180.867V342.161C179.014 343.24 177.864 344.744 177.864 346.408C177.864 348.072 179.014 349.576 180.867 350.656V353.347H176.863C176.863 351.705 175.518 350.373 173.86 350.373V342.443ZM201.888 350.373C200.229 350.373 198.885 351.705 198.885 353.347H194.881V350.656C196.734 349.576 197.884 348.072 197.884 346.408C197.884 344.744 196.734 343.24 194.881 342.161V339.469H198.885C198.885 341.112 200.229 342.443 201.888 342.443V350.373ZM187.576 348.268C187.628 348.268 187.679 348.267 187.729 348.265C188.5 348.341 189.102 348.985 189.102 349.769C189.102 350.603 188.419 351.28 187.577 351.28C186.734 351.28 186.051 350.603 186.051 349.769C186.051 349.331 186.24 348.937 186.541 348.661C185.673 348.486 184.884 348.095 184.234 347.546C183.803 348.181 183.551 348.946 183.551 349.769C183.551 351.971 185.353 353.756 187.577 353.756C189.8 353.756 191.602 351.971 191.602 349.769C191.602 348.767 191.229 347.851 190.612 347.151C191.6 346.307 192.225 345.058 192.225 343.665C192.225 341.122 190.144 339.061 187.576 339.061C185.009 339.061 182.928 341.122 182.928 343.665C182.928 346.207 185.009 348.268 187.576 348.268ZM184.542 347.151C185.28 346.312 186.365 345.782 187.576 345.782C188.787 345.782 189.873 346.312 190.61 347.151C189.878 347.777 188.946 348.18 187.921 348.254C187.856 348.259 187.789 348.263 187.723 348.265L187.715 348.265C187.669 348.26 187.623 348.258 187.576 348.258C187.529 348.258 187.483 348.26 187.437 348.265C186.332 348.233 185.324 347.818 184.542 347.151ZM192.412 339.061C192.412 339.603 191.975 340.262 191.431 340.281C190.977 339.774 190.423 339.357 189.8 339.061H192.412Z" fill="#8CAEC5"/>
<path d="M284.101 334.916H267.522C263.859 334.916 260.89 337.856 260.89 341.483V356.259C260.89 357.166 261.632 357.901 262.548 357.901H289.074C289.99 357.901 290.732 357.166 290.732 356.259V341.483C290.732 337.856 287.763 334.916 284.101 334.916ZM265.864 355.438H263.377V348.05H265.864V355.438ZM265.864 345.587H263.377V341.483C263.377 339.804 264.403 338.362 265.864 337.727V345.587ZM283.272 355.438H268.35V348.05H272.495V350.513C272.495 350.966 272.866 351.334 273.324 351.334H278.298C278.756 351.334 279.127 350.966 279.127 350.513V348.05H283.272V355.438ZM274.982 348.05V346.408C274.982 345.955 275.353 345.587 275.811 345.587C276.269 345.587 276.64 345.955 276.64 346.408V348.05C276.64 348.504 276.269 348.871 275.811 348.871C275.353 348.871 274.982 348.504 274.982 348.05ZM283.272 345.587H279.127V343.946C279.127 343.492 278.756 343.125 278.298 343.125H273.324C272.866 343.125 272.495 343.492 272.495 343.946V345.587H268.35V337.379H283.272V345.587ZM288.245 355.438H285.759V348.05H288.245V355.438ZM288.245 345.587H285.759V337.727C287.22 338.362 288.245 339.804 288.245 341.483V345.587Z" fill="#8CAEC5"/>
<path fill-rule="evenodd" clip-rule="evenodd" d="M348.076 340.258C347.923 340.258 347.826 340.093 347.902 339.96L351.631 333.385C351.809 333.071 352.141 332.878 352.501 332.878H359.798L357.705 340.258H348.076ZM347.983 342.718C347.892 342.718 347.848 342.829 347.914 342.891L364.279 358.463C364.6 358.768 365.105 358.403 364.916 358.003L357.705 342.718H347.983ZM360.118 340.258L362.132 332.878H371.375L373.389 340.258H360.118ZM367.231 356.665C367.092 356.98 366.645 356.983 366.502 356.67L360.118 342.718H373.389L367.231 356.665ZM381.612 332.878C381.957 332.878 382.278 333.056 382.461 333.349L386.581 339.952C386.664 340.086 386.568 340.258 386.411 340.258H375.802L373.5 332.878H381.612ZM385.524 342.718C385.615 342.718 385.659 342.829 385.593 342.891L369.228 358.463C368.907 358.768 368.402 358.403 368.591 358.003L375.802 342.718H385.524Z" fill="#8CAEC5"/>
<path d="M60.2107 388.671H43.6316C39.9692 388.671 37 391.612 37 395.238V410.014C37 410.921 37.7424 411.656 38.6579 411.656H65.1845C66.0999 411.656 66.8424 410.921 66.8424 410.014V395.238C66.8424 391.612 63.8732 388.671 60.2107 388.671ZM41.9737 409.193H39.4869V401.805H41.9737V409.193ZM41.9737 399.343H39.4869V395.238C39.4869 393.56 40.5127 392.117 41.9737 391.482V399.343ZM59.3818 409.193H44.4606V401.805H48.6054V404.268C48.6054 404.722 48.9763 405.089 49.4343 405.089H54.4081C54.8661 405.089 55.237 404.722 55.237 404.268V401.805H59.3818V409.193ZM51.0922 401.805V400.164C51.0922 399.71 51.4632 399.343 51.9212 399.343C52.3792 399.343 52.7501 399.71 52.7501 400.164V401.805C52.7501 402.259 52.3792 402.626 51.9212 402.626C51.4632 402.626 51.0922 402.259 51.0922 401.805ZM59.3818 399.343H55.237V397.701C55.237 397.248 54.8661 396.88 54.4081 396.88H49.4343C48.9763 396.88 48.6054 397.248 48.6054 397.701V399.343H44.4606V391.134H59.3818V399.343ZM64.3555 409.193H61.8687V401.805H64.3555V409.193ZM64.3555 399.343H61.8687V391.482C63.3297 392.117 64.3555 393.56 64.3555 395.238V399.343Z" fill="#8CAEC5"/>
<path fill-rule="evenodd" clip-rule="evenodd" d="M124.186 394.014C124.032 394.014 123.936 393.848 124.012 393.715L127.741 387.14C127.918 386.827 128.251 386.633 128.611 386.633H135.907L133.814 394.014H124.186ZM124.092 396.474C124.002 396.474 123.958 396.584 124.024 396.646L140.389 412.218C140.709 412.524 141.215 412.159 141.026 411.758L133.814 396.474H124.092ZM136.227 394.014L138.242 386.633H147.485L149.499 394.014H136.227ZM143.341 410.42C143.202 410.736 142.755 410.739 142.611 410.425L136.227 396.474H149.499L143.341 410.42ZM157.722 386.633C158.067 386.633 158.388 386.811 158.571 387.104L162.691 393.708C162.774 393.841 162.678 394.014 162.521 394.014H151.912L149.61 386.633H157.722ZM161.634 396.474C161.724 396.474 161.768 396.584 161.703 396.646L145.338 412.218C145.017 412.524 144.511 412.159 144.7 411.758L151.912 396.474H161.634Z" fill="#8CAEC5"/>
<ellipse cx="230.692" cy="399.569" rx="10.8108" ry="4.75802" fill="#8CAEC5"/>
<path d="M230.692 409.085C236.663 409.085 241.503 406.955 241.503 404.327V401.948C241.503 404.576 236.663 406.706 230.692 406.706C224.722 406.706 219.881 404.576 219.881 401.948V404.327C219.881 406.955 224.722 409.085 230.692 409.085Z" fill="#8CAEC5"/>
<path d="M230.692 413.843C236.663 413.843 241.503 411.712 241.503 409.085V406.706C241.503 409.333 236.663 411.464 230.692 411.464C224.722 411.464 219.881 409.333 219.881 406.706V409.085C219.881 411.712 224.722 413.843 230.692 413.843Z" fill="#8CAEC5"/>
<path fill-rule="evenodd" clip-rule="evenodd" d="M243.906 404.715C246.803 403.862 248.71 402.408 248.71 400.758V398.379C248.71 400.029 246.803 401.483 243.906 402.336V404.715Z" fill="#8CAEC5"/>
<path fill-rule="evenodd" clip-rule="evenodd" d="M241.951 395.655C245.914 394.949 248.71 393.24 248.71 391.242C248.71 388.615 243.87 386.484 237.899 386.484C231.929 386.484 227.089 388.615 227.089 391.242C227.089 391.72 227.249 392.182 227.547 392.617C228.561 392.495 229.616 392.432 230.692 392.432C233.933 392.432 236.983 393.005 239.312 394.031C240.278 394.455 241.193 394.99 241.951 395.655Z" fill="#8CAEC5"/>
<path fill-rule="evenodd" clip-rule="evenodd" d="M243.5 397.692C243.752 398.256 243.905 398.884 243.905 399.569V399.957C246.803 399.103 248.71 397.65 248.71 396V393.621C248.71 395.346 246.624 396.857 243.5 397.692Z" fill="#8CAEC5"/>
<path d="M331.836 392.129H328.672C328.832 391.676 328.933 391.18 328.933 390.669C328.933 388.244 326.989 386.286 324.579 386.286C323.055 386.286 321.734 387.075 320.95 388.258L320.225 389.237L319.499 388.244C318.715 387.075 317.394 386.286 315.87 386.286C313.461 386.286 311.516 388.244 311.516 390.669C311.516 391.18 311.618 391.676 311.777 392.129H308.613C307.002 392.129 305.725 393.429 305.725 395.051L305.71 411.12C305.71 412.741 307.002 414.041 308.613 414.041H331.836C333.447 414.041 334.739 412.741 334.739 411.12V395.051C334.739 393.429 333.447 392.129 331.836 392.129ZM324.579 389.208C325.377 389.208 326.031 389.865 326.031 390.669C326.031 391.472 325.377 392.129 324.579 392.129C323.781 392.129 323.128 391.472 323.128 390.669C323.128 389.865 323.781 389.208 324.579 389.208ZM315.87 389.208C316.669 389.208 317.322 389.865 317.322 390.669C317.322 391.472 316.669 392.129 315.87 392.129C315.072 392.129 314.419 391.472 314.419 390.669C314.419 389.865 315.072 389.208 315.87 389.208ZM331.836 411.12H308.613V408.198H331.836V411.12ZM331.836 403.816H308.613V395.051H315.986L312.967 399.185L315.319 400.894L318.773 396.161L320.225 394.174L321.676 396.161L325.131 400.894L327.482 399.185L324.463 395.051H331.836V403.816Z" fill="#8CAEC5"/>
<path fill-rule="evenodd" clip-rule="evenodd" d="M393.741 390.251C392.636 390.251 391.739 391.139 391.739 392.233V408.094C391.739 409.188 392.636 410.076 393.741 410.076H421.769C422.875 410.076 423.771 409.188 423.771 408.094V392.233C423.771 391.139 422.875 390.251 421.769 390.251H393.741ZM393.741 396.198C395.4 396.198 396.744 394.867 396.744 393.225H400.748V395.916C398.895 396.996 397.745 398.5 397.745 400.164C397.745 401.827 398.895 403.331 400.748 404.411V407.102H396.744C396.744 405.46 395.4 404.129 393.741 404.129V396.198ZM421.769 404.129C420.111 404.129 418.766 405.46 418.766 407.102H414.762V404.411C416.616 403.331 417.765 401.827 417.765 400.164C417.765 398.5 416.616 396.996 414.762 395.916V393.225H418.766C418.766 394.867 420.111 396.198 421.769 396.198V404.129ZM407.458 402.023C407.509 402.023 407.56 402.022 407.611 402.021C408.381 402.097 408.984 402.741 408.984 403.524C408.984 404.359 408.3 405.035 407.458 405.035C406.615 405.035 405.932 404.359 405.932 403.524C405.932 403.086 406.122 402.693 406.422 402.417C405.554 402.242 404.765 401.85 404.116 401.301C403.684 401.936 403.432 402.701 403.432 403.524C403.432 405.726 405.234 407.511 407.458 407.511C409.681 407.511 411.484 405.726 411.484 403.524C411.484 402.522 411.11 401.606 410.494 400.906C411.481 400.062 412.107 398.813 412.107 397.42C412.107 394.878 410.025 392.816 407.458 392.816C404.891 392.816 402.809 394.878 402.809 397.42C402.809 399.962 404.891 402.023 407.458 402.023ZM404.423 400.906C405.161 400.068 406.247 399.538 407.458 399.538C408.669 399.538 409.754 400.068 410.492 400.906C409.759 401.532 408.827 401.935 407.803 402.01C407.737 402.015 407.671 402.018 407.604 402.02L407.597 402.02C407.551 402.016 407.504 402.013 407.458 402.013C407.411 402.013 407.364 402.016 407.319 402.02C406.213 401.988 405.205 401.573 404.423 400.906ZM412.293 392.816C412.293 393.358 411.856 394.018 411.312 394.036C410.858 393.529 410.305 393.112 409.681 392.816H412.293Z" fill="#8CAEC5"/>
</g>
</g>
<g clip-path="url(#clip1)">
<g opacity="0.4">
<path d="M466.955 15.8432H463.791C463.951 15.3903 464.052 14.8937 464.052 14.3824C464.052 11.9575 462.107 10 459.698 10C458.174 10 456.853 10.7888 456.069 11.9721L455.343 12.9508L454.618 11.9575C453.834 10.7888 452.513 10 450.989 10C448.58 10 446.635 11.9575 446.635 14.3824C446.635 14.8937 446.736 15.3903 446.896 15.8432H443.732C442.121 15.8432 440.843 17.1433 440.843 18.7648L440.829 34.8335C440.829 36.455 442.121 37.7551 443.732 37.7551H466.955C468.566 37.7551 469.858 36.455 469.858 34.8335V18.7648C469.858 17.1433 468.566 15.8432 466.955 15.8432ZM459.698 12.9216C460.496 12.9216 461.149 13.5789 461.149 14.3824C461.149 15.1858 460.496 15.8432 459.698 15.8432C458.899 15.8432 458.246 15.1858 458.246 14.3824C458.246 13.5789 458.899 12.9216 459.698 12.9216ZM450.989 12.9216C451.787 12.9216 452.44 13.5789 452.44 14.3824C452.44 15.1858 451.787 15.8432 450.989 15.8432C450.191 15.8432 449.538 15.1858 449.538 14.3824C449.538 13.5789 450.191 12.9216 450.989 12.9216ZM466.955 34.8335H443.732V31.9119H466.955V34.8335ZM466.955 27.5295H443.732V18.7648H451.105L448.086 22.8988L450.437 24.6079L453.892 19.875L455.343 17.8883L456.795 19.875L460.249 24.6079L462.601 22.8988L459.582 18.7648H466.955V27.5295Z" fill="#8CAEC5"/>
<path fill-rule="evenodd" clip-rule="evenodd" d="M528.86 13.9648C527.754 13.9648 526.858 14.8524 526.858 15.9474V31.8074C526.858 32.9023 527.754 33.7899 528.86 33.7899H556.888C557.994 33.7899 558.89 32.9023 558.89 31.8074V15.9474C558.89 14.8524 557.994 13.9648 556.888 13.9648H528.86ZM528.86 19.9124C530.518 19.9124 531.863 18.581 531.863 16.9386H535.867V19.63C534.014 20.7094 532.864 22.2136 532.864 23.8774C532.864 25.5411 534.014 27.0453 535.867 28.1248V30.8162H531.863C531.863 29.1738 530.518 27.8424 528.86 27.8424V19.9124ZM556.888 27.8424C555.229 27.8424 553.885 29.1738 553.885 30.8162H549.881V28.1248C551.734 27.0453 552.884 25.5411 552.884 23.8774C552.884 22.2136 551.734 20.7094 549.881 19.63V16.9386H553.885C553.885 18.581 555.229 19.9124 556.888 19.9124V27.8424ZM542.576 25.7369C542.628 25.7369 542.679 25.7361 542.729 25.7345C543.5 25.8104 544.102 26.4546 544.102 27.2382C544.102 28.0725 543.419 28.749 542.577 28.749C541.734 28.749 541.051 28.0725 541.051 27.2382C541.051 26.8001 541.24 26.4067 541.541 26.1306C540.673 25.9554 539.884 25.564 539.234 25.0153C538.803 25.6504 538.551 26.4152 538.551 27.2382C538.551 29.4398 540.353 31.2247 542.577 31.2247C544.8 31.2247 546.602 29.4398 546.602 27.2382C546.602 26.2361 546.229 25.3203 545.612 24.6199C546.6 23.7759 547.225 22.5272 547.225 21.1339C547.225 18.5916 545.144 16.5303 542.576 16.5303C540.009 16.5303 537.928 18.5916 537.928 21.1339C537.928 23.6763 540.009 25.7369 542.576 25.7369ZM539.542 24.6197C540.28 23.7817 541.365 23.2517 542.576 23.2517C543.787 23.2517 544.873 23.7817 545.61 24.6197C544.878 25.2458 543.946 25.6492 542.921 25.7236C542.856 25.7284 542.789 25.7318 542.723 25.7339L542.715 25.7341C542.669 25.7296 542.623 25.727 542.576 25.727C542.529 25.727 542.483 25.7296 542.437 25.7341C541.332 25.702 540.324 25.2873 539.542 24.6197ZM547.412 16.5303C547.412 17.072 546.975 17.7314 546.431 17.7498C545.977 17.2433 545.423 16.8263 544.8 16.5303H547.412Z" fill="#8CAEC5"/>
<path d="M639.101 12.3853H622.522C618.859 12.3853 615.89 15.3255 615.89 18.9523V33.7282C615.89 34.6347 616.632 35.3699 617.548 35.3699H644.074C644.99 35.3699 645.732 34.6347 645.732 33.7282V18.9523C645.732 15.3255 642.763 12.3853 639.101 12.3853ZM620.864 32.9073H618.377V25.5194H620.864V32.9073ZM620.864 23.0567H618.377V18.9523C618.377 17.2736 619.403 15.8309 620.864 15.1957V23.0567ZM638.272 32.9073H623.35V25.5194H627.495V27.982C627.495 28.4355 627.866 28.8029 628.324 28.8029H633.298C633.756 28.8029 634.127 28.4355 634.127 27.982V25.5194H638.272V32.9073ZM629.982 25.5194V23.8776C629.982 23.4241 630.353 23.0567 630.811 23.0567C631.269 23.0567 631.64 23.4241 631.64 23.8776V25.5194C631.64 25.9729 631.269 26.3402 630.811 26.3402C630.353 26.3402 629.982 25.9729 629.982 25.5194ZM638.272 23.0567H634.127V21.415C634.127 20.9614 633.756 20.5941 633.298 20.5941H628.324C627.866 20.5941 627.495 20.9614 627.495 21.415V23.0567H623.35V14.8479H638.272V23.0567ZM643.245 32.9073H640.759V25.5194H643.245V32.9073ZM643.245 23.0567H640.759V15.1957C642.22 15.8309 643.245 17.2736 643.245 18.9523V23.0567Z" fill="#8CAEC5"/>
<path fill-rule="evenodd" clip-rule="evenodd" d="M703.076 17.7275C702.923 17.7275 702.826 17.5621 702.902 17.4288L706.631 10.8538C706.809 10.5407 707.141 10.3472 707.501 10.3472H714.798L712.705 17.7275H703.076ZM702.983 20.1877C702.892 20.1877 702.848 20.2979 702.914 20.3601L719.279 35.9323C719.6 36.2377 720.105 35.8724 719.916 35.4719L712.705 20.1877H702.983ZM715.118 17.7275L717.132 10.3472H726.375L728.389 17.7275H715.118ZM722.231 34.1341C722.092 34.4497 721.645 34.4527 721.502 34.139L715.118 20.1875H728.389L722.231 34.1341ZM736.612 10.3472C736.957 10.3472 737.278 10.5251 737.461 10.8179L741.581 17.4216C741.664 17.5548 741.568 17.7275 741.411 17.7275H730.802L728.5 10.3472H736.612ZM740.524 20.1877C740.615 20.1877 740.659 20.2979 740.593 20.3601L724.228 35.9323C723.907 36.2377 723.402 35.8724 723.591 35.4719L730.802 20.1877H740.524Z" fill="#8CAEC5"/>
<path d="M503.955 177.109H500.791C500.951 176.656 501.052 176.159 501.052 175.648C501.052 173.223 499.107 171.266 496.698 171.266C495.174 171.266 493.853 172.054 493.069 173.238L492.343 174.216L491.618 173.223C490.834 172.054 489.513 171.266 487.989 171.266C485.58 171.266 483.635 173.223 483.635 175.648C483.635 176.159 483.736 176.656 483.896 177.109H480.732C479.121 177.109 477.843 178.409 477.843 180.03L477.829 196.099C477.829 197.721 479.121 199.021 480.732 199.021H503.955C505.566 199.021 506.858 197.721 506.858 196.099V180.03C506.858 178.409 505.566 177.109 503.955 177.109ZM496.698 174.187C497.496 174.187 498.149 174.845 498.149 175.648C498.149 176.451 497.496 177.109 496.698 177.109C495.899 177.109 495.246 176.451 495.246 175.648C495.246 174.845 495.899 174.187 496.698 174.187ZM487.989 174.187C488.787 174.187 489.44 174.845 489.44 175.648C489.44 176.451 488.787 177.109 487.989 177.109C487.191 177.109 486.538 176.451 486.538 175.648C486.538 174.845 487.191 174.187 487.989 174.187ZM503.955 196.099H480.732V193.178H503.955V196.099ZM503.955 188.795H480.732V180.03H488.105L485.086 184.164L487.437 185.874L490.892 181.141L492.343 179.154L493.795 181.141L497.249 185.874L499.601 184.164L496.582 180.03H503.955V188.795Z" fill="#8CAEC5"/>
<path fill-rule="evenodd" clip-rule="evenodd" d="M565.86 175.23C564.754 175.23 563.858 176.118 563.858 177.213V193.073C563.858 194.168 564.754 195.056 565.86 195.056H593.888C594.994 195.056 595.89 194.168 595.89 193.073V177.213C595.89 176.118 594.994 175.23 593.888 175.23H565.86ZM565.86 181.178C567.518 181.178 568.863 179.847 568.863 178.204H572.867V180.896C571.014 181.975 569.864 183.479 569.864 185.143C569.864 186.807 571.014 188.311 572.867 189.39V192.082H568.863C568.863 190.439 567.518 189.108 565.86 189.108V181.178ZM593.888 189.108C592.229 189.108 590.885 190.439 590.885 192.082H586.881V189.39C588.734 188.311 589.884 186.807 589.884 185.143C589.884 183.479 588.734 181.975 586.881 180.896V178.204H590.885C590.885 179.847 592.229 181.178 593.888 181.178V189.108ZM579.576 187.003C579.628 187.003 579.679 187.002 579.729 187C580.5 187.076 581.102 187.72 581.102 188.504C581.102 189.338 580.419 190.015 579.577 190.015C578.734 190.015 578.051 189.338 578.051 188.504C578.051 188.066 578.24 187.672 578.541 187.396C577.673 187.221 576.884 186.83 576.234 186.281C575.803 186.916 575.551 187.681 575.551 188.504C575.551 190.705 577.353 192.49 579.577 192.49C581.8 192.49 583.602 190.705 583.602 188.504C583.602 187.502 583.229 186.586 582.612 185.886C583.6 185.041 584.225 183.793 584.225 182.399C584.225 179.857 582.144 177.796 579.576 177.796C577.009 177.796 574.928 179.857 574.928 182.399C574.928 184.942 577.009 187.003 579.576 187.003ZM576.542 185.885C577.28 185.047 578.365 184.517 579.576 184.517C580.787 184.517 581.873 185.047 582.61 185.885C581.878 186.511 580.946 186.915 579.921 186.989C579.856 186.994 579.789 186.997 579.723 186.999L579.715 187C579.669 186.995 579.623 186.993 579.576 186.993C579.529 186.993 579.483 186.995 579.437 187C578.332 186.968 577.324 186.553 576.542 185.885ZM584.412 177.796C584.412 178.338 583.975 178.997 583.431 179.015C582.977 178.509 582.423 178.092 581.8 177.796H584.412Z" fill="#8CAEC5"/>
<path d="M676.101 173.651H659.522C655.859 173.651 652.89 176.591 652.89 180.218V194.994C652.89 195.9 653.632 196.636 654.548 196.636H681.074C681.99 196.636 682.732 195.9 682.732 194.994V180.218C682.732 176.591 679.763 173.651 676.101 173.651ZM657.864 194.173H655.377V186.785H657.864V194.173ZM657.864 184.322H655.377V180.218C655.377 178.539 656.403 177.097 657.864 176.461V184.322ZM675.272 194.173H660.35V186.785H664.495V189.248C664.495 189.701 664.866 190.069 665.324 190.069H670.298C670.756 190.069 671.127 189.701 671.127 189.248V186.785H675.272V194.173ZM666.982 186.785V185.143C666.982 184.69 667.353 184.322 667.811 184.322C668.269 184.322 668.64 184.69 668.64 185.143V186.785C668.64 187.239 668.269 187.606 667.811 187.606C667.353 187.606 666.982 187.239 666.982 186.785ZM675.272 184.322H671.127V182.681C671.127 182.227 670.756 181.86 670.298 181.86H665.324C664.866 181.86 664.495 182.227 664.495 182.681V184.322H660.35V176.114H675.272V184.322ZM680.245 194.173H677.759V186.785H680.245V194.173ZM680.245 184.322H677.759V176.461C679.22 177.097 680.245 178.539 680.245 180.218V184.322Z" fill="#8CAEC5"/>
<path fill-rule="evenodd" clip-rule="evenodd" d="M479.186 71.4824C479.032 71.4824 478.936 71.317 479.012 71.1837L482.741 64.6087C482.918 64.2956 483.251 64.1021 483.611 64.1021H490.907L488.814 71.4824H479.186ZM479.092 73.9425C479.002 73.9425 478.958 74.0527 479.024 74.115L495.389 89.6872C495.709 89.9925 496.215 89.6273 496.026 89.2267L488.814 73.9425H479.092ZM491.227 71.4824L493.242 64.1021H502.485L504.499 71.4824H491.227ZM498.341 87.889C498.202 88.2046 497.755 88.2076 497.611 87.8939L491.227 73.9424H504.499L498.341 87.889ZM512.722 64.1021C513.067 64.1021 513.388 64.28 513.571 64.5727L517.691 71.1765C517.774 71.3097 517.678 71.4824 517.521 71.4824H506.912L504.61 64.1021H512.722ZM516.634 73.9425C516.724 73.9425 516.768 74.0527 516.703 74.115L500.338 89.6872C500.017 89.9925 499.511 89.6273 499.7 89.2267L506.912 73.9425H516.634Z" fill="#8CAEC5"/>
<ellipse cx="585.692" cy="77.0373" rx="10.8108" ry="4.75802" fill="#8CAEC5"/>
<path d="M585.692 86.5535C591.663 86.5535 596.503 84.4233 596.503 81.7955V79.4165C596.503 82.0443 591.663 84.1745 585.692 84.1745C579.722 84.1745 574.881 82.0443 574.881 79.4165V81.7955C574.881 84.4233 579.722 86.5535 585.692 86.5535Z" fill="#8CAEC5"/>
<path d="M585.692 91.3113C591.663 91.3113 596.503 89.1811 596.503 86.5533V84.1743C596.503 86.8021 591.663 88.9323 585.692 88.9323C579.722 88.9323 574.881 86.8021 574.881 84.1743V86.5533C574.881 89.1811 579.722 91.3113 585.692 91.3113Z" fill="#8CAEC5"/>
<path fill-rule="evenodd" clip-rule="evenodd" d="M598.906 82.1839C601.803 81.3304 603.71 79.8768 603.71 78.2272V75.8481C603.71 77.4978 601.803 78.9513 598.906 79.8049V82.1839Z" fill="#8CAEC5"/>
<path fill-rule="evenodd" clip-rule="evenodd" d="M596.951 73.1237C600.914 72.4181 603.71 70.7083 603.71 68.7111C603.71 66.0834 598.87 63.9531 592.899 63.9531C586.929 63.9531 582.089 66.0834 582.089 68.7111C582.089 69.1891 582.249 69.6506 582.547 70.0858C583.561 69.9638 584.616 69.9006 585.692 69.9006C588.933 69.9006 591.983 70.4741 594.312 71.4993C595.278 71.9241 596.193 72.4589 596.951 73.1237Z" fill="#8CAEC5"/>
<path fill-rule="evenodd" clip-rule="evenodd" d="M598.5 75.1603C598.752 75.7251 598.905 76.353 598.905 77.0374V77.4257C601.803 76.5721 603.71 75.1185 603.71 73.4689V71.0898C603.71 72.8152 601.624 74.3261 598.5 75.1603Z" fill="#8CAEC5"/>
<path d="M686.836 69.5981H683.672C683.832 69.1452 683.933 68.6485 683.933 68.1373C683.933 65.7123 681.989 63.7549 679.579 63.7549C678.055 63.7549 676.734 64.5437 675.95 65.727L675.225 66.7057L674.499 65.7123C673.715 64.5437 672.394 63.7549 670.87 63.7549C668.461 63.7549 666.516 65.7123 666.516 68.1373C666.516 68.6485 666.618 69.1452 666.777 69.5981H663.613C662.002 69.5981 660.725 70.8982 660.725 72.5197L660.71 88.5884C660.71 90.2099 662.002 91.51 663.613 91.51H686.836C688.447 91.51 689.739 90.2099 689.739 88.5884V72.5197C689.739 70.8982 688.447 69.5981 686.836 69.5981ZM679.579 66.6765C680.377 66.6765 681.031 67.3338 681.031 68.1373C681.031 68.9407 680.377 69.5981 679.579 69.5981C678.781 69.5981 678.128 68.9407 678.128 68.1373C678.128 67.3338 678.781 66.6765 679.579 66.6765ZM670.87 66.6765C671.669 66.6765 672.322 67.3338 672.322 68.1373C672.322 68.9407 671.669 69.5981 670.87 69.5981C670.072 69.5981 669.419 68.9407 669.419 68.1373C669.419 67.3338 670.072 66.6765 670.87 66.6765ZM686.836 88.5884H663.613V85.6668H686.836V88.5884ZM686.836 81.2844H663.613V72.5197H670.986L667.967 76.6537L670.319 78.3628L673.773 73.6299L675.225 71.6432L676.676 73.6299L680.131 78.3628L682.482 76.6537L679.463 72.5197H686.836V81.2844Z" fill="#8CAEC5"/>
<path fill-rule="evenodd" clip-rule="evenodd" d="M442.186 232.748C442.032 232.748 441.936 232.583 442.012 232.449L445.741 225.874C445.918 225.561 446.251 225.368 446.611 225.368H453.907L451.814 232.748H442.186ZM442.092 235.208C442.002 235.208 441.958 235.318 442.024 235.381L458.389 250.953C458.709 251.258 459.215 250.893 459.026 250.492L451.814 235.208H442.092ZM454.227 232.748L456.242 225.368H465.485L467.499 232.748H454.227ZM461.341 249.155C461.202 249.47 460.755 249.473 460.611 249.159L454.227 235.208H467.499L461.341 249.155ZM475.722 225.368C476.067 225.368 476.388 225.546 476.571 225.838L480.691 232.442C480.774 232.575 480.678 232.748 480.521 232.748H469.912L467.61 225.368H475.722ZM479.634 235.208C479.724 235.208 479.768 235.318 479.703 235.381L463.338 250.953C463.017 251.258 462.511 250.893 462.7 250.492L469.912 235.208H479.634Z" fill="#8CAEC5"/>
<ellipse cx="548.692" cy="238.303" rx="10.8108" ry="4.75802" fill="#8CAEC5"/>
<path d="M548.692 247.819C554.663 247.819 559.503 245.689 559.503 243.061V240.682C559.503 243.31 554.663 245.44 548.692 245.44C542.722 245.44 537.881 243.31 537.881 240.682V243.061C537.881 245.689 542.722 247.819 548.692 247.819Z" fill="#8CAEC5"/>
<path d="M548.692 252.577C554.663 252.577 559.503 250.447 559.503 247.819V245.44C559.503 248.068 554.663 250.198 548.692 250.198C542.722 250.198 537.881 248.068 537.881 245.44V247.819C537.881 250.447 542.722 252.577 548.692 252.577Z" fill="#8CAEC5"/>
<path fill-rule="evenodd" clip-rule="evenodd" d="M561.906 243.45C564.803 242.596 566.71 241.142 566.71 239.493V237.114C566.71 238.763 564.803 240.217 561.906 241.071V243.45Z" fill="#8CAEC5"/>
<path fill-rule="evenodd" clip-rule="evenodd" d="M559.951 234.389C563.914 233.684 566.71 231.974 566.71 229.977C566.71 227.349 561.87 225.219 555.899 225.219C549.929 225.219 545.089 227.349 545.089 229.977C545.089 230.455 545.249 230.916 545.547 231.351C546.561 231.229 547.616 231.166 548.692 231.166C551.933 231.166 554.983 231.74 557.312 232.765C558.278 233.19 559.193 233.725 559.951 234.389Z" fill="#8CAEC5"/>
<path fill-rule="evenodd" clip-rule="evenodd" d="M561.5 236.426C561.752 236.991 561.905 237.619 561.905 238.303V238.691C564.803 237.838 566.71 236.384 566.71 234.734V232.355C566.71 234.081 564.624 235.592 561.5 236.426Z" fill="#8CAEC5"/>
<path d="M649.836 230.864H646.672C646.832 230.411 646.933 229.914 646.933 229.403C646.933 226.978 644.989 225.021 642.579 225.021C641.055 225.021 639.734 225.809 638.95 226.993L638.225 227.971L637.499 226.978C636.715 225.809 635.394 225.021 633.87 225.021C631.461 225.021 629.516 226.978 629.516 229.403C629.516 229.914 629.618 230.411 629.777 230.864H626.613C625.002 230.864 623.725 232.164 623.725 233.785L623.71 249.854C623.71 251.476 625.002 252.776 626.613 252.776H649.836C651.447 252.776 652.739 251.476 652.739 249.854V233.785C652.739 232.164 651.447 230.864 649.836 230.864ZM642.579 227.942C643.377 227.942 644.031 228.599 644.031 229.403C644.031 230.206 643.377 230.864 642.579 230.864C641.781 230.864 641.128 230.206 641.128 229.403C641.128 228.599 641.781 227.942 642.579 227.942ZM633.87 227.942C634.669 227.942 635.322 228.599 635.322 229.403C635.322 230.206 634.669 230.864 633.87 230.864C633.072 230.864 632.419 230.206 632.419 229.403C632.419 228.599 633.072 227.942 633.87 227.942ZM649.836 249.854H626.613V246.932H649.836V249.854ZM649.836 242.55H626.613V233.785H633.986L630.967 237.919L633.319 239.628L636.773 234.895L638.225 232.909L639.676 234.895L643.131 239.628L645.482 237.919L642.463 233.785H649.836V242.55Z" fill="#8CAEC5"/>
<path d="M470.158 123.353H466.994C467.154 122.901 467.255 122.404 467.255 121.893C467.255 119.468 465.31 117.51 462.901 117.51C461.377 117.51 460.056 118.299 459.272 119.482L458.547 120.461L457.821 119.468C457.037 118.299 455.716 117.51 454.192 117.51C451.783 117.51 449.838 119.468 449.838 121.893C449.838 122.404 449.939 122.901 450.099 123.353H446.935C445.324 123.353 444.046 124.654 444.046 126.275L444.032 142.344C444.032 143.965 445.324 145.265 446.935 145.265H470.158C471.769 145.265 473.061 143.965 473.061 142.344V126.275C473.061 124.654 471.769 123.353 470.158 123.353ZM462.901 120.432C463.699 120.432 464.352 121.089 464.352 121.893C464.352 122.696 463.699 123.353 462.901 123.353C462.103 123.353 461.449 122.696 461.449 121.893C461.449 121.089 462.103 120.432 462.901 120.432ZM454.192 120.432C454.99 120.432 455.644 121.089 455.644 121.893C455.644 122.696 454.99 123.353 454.192 123.353C453.394 123.353 452.741 122.696 452.741 121.893C452.741 121.089 453.394 120.432 454.192 120.432ZM470.158 142.344H446.935V139.422H470.158V142.344ZM470.158 135.04H446.935V126.275H454.308L451.289 130.409L453.641 132.118L457.095 127.385L458.547 125.399L459.998 127.385L463.452 132.118L465.804 130.409L462.785 126.275H470.158V135.04Z" fill="#8CAEC5"/>
<path d="M553.272 119.896H536.693C533.03 119.896 530.061 122.836 530.061 126.463V141.238C530.061 142.145 530.803 142.88 531.719 142.88H558.246C559.161 142.88 559.903 142.145 559.903 141.238V126.463C559.903 122.836 556.934 119.896 553.272 119.896ZM535.035 140.418H532.548V133.03H535.035V140.418ZM535.035 130.567H532.548V126.463C532.548 124.784 533.574 123.341 535.035 122.706V130.567ZM552.443 140.418H537.522V133.03H541.666V135.492C541.666 135.946 542.037 136.313 542.495 136.313H547.469C547.927 136.313 548.298 135.946 548.298 135.492V133.03H552.443V140.418ZM544.153 133.03V131.388C544.153 130.934 544.524 130.567 544.982 130.567C545.44 130.567 545.811 130.934 545.811 131.388V133.03C545.811 133.483 545.44 133.85 544.982 133.85C544.524 133.85 544.153 133.483 544.153 133.03ZM552.443 130.567H548.298V128.925C548.298 128.472 547.927 128.104 547.469 128.104H542.495C542.037 128.104 541.666 128.472 541.666 128.925V130.567H537.522V122.358H552.443V130.567ZM557.417 140.418H554.93V133.03H557.417V140.418ZM557.417 130.567H554.93V122.706C556.391 123.341 557.417 124.784 557.417 126.463V130.567Z" fill="#8CAEC5"/>
<path fill-rule="evenodd" clip-rule="evenodd" d="M617.247 125.238C617.094 125.238 616.997 125.072 617.073 124.939L620.802 118.364C620.98 118.051 621.312 117.857 621.672 117.857H628.969L626.876 125.238H617.247ZM617.154 127.698C617.063 127.698 617.019 127.808 617.085 127.87L633.45 143.443C633.771 143.748 634.276 143.383 634.087 142.982L626.876 127.698H617.154ZM629.289 125.238L631.303 117.857H640.546L642.56 125.238H629.289ZM636.402 141.644C636.263 141.96 635.816 141.963 635.673 141.649L629.289 127.698H642.56L636.402 141.644ZM650.783 117.857C651.129 117.857 651.449 118.035 651.632 118.328L655.752 124.932C655.835 125.065 655.739 125.238 655.582 125.238H644.973L642.671 117.857H650.783ZM654.695 127.698C654.786 127.698 654.83 127.808 654.764 127.87L638.399 143.443C638.078 143.748 637.573 143.383 637.762 142.982L644.973 127.698H654.695Z" fill="#8CAEC5"/>
<path fill-rule="evenodd" clip-rule="evenodd" d="M394.002 282.74C392.896 282.74 392 283.628 392 284.723V300.583C392 301.678 392.896 302.565 394.002 302.565H422.03C423.136 302.565 424.032 301.678 424.032 300.583V284.723C424.032 283.628 423.136 282.74 422.03 282.74H394.002ZM394.002 288.688C395.661 288.688 397.005 287.356 397.005 285.714H401.009V288.405C399.156 289.485 398.006 290.989 398.006 292.653C398.006 294.317 399.156 295.821 401.009 296.9V299.592H397.005C397.005 297.949 395.661 296.618 394.002 296.618V288.688ZM422.03 296.618C420.372 296.618 419.027 297.949 419.027 299.592H415.023V296.9C416.876 295.821 418.026 294.317 418.026 292.653C418.026 290.989 416.876 289.485 415.023 288.405V285.714H419.027C419.027 287.356 420.372 288.688 422.03 288.688V296.618ZM407.719 294.512C407.77 294.512 407.821 294.512 407.871 294.51C408.642 294.586 409.244 295.23 409.244 296.014C409.244 296.848 408.561 297.524 407.719 297.524C406.876 297.524 406.193 296.848 406.193 296.014C406.193 295.575 406.382 295.182 406.683 294.906C405.815 294.731 405.026 294.339 404.376 293.791C403.945 294.426 403.693 295.191 403.693 296.014C403.693 298.215 405.495 300 407.719 300C409.942 300 411.745 298.215 411.745 296.014C411.745 295.012 411.371 294.096 410.754 293.395C411.742 292.551 412.367 291.303 412.367 289.909C412.367 287.367 410.286 285.306 407.719 285.306C405.151 285.306 403.07 287.367 403.07 289.909C403.07 292.452 405.151 294.512 407.719 294.512ZM404.684 293.395C405.422 292.557 406.507 292.027 407.718 292.027C408.929 292.027 410.015 292.557 410.753 293.395C410.02 294.021 409.088 294.425 408.064 294.499C407.998 294.504 407.931 294.507 407.865 294.509L407.857 294.509C407.811 294.505 407.765 294.502 407.718 294.502C407.672 294.502 407.625 294.505 407.58 294.509C406.474 294.477 405.466 294.063 404.684 293.395ZM412.554 285.306C412.554 285.847 412.117 286.507 411.573 286.525C411.119 286.019 410.565 285.602 409.942 285.306H412.554Z" fill="#8CAEC5"/>
<path d="M507.158 284.619H503.994C504.154 284.166 504.255 283.669 504.255 283.158C504.255 280.733 502.31 278.775 499.901 278.775C498.377 278.775 497.056 279.564 496.272 280.747L495.547 281.726L494.821 280.733C494.037 279.564 492.716 278.775 491.192 278.775C488.783 278.775 486.838 280.733 486.838 283.158C486.838 283.669 486.939 284.166 487.099 284.619H483.935C482.324 284.619 481.046 285.919 481.046 287.54L481.032 303.609C481.032 305.23 482.324 306.53 483.935 306.53H507.158C508.769 306.53 510.061 305.23 510.061 303.609V287.54C510.061 285.919 508.769 284.619 507.158 284.619ZM499.901 281.697C500.699 281.697 501.352 282.354 501.352 283.158C501.352 283.961 500.699 284.619 499.901 284.619C499.103 284.619 498.449 283.961 498.449 283.158C498.449 282.354 499.103 281.697 499.901 281.697ZM491.192 281.697C491.99 281.697 492.644 282.354 492.644 283.158C492.644 283.961 491.99 284.619 491.192 284.619C490.394 284.619 489.741 283.961 489.741 283.158C489.741 282.354 490.394 281.697 491.192 281.697ZM507.158 303.609H483.935V300.687H507.158V303.609ZM507.158 296.305H483.935V287.54H491.308L488.289 291.674L490.641 293.383L494.095 288.65L495.547 286.664L496.998 288.65L500.452 293.383L502.804 291.674L499.785 287.54H507.158V296.305Z" fill="#8CAEC5"/>
<path d="M590.272 281.161H573.693C570.03 281.161 567.061 284.101 567.061 287.728V302.504C567.061 303.41 567.803 304.145 568.719 304.145H595.246C596.161 304.145 596.903 303.41 596.903 302.504V287.728C596.903 284.101 593.934 281.161 590.272 281.161ZM572.035 301.683H569.548V294.295H572.035V301.683ZM572.035 291.832H569.548V287.728C569.548 286.049 570.574 284.606 572.035 283.971V291.832ZM589.443 301.683H574.522V294.295H578.666V296.757C578.666 297.211 579.037 297.578 579.495 297.578H584.469C584.927 297.578 585.298 297.211 585.298 296.757V294.295H589.443V301.683ZM581.153 294.295V292.653C581.153 292.199 581.524 291.832 581.982 291.832C582.44 291.832 582.811 292.199 582.811 292.653V294.295C582.811 294.748 582.44 295.116 581.982 295.116C581.524 295.116 581.153 294.748 581.153 294.295ZM589.443 291.832H585.298V290.19C585.298 289.737 584.927 289.369 584.469 289.369H579.495C579.037 289.369 578.666 289.737 578.666 290.19V291.832H574.522V283.623H589.443V291.832ZM594.417 301.683H591.93V294.295H594.417V301.683ZM594.417 291.832H591.93V283.971C593.391 284.606 594.417 286.049 594.417 287.728V291.832Z" fill="#8CAEC5"/>
<path fill-rule="evenodd" clip-rule="evenodd" d="M654.247 286.503C654.094 286.503 653.997 286.338 654.073 286.204L657.802 279.629C657.98 279.316 658.312 279.123 658.672 279.123H665.969L663.876 286.503H654.247ZM654.154 288.963C654.063 288.963 654.019 289.073 654.085 289.135L670.45 304.708C670.771 305.013 671.276 304.648 671.087 304.247L663.876 288.963H654.154ZM666.289 286.503L668.303 279.123H677.546L679.56 286.503H666.289ZM673.402 302.91C673.263 303.225 672.816 303.228 672.673 302.914L666.289 288.963H679.56L673.402 302.91ZM687.783 279.123C688.129 279.123 688.449 279.3 688.632 279.593L692.752 286.197C692.835 286.33 692.739 286.503 692.582 286.503H681.973L679.671 279.123H687.783ZM691.695 288.963C691.786 288.963 691.83 289.073 691.764 289.135L675.399 304.708C675.078 305.013 674.573 304.648 674.762 304.247L681.973 288.963H691.695Z" fill="#8CAEC5"/>
<path d="M466.955 338.374H463.791C463.951 337.921 464.052 337.424 464.052 336.913C464.052 334.488 462.107 332.531 459.698 332.531C458.174 332.531 456.853 333.32 456.069 334.503L455.343 335.482L454.618 334.488C453.834 333.32 452.513 332.531 450.989 332.531C448.58 332.531 446.635 334.488 446.635 336.913C446.635 337.424 446.736 337.921 446.896 338.374H443.732C442.121 338.374 440.843 339.674 440.843 341.296L440.829 357.364C440.829 358.986 442.121 360.286 443.732 360.286H466.955C468.566 360.286 469.858 358.986 469.858 357.364V341.296C469.858 339.674 468.566 338.374 466.955 338.374ZM459.698 335.452C460.496 335.452 461.149 336.11 461.149 336.913C461.149 337.717 460.496 338.374 459.698 338.374C458.899 338.374 458.246 337.717 458.246 336.913C458.246 336.11 458.899 335.452 459.698 335.452ZM450.989 335.452C451.787 335.452 452.44 336.11 452.44 336.913C452.44 337.717 451.787 338.374 450.989 338.374C450.191 338.374 449.538 337.717 449.538 336.913C449.538 336.11 450.191 335.452 450.989 335.452ZM466.955 357.364H443.732V354.443H466.955V357.364ZM466.955 350.06H443.732V341.296H451.105L448.086 345.43L450.437 347.139L453.892 342.406L455.343 340.419L456.795 342.406L460.249 347.139L462.601 345.43L459.582 341.296H466.955V350.06Z" fill="#8CAEC5"/>
<path fill-rule="evenodd" clip-rule="evenodd" d="M528.86 336.496C527.754 336.496 526.858 337.383 526.858 338.478V354.338C526.858 355.433 527.754 356.321 528.86 356.321H556.888C557.994 356.321 558.89 355.433 558.89 354.338V338.478C558.89 337.383 557.994 336.496 556.888 336.496H528.86ZM528.86 342.443C530.518 342.443 531.863 341.112 531.863 339.469H535.867V342.161C534.014 343.24 532.864 344.744 532.864 346.408C532.864 348.072 534.014 349.576 535.867 350.656V353.347H531.863C531.863 351.705 530.518 350.373 528.86 350.373V342.443ZM556.888 350.373C555.229 350.373 553.885 351.705 553.885 353.347H549.881V350.656C551.734 349.576 552.884 348.072 552.884 346.408C552.884 344.744 551.734 343.24 549.881 342.161V339.469H553.885C553.885 341.112 555.229 342.443 556.888 342.443V350.373ZM542.576 348.268C542.628 348.268 542.679 348.267 542.729 348.265C543.5 348.341 544.102 348.985 544.102 349.769C544.102 350.603 543.419 351.28 542.577 351.28C541.734 351.28 541.051 350.603 541.051 349.769C541.051 349.331 541.24 348.937 541.541 348.661C540.673 348.486 539.884 348.095 539.234 347.546C538.803 348.181 538.551 348.946 538.551 349.769C538.551 351.971 540.353 353.756 542.577 353.756C544.8 353.756 546.602 351.971 546.602 349.769C546.602 348.767 546.229 347.851 545.612 347.151C546.6 346.307 547.225 345.058 547.225 343.665C547.225 341.122 545.144 339.061 542.576 339.061C540.009 339.061 537.928 341.122 537.928 343.665C537.928 346.207 540.009 348.268 542.576 348.268ZM539.542 347.151C540.28 346.312 541.365 345.782 542.576 345.782C543.787 345.782 544.873 346.312 545.61 347.151C544.878 347.777 543.946 348.18 542.921 348.254C542.856 348.259 542.789 348.263 542.723 348.265L542.715 348.265C542.669 348.26 542.623 348.258 542.576 348.258C542.529 348.258 542.483 348.26 542.437 348.265C541.332 348.233 540.324 347.818 539.542 347.151ZM547.412 339.061C547.412 339.603 546.975 340.262 546.431 340.281C545.977 339.774 545.423 339.357 544.8 339.061H547.412Z" fill="#8CAEC5"/>
<path d="M639.101 334.916H622.522C618.859 334.916 615.89 337.856 615.89 341.483V356.259C615.89 357.166 616.632 357.901 617.548 357.901H644.074C644.99 357.901 645.732 357.166 645.732 356.259V341.483C645.732 337.856 642.763 334.916 639.101 334.916ZM620.864 355.438H618.377V348.05H620.864V355.438ZM620.864 345.587H618.377V341.483C618.377 339.804 619.403 338.362 620.864 337.727V345.587ZM638.272 355.438H623.35V348.05H627.495V350.513C627.495 350.966 627.866 351.334 628.324 351.334H633.298C633.756 351.334 634.127 350.966 634.127 350.513V348.05H638.272V355.438ZM629.982 348.05V346.408C629.982 345.955 630.353 345.587 630.811 345.587C631.269 345.587 631.64 345.955 631.64 346.408V348.05C631.64 348.504 631.269 348.871 630.811 348.871C630.353 348.871 629.982 348.504 629.982 348.05ZM638.272 345.587H634.127V343.946C634.127 343.492 633.756 343.125 633.298 343.125H628.324C627.866 343.125 627.495 343.492 627.495 343.946V345.587H623.35V337.379H638.272V345.587ZM643.245 355.438H640.759V348.05H643.245V355.438ZM643.245 345.587H640.759V337.727C642.22 338.362 643.245 339.804 643.245 341.483V345.587Z" fill="#8CAEC5"/>
<path fill-rule="evenodd" clip-rule="evenodd" d="M703.076 340.258C702.923 340.258 702.826 340.093 702.902 339.96L706.631 333.385C706.809 333.071 707.141 332.878 707.501 332.878H714.798L712.705 340.258H703.076ZM702.983 342.718C702.892 342.718 702.848 342.829 702.914 342.891L719.279 358.463C719.6 358.768 720.105 358.403 719.916 358.003L712.705 342.718H702.983ZM715.118 340.258L717.132 332.878H726.375L728.389 340.258H715.118ZM722.231 356.665C722.092 356.98 721.645 356.983 721.502 356.67L715.118 342.718H728.389L722.231 356.665ZM736.612 332.878C736.957 332.878 737.278 333.056 737.461 333.349L741.581 339.952C741.664 340.086 741.568 340.258 741.411 340.258H730.802L728.5 332.878H736.612ZM740.524 342.718C740.615 342.718 740.659 342.829 740.593 342.891L724.228 358.463C723.907 358.768 723.402 358.403 723.591 358.003L730.802 342.718H740.524Z" fill="#8CAEC5"/>
<path fill-rule="evenodd" clip-rule="evenodd" d="M479.186 394.014C479.032 394.014 478.936 393.848 479.012 393.715L482.741 387.14C482.918 386.827 483.251 386.633 483.611 386.633H490.907L488.814 394.014H479.186ZM479.092 396.474C479.002 396.474 478.958 396.584 479.024 396.646L495.389 412.218C495.709 412.524 496.215 412.159 496.026 411.758L488.814 396.474H479.092ZM491.227 394.014L493.242 386.633H502.485L504.499 394.014H491.227ZM498.341 410.42C498.202 410.736 497.755 410.739 497.611 410.425L491.227 396.474H504.499L498.341 410.42ZM512.722 386.633C513.067 386.633 513.388 386.811 513.571 387.104L517.691 393.708C517.774 393.841 517.678 394.014 517.521 394.014H506.912L504.61 386.633H512.722ZM516.634 396.474C516.724 396.474 516.768 396.584 516.703 396.646L500.338 412.218C500.017 412.524 499.511 412.159 499.7 411.758L506.912 396.474H516.634Z" fill="#8CAEC5"/>
<ellipse cx="585.692" cy="399.569" rx="10.8108" ry="4.75802" fill="#8CAEC5"/>
<path d="M585.692 409.085C591.663 409.085 596.503 406.955 596.503 404.327V401.948C596.503 404.576 591.663 406.706 585.692 406.706C579.722 406.706 574.881 404.576 574.881 401.948V404.327C574.881 406.955 579.722 409.085 585.692 409.085Z" fill="#8CAEC5"/>
<path d="M585.692 413.843C591.663 413.843 596.503 411.712 596.503 409.085V406.706C596.503 409.333 591.663 411.464 585.692 411.464C579.722 411.464 574.881 409.333 574.881 406.706V409.085C574.881 411.712 579.722 413.843 585.692 413.843Z" fill="#8CAEC5"/>
<path fill-rule="evenodd" clip-rule="evenodd" d="M598.906 404.715C601.803 403.862 603.71 402.408 603.71 400.758V398.379C603.71 400.029 601.803 401.483 598.906 402.336V404.715Z" fill="#8CAEC5"/>
<path fill-rule="evenodd" clip-rule="evenodd" d="M596.951 395.655C600.914 394.949 603.71 393.24 603.71 391.242C603.71 388.615 598.87 386.484 592.899 386.484C586.929 386.484 582.089 388.615 582.089 391.242C582.089 391.72 582.249 392.182 582.547 392.617C583.561 392.495 584.616 392.432 585.692 392.432C588.933 392.432 591.983 393.005 594.312 394.031C595.278 394.455 596.193 394.99 596.951 395.655Z" fill="#8CAEC5"/>
<path fill-rule="evenodd" clip-rule="evenodd" d="M598.5 397.692C598.752 398.256 598.905 398.884 598.905 399.569V399.957C601.803 399.103 603.71 397.65 603.71 396V393.621C603.71 395.346 601.624 396.857 598.5 397.692Z" fill="#8CAEC5"/>
<path d="M686.836 392.129H683.672C683.832 391.676 683.933 391.18 683.933 390.669C683.933 388.244 681.989 386.286 679.579 386.286C678.055 386.286 676.734 387.075 675.95 388.258L675.225 389.237L674.499 388.244C673.715 387.075 672.394 386.286 670.87 386.286C668.461 386.286 666.516 388.244 666.516 390.669C666.516 391.18 666.618 391.676 666.777 392.129H663.613C662.002 392.129 660.725 393.429 660.725 395.051L660.71 411.12C660.71 412.741 662.002 414.041 663.613 414.041H686.836C688.447 414.041 689.739 412.741 689.739 411.12V395.051C689.739 393.429 688.447 392.129 686.836 392.129ZM679.579 389.208C680.377 389.208 681.031 389.865 681.031 390.669C681.031 391.472 680.377 392.129 679.579 392.129C678.781 392.129 678.128 391.472 678.128 390.669C678.128 389.865 678.781 389.208 679.579 389.208ZM670.87 389.208C671.669 389.208 672.322 389.865 672.322 390.669C672.322 391.472 671.669 392.129 670.87 392.129C670.072 392.129 669.419 391.472 669.419 390.669C669.419 389.865 670.072 389.208 670.87 389.208ZM686.836 411.12H663.613V408.198H686.836V411.12ZM686.836 403.816H663.613V395.051H670.986L667.967 399.185L670.319 400.894L673.773 396.161L675.225 394.174L676.676 396.161L680.131 400.894L682.482 399.185L679.463 395.051H686.836V403.816Z" fill="#8CAEC5"/>
</g>
</g>
<defs>
<clipPath id="clip0">
<rect width="424" height="414" fill="white"/>
</clipPath>
<clipPath id="clip1">
<rect width="279" height="404" fill="white" transform="translate(424 10)"/>
</clipPath>
</defs>
</svg>
