<svg width="52" height="32" viewBox="0 0 52 32" fill="none" xmlns="http://www.w3.org/2000/svg">
<path d="M0.400024 2C0.400024 0.895431 1.29546 0 2.40002 0H49.6C50.7046 0 51.6 0.895431 51.6 2V30C51.6 31.1046 50.7046 32 49.6 32H2.40003C1.29546 32 0.400024 31.1046 0.400024 30V2Z" fill="#8BC63E"/>
<path fill-rule="evenodd" clip-rule="evenodd" d="M25.5245 14.9902C24.1968 14.9902 22.963 15.3928 21.938 16.082L24.9807 17.9923V19.0488C25.1557 19.0087 25.3374 18.9857 25.5245 18.9857C26.8709 18.9857 27.9633 20.0777 27.9633 21.425C27.9633 22.7715 26.8709 23.8635 25.5245 23.8635C24.1778 23.8635 23.0862 22.7715 23.0862 21.425C23.0862 20.7178 23.3887 20.0828 23.8694 19.6372C22.4812 19.3543 21.2204 18.7227 20.1824 17.837C19.4922 18.862 19.0894 20.0965 19.0894 21.425C19.0894 24.9785 21.9707 27.8597 25.5245 27.8597C29.0784 27.8597 31.9595 24.9785 31.9595 21.425C31.9595 17.8714 29.0784 14.9902 25.5245 14.9902Z" fill="#BBE484"/>
<path fill-rule="evenodd" clip-rule="evenodd" d="M32.9549 11.5717C32.9549 15.6756 29.6281 19.0016 25.5244 19.0016C21.4209 19.0016 18.0941 15.6756 18.0941 11.5717C18.0941 7.4682 21.4209 4.14111 25.5244 4.14111C29.6281 4.14111 32.9549 7.4682 32.9549 11.5717Z" fill="#BBE484"/>
<path fill-rule="evenodd" clip-rule="evenodd" d="M31.6849 6.1095C32.5543 6.07981 33.2536 5.01541 33.2536 4.14111H29.0781C30.0748 4.61885 30.9595 5.29196 31.6849 6.1095Z" fill="#CCFC9D"/>
<path fill-rule="evenodd" clip-rule="evenodd" d="M25.524 14.9902C23.5883 14.9902 21.8537 15.8457 20.674 17.1985C21.9236 18.276 23.5346 18.9453 25.3021 18.9971C25.375 18.9899 25.4492 18.9857 25.524 18.9857C25.5989 18.9857 25.6728 18.9899 25.7463 18.9971C27.5131 18.9453 29.1248 18.2764 30.3739 17.1985C29.1944 15.8457 27.4597 14.9902 25.524 14.9902Z" fill="white"/>
<path fill-rule="evenodd" clip-rule="evenodd" d="M8.39998 4.7998C8.39998 7.45077 6.25094 9.59981 3.59998 9.59981V22.3998C6.25094 22.3998 8.39998 24.5488 8.39998 27.1998H14.8V22.8556C11.8378 21.1133 9.99998 18.6853 9.99998 15.9998C9.99998 13.3143 11.8378 10.8864 14.8 9.14403V4.7998H8.39998Z" fill="white"/>
<path fill-rule="evenodd" clip-rule="evenodd" d="M43.6 4.7998H37.2V9.14403C40.1622 10.8864 42 13.3143 42 15.9998C42 18.6853 40.1622 21.1133 37.2 22.8556V27.1998H43.6C43.6 24.5488 45.749 22.3998 48.4 22.3998V9.59981C45.749 9.59981 43.6 7.45077 43.6 4.7998Z" fill="white"/>
</svg>
