<svg width="30" height="25" viewBox="0 0 30 25" fill="none" xmlns="http://www.w3.org/2000/svg">
<path fill-rule="evenodd" clip-rule="evenodd" d="M1.25 0C0.559644 0 0 0.559644 0 1.25V17.5C0 18.1904 0.559644 18.75 1.25 18.75H2.92102C2.65106 19.3183 2.5 19.954 2.5 20.625C2.5 23.0412 4.45875 25 6.875 25C9.29125 25 11.25 23.0412 11.25 20.625C11.25 19.954 11.0989 19.3183 10.829 18.75H19.171C18.9011 19.3183 18.75 19.954 18.75 20.625C18.75 23.0412 20.7088 25 23.125 25C25.5412 25 27.5 23.0412 27.5 20.625C27.5 19.954 27.3489 19.3183 27.079 18.75H28.75C29.4404 18.75 30 18.1904 30 17.5V11.25C30 10.9185 29.8683 10.6005 29.6339 10.3661L25.8839 6.61612C25.6495 6.3817 25.3315 6.25 25 6.25H21.25V1.25C21.25 0.559644 20.6904 0 20 0H1.25ZM23.125 16.25H27.5V11.7678L24.4822 8.75H21.25V16.25H23.125ZM23.125 18.75C22.0895 18.75 21.25 19.5895 21.25 20.625C21.25 21.6605 22.0895 22.5 23.125 22.5C24.1605 22.5 25 21.6605 25 20.625C25 19.5895 24.1605 18.75 23.125 18.75ZM5 20.625C5 19.5895 5.83947 18.75 6.875 18.75C7.91053 18.75 8.75 19.5895 8.75 20.625C8.75 21.6605 7.91053 22.5 6.875 22.5C5.83947 22.5 5 21.6605 5 20.625ZM18.75 16.25H6.875H2.5V2.5H18.75V7.5V16.25Z" fill="#48CEF3"/>
</svg>
