<svg width="301" height="311" viewBox="0 0 301 311" fill="none" xmlns="http://www.w3.org/2000/svg">
<path d="M153.059 299.264H152.981C150.064 299.264 147.111 299.177 144.205 299.005L144.249 298.271C147.141 298.443 150.079 298.529 152.981 298.529H153.059L153.059 299.264ZM161.915 298.996L161.871 298.262C164.794 298.087 167.747 297.82 170.65 297.47L170.738 298.2C167.821 298.552 164.853 298.82 161.918 298.996L161.915 298.996ZM135.381 298.218C132.46 297.869 129.513 297.426 126.621 296.902L126.752 296.177C129.629 296.699 132.562 297.14 135.469 297.49L135.381 298.218ZM179.497 296.872L179.365 296.148C182.243 295.623 185.143 295.001 187.983 294.302L188.159 295.016C185.306 295.719 182.39 296.343 179.496 296.872L179.497 296.872ZM117.956 295.053C115.1 294.353 112.227 293.556 109.419 292.683L109.638 291.981C112.433 292.849 115.29 293.642 118.132 294.339L117.956 295.053ZM196.693 292.636L196.474 291.934C199.264 291.064 202.065 290.095 204.804 289.054L205.065 289.742C202.314 290.789 199.497 291.763 196.693 292.638V292.636ZM101.026 289.793C98.2751 288.751 95.5167 287.608 92.8274 286.397L93.1292 285.726C95.8048 286.931 98.5489 288.066 101.287 289.105L101.026 289.793ZM213.236 286.35L212.934 285.679C215.597 284.48 218.259 283.178 220.845 281.816L221.188 282.467C218.588 283.837 215.913 285.144 213.236 286.352V286.35ZM84.8524 282.509C82.2441 281.139 79.646 279.671 77.1296 278.147L77.5101 277.519C80.014 279.035 82.5989 280.496 85.1941 281.86L84.8524 282.509ZM228.895 278.111L228.514 277.484C231.015 275.967 233.503 274.355 235.907 272.692L236.325 273.297C233.907 274.967 231.405 276.587 228.895 278.111ZM69.6891 273.328C67.2668 271.654 64.865 269.884 62.5505 268.069L63.0069 267.49C65.3094 269.296 67.6992 271.056 70.1096 272.723L69.6891 273.328ZM243.454 268.039L242.997 267.46C245.306 265.648 247.582 263.75 249.765 261.809L250.254 262.359C248.059 264.306 245.771 266.216 243.451 268.037L243.454 268.039ZM55.7427 262.389C53.54 260.436 51.3687 258.393 49.2892 256.313L49.809 255.793C51.8782 257.862 54.0386 259.896 56.2299 261.838L55.7427 262.389ZM256.705 256.281L256.186 255.761C258.258 253.688 260.293 251.528 262.233 249.339L262.783 249.828C260.834 252.027 258.789 254.198 256.707 256.281H256.705ZM43.2134 249.861C41.2601 247.658 39.35 245.37 37.5364 243.058L38.1143 242.602C39.9194 244.901 41.8226 247.178 43.7622 249.37L43.2134 249.861ZM268.458 243.026L267.879 242.569C269.69 240.259 271.451 237.869 273.113 235.466L273.718 235.884C272.048 238.302 270.279 240.705 268.458 243.026ZM32.2764 235.934C30.602 233.514 28.9806 231.014 27.4591 228.504L28.0867 228.122C29.6013 230.62 31.2141 233.108 32.8789 235.516L32.2764 235.934ZM278.54 228.442L277.912 228.062C279.431 225.554 280.892 222.969 282.255 220.376L282.905 220.719C281.534 223.322 280.068 225.921 278.54 228.442ZM23.0988 220.797C21.7296 218.196 20.4226 215.52 19.2143 212.843L19.884 212.54C21.0867 215.204 22.3868 217.866 23.7492 220.454L23.0988 220.797ZM286.794 212.741L286.123 212.439C287.33 209.756 288.468 207.013 289.504 204.277L290.192 204.538C289.15 207.286 288.006 210.045 286.793 212.739L286.794 212.741ZM15.8192 204.672C14.773 201.921 13.798 199.103 12.9217 196.296L13.6234 196.076C14.4957 198.869 15.4655 201.673 16.5061 204.41L15.8192 204.672ZM293.087 196.145L292.385 195.926C293.254 193.129 294.049 190.271 294.746 187.429L295.46 187.605C294.759 190.461 293.961 193.334 293.087 196.144V196.145ZM10.5393 187.758C9.8353 184.904 9.21003 181.989 8.68004 179.092L9.40343 178.959C9.93114 181.842 10.5536 184.743 11.2536 187.581L10.5393 187.758ZM297.31 178.936L296.587 178.804C297.109 175.925 297.552 172.992 297.899 170.084L298.628 170.172C298.28 173.093 297.836 176.044 297.31 178.935V178.936ZM7.34906 170.33C6.99592 167.412 6.72665 164.443 6.55037 161.503L7.28403 161.459C7.46088 164.383 7.72902 167.338 8.08273 170.241L7.34906 170.33ZM299.422 161.344L298.689 161.301C298.86 158.382 298.95 155.417 298.95 152.486V152.175H299.685V152.486C299.685 155.431 299.597 158.411 299.422 161.344ZM7.01076 152.642H6.27539V152.486C6.27539 149.592 6.3604 146.664 6.52869 143.784L7.26235 143.828C7.09519 146.694 7.01019 149.607 7.01019 152.487L7.01076 152.642ZM298.669 143.36C298.489 140.432 298.218 137.477 297.864 134.578L298.594 134.489C298.95 137.403 299.221 140.372 299.404 143.315L298.669 143.36ZM8.04108 135.043L7.31084 134.957C7.65884 132.034 8.09984 129.085 8.62299 126.191L9.34695 126.322C8.82608 129.201 8.38681 132.136 8.04108 135.043ZM296.529 125.861C295.997 122.975 295.372 120.074 294.67 117.242L295.383 117.065C296.089 119.914 296.718 122.83 297.253 125.729L296.529 125.861ZM11.1788 117.694L10.4646 117.519C11.1623 114.665 11.9576 111.788 12.8287 108.977L13.531 109.194C12.6644 111.991 11.8731 114.851 11.1794 117.694H11.1788ZM292.291 108.749C291.416 105.956 290.443 103.153 289.399 100.416L290.084 100.154C291.133 102.902 292.112 105.719 292.994 108.527L292.291 108.749ZM16.4017 100.839L15.7137 100.578C16.7549 97.8248 17.8953 95.0645 19.1036 92.3733L19.7745 92.6752C18.5719 95.3528 17.4372 98.0994 16.4017 100.839ZM286.013 92.2905C284.809 89.6284 283.503 86.9674 282.139 84.3811L282.79 84.0387C284.162 86.6375 285.471 89.3121 286.683 91.988L286.013 92.2905ZM23.6351 84.735L22.9836 84.3926C24.3482 81.7892 25.8138 79.1887 27.3399 76.6636L27.9674 77.0443C26.4516 79.5574 24.9934 82.1448 23.6351 84.735ZM277.792 76.7184C276.275 74.2229 274.659 71.7366 272.99 69.3296L273.595 68.9101C275.272 71.3296 276.895 73.8279 278.42 76.3365L277.792 76.7184ZM32.7573 69.6321L32.1521 69.2137C33.8213 66.7942 35.5887 64.3906 37.4046 62.0692L37.9837 62.5224C36.1803 64.833 34.4198 67.2245 32.7573 69.6321ZM267.751 62.2405C265.939 59.9391 264.036 57.6639 262.095 55.4778L262.645 54.9892C264.596 57.185 266.508 59.4716 268.329 61.7855L267.751 62.2405ZM43.6288 55.7438L43.0782 55.2558C45.027 53.0526 47.0717 50.879 49.1466 48.7968L49.6675 49.3162C47.5994 51.3887 45.5679 53.5508 43.6288 55.7438ZM256.045 49.0656C253.967 46.9948 251.805 44.9628 249.617 43.0273L250.103 42.4765C252.302 44.4217 254.476 46.4634 256.563 48.5451L256.045 49.0656ZM56.0787 43.263L55.5904 42.7128C57.7851 40.7619 60.0717 38.8497 62.3862 37.0289L62.8426 37.6071C60.5406 39.4188 58.2632 41.3218 56.0787 43.263ZM242.838 37.384C240.533 35.5803 238.142 33.8223 235.729 32.1584L236.147 31.5528C238.571 33.2247 240.975 34.9918 243.29 36.8041L242.838 37.384ZM69.9282 32.3679L69.5094 31.7629C71.926 30.0876 74.4237 28.4643 76.935 26.9392L77.3167 27.5671C74.8185 29.0848 72.3328 30.7001 69.9282 32.3673V32.3679ZM228.317 27.3707C225.807 25.8547 223.22 24.3975 220.629 23.0385L220.972 22.3866C223.576 23.7525 226.176 25.2171 228.699 26.7406L228.317 27.3707ZM84.9779 23.2245L84.6356 22.5738C87.2342 21.204 89.9081 19.8912 92.5832 18.6828L92.8861 19.3529C90.2242 20.5573 87.564 21.8598 84.979 23.2245H84.9779ZM212.692 19.1811C210.016 17.9825 207.273 16.846 204.531 15.8135L204.792 15.1251C207.545 16.1651 210.304 17.3044 212.994 18.5121L212.692 19.1811ZM101.012 15.971L100.75 15.2861C103.501 14.2376 106.317 13.2609 109.121 12.3831L109.341 13.0851C106.549 13.9556 103.747 14.9276 101.01 15.971H101.012ZM196.177 12.9459C193.382 12.0806 190.522 11.2906 187.681 10.5971L187.855 9.88247C190.708 10.5788 193.584 11.3734 196.394 12.2432L196.177 12.9459ZM117.829 10.7084L117.652 9.99435C120.508 9.28772 123.422 8.66043 126.313 8.1296L126.446 8.85335C123.57 9.38132 120.671 10.0058 117.831 10.709L117.829 10.7084ZM179.058 8.76773C176.184 8.24889 173.251 7.81052 170.34 7.46577L170.427 6.73517C173.352 7.08163 176.3 7.52171 179.189 8.04341L179.058 8.76773ZM135.159 7.52171L135.07 6.79111C137.985 6.43608 140.952 6.16325 143.892 5.98516L143.936 6.71919C141.012 6.89784 138.06 7.16725 135.159 7.51828V7.52171ZM161.559 6.69293C158.719 6.52854 155.833 6.44521 152.981 6.44521H152.747V5.70947H152.981C155.847 5.70947 158.748 5.79338 161.601 5.9589L161.559 6.69293Z" fill="#3F3B56"/>
<path d="M65.4589 0H4.56445V45.6935H65.4589V0Z" fill="#E6E6E6"/>
<path d="M57.8465 12.1853H12.1758V15.2316H57.8465V12.1853Z" fill="white"/>
<path d="M57.8465 21.3232H12.1758V24.3695H57.8465V21.3232Z" fill="white"/>
<path d="M57.8465 30.4622H12.1758V33.5084H57.8465V30.4622Z" fill="white"/>
<path d="M91.3387 23.6084H30.4443V69.3019H91.3387V23.6084Z" fill="#48CEF3"/>
<path fill-rule="evenodd" clip-rule="evenodd" d="M61.3538 37.2462C61.3538 39.5912 59.4528 41.4923 57.1077 41.4923C54.7626 41.4923 52.8615 39.5912 52.8615 37.2462C52.8615 34.9011 54.7626 33 57.1077 33C59.4528 33 61.3538 34.9011 61.3538 37.2462ZM83.8893 59.8923H63.4769L63.4769 59.8923H38L49.7265 43.3827C49.7549 43.3435 49.7859 43.3061 49.8192 43.2707C50.315 42.752 51.3297 42.789 51.7514 43.3827L58.1847 52.4408L58.4012 52.746L58.4381 52.6821L58.8884 51.903L68.2877 35.6209C68.3732 35.4698 68.4972 35.3441 68.6472 35.2566C68.7971 35.1692 68.9676 35.1231 69.1412 35.1231C69.3148 35.1231 69.4853 35.1692 69.6352 35.2566C69.7852 35.3441 69.9092 35.4698 69.9947 35.6209L84 59.8835C83.9635 59.8898 83.9264 59.8927 83.8893 59.8923Z" fill="white"/>
<path d="M301 245.583H213.82V311.001H301V245.583Z" fill="#EE2A7B"/>
<path fill-rule="evenodd" clip-rule="evenodd" d="M257.969 265.631C257.969 268.741 255.448 271.262 252.338 271.262C249.229 271.262 246.708 268.741 246.708 265.631C246.708 262.521 249.229 260 252.338 260C255.448 260 257.969 262.521 257.969 265.631ZM248.585 295.661H287.853C287.902 295.662 287.952 295.658 288 295.65L269.428 263.475C269.314 263.275 269.15 263.108 268.951 262.992C268.752 262.876 268.526 262.815 268.296 262.815C268.066 262.815 267.84 262.876 267.641 262.992C267.442 263.108 267.277 263.275 267.164 263.475L254.7 285.067L254.103 286.1L254.054 286.185L253.767 285.78L245.236 273.768C244.676 272.98 243.331 272.931 242.673 273.619C242.629 273.666 242.588 273.716 242.55 273.768L227 295.661H248.585L248.585 295.661Z" fill="white"/>
<path d="M236.186 214.615H70.1709V90.1838H236.186V214.615ZM71.8824 91.8962V212.902H234.474V91.8962H71.8824Z" fill="#E6E6E6"/>
<path d="M153.127 184.259C170.585 184.259 184.738 170.1 184.738 152.633C184.738 135.166 170.585 121.006 153.127 121.006C135.669 121.006 121.517 135.166 121.517 152.633C121.517 170.1 135.669 184.259 153.127 184.259Z" fill="#8BC63E"/>
<path d="M166.254 149.977H155.507V139.224C155.507 138.553 155.24 137.909 154.766 137.434C154.292 136.96 153.648 136.693 152.978 136.693C152.307 136.693 151.664 136.96 151.189 137.434C150.715 137.909 150.448 138.553 150.448 139.224V149.977H139.701C139.03 149.977 138.387 150.243 137.913 150.718C137.438 151.192 137.172 151.836 137.172 152.507C137.172 153.178 137.438 153.822 137.913 154.296C138.387 154.771 139.03 155.037 139.701 155.037H150.448V165.79C150.448 166.461 150.715 167.105 151.189 167.579C151.664 168.054 152.307 168.32 152.978 168.32C153.648 168.32 154.292 168.054 154.766 167.579C155.24 167.105 155.507 166.461 155.507 165.79V155.037H166.254C166.925 155.037 167.568 154.771 168.042 154.296C168.517 153.822 168.783 153.178 168.783 152.507C168.783 151.836 168.517 151.192 168.042 150.718C167.568 150.243 166.925 149.977 166.254 149.977Z" fill="white"/>
<path d="M60.8944 234.592H0V280.286H60.8944V234.592Z" fill="#E6E6E6"/>
<path d="M53.282 246.777H7.61133V249.824H53.282V246.777Z" fill="white"/>
<path d="M53.282 255.915H7.61133V258.962H53.282V255.915Z" fill="white"/>
<path d="M53.282 265.054H7.61133V268.1H53.282V265.054Z" fill="white"/>
</svg>
