<svg width="23" height="23" viewBox="0 0 23 23" fill="none" xmlns="http://www.w3.org/2000/svg">
<path d="M20.0273 18.5469C20.3867 18.6094 20.7148 18.7305 21.0117 18.9102C21.3086 19.0898 21.5703 19.3086 21.7969 19.5664C22.0234 19.8242 22.1953 20.1211 22.3125 20.457C22.4297 20.793 22.4922 21.1406 22.5 21.5V23H4.5C3.875 23 3.28906 22.8828 2.74219 22.6484C2.19531 22.4141 1.71875 22.0938 1.3125 21.6875C0.90625 21.2812 0.585938 20.8047 0.351562 20.2578C0.117188 19.7109 0 19.125 0 18.5C0 17.8828 0.117188 17.3008 0.351562 16.7539C0.585938 16.207 0.90625 15.7305 1.3125 15.3242C1.71875 14.918 2.19531 14.5938 2.74219 14.3516C3.28906 14.1094 3.875 13.9922 4.5 14V15.5C4.08594 15.5 3.69922 15.5781 3.33984 15.7344C2.98047 15.8906 2.66016 16.1055 2.37891 16.3789C2.09766 16.6523 1.88281 16.9688 1.73438 17.3281C1.58594 17.6875 1.50781 18.0781 1.5 18.5C1.5 18.9141 1.57812 19.3008 1.73438 19.6602C1.89062 20.0195 2.10547 20.3398 2.37891 20.6211C2.65234 20.9023 2.96875 21.1172 3.32812 21.2656C3.6875 21.4141 4.07812 21.4922 4.5 21.5C4.69531 21.5 4.88672 21.4648 5.07422 21.3945C5.26172 21.3242 5.42578 21.2148 5.56641 21.0664C5.70703 20.9258 5.8125 20.7617 5.88281 20.5742C5.95312 20.3867 5.99219 20.1953 6 20C6 18.4688 6.28516 16.9961 6.85547 15.582C7.12891 14.8945 7.46094 14.2578 7.85156 13.6719C8.24219 13.0859 8.69531 12.5234 9.21094 11.9844C10.125 11.0234 10.8164 9.95312 11.2852 8.77344C11.7539 7.59375 11.9922 6.33594 12 5V3.5C12 3.08594 12.0781 2.69922 12.2344 2.33984C12.3906 1.98047 12.6055 1.66016 12.8789 1.37891C13.1523 1.09766 13.4688 0.882812 13.8281 0.734375C14.1875 0.585938 14.5781 0.507812 15 0.5H17.25C17.7344 0.5 18.1641 0.582031 18.5391 0.746094C18.9141 0.910156 19.2812 1.14844 19.6406 1.46094C19.8438 1.64062 20.0508 1.77344 20.2617 1.85938C20.4727 1.94531 20.7188 1.99219 21 2C21.2109 2 21.4062 2.03906 21.5859 2.11719C21.7656 2.19531 21.9219 2.30078 22.0547 2.43359C22.1875 2.56641 22.2969 2.72656 22.3828 2.91406C22.4688 3.10156 22.5078 3.29688 22.5 3.5V5C22.5 5.3125 22.4414 5.60547 22.3242 5.87891C22.207 6.15234 22.0469 6.39062 21.8438 6.59375C21.6406 6.79688 21.4023 6.95703 21.1289 7.07422C20.8555 7.19141 20.5625 7.25 20.25 7.25H19.5V15.5C19.5 16.0156 19.543 16.5273 19.6289 17.0352C19.7148 17.543 19.8477 18.0469 20.0273 18.5469ZM21 21.5C21 21.2969 20.9609 21.1055 20.8828 20.9258C20.8047 20.7461 20.6992 20.5859 20.5664 20.4453C20.4336 20.3047 20.2734 20.1953 20.0859 20.1172C19.8984 20.0391 19.7031 20 19.5 20H18.9961C18.8398 19.6172 18.7031 19.2461 18.5859 18.8867C18.4688 18.5273 18.3633 18.168 18.2695 17.8086C18.1758 17.4492 18.1094 17.0781 18.0703 16.6953C18.0312 16.3125 18.0078 15.9141 18 15.5V7.25C18 7.03906 18.0391 6.84375 18.1172 6.66406C18.1953 6.48438 18.3008 6.32812 18.4336 6.19531C18.5664 6.0625 18.7266 5.95312 18.9141 5.86719C19.1016 5.78125 19.2969 5.74219 19.5 5.75H19.9688C20.1406 5.75 20.3047 5.73438 20.4609 5.70312C20.6172 5.67188 20.7461 5.60156 20.8477 5.49219C20.9492 5.38281 21 5.21875 21 5V3.5C20.6484 3.5 20.3438 3.46484 20.0859 3.39453C19.8281 3.32422 19.6016 3.23047 19.4062 3.11328C19.2109 2.99609 19.0352 2.875 18.8789 2.75C18.7227 2.625 18.5625 2.50391 18.3984 2.38672C18.2344 2.26953 18.0625 2.17969 17.8828 2.11719C17.7031 2.05469 17.4922 2.01562 17.25 2H15C14.7969 2 14.6055 2.03906 14.4258 2.11719C14.2461 2.19531 14.0859 2.30078 13.9453 2.43359C13.8047 2.56641 13.6953 2.72656 13.6172 2.91406C13.5391 3.10156 13.5 3.29688 13.5 3.5V5.75C13.5 5.95312 13.5742 6.12891 13.7227 6.27734C13.8711 6.42578 14.0469 6.5 14.25 6.5C14.4688 6.5 14.6289 6.44922 14.7305 6.34766C14.832 6.24609 14.9062 6.12109 14.9531 5.97266C15 5.82422 15.0195 5.66016 15.0117 5.48047C15.0039 5.30078 15 5.14062 15 5H16.5V5.75C16.5 6.0625 16.4414 6.35547 16.3242 6.62891C16.207 6.90234 16.0469 7.14062 15.8438 7.34375C15.6406 7.54688 15.4023 7.70703 15.1289 7.82422C14.8555 7.94141 14.5625 8 14.25 8C13.875 8 13.5195 7.91016 13.1836 7.73047C12.9336 8.75391 12.5703 9.69922 12.0938 10.5664C11.6172 11.4336 11.0156 12.25 10.2891 13.0156C9.375 13.9766 8.68359 15.0469 8.21484 16.2266C7.74609 17.4062 7.50781 18.6641 7.5 20C7.5 20.5312 7.36719 21.0312 7.10156 21.5H16.5C16.5 21.2891 16.4609 21.0938 16.3828 20.9141C16.3047 20.7344 16.1992 20.5781 16.0664 20.4453C15.9336 20.3125 15.7734 20.2031 15.5859 20.1172C15.3984 20.0312 15.2031 19.9922 15 20H13.5C13.5 19.5859 13.4219 19.1992 13.2656 18.8398C13.1094 18.4805 12.8945 18.1602 12.6211 17.8789C12.3477 17.5977 12.0312 17.3828 11.6719 17.2344C11.3125 17.0859 10.9219 17.0078 10.5 17V15.5C10.9844 15.5 11.4453 15.5703 11.8828 15.7109C12.3203 15.8516 12.7266 16.0547 13.1016 16.3203C13.4766 16.5859 13.8008 16.9023 14.0742 17.2695C14.3477 17.6367 14.5703 18.0469 14.7422 18.5H15V12.5H16.5V18.8984C16.9688 19.1719 17.3359 19.5391 17.6016 20C17.8672 20.4609 18 20.9609 18 21.5H21Z" fill="#BBE484"/>
</svg>