<?xml version="1.0" standalone="no"?>
<!DOCTYPE svg PUBLIC "-//W3C//DTD SVG 20010904//EN"
 "http://www.w3.org/TR/2001/REC-SVG-20010904/DTD/svg10.dtd">
<svg version="1.0" xmlns="http://www.w3.org/2000/svg"
 width="50.000000pt" height="50.000000pt" viewBox="0 0 50.000000 50.000000"
 preserveAspectRatio="xMidYMid meet">

<g transform="translate(0.000000,50.000000) scale(0.100000,-0.100000)"
fill="#000000" stroke="none">
<path d="M340 454 c-64 -14 -67 -16 -192 -142 -81 -80 -128 -134 -128 -147 0
-26 119 -145 145 -145 11 0 49 30 86 66 l67 66 14 -43 c18 -55 57 -86 87 -70
53 29 61 83 50 346 l-4 80 -30 2 c-16 1 -59 -5 -95 -13z m112 -44 c-5 -37 -10
-38 -22 -5 -10 28 -41 33 -59 11 -19 -23 -2 -48 30 -44 35 5 43 -11 29 -61 -7
-27 -41 -67 -133 -159 -68 -67 -128 -122 -133 -122 -12 0 -134 122 -134 135 0
6 57 68 127 137 109 107 134 127 168 133 22 4 56 11 75 15 44 9 58 -2 52 -40z
m-47 -29 c-6 -5 -25 10 -25 20 0 5 6 4 14 -3 8 -7 12 -15 11 -17z m62 -188
c-12 -153 -90 -191 -127 -62 -9 32 -7 36 44 89 30 30 57 66 62 80 7 24 8 24
17 -10 5 -19 7 -63 4 -97z"/>
<path d="M275 350 c-19 -20 -18 -21 18 -58 l37 -37 22 23 c12 12 17 22 11 22
-7 0 -15 -5 -18 -10 -11 -18 -26 1 -19 22 5 17 3 20 -11 14 -24 -9 -38 3 -24
20 19 23 4 26 -16 4z"/>
<path d="M340 350 c0 -5 5 -10 10 -10 6 0 10 5 10 10 0 6 -4 10 -10 10 -5 0
-10 -4 -10 -10z"/>
<path d="M225 300 c-19 -20 -18 -21 18 -58 l37 -37 22 23 c12 12 17 22 11 22
-7 0 -15 -5 -18 -10 -11 -18 -26 1 -19 22 5 17 3 20 -11 14 -24 -9 -38 3 -24
20 19 23 4 26 -16 4z"/>
<path d="M164 239 c-17 -19 -17 -21 19 -56 35 -36 64 -41 36 -7 -13 16 -11 17
14 10 15 -3 27 -2 27 3 0 5 -11 12 -25 15 -15 4 -22 11 -19 20 3 8 -3 19 -14
25 -15 8 -23 6 -38 -10z m36 -7 c0 -13 -12 -22 -22 -16 -10 6 -1 24 13 24 5 0
9 -4 9 -8z"/>
<path d="M115 190 c-19 -20 -18 -21 18 -57 35 -36 65 -40 35 -6 -9 10 -13 24
-10 32 3 10 0 12 -11 8 -21 -8 -29 3 -15 20 18 22 3 25 -17 3z"/>
<path d="M105 110 c3 -5 8 -10 11 -10 2 0 4 5 4 10 0 6 -5 10 -11 10 -5 0 -7
-4 -4 -10z"/>
</g>
</svg>
