<svg width="11" height="18" viewBox="0 0 11 18" fill="none" xmlns="http://www.w3.org/2000/svg">
<path opacity="0.7" fill-rule="evenodd" clip-rule="evenodd" d="M0 0.787369C0 0.352518 0.352517 0 0.787369 0H9.71263C10.1475 0 10.5 0.352517 10.5 0.787369C10.5 1.22222 10.1475 1.57474 9.71263 1.57474L7.423 1.57474C8.15198 2.31524 8.65471 3.26904 8.82286 4.33052H9.71263C10.1475 4.33052 10.5 4.68304 10.5 5.11789C10.5 5.55274 10.1475 5.90526 9.71263 5.90526H8.82288C8.4344 8.35801 6.25946 10.2358 3.63462 10.2358H2.28446L8.85412 16.6402C9.16954 16.9477 9.16954 17.4462 8.85412 17.7537C8.5387 18.0612 8.02729 18.0612 7.71187 17.7537L0 10.2359L3.52184e-05 10.2358H0V9.6611C0 9.10882 0.447716 8.6611 1 8.6611H3.63462C5.36438 8.6611 6.81192 7.48316 7.17918 5.90526L0.78737 5.90526C0.352518 5.90526 0 5.55274 0 5.11789C0 4.68304 0.352517 4.33052 0.787369 4.33052L7.17915 4.33052C6.81185 2.75267 5.36434 1.57478 3.63462 1.57478H0.787369C0.352517 1.57478 0 1.22226 0 0.787408V0.787369Z" fill="black"/>
</svg>
