<?xml version="1.0" standalone="no"?>
<!DOCTYPE svg PUBLIC "-//W3C//DTD SVG 20010904//EN"
 "http://www.w3.org/TR/2001/REC-SVG-20010904/DTD/svg10.dtd">
<svg version="1.0" xmlns="http://www.w3.org/2000/svg"
 width="50.000000pt" height="50.000000pt" viewBox="0 0 50.000000 50.000000"
 preserveAspectRatio="xMidYMid meet">

<g transform="translate(0.000000,50.000000) scale(0.100000,-0.100000)"
fill="#000000" stroke="none">
<path d="M121 248 c1 -24 3 -35 6 -25 2 9 11 17 19 17 8 0 14 5 14 10 0 6 -7
10 -15 10 -23 0 -18 18 8 23 19 4 18 4 -5 6 -27 1 -28 -1 -27 -41z"/>
<path d="M192 248 l1 -43 4 38 c3 24 9 37 19 37 8 0 14 -4 14 -10 0 -5 -4 -10
-10 -10 -14 0 -13 -13 4 -35 12 -17 13 -15 12 21 -1 32 -5 40 -23 42 -21 3
-23 0 -21 -40z"/>
<path d="M260 250 c0 -37 2 -40 28 -39 23 2 24 2 5 6 -26 5 -31 23 -8 23 8 0
15 5 15 10 0 6 -7 10 -15 10 -23 0 -18 18 8 23 19 4 18 4 -5 6 -26 1 -28 -2
-28 -39z"/>
<path d="M330 250 c0 -37 2 -40 28 -39 23 2 24 2 5 6 -26 5 -31 23 -8 23 8 0
15 5 15 10 0 6 -7 10 -15 10 -23 0 -18 18 8 23 19 4 18 4 -5 6 -26 1 -28 -2
-28 -39z"/>
</g>
</svg>
