<svg width="48" height="48" viewBox="0 0 48 48" fill="none" xmlns="http://www.w3.org/2000/svg">
<path fill-rule="evenodd" clip-rule="evenodd" d="M19.1529 13.2929C19.3404 13.1054 19.5948 13 19.86 13H28.14C28.4052 13 28.6596 13.1054 28.8471 13.2929L34.7071 19.1529C34.8946 19.3404 35 19.5948 35 19.86V28.14C35 28.4052 34.8946 28.6596 34.7071 28.8471L28.8471 34.7071C28.6596 34.8946 28.4052 35 28.14 35H19.86C19.5948 35 19.3404 34.8946 19.1529 34.7071L13.2929 28.8471C13.1054 28.6596 13 28.4052 13 28.14V19.86C13 19.5948 13.1054 19.3404 13.2929 19.1529L19.1529 13.2929ZM20.2742 15L15 20.2742V27.7258L20.2742 33H27.7258L33 27.7258V20.2742L27.7258 15H20.2742Z" fill="#FC3939"/>
<path fill-rule="evenodd" clip-rule="evenodd" d="M27.7071 20.2929C28.0976 20.6834 28.0976 21.3166 27.7071 21.7071L21.7071 27.7071C21.3166 28.0976 20.6834 28.0976 20.2929 27.7071C19.9024 27.3166 19.9024 26.6834 20.2929 26.2929L26.2929 20.2929C26.6834 19.9024 27.3166 19.9024 27.7071 20.2929Z" fill="#FC3939"/>
<path fill-rule="evenodd" clip-rule="evenodd" d="M20.2929 20.2929C20.6834 19.9024 21.3166 19.9024 21.7071 20.2929L27.7071 26.2929C28.0976 26.6834 28.0976 27.3166 27.7071 27.7071C27.3166 28.0976 26.6834 28.0976 26.2929 27.7071L20.2929 21.7071C19.9024 21.3166 19.9024 20.6834 20.2929 20.2929Z" fill="#FC3939"/>
</svg>
