<svg width="343" height="260" viewBox="0 0 343 260" fill="none" xmlns="http://www.w3.org/2000/svg">
<path opacity="0.1" d="M338.637 75.0008C338.577 75.2801 338.521 75.5593 338.455 75.8355C336.394 85.3276 333.026 94.4746 328.018 102.875C327.852 103.154 327.685 103.433 327.516 103.713C324.213 109.117 320.262 114.098 315.75 118.546C313.256 121.006 310.535 123.343 307.299 125.028C302.766 127.394 297.466 128.355 292.257 129.139C286.847 129.958 281.362 130.642 275.892 131.38C273.948 131.637 272.016 131.91 270.096 132.199C264.811 132.98 259.565 133.884 254.444 135.082C248.113 136.56 241.978 138.496 236.181 141.22C235.718 141.429 235.261 141.651 234.808 141.885C234.356 142.111 233.9 142.34 233.454 142.572C233.008 142.805 232.568 143.037 232.132 143.275C231.906 143.398 231.679 143.52 231.456 143.649C231.233 143.777 231.013 143.89 230.797 144.016C230.143 144.38 229.502 144.753 228.861 145.13L228.836 145.146C228.412 145.393 227.994 145.648 227.579 145.902C225.211 147.339 222.892 148.839 220.574 150.348L219.116 151.29L216.857 152.749C216.417 153.034 215.968 153.32 215.525 153.602C215.211 153.809 214.897 154.016 214.554 154.23C212.908 155.265 211.24 156.282 209.527 157.252C209.122 157.484 208.714 157.716 208.302 157.942C204.843 159.87 201.225 161.499 197.489 162.812L197.438 162.831C195.559 163.486 193.641 164.027 191.695 164.45C190.574 164.695 189.449 164.896 188.312 165.049C185.272 165.48 182.189 165.523 179.138 165.178C173.147 164.484 167.533 162.188 161.545 161.412C149.217 159.844 137.244 164.899 125.651 168.859C122.801 169.831 119.929 170.743 117.037 171.592C115.114 172.16 113.185 172.696 111.241 173.214C99.3262 176.358 87.1664 178.488 74.8917 179.581C69.7606 180.083 64.5988 180.198 59.4505 179.923C57.4932 179.804 55.5579 179.609 53.6572 179.295C47.154 178.291 41.0906 176.186 36.1959 172.329C32.1872 169.163 29.3188 165.037 27.1354 160.719C24.9002 156.313 23.3222 151.605 22.4512 146.743C22.3318 146.081 22.225 145.415 22.137 144.75C21.9799 143.612 21.8626 142.468 21.7851 141.317C21.3624 135.185 22.0956 129.027 23.9466 123.165C26.0201 116.6 29.4759 110.299 30.9965 103.684C31.0593 103.404 31.119 103.125 31.1755 102.847C31.3832 101.842 31.5374 100.827 31.6374 99.806C32.4134 91.6788 29.4382 83.7556 27.104 75.8072C27.0223 75.5311 26.9406 75.2518 26.862 74.9725C26.6107 74.0898 26.3698 73.208 26.1395 72.3273C23.978 63.924 23.3779 54.9276 25.3038 46.54C25.3635 46.2607 25.4357 45.9814 25.5048 45.7053C26.7941 40.4034 29.2186 35.4435 32.6113 31.1674C36.2179 26.6488 40.9524 22.8864 46.0104 19.5822C48.4756 17.9714 51.0245 16.4663 53.6572 15.0668C55.5422 14.0626 57.4733 13.1118 59.4505 12.2144C75.3001 4.99721 93.3804 1.47334 111.26 2.25154C112.202 2.29233 113.145 2.34254 114.087 2.41157C115.03 2.48061 116.06 2.56219 117.046 2.65319C128.564 3.77029 139.77 6.46575 150.898 9.41224C154.627 10.4007 158.35 11.4142 162.07 12.4089C163.725 12.8483 165.378 13.2876 167.033 13.7143C175.142 15.8073 183.37 17.7026 191.702 19.1178C193.631 19.4504 195.562 19.7537 197.495 20.0278C204.207 21.0131 210.973 21.5863 217.755 21.7442C220.392 21.7965 223.03 21.7735 225.669 21.6752C227.001 21.6271 228.335 21.5549 229.669 21.4587C243.445 20.4891 256.759 17.2445 270.096 14.2132C272.024 13.7739 273.957 13.3409 275.892 12.9141C278.43 12.3556 280.969 11.8159 283.52 11.317C299.395 8.20101 313.545 9.99276 328.304 16.4223C331.659 17.8815 335.012 19.645 337.066 22.3844C339.121 25.1237 339.636 28.4876 340.019 31.7353C340.563 36.3606 340.918 41.0455 341.053 45.7555C341.053 46.0316 341.053 46.3109 341.072 46.5902C341.285 56.1043 340.575 65.7094 338.637 75.0008Z" fill="#8BC63E"/>
<path opacity="0.1" d="M233.335 102.873H232.298V103.244V103.711H233.473L233.335 102.873ZM221.576 102.873C221.574 102.881 221.574 102.888 221.576 102.895C221.547 103.124 221.516 103.353 221.485 103.586V103.648V103.711H230.47V103.661L231.098 102.873H221.576ZM197.495 102.873V75.834H207.831C207.721 75.7618 207.608 75.6865 207.492 75.6175L207.341 75.5202L207.146 75.401C207.033 75.3351 206.92 75.2692 206.8 75.2064C206.681 75.1437 206.609 75.0997 206.508 75.0464L206.439 75.0087H206.423H197.495V73.5182L197.253 73.6124L196.999 73.7316H196.98L196.926 73.7599L196.766 73.8446L196.606 73.9293C196.449 74.014 196.292 74.1082 196.135 74.2054L195.984 74.3059L195.67 74.5067C195.264 74.7765 194.865 75.059 194.454 75.3225C194.35 75.3884 194.246 75.4543 194.14 75.5139C193.917 75.6457 193.687 75.7713 193.452 75.8842C193.351 75.9344 193.254 75.9784 193.137 76.0191L192.968 76.085L192.811 76.1384C192.442 76.2665 192.064 76.3652 191.68 76.4334V102.867H176.182C176.182 102.898 176.204 102.924 176.213 102.955C176.298 103.206 176.383 103.454 176.465 103.705H191.702V132.687C191.781 132.687 191.86 132.687 191.937 132.687L192.211 132.702L192.704 132.731L193.492 132.825L193.854 132.859L194.246 132.9H194.306L195 132.985L195.148 133.004L195.484 133.051L195.965 133.12L197.118 133.069L197.275 133.098C197.338 133.098 197.404 133.117 197.47 133.129V103.711H221.453V103.648V103.586C221.485 103.353 221.516 103.124 221.544 102.895C221.543 102.888 221.543 102.881 221.544 102.873H197.495ZM233.335 102.873H232.298V103.244V103.711H233.473L233.335 102.873ZM220.929 102.873C220.891 103.153 220.856 103.432 220.819 103.711H230.837L231.519 102.873H220.929ZM197.495 102.873V75.834H207.831C207.721 75.7618 207.608 75.6865 207.492 75.6175L207.341 75.5202L207.146 75.401C207.033 75.3351 206.92 75.2692 206.8 75.2064C206.681 75.1437 206.609 75.0997 206.508 75.0464L206.439 75.0087H206.417H197.495V73.5182L197.253 73.6124L196.999 73.7316H196.98L196.926 73.7599L196.766 73.8446L196.606 73.9293C196.449 74.014 196.292 74.1082 196.135 74.2054L195.984 74.3059L195.67 74.5067C195.264 74.7765 194.865 75.059 194.454 75.3225C194.35 75.3884 194.246 75.4543 194.14 75.5139C193.917 75.6457 193.687 75.7713 193.452 75.8842C193.351 75.9344 193.254 75.9784 193.137 76.0191L192.968 76.085L192.811 76.1384C192.442 76.2665 192.064 76.3652 191.68 76.4334V102.867H176.182C176.182 102.898 176.204 102.924 176.213 102.955C176.298 103.203 176.386 103.454 176.468 103.705H191.702V132.683H191.937L192.211 132.699L192.704 132.727L193.492 132.825L193.854 132.859L194.246 132.9H194.306L195 132.985L195.148 133.004L195.484 133.051L195.965 133.12L197.118 133.069L197.275 133.098C197.338 133.098 197.404 133.117 197.47 133.129V103.711H220.825C220.863 103.432 220.897 103.153 220.935 102.873H197.495ZM275.892 46.5667H341.072C341.072 46.2875 341.072 46.0082 341.053 45.7321H275.892V12.9033C273.957 13.3217 272.024 13.7547 270.095 14.2024V45.7321H199.207L199.028 45.572L199.298 45.3335L225.666 21.6675C223.027 21.7679 220.389 21.7909 217.752 21.7365L197.492 39.9175V20.0263C195.556 19.7523 193.625 19.4489 191.699 19.1163V39.0013L162.076 12.4075C158.356 11.4128 154.633 10.3992 150.904 9.41078L191.19 45.572L191.01 45.7321H117.056V2.67997C116.069 2.58793 115.083 2.50739 114.096 2.43835C113.154 2.36932 112.211 2.31911 111.269 2.27832V45.7321H59.4504V12.2412C57.4942 13.1365 55.5631 14.0873 53.6572 15.0935V45.7321H25.5048C25.4357 46.0082 25.3634 46.2875 25.3037 46.5667H53.6572V74.9993H26.862C26.9405 75.2786 27.0222 75.5579 27.1039 75.834H53.6572V102.873H31.1755C31.1189 103.152 31.0592 103.431 30.9964 103.711H53.6572V179.313C55.5422 179.605 57.4931 179.809 59.4504 179.94V103.711H111.259V173.225C113.204 172.708 115.133 172.171 117.056 171.603V103.711H191.702V164.445C193.647 164.022 195.565 163.481 197.445 162.826L197.495 162.807V103.711H270.095V132.197C272.022 131.915 273.954 131.644 275.892 131.384V103.711H327.516C327.685 103.432 327.852 103.153 328.018 102.873H275.892V75.834H338.455C338.521 75.5579 338.577 75.2786 338.637 74.9993H275.892V46.5667ZM59.4504 46.5667H111.259V74.9993H59.4504V46.5667ZM59.4504 102.873V75.834H111.259V102.873H59.4504ZM117.056 46.5667H191.702V74.9993H117.056V46.5667ZM117.056 102.873V75.834H191.702V102.873H117.056ZM270.095 102.873H197.495V75.834H270.095V102.873ZM270.095 74.9993H197.495V47.3293L198.513 46.5667H270.095V74.9993ZM221.576 102.873C221.574 102.881 221.574 102.888 221.576 102.895C221.547 103.124 221.516 103.353 221.485 103.586V103.648V103.711H230.47V103.661L231.098 102.873H221.576ZM233.335 102.873H232.298V103.244V103.711H233.473L233.335 102.873ZM197.495 102.873V75.834H207.831C207.721 75.7618 207.608 75.6865 207.492 75.6175L207.341 75.5202L207.146 75.401C207.033 75.3351 206.92 75.2692 206.8 75.2064C206.681 75.1437 206.609 75.0997 206.508 75.0464L206.439 75.0087H206.423H197.495V73.5182L197.253 73.6124L196.999 73.7316H196.98L196.926 73.7599L196.766 73.8446L196.606 73.9293C196.449 74.014 196.292 74.1082 196.135 74.2054L195.984 74.3059L195.67 74.5067C195.264 74.7765 194.865 75.059 194.454 75.3225C194.35 75.3884 194.246 75.4543 194.14 75.5139C193.917 75.6457 193.687 75.7713 193.452 75.8842C193.351 75.9344 193.254 75.9784 193.137 76.0191L192.968 76.085L192.811 76.1384C192.442 76.2665 192.064 76.3652 191.68 76.4334V102.867H176.182C176.182 102.898 176.204 102.924 176.213 102.955C176.298 103.206 176.383 103.454 176.465 103.705H191.702V132.687C191.781 132.687 191.86 132.687 191.937 132.687L192.211 132.702L192.704 132.731L193.492 132.825L193.854 132.859L194.246 132.9H194.306L195 132.985L195.148 133.004L195.484 133.051L195.965 133.12L197.118 133.069L197.275 133.098C197.338 133.098 197.404 133.117 197.47 133.129V103.711H221.453V103.648V103.586C221.485 103.353 221.516 103.124 221.544 102.895C221.543 102.888 221.543 102.881 221.544 102.873H197.495Z" fill="#8BC63E"/>
<path opacity="0.1" d="M84.3588 26.9931H84.8081C84.66 26.9305 84.5311 26.8299 84.4345 26.7015C84.338 26.5731 84.2772 26.4214 84.2583 26.2619C84.2583 25.6846 85.1222 25.2139 86.1778 25.2139H99.6115C100.667 25.2139 101.528 25.6846 101.528 26.2619C101.528 26.8362 100.667 27.31 99.6115 27.31H99.1623C99.3105 27.3715 99.4396 27.4714 99.5363 27.5993C99.6329 27.7273 99.6936 27.8787 99.7121 28.038C99.7121 28.5306 99.0837 28.9448 98.2449 29.0547H102.112C103.165 29.0547 104.029 29.5254 104.029 30.1027C104.029 30.6801 103.165 31.1508 102.112 31.1508H88.6754C87.623 31.1508 86.759 30.677 86.759 30.1027C86.759 29.6101 87.3874 29.199 88.2262 29.086H84.3588C83.3032 29.086 82.4424 28.6154 82.4424 28.038C82.4424 27.4606 83.3032 26.9931 84.3588 26.9931Z" fill="#8BC63E"/>
<path opacity="0.1" d="M229.957 36.9599H230.407C230.259 36.8968 230.131 36.7961 230.035 36.6677C229.939 36.5393 229.879 36.3879 229.86 36.2287C229.86 35.6513 230.721 35.1807 231.776 35.1807H245.21C246.266 35.1807 247.13 35.6513 247.13 36.2287C247.13 36.803 246.266 37.2736 245.21 37.2736H244.764C244.912 37.3367 245.04 37.4374 245.136 37.5658C245.232 37.6942 245.292 37.8456 245.311 38.0048C245.311 38.4974 244.682 38.9116 243.844 39.0215H247.711C248.767 39.0215 249.627 39.4921 249.627 40.0695C249.627 40.6469 248.767 41.1176 247.711 41.1176H234.277C233.222 41.1176 232.358 40.6438 232.358 40.0695C232.358 39.5769 232.986 39.1627 233.825 39.0528H229.957C228.905 39.0528 228.041 38.5822 228.041 38.0048C228.041 37.4274 228.905 36.9599 229.957 36.9599Z" fill="#8BC63E"/>
<path opacity="0.1" d="M63.7418 79.6239H64.1879C64.0403 79.5612 63.9119 79.4605 63.8158 79.332C63.7198 79.2036 63.6596 79.052 63.6413 78.8928C63.6413 78.3185 64.5052 77.8447 65.5577 77.8447H78.9946C80.047 77.8447 80.911 78.3185 80.911 78.8928C80.911 79.4702 80.047 79.9408 78.9946 79.9408H78.5453C78.6931 80.0025 78.8218 80.1025 78.9179 80.2305C79.014 80.3585 79.0741 80.5098 79.092 80.6688C79.092 81.1615 78.4636 81.5757 77.6248 81.6855H81.4922C82.5478 81.6855 83.4117 82.1593 83.4117 82.7336C83.4117 83.3078 82.5478 83.7816 81.4922 83.7816H68.071C67.0154 83.7816 66.1546 83.311 66.1546 82.7336C66.1546 82.2441 66.7829 81.8299 67.6218 81.7169H63.7418C62.6862 81.7169 61.8223 81.2462 61.8223 80.6688C61.8223 80.0915 62.6988 79.6239 63.7418 79.6239Z" fill="#8BC63E"/>
<path opacity="0.1" d="M316.693 191.445C318.949 180.415 291.319 165.461 254.979 158.043C218.64 150.626 187.351 153.554 185.094 164.584C182.837 175.613 210.467 190.568 246.807 197.985C283.147 205.403 314.436 202.475 316.693 191.445Z" fill="#8BC63E"/>
<path d="M243.306 120.772C243.306 120.772 246.878 103.259 260.516 104.882C260.516 104.882 269.941 105.528 271.879 111.691V125.312L243.306 120.772Z" fill="#494949"/>
<path d="M317.992 127.259L196.545 117.202L180.959 120.447L181.933 142.177L182.995 142.305L184.204 174.937L303.377 196.34L316.044 185.637V150.263L317.665 149.312L317.992 127.259Z" fill="#8CAEC5"/>
<path opacity="0.05" d="M318.157 127.262L317.83 149.315L304.679 155.478L304.516 132.449L318.157 127.262Z" fill="#121212"/>
<path opacity="0.05" d="M316.045 150.287L316.205 184.992L303.541 195.696L304.355 155.477L316.045 150.287Z" fill="#121212"/>
<path opacity="0.05" d="M183.159 143.606L304.453 158.389L304.515 155.584L183.068 142.502L183.159 143.606Z" fill="#121212"/>
<path opacity="0.05" d="M316.045 151.561V150.287L304.028 155.584V158.395L316.045 151.561Z" fill="#121212"/>
<path d="M180.796 120.447L196.382 117.202L317.829 127.259L304.191 132.446L180.796 120.447Z" fill="#E6F3F9"/>
<path opacity="0.1" d="M304.892 127.886L310.852 128.275L300.974 131.228L295.944 130.867L304.892 127.886Z" fill="#121212"/>
<path d="M304.892 127.627L310.852 128.016L300.974 130.972L295.944 130.608L304.892 127.627Z" fill="white"/>
<path d="M304.179 128.293C304.414 128.193 304.663 128.385 304.914 128.432C305.058 128.46 305.206 128.432 305.351 128.46C305.643 128.498 305.932 128.692 306.211 128.595" fill="#D3DAE1"/>
<path d="M303.871 128.473C304.104 128.373 304.355 128.561 304.606 128.612C304.751 128.637 304.898 128.612 305.043 128.637C305.335 128.678 305.624 128.872 305.904 128.775" fill="#D3DAE1"/>
<path d="M303.161 128.83C303.397 128.729 303.648 128.918 303.899 128.965C304.041 128.993 304.192 128.965 304.333 128.993C304.628 129.034 304.917 129.229 305.194 129.128" fill="#D3DAE1"/>
<path opacity="0.1" d="M279.13 124.956L285.09 125.348L275.212 128.301L270.183 127.937L279.13 124.956Z" fill="#121212"/>
<path d="M279.13 124.698L285.09 125.087L275.212 128.04L270.183 127.679L279.13 124.698Z" fill="white"/>
<path d="M278.417 125.366C278.653 125.265 278.901 125.454 279.152 125.504C279.297 125.529 279.444 125.504 279.589 125.529C279.881 125.57 280.17 125.765 280.45 125.668" fill="#D3DAE1"/>
<path d="M278.109 125.547C278.342 125.446 278.593 125.635 278.845 125.682C278.989 125.71 279.137 125.682 279.281 125.71C279.573 125.751 279.862 125.946 280.142 125.845" fill="#D3DAE1"/>
<path d="M277.399 125.9C277.635 125.799 277.886 125.991 278.138 126.038C278.279 126.066 278.43 126.038 278.571 126.066C278.867 126.104 279.156 126.302 279.432 126.201" fill="#D3DAE1"/>
<path opacity="0.1" d="M291.486 126.421L297.449 126.81L287.572 129.766L282.539 129.402L291.486 126.421Z" fill="#121212"/>
<path d="M291.486 126.164L297.449 126.553L287.572 129.506L282.539 129.142L291.486 126.164Z" fill="white"/>
<path d="M290.772 126.833C291.008 126.732 291.259 126.921 291.511 126.968C291.652 126.996 291.8 126.968 291.944 126.996C292.236 127.034 292.529 127.232 292.805 127.131" fill="#D3DAE1"/>
<path d="M290.464 127.008C290.699 126.908 290.951 127.099 291.202 127.146C291.344 127.175 291.491 127.146 291.636 127.175C291.928 127.212 292.22 127.41 292.497 127.31" fill="#D3DAE1"/>
<path d="M289.759 127.363C289.991 127.263 290.243 127.451 290.494 127.501C290.638 127.526 290.786 127.501 290.931 127.526C291.223 127.567 291.512 127.762 291.791 127.665" fill="#D3DAE1"/>
<path opacity="0.1" d="M63.9918 225.306C68.1855 225.306 71.5852 224.785 71.5852 224.142C71.5852 223.499 68.1855 222.978 63.9918 222.978C59.7981 222.978 56.3984 223.499 56.3984 224.142C56.3984 224.785 59.7981 225.306 63.9918 225.306Z" fill="#8BC63E"/>
<path opacity="0.1" d="M329.124 195.037C333.317 195.037 336.717 194.516 336.717 193.873C336.717 193.23 333.317 192.709 329.124 192.709C324.93 192.709 321.53 193.23 321.53 193.873C321.53 194.516 324.93 195.037 329.124 195.037Z" fill="#8BC63E"/>
<path opacity="0.1" d="M251.708 244.155C263.854 244.155 273.7 242.646 273.7 240.785C273.7 238.924 263.854 237.415 251.708 237.415C239.563 237.415 229.717 238.924 229.717 240.785C229.717 242.646 239.563 244.155 251.708 244.155Z" fill="#8BC63E"/>
<path opacity="0.1" d="M314.225 229.136C323.698 229.136 331.378 227.959 331.378 226.507C331.378 225.054 323.698 223.877 314.225 223.877C304.751 223.877 297.071 225.054 297.071 226.507C297.071 227.959 304.751 229.136 314.225 229.136Z" fill="#8BC63E"/>
<path opacity="0.1" d="M311.401 257.168C327.466 257.168 340.49 255.172 340.49 252.709C340.49 250.246 327.466 248.25 311.401 248.25C295.336 248.25 282.312 250.246 282.312 252.709C282.312 255.172 295.336 257.168 311.401 257.168Z" fill="#8BC63E"/>
<path opacity="0.1" d="M31.4926 260C43.6382 260 53.4842 258.491 53.4842 256.63C53.4842 254.769 43.6382 253.26 31.4926 253.26C19.347 253.26 9.50098 254.769 9.50098 256.63C9.50098 258.491 19.347 260 31.4926 260Z" fill="#8BC63E"/>
<path d="M64.337 187.063C64.337 187.063 65.1979 188.187 63.9412 189.888C62.6845 191.588 61.6478 193.026 62.0562 194.074C62.0562 194.074 63.9412 190.936 65.512 190.879C67.0829 190.823 66.0367 188.959 64.337 187.063Z" fill="#8BC63E"/>
<path opacity="0.1" d="M64.3379 187.063C64.4146 187.171 64.474 187.289 64.5138 187.415C66.0218 189.185 66.8229 190.832 65.3746 190.867C64.0268 190.904 62.4089 193.314 62.0225 193.923C62.0343 193.97 62.0489 194.016 62.0664 194.061C62.0664 194.061 63.9514 190.923 65.5223 190.867C67.0931 190.81 66.0375 188.959 64.3379 187.063Z" fill="#121212"/>
<path d="M65.9403 188.496C65.9403 188.892 65.8932 189.212 65.8398 189.212C65.7864 189.212 65.7393 188.898 65.7393 188.496C65.7393 188.095 65.7958 188.289 65.8492 188.289C65.9026 188.289 65.9403 188.101 65.9403 188.496Z" fill="#FFD037"/>
<path d="M66.4867 188.97C66.1411 189.158 65.8364 189.284 65.8113 189.224C65.7861 189.164 66.0437 188.985 66.3925 188.794C66.7412 188.602 66.603 188.744 66.6281 188.794C66.6532 188.844 66.8354 188.778 66.4867 188.97Z" fill="#FFD037"/>
<path d="M59.7961 187.063C59.7961 187.063 58.9352 188.187 60.1919 189.888C61.4486 191.588 62.4885 193.026 62.0769 194.074C62.0769 194.074 60.1919 190.936 58.6368 190.879C57.0817 190.823 58.087 188.959 59.7961 187.063Z" fill="#8BC63E"/>
<path opacity="0.1" d="M59.7951 187.063C59.72 187.172 59.6607 187.29 59.6191 187.415C58.1111 189.185 57.31 190.832 58.7583 190.867C60.1061 190.904 61.724 193.314 62.1136 193.923C62.1007 193.97 62.085 194.016 62.0665 194.061C62.0665 194.061 60.1815 190.923 58.6264 190.867C57.0712 190.81 58.086 188.959 59.7951 187.063Z" fill="#121212"/>
<path d="M58.1953 188.496C58.1953 188.892 58.2393 189.212 58.2927 189.212C58.3461 189.212 58.3932 188.898 58.3932 188.496C58.3932 188.095 58.3367 188.289 58.2833 188.289C58.2299 188.289 58.1953 188.101 58.1953 188.496Z" fill="#FFD037"/>
<path d="M57.6468 188.97C57.9956 189.158 58.2972 189.284 58.3254 189.224C58.3537 189.164 58.0898 188.985 57.7411 188.794C57.3924 188.602 57.5306 188.744 57.5055 188.794C57.4803 188.844 57.2981 188.778 57.6468 188.97Z" fill="#FFD037"/>
<path opacity="0.1" d="M62.0659 202.664C67.0334 202.664 71.0604 202.048 71.0604 201.287C71.0604 200.526 67.0334 199.909 62.0659 199.909C57.0983 199.909 53.0713 200.526 53.0713 201.287C53.0713 202.048 57.0983 202.664 62.0659 202.664Z" fill="#8BC63E"/>
<path d="M66.6981 192.556L66.6541 192.908L66.5944 193.403L66.5693 193.611L66.5096 194.106L66.4813 194.313L66.4216 194.809L65.7336 200.458C65.6739 200.96 64.8508 201.352 63.8486 201.352H60.2859C59.2932 201.352 58.4701 200.96 58.4009 200.458L57.7129 194.809L57.6532 194.313L57.6281 194.106L57.5653 193.611L57.5401 193.403L57.4804 192.908L57.4365 192.556C57.4019 192.271 57.848 192.032 58.4104 192.032H65.7273C66.2865 192.032 66.7326 192.271 66.6981 192.556Z" fill="#65617D"/>
<path d="M66.6531 192.906L66.5934 193.403H57.5392L57.4795 192.906H66.6531Z" fill="#9D9CB5"/>
<path d="M66.5694 193.608L66.5097 194.105H57.6283L57.5654 193.608H66.5694Z" fill="#9D9CB5"/>
<path d="M66.4835 194.312L66.4207 194.809H57.712L57.6523 194.312H66.4835Z" fill="#9D9CB5"/>
<path d="M323.139 182.719C323.139 182.719 322.064 187.714 326.843 188.304L327.138 187.749C327.138 187.749 323.434 184.269 323.139 182.719Z" fill="#8BC63E"/>
<path d="M328.658 187.705L327.546 187.941L327.436 187.966C327.436 187.966 324.47 185.562 324.508 180.196C324.904 180.987 325.379 181.737 325.925 182.434C327.1 183.987 328.435 186.058 328.658 187.705Z" fill="#8BC63E"/>
<path d="M329.033 188.22C328.945 188.276 328.846 188.313 328.743 188.326C328.64 188.34 328.535 188.33 328.436 188.298C325.583 187.633 326.551 178.348 326.551 178.348C326.708 178.42 326.865 179.603 327.537 181.128C328.684 183.804 329.95 187.548 329.033 188.22Z" fill="#8BC63E"/>
<path d="M335.359 182.719C335.359 182.719 335.545 187.714 330.766 188.304L330.468 187.739C330.468 187.739 335.064 184.269 335.359 182.719Z" fill="#8BC63E"/>
<path d="M333.989 180.206C334.027 185.572 330.175 187.976 330.175 187.976L330.062 187.95L328.953 187.715C329.173 186.068 330.524 183.997 331.683 182.443C332.349 181.598 333.124 180.846 333.989 180.206Z" fill="#8BC63E"/>
<path d="M330.047 187.737C329.878 187.946 329.663 188.112 329.419 188.223C329.343 188.257 329.264 188.284 329.183 188.302C328.482 188.465 328.24 187.96 328.278 187.1C328.344 185.572 329.305 182.92 330.163 180.934C330.576 179.96 331.186 179.08 331.954 178.352C331.954 178.352 331.91 185.578 330.047 187.737Z" fill="#8BC63E"/>
<path d="M329.249 175.092C329.249 175.092 326.064 186.388 328.806 188.076C331.549 189.765 329.953 176.09 329.249 175.092Z" fill="#8BC63E"/>
<path opacity="0.1" d="M323.139 182.719C323.139 182.719 322.064 187.714 326.843 188.304L327.138 187.749C327.138 187.749 323.434 184.269 323.139 182.719Z" fill="#121212"/>
<path opacity="0.1" d="M328.658 187.705L327.546 187.941L327.436 187.966C327.436 187.966 324.47 185.562 324.508 180.196C324.904 180.987 325.379 181.737 325.925 182.434C327.1 183.987 328.435 186.058 328.658 187.705Z" fill="#121212"/>
<path opacity="0.1" d="M329.033 188.22C328.945 188.276 328.846 188.313 328.743 188.326C328.64 188.34 328.535 188.33 328.436 188.298C325.583 187.633 326.551 178.348 326.551 178.348C326.708 178.42 326.865 179.603 327.537 181.128C328.684 183.804 329.95 187.548 329.033 188.22Z" fill="#121212"/>
<path opacity="0.1" d="M335.359 182.719C335.359 182.719 335.545 187.714 330.766 188.304L330.468 187.739C330.468 187.739 335.064 184.269 335.359 182.719Z" fill="#121212"/>
<path opacity="0.1" d="M333.989 180.206C334.027 185.572 330.175 187.976 330.175 187.976L330.062 187.95L328.953 187.715C329.173 186.068 330.524 183.997 331.683 182.443C332.349 181.598 333.124 180.846 333.989 180.206Z" fill="#121212"/>
<path opacity="0.1" d="M330.047 187.737C329.878 187.946 329.663 188.112 329.419 188.223C329.343 188.257 329.264 188.284 329.183 188.302C328.482 188.465 328.24 187.96 328.278 187.1C328.344 185.572 329.305 182.92 330.163 180.934C330.576 179.96 331.186 179.08 331.954 178.352C331.954 178.352 331.91 185.578 330.047 187.737Z" fill="#121212"/>
<path opacity="0.1" d="M329.249 175.092C329.249 175.092 326.064 186.388 328.806 188.076C331.549 189.765 329.953 176.09 329.249 175.092Z" fill="#121212"/>
<path d="M323.139 182.719C323.139 182.719 322.51 187.714 327.286 188.304L327.581 187.749C327.581 187.749 323.434 184.269 323.139 182.719Z" fill="#8BC63E"/>
<path d="M329.102 187.706L327.99 187.941L327.88 187.966C327.88 187.966 324.471 185.562 324.499 180.206C324.499 180.206 325.373 181.147 326.359 182.443C327.543 183.987 328.879 186.058 329.102 187.706Z" fill="#8BC63E"/>
<path opacity="0.1" d="M329.1 187.704L327.988 187.94C326.936 187.017 326.518 184.607 326.367 182.433C327.542 183.986 328.877 186.057 329.1 187.704Z" fill="#121212"/>
<path d="M329.478 188.22C329.39 188.276 329.291 188.313 329.187 188.326C329.083 188.34 328.978 188.33 328.878 188.298C326.026 187.633 326.547 178.348 326.547 178.348C326.704 178.42 327.32 179.603 327.977 181.128C329.13 183.804 330.393 187.548 329.478 188.22Z" fill="#8BC63E"/>
<path d="M335.359 182.719C335.359 182.719 335.988 187.714 331.212 188.304L330.917 187.749C330.917 187.749 335.064 184.269 335.359 182.719Z" fill="#8BC63E"/>
<path d="M333.989 180.206C334.026 185.572 330.618 187.976 330.618 187.976L330.508 187.95L329.396 187.715C329.615 186.068 330.966 183.997 332.129 182.443C333.115 181.147 333.989 180.206 333.989 180.206Z" fill="#8BC63E"/>
<path opacity="0.1" d="M332.129 182.433C331.984 184.46 331.614 186.691 330.712 187.733C330.65 187.808 330.582 187.877 330.508 187.94L329.396 187.704C329.615 186.057 330.954 183.986 332.129 182.433Z" fill="#121212"/>
<path d="M330.49 187.737C330.322 187.946 330.106 188.113 329.861 188.223C329.787 188.257 329.709 188.283 329.629 188.302C328.925 188.465 328.686 187.96 328.721 187.1C328.79 185.572 329.751 182.92 330.606 180.934C331.234 179.506 331.803 178.424 331.954 178.352C331.954 178.348 332.353 185.578 330.49 187.737Z" fill="#8BC63E"/>
<path opacity="0.1" d="M329.479 188.223C329.317 188.224 329.158 188.174 329.027 188.078C327.685 187.244 327.657 184.112 327.977 181.131C329.13 183.807 330.393 187.551 329.479 188.223Z" fill="#121212"/>
<path opacity="0.1" d="M330.49 187.736C330.336 188.071 330.129 188.247 329.862 188.222C329.726 188.205 329.595 188.156 329.482 188.078C329.132 187.839 328.867 187.496 328.722 187.099C328.791 185.57 329.752 182.919 330.607 180.933C330.915 183.685 331.018 186.603 330.49 187.736Z" fill="#121212"/>
<path d="M329.249 175.092C329.249 175.092 326.509 186.388 329.249 188.076C331.988 189.765 329.953 176.09 329.249 175.092Z" fill="#8BC63E"/>
<path d="M334.508 187.523H323.101V189.409H324.841L324.885 189.632L325.583 193.294H332.215L332.912 189.632L332.953 189.409H334.508V187.523Z" fill="#494949"/>
<path opacity="0.1" d="M334.508 187.523H323.101V189.409H324.841L324.885 189.632L325.583 193.294H332.215L332.912 189.632L332.953 189.409H334.508V187.523Z" fill="#121212"/>
<path d="M333.547 188.634L333.355 189.635L332.658 193.297H326.026L325.328 189.635L325.137 188.634H333.547Z" fill="#494949"/>
<path opacity="0.1" d="M333.547 188.634L333.355 189.635H325.328L325.137 188.634H333.547Z" fill="#121212"/>
<path d="M334.95 187.523H323.543V189.409H334.95V187.523Z" fill="#494949"/>
<path d="M43.791 219.796C43.4902 220.21 43.2491 220.664 43.0747 221.145C43.0307 221.261 42.9867 221.396 42.9427 221.525C42.863 221.488 42.7799 221.458 42.6945 221.437C42.3283 221.345 41.9494 221.313 41.5729 221.343C41.5729 221.195 41.5918 221.029 41.5949 220.882C41.6421 219.228 41.4473 216.925 39.867 217.901C38.3527 218.842 39.4335 220.411 40.4105 221.415C40.4954 221.503 40.5802 221.584 40.6619 221.663C39.7696 222.29 39.6 223.775 39.4523 225.315C39.3047 226.856 37.9946 228.541 37.1244 229.498C37.0364 229.596 36.9578 229.683 36.8793 229.765C36.5275 229.485 36.1203 229.282 35.6844 229.17C35.2485 229.058 34.7938 229.039 34.3503 229.115C34.3157 228.98 34.2749 228.839 34.234 228.692C33.5303 226.153 32.0694 221.757 30.2064 220.794L30.4515 220.48C31.2432 219.448 32.1354 217.91 30.819 217.518C29.5027 217.125 29.3833 218.848 29.4556 220.141C29.4681 220.304 29.4807 220.458 29.4933 220.602C29.2301 220.614 28.9722 220.68 28.7355 220.796C28.4988 220.911 28.2884 221.074 28.1172 221.274L27.913 221.032C26.8448 219.777 24.8876 217.778 24.2938 219.287C23.7409 220.693 25.4657 222.52 26.6783 223.577L26.7537 223.643C25.94 226.941 29.4933 229.63 31.4065 230.807L31.6547 230.957C29.0157 234.064 27.3852 239.888 27.3852 239.888L34.7744 241.206C34.7744 241.206 39.6754 236.982 39.047 233.016H39.0973C43.9952 232.037 45.1073 226.822 44.3439 223.724L44.4318 223.69C45.3242 223.326 46.106 222.735 46.7001 221.977C48.0699 220.078 45.2047 217.932 43.791 219.796Z" fill="#8BC63E"/>
<path opacity="0.1" d="M43.791 219.796C43.4902 220.21 43.2491 220.664 43.0747 221.145C43.0307 221.261 42.9867 221.396 42.9427 221.525C42.863 221.488 42.7799 221.458 42.6945 221.437C42.3283 221.345 41.9494 221.313 41.5729 221.343C41.5729 221.195 41.5918 221.029 41.5949 220.882C41.6421 219.228 41.4473 216.925 39.867 217.901C38.3527 218.842 39.4335 220.411 40.4105 221.415C40.4954 221.503 40.5802 221.584 40.6619 221.663C39.7696 222.29 39.6 223.775 39.4523 225.315C39.3047 226.856 37.9946 228.541 37.1244 229.498C37.0364 229.596 36.9578 229.683 36.8793 229.765C36.5275 229.485 36.1203 229.282 35.6844 229.17C35.2485 229.058 34.7938 229.039 34.3503 229.115C34.3157 228.98 34.2749 228.839 34.234 228.692C33.5303 226.153 32.0694 221.757 30.2064 220.794L30.4515 220.48C31.2432 219.448 32.1354 217.91 30.819 217.518C29.5027 217.125 29.3833 218.848 29.4556 220.141C29.4681 220.304 29.4807 220.458 29.4933 220.602C29.2301 220.614 28.9722 220.68 28.7355 220.796C28.4988 220.911 28.2884 221.074 28.1172 221.274L27.913 221.032C26.8448 219.777 24.8876 217.778 24.2938 219.287C23.7409 220.693 25.4657 222.52 26.6783 223.577L26.7537 223.643C25.94 226.941 29.4933 229.63 31.4065 230.807L31.6547 230.957C29.0157 234.064 27.3852 239.888 27.3852 239.888L34.7744 241.206C34.7744 241.206 39.6754 236.982 39.047 233.016H39.0973C43.9952 232.037 45.1073 226.822 44.3439 223.724L44.4318 223.69C45.3242 223.326 46.106 222.735 46.7001 221.977C48.0699 220.078 45.2047 217.932 43.791 219.796Z" fill="#121212"/>
<path d="M29.0815 221.939L28.2175 224.45C28.2175 224.45 27.7368 224.111 27.1305 223.577C25.9178 222.52 24.193 220.694 24.746 219.288C25.3397 217.778 27.297 219.771 28.3652 221.032C28.7956 221.535 29.0815 221.939 29.0815 221.939Z" fill="#8BC63E"/>
<path d="M30.9039 220.482C30.6415 220.828 30.3604 221.159 30.062 221.474C29.9882 221.033 29.9368 220.589 29.908 220.143C29.8357 218.851 29.974 217.134 31.2715 217.52C32.569 217.906 31.6956 219.45 30.9039 220.482Z" fill="#8BC63E"/>
<path d="M42.0643 220.881C42.0392 221.713 41.9575 222.378 41.9575 222.378C41.5775 222.081 41.2175 221.759 40.8799 221.414C39.9028 220.401 38.8221 218.838 40.3364 217.9C41.9009 216.921 42.0957 219.227 42.0643 220.881Z" fill="#8BC63E"/>
<path d="M47.1539 221.969C46.5598 222.728 45.778 223.318 44.8856 223.683C44.6379 223.79 44.384 223.882 44.1253 223.959L43.1074 222.531C43.2143 222.059 43.355 221.596 43.5284 221.144C43.7029 220.663 43.944 220.209 44.2447 219.795C45.6522 217.931 48.5236 220.077 47.1539 221.969Z" fill="#8BC63E"/>
<path opacity="0.1" d="M28.3675 221.032C28.7979 221.534 29.0838 221.923 29.0838 221.923L28.2198 224.434C28.2198 224.434 27.7392 224.095 27.1328 223.561C27.2675 222.752 27.6023 221.99 28.1067 221.343C28.1916 221.239 28.2827 221.133 28.3675 221.032Z" fill="#121212"/>
<path opacity="0.1" d="M30.9041 220.482C30.6417 220.828 30.3606 221.159 30.0621 221.474C29.9884 221.033 29.937 220.589 29.9082 220.144C30.2673 220.151 30.6152 220.269 30.9041 220.482Z" fill="#121212"/>
<path d="M35.1516 230.513L33.0027 231.454C33.0027 231.454 32.5346 231.228 31.8592 230.808C29.6003 229.421 25.0606 225.928 28.0892 221.811C31.1178 217.694 33.6719 225.078 34.6867 228.69C34.9914 229.788 35.1516 230.513 35.1516 230.513Z" fill="#8BC63E"/>
<path opacity="0.1" d="M40.8633 221.414C41.1758 221.093 41.5994 220.902 42.0477 220.881C42.0226 221.712 41.9409 222.378 41.9409 222.378C41.5609 222.081 41.2009 221.759 40.8633 221.414Z" fill="#121212"/>
<path opacity="0.1" d="M44.8915 223.684C44.6438 223.791 44.3899 223.883 44.1312 223.96L43.1133 222.532C43.2202 222.061 43.3608 221.597 43.5343 221.146C44.1846 221.528 44.6684 222.482 44.8915 223.684Z" fill="#121212"/>
<path d="M39.55 233.007C39.4337 233.032 39.3112 233.054 39.1887 233.073C31.9848 234.165 36.8136 230.283 36.8136 230.283C36.8136 230.283 37.1277 229.969 37.577 229.496C38.4472 228.538 39.7542 226.863 39.905 225.313C40.1312 222.981 40.3919 220.794 43.1472 221.434C45.8521 222.068 46.3705 231.642 39.55 233.007Z" fill="#8BC63E"/>
<path d="M39.4159 250.925H25.6523V254.54H39.4159V250.925Z" fill="#D4DFEC"/>
<path d="M41.4477 239.175H23.4648V251.789H41.4477V239.175Z" fill="#D4DFEC"/>
<path opacity="0.1" d="M39.4159 250.925H25.6523V254.54H39.4159V250.925Z" fill="#121212"/>
<path opacity="0.1" d="M41.4477 239.175H23.4648V251.789H41.4477V239.175Z" fill="#121212"/>
<path d="M40.3202 250.925H26.5566V254.54H40.3202V250.925Z" fill="#D4DFEC"/>
<path opacity="0.1" d="M34.6869 228.691C35.001 229.771 35.1518 230.511 35.1518 230.511L33.0029 231.453C33.0029 231.453 32.5348 231.227 31.8594 230.806C32.7013 229.743 33.6501 228.939 34.6869 228.691Z" fill="#121212"/>
<path opacity="0.1" d="M39.55 233.008C39.4337 233.033 39.3112 233.055 39.1887 233.074C31.9848 234.166 36.8136 230.285 36.8136 230.285C36.8136 230.285 37.1277 229.971 37.577 229.497C38.9216 230.573 39.4777 231.785 39.55 233.008Z" fill="#121212"/>
<path d="M27.8379 239.889C27.8379 239.889 31.8718 225.455 37.5299 229.907C43.188 234.36 35.2271 241.204 35.2271 241.204L27.8379 239.889Z" fill="#8BC63E"/>
<path opacity="0.1" d="M29.8743 224.523C30.1241 224.523 30.3267 224.321 30.3267 224.071C30.3267 223.821 30.1241 223.619 29.8743 223.619C29.6244 223.619 29.4219 223.821 29.4219 224.071C29.4219 224.321 29.6244 224.523 29.8743 224.523Z" fill="#121212"/>
<path opacity="0.1" d="M29.8372 226.632C30.087 226.632 30.2896 226.43 30.2896 226.18C30.2896 225.931 30.087 225.729 29.8372 225.729C29.5873 225.729 29.3848 225.931 29.3848 226.18C29.3848 226.43 29.5873 226.632 29.8372 226.632Z" fill="#121212"/>
<path opacity="0.1" d="M42.9592 224.939C43.2091 224.939 43.4116 224.737 43.4116 224.487C43.4116 224.237 43.2091 224.035 42.9592 224.035C42.7094 224.035 42.5068 224.237 42.5068 224.487C42.5068 224.737 42.7094 224.939 42.9592 224.939Z" fill="#121212"/>
<path opacity="0.1" d="M32.4045 235.748C32.6544 235.748 32.8569 235.546 32.8569 235.297C32.8569 235.047 32.6544 234.845 32.4045 234.845C32.1547 234.845 31.9521 235.047 31.9521 235.297C31.9521 235.546 32.1547 235.748 32.4045 235.748Z" fill="#121212"/>
<path opacity="0.1" d="M42.0169 228.44C42.2667 228.44 42.4692 228.238 42.4692 227.988C42.4692 227.738 42.2667 227.536 42.0169 227.536C41.767 227.536 41.5645 227.738 41.5645 227.988C41.5645 228.238 41.767 228.44 42.0169 228.44Z" fill="#121212"/>
<path opacity="0.1" d="M37.342 233.113C37.5919 233.113 37.7944 232.91 37.7944 232.661C37.7944 232.411 37.5919 232.209 37.342 232.209C37.0922 232.209 36.8896 232.411 36.8896 232.661C36.8896 232.91 37.0922 233.113 37.342 233.113Z" fill="#121212"/>
<path opacity="0.1" d="M31.4192 225.43C31.669 225.43 31.8716 225.228 31.8716 224.978C31.8716 224.729 31.669 224.526 31.4192 224.526C31.1693 224.526 30.9668 224.729 30.9668 224.978C30.9668 225.228 31.1693 225.43 31.4192 225.43Z" fill="#121212"/>
<path opacity="0.1" d="M41.7151 226.292C41.9649 226.292 42.1675 226.09 42.1675 225.841C42.1675 225.591 41.9649 225.389 41.7151 225.389C41.4652 225.389 41.2627 225.591 41.2627 225.841C41.2627 226.09 41.4652 226.292 41.7151 226.292Z" fill="#121212"/>
<path opacity="0.1" d="M40.1682 229.794C40.4181 229.794 40.6206 229.592 40.6206 229.342C40.6206 229.093 40.4181 228.891 40.1682 228.891C39.9184 228.891 39.7158 229.093 39.7158 229.342C39.7158 229.592 39.9184 229.794 40.1682 229.794Z" fill="#121212"/>
<path opacity="0.1" d="M35.4192 235.409C35.669 235.409 35.8716 235.206 35.8716 234.957C35.8716 234.707 35.669 234.505 35.4192 234.505C35.1693 234.505 34.9668 234.707 34.9668 234.957C34.9668 235.206 35.1693 235.409 35.4192 235.409Z" fill="#121212"/>
<path opacity="0.1" d="M34.4387 233.189C34.6886 233.189 34.8911 232.987 34.8911 232.737C34.8911 232.487 34.6886 232.285 34.4387 232.285C34.1889 232.285 33.9863 232.487 33.9863 232.737C33.9863 232.987 34.1889 233.189 34.4387 233.189Z" fill="#121212"/>
<path opacity="0.1" d="M32.0989 228.175C32.3487 228.175 32.5513 227.973 32.5513 227.723C32.5513 227.474 32.3487 227.271 32.0989 227.271C31.849 227.271 31.6465 227.474 31.6465 227.723C31.6465 227.973 31.849 228.175 32.0989 228.175Z" fill="#121212"/>
<path opacity="0.1" d="M40.3202 250.925H26.5566V252.246H40.3202V250.925Z" fill="#121212"/>
<path d="M42.352 239.175H24.3691V251.789H42.352V239.175Z" fill="#D4DFEC"/>
<path opacity="0.1" d="M36.0217 237.443C36.2716 237.443 36.4741 237.24 36.4741 236.991C36.4741 236.741 36.2716 236.539 36.0217 236.539C35.7719 236.539 35.5693 236.741 35.5693 236.991C35.5693 237.24 35.7719 237.443 36.0217 237.443Z" fill="#121212"/>
<path opacity="0.1" d="M33.3079 238.007C33.5577 238.007 33.7603 237.805 33.7603 237.555C33.7603 237.306 33.5577 237.104 33.3079 237.104C33.058 237.104 32.8555 237.306 32.8555 237.555C32.8555 237.805 33.058 238.007 33.3079 238.007Z" fill="#121212"/>
<path opacity="0.1" d="M15.708 19.5997C17.523 19.5997 18.9942 18.1301 18.9942 16.3174C18.9942 14.5047 17.523 13.0352 15.708 13.0352C13.8931 13.0352 12.4219 14.5047 12.4219 16.3174C12.4219 18.1301 13.8931 19.5997 15.708 19.5997Z" fill="#8BC63E"/>
<path opacity="0.1" d="M331.31 123.975C333.74 123.975 335.709 122.008 335.709 119.582C335.709 117.155 333.74 115.188 331.31 115.188C328.881 115.188 326.912 117.155 326.912 119.582C326.912 122.008 328.881 123.975 331.31 123.975Z" fill="#8BC63E"/>
<path opacity="0.1" d="M339.79 113.376C341.563 113.376 343.001 111.94 343.001 110.169C343.001 108.398 341.563 106.962 339.79 106.962C338.017 106.962 336.579 108.398 336.579 110.169C336.579 111.94 338.017 113.376 339.79 113.376Z" fill="#8BC63E"/>
<path opacity="0.1" d="M21.3632 8.78614C23.7923 8.78614 25.7615 6.8193 25.7615 4.39307C25.7615 1.96684 23.7923 0 21.3632 0C18.934 0 16.9648 1.96684 16.9648 4.39307C16.9648 6.8193 18.934 8.78614 21.3632 8.78614Z" fill="#8BC63E"/>
<path opacity="0.1" d="M4.39832 28.8691C6.82745 28.8691 8.79664 26.9023 8.79664 24.4761C8.79664 22.0499 6.82745 20.083 4.39832 20.083C1.9692 20.083 0 22.0499 0 24.4761C0 26.9023 1.9692 28.8691 4.39832 28.8691Z" fill="#8BC63E"/>
<path opacity="0.1" d="M96.6123 235.158C131.744 235.158 160.225 229.302 160.225 222.079C160.225 214.856 131.744 209 96.6123 209C61.4802 209 33 214.856 33 222.079C33 229.302 61.4802 235.158 96.6123 235.158Z" fill="#8BC63E"/>
<path d="M80.5595 229.975C76.4502 230.153 71.0906 225.516 71.0906 225.516L70.8235 220.699C70.8235 220.699 70.4685 220.878 69.7522 219.808C69.2715 219.089 69.9627 216.111 70.4685 214.238C70.7136 213.322 70.9146 212.669 70.9146 212.669L79.9312 215.079L80.3616 216.218L83.8614 225.512C83.8614 225.512 84.6657 229.796 80.5595 229.975Z" fill="#4B6E82"/>
<path d="M121.989 216.33C121.989 216.33 111.543 220.344 108.166 217.221C104.789 214.099 102.272 214.99 102.272 214.99C102.272 214.99 96.3784 215.081 95.216 214.633C94.5311 214.372 94.9019 212.141 95.3291 210.365C95.6182 209.138 95.9323 208.125 95.9323 208.125C95.9323 208.125 106.199 204.645 107.808 206.785C108.291 207.413 108.868 207.964 109.52 208.416C111.38 209.759 114.286 210.977 118.882 212.85C125.203 215.436 121.989 216.33 121.989 216.33Z" fill="#4B6E82"/>
<path opacity="0.1" d="M79.9311 215.082L80.3615 216.221L79.8337 217.228C77.779 218.119 72.6896 217.407 72.6896 217.407C72.6896 217.407 71.7471 216.211 70.459 214.244C70.704 213.327 70.9051 212.675 70.9051 212.675L79.9311 215.082Z" fill="#121212"/>
<path opacity="0.1" d="M109.847 208.837C107.242 214.73 98.389 212.543 95.9291 211.805C95.5238 211.683 95.3008 211.601 95.3008 211.601C95.3008 211.601 95.3165 211.121 95.3228 210.365C95.6118 209.138 95.926 208.125 95.926 208.125C95.926 208.125 106.193 204.645 107.801 206.785C108.285 207.413 108.862 207.964 109.514 208.416C109.612 208.566 109.723 208.707 109.847 208.837Z" fill="#121212"/>
<path d="M109.398 201.348C107.255 205.804 109.847 208.304 109.847 208.304C107.242 214.194 98.3893 212.01 95.9293 211.27C95.5241 211.151 95.301 211.069 95.301 211.069C95.301 211.069 95.4801 204.912 94.8549 201.969C94.2297 199.026 94.3177 186.631 94.6758 185.115C95.034 183.6 95.2099 180.653 95.2099 180.653C95.2099 180.653 94.9429 177.176 95.389 175.482C95.5232 175.024 95.5322 174.539 95.4151 174.076C95.298 173.614 95.059 173.191 94.723 172.852L94.6758 172.805C94.6758 172.805 92.7123 179.495 91.996 180.65C91.2797 181.805 91.0158 187.607 90.9247 188.677C90.8336 189.747 87.1735 198.668 87.1735 198.668C87.1735 198.668 85.7472 202.769 85.4802 203.927C85.2131 205.085 84.1387 208.389 84.1387 208.389L79.8346 216.686C77.78 217.577 72.6905 216.865 72.6905 216.865C72.6905 216.865 71.7103 215.609 70.3688 213.564C69.0273 211.518 68.4053 204.291 68.4053 204.291C68.4053 204.291 73.3157 204.2 72.0653 199.474C70.8149 194.749 73.1366 191.09 73.0486 189.483C72.9607 187.877 74.1199 182.618 74.7451 181.814C75.3703 181.011 75.2792 177.622 75.1001 175.749C74.9211 173.875 75.0122 167.276 75.0122 167.276C75.0122 167.276 75.1913 164.333 76.0835 162.996C76.9757 161.659 76.6207 157.822 76.6207 157.822C76.6207 157.822 78.3141 156.931 77.1548 148.279C75.9955 139.628 79.0398 128.391 79.0398 128.391L79.1435 126.822L79.3068 124.281C79.3068 124.281 104.845 122.674 106.9 124.635C107.437 125.18 107.878 125.811 108.204 126.502C108.907 128.012 109.403 129.608 109.68 131.25L110.752 158.274L111.823 178.162L111.465 193.145C111.465 193.145 111.543 196.886 109.398 201.348Z" fill="#4B6E82"/>
<path opacity="0.1" d="M101.826 148.015L99.1461 205.984L95.929 211.269C95.5238 211.149 95.3007 211.068 95.3007 211.068C95.3007 211.068 95.4798 204.911 94.8546 201.968C94.2294 199.024 94.3174 186.63 94.6755 185.114C95.0337 183.599 95.2096 180.652 95.2096 180.652C95.2096 180.652 94.9426 177.175 95.3887 175.481C95.5229 175.023 95.5319 174.538 95.4148 174.075C95.2977 173.613 95.0587 173.19 94.7227 172.851L94.7666 172.537L101.826 148.015Z" fill="#121212"/>
<path opacity="0.1" d="M72.9679 210.266C72.9679 210.266 79.933 207.502 81.0043 208.384C82.0756 209.265 72.792 210.611 72.792 210.611L72.9679 210.266Z" fill="#121212"/>
<path opacity="0.1" d="M107.345 202.95C107.078 203.041 100.292 205.461 100.918 208.034C101.543 210.607 107.345 202.95 107.345 202.95Z" fill="#121212"/>
<path d="M122.729 98.2018L121.967 89.9818C121.967 89.9818 127.548 82.6773 130.186 84.4197C133.705 86.7429 126.151 99.9742 126.151 99.9742L122.729 98.2018Z" fill="#E6C1C1"/>
<path d="M108.798 86.9707C108.798 86.9707 113.612 88.8044 113.877 95.0608C114.142 101.317 114.436 112.293 114.436 112.293C114.436 112.293 121.604 96.2455 120.604 98.9338C120.031 100.408 127.098 96.9832 126.917 98.5549L125.235 104.833C125.235 104.833 124.992 119.262 118.963 124.376C114.225 128.395 105.548 115.404 105.548 115.404L108.798 86.9707Z" fill="#C6CFDA"/>
<path d="M102.657 73.256C102.657 73.256 101.888 79.144 99.4408 80.9788C96.9941 82.8136 106.887 94.0731 106.887 94.0731C106.887 94.0731 108.637 82.7275 115.126 79.5177C121.615 76.3079 102.657 73.256 102.657 73.256Z" fill="#FFD6D6"/>
<path opacity="0.1" d="M107.358 133.7C106.238 134.038 105.093 134.29 103.933 134.452C103.933 134.452 99.2081 132.422 98.273 133.072C97.3379 133.721 90.9815 132.365 90.9815 132.365C90.9815 132.365 81.5283 129.348 80.434 127.739C80.0893 127.265 79.6774 126.844 79.2111 126.489L80.0267 124.076C80.0267 124.076 105.111 129.134 106.588 131.56C106.964 132.225 107.224 132.948 107.358 133.7Z" fill="#121212"/>
<path d="M109.022 132.286C108.533 133.332 104.072 133.936 104.072 133.936C104.072 133.936 99.3457 131.909 98.4106 132.559C97.4756 133.208 91.1192 131.852 91.1192 131.852C91.1192 131.852 81.6668 128.832 80.5725 127.223C79.4782 125.614 76.4654 124.174 76.4654 124.174C76.4654 124.174 77.9292 112.241 79.2535 109.896C80.5778 107.551 80.8107 100.2 81.0801 97.6412C81.3495 95.082 84.654 88.6971 86.7597 88.0853C88.8654 87.4736 92.4415 84.4815 94.2861 83.7998C95.8418 83.2258 97.607 82.4156 98.1255 82.1679L98.2775 82.0982C98.2775 82.0982 99.0753 80.1646 100.385 79.4144C101.696 78.6642 109.179 88.7649 109.179 88.7649C109.179 88.7649 109.09 89.3647 110.03 88.4407C110.242 88.2342 111.011 90.3765 111.025 91.1989C111.025 91.1989 113.775 101.633 113.6 103.584C113.425 105.535 113.152 111.982 113.012 113.536C112.976 113.936 112.726 115.305 112.373 117.133C112.303 117.491 112.224 117.87 112.148 118.265C111.541 121.293 110.729 125.149 110.084 128.055C109.996 128.383 109.939 128.705 109.867 129.011C109.641 130.116 109.359 131.21 109.022 132.286Z" fill="#DCE6F2"/>
<path opacity="0.1" d="M82.4229 100.156C82.4229 100.156 84.8197 105.437 85.985 105.75C87.1502 106.062 82.4229 100.156 82.4229 100.156Z" fill="#121212"/>
<path opacity="0.1" d="M87.4226 111.47C87.4226 111.47 79.9026 116.241 80.3676 117.613C80.8326 118.985 87.4226 111.47 87.4226 111.47Z" fill="#121212"/>
<path opacity="0.1" d="M79.7768 122.926C79.7768 122.926 88.4094 117.413 89.3878 114.976L79.7768 122.926Z" fill="#121212"/>
<path opacity="0.1" d="M88.0465 125.692C88.0465 125.692 96.836 123.684 98.3481 120.626C99.8602 117.569 88.0465 125.692 88.0465 125.692Z" fill="#121212"/>
<path opacity="0.1" d="M108.339 89.0292L106.579 91.3254L108.133 92.6415L108.573 97.9897C108.573 97.9897 110.813 108.907 109.277 113.863C107.741 118.818 106.792 126.63 106.792 126.63L109.71 126.859L112.345 111.781C112.752 109.446 112.779 107.06 112.423 104.716C111.563 99.0411 109.943 88.5558 109.682 88.4858C109.327 88.3907 109.541 88.5877 109.541 88.5877L108.339 89.0292Z" fill="#121212"/>
<path d="M108.668 88.8367L106.907 91.1359L108.464 92.4528L108.901 97.8003C108.901 97.8003 111.141 108.718 109.605 113.673C108.069 118.628 107.121 126.44 107.121 126.44L110.041 126.671L112.674 111.591C113.083 109.257 113.11 106.871 112.755 104.528C111.895 98.8494 110.274 88.3671 110.016 88.298C109.658 88.2021 109.872 88.3991 109.872 88.3991L108.668 88.8367Z" fill="#494949"/>
<path d="M129.886 90.28C129.642 92.2044 127.554 96.8253 126.692 98.6607L126.311 99.4382L120.917 99.3575C120.746 98.9047 120.598 98.4354 120.474 97.9525C119.832 95.5042 119.92 94.2723 123.589 89.3808C131.012 83.7856 130.179 87.8422 129.886 90.28Z" fill="#FFD6D6"/>
<path opacity="0.1" d="M109.854 129.02C109.018 128.939 108.208 128.852 107.474 128.752C103.39 128.214 95.2535 121.047 95.2535 121.047C95.2535 121.047 86.3663 108.416 85.4911 98.488C84.6159 88.5597 92.2234 89.1427 92.2234 89.1427C95.3704 88.3227 100.149 94.2422 100.799 95.1797C101.449 96.1172 101.678 98.1148 101.299 99.2608C100.921 100.407 102.532 102.43 102.532 102.43C102.532 102.43 104.368 109.293 105.036 110.164C105.703 111.035 105.742 111.669 105.705 112.838C105.668 114.007 107.69 115.517 108.679 115.711C109.668 115.904 110.716 116.604 110.578 117.119C110.467 117.535 111.361 117.995 112.123 118.271C111.466 121.646 110.531 126.047 109.854 129.02Z" fill="#121212"/>
<path opacity="0.1" d="M110.072 128.063C109.44 127.997 108.833 127.929 108.268 127.855C104.184 127.316 96.0504 120.151 96.0504 120.151C96.0504 120.151 87.1631 107.52 86.288 97.5915C85.4128 87.6632 93.0203 88.2462 93.0203 88.2462C96.1672 87.4262 100.943 93.3449 101.593 94.2824C102.243 95.2199 102.472 97.2175 102.096 98.3643C101.721 99.5111 103.325 101.533 103.325 101.533C103.325 101.533 105.162 108.396 105.83 109.266C106.497 110.137 106.535 110.771 106.502 111.941C106.468 113.112 108.487 114.618 109.475 114.814C110.464 115.011 111.513 115.708 111.375 116.223C111.293 116.526 111.779 116.874 112.353 117.135C112.283 117.493 112.205 117.871 112.128 118.267C111.53 121.3 110.718 125.156 110.072 128.063Z" fill="#121212"/>
<path opacity="0.1" d="M120.434 98.18L126.483 98.4607L126.461 98.7795L126.099 99.4399L120.874 99.3731C120.705 98.9885 120.558 98.59 120.434 98.18Z" fill="#121212"/>
<path d="M92.3623 88.6235C92.3623 88.6235 84.7548 88.0405 85.63 97.9688C86.5051 107.897 95.3916 120.531 95.3916 120.531C95.3916 120.531 103.526 127.694 107.612 128.236C111.698 128.779 119.564 116.773 121.238 113.952C124.07 109.18 126.304 98.9087 126.304 98.9087L122.475 95.8122L122.216 96.7781L120.862 97.9682C120.862 97.9682 119.931 100.164 119.249 100.124C118.567 100.084 116.636 104.083 116.636 104.083C116.636 104.083 114.546 109.217 113.763 109.007C112.98 108.797 110.529 113.351 110.667 112.836C110.805 112.321 109.806 115.398 108.829 115.211C107.851 115.023 105.803 113.5 105.834 112.316C105.865 111.132 105.832 110.516 105.165 109.645C104.497 108.774 102.661 101.909 102.661 101.909C102.661 101.909 101.053 99.8859 101.428 98.7422C101.803 97.5984 101.579 95.5956 100.929 94.658C100.279 93.7205 95.4902 87.8016 92.3623 88.6235Z" fill="#DCE6F2"/>
<path opacity="0.1" d="M105.419 114.422C105.419 114.422 101.892 116.456 102.464 117.162L105.419 114.422Z" fill="#121212"/>
<path opacity="0.1" d="M107.805 117.415C107.805 117.415 103.437 119.224 104.356 119.678C105.275 120.132 107.805 117.415 107.805 117.415Z" fill="#121212"/>
<path opacity="0.1" d="M100.552 119.892C101.001 120.291 107.467 126.942 110.398 127.656L100.552 119.892Z" fill="#121212"/>
<path opacity="0.1" d="M109.294 89.3514C109.294 89.3514 106.74 93.4457 106.221 93.3067C105.814 93.1977 100.466 85.8457 98.239 82.7605L98.391 82.6907C98.391 82.6907 99.1858 80.7564 100.496 80.0061C101.806 79.2559 109.294 89.3514 109.294 89.3514Z" fill="#121212"/>
<path d="M109.172 88.7645C109.172 88.7645 106.621 92.8596 106.102 92.7205C105.692 92.6108 100.344 85.2588 98.1169 82.1735L98.2689 82.1038C98.2689 82.1038 99.0667 80.1703 100.377 79.42C101.687 78.6698 109.172 88.7645 109.172 88.7645Z" fill="#DCE6F2"/>
<path opacity="0.1" d="M117.379 79.2163C115.377 80.9733 112.759 81.8622 110.1 81.6877C107.441 81.5132 104.959 80.2895 103.2 78.2857C101.658 72.7756 99.9424 67.7682 104.114 64.1061C105.094 63.1746 106.252 62.4509 107.519 61.9783C108.786 61.5057 110.136 61.294 111.487 61.3559C112.839 61.4178 114.164 61.7521 115.384 62.3385C116.603 62.925 117.692 63.7517 118.586 64.769C119.479 65.7863 120.157 66.9732 120.581 68.2587C121.004 69.5441 121.164 70.9016 121.05 72.2496C120.937 73.5976 120.552 74.9085 119.919 76.1036C119.287 77.2987 118.419 78.3535 117.368 79.2045L117.379 79.2163Z" fill="#121212"/>
<path d="M120.023 77.1138C118.714 79.0788 116.751 80.5177 114.482 81.1766C112.214 81.8356 109.784 81.6724 107.622 80.7157C105.46 79.759 103.704 78.0704 102.665 75.9476C101.626 73.8247 101.369 71.4041 101.941 69.1125C102.513 66.8209 103.876 64.8056 105.79 63.422C107.704 62.0383 110.046 61.3752 112.403 61.5496C114.76 61.724 116.981 62.7247 118.674 64.3752C120.367 66.0257 121.423 68.22 121.656 70.5711C121.882 72.8757 121.306 75.187 120.023 77.1138Z" fill="#FFD6D6"/>
<path opacity="0.1" d="M120.848 73.1436C120.686 73.0949 120.533 73.0186 120.396 72.9181C119.436 72.2099 119.313 70.5532 118.171 70.2268C117.472 70.0296 116.763 70.4636 116.167 70.8784C115.129 71.5994 114.098 72.3149 113.074 73.0249C112.723 73.2933 112.335 73.5099 111.922 73.668C110.75 74.0405 109.458 73.3728 108.658 72.4325C108.313 72.0917 108.117 71.6286 108.111 71.144C108.134 70.8362 108.288 70.5459 108.281 70.234C108.233 68.1861 105.496 69.9533 105.081 70.8694C104.396 72.3574 104.872 75.0875 102.788 75.596C102.445 75.6744 102.087 75.6517 101.757 75.5306C101.122 74.0975 100.83 72.5362 100.906 70.9712C100.981 69.4062 101.422 67.881 102.192 66.5173C102.962 65.1537 104.04 63.9895 105.341 63.1177C106.642 62.2458 108.129 61.6906 109.683 61.4962C111.237 61.3019 112.816 61.4739 114.293 61.9984C115.77 62.523 117.104 63.3855 118.189 64.5172C119.274 65.6489 120.079 67.0184 120.541 68.5162C121.003 70.014 121.108 71.5987 120.848 73.1436Z" fill="#121212"/>
<path d="M108.126 70.0447C108.135 70.3522 107.985 70.6457 107.965 70.9537C107.973 71.4382 108.173 71.8999 108.52 72.2387C109.326 73.1738 110.62 73.8353 111.792 73.4488C112.204 73.2913 112.591 73.0736 112.939 72.8028L116.018 70.6364C116.612 70.2179 117.315 69.7769 118.018 69.972C119.151 70.3015 119.296 71.9469 120.26 72.649C120.619 72.8921 121.057 72.9895 121.485 72.9215C121.912 72.8534 122.298 72.625 122.563 72.2827C122.921 71.7835 122.97 71.1258 123.241 70.5703C123.474 70.1719 123.732 69.789 124.014 69.424C125.402 67.3199 124.522 64.272 122.564 62.6838C121.474 61.803 120.128 61.2807 119.057 60.3789C118.289 59.733 117.685 58.9121 116.94 58.2341C116.249 57.6021 115.448 57.103 114.577 56.762C114.359 56.6627 114.121 56.6152 113.882 56.623C113.602 56.6818 113.335 56.7911 113.094 56.9456C111.932 57.5285 110.522 57.336 109.212 57.4542C107.709 57.5941 106.279 58.1722 105.102 59.1169C104.794 59.3497 104.528 59.6343 104.317 59.9578C104.197 60.1531 104.106 60.3723 103.971 60.56C103.56 61.1317 102.812 61.3255 102.186 61.6509C101.391 62.0706 100.756 62.7391 100.377 63.5544C99.1079 66.2971 101.057 69.882 99.4326 72.4325C99.6576 73.2143 100.025 73.9478 100.517 74.5962C101.044 75.2123 101.884 75.6335 102.672 75.4377C104.737 74.926 104.259 72.1889 104.933 70.6986C105.342 69.7754 108.059 67.9857 108.126 70.0447Z" fill="#353045"/>
<path opacity="0.15" d="M100.457 63.4873C99.4635 65.6137 100.393 68.2511 100.098 70.5123C101.089 68.4504 100.139 65.8026 100.457 63.4873Z" fill="#121212"/>
<path opacity="0.15" d="M103.069 73.9737C102.283 74.1668 101.439 73.7331 100.92 73.1184C100.487 72.5472 100.159 71.9033 99.9522 71.2171C99.8465 71.6246 99.6773 72.013 99.4509 72.3678C99.6702 73.1513 100.033 73.8873 100.521 74.5384C101.044 75.1623 101.882 75.5889 102.671 75.3937C103.927 75.0891 104.251 73.9733 104.464 72.8125C104.34 73.1027 104.149 73.3593 103.906 73.5612C103.664 73.763 103.377 73.9044 103.069 73.9737Z" fill="#121212"/>
<path opacity="0.15" d="M122.612 72.284C122.972 71.7826 123.022 71.125 123.289 70.5715C123.522 70.1716 123.781 69.788 124.065 69.4231C124.427 68.8623 124.649 68.2225 124.712 67.5576C124.638 67.7075 124.556 67.8527 124.464 67.9922C124.181 68.3616 123.923 68.7489 123.69 69.1518C123.422 69.7053 123.373 70.3629 123.012 70.8642C122.747 71.2066 122.361 71.435 121.934 71.503C121.506 71.571 121.068 71.4736 120.709 71.2306C119.747 70.5308 119.616 68.8729 118.469 68.5559C117.769 68.3587 117.063 68.7973 116.469 69.2159C115.438 69.9451 114.411 70.6679 113.388 71.3843C113.04 71.6556 112.655 71.874 112.243 72.0327C111.071 72.4148 109.775 71.7554 108.969 70.8202C108.624 70.4811 108.426 70.0207 108.416 69.5376C108.486 69.2362 108.54 68.9313 108.578 68.6242C108.519 66.5746 105.793 68.3593 105.382 69.2801C105.211 69.7102 105.093 70.1595 105.031 70.6182C105.575 69.6719 108.124 68.0524 108.188 70.0468C108.151 70.3534 108.096 70.6575 108.024 70.9578C108.035 71.4418 108.234 71.9027 108.579 72.2428C109.386 73.1779 110.682 73.8374 111.854 73.4553C112.266 73.2962 112.653 73.077 113.001 72.8048C114.034 72.0771 115.06 71.355 116.08 70.6385C116.674 70.2199 117.38 69.7813 118.078 69.9761C119.227 70.2954 119.357 71.9534 120.322 72.651C120.68 72.8908 121.115 72.9863 121.54 72.9182C121.965 72.85 122.348 72.6234 122.612 72.284Z" fill="#121212"/>
<path opacity="0.1" d="M266.612 239.158C301.744 239.158 330.225 233.302 330.225 226.079C330.225 218.856 301.744 213 266.612 213C231.48 213 203 218.856 203 226.079C203 233.302 231.48 239.158 266.612 239.158Z" fill="#8BC63E"/>
<path d="M274.257 229.791C271.511 230.394 267.895 233.136 267.895 233.136C267.895 233.136 260.93 234.608 256.173 233.94C251.417 233.271 252.224 228.119 255.906 226.848C258.46 225.969 261.077 223.801 262.444 222.558C263.047 222.003 263.405 221.617 263.405 221.617L276.735 218.94C276.735 218.94 276.952 219.684 277.254 220.71C277.788 222.521 278.576 225.207 278.878 226.23C279.346 227.852 277.002 229.189 274.257 229.791Z" fill="#494949"/>
<path d="M270.84 219.49C270.84 219.49 265.213 220.093 262.869 218.756C260.526 217.419 257.177 219.559 257.177 219.559C257.177 219.559 247.532 219.358 244.318 218.354C241.104 217.35 244.786 212.392 250.01 212.869C251.914 213.042 253.202 212.624 254.073 212.028C254.982 211.406 255.615 210.457 255.841 209.38L267.151 210.048L268.722 214.052L270.84 219.49Z" fill="#494949"/>
<path opacity="0.1" d="M268.897 215.878C268.897 215.878 255.752 213.732 254.074 212.028C254.983 211.406 255.617 210.457 255.843 209.38L267.153 210.048L268.724 214.052L268.897 215.878Z" fill="#121212"/>
<path d="M249.408 140.765L249.543 160.361C249.543 160.361 250.011 175.078 250.011 177.086C250.011 179.094 250.077 183.572 250.077 183.572C250.077 183.572 251.083 189.057 251.686 190.865C252.289 192.672 252.757 200.906 252.757 200.906C252.757 200.906 254.165 203.181 253.561 204.044C252.958 204.907 255.905 206.786 255.905 206.786C255.905 206.786 254.02 209.397 253.898 211.135C253.775 212.874 268.896 215.343 268.896 215.343L263.005 155.011L258.315 139.896L249.408 140.765Z" fill="#8CAEC5"/>
<path opacity="0.1" d="M249.408 140.765L249.543 160.361C249.543 160.361 250.011 175.078 250.011 177.086C250.011 179.094 250.077 183.572 250.077 183.572C250.077 183.572 251.083 189.057 251.686 190.865C252.289 192.672 252.757 200.906 252.757 200.906C252.757 200.906 254.165 203.181 253.561 204.044C252.958 204.907 255.905 206.786 255.905 206.786C255.905 206.786 254.02 209.397 253.898 211.135C253.775 212.874 268.896 215.343 268.896 215.343L263.005 155.011L258.315 139.896L249.408 140.765Z" fill="#121212"/>
<path opacity="0.1" d="M277.253 220.726C272.877 231.147 262.468 223.104 262.468 223.104C262.468 223.104 262.468 222.904 262.443 222.558C263.047 222.003 263.405 221.617 263.405 221.617L276.735 218.94C276.735 218.94 276.952 219.7 277.253 220.726Z" fill="#121212"/>
<path d="M277.404 219.827C273.116 230.809 262.469 222.569 262.469 222.569C262.469 222.569 262.133 216.883 262.805 214.276C263.477 211.668 262.067 203.839 262.067 203.839C262.067 203.839 261.262 196.882 260.527 195.279C259.792 193.675 259.858 190.462 259.858 190.195C259.858 189.929 260.125 187.786 259.522 186.314C258.919 184.842 258.579 181.23 258.579 181.23C258.579 181.23 258.579 176.147 257.976 173.138L255.9 162.783L252.148 141.577L253.32 141.376L274.316 137.698C274.316 137.698 278.268 157.781 276.927 159.839C276.638 160.291 276.383 161.28 276.173 162.554C275.406 167.11 275.12 175.29 275.12 175.29C275.12 175.29 277.731 179.37 276.729 182.247C275.727 185.125 277.671 189.872 277.671 189.872C277.671 189.872 278.274 208.602 277.134 210.476C275.994 212.349 277.404 219.827 277.404 219.827Z" fill="#8CAEC5"/>
<path opacity="0.1" d="M271.173 167.05C271.173 167.317 271.509 170.731 272.847 171.932C274.186 173.134 271.173 167.05 271.173 167.05Z" fill="#121212"/>
<path opacity="0.1" d="M262.201 179.155C262.201 179.155 263.807 183.57 270.168 185.378C276.53 187.185 262.201 179.155 262.201 179.155Z" fill="#121212"/>
<path d="M258.839 79.0227C258.839 79.0227 246.765 98.8947 248.013 91.0487C248.687 86.8233 246.462 82.789 244.246 79.9767C243.122 78.5451 241.858 77.2288 240.473 76.0471C240.473 76.0471 252.534 63.2861 253.033 69.7827C253.147 71.2974 253.559 72.7744 254.246 74.129C255.276 76.1662 256.87 77.8647 258.839 79.0227Z" fill="#FBBEBE"/>
<path d="M238.396 105.627L230.987 100.14C230.987 100.14 228.642 109.294 226.92 109.275C226.92 109.275 245.456 134.274 244.189 130.973L245.619 120.528L240.527 90.2658L238.396 105.627Z" fill="#6B9C2E"/>
<path d="M260.788 80.7362C260.788 80.7362 259.348 83.2607 259.126 83.4915C258.905 83.7223 258.691 108.376 258.655 108.671C258.619 108.965 256.925 131.569 256.925 131.569L247.65 139.087L242.621 113.063L245.41 90.016C245.41 90.016 247.281 86.5691 247.823 85.3475C248.366 84.1258 256.686 75.6352 256.686 75.6352L259.136 78.6836L260.788 80.7362Z" fill="#F0F3F7"/>
<path opacity="0.1" d="M258.998 79.2637L248.95 90.5988L247.679 85.9259C248.224 84.7036 256.542 76.2167 256.542 76.2167L258.998 79.2637Z" fill="#121212"/>
<path d="M259.141 78.682L249.092 90.0172L247.828 85.346C248.373 84.1206 256.691 75.6337 256.691 75.6337L259.141 78.682Z" fill="#F0F3F7"/>
<path d="M246.945 83.339L247.826 85.3458L245.763 88.6853L246.811 83.4018C246.811 83.4018 242.948 87.6485 241.763 88.8108C240.579 89.9732 239.856 93.1575 239.983 93.9525C240.11 94.7475 240.639 107.045 240.639 107.045C240.639 107.045 240.005 111.786 240.748 112.92C241.49 114.054 247.478 153.787 247.478 153.787C247.698 152.938 248.102 152.149 248.662 151.474C249.222 150.799 249.923 150.256 250.717 149.882L244.394 127.038C244.394 127.038 242.158 111.391 242.178 111.18C242.197 110.97 243.069 101.404 243.069 101.404L246.945 83.339Z" fill="#6B9C2E"/>
<path opacity="0.1" d="M248.149 85.5479L248.92 89.8781C248.92 89.8781 248.107 99.7042 247.473 101.426C246.838 103.149 245.907 112.764 245.907 112.764L247.779 128.668L245.205 130.631L243.195 128.351L242.121 112.824C242.121 112.824 243.668 99.161 244.025 97.705L245.724 90.0677L248.149 85.5479Z" fill="#121212"/>
<path d="M247.827 85.3475L248.601 89.6771C248.601 89.6771 247.789 99.5032 247.151 101.226C246.514 102.949 245.588 112.563 245.588 112.563L247.469 128.462L244.894 130.422L242.862 128.144L241.788 112.617C241.788 112.617 243.334 98.9505 243.689 97.4982L245.415 89.8646L247.827 85.3475Z" fill="#494949"/>
<path opacity="0.1" d="M277.954 153.34C277.773 153.845 277.745 154.866 277.824 156.154C267.159 162.2 257.126 156.865 257.126 156.865C255.328 153.666 253.704 150.373 252.261 147.001C251.78 145.842 251.292 143.495 250.83 140.6L270.478 132.337C270.478 132.337 278.799 151.019 277.954 153.34Z" fill="#121212"/>
<path d="M276.366 92.2916C276.233 94.1084 277.218 97.5172 277.218 97.5172L277.585 120.764C277.585 120.764 279.205 138.37 279.335 140.742C279.464 143.114 281.107 153.306 281.107 153.306C269.278 162.872 256.988 156.349 256.988 156.349C255.191 153.15 253.566 149.856 252.123 146.482C250.582 142.759 248.965 126.803 248.303 119.702C248.109 117.599 247.999 116.273 247.999 116.273L248.52 102.773C248.52 102.773 250.279 91.0825 251.132 87.5947C251.985 84.1069 256.675 75.6381 256.675 75.6381C257.343 74.964 258.992 76.4282 260.284 77.8098C261.261 78.8548 262.041 79.8547 262.041 79.8547C262.041 79.8547 270.65 81.4535 272.237 82.9963C273.824 84.5391 274.484 88.3152 274.66 88.4809C274.836 88.6466 276.502 90.4772 276.366 92.2916Z" fill="#6B9C2E"/>
<path opacity="0.1" d="M256.089 88.6214C256.089 88.6214 257.467 91.9437 256.199 93.3313C254.975 94.6732 249.006 118.418 248.636 119.899C248.441 117.794 248.332 116.467 248.332 116.467L248.853 102.97C248.853 102.97 250.615 91.2791 251.464 87.789C252.313 84.2989 257.01 75.8317 257.01 75.8317C257.678 75.1576 259.324 76.6225 260.617 78.0041C259.881 81.227 258.216 87.382 256.089 88.6214Z" fill="#121212"/>
<path d="M255.769 88.4238C255.769 88.4238 257.144 91.7467 255.879 93.1336C254.613 94.5204 248.689 118.216 248.309 119.7C248.115 117.597 248.005 116.271 248.005 116.271L248.526 102.771C248.526 102.771 250.285 91.0805 251.138 87.5927C251.991 84.1049 256.681 75.6361 256.681 75.6361C257.349 74.962 258.998 76.4262 260.291 77.8078C259.56 81.0263 257.893 87.185 255.769 88.4238Z" fill="#6B9C2E"/>
<path d="M231.159 107.92L231.213 99.6647C231.213 99.6647 225.026 92.8656 222.547 94.8279C219.24 97.4443 227.901 109.979 227.901 109.979L231.159 107.92Z" fill="#E6C1C1"/>
<path d="M229.696 97.116C231.248 98.2788 234.234 102.377 235.404 104.034L235.892 104.749L233.157 109.399C232.679 109.324 232.198 109.221 231.716 109.09C229.271 108.439 228.243 107.754 225.803 102.146C224.606 92.9285 227.721 95.6573 229.696 97.116Z" fill="#FFD6D6"/>
<path opacity="0.1" d="M272.604 83.2362C271.536 82.7789 270.345 82.6978 269.225 83.0062C268.105 83.3146 267.124 83.9941 266.443 84.9333C264.19 87.9788 260.288 93.5243 260.039 96.1138C259.681 99.7828 258.74 105.794 258.74 105.794C258.74 105.794 259.675 107.178 257.176 108.727C254.677 110.275 246.739 103.544 246.739 103.544C246.739 103.544 240.677 101.262 239.496 103.279C238.316 105.296 234.905 111.387 234.905 111.387L248.896 120.153C248.896 120.153 247.749 121.126 249.342 122.102L260.873 127.673L269.048 125.292L274.605 120.431C274.605 120.431 274.254 118.458 275.371 112.563C276.487 106.668 274.722 101.892 274.722 101.892L275.663 98.1351C275.663 98.1351 279.046 86.1308 272.604 83.2362Z" fill="#121212"/>
<path d="M273.222 83.4825C272.161 83.0276 270.976 82.9522 269.861 83.2685C268.746 83.5849 267.767 84.2743 267.084 85.2237C264.827 88.3064 260.917 93.9184 260.657 96.5321C260.282 100.234 259.323 110.412 259.323 110.412C248.575 107.774 246.628 105.604 235.379 102.377C235.379 102.377 230.638 111.653 232.22 112.632L262.396 126.158L270.275 122.749C270.275 122.749 272.483 120.112 273.618 114.159C274.752 108.206 273.963 101.962 273.963 101.962L274.751 100.082C274.751 100.082 279.625 86.3745 273.222 83.4825Z" fill="#6B9C2E"/>
<path opacity="0.1" d="M261.76 101.196C261.76 101.196 265.152 109.518 267.911 108.759C270.67 108 261.76 101.196 261.76 101.196Z" fill="#121212"/>
<path opacity="0.1" d="M265.384 96.71C265.901 97.0795 268.61 105.125 271.282 105.094C273.954 105.064 265.384 96.71 265.384 96.71Z" fill="#121212"/>
<path opacity="0.1" d="M263.243 108.438C263.243 108.438 262.402 112.309 266.463 112.999C270.524 113.689 263.243 108.438 263.243 108.438Z" fill="#121212"/>
<path opacity="0.1" d="M246.882 83.6622L245.824 88.9478L247.89 85.6076L246.882 83.6622Z" fill="#121212"/>
<path d="M246.822 83.4014L245.765 88.687L247.831 85.3468L246.822 83.4014Z" fill="#F0F3F7"/>
<path opacity="0.1" d="M251.833 66.7845C252.307 68.2226 253.055 69.5599 254.036 70.7196C253.908 71.3306 252.759 70.6568 252.516 71.2367C251.86 72.8391 251.755 75.5558 250.284 76.6647C249.009 77.6272 247.518 78.2653 245.932 78.5269C244.517 77.3873 242.997 76.389 241.394 75.5468C241.394 75.5468 249.789 60.6189 251.833 66.7845Z" fill="#121212"/>
<path d="M251.771 61.8097C253.014 63.4579 253.754 65.4272 253.897 67.4686C254.04 69.51 253.581 71.5318 252.576 73.2783C251.572 75.0248 250.068 76.4176 248.254 77.2805C246.441 78.1435 244.399 78.4378 242.388 78.1263C240.377 77.8148 238.486 76.9115 236.954 75.5305C235.423 74.1496 234.32 72.353 233.785 70.3681C233.25 68.3832 233.307 66.299 233.948 64.3792C234.59 62.4593 235.787 60.79 237.389 59.5823C238.453 58.78 239.668 58.2012 240.967 57.8789C242.265 57.5567 243.621 57.4973 244.956 57.7041C246.292 57.911 247.581 58.38 248.751 59.0845C249.92 59.7889 250.946 60.7149 251.771 61.8097Z" fill="#FBBEBE"/>
<path opacity="0.1" d="M251.77 61.8102C252.875 63.2749 253.585 64.9969 253.828 66.8024C254.072 68.608 253.84 70.4333 253.157 72.0943C252.49 72.1771 251.81 72.1341 251.151 71.9674C250.466 71.7926 249.737 71.3987 249.552 70.7128C249.404 70.1609 249.652 69.5531 249.431 69.032C249.28 68.725 249.058 68.458 248.784 68.2546C248.382 67.9091 247.985 67.5599 247.588 67.2151C247.248 66.9213 246.802 66.6088 246.399 66.7788C245.997 66.9488 245.933 67.4524 245.83 67.868C245.579 68.8869 244.602 70.1851 243.494 70.341C242.385 70.4969 241.51 68.8809 240.793 68.1921C240.74 68.1252 240.673 68.0704 240.598 68.0315C240.522 67.9927 240.44 67.9708 240.356 67.9673C240.213 68.0143 240.085 68.0972 239.984 68.2085C239.563 68.5261 238.931 68.3929 238.496 68.0688C238.09 67.7092 237.717 67.3128 237.382 66.8849C237.009 66.4863 236.51 66.1435 235.981 66.1922C235.589 66.2714 235.229 66.4583 234.941 66.7326L233.428 67.9013C233.378 65.7287 234.009 63.6144 235.232 61.8592C236.454 60.1039 238.205 58.797 240.235 58.1243C242.266 57.4516 244.473 57.4473 246.542 58.112C248.612 58.7767 250.439 60.0766 251.763 61.8269L251.77 61.8102Z" fill="#121212"/>
<path d="M246.045 67.702C246.148 67.2864 246.225 66.7804 246.616 66.6153C247.007 66.4501 247.464 66.7621 247.8 67.0509L248.995 68.0879C249.27 68.2915 249.494 68.5586 249.646 68.866C249.854 69.4006 249.607 70.004 249.753 70.5578C249.938 71.2437 250.669 71.6357 251.35 71.8098C252.588 72.1208 253.882 71.9979 255.017 71.4616C255.322 71.3317 255.593 71.1368 255.812 70.8898C256.288 70.3151 256.269 69.469 256.193 68.7203C255.857 64.926 255.11 61.0526 253.091 57.7879C252.7 57.107 252.195 56.4965 251.601 55.9836C251.11 55.6069 250.578 55.2891 250.017 55.0367C248.938 54.4686 247.794 54.0458 246.613 53.7792C244.579 53.3868 242.481 53.7856 240.574 54.5237C238.428 55.3513 236.471 56.5931 234.811 58.1811C234.368 58.6059 233.962 59.0411 233.507 59.4354C232.927 59.9183 232.316 60.3632 231.678 60.7675L227.927 63.2495C228.046 63.8321 228.634 64.1866 229.179 64.4039C229.725 64.6212 230.341 64.8095 230.68 65.3002C231.02 65.7909 230.974 66.4146 231.023 67.0065C231.072 67.5983 231.271 68.262 231.819 68.4619C232.367 68.6619 232.902 68.2977 233.346 67.9549L235.138 66.5726C235.428 66.302 235.788 66.1189 236.179 66.0433C236.707 65.9946 237.208 66.34 237.579 66.736C237.916 67.162 238.289 67.5582 238.693 67.92C239.131 68.2422 239.764 68.3823 240.181 68.0596C240.281 67.9465 240.41 67.864 240.555 67.821C240.639 67.824 240.721 67.8454 240.796 67.8839C240.871 67.9223 240.937 67.9767 240.99 68.0433C241.708 68.7321 242.566 70.3565 243.691 70.1922C244.816 70.0278 245.794 68.7208 246.045 67.702Z" fill="#494949"/>
<path opacity="0.1" d="M255.85 69.8601C255.628 70.1051 255.357 70.299 255.053 70.4294C253.919 70.9648 252.626 71.0879 251.39 70.7782C250.704 70.6034 249.973 70.2114 249.791 69.5237C249.642 68.9717 249.89 68.3683 249.669 67.8429C249.517 67.5355 249.293 67.2683 249.018 67.0648L247.824 66.0278C247.484 65.7339 247.04 65.4197 246.64 65.5922C246.239 65.7647 246.172 66.2633 246.069 66.6789C245.817 67.6977 244.84 69.0003 243.732 69.1519C242.624 69.3034 241.749 67.6918 241.031 67.003C240.978 66.9369 240.912 66.8828 240.836 66.8444C240.761 66.8061 240.679 66.7843 240.596 66.7807C240.451 66.8259 240.321 66.9088 240.22 67.0212C239.799 67.3388 239.17 67.2038 238.732 66.8815C238.327 66.5202 237.955 66.1234 237.62 65.6958C237.247 65.3015 236.748 64.9543 236.217 65.0049C235.827 65.082 235.467 65.2649 235.176 65.5341L233.385 66.9164C232.939 67.2524 232.388 67.6207 231.857 67.4234C231.327 67.2262 231.099 66.5491 231.062 65.968C231.025 65.3869 231.058 64.7568 230.719 64.2617C230.38 63.7666 229.766 63.5809 229.218 63.3654C228.912 63.2525 228.625 63.0884 228.371 62.8801L227.828 63.2386C227.947 63.8169 228.532 64.1732 229.08 64.393C229.628 64.6128 230.244 64.7967 230.579 65.2868C230.914 65.7769 230.877 66.4019 230.922 66.9931C230.966 67.5842 231.172 68.2468 231.72 68.4467C232.268 68.6466 232.802 68.2868 233.249 67.9422L235.039 66.5574C235.33 66.2886 235.69 66.1065 236.082 66.0306C236.613 65.9801 237.113 66.3254 237.485 66.7215C237.819 67.1494 238.192 67.5458 238.599 67.9054C239.032 68.227 239.669 68.3677 240.085 68.0426C240.187 67.9321 240.315 67.85 240.459 67.804C240.542 67.8078 240.625 67.8299 240.7 67.8687C240.776 67.9075 240.842 67.9621 240.895 68.0287C241.611 68.715 242.471 70.342 243.596 70.1776C244.721 70.0133 245.691 68.7161 245.933 67.7046C246.036 67.289 246.115 66.7812 246.505 66.6136C246.894 66.4459 247.352 66.7604 247.686 67.0511L248.885 68.0887C249.16 68.293 249.383 68.5608 249.534 68.8686C249.743 69.3989 249.494 70.0066 249.641 70.5561C249.826 71.242 250.556 71.6384 251.24 71.8106C252.483 72.1205 253.783 71.9928 254.92 71.4489C255.224 71.3186 255.495 71.1246 255.717 70.8796C256.037 70.4328 256.184 69.8812 256.133 69.3242C256.072 69.5193 255.976 69.7008 255.85 69.8601Z" fill="#121212"/>
</svg>
