<svg width="367" height="282" viewBox="0 0 367 282" fill="none" xmlns="http://www.w3.org/2000/svg">
<path opacity="0.1" d="M290.987 231.344C296.342 234.146 302.892 232.442 308.976 232.639C309.81 232.667 310.69 232.75 311.359 233.231C312.029 233.713 312.363 234.502 312.815 235.174C314.519 237.671 318.013 238.475 321.065 238.052C324.117 237.63 326.919 236.224 329.8 235.153C334.78 233.307 340.473 232.466 345.386 234.482C345.821 234.713 346.307 234.824 346.795 234.804C347.873 234.641 348.191 233.297 348.947 232.532C350.306 231.146 353.258 231.527 353.857 229.705C354.192 228.635 353.402 227.541 352.518 226.814C349.171 224.022 344.359 223.561 339.961 223.994C335.563 224.427 331.259 225.608 326.832 225.615C321.329 225.615 316.011 223.793 310.563 223.049C306.788 222.529 302.668 222.595 299.127 224.119C295.301 225.781 294.461 229.467 290.987 231.344Z" fill="#8BC63E"/>
<path opacity="0.1" d="M3.56348 143.371C9.37097 168.134 21.6651 189.54 41.0914 199.916C81.4729 221.479 172.536 210.356 240.497 197.58C274.838 191.146 306.01 173.369 328.994 147.112L3.56348 143.371Z" fill="#8BC63E"/>
<path opacity="0.1" d="M360.518 26.5914H323.18C322.324 26.5914 321.504 26.2571 320.899 25.6621C320.294 25.0671 319.954 24.2601 319.954 23.4186C319.954 22.5771 320.294 21.7701 320.899 21.1751C321.504 20.5801 322.324 20.2458 323.18 20.2458H329.635C328.797 20.2192 328.002 19.8732 327.419 19.2807C326.836 18.6883 326.51 17.896 326.51 17.0714C326.51 16.2467 326.836 15.4544 327.419 14.862C328.002 14.2696 328.797 13.9235 329.635 13.8969H325.025C324.188 13.8704 323.393 13.5243 322.81 12.9319C322.227 12.3394 321.9 11.5471 321.9 10.7225C321.9 9.89784 322.227 9.10553 322.81 8.51311C323.393 7.92068 324.188 7.5746 325.025 7.54804H344.514C340.189 5.57122 335.135 4.16439 329.31 3.42967C276.171 -3.28492 257.199 1.15633 250.506 5.73596C242.249 11.3699 233.038 15.5146 223.193 17.5112C190.407 24.1632 129.092 32.1693 73.5186 14.9512C45.8975 6.38501 25.371 20.852 13.0645 45.0252H367C366.537 37.9976 365.154 31.517 362.615 25.8336C362.031 26.3256 361.287 26.5946 360.518 26.5914Z" fill="#8BC63E"/>
<path opacity="0.1" d="M0.803509 91.2363C-0.630157 105.778 -0.143721 120.447 2.25013 134.861L329.977 146.925C339.1 136.364 346.759 124.608 352.748 111.979L0.803509 91.2363ZM130.423 122.358H123.971C124.826 122.358 125.646 122.7 126.251 123.309C126.856 123.917 127.195 124.743 127.195 125.603C127.195 126.464 126.856 127.29 126.251 127.898C125.646 128.507 124.826 128.849 123.971 128.849H86.643C85.7878 128.849 84.9676 128.507 84.3628 127.898C83.758 127.29 83.4183 126.464 83.4183 125.603C83.4183 124.743 83.758 123.917 84.3628 123.309C84.9676 122.7 85.7878 122.358 86.643 122.358H93.0959C92.2582 122.331 91.4638 121.977 90.8808 121.371C90.2977 120.765 89.9718 119.955 89.9718 119.111C89.9718 118.268 90.2977 117.457 90.8808 116.851C91.4638 116.245 92.2582 115.891 93.0959 115.864H88.4881C87.6504 115.837 86.8561 115.483 86.273 114.877C85.69 114.271 85.364 113.461 85.364 112.617C85.364 111.774 85.69 110.963 86.273 110.357C86.8561 109.751 87.6504 109.397 88.4881 109.37H125.816C126.653 109.397 127.448 109.751 128.031 110.357C128.614 110.963 128.94 111.774 128.94 112.617C128.94 113.461 128.614 114.271 128.031 114.877C127.448 115.483 126.653 115.837 125.816 115.864H130.423C131.261 115.891 132.055 116.245 132.639 116.851C133.222 117.457 133.548 118.268 133.548 119.111C133.548 119.955 133.222 120.765 132.639 121.371C132.055 121.977 131.261 122.331 130.423 122.358Z" fill="#8BC63E"/>
<path opacity="0.1" d="M366.835 45.0264L9.73432 53.8393C5.38954 65.1605 2.52533 77.9629 1.18848 91.2365H360.578C362.924 83.4398 364.659 75.4676 365.769 67.3942C366.838 59.5948 367.266 52.053 366.835 45.0264ZM73.6861 73.892H67.2458C68.0994 73.892 68.918 74.2359 69.5216 74.8481C70.1252 75.4602 70.4643 76.2905 70.4643 77.1562C70.4643 78.0219 70.1252 78.8521 69.5216 79.4643C68.918 80.0764 68.0994 80.4203 67.2458 80.4203H29.991C29.1374 80.4203 28.3188 80.0764 27.7152 79.4643C27.1116 78.8521 26.7725 78.0219 26.7725 77.1562C26.7725 76.2905 27.1116 75.4602 27.7152 74.8481C28.3188 74.2359 29.1374 73.892 29.991 73.892H36.4313C35.5952 73.8647 34.8024 73.5086 34.2205 72.8991C33.6386 72.2897 33.3132 71.4745 33.3132 70.6261C33.3132 69.7778 33.6386 68.9626 34.2205 68.3531C34.8024 67.7437 35.5952 67.3876 36.4313 67.3603H31.8325C30.9964 67.333 30.2036 66.9769 29.6217 66.3674C29.0398 65.7579 28.7145 64.9428 28.7145 64.0944C28.7145 63.246 29.0398 62.4309 29.6217 61.8214C30.2036 61.2119 30.9964 60.8559 31.8325 60.8286H69.0873C69.9234 60.8559 70.7162 61.2119 71.2981 61.8214C71.88 62.4309 72.2054 63.246 72.2054 64.0944C72.2054 64.9428 71.88 65.7579 71.2981 66.3674C70.7162 66.9769 69.9234 67.333 69.0873 67.3603H73.6861C74.5222 67.3876 75.315 67.7437 75.8969 68.3531C76.4788 68.9626 76.8041 69.7778 76.8041 70.6261C76.8041 71.4745 76.4788 72.2897 75.8969 72.8991C75.315 73.5086 74.5222 73.8647 73.6861 73.892Z" fill="#8BC63E"/>
<path opacity="0.1" fill-rule="evenodd" clip-rule="evenodd" d="M244.667 138.817C243.54 142.553 242.066 146.181 240.263 149.653L240.262 149.656C236.394 156.965 230.21 162.847 222.639 166.42C213.799 170.662 206.991 178.511 202.386 185.328C200.086 188.733 198.341 191.871 197.171 194.159C196.587 195.302 196.146 196.232 195.851 196.876C195.704 197.198 195.594 197.448 195.52 197.617C195.484 197.701 195.456 197.766 195.438 197.809C195.429 197.83 195.422 197.847 195.417 197.857L195.412 197.869L195.411 197.873C195.411 197.873 195.411 197.873 195.097 197.748C194.783 197.623 194.783 197.623 194.783 197.623L194.784 197.622L194.785 197.618L194.791 197.605C194.795 197.594 194.803 197.577 194.812 197.554C194.831 197.509 194.859 197.443 194.897 197.357C194.972 197.184 195.084 196.93 195.233 196.604C195.531 195.953 195.976 195.014 196.566 193.861C197.745 191.556 199.503 188.393 201.821 184.961C206.453 178.105 213.342 170.141 222.342 165.823L222.344 165.822C229.783 162.312 235.859 156.533 239.66 149.351C241.443 145.915 242.902 142.326 244.017 138.629L244.667 138.817Z" fill="#535461"/>
<path opacity="0.1" d="M255.13 133.095C253.243 135.341 243.479 138.63 243.479 138.63C243.479 138.63 244.655 128.879 246.542 126.632C246.972 126.05 247.524 125.557 248.162 125.185C248.801 124.812 249.514 124.567 250.256 124.465C250.999 124.363 251.756 124.406 252.48 124.591C253.204 124.777 253.881 125.101 254.468 125.543C255.055 125.985 255.541 126.537 255.894 127.164C256.248 127.791 256.463 128.479 256.525 129.188C256.588 129.896 256.496 130.609 256.257 131.282C256.017 131.956 255.635 132.576 255.133 133.105L255.13 133.095Z" fill="#8BC63E"/>
<path opacity="0.1" d="M251.348 151.443C248.548 152.375 238.728 150.06 238.728 150.06C238.728 150.06 245.142 142.338 247.942 141.406C248.62 141.127 249.35 140.989 250.085 141.001C250.82 141.013 251.544 141.174 252.214 141.476C252.883 141.777 253.482 142.211 253.975 142.751C254.467 143.292 254.842 143.926 255.076 144.616C255.31 145.306 255.399 146.037 255.336 146.762C255.273 147.487 255.06 148.192 254.71 148.832C254.36 149.472 253.882 150.034 253.303 150.483C252.725 150.933 252.059 151.259 251.348 151.443Z" fill="#8BC63E"/>
<path opacity="0.1" d="M233.691 172.941C230.739 172.337 223.288 165.309 223.288 165.309C223.288 165.309 232.962 161.792 235.913 162.399C237.25 162.766 238.396 163.621 239.118 164.79C239.839 165.959 240.084 167.355 239.801 168.695C239.519 170.035 238.73 171.219 237.596 172.007C236.461 172.795 235.065 173.129 233.691 172.941Z" fill="#8BC63E"/>
<path opacity="0.1" d="M217.202 185.999C214.146 185.896 205.473 180.281 205.473 180.281C205.473 180.281 214.535 175.262 217.591 175.362C218.348 175.343 219.102 175.473 219.805 175.744C220.508 176.015 221.146 176.422 221.679 176.939C222.213 177.455 222.63 178.072 222.907 178.749C223.183 179.427 223.311 180.152 223.285 180.879C223.258 181.607 223.077 182.321 222.752 182.978C222.427 183.636 221.966 184.223 221.396 184.702C220.826 185.182 220.16 185.544 219.439 185.768C218.718 185.991 217.957 186.07 217.202 185.999Z" fill="#8BC63E"/>
<path opacity="0.1" d="M229.326 142.891C229.7 145.928 236.072 154.035 236.072 154.035C236.072 154.035 240.269 144.513 239.892 141.473C239.846 140.714 239.651 139.972 239.319 139.295C238.987 138.617 238.525 138.018 237.962 137.533C237.399 137.049 236.746 136.691 236.044 136.48C235.343 136.269 234.607 136.21 233.882 136.307C233.158 136.404 232.461 136.655 231.833 137.045C231.206 137.434 230.661 137.953 230.234 138.57C229.807 139.187 229.506 139.889 229.35 140.632C229.194 141.375 229.186 142.144 229.326 142.891Z" fill="#8BC63E"/>
<path opacity="0.1" d="M210.583 158.898C211.828 161.559 220.334 167.065 220.334 167.065C220.334 167.065 221.612 157.115 220.367 154.45C219.714 153.261 218.626 152.361 217.325 151.934C216.024 151.507 214.606 151.585 213.361 152.151C212.115 152.717 211.135 153.73 210.619 154.983C210.103 156.236 210.09 157.636 210.583 158.898Z" fill="#8BC63E"/>
<path opacity="0.1" d="M192.517 177.213C193.293 180.138 200.76 187.208 200.76 187.208C200.76 187.208 203.742 177.296 202.97 174.371C202.531 173.044 201.61 171.936 200.394 171.274C199.178 170.612 197.759 170.445 196.426 170.808C195.093 171.17 193.946 172.035 193.22 173.225C192.494 174.415 192.242 175.842 192.517 177.213Z" fill="#8BC63E"/>
<path opacity="0.25" d="M255.13 133.095C253.243 135.341 243.479 138.63 243.479 138.63C243.479 138.63 244.655 128.879 246.542 126.632C246.972 126.05 247.524 125.557 248.162 125.185C248.801 124.812 249.514 124.567 250.256 124.465C250.999 124.363 251.756 124.406 252.48 124.591C253.204 124.777 253.881 125.101 254.468 125.543C255.055 125.985 255.541 126.537 255.894 127.164C256.248 127.791 256.463 128.479 256.525 129.188C256.588 129.896 256.496 130.609 256.257 131.282C256.017 131.956 255.635 132.576 255.133 133.105L255.13 133.095Z" fill="#121212"/>
<path opacity="0.25" d="M251.348 151.443C248.548 152.375 238.728 150.06 238.728 150.06C238.728 150.06 245.142 142.338 247.942 141.406C248.62 141.127 249.35 140.989 250.085 141.001C250.82 141.013 251.544 141.174 252.214 141.476C252.883 141.777 253.482 142.211 253.975 142.751C254.467 143.292 254.842 143.926 255.076 144.616C255.31 145.306 255.399 146.037 255.336 146.762C255.273 147.487 255.06 148.192 254.71 148.832C254.36 149.472 253.882 150.034 253.303 150.483C252.725 150.933 252.059 151.259 251.348 151.443Z" fill="#121212"/>
<path opacity="0.25" d="M233.691 172.941C230.739 172.337 223.288 165.309 223.288 165.309C223.288 165.309 232.962 161.792 235.913 162.399C237.25 162.766 238.396 163.621 239.118 164.79C239.839 165.959 240.084 167.355 239.801 168.695C239.519 170.035 238.73 171.219 237.596 172.007C236.461 172.795 235.065 173.129 233.691 172.941Z" fill="#121212"/>
<path opacity="0.25" d="M217.202 185.999C214.146 185.896 205.473 180.281 205.473 180.281C205.473 180.281 214.535 175.262 217.591 175.362C218.348 175.343 219.102 175.473 219.805 175.744C220.508 176.015 221.146 176.422 221.679 176.939C222.213 177.455 222.63 178.072 222.907 178.749C223.183 179.427 223.311 180.152 223.285 180.879C223.258 181.607 223.077 182.321 222.752 182.978C222.427 183.636 221.966 184.223 221.396 184.702C220.826 185.182 220.16 185.544 219.439 185.768C218.718 185.991 217.957 186.07 217.202 185.999Z" fill="#121212"/>
<path opacity="0.25" d="M229.326 142.891C229.7 145.928 236.072 154.035 236.072 154.035C236.072 154.035 240.269 144.513 239.892 141.473C239.846 140.714 239.651 139.972 239.319 139.295C238.987 138.617 238.525 138.018 237.962 137.533C237.399 137.049 236.746 136.691 236.044 136.48C235.343 136.269 234.607 136.21 233.882 136.307C233.158 136.404 232.461 136.655 231.833 137.045C231.206 137.434 230.661 137.953 230.234 138.57C229.807 139.187 229.506 139.889 229.35 140.632C229.194 141.375 229.186 142.144 229.326 142.891Z" fill="#121212"/>
<path opacity="0.25" d="M210.583 158.898C211.828 161.559 220.334 167.065 220.334 167.065C220.334 167.065 221.612 157.115 220.367 154.45C219.714 153.261 218.626 152.361 217.325 151.934C216.024 151.507 214.606 151.585 213.361 152.151C212.115 152.717 211.135 153.73 210.619 154.983C210.103 156.236 210.09 157.636 210.583 158.898Z" fill="#121212"/>
<path opacity="0.25" d="M192.517 177.213C193.293 180.138 200.76 187.208 200.76 187.208C200.76 187.208 203.742 177.296 202.97 174.371C202.531 173.044 201.61 171.936 200.394 171.274C199.178 170.612 197.759 170.445 196.426 170.808C195.093 171.17 193.946 172.035 193.22 173.225C192.494 174.415 192.242 175.842 192.517 177.213Z" fill="#121212"/>
<path opacity="0.1" fill-rule="evenodd" clip-rule="evenodd" d="M229.14 90.0508C229.345 93.971 229.185 97.9015 228.662 101.793L228.661 101.796C227.483 110.014 223.628 117.633 217.676 123.51C210.75 130.436 206.973 140.127 204.93 148.116C203.909 152.107 203.324 155.663 202.993 158.22C202.828 159.499 202.726 160.528 202.666 161.236C202.636 161.59 202.617 161.864 202.605 162.049C202.599 162.142 202.594 162.212 202.592 162.259C202.59 162.282 202.589 162.3 202.589 162.311L202.588 162.324L202.588 162.328C202.588 162.328 202.588 162.328 202.249 162.312C201.909 162.296 201.909 162.296 201.909 162.296L201.909 162.291L201.91 162.277C201.911 162.264 201.912 162.246 201.913 162.221C201.916 162.173 201.92 162.1 201.926 162.006C201.939 161.817 201.959 161.539 201.989 161.18C202.05 160.463 202.152 159.425 202.319 158.136C202.652 155.558 203.242 151.975 204.271 147.953C206.326 139.918 210.142 130.09 217.192 123.04L217.194 123.039C223.042 117.264 226.83 109.778 227.988 101.704C228.506 97.8533 228.664 93.9642 228.461 90.0852L229.14 90.0508Z" fill="#535461"/>
<path opacity="0.1" d="M237.125 82.095C236.164 84.8895 228.361 91.2367 228.361 91.2367C228.361 91.2367 226.133 81.3771 227.091 78.5826C227.285 77.8756 227.621 77.2163 228.078 76.6453C228.534 76.0743 229.102 75.6039 229.747 75.263C230.391 74.9221 231.097 74.718 231.823 74.6634C232.548 74.6087 233.277 74.7046 233.964 74.9451C234.651 75.1856 235.282 75.5657 235.818 76.0619C236.354 76.558 236.783 77.1597 237.079 77.8297C237.376 78.4997 237.533 79.2239 237.541 79.9576C237.548 80.6912 237.407 81.4186 237.125 82.095Z" fill="#8BC63E"/>
<path opacity="0.1" d="M240.483 100.029C238.125 101.967 228.039 103.084 228.039 103.084C228.039 103.084 231.526 92.9764 233.867 91.0419C234.999 90.225 236.382 89.8952 237.735 90.1194C239.088 90.3437 240.309 91.1052 241.152 92.2493C241.994 93.3934 242.393 94.8343 242.269 96.2793C242.145 97.7243 241.506 99.065 240.483 100.029Z" fill="#8BC63E"/>
<path opacity="0.1" d="M230.819 125.574C227.855 125.923 218.537 122.214 218.537 122.214C218.537 122.214 226.416 116.469 229.367 116.129C230.743 116.047 232.102 116.427 233.17 117.194C234.238 117.961 234.934 119.057 235.117 120.259C235.3 121.461 234.956 122.679 234.155 123.666C233.355 124.653 232.157 125.335 230.806 125.574H230.819Z" fill="#8BC63E"/>
<path opacity="0.1" d="M219.204 144.371C216.397 145.245 206.66 142.711 206.66 142.711C206.66 142.711 213.216 135.119 216.027 134.246C216.708 133.985 217.437 133.865 218.167 133.895C218.897 133.925 219.613 134.103 220.271 134.42C220.929 134.736 221.514 135.183 221.991 135.733C222.469 136.283 222.827 136.925 223.045 137.619C223.263 138.312 223.335 139.043 223.258 139.766C223.18 140.488 222.955 141.187 222.595 141.82C222.235 142.452 221.748 143.004 221.165 143.442C220.582 143.88 219.914 144.194 219.204 144.365V144.371Z" fill="#8BC63E"/>
<path opacity="0.1" d="M216.875 99.623C218.176 102.364 226.545 107.825 226.545 107.825C226.545 107.825 227.446 97.3767 226.158 94.6254C225.879 93.9247 225.469 93.2927 224.953 92.7683C224.437 92.2438 223.827 91.8381 223.158 91.5762C222.49 91.3143 221.779 91.2018 221.069 91.2455C220.359 91.2893 219.664 91.4884 219.029 91.8305C218.393 92.1727 217.83 92.6507 217.374 93.235C216.917 93.8193 216.578 94.4975 216.376 95.2277C216.174 95.958 216.114 96.7247 216.2 97.4807C216.286 98.2366 216.516 98.9657 216.875 99.623Z" fill="#8BC63E"/>
<path opacity="0.1" d="M203.603 120.938C205.575 123.11 214.974 125.596 214.974 125.596C214.974 125.596 212.941 115.488 210.968 113.316C210.513 112.743 209.953 112.276 209.322 111.944C208.691 111.612 208.002 111.421 207.3 111.384C206.597 111.348 205.895 111.466 205.236 111.731C204.578 111.996 203.977 112.402 203.472 112.925C202.967 113.448 202.567 114.076 202.299 114.77C202.03 115.465 201.898 116.211 201.91 116.962C201.922 117.713 202.079 118.454 202.37 119.138C202.661 119.822 203.081 120.434 203.603 120.938Z" fill="#8BC63E"/>
<path opacity="0.1" d="M193.548 143.899C195.195 146.372 204.285 150.478 204.285 150.478C204.285 150.478 203.867 140.242 202.23 137.771C201.865 137.127 201.376 136.566 200.792 136.125C200.209 135.684 199.543 135.372 198.837 135.207C198.131 135.043 197.4 135.031 196.69 135.171C195.979 135.311 195.304 135.6 194.706 136.021C194.109 136.442 193.602 136.986 193.217 137.618C192.832 138.25 192.577 138.957 192.468 139.695C192.359 140.433 192.399 141.186 192.585 141.907C192.771 142.629 193.098 143.303 193.548 143.888V143.899Z" fill="#8BC63E"/>
<path d="M330.663 207.352C330.663 207.352 332.566 209.825 329.788 213.545C327.009 217.264 324.719 220.426 325.636 222.755C325.636 222.755 329.829 215.826 333.247 215.726C336.665 215.626 334.416 211.518 330.663 207.352Z" fill="#8BC63E"/>
<path opacity="0.1" d="M330.609 207.352C330.777 207.591 330.911 207.853 331.005 208.129C334.371 212.014 336.162 215.641 332.925 215.731C329.913 215.817 326.298 221.111 325.431 222.449C325.459 222.553 325.493 222.655 325.532 222.755C325.532 222.755 329.773 215.83 333.23 215.731C336.687 215.631 334.406 211.515 330.609 207.352Z" fill="#121212"/>
<path d="M335.553 211.506C334.626 211.924 333.815 212.176 333.749 212.069C333.682 211.962 334.371 211.54 335.298 211.122C336.225 210.704 335.862 211.008 335.933 211.122C336.004 211.236 336.484 211.101 335.553 211.506Z" fill="#FFD037"/>
<path d="M321.386 207.352C321.386 207.352 319.483 209.825 322.261 213.545C325.04 217.264 327.33 220.426 326.413 222.755C326.413 222.755 322.223 215.826 318.801 215.726C315.379 215.626 317.645 211.518 321.386 207.352Z" fill="#8BC63E"/>
<path opacity="0.1" d="M320.9 207.352C320.753 207.591 320.637 207.853 320.554 208.129C317.609 212.014 316.042 215.641 318.874 215.731C321.51 215.817 324.672 221.111 325.431 222.449C325.406 222.553 325.376 222.655 325.339 222.755C325.339 222.755 321.632 215.83 318.604 215.731C315.577 215.631 317.591 211.515 320.9 207.352Z" fill="#121212"/>
<path d="M317.117 210.344C317.117 211.311 317.388 212.094 317.716 212.094C318.043 212.094 318.305 211.311 318.305 210.344C318.305 209.377 317.978 209.831 317.65 209.831C317.323 209.831 317.117 209.377 317.117 210.344Z" fill="#FFD037"/>
<path d="M316.494 211.506C317.422 211.924 318.228 212.176 318.299 212.069C318.37 211.962 317.677 211.54 316.749 211.122C315.821 210.704 316.185 211.008 316.114 211.122C316.043 211.236 315.567 211.101 316.494 211.506Z" fill="#FFD037"/>
<path d="M318.304 221.92C318.304 221.92 323.41 221.766 324.952 220.687C326.494 219.608 332.807 218.323 333.189 220.033C333.571 221.743 340.861 228.633 335.097 228.679C329.333 228.724 321.704 227.792 320.169 226.874C318.633 225.955 318.304 221.92 318.304 221.92Z" fill="#A8A8A8"/>
<path opacity="0.2" d="M335.201 228.05C329.436 228.098 321.805 227.124 320.269 226.16C319.098 225.426 318.633 222.788 318.477 221.57H318.304C318.304 221.57 318.636 225.821 320.166 226.785C321.695 227.748 329.333 228.723 335.098 228.678C336.761 228.661 337.336 228.05 337.306 227.148C337.066 227.7 336.438 228.04 335.201 228.05Z" fill="#121212"/>
<path opacity="0.1" d="M0 239.503C6.97939 241.873 15.4944 240.431 23.412 240.599C24.4954 240.621 25.6462 240.691 26.5136 241.099C27.381 241.508 27.813 242.174 28.4069 242.741C30.6277 244.854 35.1568 245.535 39.1494 245.177C43.142 244.819 46.7667 243.631 50.5264 242.725C57.0096 241.163 64.421 240.45 70.8165 242.155C71.4034 242.354 72.0254 242.447 72.6491 242.427C74.0497 242.288 74.4682 241.16 75.4504 240.507C77.2188 239.338 81.0629 239.655 81.8425 238.112C82.2981 237.209 81.2485 236.283 80.1078 235.665C75.7372 233.305 69.4834 232.915 63.7663 233.28C58.0491 233.644 52.4231 234.648 46.6722 234.652C39.5105 234.652 32.5885 233.112 25.4944 232.481C20.5804 232.044 15.221 232.098 10.6142 233.387C5.61254 234.781 4.51231 237.912 0 239.503Z" fill="#8BC63E"/>
<path d="M78.3179 232.523C78.9016 232.023 79.327 231.347 79.5372 230.585C79.6927 229.814 79.3816 228.892 78.6862 228.61C77.9052 228.295 77.0701 228.865 76.4383 229.442C75.8065 230.018 75.0794 230.679 74.2507 230.558C74.6769 230.15 74.9956 229.632 75.1759 229.055C75.3562 228.478 75.3919 227.862 75.2794 227.266C75.2433 227.019 75.1445 226.788 74.9936 226.596C74.5618 226.106 73.7744 226.317 73.2537 226.703C71.6027 227.93 71.1423 230.297 71.136 232.429C70.9677 231.658 71.1074 230.86 71.1042 230.082C71.101 229.304 70.8947 228.406 70.266 227.997C69.8777 227.77 69.4398 227.654 68.996 227.662C68.253 227.635 67.4275 227.712 66.9195 228.285C66.2845 228.996 66.4527 230.193 67.002 230.967C67.5513 231.742 68.3832 232.241 69.1484 232.784C69.7642 233.171 70.2895 233.699 70.6851 234.33C70.7319 234.417 70.7702 234.509 70.7994 234.605H75.4318C76.4792 234.053 77.4503 233.352 78.3179 232.523Z" fill="#8BC63E"/>
<path fill-rule="evenodd" clip-rule="evenodd" d="M41.1934 187.21C42.1779 189.62 42.9386 192.113 43.4661 194.66L43.4667 194.663C44.5345 200.064 43.8048 205.662 41.387 210.617C38.6264 216.388 38.4008 223.216 38.8771 228.628C39.1148 231.33 39.5265 233.669 39.8787 235.332C40.0548 236.163 40.2159 236.825 40.3327 237.278C40.3911 237.505 40.4385 237.679 40.4711 237.796C40.4874 237.855 40.5 237.899 40.5085 237.929L40.5181 237.962L40.5204 237.97L40.5211 237.972C40.5211 237.972 40.5211 237.972 40.4257 238L40.1981 238.066C39.8752 238.16 39.8751 238.16 39.8751 238.16L39.8748 238.159L39.8741 238.156L39.8714 238.147L39.861 238.111C39.852 238.08 39.8389 238.034 39.822 237.973C39.7884 237.852 39.7399 237.673 39.6804 237.443C39.5615 236.981 39.3981 236.31 39.2199 235.468C38.8635 233.786 38.447 231.42 38.2064 228.686C37.726 223.227 37.943 216.259 40.7791 210.331L40.7802 210.329C43.135 205.503 43.8459 200.052 42.8064 194.792C42.2871 192.286 41.5383 189.832 40.5693 187.46L41.1934 187.21Z" fill="#535461"/>
<path d="M43.9455 179.928C43.9455 181.796 40.3824 187.21 40.3824 187.21C40.3824 187.21 36.8193 181.78 36.8193 179.928C36.8193 179.031 37.1947 178.171 37.8629 177.537C38.5312 176.902 39.4375 176.546 40.3824 176.546C41.3274 176.546 42.2337 176.902 42.9019 177.537C43.5701 178.171 43.9455 179.031 43.9455 179.928Z" fill="#8BC63E"/>
<path d="M49.3558 190.707C48.3697 192.464 42.7568 195.507 42.7568 195.507C42.7568 195.507 42.8561 188.332 43.8422 186.577C44.3155 185.732 45.0599 185.138 45.9116 184.927C46.7633 184.716 47.6525 184.905 48.3836 185.453C49.1148 186 49.628 186.861 49.8103 187.847C49.9926 188.832 49.8291 189.861 49.3558 190.707Z" fill="#8BC63E"/>
<path d="M49.2856 209.251C47.683 210.122 41.5703 209.522 41.5703 209.522C41.5703 209.522 44.7571 203.861 46.3597 202.99C47.1292 202.571 48.0213 202.499 48.8397 202.79C49.6582 203.082 50.336 203.711 50.724 204.542C51.112 205.372 51.1784 206.335 50.9086 207.218C50.6389 208.101 50.0551 208.832 49.2856 209.251Z" fill="#8BC63E"/>
<path d="M45.9931 223.432C44.4691 224.608 38.0068 225.126 38.0068 225.126C38.0068 225.126 40.3868 218.824 41.8978 217.645C42.2576 217.337 42.6735 217.108 43.1203 216.973C43.5671 216.838 44.0355 216.799 44.4972 216.859C44.9588 216.919 45.4039 217.076 45.8057 217.321C46.2074 217.566 46.5573 217.894 46.8341 218.285C47.1109 218.675 47.3089 219.121 47.4161 219.594C47.5233 220.066 47.5373 220.557 47.4575 221.036C47.3776 221.515 47.2055 221.972 46.9515 222.379C46.6976 222.786 46.3671 223.135 45.9801 223.405L45.9931 223.432Z" fill="#8BC63E"/>
<path d="M35.4932 195.295C36.7758 196.561 42.7573 197.873 42.7573 197.873C42.7573 197.873 41.291 191.835 40.0022 190.569C39.6996 190.255 39.3382 190.006 38.9392 189.836C38.5401 189.665 38.1117 189.578 37.679 189.579C37.2463 189.58 36.8181 189.669 36.4197 189.84C36.0214 190.012 35.6608 190.263 35.3594 190.578C35.058 190.894 34.8217 191.267 34.6646 191.677C34.5075 192.087 34.4327 192.524 34.4446 192.964C34.4565 193.403 34.5548 193.836 34.7339 194.236C34.9129 194.637 35.169 194.996 35.487 195.295H35.4932Z" fill="#8BC63E"/>
<path d="M31.6509 211.618C33.4647 212.493 40.3827 211.888 40.3827 211.888C40.3827 211.888 36.7795 206.203 34.9622 205.328C34.0937 204.93 33.0967 204.873 32.1852 205.171C31.2737 205.469 30.5205 206.096 30.0871 206.92C29.6537 207.743 29.5747 208.696 29.867 209.575C30.1594 210.453 30.7999 211.187 31.6509 211.618Z" fill="#8BC63E"/>
<path d="M30.0202 228.17C31.5442 229.349 38.0065 229.864 38.0065 229.864C38.0065 229.864 35.6265 223.56 34.1155 222.384C33.7558 222.076 33.3399 221.847 32.893 221.712C32.4462 221.577 31.9778 221.538 31.5162 221.598C31.0546 221.657 30.6094 221.815 30.2077 222.06C29.8059 222.305 29.4561 222.633 29.1792 223.024C28.9024 223.414 28.7044 223.86 28.5972 224.333C28.4901 224.806 28.476 225.297 28.5559 225.776C28.6357 226.255 28.8079 226.712 29.0618 227.12C29.3158 227.527 29.6462 227.876 30.0332 228.146L30.0202 228.17Z" fill="#8BC63E"/>
<path d="M43.9455 179.928C43.9455 181.796 40.3824 187.21 40.3824 187.21C40.3824 187.21 36.8193 181.78 36.8193 179.928C36.8193 179.031 37.1947 178.171 37.8629 177.537C38.5312 176.902 39.4375 176.546 40.3824 176.546C41.3274 176.546 42.2337 176.902 42.9019 177.537C43.5701 178.171 43.9455 179.031 43.9455 179.928Z" fill="#8BC63E"/>
<path d="M49.3558 190.707C48.3697 192.464 42.7568 195.507 42.7568 195.507C42.7568 195.507 42.8561 188.332 43.8422 186.577C44.3155 185.732 45.0599 185.138 45.9116 184.927C46.7633 184.716 47.6525 184.905 48.3836 185.453C49.1148 186 49.628 186.861 49.8103 187.847C49.9926 188.832 49.8291 189.861 49.3558 190.707Z" fill="#8BC63E"/>
<path d="M49.2856 209.251C47.683 210.122 41.5703 209.522 41.5703 209.522C41.5703 209.522 44.7571 203.861 46.3597 202.99C47.1292 202.571 48.0213 202.499 48.8397 202.79C49.6582 203.082 50.336 203.711 50.724 204.542C51.112 205.372 51.1784 206.335 50.9086 207.218C50.6389 208.101 50.0551 208.832 49.2856 209.251Z" fill="#8BC63E"/>
<path d="M45.9931 223.432C44.4691 224.608 38.0068 225.126 38.0068 225.126C38.0068 225.126 40.3868 218.824 41.8978 217.645C42.2576 217.337 42.6735 217.108 43.1203 216.973C43.5671 216.838 44.0355 216.799 44.4972 216.859C44.9588 216.919 45.4039 217.076 45.8057 217.321C46.2074 217.566 46.5573 217.894 46.8341 218.285C47.1109 218.675 47.3089 219.121 47.4161 219.594C47.5233 220.066 47.5373 220.557 47.4575 221.036C47.3776 221.515 47.2055 221.972 46.9515 222.379C46.6976 222.786 46.3671 223.135 45.9801 223.405L45.9931 223.432Z" fill="#8BC63E"/>
<path d="M35.4932 195.295C36.7758 196.561 42.7573 197.873 42.7573 197.873C42.7573 197.873 41.291 191.835 40.0022 190.569C39.6996 190.255 39.3382 190.006 38.9392 189.836C38.5401 189.665 38.1117 189.578 37.679 189.579C37.2463 189.58 36.8181 189.669 36.4197 189.84C36.0214 190.012 35.6608 190.263 35.3594 190.578C35.058 190.894 34.8217 191.267 34.6646 191.677C34.5075 192.087 34.4327 192.524 34.4446 192.964C34.4565 193.403 34.5548 193.836 34.7339 194.236C34.9129 194.637 35.169 194.996 35.487 195.295H35.4932Z" fill="#8BC63E"/>
<path d="M31.6509 211.618C33.4647 212.493 40.3827 211.888 40.3827 211.888C40.3827 211.888 36.7795 206.203 34.9622 205.328C34.0937 204.93 33.0967 204.873 32.1852 205.171C31.2737 205.469 30.5205 206.096 30.0871 206.92C29.6537 207.743 29.5747 208.696 29.867 209.575C30.1594 210.453 30.7999 211.187 31.6509 211.618Z" fill="#8BC63E"/>
<path d="M30.0202 228.17C31.5442 229.349 38.0065 229.864 38.0065 229.864C38.0065 229.864 35.6265 223.56 34.1155 222.384C33.7558 222.076 33.3399 221.847 32.893 221.712C32.4462 221.577 31.9778 221.538 31.5162 221.598C31.0546 221.657 30.6094 221.815 30.2077 222.06C29.8059 222.305 29.4561 222.633 29.1792 223.024C28.9024 223.414 28.7044 223.86 28.5972 224.333C28.4901 224.806 28.476 225.297 28.5559 225.776C28.6357 226.255 28.8079 226.712 29.0618 227.12C29.3158 227.527 29.6462 227.876 30.0332 228.146L30.0202 228.17Z" fill="#8BC63E"/>
<path d="M28.5049 236.914C28.5049 236.914 34.2524 235.72 35.7842 234.128C37.316 232.536 44.2158 229.75 44.9817 231.742C45.7476 233.735 55.3279 240.494 48.8145 241.689C42.301 242.884 33.4866 243.281 31.5685 242.487C29.6504 241.693 28.5049 236.914 28.5049 236.914Z" fill="#A8A8A8"/>
<path opacity="0.2" d="M48.8174 240.981C42.2996 242.155 33.4873 242.545 31.5689 241.761C30.1108 241.167 29.0962 238.309 28.6964 236.973L28.5049 237.014C28.5049 237.014 29.6539 241.706 31.5689 242.49C33.4839 243.273 42.2996 242.88 48.8174 241.706C50.6954 241.361 51.233 240.574 51.0314 239.565C50.8634 240.221 50.215 240.729 48.8174 240.981Z" fill="#121212"/>
<path opacity="0.1" d="M115.207 270.995C128.36 275.518 144.407 272.765 159.33 273.087C161.374 273.131 163.538 273.261 165.177 274.042C166.816 274.823 167.619 276.097 168.743 277.179C172.928 281.213 181.495 282.514 188.985 281.826C196.475 281.137 203.342 278.874 210.394 277.148C222.61 274.162 236.576 272.806 248.626 276.059C249.733 276.357 250.897 276.699 252.081 276.58C254.724 276.316 255.51 274.148 257.36 272.912C260.705 270.68 267.937 271.286 269.402 268.344C270.262 266.632 268.285 264.848 266.134 263.674C257.902 259.164 246.12 258.421 235.339 259.119C224.557 259.818 213.963 261.729 203.128 261.735C189.63 261.735 176.587 258.797 163.22 257.592C153.961 256.753 143.855 256.859 135.174 259.304C125.784 261.985 123.71 267.957 115.207 270.995Z" fill="#8BC63E"/>
<path d="M237.087 237.616C237.16 236.977 237.265 236.342 237.378 235.706C237.872 232.954 237.117 230.332 236.718 229.252C236.603 228.917 236.517 228.727 236.517 228.727C234.516 228.175 226.626 234.375 223.764 236.713C222.775 236.713 221.687 236.757 220.51 236.837C219.996 236.874 219.478 236.887 218.964 236.877C218.502 236.877 217.846 236.877 217.082 236.877C214.414 234.7 206.169 228.148 204.111 228.716C204.111 228.716 204.029 228.904 203.91 229.242C203.524 230.322 202.773 232.944 203.251 235.696C203.366 236.332 203.468 236.967 203.541 237.606C203.696 239.007 204.273 241.686 206.37 243.502C206.815 246.813 208.496 251.164 209.789 253.807C209.886 254.306 210.032 254.795 210.227 255.265C209.693 257.352 209.08 260.077 209.238 260.977C209.238 260.977 206.452 260.291 206.169 263.696C206.169 263.73 206.169 263.766 206.169 263.8C205.16 264.271 203.904 265.342 205.318 267.592C205.488 267.869 205.745 268.079 206.047 268.191C206.297 268.281 206.541 268.281 206.515 267.923L208.259 269.93C208.259 269.93 211.417 270.298 211.454 268.439L211.638 268.469C212.064 268.532 212.509 268.586 212.957 268.633L213.175 269.368C213.175 269.368 210.804 269.318 211.45 270.796C211.45 270.796 212.047 271.358 212.251 271.154C212.251 271.154 211.945 272.124 213.175 272.124C213.175 272.124 214.493 272.84 215.018 272.331C215.542 271.823 216.61 271.054 216.712 270.746C216.742 270.663 216.755 269.907 216.758 268.863H216.963C219.6 268.927 222.416 268.84 224.974 268.699H225.179C225.179 269.833 225.195 270.663 225.225 270.753C225.327 271.061 226.405 271.826 226.92 272.338C227.434 272.85 228.763 272.131 228.763 272.131C229.992 272.131 229.686 271.161 229.686 271.161C229.89 271.365 230.487 270.803 230.487 270.803C231.146 269.325 228.763 269.375 228.763 269.375L229.043 268.432L230.362 268.321L230.566 268.301C230.441 270.325 233.761 269.937 233.761 269.937L235.505 267.93C235.479 268.288 235.722 268.288 235.973 268.198C236.275 268.086 236.531 267.875 236.702 267.599C238.838 264.208 234.888 263.489 234.888 263.489C234.767 263.456 234.642 263.436 234.516 263.429C234.516 263.368 234.516 263.308 234.516 263.251C234.564 262.807 234.572 262.359 234.542 261.913C234.394 261.301 233.418 260.332 232.188 260.178C231.387 260.077 231.367 256.335 231.453 253.74C231.542 253.251 231.584 252.755 231.578 252.258C231.587 251.459 231.476 250.662 231.249 249.897C232.821 247.195 234.081 244.365 234.216 243.512C236.359 241.686 236.932 239.011 237.087 237.616Z" fill="url(#paint0_linear)"/>
<path d="M233.933 263.256C233.808 265.076 233.473 267.997 233.473 267.997C233.473 267.997 232.079 268.176 229.926 268.38L228.466 268.511C227.342 268.605 226.086 268.698 224.758 268.777C222.299 268.919 219.6 269.005 217.058 268.943C215.786 268.912 214.553 268.843 213.409 268.726C212.9 268.674 212.423 268.612 211.933 268.536C209.017 268.08 206.943 267.206 206.752 265.669C206.66 265.023 206.637 264.367 206.683 263.715C206.956 260.262 209.642 260.952 209.642 260.952C209.468 259.999 210.118 257.037 210.628 254.892C210.957 253.542 211.243 252.516 211.243 252.516L230.057 251.19H230.119C230.244 251.191 230.368 251.218 230.483 251.27C230.598 251.322 230.701 251.398 230.787 251.493C230.873 251.588 230.94 251.701 230.984 251.824C231.027 251.947 231.046 252.078 231.04 252.209C230.928 254.578 230.767 260.006 231.697 260.127C232.881 260.283 233.818 261.267 233.959 261.888C233.99 262.344 233.981 262.802 233.933 263.256Z" fill="#FF9500"/>
<path d="M218.537 237.39C218.537 237.39 210.85 246.07 207.139 243.663C207.05 243.606 206.964 243.546 206.882 243.486C204.389 241.717 203.737 238.872 203.566 237.426C203.491 236.799 203.384 236.178 203.267 235.553C202.75 232.856 203.537 230.288 203.936 229.227C204.058 228.893 204.143 228.716 204.143 228.716C206.722 228.048 218.537 237.39 218.537 237.39Z" fill="#FF9500"/>
<path d="M213.787 238.806C213.787 238.806 211.75 240.404 208.878 242.997C208.436 243.403 207.965 243.767 207.468 244.086C205.372 242.321 204.823 239.485 204.68 238.043C204.617 237.418 204.527 236.798 204.428 236.176C203.994 233.486 204.656 230.926 204.991 229.867C208.995 230.18 213.787 238.806 213.787 238.806Z" fill="#FDD8D8"/>
<path opacity="0.1" d="M211.411 237.876C211.411 237.876 210.393 238.674 208.958 239.971C208.736 240.178 208.5 240.364 208.252 240.529C207.206 239.647 206.931 238.228 206.85 237.508C206.819 237.196 206.774 236.884 206.724 236.572C206.582 235.512 206.678 234.429 207.004 233.42C209.023 233.563 211.411 237.876 211.411 237.876Z" fill="#121212"/>
<path d="M223.288 237.39C223.288 237.39 230.387 246.07 233.811 243.663L234.047 243.486C236.349 241.717 236.948 238.872 237.105 237.426C237.174 236.799 237.276 236.178 237.385 235.553C237.858 232.856 237.135 230.288 236.763 229.227C236.652 228.893 236.569 228.716 236.569 228.716C234.199 228.048 223.288 237.39 223.288 237.39Z" fill="#FF9500"/>
<path d="M226.852 238.806C226.852 238.806 229.142 240.404 232.373 242.997C232.871 243.403 233.403 243.767 233.962 244.086C236.32 242.321 236.933 239.485 237.095 238.043C237.166 237.418 237.27 236.798 237.381 236.176C237.867 233.486 237.125 230.926 236.745 229.867C232.228 230.18 226.852 238.806 226.852 238.806Z" fill="#FDD8D8"/>
<path opacity="0.1" d="M229.227 237.891C229.227 237.891 230.502 238.69 232.301 239.984C232.579 240.187 232.874 240.369 233.185 240.529C234.493 239.649 234.839 238.229 234.931 237.512C234.97 237.199 235.026 236.885 235.086 236.572C235.263 235.511 235.141 234.429 234.733 233.42C232.22 233.583 229.227 237.891 229.227 237.891Z" fill="#121212"/>
<path opacity="0.1" d="M230.414 251.19C229.485 252.823 228.495 254.296 227.59 255.178C224.657 258.052 212.036 256.92 211.202 256.769C211.032 256.738 210.673 256.17 210.223 255.254C210.564 253.773 210.861 252.648 210.861 252.648L230.414 251.19Z" fill="#121212"/>
<path d="M220.396 237.095C219.901 237.131 219.406 237.141 218.907 237.135C216.357 237.092 207.777 237.203 206.823 240.63C205.701 244.661 210.714 255.5 211.506 255.631C212.298 255.762 224.497 256.742 227.345 254.259C230.193 251.776 233.876 244.011 233.678 243.292C233.665 243.292 237.189 235.942 220.396 237.095Z" fill="#FF9500"/>
<path opacity="0.1" d="M220.911 244.138C220.911 244.138 214.217 243.205 211.046 249.172C210.417 250.33 210.14 251.619 210.244 252.906C210.348 254.193 210.829 255.432 211.638 256.495C212.695 257.826 214.221 258.816 216.359 258.017C221.118 256.25 220.911 244.138 220.911 244.138Z" fill="#121212"/>
<path opacity="0.1" d="M219.723 242.958C219.723 242.958 213.773 241.947 210.955 248.411C210.395 249.665 210.149 251.061 210.242 252.455C210.334 253.85 210.762 255.191 211.481 256.343C212.42 257.785 213.776 258.858 215.677 257.995C219.908 256.078 219.723 242.958 219.723 242.958Z" fill="#121212"/>
<path d="M219.723 244.138C219.723 244.138 213.773 243.205 210.955 249.172C210.395 250.33 210.149 251.619 210.242 252.906C210.334 254.193 210.762 255.432 211.481 256.495C212.42 257.826 213.776 258.816 215.677 258.017C219.908 256.256 219.723 244.138 219.723 244.138Z" fill="#FDD8D8"/>
<path d="M213.785 248.823C213.785 248.823 212.097 249.751 212.746 249.983C213.396 250.215 213.785 248.823 213.785 248.823Z" fill="#3F2B3B"/>
<path d="M214.25 250.009C214.25 250.009 213.399 251.065 214.002 251.184C214.606 251.302 214.974 250.424 214.974 250.424L214.25 250.009Z" fill="#3F2B3B"/>
<path d="M212.005 251.19C212.005 251.19 210.669 253.56 212.005 253.56C213.341 253.56 212.005 251.19 212.005 251.19Z" fill="#3F2B3B"/>
<path fill-rule="evenodd" clip-rule="evenodd" d="M211.411 254.865C211.411 254.865 211.411 254.865 211.569 254.806C211.727 254.747 211.727 254.747 211.727 254.747L211.727 254.747L211.727 254.748L211.729 254.752C211.731 254.755 211.733 254.761 211.736 254.769C211.743 254.784 211.754 254.807 211.768 254.836C211.797 254.896 211.841 254.981 211.902 255.083C212.024 255.289 212.21 255.56 212.47 255.827C212.988 256.357 213.789 256.861 214.951 256.785L214.974 257.108C213.682 257.194 212.787 256.627 212.222 256.048C211.94 255.758 211.738 255.465 211.607 255.243C211.541 255.132 211.493 255.039 211.46 254.973C211.444 254.94 211.432 254.914 211.424 254.895C211.42 254.886 211.417 254.879 211.415 254.874L211.412 254.868L211.411 254.866L211.411 254.865L211.411 254.865ZM211.727 254.747C211.727 254.747 211.727 254.747 211.727 254.747L211.727 254.747Z" fill="#3F2B3B"/>
<path opacity="0.1" d="M220.914 244.138C220.914 244.138 227.606 243.205 230.776 249.172C231.406 250.33 231.684 251.619 231.58 252.906C231.476 254.193 230.994 255.432 230.184 256.495C229.127 257.826 227.602 258.816 225.468 258.017C220.702 256.25 220.914 244.138 220.914 244.138Z" fill="#121212"/>
<path opacity="0.1" d="M220.914 242.958C220.914 242.958 227.606 241.947 230.776 248.411C231.406 249.665 231.684 251.061 231.58 252.456C231.476 253.85 230.994 255.192 230.184 256.343C229.127 257.785 227.602 258.858 225.468 257.995C220.702 256.078 220.914 242.958 220.914 242.958Z" fill="#121212"/>
<path d="M220.914 244.138C220.914 244.138 227.606 243.205 230.776 249.172C231.406 250.33 231.684 251.619 231.58 252.906C231.476 254.193 230.994 255.432 230.184 256.495C229.127 257.826 227.602 258.816 225.468 258.017C220.702 256.256 220.914 244.138 220.914 244.138Z" fill="#FDD8D8"/>
<path d="M228.039 248.823C228.039 248.823 229.728 249.751 229.078 249.983C228.429 250.215 228.039 248.823 228.039 248.823Z" fill="#3F2B3B"/>
<path d="M227.574 250.009C227.574 250.009 228.429 251.065 227.821 251.184C227.213 251.302 226.852 250.424 226.852 250.424L227.574 250.009Z" fill="#3F2B3B"/>
<path fill-rule="evenodd" clip-rule="evenodd" d="M230.099 254.747C230.099 254.747 230.099 254.747 230.257 254.806C230.415 254.865 230.415 254.865 230.415 254.866L230.414 254.866L230.414 254.868L230.411 254.874C230.409 254.879 230.406 254.887 230.402 254.896C230.393 254.914 230.381 254.94 230.365 254.973C230.333 255.04 230.284 255.133 230.219 255.244C230.087 255.465 229.885 255.759 229.603 256.048C229.037 256.627 228.142 257.194 226.852 257.108L226.875 256.785C228.035 256.861 228.836 256.358 229.355 255.827C229.615 255.56 229.802 255.289 229.924 255.083C229.984 254.981 230.029 254.896 230.058 254.836C230.072 254.807 230.083 254.784 230.089 254.769C230.093 254.761 230.095 254.755 230.097 254.752L230.099 254.748L230.099 254.747Z" fill="#3F2B3B"/>
<path d="M217.35 261.857C217.53 261.794 220.951 259.22 224.476 261.857H217.35Z" fill="#3F2B3B"/>
<path opacity="0.1" d="M212.571 267.781C209.302 267.375 206.977 266.597 206.763 265.227C206.66 264.651 206.634 264.066 206.686 263.485C207.079 263.31 207.499 263.182 207.935 263.104C208.528 262.965 209.262 263.057 210.809 263.411C212.357 263.765 212.247 265.304 212.578 267.286C212.608 267.45 212.605 267.618 212.571 267.781Z" fill="#121212"/>
<path d="M207.618 263.116C207.618 263.116 204.154 263.902 206.029 267.59C206.177 267.89 206.402 268.12 206.668 268.243C206.887 268.339 207.1 268.339 207.079 267.95L208.605 270.119C208.605 270.119 211.664 270.563 211.394 268.172C211.124 265.781 211.214 263.95 209.955 263.505C208.695 263.06 208.098 262.949 207.618 263.116Z" fill="#FF9500"/>
<path fill-rule="evenodd" clip-rule="evenodd" d="M207.849 265.548C207.849 265.548 207.849 265.548 208.011 265.48C208.173 265.411 208.173 265.411 208.173 265.411L208.173 265.411L208.173 265.412L208.174 265.415C208.176 265.417 208.178 265.422 208.181 265.428C208.187 265.44 208.196 265.458 208.208 265.481C208.232 265.526 208.268 265.59 208.315 265.662C208.41 265.808 208.543 265.978 208.704 266.099C208.863 266.219 209.033 266.281 209.216 266.247C209.405 266.212 209.65 266.069 209.937 265.686L210.224 265.886C209.91 266.304 209.596 266.523 209.283 266.581C208.966 266.64 208.694 266.525 208.485 266.368C208.279 266.212 208.12 266.005 208.015 265.843C207.962 265.761 207.921 265.689 207.893 265.636C207.879 265.61 207.868 265.588 207.861 265.573C207.857 265.566 207.854 265.56 207.852 265.555L207.85 265.55L207.849 265.549L207.849 265.548L207.849 265.548ZM208.173 265.411L208.173 265.411L208.173 265.411Z" fill="#3F2B3B"/>
<path fill-rule="evenodd" clip-rule="evenodd" d="M206.66 266.678C206.66 266.678 206.66 266.678 206.828 266.638C206.997 266.597 206.997 266.597 206.997 266.597L206.997 266.597L206.997 266.597C206.997 266.597 206.997 266.597 206.997 266.597L206.997 266.599C206.998 266.602 206.999 266.606 207 266.611C207.003 266.622 207.008 266.639 207.015 266.66C207.029 266.703 207.05 266.763 207.081 266.832C207.143 266.971 207.238 267.133 207.371 267.254C207.501 267.371 207.666 267.45 207.886 267.433C208.111 267.416 208.417 267.297 208.816 266.968L209.036 267.236C208.606 267.591 208.234 267.755 207.911 267.779C207.582 267.804 207.327 267.681 207.139 267.511C206.956 267.345 206.837 267.135 206.765 266.973C206.728 266.891 206.703 266.819 206.686 266.767C206.677 266.741 206.671 266.719 206.667 266.704C206.665 266.697 206.663 266.691 206.662 266.686L206.661 266.681L206.66 266.679L206.66 266.679L206.66 266.678Z" fill="#3F2B3B"/>
<path opacity="0.1" d="M233.978 263.075C233.867 264.746 233.57 267.429 233.57 267.429C233.57 267.429 232.333 267.594 230.422 267.781C230.413 267.664 230.413 267.547 230.422 267.429C230.685 265.387 230.597 263.817 231.823 263.436C232.948 263.09 233.532 262.979 233.978 263.075Z" fill="#121212"/>
<path d="M234.967 263.116C234.967 263.116 239.121 263.902 236.875 267.59C236.695 267.889 236.424 268.119 236.105 268.243C235.842 268.339 235.586 268.339 235.615 267.95L233.779 270.119C233.779 270.119 230.111 270.563 230.435 268.172C230.759 265.781 230.651 263.95 232.16 263.505C233.668 263.06 234.388 262.949 234.967 263.116Z" fill="#FF9500"/>
<path fill-rule="evenodd" clip-rule="evenodd" d="M233.653 265.411C233.653 265.411 233.653 265.411 233.815 265.48C233.977 265.548 233.977 265.548 233.977 265.548L233.977 265.549L233.976 265.55L233.974 265.555C233.972 265.56 233.969 265.566 233.965 265.573C233.958 265.588 233.947 265.61 233.933 265.636C233.905 265.689 233.864 265.761 233.811 265.843C233.706 266.005 233.547 266.212 233.34 266.368C233.132 266.525 232.86 266.64 232.543 266.581C232.23 266.523 231.916 266.304 231.602 265.886L231.888 265.686C232.176 266.069 232.421 266.212 232.609 266.247C232.793 266.281 232.963 266.219 233.122 266.099C233.283 265.978 233.416 265.808 233.511 265.662C233.558 265.59 233.594 265.526 233.618 265.481C233.63 265.458 233.639 265.44 233.645 265.428C233.648 265.422 233.65 265.417 233.651 265.415L233.653 265.412L233.653 265.411ZM233.653 265.411C233.653 265.411 233.653 265.411 233.653 265.411V265.411Z" fill="#3F2B3B"/>
<path fill-rule="evenodd" clip-rule="evenodd" d="M236.018 266.597C236.018 266.597 236.018 266.597 236.186 266.637C236.354 266.678 236.354 266.678 236.354 266.678L236.354 266.679L236.353 266.681L236.352 266.686C236.351 266.69 236.349 266.697 236.347 266.704C236.343 266.719 236.337 266.741 236.328 266.767C236.312 266.819 236.286 266.891 236.249 266.973C236.177 267.135 236.058 267.345 235.875 267.511C235.688 267.681 235.432 267.804 235.103 267.779C234.78 267.755 234.409 267.591 233.979 267.236L234.198 266.968C234.597 267.297 234.903 267.416 235.129 267.433C235.348 267.45 235.514 267.371 235.643 267.254C235.777 267.133 235.872 266.97 235.934 266.831C235.964 266.763 235.986 266.703 235.999 266.66C236.006 266.639 236.011 266.622 236.014 266.611C236.016 266.606 236.017 266.602 236.017 266.599L236.018 266.597C236.018 266.597 236.018 266.597 236.018 266.597Z" fill="#3F2B3B"/>
<path opacity="0.1" d="M217.348 268.966C216.111 268.936 214.912 268.871 213.8 268.76L212.697 264.962C212.6 264.631 212.574 264.283 212.62 263.94C212.666 263.598 212.784 263.27 212.965 262.978C213.146 262.687 213.387 262.438 213.67 262.249C213.954 262.06 214.274 261.936 214.608 261.884C214.943 261.832 215.284 261.854 215.61 261.948C215.936 262.043 216.238 262.208 216.495 262.431C216.753 262.655 216.961 262.933 217.105 263.245C217.249 263.558 217.325 263.899 217.329 264.244C217.338 265.735 217.351 267.608 217.348 268.966Z" fill="#121212"/>
<path d="M211.885 264.169L213.406 269.172C213.406 269.172 210.817 269.118 211.538 270.703C211.538 270.703 212.188 271.304 212.412 271.067C212.412 271.067 212.08 272.106 213.421 272.106C213.421 272.106 214.874 272.867 215.434 272.324C215.994 271.781 217.175 270.958 217.302 270.63C217.373 270.415 217.35 266.232 217.328 263.342C217.321 262.631 217.027 261.952 216.509 261.452C215.991 260.952 215.292 260.671 214.564 260.671C214.127 260.664 213.694 260.759 213.302 260.947C212.91 261.135 212.569 261.411 212.308 261.752C212.046 262.094 211.872 262.491 211.798 262.911C211.725 263.331 211.755 263.763 211.885 264.169Z" fill="#FF9500"/>
<path fill-rule="evenodd" clip-rule="evenodd" d="M213.679 268.966C213.679 268.966 213.679 268.966 213.732 269.248C213.785 269.531 213.785 269.531 213.785 269.531L213.785 269.531L213.785 269.531L213.784 269.532L213.779 269.535C213.773 269.538 213.765 269.544 213.753 269.552C213.73 269.567 213.697 269.591 213.656 269.625C213.574 269.693 213.465 269.798 213.357 269.946C213.142 270.24 212.941 270.684 212.941 271.336H212.598C212.598 270.441 212.879 269.842 213.144 269.479C213.277 269.298 213.409 269.171 213.507 269.089C213.557 269.048 213.598 269.018 213.628 268.998C213.643 268.988 213.655 268.98 213.663 268.975L213.674 268.969L213.677 268.967L213.678 268.966L213.678 268.966L213.679 268.966ZM213.785 269.531C213.785 269.531 213.785 269.531 213.785 269.531L213.785 269.531Z" fill="#3F2B3B"/>
<path opacity="0.1" d="M230.414 263.578C230.413 263.855 230.38 264.131 230.315 264.397L229.269 268.666C228.176 268.771 226.955 268.876 225.663 268.965C225.663 267.37 225.663 265.243 225.682 263.531C225.685 262.77 225.936 262.04 226.382 261.504C226.827 260.967 227.43 260.668 228.058 260.671C228.685 260.674 229.286 260.98 229.728 261.52C230.17 262.061 230.416 262.793 230.414 263.555V263.578Z" fill="#121212"/>
<path d="M230.035 264.169L228.819 269.172C228.819 269.172 230.889 269.118 230.313 270.703C230.313 270.703 229.793 271.304 229.614 271.067C229.614 271.067 229.882 272.106 228.807 272.106C228.807 272.106 227.648 272.867 227.197 272.324C226.746 271.781 225.808 270.958 225.704 270.63C225.644 270.415 225.662 266.232 225.683 263.342C225.688 262.632 225.922 261.953 226.336 261.452C226.749 260.952 227.308 260.671 227.89 260.671C228.24 260.664 228.586 260.758 228.9 260.946C229.214 261.133 229.487 261.409 229.696 261.751C229.906 262.093 230.045 262.49 230.104 262.91C230.163 263.331 230.139 263.762 230.035 264.169Z" fill="#FF9500"/>
<path fill-rule="evenodd" clip-rule="evenodd" d="M228.039 270.315C228.039 270.316 228.039 270.316 228.19 270.234C228.341 270.153 228.341 270.153 228.341 270.153L228.342 270.154L228.343 270.154L228.346 270.156L228.359 270.162C228.369 270.168 228.384 270.175 228.402 270.185C228.438 270.205 228.489 270.234 228.548 270.269C228.664 270.339 228.815 270.438 228.944 270.551C229.071 270.662 229.187 270.794 229.218 270.93C229.251 271.07 229.193 271.217 228.969 271.339L228.654 271.183C228.772 271.119 228.807 271.044 228.787 270.957C228.766 270.866 228.683 270.765 228.57 270.666C228.458 270.568 228.325 270.48 228.219 270.416C228.166 270.384 228.12 270.359 228.088 270.341C228.072 270.333 228.059 270.326 228.051 270.322L228.041 270.317L228.039 270.316L228.039 270.315Z" fill="#3F2B3B"/>
<path fill-rule="evenodd" clip-rule="evenodd" d="M229.227 269.531C229.227 269.531 229.227 269.531 229.28 269.248C229.333 268.966 229.333 268.966 229.333 268.966L229.334 268.966L229.334 268.966L229.335 268.967L229.338 268.969L229.349 268.975C229.357 268.98 229.369 268.988 229.384 268.998C229.414 269.018 229.455 269.048 229.505 269.089C229.603 269.171 229.735 269.298 229.868 269.479C230.133 269.842 230.414 270.441 230.414 271.336H230.071C230.071 270.684 229.87 270.24 229.655 269.946C229.547 269.798 229.438 269.693 229.356 269.625C229.315 269.591 229.282 269.567 229.259 269.552C229.247 269.544 229.239 269.538 229.233 269.535L229.228 269.532L229.227 269.531C229.227 269.531 229.227 269.531 229.227 269.531L229.227 269.531L229.227 269.531Z" fill="#3F2B3B"/>
<path opacity="0.1" d="M220.158 242.901C220.158 242.901 215.137 242.751 214.977 246.399C214.817 250.046 222.816 248.499 222.816 248.499C222.816 248.499 226.183 248.076 225.595 245.862C225.007 243.648 223.792 243.101 220.158 242.901Z" fill="#121212"/>
<path opacity="0.1" d="M220.158 241.718C220.158 241.718 215.137 241.568 214.977 245.215C214.817 248.862 222.816 247.315 222.816 247.315C222.816 247.315 226.183 246.892 225.595 244.678C225.007 242.464 223.792 241.918 220.158 241.718Z" fill="#121212"/>
<path d="M220.158 242.901C220.158 242.901 215.137 242.751 214.977 246.399C214.817 250.046 222.816 248.499 222.816 248.499C222.816 248.499 226.183 248.075 225.595 245.862C225.007 243.648 223.792 243.101 220.158 242.901Z" fill="#3F2B3B"/>
<path opacity="0.1" d="M210.223 260.671C210.223 260.671 211.21 261.486 211.41 263.041L210.223 260.671Z" fill="#121212"/>
<path d="M210.331 269.07C210.683 268.868 210.696 268.233 210.36 267.652C210.023 267.071 209.466 266.764 209.114 266.967C208.762 267.17 208.749 267.805 209.085 268.386C209.421 268.967 209.979 269.273 210.331 269.07Z" fill="#FDD8D8"/>
<path d="M234.541 267.395C234.877 266.812 234.863 266.174 234.51 265.972C234.156 265.769 233.597 266.078 233.261 266.661C232.925 267.245 232.939 267.882 233.292 268.085C233.646 268.287 234.205 267.979 234.541 267.395Z" fill="#FDD8D8"/>
<path d="M210.928 135.258C209.841 134.903 203.444 129.941 202.962 127.695C202.481 125.45 206.34 104.538 206.34 104.538C206.34 104.538 205.985 104.521 205.417 104.468V104.133L206.209 76.656C206.209 76.656 209.467 58.2274 203.313 59.2882C197.16 60.349 201.019 76.656 201.019 76.656C201.019 76.656 200.317 84.9283 199.825 87.4114C199.347 89.8007 197.2 99.5454 198.668 102.574C198.72 102.682 198.781 102.786 198.849 102.885C198.849 102.885 199.09 113.279 196.435 114.698C193.9 116.036 192.846 122.85 192.756 123.462L192.622 123.402C191.867 122.94 191.201 122.346 190.656 121.648C190.606 121.578 190.559 121.501 190.509 121.427C192.236 119.535 193.17 117.051 193.118 114.488C193.066 111.926 192.033 109.482 190.231 107.66L189.98 107.416C190.188 107.21 190.34 106.956 190.425 106.677C190.893 105.264 189.275 104.13 188.435 103.246C186.492 101.178 184.74 98.6452 182.031 97.474C182.808 97.9146 183.526 98.4496 184.172 99.0669C183.354 98.3609 182.417 97.8058 181.406 97.4271C178.57 96.4232 175.306 97.2531 172.832 98.9464C170.357 100.64 168.528 103.079 166.856 105.539L166.046 106.743C165.338 105.947 164.566 105.21 163.739 104.538C162.17 103.357 159.034 99.4584 159.034 99.4584C159.034 99.4584 149.259 89.533 148.533 86.8157C147.807 84.0984 138.036 67.7914 135.862 70.6292C133.688 73.4669 143.343 85.8687 143.343 85.8687C143.343 85.8687 145.155 90.3595 146.603 91.8922C148.051 93.4248 158.789 108.788 158.789 108.788L159.699 110.629L159.87 110.963L159.756 110.9V113.145L160.759 113.235C160.314 113.63 159.906 114.066 159.542 114.537C158.997 115.329 158.592 116.209 158.345 117.137C156.763 122.368 157.408 128.093 159.448 133.17C159.87 134.214 160.351 135.255 160.478 136.369C160.662 137.929 160.144 139.471 159.829 141.014C159.395 143.179 159.411 145.538 160.498 147.469C161.953 150.032 165.214 151.368 168.17 150.889C169.519 150.661 170.795 150.118 171.895 149.303C173.28 148.341 174.398 147.042 175.142 145.528C175.694 144.4 176.039 143.186 176.587 142.055C176.691 141.837 176.808 141.63 176.921 141.419C178.172 142.821 179.296 144.096 179.296 144.096C179.296 144.096 181.951 156.856 179.657 160.4C178.437 162.183 176.96 163.775 175.273 165.125C174.847 165.475 174.456 165.867 174.106 166.293C173.878 166.457 173.744 166.544 173.744 166.544C173.744 166.544 173.684 166.714 173.597 166.975C173.059 167.767 172.669 168.65 172.447 169.582C172.364 169.82 172.334 170.074 172.36 170.325C172.524 170.66 171.18 171.998 171.574 172.57C168.23 176.419 167.588 182.255 167.588 182.255L161.492 191.354C158.355 199.445 153.649 200.275 153.649 200.275C153.649 200.275 142.614 193.007 142.303 192.652C141.992 192.297 137.778 190.527 137.778 190.527C137.278 189.665 136.518 188.982 135.608 188.576C134.16 187.987 134.039 185.802 134.039 185.802C133.859 180.662 130.779 180.247 130.779 180.247C128.298 180.043 126.398 180.475 124.943 181.268L124.502 181.301C122.365 181.472 119.79 181.659 116.961 181.843C109.112 182.352 107.246 187.338 107.246 187.338C107.246 187.338 106.28 188.399 107.547 189.55C108.815 190.701 116.911 189.57 117.245 189.523C116.628 189.591 116.005 189.549 115.402 189.399C116.68 189.353 118.432 189.309 119.924 189.306H120.288C120.194 190.083 120.15 190.865 120.155 191.648C120.155 193.127 124.318 194.071 124.318 194.071L136.989 205.114C136.989 205.114 144.955 208.601 150.031 213.621C155.108 218.64 159.565 214.33 159.565 214.33C164.916 213.032 180.369 194.737 180.383 194.72C180.383 195.282 180.717 213.048 181.332 216.619C181.356 216.8 181.401 216.977 181.466 217.148C182.192 218.687 181.225 222.88 180.797 224.654C180.369 226.427 180.493 229.141 180.493 229.141C180.493 229.141 174.708 250.866 175.206 252.757C175.704 254.647 172.066 263.509 172.066 263.509V270.891C172.066 270.891 172.296 270.891 172.698 270.861C172.615 270.978 172.539 271.099 172.47 271.226C172.455 271.251 172.442 271.278 172.43 271.306C172.43 271.306 176.289 272.132 178.884 271.895C181.479 271.657 185.944 273.859 185.944 273.859C185.944 273.859 187.455 274.555 192.101 274.863C196.746 275.171 196.746 272.855 196.746 272.855C196.21 269.713 188.877 268.666 188.646 268.635C188.054 268.271 187.499 267.872 187.044 267.531L186.947 267.454C186.982 267.387 187.01 267.316 187.031 267.243C187.817 264.111 183.473 262.752 183.473 262.752V261.986C186.305 260.567 186.85 250.819 186.85 250.819C186.85 250.819 191.074 238.772 191.676 236.764C192.278 234.757 191.676 231.745 191.676 231.745L192.101 229.148C192.101 229.148 193.003 227.374 193.003 227.02C193.123 226.118 193.477 225.263 194.03 224.54C194.699 223.77 193.308 221.94 193.308 221.94L194.515 218.868V215.481L197.347 203.254C197.347 203.254 200.307 189.015 199.28 184.346C198.254 179.678 200.488 177.319 200.488 177.319C200.285 177.423 200.078 177.516 199.866 177.597C200.15 176.958 200.395 176.302 200.598 175.632L206.952 176.405C206.952 176.459 206.952 176.496 206.952 176.496H209.243C209.243 176.496 208.52 167.752 208.52 164.208C208.52 160.664 210.935 148.021 210.935 148.021C210.935 148.021 212.012 135.613 210.928 135.258ZM182.75 124.884C182.75 124.934 182.75 124.981 182.75 125.028C182.75 125.363 182.717 125.734 182.693 126.099L182.566 126.293L182.336 126.096L182.045 126.534C181.994 126.257 182.012 125.971 182.099 125.702C182.185 125.434 182.337 125.191 182.54 124.995C182.607 124.955 182.678 124.919 182.75 124.888V124.884ZM203.859 165.821H203.999L203.772 166.396C203.802 166.209 203.828 166.018 203.859 165.824V165.821ZM180.68 270.362L179.814 270.151L180.296 270.071L180.73 270.355L180.784 270.389L180.68 270.362ZM189.522 269.124C189.235 268.973 188.944 268.789 188.663 268.629C188.753 268.679 189.124 268.87 189.522 269.124Z" fill="url(#paint1_linear)"/>
<path d="M206.661 156.404L201.063 171.118L200.278 170.47L197.159 175.353L206.661 176.547V156.404Z" fill="#494949"/>
<path opacity="0.1" d="M206.661 156.404L201.061 171.118L199.655 170.736L197.159 175.353L206.661 176.547V156.404Z" fill="#121212"/>
<path d="M197.159 165.882H205.848L209.036 139.814H197.159V165.882Z" fill="#494949"/>
<path opacity="0.1" d="M197.159 165.882H205.848L209.036 139.814H197.159V165.882Z" fill="#121212"/>
<path d="M180.214 145.739L182.086 145.407L186.395 144.709C186.395 144.709 199.335 141.819 202.016 141.587C203.69 141.441 205.542 140.757 206.704 140.258C207.403 139.963 207.849 139.733 207.849 139.733L203.188 131.287L195.957 125.973C195.957 125.973 191.383 125.006 189.445 122.365C189.014 121.797 188.734 121.13 188.629 120.426C188.524 119.723 188.599 119.004 188.845 118.336C190.027 114.703 181.794 121.807 181.794 121.807C181.794 121.807 181.875 123.508 181.794 125.677C181.794 126.105 181.754 126.55 181.724 127.006C181.704 127.304 181.677 127.603 181.651 127.909C181.446 130.061 181.034 132.28 180.224 133.605C178.249 136.83 180.214 145.739 180.214 145.739Z" fill="#FDD8D8"/>
<path opacity="0.1" d="M181.719 125.596H181.915C182.279 125.596 182.559 124.912 182.908 124.879C185.705 124.635 188.258 124.106 190.033 122.317C189.566 121.753 189.262 121.093 189.148 120.396C189.034 119.7 189.115 118.988 189.382 118.327C190.665 114.728 181.744 121.761 181.744 121.761C181.744 121.761 181.813 123.445 181.719 125.596Z" fill="#121212"/>
<path d="M172.218 115.527C172.222 118.199 173.289 120.76 175.183 122.648C177.077 124.537 179.645 125.597 182.322 125.597C182.65 125.597 182.978 125.58 183.305 125.547C185.249 125.356 187.096 124.607 188.621 123.389C190.147 122.171 191.285 120.538 191.899 118.686C192.512 116.835 192.574 114.846 192.076 112.96C191.579 111.074 190.544 109.373 189.097 108.064C187.65 106.754 185.853 105.892 183.925 105.582C181.996 105.272 180.019 105.528 178.233 106.318C176.448 107.109 174.931 108.399 173.866 110.034C172.801 111.669 172.234 113.577 172.235 115.527H172.218Z" fill="#FDD8D8"/>
<path opacity="0.1" d="M172.218 115.517C172.222 118.192 173.242 120.756 175.054 122.646C176.867 124.536 179.323 125.597 181.883 125.597C182.197 125.597 182.511 125.58 182.824 125.546C182.996 125.473 183.148 125.357 183.269 125.21C183.381 125.03 183.454 124.828 183.485 124.616C183.515 124.404 183.5 124.187 183.443 123.981C183.062 122.013 181.352 120.599 180.736 118.694C180.195 117.011 180.601 115.103 181.432 113.548C182.263 111.993 183.491 110.711 184.702 109.452C184.906 109.205 185.162 109.012 185.45 108.887C186.481 108.55 188.027 109.493 188.846 108.53C187.509 107.087 185.791 106.093 183.912 105.675C182.032 105.257 180.075 105.434 178.292 106.184C176.509 106.933 174.98 108.22 173.901 109.882C172.822 111.543 172.242 113.503 172.234 115.51L172.218 115.517Z" fill="#121212"/>
<path d="M184.971 109.05C184.68 109.173 184.421 109.366 184.216 109.613C182.996 110.866 181.755 112.139 180.916 113.69C180.076 115.24 179.666 117.126 180.212 118.808C180.831 120.707 182.563 122.114 182.944 124.073C183.002 124.278 183.016 124.492 182.986 124.703C182.955 124.914 182.881 125.115 182.768 125.293C182.442 125.711 181.824 125.735 181.401 126.05C180.86 126.455 180.75 127.259 180.912 127.926C181.133 128.575 181.434 129.191 181.807 129.761C182.719 131.419 183.11 133.576 182.133 135.188C181.673 135.845 181.125 136.433 180.505 136.933C179.479 137.87 178.53 138.893 177.667 139.991C176.923 140.904 176.287 141.905 175.772 142.972C175.258 144.088 174.933 145.29 174.415 146.406C173.201 149.015 170.812 151.095 168.035 151.567C165.258 152.04 162.195 150.72 160.831 148.191C159.803 146.282 159.79 143.954 160.197 141.827C160.486 140.306 160.978 138.782 160.808 137.241C160.685 136.142 160.232 135.114 159.832 134.082C157.918 129.058 157.309 123.417 158.794 118.252C159.026 117.336 159.407 116.468 159.92 115.683C160.459 114.997 161.053 114.359 161.697 113.777C163.725 111.737 165.219 109.214 166.791 106.786C168.364 104.357 170.076 101.946 172.403 100.274C174.731 98.6028 177.794 97.7754 180.457 98.777C183.243 99.8254 184.965 102.498 186.899 104.649C187.683 105.527 189.206 106.642 188.767 108.039C188.126 110.008 186.192 108.655 184.971 109.05Z" fill="#493545"/>
<path opacity="0.1" d="M167.089 151.234C170.051 150.757 172.603 148.652 173.9 146.009C174.456 144.885 174.8 143.668 175.353 142.54C175.902 141.46 176.58 140.448 177.373 139.524C178.297 138.413 179.312 137.378 180.408 136.427C181.071 135.922 181.656 135.328 182.147 134.662C183.19 133.032 182.79 130.85 181.82 129.176C181.421 128.598 181.098 127.973 180.86 127.316C180.679 126.639 180.805 125.829 181.382 125.422C181.837 125.104 182.491 125.083 182.845 124.656C182.966 124.476 183.046 124.273 183.078 124.06C183.111 123.847 183.095 123.63 183.033 123.423C182.623 121.437 180.773 120.018 180.113 118.097C179.529 116.402 179.963 114.485 180.864 112.916C181.764 111.347 183.082 110.066 184.375 108.792C184.596 108.544 184.873 108.35 185.185 108.226C186.486 107.827 188.554 109.196 189.222 107.193C189.691 105.78 188.064 104.648 187.226 103.764C185.45 101.89 183.836 99.6269 181.521 98.3428C184.236 99.5016 185.995 102.039 187.953 104.103C188.791 104.987 190.418 106.116 189.949 107.528C189.281 109.531 187.212 108.162 185.912 108.562C185.6 108.687 185.322 108.882 185.102 109.131C183.798 110.398 182.477 111.686 181.576 113.255C180.676 114.824 180.241 116.731 180.825 118.435C181.486 120.353 183.336 121.776 183.746 123.758C183.808 123.965 183.824 124.182 183.791 124.395C183.759 124.608 183.679 124.812 183.558 124.992C183.211 125.415 182.546 125.439 182.094 125.761C181.517 126.168 181.399 126.981 181.573 127.655C181.808 128.312 182.131 128.936 182.533 129.512C183.503 131.189 183.923 133.371 182.859 135.001C182.368 135.666 181.783 136.26 181.121 136.766C180.026 137.716 179.011 138.751 178.086 139.86C177.293 140.784 176.615 141.796 176.066 142.875C175.513 144.007 175.169 145.22 174.612 146.348C173.316 148.988 170.764 151.092 167.801 151.57C166.05 151.837 164.257 151.52 162.715 150.668C164.087 151.261 165.605 151.457 167.089 151.234Z" fill="#121212"/>
<path d="M178.155 267.755L179.835 268.918L180.089 269.097L180.14 269.134L182.128 270.513L186.766 271.336L190.851 271.042C190.851 271.042 192.027 268.459 190.18 268.517C189.587 268.487 189.009 268.314 188.491 268.011L188.24 267.873C187.974 267.724 187.704 267.559 187.444 267.384C186.898 267.02 186.381 266.625 185.96 266.284C185.35 265.789 184.942 265.411 184.942 265.411L178.155 267.755Z" fill="#FDD8D8"/>
<path opacity="0.1" d="M179.344 268.752L179.608 268.943L179.662 268.983L181.736 270.457L186.574 271.337L190.836 271.023C190.836 271.023 192.062 268.262 190.136 268.323C189.518 268.291 188.914 268.106 188.373 267.782C188.682 267.975 188.919 268.277 189.044 268.637C189.121 269.358 185.894 270.619 185.894 270.619L181.341 269.325C181.341 269.325 180.567 269.091 179.505 268.795L179.404 268.766L179.344 268.752Z" fill="#121212"/>
<path d="M172.218 269.645C172.218 269.645 175.987 270.582 178.522 270.316C181.056 270.05 185.414 272.543 185.414 272.543C185.414 272.543 186.89 273.314 191.424 273.673C195.958 274.031 195.972 271.387 195.972 271.387C195.451 267.822 188.287 266.628 188.061 266.597C188.152 266.651 188.514 266.87 188.9 267.155C189.407 267.541 189.959 268.03 189.999 268.427C190.077 269.198 186.819 270.547 186.819 270.547L182.224 269.167C182.224 269.167 181.442 268.913 180.366 268.597L180.264 268.566C178.681 268.068 177.071 267.682 175.446 267.41C173.466 267.171 172.451 269.09 172.245 269.533C172.228 269.614 172.218 269.645 172.218 269.645Z" fill="#EE2A7B"/>
<path d="M112.832 187.965L114.912 189.556C114.912 189.556 115.516 189.528 116.415 189.496H116.703C117.996 189.451 119.774 189.405 121.288 189.402C122.693 189.402 123.859 189.444 124.211 189.567C125.265 189.918 127.084 183.634 127.084 183.634L124.998 183.143L124.295 182.981L123.81 182.869L122.117 182.472L116.977 183.051L113.37 185.376L112.832 187.965Z" fill="#FDD8D8"/>
<path opacity="0.1" d="M112.832 187.987L114.862 189.581C114.862 189.581 115.452 189.553 116.33 189.521C115.929 189.359 115.598 189.053 115.401 188.659C114.087 184.921 120.597 183.33 120.597 183.33L123.629 183.193L124.215 183.169L124.709 183.144L124.023 182.982L123.55 182.869L121.897 182.472L116.879 183.052L113.357 185.382L112.832 187.987Z" fill="#121212"/>
<path d="M109.878 189.064C111.054 190.216 118.745 189.085 119.073 189.037C118.488 189.107 117.896 189.064 117.326 188.908C116.252 188.589 115.993 187.889 115.993 187.889C114.738 184.206 120.968 182.635 120.968 182.635L123.874 182.504L124.436 182.476L131.49 182.153L131.835 180.101C131.835 180.101 129.536 180.333 125.943 180.635C123.917 180.808 121.474 181.002 118.797 181.186C111.359 181.706 109.602 186.803 109.602 186.803C109.602 186.803 108.692 187.889 109.878 189.064Z" fill="#EE2A7B"/>
<path d="M197.632 103.375C197.68 103.479 197.735 103.58 197.797 103.676L199.489 106.181L203.881 106.638L203.93 104.879L204.667 78.3941C204.667 78.3941 207.711 60.6294 201.966 61.6561C196.221 62.6828 199.825 78.3941 199.825 78.3941C199.825 78.3941 199.178 86.3659 198.709 88.7561C198.266 91.0645 196.26 100.455 197.632 103.375Z" fill="#FDD8D8"/>
<path d="M187.656 171.152L188.894 173.254L191.668 177.955C191.668 177.955 196.703 179.782 197.986 178.397C198.694 177.634 199.454 174.989 199.99 172.768C200.429 170.961 200.721 169.437 200.721 169.437L187.656 171.152Z" fill="#FDD8D8"/>
<path opacity="0.1" d="M187.656 171.033L188.894 172.991C188.973 172.929 189.045 172.859 189.109 172.784C190.507 171.134 196.68 172.435 199.99 172.539C200.429 170.856 200.721 169.437 200.721 169.437L187.656 171.033Z" fill="#121212"/>
<path opacity="0.1" d="M121.146 189.391C122.518 189.391 123.656 189.435 123.999 189.565C125.027 189.934 126.803 183.321 126.803 183.321L124.112 182.633L131.476 182.289L131.836 180.101C131.836 180.101 129.436 180.348 125.686 180.67C124.904 181.15 124.207 181.776 123.629 182.518L123.515 182.666C121.949 184.74 121.369 187.417 121.146 189.391Z" fill="#121212"/>
<path opacity="0.1" d="M178.155 267.667L180.218 268.966C183.312 268.44 186.135 267.612 186.468 266.317C186.47 266.295 186.47 266.274 186.468 266.252C185.815 265.775 185.378 265.411 185.378 265.411L178.155 267.667Z" fill="#121212"/>
<path opacity="0.1" d="M172.218 270.152C175.004 269.988 177.78 269.629 180.532 269.075C178.89 268.527 177.222 268.102 175.536 267.803C173.484 267.553 172.432 269.664 172.218 270.152Z" fill="#121212"/>
<path d="M121.146 191.582C121.146 193.024 125.204 193.948 125.204 193.948L137.571 204.736C137.571 204.736 145.348 208.139 150.289 213.043C155.229 217.947 159.598 213.752 159.598 213.752C164.836 212.483 179.912 194.597 179.912 194.597C179.912 194.597 180.267 215.021 180.973 216.522C181.68 218.023 180.737 222.118 180.324 223.851C179.912 225.584 180.03 228.235 180.03 228.235C180.03 228.235 174.376 249.407 174.849 251.253C175.323 253.098 171.786 261.753 171.786 261.753V268.966C171.786 268.966 185.623 268.446 186.387 265.388C187.151 262.329 182.914 261.004 182.914 261.004V260.239C185.68 258.854 186.211 249.334 186.211 249.334C186.211 249.334 190.334 237.562 190.922 235.62C191.51 233.679 190.922 230.713 190.922 230.713L191.335 228.175C191.335 228.175 192.217 226.446 192.217 226.101C192.336 225.22 192.686 224.385 193.232 223.676C193.881 222.927 192.525 221.138 192.525 221.138L193.705 218.156V214.865L196.471 202.937C196.471 202.937 199.356 189.021 198.355 184.475C197.354 179.929 199.535 177.607 199.535 177.607C194.801 180.039 192.434 174.625 191.646 172.305C191.443 171.705 191.348 171.311 191.348 171.311C191.348 171.311 184.859 168.965 178.813 169.522C177.586 169.623 176.377 169.875 175.215 170.271C168.502 172.637 167.437 182.444 167.437 182.444L161.489 191.331C158.445 199.233 153.833 200.041 153.833 200.041C153.833 200.041 143.059 192.944 142.765 192.6C142.471 192.255 138.349 190.522 138.349 190.522C137.864 189.684 137.122 189.018 136.228 188.617C134.815 188.04 134.7 185.907 134.7 185.907C134.521 180.887 131.518 180.483 131.518 180.483C121.089 179.581 121.146 190.141 121.146 191.582Z" fill="#4B6E82"/>
<path d="M180.53 163.512H187.656V143.369H180.53V163.512Z" fill="#494949"/>
<path opacity="0.1" d="M180.53 162.328H186.469V142.185H180.53V162.328Z" fill="#121212"/>
<path opacity="0.1" d="M197.16 104.269C197.159 104.279 197.159 104.289 197.16 104.299C197.214 104.374 197.276 104.446 197.346 104.515L199.261 106.31L204.23 106.638L204.285 105.377C202.734 105.291 199.206 105.019 197.16 104.269Z" fill="#121212"/>
<path d="M197.441 104.269C197.441 104.269 197.688 114.474 194.972 115.867C192.257 117.259 191.22 124.527 191.22 124.527C191.22 124.527 199.395 129.617 201.236 131.855C203.077 134.093 207.253 139.426 206.396 140.702C205.539 141.978 208.498 147.777 208.498 147.777C208.498 147.777 203.091 158.219 204.322 162.163C205.553 166.107 205.673 176.546 205.673 176.546H208.001C208.001 176.546 207.264 167.962 207.264 164.481C207.264 161.001 209.732 148.59 209.732 148.59C209.732 148.59 210.836 136.408 209.732 136.062C208.628 135.716 202.118 130.843 201.621 128.637C201.123 126.432 205.059 105.901 205.059 105.901C205.059 105.901 200.023 105.661 197.441 104.269Z" fill="#494949"/>
<path opacity="0.1" d="M180.53 141.776C180.741 143.191 181.259 144.543 182.05 145.739L186.357 145.025C186.357 145.025 199.293 142.138 201.974 141.905C203.647 141.759 205.498 141.076 206.66 140.578C205.636 136.976 203.634 133.722 200.873 131.172L199.23 129.662C196.807 127.439 194.006 125.662 190.956 124.411C191.147 124.574 204.719 136.064 201.746 138.318C198.774 140.571 190.779 135.068 190.779 135.068L181.678 127.315L181.344 127.033L180.815 127.843C181.084 127.954 181.346 128.079 181.601 128.218C184.695 129.91 186.989 132.745 187.984 136.107C189.862 142.347 180.53 141.776 180.53 141.776Z" fill="#121212"/>
<path opacity="0.1" d="M178.155 171.193C178.155 171.193 186.606 176.084 188.649 173.34C189.102 172.738 190.039 172.474 191.22 172.402C191.023 171.782 190.931 171.374 190.931 171.374C190.931 171.374 184.638 168.949 178.775 169.525C178.398 170.542 178.155 171.193 178.155 171.193Z" fill="#121212"/>
<path d="M182.044 127.04L191.342 135.03C191.342 135.03 199.205 140.513 202.156 138.254C205.107 135.995 191.514 124.411 191.514 124.411C194.524 125.654 197.288 127.423 199.677 129.636L201.298 131.139C205.556 135.086 206.516 135.086 206.658 140.893C206.695 142.32 206.209 144.374 205.836 144.747C204.457 146.115 203.486 155.931 203.701 157.081C203.915 158.23 201.123 168.159 202.05 170.92C202.978 173.681 190.788 169.54 188.718 172.185C186.648 174.831 178.155 170.114 178.155 170.114C178.155 170.114 182.869 158.035 184.018 157.233C185.166 156.43 186.546 150.214 184.018 147.324C181.489 144.434 181.248 141.705 181.248 141.705C181.248 141.705 190.451 142.277 188.606 136.071C188.087 134.272 187.187 132.606 185.967 131.187C184.747 129.768 183.235 128.628 181.535 127.846L182.044 127.04Z" fill="#E8E8F0"/>
<path opacity="0.1" d="M194.777 146.924C194.777 146.924 191.268 154.171 186.723 156.052C186.58 156.109 186.437 156.162 186.29 156.212C181.541 157.787 195.118 149.153 194.777 146.924Z" fill="#121212"/>
<path d="M144.043 87.6854C144.043 87.6854 145.773 92.1287 147.158 93.6456C148.543 95.1625 158.811 110.358 158.811 110.358L159.682 112.181L160.428 113.748L167.005 113.047L167.465 110.362L167.213 110.05C166.551 109.248 164.752 107.093 163.542 106.153C162.045 104.985 159.043 101.119 159.043 101.119C159.043 101.119 149.696 91.2998 149.006 88.615C148.317 85.9303 138.967 69.7981 136.89 72.6037C134.812 75.4093 144.043 87.6854 144.043 87.6854Z" fill="#FDD8D8"/>
<path opacity="0.1" d="M160.34 111.74L161.022 113.748L167.044 112.849L167.466 109.409L167.235 109.009C166.586 109.46 161.772 112.733 160.34 111.74Z" fill="#121212"/>
<path opacity="0.1" d="M184.094 129.409C184.094 129.409 182.489 126.863 181.57 127.557C180.65 128.252 180.294 125.473 179.783 125.935C179.273 126.397 177.724 127.69 177.094 125.882C176.593 124.446 171.162 115.37 168.948 111.713L168.028 110.19C168.028 110.19 161.829 113.319 160.34 112.275V114.476L161.602 114.592L168.371 127.325C168.371 127.325 170.5 130.732 170.348 131.926C170.197 133.119 173.07 138.325 173.528 138.671C173.987 139.017 178.923 144.808 178.923 144.808C178.923 144.808 181.448 157.311 179.253 160.785C177.058 164.259 173.285 166.806 173.285 166.806C173.285 166.806 172.148 170.16 172.296 170.509C172.444 170.859 170.978 172.361 171.66 172.837C172.342 173.312 173.268 176.543 173.268 176.543C173.268 176.543 176.481 171.334 178.211 170.523C179.942 169.712 182.166 159.06 182.166 159.06C182.166 159.06 182.799 152.78 182.851 148.728C182.904 144.675 182.716 129.409 184.094 129.409Z" fill="#121212"/>
<path d="M184.094 129.409C184.094 129.409 182.486 126.863 181.57 127.557C180.654 128.252 180.295 125.473 179.784 125.935C179.273 126.397 177.725 127.69 177.095 125.882C176.591 124.446 171.164 115.37 168.95 111.713C168.383 110.772 168.027 110.19 168.027 110.19C168.027 110.19 161.833 113.319 160.34 112.275V114.476L161.602 114.592L168.373 127.325C168.373 127.325 170.498 130.732 170.35 131.926C170.202 133.119 173.075 138.325 173.533 138.671C173.991 139.017 178.927 144.808 178.927 144.808C178.927 144.808 181.451 157.311 179.257 160.785C178.103 162.527 176.699 164.087 175.092 165.413C173.75 166.538 172.806 168.072 172.403 169.785C172.326 170.018 172.299 170.265 172.324 170.509C172.492 170.842 171.006 172.361 171.688 172.837C172.37 173.312 173.293 176.543 173.293 176.543C173.293 176.543 176.505 171.334 178.235 170.523C179.965 169.712 182.189 159.06 182.189 159.06C182.189 159.06 182.819 152.78 182.871 148.728C182.924 144.675 182.717 129.409 184.094 129.409Z" fill="#494949"/>
<path opacity="0.1" d="M168.002 182.472C168.002 182.472 172.514 183.301 174.34 184.553C176.166 185.804 167.466 182.585 167.466 182.585L168.002 182.472Z" fill="#121212"/>
<path opacity="0.1" d="M179.344 194.319C179.344 194.319 184.996 198.515 183.97 202.311C182.945 206.107 180.355 215.647 180.355 215.647L179.344 194.319Z" fill="#121212"/>
<path opacity="0.1" d="M135.398 186.026C135.398 186.026 127.804 186.965 128.294 188.076C128.785 189.186 135.398 187.053 135.398 187.053V186.026Z" fill="#121212"/>
<path opacity="0.1" d="M190.001 221.338C190.001 221.338 190.459 221.862 187.84 221.338C185.222 220.814 187.157 219.201 187.157 219.201L190.001 221.338Z" fill="#121212"/>
<path opacity="0.1" d="M181.719 260.904C181.719 260.904 181.068 260.046 177.801 261.622C174.533 263.198 173.227 263.264 172.279 262.763C171.331 262.263 181.719 260.904 181.719 260.904Z" fill="#121212"/>
<path opacity="0.1" d="M185.281 184.843L180.53 191.952C180.53 191.952 183.089 185.727 185.281 184.843Z" fill="#121212"/>
<path opacity="0.1" d="M176.968 126.782C176.968 126.782 176.759 129.044 173.6 129.924C170.44 130.804 169.842 131.522 169.842 131.522" fill="#121212"/>
<path opacity="0.1" d="M168.655 112.563C168.655 112.563 165.171 115.465 161.528 114.847L168.655 112.563Z" fill="#121212"/>
<path opacity="0.1" d="M172.218 170.556C172.218 170.556 173.267 171.239 175.781 168.254L172.218 170.556Z" fill="#121212"/>
<path opacity="0.1" d="M200.703 137.445C200.817 136.906 200.41 136.402 200.014 135.981L199.232 135.116C199.08 134.938 198.91 134.774 198.723 134.628C198.261 134.293 197.648 134.191 197.159 133.891" fill="#121212"/>
<path d="M194.388 15.4045H145.278C144.453 15.3997 143.636 15.5589 142.872 15.873C142.108 16.1871 141.413 16.65 140.826 17.2352C140.24 17.8204 139.773 18.5164 139.453 19.2837C139.133 20.0509 138.966 20.8742 138.961 21.7066V70.7156C138.966 71.548 139.133 72.3713 139.453 73.1385C139.773 73.9057 140.24 74.6018 140.826 75.187C141.413 75.7722 142.108 76.2351 142.872 76.5492C143.636 76.8633 144.453 77.0225 145.278 77.0177H194.404C195.229 77.0225 196.047 76.8633 196.811 76.5492C197.575 76.2351 198.27 75.7722 198.856 75.187C199.443 74.6018 199.909 73.9057 200.23 73.1385C200.55 72.3713 200.717 71.548 200.721 70.7156V21.7066C200.717 20.8728 200.549 20.0481 200.228 19.2798C199.907 18.5115 199.439 17.8147 198.85 17.2292C198.262 16.6438 197.565 16.1813 196.799 15.8682C196.033 15.5551 195.214 15.3975 194.388 15.4045Z" fill="url(#paint2_linear)"/>
<path d="M194.401 15.4043H145.281C141.791 15.4043 138.961 18.2272 138.961 21.7094V70.7127C138.961 74.1949 141.791 77.0178 145.281 77.0178H194.401C197.892 77.0178 200.721 74.1949 200.721 70.7127V21.7094C200.721 18.2272 197.892 15.4043 194.401 15.4043Z" fill="#8BC63E"/>
<path d="M159.154 55.6897C158.33 55.6892 157.53 55.974 156.893 56.4955C156.255 57.0169 155.819 57.7428 155.658 58.5495C155.496 59.3561 155.621 60.1935 156.009 60.9189C156.398 61.6444 157.026 62.213 157.788 62.5279C158.55 62.8428 159.397 62.8844 160.186 62.6457C160.975 62.407 161.657 61.9028 162.115 61.2189C162.573 60.535 162.779 59.7138 162.698 58.8953C162.617 58.0768 162.254 57.3116 161.671 56.7302C161.344 56.3957 160.952 56.131 160.52 55.9521C160.087 55.7733 159.622 55.684 159.154 55.6897Z" fill="#EAEAF3"/>
<path d="M159.151 47.9997C159.155 47.0397 158.824 46.1083 158.216 45.3644C157.607 44.6205 156.759 44.1102 155.816 43.9206C154.872 43.7309 153.892 43.8737 153.043 44.3245C152.193 44.7753 151.527 45.5062 151.157 46.3925C150.787 47.2788 150.737 48.2657 151.015 49.1847C151.294 50.1037 151.883 50.898 152.682 51.4321C153.482 51.9661 154.443 52.2069 155.4 52.1132C156.358 52.0195 157.253 51.5973 157.934 50.9185C158.326 50.5409 158.637 50.0871 158.846 49.585C159.055 49.083 159.159 48.5434 159.151 47.9997Z" fill="#EAEAF3"/>
<path d="M182.318 37.9166C182.73 37.9152 183.129 37.7714 183.446 37.5097C183.764 37.248 183.981 36.8845 184.06 36.4812C184.139 36.0779 184.076 35.6596 183.881 35.2977C183.686 34.9357 183.371 34.6524 182.99 34.496C182.609 34.3396 182.185 34.3198 181.791 34.4399C181.397 34.56 181.057 34.8126 180.829 35.1548C180.6 35.4969 180.498 35.9074 180.539 36.3163C180.58 36.7253 180.762 37.1074 181.054 37.3977C181.218 37.5659 181.414 37.6988 181.632 37.788C181.849 37.8773 182.083 37.9211 182.318 37.9166Z" fill="#EAEAF3"/>
<path d="M159.146 31.9917C158.047 31.9931 156.982 32.3268 156.134 32.9362C155.285 33.5456 154.705 34.3928 154.492 35.3337C154.278 36.2746 154.445 37.2509 154.964 38.0964C155.483 38.9419 156.322 39.6043 157.337 39.9707C158.353 40.3372 159.482 40.3851 160.533 40.1062C161.585 39.8273 162.493 39.239 163.103 38.4413C163.713 37.6437 163.988 36.6861 163.88 35.7316C163.772 34.7771 163.289 33.8847 162.512 33.2065C162.075 32.8143 161.551 32.5042 160.973 32.2953C160.394 32.0864 159.772 31.9831 159.146 31.9917Z" fill="#EAEAF3"/>
<path d="M189.345 45.7293C188.958 45.3391 188.447 45.0951 187.9 45.0389C187.353 44.9826 186.803 45.1176 186.344 45.4208C185.886 45.724 185.547 46.1766 185.386 46.7014C185.224 47.2261 185.251 47.7904 185.46 48.298C185.669 48.8055 186.049 49.2248 186.534 49.4843C187.018 49.7438 187.578 49.8273 188.118 49.7207C188.658 49.6141 189.143 49.3238 189.492 48.8996C189.841 48.4753 190.032 47.9434 190.032 47.3945C190.037 47.0849 189.979 46.7774 189.861 46.491C189.743 46.2047 189.567 45.9454 189.345 45.7293Z" fill="#EAEAF3"/>
<path d="M182.348 55.6897C181.66 55.6816 180.99 55.9124 180.453 56.3424C179.917 56.7725 179.547 57.3753 179.406 58.0475C179.266 58.7198 179.364 59.4198 179.684 60.0279C180.003 60.6359 180.525 61.1143 181.159 61.3811C181.794 61.6479 182.501 61.6866 183.161 61.4905C183.82 61.2945 184.391 60.8759 184.776 60.3063C185.16 59.7368 185.335 59.0516 185.269 58.3681C185.203 57.6846 184.901 57.0451 184.415 56.5591C184.147 56.2823 183.826 56.0626 183.47 55.9132C183.115 55.7637 182.733 55.6877 182.348 55.6897Z" fill="#EAEAF3"/>
<path d="M171.029 60.4281C170.204 60.4281 169.406 60.7133 168.768 61.2351C168.131 61.7568 167.695 62.4828 167.534 63.2893C167.373 64.0959 167.498 64.9331 167.887 65.6583C168.275 66.3835 168.904 66.9518 169.666 67.2665C170.427 67.5811 171.275 67.6226 172.063 67.3839C172.852 67.1451 173.534 66.6409 173.992 65.9571C174.45 65.2733 174.656 64.4523 174.575 63.6339C174.494 62.8156 174.131 62.0505 173.548 61.469C173.221 61.1337 172.829 60.8684 172.396 60.6894C171.963 60.5104 171.498 60.4215 171.029 60.4281Z" fill="#EAEAF3"/>
<path d="M171.004 26.0661C169.906 26.072 168.844 26.4571 167.998 27.1559C167.153 27.8547 166.576 28.8241 166.366 29.8992C166.156 30.9743 166.326 32.0888 166.847 33.0531C167.368 34.0174 168.207 34.7719 169.223 35.1884C170.238 35.6049 171.367 35.6577 172.417 35.3377C173.467 35.0177 174.374 34.3447 174.983 33.4332C175.591 32.5217 175.865 31.428 175.757 30.338C175.649 29.248 175.165 28.2291 174.389 27.4545C173.949 27.0051 173.422 26.6502 172.84 26.4114C172.258 26.1727 171.633 26.0552 171.004 26.0661Z" fill="#EAEAF3"/>
<defs>
<linearGradient id="paint0_linear" x1="220.329" y1="272.512" x2="220.329" y2="228.693" gradientUnits="userSpaceOnUse">
<stop stop-color="#808080" stop-opacity="0.25"/>
<stop offset="0.54" stop-color="#808080" stop-opacity="0.12"/>
<stop offset="1" stop-color="#808080" stop-opacity="0.1"/>
</linearGradient>
<linearGradient id="paint1_linear" x1="55240" y1="183495" x2="55240" y2="44536.5" gradientUnits="userSpaceOnUse">
<stop stop-color="#808080" stop-opacity="0.25"/>
<stop offset="0.54" stop-color="#808080" stop-opacity="0.12"/>
<stop offset="1" stop-color="#808080" stop-opacity="0.1"/>
</linearGradient>
<linearGradient id="paint2_linear" x1="28899" y1="10397.9" x2="40464.9" y2="10397.9" gradientUnits="userSpaceOnUse">
<stop stop-color="#808080" stop-opacity="0.25"/>
<stop offset="0.54" stop-color="#808080" stop-opacity="0.12"/>
<stop offset="1" stop-color="#808080" stop-opacity="0.1"/>
</linearGradient>
</defs>
</svg>
