<svg width="343" height="285" viewBox="0 0 343 285" fill="none" xmlns="http://www.w3.org/2000/svg">
<path d="M245.418 64.5635H243.266C242.842 64.5635 242.498 64.9496 242.498 65.426V97.8272C242.498 98.3035 242.842 98.6897 243.266 98.6897H245.418C245.842 98.6897 246.186 98.3035 246.186 97.8272V65.426C246.186 64.9496 245.842 64.5635 245.418 64.5635Z" fill="#494949"/>
<path d="M229.483 0H119.049C110.843 0 104.191 6.63449 104.191 14.8185V269.259C104.191 277.443 110.843 284.078 119.049 284.078H229.483C237.689 284.078 244.341 277.443 244.341 269.259V14.8185C244.341 6.63449 237.689 0 229.483 0Z" fill="#494949"/>
<path d="M224.933 7.37891H208.886V9.30787C208.886 10.5086 208.649 11.6975 208.189 12.8068C207.729 13.916 207.055 14.9238 206.205 15.7726C205.355 16.6214 204.346 17.2946 203.236 17.7536C202.125 18.2126 200.935 18.4486 199.734 18.4479H148.699C147.497 18.4486 146.307 18.2126 145.197 17.7536C144.087 17.2946 143.078 16.6214 142.228 15.7726C141.378 14.9238 140.704 13.916 140.244 12.8068C139.784 11.6975 139.547 10.5086 139.547 9.30787V7.37891H124.522C121.575 7.37891 118.749 8.54859 116.666 10.6306C114.582 12.7127 113.412 15.5365 113.412 18.481V265.597C113.412 268.542 114.582 271.366 116.666 273.448C118.749 275.53 121.575 276.699 124.522 276.699H224.933C227.88 276.699 230.706 275.53 232.789 273.448C234.873 271.366 236.043 268.542 236.043 265.597V18.5C236.046 17.0404 235.76 15.5947 235.203 14.2456C234.646 12.8964 233.828 11.6703 232.796 10.6373C231.764 9.60441 230.538 8.78494 229.189 8.22582C227.84 7.6667 226.394 7.3789 224.933 7.37891Z" fill="white"/>
<path d="M179.192 8.30176H161.965C161.12 8.30176 160.436 8.91505 160.436 9.67158V10.6213C160.436 11.3778 161.12 11.9911 161.965 11.9911H179.192C180.037 11.9911 180.721 11.3778 180.721 10.6213V9.67158C180.721 8.91505 180.037 8.30176 179.192 8.30176Z" fill="#E6E8EC"/>
<path d="M185.792 12.9134C187.065 12.9134 188.097 11.8811 188.097 10.6076C188.097 9.33411 187.065 8.30176 185.792 8.30176C184.519 8.30176 183.487 9.33411 183.487 10.6076C183.487 11.8811 184.519 12.9134 185.792 12.9134Z" fill="#E6E8EC"/>
<path d="M175.189 172.476C189.957 172.476 201.928 160.5 201.928 145.728C201.928 130.956 189.957 118.98 175.189 118.98C160.421 118.98 148.45 130.956 148.45 145.728C148.45 160.5 160.421 172.476 175.189 172.476Z" fill="white"/>
<path d="M210.226 142.04C210.226 148.972 208.144 155.748 204.243 161.512C200.342 167.275 194.798 171.767 188.311 174.42C181.825 177.072 174.687 177.766 167.801 176.414C160.915 175.061 154.59 171.723 149.626 166.821C144.661 161.919 141.28 155.674 139.911 148.875C138.541 142.077 139.245 135.029 141.932 128.625C144.619 122.221 149.169 116.747 155.007 112.896C160.844 109.045 167.708 106.99 174.729 106.99C179.391 106.99 184.007 107.897 188.313 109.659C192.62 111.42 196.534 114.002 199.83 117.257C203.126 120.511 205.741 124.375 207.525 128.627C209.308 132.88 210.226 137.437 210.226 142.04ZM170.625 160.592L196.958 134.593C197.171 134.383 197.34 134.134 197.455 133.86C197.571 133.585 197.63 133.291 197.63 132.994C197.63 132.697 197.571 132.402 197.455 132.128C197.34 131.853 197.171 131.604 196.958 131.394L193.718 128.219C193.506 128.008 193.254 127.842 192.976 127.728C192.698 127.614 192.401 127.555 192.1 127.555C191.8 127.555 191.502 127.614 191.224 127.728C190.947 127.842 190.695 128.008 190.482 128.219L169.005 149.424L158.977 139.499C158.547 139.077 157.965 138.84 157.357 138.84C156.75 138.84 156.168 139.077 155.737 139.499L152.497 142.717C152.069 143.142 151.829 143.717 151.829 144.317C151.829 144.916 152.069 145.491 152.497 145.916L167.386 160.611C167.599 160.821 167.851 160.988 168.129 161.102C168.407 161.216 168.705 161.274 169.006 161.274C169.307 161.274 169.605 161.216 169.883 161.102C170.161 160.988 170.414 160.821 170.626 160.611L170.625 160.592Z" fill="#8BC63E"/>
<path d="M108.961 56.2637H108.641C108.22 56.2637 107.879 56.6516 107.879 57.1302V65.5428C107.879 66.0214 108.22 66.4093 108.641 66.4093H108.961C109.382 66.4093 109.723 66.0214 109.723 65.5428V57.1302C109.723 56.6516 109.382 56.2637 108.961 56.2637Z" fill="#494949"/>
<path d="M109.047 74.7109H108.555C108.182 74.7109 107.879 75.096 107.879 75.5709V91.3753C107.879 91.8502 108.182 92.2352 108.555 92.2352H109.047C109.42 92.2352 109.723 91.8502 109.723 91.3753V75.5709C109.723 75.096 109.42 74.7109 109.047 74.7109Z" fill="#494949"/>
<path d="M109.013 98.6904H108.589C108.197 98.6904 107.879 99.0722 107.879 99.5431V115.362C107.879 115.833 108.197 116.215 108.589 116.215H109.013C109.405 116.215 109.723 115.833 109.723 115.362V99.5431C109.723 99.0722 109.405 98.6904 109.013 98.6904Z" fill="#494949"/>
<path d="M96.8149 153.108L96.3631 155.549L96.0144 157.416L95.3803 160.83L89.2319 165.099C89.2319 165.099 88.6777 164.628 87.7634 163.887C85.2437 161.829 79.9477 157.64 76.0589 155.392C75.0586 154.759 73.9763 154.265 72.8418 153.922L96.8149 153.108Z" fill="#FCD3D3"/>
<path d="M92.614 154.695C92.614 154.695 100.037 155.989 100.471 152.77C100.906 149.551 96.6507 147.811 93.0444 147.594C89.4382 147.378 67.7936 148.888 67.7936 148.888C67.7936 148.888 63.9756 154.059 77.7644 154.925L92.614 154.695Z" fill="#494949"/>
<path d="M107.879 52.5732H70.0752V97.7674H107.879V52.5732Z" fill="#494949"/>
<path opacity="0.1" d="M107.879 52.5732H70.0752V97.7674H107.879V52.5732Z" fill="#121212"/>
<path d="M25.8171 129.26C25.1793 129.421 24.3642 130.039 23.4577 130.932C19.5538 134.802 13.9626 143.884 13.9626 143.884C6.8141 135.358 14.7244 128.621 18.0962 126.306C18.916 125.746 19.4667 125.438 19.4667 125.438L25.8171 129.26Z" fill="#FCD3D3"/>
<path d="M96.2893 66.4092C96.2893 66.4092 98.1235 79.8511 104.439 83.0518C110.754 86.2525 96.2893 92.2344 96.2893 92.2344L76.5293 84.5471C76.5293 84.5471 87.735 80.705 85.4928 69.3954L96.2893 66.4092Z" fill="#FCD3D3"/>
<path d="M74.685 145.729L74.2358 148.162L73.8709 150.036L73.2373 153.453L67.094 157.719C67.094 157.719 66.5402 157.252 65.6268 156.511C63.1091 154.453 57.818 150.262 53.9263 148.012C52.9274 147.379 51.8459 146.884 50.7119 146.541L74.685 145.729Z" fill="#FCD3D3"/>
<path d="M69.716 148.497C69.716 148.497 76.1182 148.545 76.5034 145.345C76.8885 142.146 73.0143 140.431 69.716 140.216C66.4176 140.002 46.3773 141.598 46.3773 141.598C46.3773 141.598 43.5342 147.641 56.1397 148.497L69.716 148.497Z" fill="#494949"/>
<path d="M115.211 197.23C114.929 197.09 114.646 196.945 114.369 196.804L113.61 195.836L103.668 183.067V183.289C103.601 185.421 102.885 202.319 97.3012 203.88C91.3426 205.543 84.1543 205.961 80.8775 194.723C77.6006 183.485 71.6134 158.927 65.4648 157.469L74.6112 149.873C74.6112 149.873 80.6668 157.047 83.1341 163.913C83.0416 163.487 78.8598 143.698 82.2918 140.196H112.298C112.298 140.196 116.93 153.558 120.105 160.178C122.577 165.317 126.287 177.467 128.676 185.69C131.04 193.81 122.732 200.979 115.211 197.23Z" fill="#494949"/>
<path opacity="0.1" d="M114.333 143.951C109.611 146.682 88.8802 145.57 82.1359 145.125L80.2984 144.995C80.1009 144.995 80.3284 144.886 80.3284 144.886L80.5174 143.028L85.5446 130.544L112.462 115.292C111.916 116.899 111.736 119.357 111.779 122.172C111.903 131.215 114.333 143.951 114.333 143.951Z" fill="#121212"/>
<path d="M114.333 143.896C109.642 146.71 89.0464 145.564 82.3461 145.106L80.5206 144.976L80.2178 144.95L80.5504 144.864L82.1966 144.432L85.7322 130.086L112.473 114.369C111.932 116.025 111.753 118.559 111.795 121.46C111.919 130.773 114.333 143.896 114.333 143.896Z" fill="#EFEFEF"/>
<path opacity="0.1" d="M111.824 121.382C106.489 122.641 94.7478 126.334 90.2367 135.254C87.2283 141.193 84.6966 143.74 82.9307 144.806L81.1396 144.677C81.1514 144.641 81.1611 144.604 81.1689 144.566L82.784 144.138L86.2528 129.932L112.489 114.369C111.964 116 111.782 118.509 111.824 121.382Z" fill="#121212"/>
<path opacity="0.1" d="M19.7498 125.438L25.8168 129.285C25.2074 129.447 24.4287 130.07 23.5626 130.971C23.0569 129.412 19.8843 127.234 18.4404 126.305C19.2233 125.749 19.7498 125.438 19.7498 125.438Z" fill="#121212"/>
<path d="M93.7754 82.3896C93.7754 82.3896 88.1867 83.0089 84.2559 78.8686C84.2559 78.8686 67.7177 83.6327 62.1168 94.3956C56.5159 105.158 18.4404 126.277 18.4404 126.277C18.4404 126.277 25.0641 130.002 24.4406 131.865L49.4801 117.372C49.4801 117.372 58.3849 110.958 60.8572 109.507C63.3296 108.057 77.0004 99.1559 79.8967 123.376C82.7929 147.596 79.8967 144.698 79.8967 144.698C79.8967 144.698 84.0354 146.149 90.0355 134.554C96.0357 122.96 114.655 120.27 114.655 120.27L115.69 108.06C115.69 108.06 119.383 99.9657 116.538 96.6059C115.676 95.6111 115.103 94.3992 114.88 93.1016C114.409 90.0004 114.88 84.8331 121.469 80.5399C131.608 73.9131 135.539 68.5339 135.539 68.5339C135.539 68.5339 135.747 64.5971 129.539 62.7345C123.331 60.8718 98.0879 50.7285 98.0879 50.7285L97.2397 54.2496L117.157 68.3133C117.157 68.3133 107.226 76.3737 99.3475 76.1786C99.3471 76.1786 100.81 82.1816 93.7754 82.3896Z" fill="#8BC63E"/>
<path opacity="0.1" d="M97.7367 72.6605C97.2257 70.9117 96.8264 69.1315 96.5412 67.3311L85.0894 70.3856C85.5942 72.5928 85.504 74.8963 84.8281 77.0563C87.1695 77.6871 89.6431 77.6065 91.9393 76.8246C94.2354 76.0426 96.2521 74.5942 97.7367 72.6605Z" fill="#121212"/>
<path d="M88.5159 76.5538C95.1358 76.5538 100.502 71.1856 100.502 64.5635C100.502 57.9415 95.1358 52.5732 88.5159 52.5732C81.8959 52.5732 76.5293 57.9415 76.5293 64.5635C76.5293 71.1856 81.8959 76.5538 88.5159 76.5538Z" fill="#FCD3D3"/>
<path opacity="0.1" d="M101.425 159.563C101.425 159.563 107.538 172.968 105.685 177.088L101.425 159.563Z" fill="#121212"/>
<path d="M94.8328 36.985C98.1103 37.3648 101.223 38.7925 104.45 39.5735C105.256 39.8282 106.115 39.8609 106.938 39.6682C108.19 39.2756 109.209 37.9427 110.508 37.9814C111.308 38.0073 112.015 38.5597 112.674 39.09C113.729 39.9108 114.722 40.8106 115.646 41.7821C117.87 44.2367 119.25 47.5415 121.279 50.212C123.309 52.8825 126.203 56.014 129.086 54.7894C127.125 62.5548 121.008 67.4126 114.058 67.8961C111.285 68.0895 108.445 67.5035 105.761 68.3274C105.093 68.6058 104.387 68.7803 103.668 68.8449C102.122 68.8449 100.878 67.4041 99.9143 66.0019C97.6554 62.706 95.8682 58.9657 93.3249 55.9587C92.4757 54.9623 91.4951 54.0173 90.3062 53.8363C89.1174 53.6553 88.0264 54.2332 86.9693 54.7898C85.2243 55.7088 83.4412 56.6576 82.0868 58.2412C80.7324 59.8248 79.8789 62.1626 80.4393 64.2811C80.7407 65.4287 81.429 66.4642 81.4412 67.6633C81.4667 69.5787 79.8024 70.9766 79.4754 72.8402C79.4016 73.623 79.3746 74.4096 79.3947 75.1958C79.2504 77.7487 77.6055 79.8374 75.8925 81.4469C75.2218 82.0681 74.484 82.7411 74.2876 83.7031C74.1559 84.3629 74.2876 85.0569 74.2027 85.7264C73.9523 87.3831 72.326 88.2244 70.8867 88.4402C69.2051 88.6932 67.4874 88.4863 65.9106 87.8407C67.9232 86.8737 69.163 84.122 68.696 81.6584C68.0549 78.2415 64.6753 75.7868 64.9654 72.3099C65.1243 71.243 65.4391 70.2063 65.8996 69.234C66.636 67.3551 67.1713 65.4011 67.4961 63.4058C67.7508 61.8655 67.8741 60.2305 67.3983 58.7595C66.9738 57.422 66.0865 56.3567 65.3347 55.2261C64.3159 53.688 63.5115 52.0141 62.9444 50.2519C62.7389 49.7291 62.6606 49.1638 62.716 48.6037C62.8863 47.9423 63.2488 47.3483 63.7564 46.8995C65.6034 44.9268 67.5776 42.8787 70.0531 42.3136C71.2342 42.1143 72.4353 42.0679 73.6279 42.1755C75.702 42.2416 77.7781 42.1521 79.8393 41.9078C81.5375 41.7051 84.4074 41.731 85.847 40.6136C87.1885 39.5692 87.9445 38.258 89.5959 37.5938C91.2683 36.964 93.0659 36.7552 94.8351 36.9854L94.8328 36.985Z" fill="#494949"/>
<path d="M313.955 284.077C323.376 284.077 331.013 282.632 331.013 280.849C331.013 279.066 323.376 277.621 313.955 277.621C304.534 277.621 296.897 279.066 296.897 280.849C296.897 282.632 304.534 284.077 313.955 284.077Z" fill="#8BC63E"/>
<path d="M328.834 272.584C329.614 271.971 330.183 271.145 330.464 270.215C330.677 269.278 330.26 268.167 329.323 267.804C328.275 267.42 327.154 268.12 326.308 268.823C325.462 269.527 324.486 270.333 323.375 270.182C323.947 269.685 324.375 269.054 324.618 268.35C324.861 267.647 324.91 266.895 324.76 266.168C324.71 265.866 324.576 265.583 324.373 265.349C323.794 264.752 322.737 265.005 322.044 265.48C319.83 266.974 319.212 269.869 319.2 272.465C318.974 271.528 319.165 270.55 319.157 269.6C319.149 268.651 318.88 267.553 318.033 267.051C317.51 266.782 316.923 266.649 316.33 266.666C315.334 266.63 314.226 266.728 313.545 267.427C312.694 268.295 312.924 269.752 313.656 270.701C314.389 271.651 315.508 272.26 316.539 272.919C317.362 273.392 318.065 274.037 318.593 274.806C318.657 274.913 318.708 275.027 318.746 275.146H324.966C326.369 274.463 327.669 273.602 328.832 272.586L328.834 272.584Z" fill="#8BC63E"/>
<path d="M81.1397 285C87.2505 285 92.2042 284.174 92.2042 283.155C92.2042 282.136 87.2505 281.311 81.1397 281.311C75.0289 281.311 70.0752 282.136 70.0752 283.155C70.0752 284.174 75.0289 285 81.1397 285Z" fill="#EFEFEF"/>
<path d="M85.5998 279.683C86.0921 279.292 86.4509 278.767 86.6287 278.175C86.707 277.878 86.6783 277.564 86.5474 277.284C86.4165 277.005 86.1911 276.778 85.9087 276.64C85.2476 276.395 84.5411 276.841 84.0066 277.289C83.4722 277.737 82.8566 278.25 82.1555 278.154C82.5164 277.837 82.7865 277.436 82.9395 276.988C83.0925 276.54 83.1233 276.061 83.0287 275.599C82.9972 275.407 82.9127 275.227 82.7842 275.078C82.4203 274.697 81.7524 274.859 81.3147 275.161C79.9176 276.113 79.5279 277.953 79.5199 279.607C79.3777 279.011 79.4985 278.388 79.493 277.784C79.4876 277.18 79.3184 276.482 78.7836 276.162C78.4537 275.99 78.083 275.906 77.7088 275.917C77.0801 275.893 76.3816 275.956 75.9516 276.401C75.4142 276.954 75.5593 277.881 76.0214 278.485C76.4835 279.09 77.19 279.478 77.8405 279.896C78.3605 280.196 78.8041 280.606 79.1383 281.096C79.1785 281.164 79.211 281.237 79.2351 281.312H83.1604C84.0454 280.877 84.866 280.329 85.5998 279.681V279.683Z" fill="#EFEFEF"/>
<path d="M17.5186 285C23.6294 285 28.5831 284.174 28.5831 283.155C28.5831 282.136 23.6294 281.311 17.5186 281.311C11.4079 281.311 6.4541 282.136 6.4541 283.155C6.4541 284.174 11.4079 285 17.5186 285Z" fill="#EFEFEF"/>
<path d="M21.8895 279.683C22.4229 279.292 22.8115 278.767 23.0042 278.175C23.089 277.878 23.058 277.564 22.9161 277.284C22.7742 277.005 22.5301 276.778 22.2242 276.64C21.508 276.395 20.7426 276.841 20.1636 277.289C19.5846 277.737 18.9177 278.25 18.1582 278.154C18.5491 277.837 18.8418 277.436 19.0075 276.988C19.1733 276.54 19.2066 276.061 19.1041 275.599C19.07 275.407 18.9785 275.227 18.8393 275.078C18.4451 274.697 17.7215 274.859 17.2473 275.161C15.7338 276.113 15.3117 277.953 15.303 279.607C15.1489 279.011 15.2798 278.388 15.2738 277.784C15.2679 277.18 15.0847 276.482 14.5053 276.162C14.1479 275.99 13.7463 275.906 13.341 275.917C12.6599 275.893 11.9032 275.956 11.4373 276.401C10.8551 276.954 11.0124 277.881 11.5129 278.485C12.0135 279.09 12.7789 279.478 13.4836 279.896C14.047 280.196 14.5275 280.606 14.8896 281.096C14.9332 281.164 14.9683 281.237 14.9944 281.312H19.2468C20.2056 280.877 21.0946 280.329 21.8895 279.681V279.683Z" fill="#EFEFEF"/>
<path d="M343 284.077H0V284.999H343V284.077Z" fill="#494949"/>
<path d="M326.657 19.4159C326.657 19.4159 291.221 17.2487 295.396 42.4169C295.396 42.4169 294.554 46.866 298.544 48.8837C298.544 48.8837 298.607 47.0196 302.18 47.6551C303.452 47.8688 304.744 47.9317 306.031 47.8426C307.766 47.7269 309.417 47.0427 310.736 45.8931C310.736 45.8931 320.698 41.7212 324.57 25.2213C324.57 25.2213 327.436 21.6212 327.322 20.6953L321.342 23.2844C321.342 23.2844 323.387 27.6569 321.763 31.2898C321.763 31.2898 321.569 23.4407 320.42 23.6115C320.189 23.6458 317.314 25.1257 317.314 25.1257C317.314 25.1257 320.829 32.7399 318.177 38.2773C318.177 38.2773 319.183 28.8928 316.216 25.6761L312.007 28.1673C312.007 28.1673 316.115 36.0336 313.329 42.4535C313.329 42.4535 314.043 32.608 311.119 28.7731L307.306 31.7888C307.306 31.7888 311.165 39.5395 308.813 44.8642C308.813 44.8642 308.505 33.4063 306.481 32.5405C306.481 32.5405 303.143 35.5265 302.634 36.7464C302.634 36.7464 305.277 42.3772 303.636 45.3461C303.636 45.3461 302.63 37.7105 301.805 37.6678C301.805 37.6678 298.48 42.7268 298.135 46.1992C298.135 46.1992 298.278 41.0419 301.001 37.1901C301.001 37.1901 297.785 37.749 295.908 39.8586C295.908 39.8586 296.426 36.284 301.821 35.9684C301.821 35.9684 304.57 32.1292 305.302 31.899C305.302 31.899 299.94 31.4415 296.687 32.9057C296.687 32.9057 299.549 29.5317 306.287 31.0672L310.054 27.9489C310.054 27.9489 302.991 26.9718 299.995 28.0514C299.995 28.0514 303.442 25.0654 311.068 27.241L315.167 24.7582C315.167 24.7582 309.145 23.4441 305.559 23.905C305.559 23.905 309.347 21.8362 316.371 24.08L319.317 22.7458C319.317 22.7458 314.906 21.8671 313.614 21.7264C312.322 21.5858 312.255 21.2274 312.255 21.2274C315.049 20.7552 317.918 21.0787 320.542 22.1618C320.542 22.1618 326.763 19.8128 326.657 19.4159Z" fill="#8BC63E"/>
<path d="M277.228 5.55694C277.228 5.55694 261.045 4.54355 262.936 16.3394C262.936 16.3394 262.555 18.4235 264.375 19.3701C264.375 19.3701 264.405 18.4852 266.04 18.7905C266.621 18.892 267.211 18.9218 267.799 18.879C268.593 18.8244 269.349 18.5011 269.949 17.9585C269.949 17.9585 274.506 16.0029 276.278 8.26897C276.278 8.26897 277.585 6.5834 277.533 6.14965L274.799 7.36193C274.799 7.36193 275.732 9.41048 275 11.1138C275 11.1138 274.91 7.43666 274.386 7.52127C274.28 7.52127 272.964 8.23299 272.964 8.23299C272.964 8.23299 274.574 11.8034 273.36 14.3964C273.36 14.3964 273.82 9.99843 272.462 8.4896L270.537 9.67579C270.537 9.67579 272.415 13.3613 271.141 16.3702C271.141 16.3702 271.469 11.7556 270.132 9.95929L268.39 11.3752C268.39 11.3752 270.153 15.0077 269.08 17.5038C269.08 17.5038 268.936 12.1324 268.011 11.7255C268.011 11.7255 266.487 13.1236 266.252 13.6989C266.252 13.6989 267.462 16.3536 266.712 17.7296C266.712 17.7296 266.252 14.1501 265.861 14.1315C265.861 14.1315 264.34 16.5039 264.183 18.1135C264.259 16.6119 264.711 15.157 265.494 13.8927C264.617 14.0654 263.807 14.5006 263.165 15.1449C263.165 15.1449 263.404 13.468 265.869 13.3221C265.869 13.3221 267.147 11.5215 267.462 11.4108C267.462 11.4108 265.009 11.1985 263.523 11.8853C263.523 11.8853 264.83 10.3057 267.909 11.0225L269.613 9.56231C269.613 9.56231 266.382 9.11551 265.012 9.60817C265.012 9.60817 266.587 8.21005 270.075 9.2278L271.949 8.06415C271.949 8.06415 269.194 7.44931 267.554 7.66876C267.554 7.66876 269.287 6.69964 272.498 7.74783L273.84 7.1239C273.84 7.1239 271.823 6.71229 271.229 6.64586C270.636 6.57944 270.607 6.41139 270.607 6.41139C271.886 6.19044 273.198 6.34364 274.398 6.85384C274.398 6.85384 277.278 5.7412 277.228 5.55694Z" fill="#494949"/>
<path d="M28.2767 178.954C28.2767 178.954 12.094 177.941 13.9847 189.737C13.9847 189.737 13.6041 191.821 15.424 192.768C15.424 192.768 15.4537 191.883 17.089 192.188C17.6698 192.29 18.2601 192.319 18.8476 192.276C19.642 192.222 20.3973 191.899 20.9982 191.356C20.9982 191.356 25.5548 189.4 27.3264 181.666C27.3264 181.666 28.6336 179.981 28.5823 179.547L25.8482 180.759C25.8482 180.759 26.781 182.808 26.0484 184.511C26.0484 184.511 25.959 180.834 25.4353 180.919C25.3287 180.919 24.0127 181.63 24.0127 181.63C24.0127 181.63 25.6226 185.201 24.4089 187.794C24.4089 187.794 24.8686 183.396 23.5104 181.887L21.5855 183.073C21.5855 183.073 23.4636 186.759 22.1902 189.768C22.1902 189.768 22.5182 185.153 21.1809 183.357L19.439 184.773C19.439 184.773 21.2022 188.405 20.129 190.901C20.129 190.901 19.9844 185.53 19.06 185.123C19.06 185.123 17.5354 186.521 17.301 187.096C17.301 187.096 18.5104 189.751 17.7611 191.127C17.7611 191.127 17.301 187.548 16.9094 187.529C16.9094 187.529 15.389 189.901 15.2315 191.511C15.3076 190.009 15.7598 188.554 16.5433 187.29C15.6659 187.463 14.8563 187.898 14.2138 188.542C14.2138 188.542 14.4524 186.865 16.9181 186.72C16.9181 186.72 18.1957 184.919 18.5108 184.808C18.5108 184.808 16.0581 184.596 14.5715 185.283C14.5715 185.283 15.8788 183.703 18.958 184.42L20.6614 182.96C20.6614 182.96 17.4304 182.513 16.0603 183.006C16.0603 183.006 17.6359 181.608 21.1238 182.625L22.9978 181.462C22.9978 181.462 20.2424 180.847 18.6029 181.066C18.6029 181.066 20.336 180.097 23.5473 181.145L24.8888 180.521C24.8888 180.521 22.8718 180.11 22.2781 180.043C21.6844 179.977 21.6562 179.809 21.6562 179.809C22.9346 179.588 24.247 179.741 25.4464 180.251C25.4464 180.251 28.3265 179.139 28.2767 178.954Z" fill="#494949"/>
</svg>
