<svg width="51" height="56" viewBox="0 0 51 56" fill="none" xmlns="http://www.w3.org/2000/svg">
<path fill-rule="evenodd" clip-rule="evenodd" d="M18.9023 8.61L30.8544 15.5024C32.0737 18.9504 34.5181 21.8196 37.6644 23.587L27.5 29.4667V49.4454L43.75 40.1597L43.754 40.1574C44.1319 39.9383 44.4458 39.624 44.6644 39.2457C44.8838 38.8662 44.9995 38.4356 45 37.9972V25.5C46.7532 25.5 48.4361 25.1992 50 24.6465V38.0023C49.9986 39.3175 49.6515 40.6093 48.9933 41.748C48.3351 42.8866 47.389 43.8322 46.25 44.4898L46.2403 44.4954L28.75 54.4898L28.7455 54.4924C27.9525 54.9495 27.0854 55.256 26.1881 55.3999C25.8347 55.5912 25.4301 55.6998 25 55.6998C24.57 55.6998 24.1653 55.5912 23.8119 55.3999C22.9146 55.256 22.0476 54.9496 21.2546 54.4925L21.25 54.4898L3.75965 44.4954L3.75 44.4898C2.61099 43.8322 1.66493 42.8866 1.00673 41.748C0.348537 40.6093 0.00135019 39.3175 0 38.0023V17.9972C0.00118954 16.8385 0.270812 15.698 0.785052 14.6643C0.839538 14.4878 0.914565 14.3146 1.01098 14.1479C1.12291 13.9544 1.25681 13.7816 1.4077 13.6306C2.02734 12.7676 2.82505 12.0437 3.75 11.5097L3.75964 11.5041L11.8815 6.86308C12.2504 6.44735 12.7405 6.176 13.2658 6.07206L21.2554 1.5066C22.3942 0.850346 23.6855 0.504883 25 0.504883C26.3145 0.504883 27.6059 0.850375 28.7448 1.50668L28.75 1.50969L31.8486 3.2803C31.0392 4.75147 30.4696 6.37307 30.1922 8.09251L26.25 5.83984C25.8699 5.62042 25.4388 5.50488 25 5.50488C24.5612 5.50488 24.13 5.6204 23.75 5.83982L23.7404 5.84539L18.9023 8.61ZM22.5 29.4667L5 19.3436V37.9983C5.00064 38.4363 5.11636 38.8665 5.33558 39.2457C5.55421 39.624 5.86815 39.9383 6.24606 40.1574L6.25 40.1597L22.5 49.4454V29.4667ZM25 25.1366L31.2663 21.5117L13.875 11.4827L7.59746 15.0698L25 25.1366Z" fill="#8CAEC5"/>
<path d="M45.1687 3C42.8302 3 41.3156 3.9581 40.1265 5.66678C39.9108 5.97674 39.9773 6.40172 40.2782 6.62988L41.542 7.58815C41.8459 7.81857 42.2783 7.7647 42.5162 7.46663C43.25 6.54727 43.7944 6.01793 44.9407 6.01793C45.842 6.01793 46.9568 6.59798 46.9568 7.47196C46.9568 8.13267 46.4114 8.47198 45.5215 8.97091C44.4837 9.55274 43.1104 10.2768 43.1104 12.0882V12.375C43.1104 12.7633 43.4252 13.0781 43.8135 13.0781H45.9367C46.325 13.0781 46.6398 12.7633 46.6398 12.375V12.2059C46.6398 10.9502 50.3097 10.8979 50.3097 7.5C50.3098 4.94109 47.6554 3 45.1687 3ZM44.8751 13.9412C43.7561 13.9412 42.8457 14.8516 42.8457 15.9706C42.8457 17.0896 43.7561 18 44.8751 18C45.9941 18 46.9045 17.0896 46.9045 15.9706C46.9045 14.8516 45.9941 13.9412 44.8751 13.9412Z" fill="#8CAEC5"/>
</svg>
