<svg width="47" height="44" viewBox="0 0 47 44" fill="none" xmlns="http://www.w3.org/2000/svg">
<path fill-rule="evenodd" clip-rule="evenodd" d="M34.3946 3.96969C35.2147 3.14959 35.2147 1.81994 34.3946 0.999841C33.5745 0.17974 32.2449 0.17974 31.4248 0.999841L22.5348 9.88987C22.1432 10.2713 21.9 10.8044 21.9 11.3942C21.9 11.7267 21.9773 12.0411 22.1148 12.3205C22.1929 12.4795 22.2923 12.6306 22.4131 12.7696C22.4488 12.8108 22.486 12.8505 22.5247 12.8887L31.4248 21.7888C32.2449 22.6089 33.5745 22.6089 34.3946 21.7888C35.2147 20.9687 35.2147 19.639 34.3946 18.8189L29.0699 13.4942H44.7889C45.9487 13.4942 46.8889 12.554 46.8889 11.3942C46.8889 10.2344 45.9487 9.29421 44.7889 9.29421H29.0701L34.3946 3.96969ZM13.3943 21.9998C14.2144 21.1797 15.5441 21.1797 16.3642 21.9998L25.2542 30.8898C25.6458 31.2713 25.8889 31.8044 25.8889 32.3942C25.8889 32.7267 25.8117 33.0411 25.6741 33.3205C25.596 33.4795 25.4966 33.6306 25.3759 33.7696C25.3402 33.8108 25.3029 33.8505 25.2642 33.8888L16.3642 42.7888C15.5441 43.6089 14.2144 43.6089 13.3943 42.7888C12.5742 41.9687 12.5742 40.639 13.3943 39.8189L18.719 34.4942H3C1.8402 34.4942 0.900002 33.554 0.900002 32.3942C0.900002 31.2344 1.8402 30.2942 3 30.2942H18.7188L13.3943 24.9697C12.5742 24.1496 12.5742 22.8199 13.3943 21.9998Z" fill="#8BC63E"/>
</svg>
