<svg width="24" height="24" viewBox="0 0 24 24" fill="none" xmlns="http://www.w3.org/2000/svg">
<path fill-rule="evenodd" clip-rule="evenodd" d="M3.6 2.4C3.28174 2.4 2.97652 2.52643 2.75147 2.75147C2.52643 2.97652 2.4 3.28174 2.4 3.6V19.9029L5.15147 17.1515C5.37652 16.9264 5.68174 16.8 6 16.8H20.4C20.7183 16.8 21.0235 16.6736 21.2485 16.4485C21.4736 16.2235 21.6 15.9183 21.6 15.6V3.6C21.6 3.28174 21.4736 2.97652 21.2485 2.75147C21.0235 2.52643 20.7183 2.4 20.4 2.4H3.6ZM1.05442 1.05442C1.72955 0.379284 2.64522 0 3.6 0H20.4C21.3548 0 22.2705 0.379285 22.9456 1.05442C23.6207 1.72955 24 2.64522 24 3.6V15.6C24 16.5548 23.6207 17.4705 22.9456 18.1456C22.2705 18.8207 21.3548 19.2 20.4 19.2H6.49706L2.04853 23.6485C1.70533 23.9917 1.18919 24.0944 0.74078 23.9087C0.292371 23.7229 0 23.2854 0 22.8V3.6C0 2.64522 0.379284 1.72955 1.05442 1.05442Z" fill="#8BC63E"/>
<path d="M16.6971 8.4C17.1657 7.93137 17.1657 7.17157 16.6971 6.70294C16.2284 6.23431 15.4686 6.23431 15 6.70294L11.0485 10.6544L9.49706 9.10294C9.02843 8.63431 8.26863 8.63431 7.8 9.10294C7.33137 9.57157 7.33137 10.3314 7.8 10.8L10.2 13.2C10.6686 13.6686 11.4284 13.6686 11.8971 13.2L16.6971 8.4Z" fill="#8BC63E"/>
</svg>
