<svg width="176" height="134" viewBox="0 0 176 134" fill="none" xmlns="http://www.w3.org/2000/svg">
<g clip-path="url(#clip0)">
<g clip-path="url(#clip1)">
<path d="M15.029 102.277L14.9628 102.392V102.526V102.527V102.658L15.0265 102.771C15.365 103.377 15.5427 104.058 15.5427 104.752C15.5427 105.445 15.365 106.127 15.0265 106.732L14.8899 106.976L15.0265 107.22C15.365 107.825 15.5427 108.507 15.5427 109.201C15.5427 109.894 15.365 110.576 15.0265 111.181L14.8899 111.425L15.0265 111.669C15.365 112.274 15.5427 112.956 15.5427 113.65C15.5427 114.343 15.365 115.025 15.0265 115.63L14.8882 115.877L15.029 116.123C15.3724 116.722 15.5497 117.401 15.5428 118.092H15.5428V118.097C15.5428 119.002 15.2626 119.802 14.8324 120.366C14.4027 120.929 13.844 121.235 13.2637 121.235C12.6834 121.235 12.1247 120.929 11.695 120.366C11.2648 119.802 10.9846 119.002 10.9846 118.097L10.9846 118.091C10.9774 117.401 11.1547 116.72 11.4983 116.121L11.6392 115.875L11.5009 115.628C11.1624 115.023 10.9846 114.341 10.9846 113.648C10.9846 112.954 11.1624 112.273 11.5009 111.667L11.6375 111.423L11.5009 111.179C11.1624 110.574 10.9846 109.892 10.9846 109.199C10.9846 108.505 11.1624 107.824 11.5009 107.219L11.6375 106.974L11.5009 106.73C11.1624 106.125 10.9846 105.443 10.9846 104.75C10.9846 104.057 11.1624 103.375 11.5009 102.77L11.6391 102.523L11.4984 102.277C11.155 101.677 10.9776 100.997 10.9846 100.306L10.9846 100.306V100.301C10.9846 99.3958 11.2648 98.5947 11.6951 98.0307C12.1249 97.4673 12.6836 97.1611 13.2637 97.1611C13.8438 97.1611 14.4025 97.4673 14.8323 98.0307C15.2626 98.5947 15.5428 99.3958 15.5428 100.301H15.5427L15.5428 100.306C15.5498 100.997 15.3724 101.677 15.029 102.277Z" fill="#121212" stroke="#121212"/>
<path d="M15.5337 95.8519C15.5337 96.7572 15.253 97.5583 14.8223 98.1223C14.392 98.686 13.8332 98.9919 13.2547 98.9919C12.6761 98.9919 12.1173 98.686 11.687 98.1223C11.2563 97.5583 10.9756 96.7572 10.9756 95.8519C10.9756 94.9466 11.2563 94.1455 11.687 93.5815C12.1173 93.0178 12.6761 92.7119 13.2547 92.7119C13.8332 92.7119 14.392 93.0178 14.8223 93.5815C15.253 94.1455 15.5337 94.9466 15.5337 95.8519Z" fill="#121212" stroke="#121212"/>
<path d="M15.5337 91.4027C15.5337 92.308 15.253 93.1091 14.8223 93.6731C14.392 94.2367 13.8332 94.5427 13.2547 94.5427C12.6761 94.5427 12.1173 94.2367 11.687 93.6731C11.2563 93.1091 10.9756 92.308 10.9756 91.4027C10.9756 90.4974 11.2563 89.6963 11.687 89.1322C12.1173 88.5686 12.6761 88.2627 13.2547 88.2627C13.8332 88.2627 14.392 88.5686 14.8223 89.1322C15.253 89.6963 15.5337 90.4974 15.5337 91.4027Z" fill="#121212" stroke="#121212"/>
<path d="M2.84818 60.9618C2.46931 60.4773 2.12387 59.9676 1.81423 59.4363L9.11749 58.2371L1.21834 58.2957C0.460715 56.6464 0.0474593 54.8599 0.00385267 53.0454C-0.039754 51.2309 0.287205 49.4266 0.964729 47.7429L11.5614 53.2419L1.78763 46.0559C2.70044 44.4679 3.93091 43.0853 5.40213 41.9944C6.87336 40.9036 8.55372 40.128 10.3382 39.7161C12.1227 39.3042 13.9729 39.2649 15.7733 39.6006C17.5736 39.9363 19.2854 40.6398 20.8016 41.6671C22.3178 42.6945 23.6059 44.0236 24.5854 45.5714C25.5648 47.1191 26.2145 48.8524 26.494 50.6627C26.7734 52.473 26.6765 54.3215 26.2094 56.0927C25.7422 57.8638 24.9149 59.5196 23.779 60.9565C24.3704 61.7093 24.8794 62.5234 25.2971 63.3849L15.8178 68.3163L25.9267 64.9229C26.6363 67.0218 26.8116 69.2646 26.437 71.4484C26.0623 73.6322 25.1494 75.6882 23.7808 77.4304C25.3263 79.3948 26.288 81.7545 26.5559 84.2398C26.8237 86.725 26.3868 89.2355 25.2952 91.4842C24.2037 93.7328 22.5014 95.6288 20.3832 96.9553C18.265 98.2818 15.8163 98.9853 13.3171 98.9853C10.818 98.9853 8.36928 98.2818 6.25106 96.9553C4.13283 95.6288 2.4306 93.7328 1.33902 91.4842C0.247436 89.2355 -0.189422 86.725 0.0784014 84.2398C0.346225 81.7545 1.30792 79.3948 2.8535 77.4304C1.00844 75.0824 0.00543846 72.1825 0.00543846 69.1961C0.00543846 66.2097 1.00844 63.3098 2.8535 60.9618H2.84818Z" fill="#8BC63E"/>
<path opacity="0.1" d="M26.6361 69.1954C26.6406 72.1826 25.637 75.084 23.7878 77.4297C25.3334 79.3941 26.2951 81.7538 26.5629 84.2391C26.8308 86.7243 26.3939 89.2348 25.3023 91.4835C24.2107 93.7321 22.5085 95.6281 20.3903 96.9546C18.2721 98.2811 15.8234 98.9846 13.3242 98.9846C10.8251 98.9846 8.37636 98.2811 6.25813 96.9546C4.13991 95.6281 2.43767 93.7321 1.34609 91.4835C0.254511 89.2348 -0.182346 86.7243 0.085478 84.2391C0.353302 81.7538 1.315 79.3941 2.86058 77.4297C1.06403 75.1627 26.6361 67.7 26.6361 69.1954Z" fill="#121212"/>
<path d="M158.161 106.956L158.02 107.202L158.159 107.449C158.407 107.891 158.537 108.39 158.537 108.897C158.537 109.404 158.407 109.903 158.159 110.345L158.022 110.589L158.159 110.834C158.407 111.276 158.537 111.774 158.537 112.281C158.537 112.789 158.407 113.287 158.159 113.729L158.022 113.974L158.159 114.218C158.407 114.66 158.537 115.158 158.537 115.665C158.537 116.172 158.407 116.67 158.159 117.112L158.02 117.359L158.161 117.605C158.412 118.043 158.542 118.539 158.537 119.044H158.537V119.049C158.537 119.712 158.33 120.296 158.02 120.703C157.71 121.109 157.317 121.318 156.923 121.318C156.528 121.318 156.136 121.109 155.826 120.703C155.515 120.297 155.309 119.713 155.309 119.049L155.309 119.044C155.304 118.539 155.433 118.043 155.684 117.605L155.825 117.359L155.687 117.112C155.439 116.67 155.309 116.172 155.309 115.665C155.309 115.158 155.439 114.66 155.687 114.218L155.823 113.974L155.687 113.729C155.439 113.287 155.309 112.789 155.309 112.281C155.309 111.774 155.439 111.276 155.687 110.834L155.823 110.589L155.687 110.345C155.439 109.903 155.309 109.404 155.309 108.897C155.309 108.39 155.439 107.891 155.687 107.449L155.825 107.202L155.684 106.956C155.433 106.518 155.304 106.022 155.309 105.517L155.309 105.517V105.512C155.309 104.849 155.515 104.267 155.825 103.86C156.135 103.454 156.527 103.245 156.923 103.245C157.319 103.245 157.711 103.453 158.021 103.859C158.331 104.265 158.537 104.848 158.537 105.512H158.537L158.537 105.517C158.542 106.022 158.412 106.518 158.161 106.956Z" fill="#121212" stroke="#121212"/>
<path d="M158.537 102.129C158.537 102.794 158.33 103.378 158.02 103.784C157.71 104.19 157.317 104.398 156.923 104.398C156.528 104.398 156.135 104.19 155.825 103.784C155.515 103.378 155.309 102.794 155.309 102.129C155.309 101.465 155.515 100.881 155.825 100.475C156.135 100.069 156.528 99.8604 156.923 99.8604C157.318 99.8604 157.71 100.069 158.02 100.475C158.33 100.881 158.537 101.465 158.537 102.129Z" fill="#121212" stroke="#121212"/>
<path d="M158.537 98.7456C158.537 99.4104 158.33 99.9937 158.02 100.4C157.71 100.806 157.318 101.015 156.923 101.015C156.528 101.015 156.135 100.806 155.825 100.4C155.515 99.9937 155.309 99.4104 155.309 98.7456C155.309 98.0808 155.515 97.4974 155.825 97.091C156.135 96.685 156.528 96.4766 156.923 96.4766C157.317 96.4766 157.71 96.685 158.02 97.091C158.33 97.4974 158.537 98.0808 158.537 98.7456Z" fill="#121212" stroke="#121212"/>
<path d="M149.007 75.5896C148.718 75.2216 148.455 74.834 148.22 74.4295L153.776 73.516L147.766 73.5621C147.19 72.3071 146.876 70.948 146.843 69.5677C146.81 68.1874 147.058 66.8148 147.572 65.5335L155.635 69.7181L148.2 64.2546C148.897 63.0518 149.834 62.0055 150.953 61.1807C152.072 60.3559 153.349 59.7702 154.704 59.4602C156.059 59.1502 157.463 59.1224 158.829 59.3786C160.195 59.6348 161.494 60.1695 162.645 60.9494C163.795 61.7294 164.773 62.7378 165.517 63.912C166.261 65.0862 166.756 66.4011 166.97 67.7747C167.184 69.1483 167.113 70.5513 166.762 71.8964C166.411 73.2415 165.786 74.4998 164.928 75.5932C165.379 76.1653 165.766 76.7844 166.084 77.4398L158.871 81.188L166.565 78.6016C167.106 80.1983 167.24 81.9048 166.954 83.5664C166.669 85.2279 165.974 86.792 164.931 88.1167C166.107 89.611 166.838 91.4059 167.041 93.2962C167.245 95.1865 166.912 97.0959 166.082 98.8062C165.251 100.516 163.957 101.958 162.345 102.967C160.734 103.976 158.872 104.511 156.971 104.511C155.07 104.511 153.208 103.976 151.597 102.967C149.985 101.958 148.691 100.516 147.86 98.8062C147.03 97.0959 146.697 95.1865 146.901 93.2962C147.104 91.4059 147.835 89.611 149.011 88.1167C147.607 86.3309 146.843 84.125 146.843 81.8532C146.843 79.5813 147.607 77.3754 149.011 75.5896H149.007Z" fill="#8BC63E"/>
<path opacity="0.1" d="M167.097 81.8524C167.1 84.1251 166.336 86.3323 164.928 88.116C166.103 89.6102 166.834 91.4051 167.038 93.2954C167.241 95.1858 166.909 97.0952 166.078 98.8054C165.248 100.516 163.953 101.958 162.342 102.966C160.731 103.975 158.868 104.51 156.967 104.51C155.066 104.51 153.204 103.975 151.593 102.966C149.982 101.958 148.687 100.516 147.856 98.8054C147.026 97.0952 146.694 95.1858 146.897 93.2954C147.101 91.4051 147.832 89.6102 149.007 88.116C147.648 86.3918 167.097 80.7154 167.097 81.8524Z" fill="#121212"/>
<path d="M141.145 18.9118H105.634V11.2309C105.635 10.9895 105.587 10.7504 105.495 10.5273C105.403 10.3043 105.268 10.1016 105.097 9.93089C104.926 9.7602 104.724 9.62484 104.501 9.53257C104.277 9.4403 104.038 9.39292 103.797 9.39315H93.3707V1.21028C93.3707 0.903537 93.2489 0.60936 93.0321 0.392462C92.8152 0.175564 92.5211 0.0537109 92.2144 0.0537109H78.7766C78.4701 0.0541801 78.1763 0.176182 77.9595 0.392979C77.7428 0.609775 77.6208 0.903681 77.6203 1.21028V9.39315H65.3672C65.1255 9.39245 64.886 9.43947 64.6625 9.53151C64.4389 9.62355 64.2358 9.75881 64.0646 9.92953C63.8934 10.1002 63.7576 10.3031 63.6649 10.5264C63.5723 10.7497 63.5246 10.9891 63.5246 11.2309V18.9064H29.6703C29.5713 18.9069 29.4766 18.9465 29.4068 19.0167C29.337 19.0868 29.2979 19.1818 29.2979 19.2807V121.262C29.2979 121.361 29.337 121.456 29.4068 121.527C29.4766 121.597 29.5713 121.636 29.6703 121.637H52.1742C52.2733 121.636 52.3682 121.597 52.4383 121.527C52.5083 121.457 52.5479 121.362 52.5484 121.262V107.536C52.5489 107.437 52.5884 107.342 52.6585 107.272C52.7286 107.202 52.8235 107.162 52.9226 107.162H62.4285C62.5275 107.162 62.6222 107.202 62.692 107.272C62.7618 107.342 62.801 107.437 62.801 107.536V121.255C62.801 121.354 62.8399 121.449 62.9093 121.519C62.9787 121.589 63.073 121.629 63.1716 121.63H107.644C107.743 121.629 107.837 121.589 107.907 121.519C107.976 121.449 108.016 121.354 108.016 121.255V107.536C108.016 107.438 108.055 107.343 108.125 107.273C108.194 107.203 108.288 107.163 108.387 107.162H117.893C117.992 107.162 118.087 107.201 118.157 107.272C118.228 107.342 118.267 107.437 118.267 107.536V121.255C118.268 121.354 118.307 121.449 118.377 121.52C118.447 121.59 118.542 121.629 118.641 121.63H141.145C141.244 121.629 141.338 121.589 141.408 121.519C141.478 121.449 141.517 121.354 141.518 121.255V19.286C141.518 19.1871 141.478 19.0922 141.409 19.022C141.339 18.9519 141.244 18.9122 141.145 18.9118ZM48.519 102.404C48.5185 102.503 48.4793 102.597 48.4099 102.666C48.3405 102.735 48.2465 102.775 48.1483 102.775H34.2477C34.1989 102.775 34.1505 102.766 34.1053 102.747C34.0601 102.729 34.019 102.702 33.9844 102.667C33.9498 102.633 33.9224 102.592 33.9036 102.547C33.8849 102.502 33.8752 102.453 33.8752 102.404V97.6558C33.875 97.6067 33.8845 97.5581 33.9031 97.5127C33.9217 97.4673 33.9491 97.426 33.9837 97.3912C34.0183 97.3564 34.0594 97.3288 34.1047 97.31C34.15 97.2912 34.1986 97.2815 34.2477 97.2815H48.1483C48.247 97.2824 48.3412 97.3223 48.4107 97.3923C48.4801 97.4624 48.519 97.5571 48.519 97.6558V102.404ZM48.519 90.1345C48.519 90.233 48.48 90.3275 48.4106 90.3973C48.3411 90.4671 48.2468 90.5066 48.1483 90.5071H34.2477C34.1986 90.5071 34.15 90.4974 34.1047 90.4785C34.0594 90.4597 34.0183 90.4321 33.9837 90.3973C33.9491 90.3625 33.9217 90.3213 33.9031 90.2759C33.8845 90.2305 33.875 90.1818 33.8752 90.1328V85.3894C33.875 85.3404 33.8845 85.2917 33.9031 85.2463C33.9217 85.2009 33.9491 85.1597 33.9837 85.1249C34.0183 85.0901 34.0594 85.0625 34.1047 85.0437C34.15 85.0248 34.1986 85.0151 34.2477 85.0151H48.1483C48.1973 85.0154 48.2456 85.0252 48.2907 85.0442C48.3358 85.0631 48.3768 85.0907 48.4112 85.1255C48.4456 85.1603 48.4728 85.2015 48.4913 85.2467C48.5098 85.292 48.5192 85.3405 48.519 85.3894V90.1345ZM48.519 77.8682C48.519 77.9667 48.48 78.0612 48.4106 78.131C48.3411 78.2008 48.2468 78.2402 48.1483 78.2407H34.2477C34.1489 78.2407 34.0542 78.2015 33.9843 78.1316C33.9145 78.0618 33.8752 77.967 33.8752 77.8682V73.1231C33.875 73.074 33.8845 73.0254 33.9031 72.98C33.9217 72.9346 33.9491 72.8933 33.9837 72.8585C34.0183 72.8238 34.0594 72.7962 34.1047 72.7773C34.15 72.7585 34.1986 72.7488 34.2477 72.7488H48.1483C48.247 72.7497 48.3412 72.7896 48.4107 72.8597C48.4801 72.9298 48.519 73.0244 48.519 73.1231V77.8682ZM48.519 65.5983C48.5192 65.6472 48.5098 65.6956 48.4913 65.7407C48.4728 65.7859 48.4455 65.827 48.4111 65.8616C48.3766 65.8962 48.3357 65.9237 48.2906 65.9425C48.2455 65.9612 48.1972 65.9708 48.1483 65.9708H34.2477C34.1987 65.9711 34.1502 65.9616 34.1049 65.943C34.0596 65.9243 34.0184 65.8969 33.9838 65.8623C33.9492 65.8276 33.9217 65.7865 33.9031 65.7412C33.8845 65.6959 33.875 65.6473 33.8752 65.5983V60.8514C33.875 60.8025 33.8845 60.7539 33.9031 60.7086C33.9217 60.6633 33.9492 60.6222 33.9838 60.5875C34.0184 60.5529 34.0596 60.5254 34.1049 60.5068C34.1502 60.4882 34.1987 60.4787 34.2477 60.4789H48.1483C48.1972 60.4789 48.2455 60.4886 48.2906 60.5073C48.3357 60.5261 48.3766 60.5535 48.4111 60.5881C48.4455 60.6228 48.4728 60.6638 48.4913 60.709C48.5098 60.7542 48.5192 60.8026 48.519 60.8514V65.5983ZM48.519 53.3302C48.519 53.4289 48.4801 53.5235 48.4107 53.5936C48.3412 53.6637 48.247 53.7036 48.1483 53.7045H34.2477C34.1986 53.7045 34.15 53.6948 34.1047 53.676C34.0594 53.6572 34.0183 53.6296 33.9837 53.5948C33.9491 53.56 33.9217 53.5187 33.9031 53.4733C33.8845 53.4279 33.875 53.3793 33.8752 53.3302V48.5816C33.8752 48.5327 33.8849 48.4844 33.9036 48.4393C33.9224 48.3942 33.9498 48.3532 33.9844 48.3188C34.019 48.2843 34.0601 48.2571 34.1053 48.2385C34.1505 48.22 34.1989 48.2106 34.2477 48.2108H48.1483C48.2465 48.2113 48.3405 48.2505 48.4099 48.3199C48.4793 48.3893 48.5185 48.4834 48.519 48.5816V53.3302ZM48.519 41.0639C48.5185 41.1621 48.4793 41.2561 48.4099 41.3255C48.3405 41.3949 48.2465 41.4342 48.1483 41.4346H34.2477C34.1989 41.4349 34.1505 41.4254 34.1053 41.4069C34.0601 41.3884 34.019 41.3611 33.9844 41.3267C33.9498 41.2922 33.9224 41.2513 33.9036 41.2062C33.8849 41.1611 33.8752 41.1127 33.8752 41.0639V36.3152C33.8752 36.2163 33.9144 36.1213 33.9842 36.0512C34.054 35.9811 34.1487 35.9414 34.2477 35.9409H48.1483C48.247 35.9419 48.3412 35.9817 48.4107 36.0518C48.4801 36.1219 48.519 36.2166 48.519 36.3152V41.0639ZM48.519 28.794C48.5192 28.8429 48.5098 28.8914 48.4913 28.9367C48.4728 28.982 48.4456 29.0232 48.4112 29.0579C48.3768 29.0927 48.3358 29.1203 48.2907 29.1393C48.2456 29.1582 48.1973 29.1681 48.1483 29.1683H34.2477C34.1986 29.1683 34.15 29.1586 34.1047 29.1398C34.0594 29.1209 34.0183 29.0933 33.9837 29.0586C33.9491 29.0238 33.9217 28.9825 33.9031 28.9371C33.8845 28.8917 33.875 28.8431 33.8752 28.794V24.0489C33.875 23.9998 33.8845 23.9512 33.9031 23.9058C33.9217 23.8604 33.9491 23.8191 33.9837 23.7843C34.0183 23.7496 34.0594 23.722 34.1047 23.7031C34.15 23.6843 34.1986 23.6746 34.2477 23.6746H48.1483C48.1973 23.6748 48.2456 23.6847 48.2907 23.7036C48.3358 23.7226 48.3768 23.7502 48.4112 23.785C48.4456 23.8197 48.4728 23.8609 48.4913 23.9062C48.5098 23.9515 48.5192 24 48.519 24.0489V28.794ZM81.4706 102.41C81.4706 102.459 81.4609 102.507 81.4422 102.552C81.4235 102.597 81.396 102.638 81.3614 102.673C81.3268 102.707 81.2857 102.734 81.2405 102.753C81.1954 102.771 81.147 102.781 81.0981 102.78H67.1992C67.1006 102.78 67.006 102.742 66.9359 102.672C66.8658 102.603 66.826 102.508 66.825 102.41V97.6558C66.8255 97.5566 66.8651 97.4617 66.9352 97.3916C67.0052 97.3215 67.1001 97.2819 67.1992 97.2815H81.0981C81.1472 97.2815 81.1958 97.2912 81.2411 97.31C81.2864 97.3288 81.3275 97.3564 81.3621 97.3912C81.3967 97.426 81.4241 97.4673 81.4427 97.5127C81.4613 97.5581 81.4708 97.6067 81.4706 97.6558V102.41ZM81.4706 90.1399C81.4708 90.1889 81.4613 90.2376 81.4427 90.283C81.4241 90.3284 81.3967 90.3696 81.3621 90.4044C81.3275 90.4392 81.2864 90.4668 81.2411 90.4856C81.1958 90.5045 81.1472 90.5141 81.0981 90.5141H67.1992C67.1 90.5141 67.0048 90.4747 66.9346 90.4045C66.8645 90.3343 66.825 90.2391 66.825 90.1399V85.3894C66.825 85.2902 66.8645 85.195 66.9346 85.1248C67.0048 85.0546 67.1 85.0151 67.1992 85.0151H81.0981C81.1472 85.0151 81.1958 85.0248 81.2411 85.0437C81.2864 85.0625 81.3275 85.0901 81.3621 85.1249C81.3967 85.1597 81.4241 85.2009 81.4427 85.2463C81.4613 85.2917 81.4708 85.3404 81.4706 85.3894V90.1399ZM81.4706 77.8735C81.4706 77.9723 81.4313 78.0671 81.3615 78.1369C81.2917 78.2068 81.1969 78.246 81.0981 78.246H67.1992C67.1003 78.246 67.0054 78.2069 66.9353 78.137C66.8651 78.0672 66.8255 77.9725 66.825 77.8735V73.1231C66.8255 73.024 66.8651 72.929 66.9352 72.859C67.0052 72.7889 67.1001 72.7493 67.1992 72.7488H81.0981C81.1472 72.7488 81.1958 72.7585 81.2411 72.7773C81.2864 72.7962 81.3275 72.8238 81.3621 72.8585C81.3967 72.8933 81.4241 72.9346 81.4427 72.98C81.4613 73.0254 81.4708 73.074 81.4706 73.1231V77.8735ZM81.4706 65.6036C81.4708 65.6526 81.4613 65.7012 81.4427 65.7465C81.4241 65.7918 81.3966 65.8329 81.362 65.8676C81.3274 65.9022 81.2862 65.9296 81.2409 65.9483C81.1957 65.9669 81.1471 65.9764 81.0981 65.9762H67.1992C67.1502 65.9764 67.1016 65.9669 67.0562 65.9483C67.0108 65.9297 66.9695 65.9023 66.9347 65.8677C66.9 65.8331 66.8724 65.7919 66.8536 65.7466C66.8347 65.7013 66.825 65.6527 66.825 65.6036V60.8514C66.825 60.8024 66.8347 60.7538 66.8536 60.7085C66.8724 60.6632 66.9 60.622 66.9347 60.5874C66.9695 60.5528 67.0108 60.5254 67.0562 60.5068C67.1016 60.4882 67.1502 60.4787 67.1992 60.4789H81.0981C81.1471 60.4787 81.1957 60.4882 81.2409 60.5068C81.2862 60.5254 81.3274 60.5529 81.362 60.5875C81.3966 60.6222 81.4241 60.6633 81.4427 60.7086C81.4613 60.7539 81.4708 60.8025 81.4706 60.8514V65.6036ZM81.4706 53.3355C81.4708 53.3846 81.4613 53.4332 81.4427 53.4786C81.4241 53.524 81.3967 53.5653 81.3621 53.6001C81.3275 53.6349 81.2864 53.6625 81.2411 53.6813C81.1958 53.7001 81.1472 53.7098 81.0981 53.7098H67.1992C67.1001 53.7094 67.0052 53.6698 66.9352 53.5997C66.8651 53.5296 66.8255 53.4347 66.825 53.3355V48.5816C66.826 48.4829 66.8658 48.3886 66.9359 48.3192C67.006 48.2498 67.1006 48.2108 67.1992 48.2108H81.0981C81.147 48.2106 81.1954 48.22 81.2405 48.2385C81.2857 48.2571 81.3268 48.2843 81.3614 48.3188C81.396 48.3532 81.4235 48.3942 81.4422 48.4393C81.4609 48.4844 81.4706 48.5327 81.4706 48.5816V53.3355ZM81.4706 41.0692C81.4706 41.118 81.4609 41.1664 81.4422 41.2115C81.4235 41.2566 81.396 41.2975 81.3614 41.332C81.3268 41.3664 81.2857 41.3937 81.2405 41.4122C81.1954 41.4308 81.147 41.4402 81.0981 41.4399H67.1992C67.1006 41.44 67.006 41.401 66.9359 41.3316C66.8658 41.2622 66.826 41.1679 66.825 41.0692V36.3152C66.8255 36.2161 66.8651 36.1212 66.9352 36.0511C67.0052 35.981 67.1001 35.9414 67.1992 35.9409H81.0981C81.1971 35.9414 81.2918 35.9811 81.3616 36.0512C81.4314 36.1213 81.4706 36.2163 81.4706 36.3152V41.0692ZM81.4706 28.7993C81.4708 28.8484 81.4613 28.897 81.4427 28.9424C81.4241 28.9878 81.3967 29.0291 81.3621 29.0639C81.3275 29.0987 81.2864 29.1263 81.2411 29.1451C81.1958 29.1639 81.1472 29.1736 81.0981 29.1736H67.1992C67.1 29.1736 67.0048 29.1342 66.9346 29.064C66.8645 28.9938 66.825 28.8986 66.825 28.7993V24.0489C66.825 23.9496 66.8645 23.8544 66.9346 23.7842C67.0048 23.714 67.1 23.6746 67.1992 23.6746H81.0981C81.1472 23.6746 81.1958 23.6843 81.2411 23.7031C81.2864 23.722 81.3275 23.7496 81.3621 23.7843C81.3967 23.8191 81.4241 23.8604 81.4427 23.9058C81.4613 23.9512 81.4708 23.9998 81.4706 24.0489V28.7993ZM103.994 102.415C103.994 102.464 103.984 102.512 103.965 102.557C103.946 102.603 103.918 102.644 103.884 102.678C103.849 102.712 103.808 102.74 103.762 102.758C103.717 102.777 103.669 102.786 103.62 102.786H89.7156C89.6171 102.786 89.5226 102.747 89.4528 102.677C89.383 102.608 89.3436 102.514 89.3431 102.415V97.6558C89.3431 97.5568 89.3823 97.4619 89.4521 97.3917C89.5219 97.3216 89.6166 97.2819 89.7156 97.2815H103.614C103.714 97.2815 103.809 97.3209 103.879 97.3911C103.949 97.4613 103.989 97.5565 103.989 97.6558L103.994 102.415ZM103.994 90.1452C103.994 90.1944 103.985 90.2432 103.966 90.2887C103.947 90.3342 103.92 90.3756 103.885 90.4104C103.85 90.4452 103.809 90.4727 103.763 90.4915C103.718 90.5102 103.669 90.5197 103.62 90.5195H89.7156C89.6166 90.519 89.5219 90.4794 89.4521 90.4092C89.3823 90.3391 89.3431 90.2441 89.3431 90.1452V85.3894C89.3431 85.2905 89.3823 85.1955 89.4521 85.1254C89.5219 85.0552 89.6166 85.0156 89.7156 85.0151H103.614C103.664 85.0149 103.712 85.0244 103.758 85.0432C103.803 85.0619 103.845 85.0894 103.88 85.1242C103.914 85.159 103.942 85.2004 103.961 85.2459C103.979 85.2914 103.989 85.3402 103.989 85.3894L103.994 90.1452ZM103.994 77.8789C103.994 77.9778 103.954 78.0726 103.884 78.1424C103.814 78.2122 103.719 78.2514 103.62 78.2514H89.7156C89.6169 78.2509 89.5225 78.2115 89.4527 78.1417C89.383 78.072 89.3436 77.9775 89.3431 77.8789V73.1231C89.3431 73.0241 89.3823 72.9292 89.4521 72.8591C89.5219 72.7889 89.6166 72.7493 89.7156 72.7488H103.614C103.714 72.7488 103.809 72.7882 103.879 72.8584C103.949 72.9286 103.989 73.0238 103.989 73.1231L103.994 77.8789ZM103.994 65.609C103.994 65.658 103.984 65.7066 103.965 65.7519C103.947 65.7972 103.919 65.8384 103.884 65.873C103.85 65.9076 103.808 65.935 103.763 65.9536C103.717 65.9723 103.669 65.9817 103.62 65.9815H89.7156C89.6667 65.9815 89.6182 65.9718 89.573 65.9531C89.5278 65.9344 89.4868 65.907 89.4522 65.8724C89.4176 65.8378 89.3902 65.7967 89.3715 65.7515C89.3528 65.7063 89.3431 65.6579 89.3431 65.609V60.8514C89.3431 60.8025 89.3528 60.7541 89.3715 60.7089C89.3902 60.6637 89.4176 60.6226 89.4522 60.588C89.4868 60.5534 89.5278 60.526 89.573 60.5073C89.6182 60.4886 89.6667 60.4789 89.7156 60.4789H103.614C103.664 60.4787 103.712 60.4882 103.758 60.5068C103.803 60.5254 103.844 60.5528 103.879 60.5874C103.914 60.622 103.941 60.6632 103.96 60.7085C103.979 60.7538 103.989 60.8024 103.989 60.8514L103.994 65.609ZM103.994 53.3409C103.994 53.4401 103.955 53.5353 103.884 53.6055C103.814 53.6757 103.719 53.7152 103.62 53.7152H89.7156C89.6166 53.7147 89.5219 53.675 89.4521 53.6049C89.3823 53.5348 89.3431 53.4398 89.3431 53.3409V48.5816C89.3436 48.4831 89.383 48.3888 89.4528 48.3193C89.5226 48.2498 89.6171 48.2108 89.7156 48.2108H103.614C103.663 48.2106 103.712 48.22 103.757 48.2385C103.802 48.257 103.844 48.2842 103.878 48.3187C103.913 48.3531 103.941 48.394 103.96 48.4391C103.979 48.4843 103.988 48.5326 103.989 48.5816L103.994 53.3409ZM103.994 41.0745C103.994 41.1234 103.984 41.1718 103.965 41.2169C103.946 41.2621 103.918 41.303 103.884 41.3374C103.849 41.3718 103.808 41.3991 103.762 41.4176C103.717 41.4361 103.669 41.4455 103.62 41.4453H89.7156C89.6171 41.4453 89.5226 41.4063 89.4528 41.3368C89.383 41.2673 89.3436 41.173 89.3431 41.0745V36.3152C89.3436 36.2164 89.3829 36.1217 89.4526 36.0517C89.5223 35.9817 89.6168 35.9419 89.7156 35.9409H103.614C103.714 35.9414 103.808 35.981 103.879 36.0511C103.949 36.1212 103.988 36.2161 103.989 36.3152L103.994 41.0745ZM103.994 28.8046C103.994 28.8539 103.985 28.9026 103.966 28.9482C103.947 28.9937 103.92 29.035 103.885 29.0698C103.85 29.1046 103.809 29.1322 103.763 29.1509C103.718 29.1697 103.669 29.1792 103.62 29.1789H89.7156C89.6166 29.1785 89.5219 29.1388 89.4521 29.0687C89.3823 28.9985 89.3431 28.9036 89.3431 28.8046V24.0489C89.3431 23.9499 89.3823 23.855 89.4521 23.7849C89.5219 23.7147 89.6166 23.6751 89.7156 23.6746H103.614C103.664 23.6744 103.712 23.6839 103.758 23.7026C103.803 23.7213 103.845 23.7489 103.88 23.7837C103.914 23.8185 103.942 23.8599 103.961 23.9054C103.979 23.9509 103.989 23.9997 103.989 24.0489L103.994 28.8046ZM136.947 102.404C136.946 102.503 136.907 102.597 136.836 102.667C136.766 102.736 136.672 102.775 136.573 102.775H122.669C122.62 102.775 122.572 102.766 122.526 102.747C122.481 102.729 122.44 102.702 122.405 102.667C122.37 102.633 122.343 102.592 122.324 102.547C122.305 102.502 122.295 102.453 122.295 102.404V97.6558C122.295 97.5565 122.334 97.4613 122.404 97.3911C122.474 97.3209 122.57 97.2815 122.669 97.2815H136.568C136.617 97.281 136.666 97.2903 136.712 97.3089C136.758 97.3275 136.8 97.355 136.835 97.3897C136.871 97.4245 136.899 97.4659 136.918 97.5116C136.937 97.5572 136.947 97.6062 136.947 97.6558V102.404ZM136.947 90.1345C136.947 90.2338 136.908 90.329 136.838 90.3992C136.768 90.4694 136.672 90.5088 136.573 90.5088H122.669C122.62 90.5091 122.571 90.4995 122.525 90.4808C122.48 90.4621 122.439 90.4345 122.404 90.3997C122.369 90.3649 122.341 90.3236 122.323 90.2781C122.304 90.2325 122.294 90.1838 122.295 90.1345V85.3894C122.294 85.3402 122.304 85.2914 122.323 85.2459C122.341 85.2004 122.369 85.159 122.404 85.1242C122.439 85.0894 122.48 85.0619 122.525 85.0432C122.571 85.0244 122.62 85.0149 122.669 85.0151H136.568C136.667 85.0151 136.762 85.0546 136.832 85.1248C136.903 85.195 136.942 85.2902 136.942 85.3894L136.947 90.1345ZM136.947 77.8682C136.947 77.9672 136.907 78.0619 136.837 78.1317C136.767 78.2015 136.672 78.2407 136.573 78.2407H122.669C122.57 78.2407 122.475 78.2015 122.405 78.1317C122.335 78.0619 122.295 77.9672 122.295 77.8682V73.1231C122.295 73.0238 122.334 72.9286 122.404 72.8584C122.474 72.7882 122.57 72.7488 122.669 72.7488H136.568C136.617 72.7483 136.666 72.7577 136.712 72.7762C136.758 72.7948 136.8 72.8223 136.835 72.8571C136.871 72.8918 136.899 72.9333 136.918 72.9789C136.937 73.0246 136.947 73.0736 136.947 73.1231V77.8682ZM136.947 65.5983C136.947 65.6474 136.938 65.696 136.919 65.7413C136.9 65.7866 136.872 65.8278 136.838 65.8624C136.803 65.897 136.762 65.9244 136.716 65.943C136.671 65.9616 136.622 65.9711 136.573 65.9708H122.669C122.62 65.9711 122.571 65.9616 122.526 65.943C122.48 65.9244 122.439 65.897 122.404 65.8624C122.37 65.8278 122.342 65.7866 122.323 65.7413C122.304 65.696 122.295 65.6474 122.295 65.5983V60.8514C122.295 60.8024 122.304 60.7538 122.323 60.7085C122.342 60.6632 122.37 60.622 122.404 60.5874C122.439 60.5528 122.48 60.5254 122.526 60.5068C122.571 60.4882 122.62 60.4787 122.669 60.4789H136.568C136.617 60.4787 136.665 60.4882 136.711 60.5068C136.756 60.5254 136.798 60.5528 136.832 60.5874C136.867 60.622 136.895 60.6632 136.913 60.7085C136.932 60.7538 136.942 60.8024 136.942 60.8514L136.947 65.5983ZM136.947 53.3302C136.947 53.4293 136.907 53.5243 136.837 53.5944C136.767 53.6645 136.672 53.704 136.573 53.7045H122.669C122.57 53.7045 122.474 53.6651 122.404 53.5949C122.334 53.5247 122.295 53.4295 122.295 53.3302V48.5816C122.295 48.5326 122.305 48.4843 122.324 48.4391C122.343 48.394 122.37 48.3531 122.405 48.3187C122.44 48.2842 122.481 48.257 122.526 48.2385C122.572 48.22 122.62 48.2106 122.669 48.2108H136.568C136.666 48.2108 136.761 48.2498 136.831 48.3192C136.901 48.3886 136.941 48.4829 136.942 48.5816L136.947 53.3302ZM136.947 41.0639C136.946 41.1625 136.907 41.2568 136.836 41.3263C136.766 41.3957 136.672 41.4346 136.573 41.4346H122.669C122.62 41.4349 122.572 41.4255 122.526 41.407C122.481 41.3884 122.44 41.3612 122.405 41.3268C122.37 41.2924 122.343 41.2514 122.324 41.2063C122.305 41.1612 122.295 41.1128 122.295 41.0639V36.3152C122.295 36.2161 122.335 36.1212 122.405 36.0511C122.475 35.981 122.57 35.9414 122.669 35.9409H136.568C136.617 35.9405 136.666 35.9498 136.712 35.9684C136.758 35.9869 136.8 36.0144 136.835 36.0492C136.871 36.084 136.899 36.1254 136.918 36.171C136.937 36.2167 136.947 36.2657 136.947 36.3152V41.0639ZM136.947 28.794C136.947 28.8933 136.908 28.9885 136.838 29.0587C136.768 29.1289 136.672 29.1683 136.573 29.1683H122.669C122.62 29.1685 122.571 29.159 122.525 29.1403C122.48 29.1216 122.439 29.094 122.404 29.0592C122.369 29.0244 122.341 28.983 122.323 28.9375C122.304 28.892 122.294 28.8432 122.295 28.794V24.0489C122.294 23.9997 122.304 23.9509 122.323 23.9054C122.341 23.8599 122.369 23.8185 122.404 23.7837C122.439 23.7489 122.48 23.7213 122.525 23.7026C122.571 23.6839 122.62 23.6744 122.669 23.6746H136.568C136.667 23.6746 136.762 23.714 136.832 23.7842C136.903 23.8544 136.942 23.9496 136.942 24.0489L136.947 28.794Z" fill="#E9EBEE"/>
<path d="M155.119 6.37557L152.977 7.73436L154.277 5.36978C153.909 5.07572 153.453 4.9128 152.982 4.9068H152.948C152.799 4.90814 152.65 4.89687 152.503 4.8731L151.778 5.33431L152.088 4.76844C151.574 4.58809 151.13 4.25047 150.818 3.80345L149.52 4.63895L150.34 3.14535C149.581 2.23358 148.566 1.6748 147.429 1.6748C146.078 1.6748 144.875 2.47837 144.099 3.73073C143.869 4.10585 143.545 4.41337 143.158 4.62187C142.771 4.83037 142.335 4.93237 141.896 4.91745H141.823C140.332 4.91745 139.124 6.60972 139.124 8.6958C139.124 10.7819 140.332 12.4741 141.823 12.4741C142.152 12.4728 142.475 12.3919 142.765 12.2382C143.273 11.9918 143.828 11.8584 144.392 11.8474C144.957 11.8364 145.517 11.9479 146.034 12.1744C146.47 12.3697 146.944 12.4706 147.422 12.4706C147.901 12.4706 148.374 12.3697 148.811 12.1744C149.324 11.9519 149.879 11.8423 150.438 11.853C150.997 11.8637 151.547 11.9945 152.051 12.2365C152.339 12.3866 152.658 12.4657 152.982 12.4671C154.474 12.4671 155.683 10.7748 155.683 8.6887C155.692 7.88254 155.498 7.08706 155.119 6.37557Z" fill="#E9EBEE"/>
<path opacity="0.03" d="M151.083 11.9114C150.307 11.7645 149.504 11.8516 148.778 12.1615C148.341 12.3574 147.867 12.4587 147.388 12.4587C146.909 12.4587 146.436 12.3574 145.999 12.1615C145.482 11.9351 144.922 11.8235 144.357 11.8345C143.793 11.8455 143.238 11.9789 142.73 12.2254C142.441 12.379 142.118 12.46 141.79 12.4613C140.465 12.4613 139.362 11.1256 139.13 9.3641C139.394 9.17223 139.618 8.93133 139.791 8.65455C140.568 7.4022 141.772 6.59863 143.124 6.59863C144.475 6.59863 145.663 7.39155 146.44 8.63149C146.672 9.00546 146.996 9.31329 147.382 9.52521C147.768 9.73714 148.201 9.846 148.641 9.84128H148.675C149.725 9.82354 150.638 10.6697 151.083 11.9114Z" fill="#121212"/>
<path d="M24.5839 120.674C24.9492 120 24.536 119.174 24.0518 118.57C23.5676 117.967 22.9966 117.343 23.009 116.575C23.0267 115.473 24.1955 114.822 25.1372 114.239C25.8309 113.805 26.4709 113.29 27.0437 112.706C27.2832 112.481 27.4813 112.216 27.6289 111.922C27.8223 111.491 27.8169 111.001 27.8063 110.529C27.7649 108.957 27.6869 107.385 27.5722 105.814" stroke="#121212" stroke-width="4" stroke-miterlimit="10"/>
<path d="M29.3492 105.729C29.3357 105.441 29.25 105.161 29.1 104.915C28.95 104.669 28.7405 104.465 28.4908 104.321L28.106 105.082L28.1184 104.161C27.7689 104.058 27.3958 104.069 27.0528 104.192C26.7098 104.315 26.4148 104.543 26.2103 104.845C26.0058 105.147 25.9024 105.505 25.9151 105.87C25.9278 106.234 26.0559 106.584 26.2809 106.871C26.5058 107.158 26.8161 107.365 27.1668 107.464C27.5175 107.563 27.8905 107.548 28.2319 107.421C28.5734 107.294 28.8657 107.061 29.0665 106.757C29.2673 106.453 29.3663 106.093 29.3492 105.729Z" fill="#8BC63E"/>
<path d="M26.2814 117.364C26.1082 117.701 25.8285 117.972 25.4856 118.133C25.1428 118.295 24.7561 118.339 24.3858 118.258C24.0155 118.177 23.6824 117.976 23.4382 117.686C23.1941 117.396 23.0526 117.033 23.0359 116.654C23.0253 116.417 23.0633 116.18 23.1477 115.957C23.2732 115.631 23.4949 115.352 23.7833 115.155C24.0717 114.958 24.4132 114.854 24.7623 114.855C25.1115 114.857 25.4518 114.966 25.738 115.166C26.0242 115.366 26.2428 115.648 26.3648 115.975L25.2918 116.85L26.4712 116.576C26.4723 116.85 26.4072 117.121 26.2814 117.364Z" fill="#8BC63E"/>
<path d="M25.4353 114.025C25.2098 114.036 24.9845 114.002 24.7722 113.925C24.5599 113.848 24.3648 113.731 24.1979 113.579C24.0311 113.427 23.8959 113.243 23.7999 113.039C23.7039 112.835 23.6492 112.613 23.6387 112.388C23.6257 112.119 23.6768 111.851 23.7877 111.606C23.8906 111.376 24.0428 111.171 24.2334 111.007C24.424 110.842 24.6484 110.721 24.8908 110.653V111.363L25.2792 110.593C25.5046 110.582 25.7299 110.616 25.9422 110.693C26.1545 110.769 26.3497 110.887 26.5165 111.039C26.6833 111.191 26.8186 111.375 26.9145 111.579C27.0105 111.783 27.0653 112.004 27.0757 112.23C27.0861 112.428 27.0614 112.626 27.003 112.815C26.8981 113.154 26.6912 113.452 26.4106 113.668C26.13 113.885 25.7893 114.01 25.4353 114.025Z" fill="#8BC63E"/>
<path d="M29.6088 111.249C29.3422 111.264 29.076 111.216 28.8312 111.109C28.5864 111.003 28.3697 110.841 28.1983 110.636C28.0269 110.431 27.9055 110.19 27.8437 109.93C27.7818 109.67 27.7813 109.4 27.842 109.14C27.9028 108.88 28.0232 108.637 28.1937 108.432C28.3643 108.227 28.5803 108.064 28.8246 107.956C29.0689 107.849 29.3349 107.8 29.6016 107.813C29.8682 107.826 30.1281 107.901 30.3607 108.032L30.0575 108.865L30.6817 108.264C30.8476 108.416 30.982 108.599 31.0773 108.802C31.1725 109.006 31.2267 109.226 31.2368 109.451C31.2453 109.61 31.2309 109.769 31.1943 109.924C31.1094 110.287 30.9088 110.613 30.6228 110.852C30.3369 111.091 29.9809 111.23 29.6088 111.249Z" fill="#8BC63E"/>
<path opacity="0.1" d="M29.1194 106.186C28.7222 106.23 28.3373 106.353 27.9383 106.378C27.5393 106.402 27.103 106.307 26.8511 105.998C26.734 105.818 26.6279 105.631 26.5337 105.437C26.4251 105.268 26.2765 105.129 26.101 105.031C25.9901 105.249 25.927 105.488 25.9159 105.732C25.9047 105.977 25.9458 106.22 26.0363 106.447C26.1268 106.675 26.2648 106.88 26.4409 107.049C26.617 107.219 26.8272 107.349 27.0576 107.431C27.2879 107.512 27.5331 107.544 27.7766 107.524C28.0202 107.503 28.2566 107.431 28.47 107.312C28.6835 107.193 28.869 107.029 29.0144 106.833C29.1597 106.636 29.2614 106.411 29.3128 106.172C29.2489 106.175 29.1833 106.179 29.1194 106.186Z" fill="#121212"/>
<path opacity="0.1" d="M29.6083 111.249C29.312 111.263 29.0171 111.2 28.7524 111.066C28.4877 110.932 28.2621 110.732 28.0975 110.485C27.933 110.238 27.835 109.953 27.8132 109.657C27.7915 109.361 27.8466 109.064 27.9732 108.796C28.1103 108.891 28.2277 109.011 28.319 109.151C28.4215 109.346 28.5352 109.536 28.6595 109.718C28.9273 110.032 29.3849 110.135 29.7999 110.117C30.2149 110.1 30.6139 109.979 31.0271 109.94C31.0839 109.94 31.1424 109.94 31.2045 109.929C31.1181 110.293 30.9155 110.619 30.6275 110.857C30.3395 111.095 29.9817 111.233 29.6083 111.249Z" fill="#121212"/>
<path opacity="0.1" d="M25.4352 114.025C25.2098 114.036 24.9845 114.001 24.7722 113.925C24.5599 113.848 24.3648 113.731 24.1979 113.579C24.0311 113.427 23.8959 113.243 23.7999 113.039C23.7039 112.834 23.6492 112.613 23.6387 112.388C23.6257 112.119 23.6768 111.851 23.7877 111.605C23.9292 111.701 24.0524 111.821 24.1512 111.96C24.2639 112.16 24.3883 112.353 24.5237 112.539C24.8128 112.863 25.3005 112.977 25.7403 112.966C26.1801 112.955 26.5756 112.853 26.9995 112.819C26.8942 113.156 26.6876 113.453 26.4077 113.669C26.1278 113.885 25.7883 114.009 25.4352 114.025Z" fill="#121212"/>
<path opacity="0.1" d="M26.2814 117.364C26.1082 117.701 25.8284 117.971 25.4856 118.133C25.1428 118.295 24.7561 118.339 24.3858 118.258C24.0155 118.177 23.6824 117.976 23.4382 117.686C23.1941 117.396 23.0526 117.033 23.0359 116.654C23.0253 116.417 23.0633 116.179 23.1477 115.957C23.2898 116.05 23.4172 116.163 23.5254 116.294C23.6675 116.506 23.8208 116.709 23.9847 116.904C24.3394 117.248 24.9034 117.392 25.4035 117.405C25.6967 117.408 25.9898 117.395 26.2814 117.364Z" fill="#121212"/>
<path d="M21.9932 120.386C21.9932 120.386 23.3499 119.854 23.7667 119.565C24.1834 119.276 25.8541 118.925 25.9552 119.388C26.0562 119.851 27.984 121.715 26.4588 121.727C24.9336 121.74 22.8994 121.979 22.4915 121.727C22.0836 121.475 21.9932 120.386 21.9932 120.386Z" fill="#656380"/>
<path opacity="0.2" d="M26.4801 121.564C24.9496 121.576 22.9225 121.816 22.5146 121.564C22.2042 121.374 22.0801 120.695 22.0375 120.381H21.9932C21.9932 120.381 22.0783 121.475 22.4862 121.724C22.8941 121.972 24.9212 121.734 26.4535 121.724C26.8951 121.724 27.0476 121.562 27.0405 121.33C26.9785 121.474 26.8135 121.562 26.4801 121.564Z" fill="#121212"/>
<path d="M119.244 120.769C118.999 120.316 119.278 119.761 119.599 119.35C119.92 118.938 120.308 118.525 120.298 118.009C120.287 117.269 119.501 116.833 118.879 116.441C118.414 116.149 117.985 115.804 117.6 115.412C117.439 115.259 117.305 115.079 117.206 114.88C117.098 114.58 117.058 114.26 117.088 113.943C117.116 112.887 117.169 111.832 117.245 110.778" stroke="#121212" stroke-width="4" stroke-miterlimit="10"/>
<path d="M116.045 110.73C116.054 110.536 116.112 110.348 116.213 110.183C116.313 110.018 116.454 109.881 116.622 109.784L116.881 110.295L116.872 109.676C116.995 109.64 117.124 109.625 117.253 109.632C117.481 109.642 117.701 109.721 117.885 109.856C118.068 109.992 118.208 110.179 118.285 110.394C118.362 110.609 118.374 110.842 118.319 111.064C118.264 111.286 118.144 111.486 117.975 111.64C117.806 111.793 117.595 111.893 117.369 111.927C117.144 111.961 116.913 111.927 116.706 111.83C116.5 111.732 116.327 111.576 116.209 111.38C116.091 111.184 116.034 110.958 116.045 110.73Z" fill="#8BC63E"/>
<path d="M118.104 118.547C118.225 118.782 118.424 118.968 118.666 119.075C118.908 119.181 119.18 119.2 119.435 119.13C119.689 119.06 119.912 118.904 120.066 118.689C120.22 118.473 120.295 118.212 120.279 117.948C120.263 117.684 120.156 117.434 119.978 117.239C119.799 117.044 119.559 116.916 119.297 116.878C119.035 116.839 118.769 116.891 118.541 117.026C118.313 117.161 118.139 117.37 118.047 117.618L118.769 118.203L117.975 118.026C117.976 118.207 118.021 118.386 118.104 118.547Z" fill="#8BC63E"/>
<path d="M118.68 116.306C118.831 116.313 118.983 116.29 119.125 116.238C119.268 116.187 119.399 116.108 119.511 116.006C119.623 115.904 119.714 115.78 119.778 115.643C119.843 115.506 119.879 115.357 119.886 115.206C119.896 115.023 119.862 114.84 119.787 114.674C119.718 114.519 119.616 114.382 119.487 114.271C119.359 114.161 119.208 114.08 119.045 114.035V114.51L118.783 113.992C118.477 113.978 118.178 114.086 117.952 114.293C117.725 114.499 117.59 114.786 117.575 115.092C117.57 115.225 117.587 115.358 117.625 115.486C117.694 115.715 117.833 115.917 118.022 116.064C118.211 116.211 118.441 116.295 118.68 116.306Z" fill="#8BC63E"/>
<path d="M115.871 114.44C116.05 114.449 116.228 114.415 116.391 114.343C116.555 114.271 116.699 114.162 116.814 114.024C116.928 113.887 117.008 113.724 117.049 113.55C117.09 113.376 117.09 113.195 117.049 113.021C117.008 112.847 116.927 112.685 116.812 112.547C116.698 112.41 116.553 112.301 116.389 112.229C116.226 112.157 116.047 112.124 115.869 112.133C115.69 112.142 115.516 112.192 115.36 112.28L115.564 112.838L115.146 112.436C114.921 112.641 114.787 112.928 114.773 113.232C114.767 113.339 114.777 113.447 114.802 113.551C114.859 113.796 114.995 114.015 115.187 114.175C115.38 114.335 115.62 114.428 115.871 114.44Z" fill="#8BC63E"/>
<path opacity="0.1" d="M116.198 111.042C116.464 111.07 116.73 111.154 116.991 111.17C117.125 111.187 117.261 111.172 117.388 111.126C117.516 111.08 117.63 111.005 117.723 110.907C117.802 110.786 117.873 110.66 117.938 110.531C118.01 110.418 118.11 110.324 118.227 110.258C118.319 110.436 118.361 110.635 118.351 110.834C118.337 111.114 118.222 111.378 118.028 111.579C117.833 111.78 117.572 111.904 117.294 111.927C117.015 111.95 116.737 111.871 116.512 111.705C116.287 111.539 116.13 111.297 116.07 111.024C116.115 111.033 116.157 111.037 116.198 111.042Z" fill="#121212"/>
<path opacity="0.1" d="M115.871 114.44C116.07 114.45 116.269 114.408 116.447 114.318C116.625 114.228 116.776 114.094 116.887 113.928C116.997 113.762 117.063 113.571 117.078 113.372C117.092 113.173 117.055 112.974 116.969 112.794C116.874 112.857 116.793 112.939 116.73 113.035C116.662 113.167 116.585 113.295 116.501 113.417C116.402 113.515 116.281 113.591 116.149 113.637C116.017 113.683 115.876 113.699 115.737 113.684C115.458 113.672 115.189 113.592 114.912 113.567C114.873 113.567 114.834 113.567 114.795 113.567C114.856 113.81 114.994 114.026 115.188 114.183C115.382 114.341 115.622 114.431 115.871 114.44Z" fill="#121212"/>
<path opacity="0.1" d="M118.681 116.304C118.832 116.311 118.984 116.288 119.126 116.237C119.269 116.185 119.4 116.106 119.512 116.004C119.624 115.902 119.715 115.779 119.779 115.641C119.843 115.504 119.88 115.356 119.887 115.204C119.897 115.021 119.863 114.839 119.787 114.672C119.693 114.734 119.61 114.814 119.544 114.906C119.469 115.041 119.385 115.172 119.293 115.296C119.184 115.398 119.056 115.476 118.915 115.526C118.774 115.575 118.625 115.594 118.477 115.582C118.19 115.582 117.915 115.506 117.631 115.484C117.7 115.713 117.838 115.914 118.026 116.061C118.214 116.208 118.443 116.292 118.681 116.304Z" fill="#121212"/>
<path opacity="0.1" d="M118.104 118.546C118.241 118.806 118.472 119.005 118.749 119.101C119.027 119.197 119.33 119.183 119.598 119.063C119.866 118.943 120.079 118.726 120.192 118.455C120.305 118.184 120.311 117.88 120.208 117.604C120.113 117.667 120.027 117.743 119.954 117.83C119.859 117.972 119.756 118.109 119.646 118.24C119.378 118.464 119.039 118.583 118.69 118.577C118.494 118.577 118.299 118.567 118.104 118.546Z" fill="#121212"/>
<path d="M120.986 120.454C120.986 120.454 120.075 120.22 119.8 120.025C119.525 119.829 118.399 119.595 118.331 119.909C118.264 120.223 116.962 121.469 117.991 121.477C119.02 121.486 120.38 121.524 120.651 121.357C120.923 121.19 120.986 120.454 120.986 120.454Z" fill="#656380"/>
<path opacity="0.2" d="M117.971 121.373C119 121.373 120.362 121.419 120.632 121.252C120.841 121.126 120.924 120.668 120.951 120.459H120.986C120.986 120.459 120.928 121.195 120.655 121.362C120.382 121.529 119.02 121.49 117.995 121.483C117.697 121.483 117.595 121.374 117.601 121.218C117.638 121.307 117.752 121.373 117.971 121.373Z" fill="#121212"/>
<mask id="path-36-inside-1" fill="white">
<path d="M124.923 121.478H34.6523V121.832H124.923V121.478Z"/>
</mask>
<path d="M124.923 121.478H34.6523V121.832H124.923V121.478Z" fill="#121212"/>
<path d="M34.6523 121.478V120.478H33.6523V121.478H34.6523ZM124.923 121.478H125.923V120.478H124.923V121.478ZM124.923 121.832V122.832H125.923V121.832H124.923ZM34.6523 121.832H33.6523V122.832H34.6523V121.832ZM34.6523 122.478H124.923V120.478H34.6523V122.478ZM123.923 121.478V121.832H125.923V121.478H123.923ZM124.923 120.832H34.6523V122.832H124.923V120.832ZM35.6523 121.832V121.478H33.6523V121.832H35.6523Z" fill="#121212" mask="url(#path-36-inside-1)"/>
<mask id="path-38-inside-2" fill="white">
<path d="M176 121.478H128.115V121.832H176V121.478Z"/>
</mask>
<path d="M176 121.478H128.115V121.832H176V121.478Z" fill="#121212"/>
<path d="M128.115 121.478V120.478H127.115V121.478H128.115ZM176 121.478H177V120.478H176V121.478ZM176 121.832V122.832H177V121.832H176ZM128.115 121.832H127.115V122.832H128.115V121.832ZM128.115 122.478H176V120.478H128.115V122.478ZM175 121.478V121.832H177V121.478H175ZM176 120.832H128.115V122.832H176V120.832ZM129.115 121.832V121.478H127.115V121.832H129.115Z" fill="#121212" mask="url(#path-38-inside-2)"/>
<mask id="path-40-inside-3" fill="white">
<path d="M31.4604 121.478H1.48828V121.832H31.4604V121.478Z"/>
</mask>
<path d="M31.4604 121.478H1.48828V121.832H31.4604V121.478Z" fill="#121212"/>
<path d="M1.48828 121.478V120.478H0.488281V121.478H1.48828ZM31.4604 121.478H32.4604V120.478H31.4604V121.478ZM31.4604 121.832V122.832H32.4604V121.832H31.4604ZM1.48828 121.832H0.488281V122.832H1.48828V121.832ZM1.48828 122.478H31.4604V120.478H1.48828V122.478ZM30.4604 121.478V121.832H32.4604V121.478H30.4604ZM31.4604 120.832H1.48828V122.832H31.4604V120.832ZM2.48828 121.832V121.478H0.488281V121.832H2.48828Z" fill="#121212" mask="url(#path-40-inside-3)"/>
</g>
<path d="M74.6693 126.301C74.6161 126.323 74.5556 126.346 74.4872 126.37C74.0251 126.53 73.3173 126.693 72.3712 126.852C70.4866 127.169 67.7441 127.457 64.3374 127.7C57.5286 128.184 48.1138 128.484 37.7088 128.484C27.3037 128.484 17.8889 128.184 11.0801 127.7C7.67344 127.457 4.93091 127.169 3.04628 126.852C2.10023 126.693 1.39239 126.53 0.930315 126.37C0.861888 126.346 0.801398 126.323 0.748221 126.301C0.801398 126.279 0.861888 126.256 0.930315 126.233C1.39239 126.072 2.10023 125.909 3.04628 125.75C4.9309 125.433 7.67344 125.145 11.0801 124.903C17.8889 124.418 27.3037 124.118 37.7088 124.118C48.1138 124.118 57.5286 124.418 64.3374 124.903C67.7441 125.145 70.4866 125.433 72.3712 125.75C73.3173 125.909 74.0251 126.072 74.4872 126.233C74.5556 126.256 74.6161 126.279 74.6693 126.301ZM0.444999 126.136C0.445269 126.136 0.447567 126.138 0.451085 126.142C0.446488 126.138 0.444729 126.136 0.444999 126.136ZM0.444999 126.466C0.444729 126.466 0.446488 126.464 0.451084 126.46C0.447567 126.464 0.445269 126.466 0.444999 126.466ZM74.9665 126.46C74.9711 126.464 74.9728 126.466 74.9725 126.466C74.9723 126.466 74.97 126.464 74.9665 126.46ZM74.9664 126.142C74.97 126.138 74.9723 126.136 74.9725 126.136C74.9728 126.136 74.971 126.138 74.9664 126.142Z" fill="#121212" stroke="#121212"/>
<path d="M31.1572 31.0488C31.1572 31.0488 30.5821 33.1543 31.7321 33.9199C32.8821 34.6856 33.2655 38.3224 33.2655 38.3224L30.9655 44.639L24.8322 45.7875L22.5322 41.385V34.877C22.5322 34.877 23.2989 31.623 23.1072 30.6659C22.9156 29.7089 31.1572 31.0488 31.1572 31.0488Z" fill="#FFB9B9"/>
<path opacity="0.2" d="M31.1572 31.0488C31.1572 31.0488 30.5821 33.1543 31.7321 33.9199C32.8821 34.6856 33.2655 38.3224 33.2655 38.3224L30.9655 44.639L24.8322 45.7875L22.5322 41.385V34.877C22.5322 34.877 23.2989 31.623 23.1072 30.6659C22.9156 29.7089 31.1572 31.0488 31.1572 31.0488Z" fill="#121212"/>
<path d="M37.2909 67.2266L42.2742 68.1836C42.2742 68.1836 42.6575 73.7346 42.2742 75.0744C41.8909 76.4143 41.5076 77.9456 41.8909 78.3285C42.2742 78.7113 40.1659 88.4733 40.3576 89.0475C40.5492 89.6217 40.9326 91.3444 40.7409 92.4929C40.5492 93.6414 39.9742 93.2586 40.3576 94.407C40.7409 95.5555 41.1242 95.7469 40.7409 96.5126C40.3576 97.2782 38.4409 115.845 37.8659 116.037C37.2909 116.228 32.1159 116.419 32.1159 116.037C32.1159 115.654 33.8409 112.783 33.2659 112.017C32.6909 111.251 33.4576 98.2353 33.4576 97.661C33.4576 97.0868 34.6076 96.1298 34.0326 95.7469C33.4576 95.3641 33.0743 94.9813 33.2659 94.407C33.4576 93.8328 33.8409 93.6414 33.4576 93.0672C33.0743 92.4929 33.0743 81.0082 31.7326 80.6254C31.7326 80.6254 30.0076 89.0475 30.5826 91.153C31.1576 93.2586 30.3909 94.0242 30.3909 94.0242L33.0743 96.3211L29.4326 103.212L25.5993 98.8095C25.5993 98.8095 25.5993 97.661 24.8327 97.4696C24.066 97.2782 23.6827 97.0868 23.6827 96.5126C23.6827 95.9383 22.341 92.3015 22.341 92.3015C22.341 92.3015 18.5077 80.2426 20.4244 74.1174C22.341 67.9922 23.0794 68.195 23.0794 68.195L37.2909 67.2266Z" fill="#494949"/>
<path d="M40.3566 106.85L42.465 109.146L41.6984 115.463H39.9734L37.29 109.529L40.3566 106.85Z" fill="#FFB9B9"/>
<path d="M41.6987 111.061C41.6987 111.061 40.932 112.783 40.357 112.4C39.7821 112.018 39.5914 111.443 38.7284 111.443C37.8654 111.443 37.0988 111.635 37.2904 112.018C37.4821 112.4 39.782 116.611 39.782 116.611C40.1195 117.33 40.2945 118.114 40.2945 118.908C40.2945 119.702 40.1195 120.487 39.782 121.205C38.632 123.694 42.8487 125.034 43.6153 122.354C44.382 119.674 44.5736 116.611 44.382 115.463C44.1903 114.315 45.3403 108.381 45.3403 108.381C45.3403 108.381 42.244 106.955 41.3005 106.902C41.3005 106.902 42.082 110.295 41.6987 111.061Z" fill="#494949"/>
<path d="M36.5233 115.271L37.2899 117.568C37.2899 117.568 37.2899 119.865 38.0566 121.014C38.8233 122.162 39.5899 124.651 36.5233 124.842C33.4566 125.033 32.1149 123.885 32.1149 123.885C32.1149 123.885 32.6899 122.354 32.1149 121.779C31.5399 121.205 32.1149 120.057 32.1149 120.057L32.6899 115.463L36.5233 115.271Z" fill="#494949"/>
<path d="M31.3491 96.1279H33.0741L41.699 107.421C41.699 107.421 40.1657 111.058 37.8657 111.441C37.8657 111.441 37.4824 111.249 35.7574 110.101C34.0324 108.953 29.4324 103.21 29.4324 103.21L28.8574 99.9562L31.3491 96.1279Z" fill="#494949"/>
<path d="M27.1323 33.5365C30.5196 33.5365 33.2656 30.7942 33.2656 27.4113C33.2656 24.0285 30.5196 21.2861 27.1323 21.2861C23.745 21.2861 20.999 24.0285 20.999 27.4113C20.999 30.7942 23.745 33.5365 27.1323 33.5365Z" fill="#FFB9B9"/>
<path d="M34.608 35.2608L32.6913 34.4951C32.6913 34.4951 32.4997 41.1945 28.858 41.1945C25.2164 41.1945 21.3831 40.2375 21.3831 38.3234C21.3831 36.4092 18.3164 41.7688 18.3164 41.7688C18.3164 41.7688 21.1914 60.91 20.9997 61.1014C20.808 61.2928 23.108 71.4376 23.108 71.4376C23.108 71.4376 32.883 71.8204 36.1413 70.4806C39.3996 69.1407 40.3579 66.6523 40.3579 66.6523L39.0163 49.8081L36.333 36.7921L34.608 35.2608Z" fill="#8BC63E"/>
<path d="M31.3506 33.5395C31.3506 33.5395 32.1161 32.7739 33.2661 33.5395C34.4161 34.3052 41.5077 36.0278 41.5077 36.6021V43.8757C41.5077 43.8757 41.6994 45.0242 41.1244 45.7899C40.5494 46.5555 39.2077 49.4267 39.9744 50.7666C40.741 52.1064 43.616 67.6108 43.041 69.5249C42.466 71.439 40.9327 73.1618 40.9327 73.1618C40.9327 73.1618 32.6911 55.7433 32.6911 50.7666C32.6911 45.7899 32.7711 39.6843 32.7711 39.6843L31.3506 33.5395Z" fill="#4B6E82"/>
<path d="M39.7835 36.792H41.5085C41.5085 36.792 48.0251 49.2338 48.0251 51.7221C48.0251 54.2105 43.8085 67.9921 43.4251 68.1835C43.0418 68.3749 41.8918 66.078 41.8918 66.078L40.9335 58.4215C40.9335 58.4215 42.8501 53.8276 42.2751 53.062C41.7002 52.2963 38.8252 46.3626 38.8252 46.3626L39.7835 36.792Z" fill="#4B6E82"/>
<path d="M22.8156 33.54C22.8156 33.54 20.6155 35.0713 20.2321 35.6456C19.8488 36.2198 14.0989 39.4738 13.9072 40.2395C13.7155 41.0051 18.3155 47.5131 18.3155 47.5131C18.3155 47.5131 20.2321 58.2322 20.2321 58.9978C20.2321 59.7634 20.9988 72.7794 20.9988 72.7794C20.9988 72.7794 28.8571 75.0764 28.8571 73.7365C28.8571 72.3966 29.0488 53.2554 27.8988 49.0444C26.7488 44.8333 22.8156 33.54 22.8156 33.54Z" fill="#4B6E82"/>
<path d="M24.0651 73.1611C24.0651 73.1611 30.5817 81.9661 27.1318 81.7746C23.6818 81.5832 21.3818 74.1182 21.3818 74.1182L24.0651 73.1611Z" fill="#FFB9B9"/>
<path d="M16.2085 39.6641L13.9085 40.2383C13.9085 40.2383 11.9919 57.0825 13.1419 59.3795C14.2919 61.6764 20.4252 76.6066 20.4252 76.0323C20.4252 75.4581 25.8205 74.4346 25.6145 73.8936C25.4085 73.3526 24.2585 71.0556 23.8751 70.29C23.4918 69.5243 22.9168 68.5673 23.1085 67.6102C23.3001 66.6532 21.0001 62.5566 21.0001 62.5566C21.0001 62.5566 20.4252 60.1451 20.2335 58.9967C20.0418 57.8482 18.3168 45.215 18.3168 45.215L16.2085 39.6641Z" fill="#4B6E82"/>
<path d="M33.1466 22.6708C33.0294 22.3106 32.782 22.007 32.4526 21.8193C32.4698 21.439 32.4202 21.0587 32.3061 20.6955C31.9243 19.6346 31.0199 19.6954 30.1665 19.2263C29.7963 19.0228 29.8192 18.8429 29.6264 18.5087C29.3677 18.0645 28.9895 17.7018 28.5346 17.4616C28.0083 17.0885 27.4005 16.8461 26.7616 16.7545C25.4005 16.6673 24.357 17.8707 23.0561 18.2569C22.4827 18.4271 21.8666 18.4341 21.2902 18.595C20.7138 18.756 20.1387 19.1402 20.0528 19.6996C20.0131 19.9579 20.0831 20.2229 20.0429 20.4811C19.9629 20.9942 19.4839 21.3536 19.1633 21.7757C18.4543 22.7091 18.5354 24.0277 19.1024 25.0433C19.2225 25.2543 19.3592 25.4554 19.5112 25.6447C19.5594 26.1274 19.7063 26.595 19.9429 27.0186C20.5099 28.0342 21.4857 28.7931 22.5049 29.4236C22.4215 29.0874 22.3709 28.7439 22.3537 28.398C22.3394 28.2827 22.3554 28.1656 22.4001 28.0583C22.5136 27.8352 22.8136 27.7759 23.0422 27.6537C23.2603 27.5106 23.4371 27.3131 23.5552 27.0807C23.6733 26.8483 23.7285 26.5891 23.7153 26.3288C23.729 25.8169 23.6136 25.3041 23.6707 24.7948C23.6738 24.6761 23.7026 24.5595 23.7554 24.453C23.8081 24.3465 23.8833 24.2528 23.9759 24.1782C24.1526 24.0841 24.3514 24.0395 24.5514 24.0493C25.5219 24.0121 26.5359 23.9953 27.3919 23.5639C27.6697 23.3907 27.9663 23.2497 28.276 23.1435C29.0035 22.9652 29.747 23.4445 30.1663 24.0311C30.5856 24.6177 30.7946 25.3158 31.1814 25.9217C31.5683 26.5277 32.2365 27.0681 32.9845 26.9963C33.0261 26.9966 33.0673 26.9885 33.1057 26.9725C33.1441 26.9564 33.1788 26.9328 33.2078 26.903C33.2399 26.8491 33.2543 26.7866 33.249 26.7241L33.2907 24.0367C33.3254 23.5764 33.2766 23.1137 33.1466 22.6708Z" fill="#494949"/>
<path d="M173.548 126.552C173.533 126.558 173.518 126.563 173.503 126.568C173.09 126.712 172.454 126.859 171.6 127.002C169.901 127.288 167.427 127.548 164.351 127.767C158.205 128.204 149.705 128.475 140.311 128.475C130.917 128.475 122.418 128.204 116.271 127.767C113.196 127.548 110.722 127.288 109.022 127.002C108.169 126.859 107.533 126.712 107.12 126.568C107.104 126.563 107.089 126.558 107.075 126.552C107.089 126.547 107.104 126.542 107.12 126.536C107.533 126.393 108.169 126.246 109.022 126.102C110.722 125.817 113.196 125.557 116.271 125.338C122.418 124.901 130.917 124.63 140.311 124.63C149.705 124.63 158.205 124.901 164.351 125.338C167.427 125.557 169.901 125.817 171.6 126.102C172.454 126.246 173.09 126.393 173.503 126.536C173.518 126.542 173.533 126.547 173.548 126.552ZM106.699 126.368C106.699 126.368 106.701 126.37 106.705 126.375C106.7 126.37 106.698 126.368 106.699 126.368ZM106.699 126.736C106.698 126.736 106.7 126.734 106.705 126.73C106.701 126.734 106.699 126.736 106.699 126.736ZM173.917 126.73C173.922 126.734 173.924 126.736 173.924 126.736C173.924 126.736 173.921 126.734 173.917 126.73ZM173.917 126.375C173.921 126.37 173.924 126.368 173.924 126.368C173.924 126.368 173.922 126.37 173.917 126.375Z" fill="#121212" stroke="#121212"/>
<path d="M136.767 73.08L133.634 78.5795C133.392 79.0049 132.993 79.319 132.523 79.4549C132.053 79.5909 131.548 79.538 131.117 79.3076C130.866 79.1739 130.649 78.9853 130.482 78.7558C130.315 78.5262 130.202 78.2618 130.151 77.9823C130.101 77.7029 130.114 77.4155 130.19 77.1419C130.266 76.8683 130.403 76.6156 130.591 76.4025L134.529 71.9333L136.767 73.08Z" fill="#FFB9B9"/>
<path d="M138.499 64.4015L136.453 45.5147C137.896 45.9332 138.968 46.7551 139.693 47.8591C140.532 49.137 140.931 50.8303 140.849 52.7883L140.848 52.8181L140.85 52.8478L141.87 66.0318L135.243 75.0964L133.812 73.5961L138.445 64.686L138.515 64.5518L138.499 64.4015Z" fill="#121212" stroke="#121212"/>
<path d="M136.646 41.4199H150.416V34.6011C150.421 32.7596 149.696 30.9904 148.399 29.6775C147.766 29.0308 147.009 28.517 146.172 28.1666C145.336 27.8163 144.438 27.6364 143.531 27.6377C141.719 27.641 139.981 28.3543 138.693 29.6233C137.406 30.8923 136.671 32.615 136.649 34.419C136.648 34.4814 136.646 34.5408 136.646 34.6011L136.646 41.4199Z" fill="#494949"/>
<path d="M156.1 119.519L151.722 119.023L146.483 84.0715L135.645 119.165L130.908 119.307L136.291 76.1311L135.502 66.2766L148.923 62.0938C158.429 68.6486 158.232 91.8008 156.1 119.519Z" fill="#494949"/>
<path d="M142.382 40.2712C144.917 40.2712 146.972 37.9573 146.972 35.1029C146.972 32.2485 144.917 29.9346 142.382 29.9346C139.847 29.9346 137.792 32.2485 137.792 35.1029C137.792 37.9573 139.847 40.2712 142.382 40.2712Z" fill="#FFB9B9"/>
<path d="M146.973 43.9395L138.94 46.0142C140.294 43.4513 140.727 41.0588 139.994 38.8823L145.656 37.9746C145.292 40.0558 145.764 42.1949 146.973 43.9395Z" fill="#FFB9B9"/>
<path d="M134.513 57.8767L134.547 58.0402L136.487 67.3187C138.35 68.7473 140.545 68.7374 142.931 67.9584C145.292 67.1878 147.746 65.6936 150.085 64.2305C149.38 60.7437 149.062 56.7863 151.042 53.7126L149.7 43.8023L146.974 43.1018C145.62 43.8602 144.332 44.4294 143.179 44.6636C142.072 44.8882 141.028 44.8147 140.18 44.2379L137.155 45.2623C137.155 45.2623 137.155 45.2623 137.155 45.2624C136.835 45.3707 136.545 45.5492 136.307 45.7836C136.069 46.0181 135.889 46.3023 135.779 46.6145L134.513 57.8767ZM134.513 57.8767L134.388 57.7666M134.513 57.8767L134.388 57.7666M134.388 57.7666C134.109 57.5219 133.895 57.1185 133.784 56.4987M134.388 57.7666L133.784 56.4987M133.784 56.4987C133.674 55.8788 133.675 55.0829 133.794 54.1128M133.784 56.4987L133.794 54.1128M133.794 54.1128C134.03 52.1731 134.721 49.6344 135.779 46.6146L133.794 54.1128Z" fill="#121212" stroke="#121212"/>
<path d="M154.815 73.1947L153.521 79.3918C153.421 79.8712 153.138 80.2926 152.732 80.5665C152.327 80.8405 151.83 80.9453 151.349 80.8588C151.069 80.8086 150.805 80.6958 150.575 80.5288C150.346 80.3618 150.157 80.1449 150.023 79.8945C149.889 79.6441 149.814 79.3666 149.802 79.0828C149.791 78.799 149.844 78.5163 149.957 78.2558L152.333 72.7918L154.815 73.1947Z" fill="#FFB9B9"/>
<path d="M154.867 126.186C154.194 126.52 153.63 124.45 153.062 125.057C151.473 126.754 147.662 126.373 147.662 126.373C147.534 126.329 147.416 126.256 147.314 126.16C147.213 126.064 147.13 125.947 147.072 125.816C147.013 125.684 146.98 125.541 146.974 125.395C146.968 125.249 146.989 125.103 147.036 124.967C147.092 124.803 147.185 124.656 147.305 124.54C147.425 124.424 147.569 124.341 147.725 124.298L149.415 123.839L152.068 118.768L154.959 118.37L155.032 118.5C155.591 119.479 155.951 120.577 156.089 121.719C156.227 122.862 156.139 124.023 155.831 125.126C155.59 125.963 155.263 125.99 154.867 126.186Z" fill="#494949"/>
<path d="M135.2 126.186C134.442 126.52 133.808 124.45 133.169 125.057C131.382 126.754 127.094 126.373 127.094 126.373C126.95 126.329 126.817 126.256 126.703 126.16C126.588 126.064 126.496 125.947 126.43 125.816C126.364 125.684 126.326 125.541 126.32 125.395C126.313 125.249 126.336 125.103 126.389 124.967C126.453 124.803 126.557 124.656 126.692 124.54C126.827 124.424 126.989 124.341 127.165 124.298L129.066 123.839L132.05 118.768L135.303 118.37L135.385 118.5C136.014 119.479 136.419 120.577 136.574 121.719C136.729 122.862 136.63 124.023 136.284 125.126C136.013 125.963 135.645 125.99 135.2 126.186Z" fill="#494949"/>
<path d="M148.12 30.4356L146.811 34.5288L135.498 34.3311C135.537 32.899 136.029 31.5145 136.907 30.3711C137.785 29.2277 139.004 28.3824 140.395 27.9533C141.785 27.5243 143.277 27.5328 144.662 27.9779C146.047 28.4229 147.256 29.2822 148.12 30.4356H148.12Z" fill="#494949"/>
<path d="M149.882 43.2122C151.49 43.6353 152.92 44.53 153.963 45.7719C155.155 47.1906 155.762 48.9668 155.678 50.7719L155.677 50.8048L155.68 50.8375L156.795 63.9045L154.358 75.1866L152.075 74.2568L153.046 62.2841L153.051 62.2225L153.041 62.1615L149.882 43.2122Z" fill="#121212" stroke="#121212"/>
</g>
<defs>
<clipPath id="clip0">
<rect width="176" height="134" fill="white"/>
</clipPath>
<clipPath id="clip1">
<rect width="176" height="138.593" fill="white" transform="translate(0 -16.75)"/>
</clipPath>
</defs>
</svg>
