<svg width="22" height="22" viewBox="0 0 22 22" fill="none" xmlns="http://www.w3.org/2000/svg">
<path fill-rule="evenodd" clip-rule="evenodd" d="M11 19.3711H2.5V10.8711C2.5 6.17667 6.30558 2.37109 11 2.37109C15.6944 2.37109 19.5 6.17667 19.5 10.8711C19.5 15.5655 15.6944 19.3711 11 19.3711ZM0.5 10.8711C0.5 5.0721 5.20101 0.371094 11 0.371094C16.799 0.371094 21.5 5.0721 21.5 10.8711C21.5 16.6701 16.799 21.3711 11 21.3711H0.5V10.8711ZM6.90479 12.9995C7.73321 12.9995 8.40479 12.3279 8.40479 11.4995C8.40479 10.6711 7.73321 9.99951 6.90479 9.99951C6.07636 9.99951 5.40479 10.6711 5.40479 11.4995C5.40479 12.3279 6.07636 12.9995 6.90479 12.9995ZM10.9048 12.9995C11.7332 12.9995 12.4048 12.3279 12.4048 11.4995C12.4048 10.6711 11.7332 9.99951 10.9048 9.99951C10.0764 9.99951 9.40479 10.6711 9.40479 11.4995C9.40479 12.3279 10.0764 12.9995 10.9048 12.9995ZM16.4048 11.4995C16.4048 12.3279 15.7332 12.9995 14.9048 12.9995C14.0764 12.9995 13.4048 12.3279 13.4048 11.4995C13.4048 10.6711 14.0764 9.99951 14.9048 9.99951C15.7332 9.99951 16.4048 10.6711 16.4048 11.4995Z" fill="#A4A4A4"/>
</svg>
