<svg width="72" height="72" viewBox="0 0 72 72" fill="none" xmlns="http://www.w3.org/2000/svg">
<g clip-path="url(#clip0)">
<g clip-path="url(#clip1)">
<g clip-path="url(#clip2)">
<path d="M45.6324 35.0206C46.0771 35.0206 46.4377 34.6606 46.4377 34.2166V31.5365C46.4377 31.0924 46.0771 30.7324 45.6324 30.7324H25.7673C25.3225 30.7324 24.9619 31.0924 24.9619 31.5365V34.5347C24.9619 34.9787 25.3225 35.3387 25.7673 35.3387H31.4906C33.3232 35.3387 34.7294 36.0059 35.5824 37.1647H25.7673C25.3225 37.1647 24.9619 37.5247 24.9619 37.9687V40.6488C24.9619 41.0929 25.3225 41.4529 25.7673 41.4529H36.4217C36.0045 43.8707 34.2097 45.3814 31.4046 45.3814H25.7673C25.3225 45.3814 24.9619 45.7414 24.9619 46.1854V49.7374C24.9619 49.9618 25.0559 50.176 25.221 50.3282L36.298 60.5365C36.4467 60.6736 36.6418 60.7497 36.8442 60.7497H42.3851C43.1182 60.7497 43.47 59.8513 42.9313 59.3548L32.8053 50.023C37.9393 49.8662 41.6067 46.4453 42.0881 41.4529H45.6324C46.0771 41.4529 46.4377 41.0929 46.4377 40.6488V37.9687C46.4377 37.5247 46.0771 37.1647 45.6324 37.1647H41.6936C41.4596 36.3914 41.1379 35.6742 40.7371 35.0206H45.6324Z" fill="white"/>
</g>
<path d="M44.6069 16.3625L53.1771 4.84321C53.4318 4.33365 53.5522 3.76753 53.5269 3.19843C53.5017 2.62934 53.3316 2.07611 53.0327 1.59113C52.7339 1.10615 52.3162 0.705467 51.8192 0.427029C51.3223 0.14859 50.7625 0.00160853 50.1928 1.3869e-08H21.1866C20.6161 -5.19143e-05 20.055 0.145719 19.5567 0.423471C19.0584 0.701223 18.6394 1.10174 18.3394 1.58698C18.0395 2.07223 17.8685 2.6261 17.8428 3.196C17.8171 3.7659 17.9374 4.33292 18.1925 4.84321L26.7568 16.3625C-0.55087 33.0606 0.000831766 54.6726 0.000831766 57.4547C0.000831766 65.1567 6.84937 71.4 15.2974 71.4H56.0861C64.5328 71.4 71.3813 65.1567 71.3813 57.4547C71.3813 54.7228 71.764 32.97 44.6069 16.3625ZM44.6063 5.95L38.6649 14.875H32.7149L26.7563 5.95H44.6063ZM65.4313 57.4547C65.4313 61.4528 60.8289 65.45 56.0861 65.45H15.2974C10.556 65.45 5.93992 61.4528 5.93992 57.4547C5.82556 46.159 11.9352 32.6158 31.2188 20.825H40.1524C59.3384 32.5642 65.5247 46.1492 65.4313 57.4547Z" fill="white"/>
</g>
</g>
<defs>
<clipPath id="clip0">
<rect width="71.4" height="71.4" fill="white"/>
</clipPath>
<clipPath id="clip1">
<rect width="71.4" height="71.4" fill="white"/>
</clipPath>
<clipPath id="clip2">
<rect width="21.4758" height="34.3055" fill="white" transform="translate(24.9619 28.5879)"/>
</clipPath>
</defs>
</svg>
