<svg width="213" height="134" viewBox="0 0 213 134" fill="none" xmlns="http://www.w3.org/2000/svg">
<g clip-path="url(#clip0)">
<path opacity="0.1" d="M186.416 117.336L186.416 117.336C191.211 113.733 195.712 110.002 199.919 106.141L200.257 106.51L199.919 106.141C204.719 101.737 209.113 97.1517 211.204 92.1152L211.665 92.3069L211.204 92.1151C215.156 82.5982 209.886 71.6721 197.704 64.9553L197.703 64.955C193.015 62.364 187.561 60.4374 181.712 58.9647L181.711 58.9643C180.992 58.7812 180.267 58.6068 179.536 58.4411L179.534 58.4408C178.547 58.2137 177.55 57.9978 176.544 57.7931C175.156 57.5103 173.75 57.2481 172.335 57.0045L172.42 56.5118L172.335 57.0045C170.01 56.6035 167.658 56.253 165.299 55.9397L165.296 55.9393C164.909 55.8852 164.523 55.8347 164.134 55.7861L164.132 55.7859C163.585 55.7157 163.024 55.647 162.485 55.5811L162.334 55.5626C161.784 55.4952 161.233 55.4312 160.682 55.3671L160.589 55.3563C160.589 55.3562 160.589 55.3562 160.588 55.3562C159.78 55.2638 158.965 55.1763 158.142 55.0939L158.138 55.0935C156.841 54.9549 155.524 54.835 154.193 54.7185C152.839 54.6005 151.467 54.4884 150.086 54.3755C147.651 54.1764 145.187 53.975 142.741 53.7349L142.165 53.6786C139.55 53.4224 136.951 53.1246 134.403 52.7471C134.403 52.7471 134.403 52.747 134.402 52.747L134.476 52.2524C132.819 52.0099 131.19 51.7336 129.597 51.414L186.416 117.336ZM186.416 117.336C185.087 118.336 183.738 119.323 182.366 120.298M186.416 117.336L182.366 120.298M182.366 120.298L181.413 120.972L181.412 120.972C180.568 121.57 179.711 122.162 178.838 122.749L178.836 122.751L178.731 122.822L178.731 122.822C177.884 123.4 177.029 123.971 176.167 124.537L176.167 124.538C173.346 126.394 170.381 128.226 167.11 129.74L167.11 129.741C165.995 130.258 164.847 130.739 163.66 131.17L163.659 131.17C163.017 131.403 162.361 131.622 161.692 131.827C160.595 132.161 159.469 132.452 158.295 132.691L158.292 132.691C158.097 132.732 157.9 132.771 157.702 132.808L157.701 132.808C156.499 133.034 155.28 133.199 154.046 133.313C149.525 133.727 144.845 133.425 140.293 132.711C138.019 132.355 135.779 131.895 133.61 131.372L133.608 131.371C133.55 131.357 133.49 131.343 133.431 131.329C133.225 131.279 133.014 131.229 132.803 131.183C129.324 130.311 125.944 129.292 122.551 128.269C122.34 128.205 122.128 128.141 121.917 128.077C118.312 126.991 114.687 125.912 110.932 125.02L182.366 120.298ZM123.037 50.2789C125.161 50.933 127.319 51.4757 129.5 51.9046L89.5752 122.604C85.3121 122.416 80.91 122.497 76.8532 123.243L76.7631 122.751C76.763 122.751 76.7629 122.751 76.7628 122.751C76.2144 122.852 75.6728 122.965 75.138 123.091C74.4587 123.25 73.7918 123.432 73.1373 123.636L73.1322 123.638C71.3752 124.206 69.6651 124.911 68.0175 125.747C67.6947 125.905 67.3761 126.066 67.0584 126.228L67.0582 126.228C66.6104 126.457 66.1724 126.684 65.7362 126.91C65.1891 127.193 64.6448 127.476 64.0876 127.757L64.081 127.761C62.3129 128.688 60.4728 129.47 58.5787 130.1C57.5454 130.427 56.4946 130.695 55.4314 130.905L55.4295 130.905C52.6053 131.472 49.5905 131.698 46.5503 131.713C45.0809 131.713 43.6116 131.681 42.1605 131.605L42.1473 131.604H42.1341H42.1023C41.6098 131.578 41.1172 131.548 40.6254 131.511L40.6221 131.511C38.3526 131.356 36.0913 131.117 33.8643 130.79C26.2275 129.668 19.0095 127.55 13.2213 124.336L13.2212 124.336C5.33014 119.957 0.505055 113.531 1.22798 107.261L1.228 107.261C1.48892 104.989 2.43294 102.775 3.72876 100.575C4.94254 98.5146 6.446 96.4976 7.95272 94.4763C8.05604 94.3377 8.15937 94.199 8.26263 94.0604L8.26278 94.0602C14.229 86.0398 19.8604 77.7839 22.8283 69.0581L22.8284 69.058C23.4301 67.2875 23.9254 65.4943 24.4128 63.7148C24.4316 63.6462 24.4504 63.5776 24.4692 63.5091C24.9386 61.7948 25.4042 60.0946 25.9582 58.4161C27.1087 54.9308 28.632 51.5676 31.3166 48.483C33.0356 46.5091 35.2422 44.6984 37.8248 43.1052C39.7582 41.9194 41.7846 40.8932 43.8842 40.0368L43.8851 40.0364C46.2638 39.0604 48.7108 38.2607 51.2064 37.6438L51.207 37.6436C53.372 37.1056 55.5659 36.6924 57.7781 36.4061L57.7785 36.4061C58.9806 36.2495 60.1973 36.1284 61.4213 36.0464L61.4228 36.0463C62.3633 35.9806 63.3083 35.939 64.2578 35.9215H64.4014V35.9216L64.411 35.9215C64.9913 35.9103 65.5716 35.9103 66.1519 35.9215L66.1537 35.9215C70.4055 35.9874 74.6457 36.3866 78.8354 37.1153L78.8385 37.1158C81.4643 37.5555 84.0696 38.0946 86.623 38.6886L86.6233 38.6887C88.1479 39.0424 89.6586 39.4129 91.1556 39.8003L91.1557 39.8004C91.6124 39.9185 92.0684 40.0383 92.5184 40.1599L92.5192 40.1601C97.8401 41.5882 102.845 43.2892 107.813 45.0423C108.814 45.3956 109.814 45.7512 110.815 46.1072C114.776 47.5151 118.75 48.9279 122.864 50.2268C122.865 50.2269 122.865 50.2271 122.866 50.2273L122.881 50.232C122.922 50.2453 122.978 50.2635 123.037 50.2789Z" fill="#121212" stroke="#121212"/>
<path opacity="0.2" d="M73.5253 100.915L70.0987 127.697L71.915 100.644L73.5253 100.915Z" fill="#121212"/>
<path opacity="0.1" d="M50.2794 12.9261C50.2794 14.8963 48.6853 16.4919 46.7208 16.4919C44.7562 16.4919 43.1621 14.8963 43.1621 12.9261C43.1621 10.956 44.7562 9.36035 46.7208 9.36035C48.6853 9.36035 50.2794 10.956 50.2794 12.9261Z" fill="#121212" stroke="#121212"/>
<path opacity="0.1" d="M133.237 4.06579C133.237 6.03595 131.643 7.63158 129.679 7.63158C127.714 7.63158 126.12 6.03595 126.12 4.06579C126.12 2.09563 127.714 0.5 129.679 0.5C131.643 0.5 133.237 2.09563 133.237 4.06579Z" fill="#121212" stroke="#121212"/>
<path opacity="0.1" d="M182.427 13.1713C182.427 15.1414 180.833 16.737 178.868 16.737C176.904 16.737 175.31 15.1414 175.31 13.1713C175.31 11.2011 176.904 9.60547 178.868 9.60547C180.833 9.60547 182.427 11.2011 182.427 13.1713Z" fill="#121212" stroke="#121212"/>
<path opacity="0.1" d="M13.1039 22.7631C13.1039 26.251 10.2816 29.077 6.80196 29.077C3.32231 29.077 0.5 26.251 0.5 22.7631C0.5 19.2752 3.32231 16.4492 6.80196 16.4492C10.2816 16.4492 13.1039 19.2752 13.1039 22.7631Z" fill="#121212" stroke="#121212"/>
<path opacity="0.1" d="M19.6244 56.4106C19.6244 59.8985 16.8021 62.7245 13.3225 62.7245C9.84282 62.7245 7.02051 59.8985 7.02051 56.4106C7.02051 52.9227 9.84282 50.0967 13.3225 50.0967C16.8021 50.0967 19.6244 52.9227 19.6244 56.4106Z" fill="#121212" stroke="#121212"/>
<path opacity="0.1" d="M202.184 44.0239C202.184 47.5118 199.362 50.3378 195.882 50.3378C192.402 50.3378 189.58 47.5118 189.58 44.0239C189.58 40.536 192.402 37.71 195.882 37.71C199.362 37.71 202.184 40.536 202.184 44.0239Z" fill="#121212" stroke="#121212"/>
<path d="M65.984 43.5347C66.0179 44.1384 65.9843 44.7442 65.8837 45.3397C65.5053 47.1824 63.9049 48.4479 62.3556 49.4079C60.8063 50.3679 59.1037 51.2763 58.1825 52.8969C57.072 54.8546 57.4258 57.4867 58.7292 59.3155C60.0326 61.1443 62.0983 62.2332 64.2246 62.6875C68.1027 63.5265 72.3496 62.3483 75.2572 59.5317C78.1648 56.7151 79.6233 52.3137 78.9102 48.2257C77.3325 48.4578 75.9269 46.9979 75.4161 45.4151C74.9054 43.8323 75.0113 42.1165 74.8127 40.4563C74.7982 40.1756 74.7176 39.903 74.5781 39.6629C74.3568 39.3416 73.9652 39.2107 73.6001 39.1056C71.7764 38.5799 68.7081 37.4295 66.8182 37.8698C65.1157 38.2784 65.9556 42.0352 65.984 43.5347Z" fill="#CC9494"/>
<path opacity="0.1" d="M65.984 43.5347C66.0179 44.1384 65.9843 44.7442 65.8837 45.3397C65.5053 47.1824 63.9049 48.4479 62.3556 49.4079C60.8063 50.3679 59.1037 51.2763 58.1825 52.8969C57.072 54.8546 57.4258 57.4867 58.7292 59.3155C60.0326 61.1443 62.0983 62.2332 64.2246 62.6875C68.1027 63.5265 72.3496 62.3483 75.2572 59.5317C78.1648 56.7151 79.6233 52.3137 78.9102 48.2257C77.3325 48.4578 75.9269 46.9979 75.4161 45.4151C74.9054 43.8323 75.0113 42.1165 74.8127 40.4563C74.7982 40.1756 74.7176 39.903 74.5781 39.6629C74.3568 39.3416 73.9652 39.2107 73.6001 39.1056C71.7764 38.5799 68.7081 37.4295 66.8182 37.8698C65.1157 38.2784 65.9556 42.0352 65.984 43.5347Z" fill="#CC9494"/>
<path d="M89.3464 33.376C90.7274 31.1204 92.6188 28.9023 92.5006 26.2651C92.4575 25.3253 92.1497 24.4061 91.9152 23.485C91.243 20.8194 91.1987 18.0336 91.7857 15.3478C94.1061 14.9744 96.481 15.5073 98.4207 16.8366C99.0343 17.2614 99.6159 17.7896 99.8861 18.4869C100.136 19.1298 100.094 19.8459 100.049 20.5339C99.9462 22.1147 99.8055 23.8008 98.8335 25.0452C98.5314 25.4343 98.1598 25.7632 97.8653 26.1561C97.4356 26.72 97.1841 27.408 96.9383 28.079L93.7484 36.7726C92.1385 41.1542 90.3934 45.7369 86.847 48.7689C86.7607 48.8422 84.2201 45.2275 84.0099 44.8647C83.1599 43.3779 83.5314 42.7501 84.5597 41.5057C86.5881 39.0452 87.6895 36.0772 89.3464 33.376Z" fill="#CC9494"/>
<path fill-rule="evenodd" clip-rule="evenodd" d="M51.0576 99.5658C49.9831 92.8618 49.1186 87.4684 49.2907 86.3486C49.2907 86.3486 79.1836 88.7629 82.8783 91.2566C86.2999 100.653 86.7718 111.504 85.7582 122.517C82.7317 122.522 79.7075 122.718 76.8541 123.242C76.3137 123.341 75.7802 123.453 75.2536 123.577C74.5856 123.734 73.9301 123.912 73.2871 124.113C72.8609 124.251 72.4375 124.397 72.0172 124.551C72.3612 121.357 72.5893 118.977 72.6343 117.919C72.1828 120.386 71.4613 122.79 70.5308 125.135C69.7555 125.46 68.9919 125.813 68.2414 126.194C67.9206 126.351 67.6035 126.511 67.2863 126.673C66.8467 126.897 66.4096 127.124 65.9727 127.35C65.4212 127.636 64.87 127.922 64.3141 128.203C62.5209 129.143 60.6547 129.936 58.7337 130.575C57.6815 130.908 56.6115 131.182 55.5288 131.395C54.8917 131.523 54.2455 131.633 53.5921 131.728C53.727 131.61 53.8555 131.506 53.9773 131.418C55.7192 128.65 53.0333 111.892 51.0576 99.5658ZM34.8496 158.979C35.7473 160.752 38.6783 165.644 42.9795 163.9C44.2164 161.963 45.6691 159.987 47.257 157.966L34.8496 158.979ZM68.2595 156.251C67.2496 164.431 66.4651 170.639 66.4651 170.639C66.4651 170.639 66.0291 170.744 75.0427 173.165C75.7895 170.015 76.6887 166.55 77.6487 162.851C78.2756 160.436 78.9284 157.92 79.5816 155.327L68.2595 156.251Z" fill="#494949"/>
<path d="M70.6447 43.9223C75.1623 43.9223 78.8246 39.9227 78.8246 34.989C78.8246 30.0553 75.1623 26.0557 70.6447 26.0557C66.1271 26.0557 62.4648 30.0553 62.4648 34.989C62.4648 39.9227 66.1271 43.9223 70.6447 43.9223Z" fill="#FFB9B9"/>
<path d="M79.3399 28.3979C79.1674 27.8478 78.803 27.3841 78.3181 27.0974C78.3434 26.5167 78.2704 25.9358 78.1024 25.3812C77.5403 23.7609 76.2087 23.8537 74.9523 23.1374C74.4072 22.8266 74.4409 22.5519 74.1572 22.0414C73.7762 21.3631 73.2193 20.809 72.5497 20.4422C71.7748 19.8724 70.8799 19.5022 69.9393 19.3623C67.9354 19.2292 66.399 21.067 64.4838 21.6568C63.6395 21.9168 62.7324 21.9275 61.8838 22.1733C61.0351 22.4191 60.1884 23.0059 60.0619 23.8603C60.0035 24.2547 60.1066 24.6594 60.0473 25.0537C59.9296 25.8374 59.2244 26.3863 58.7523 27.0309C57.7084 28.4565 57.8278 30.4703 58.6627 32.0213C58.8394 32.3436 59.0407 32.6507 59.2646 32.9398C59.3355 33.677 59.5518 34.3912 59.9002 35.0381C60.735 36.5891 62.1715 37.7481 63.6722 38.711C63.5494 38.1976 63.4749 37.6731 63.4496 37.1448C63.4284 36.9686 63.452 36.7898 63.5179 36.6259C63.685 36.2852 64.1266 36.1946 64.4633 36.0081C64.7844 35.7895 65.0447 35.4878 65.2185 35.1329C65.3923 34.778 65.4736 34.3821 65.4543 33.9846C65.4745 33.2028 65.3045 32.4196 65.3885 31.6419C65.3931 31.4605 65.4356 31.2824 65.5132 31.1198C65.5908 30.9572 65.7016 30.814 65.8379 30.7002C66.098 30.5564 66.3908 30.4883 66.6852 30.5032C68.1141 30.4464 69.607 30.4208 70.8673 29.7619C71.2763 29.4974 71.713 29.282 72.169 29.1199C73.2401 28.8475 74.3347 29.5795 74.952 30.4754C75.5693 31.3713 75.8771 32.4374 76.4466 33.3629C77.0161 34.2884 78 35.1137 79.1012 35.004C79.1624 35.0045 79.2232 34.9922 79.2797 34.9677C79.3362 34.9431 79.3874 34.907 79.43 34.8615C79.4773 34.7792 79.4985 34.6837 79.4906 34.5883L79.5521 30.484C79.6032 29.7811 79.5313 29.0744 79.3399 28.3979Z" fill="#494949"/>
<path d="M73.1237 53.8238C74.0619 52.2204 74.8838 50.2185 76.6889 49.773C77.7078 49.5192 78.7679 49.8651 79.7606 50.2053C80.0482 50.2735 80.3092 50.4252 80.5111 50.6414C80.6578 50.8745 80.7364 51.1441 80.7382 51.4196C81.0524 54.7335 81.0417 58.0702 80.7063 61.382C80.468 63.726 80.0664 66.0587 79.9951 68.414C79.8957 71.679 80.4323 74.9441 80.2559 78.2053C80.1227 80.6772 79.5823 83.1057 79.0457 85.5211L76.794 95.6339C76.7537 95.9468 76.6284 96.2427 76.4318 96.4892C76.2419 96.6636 76.0147 96.7922 75.7676 96.8651C72.5083 98.0193 69.0437 98.4759 65.5974 98.2056C62.1511 97.9352 58.7996 96.9439 55.7595 95.2956C54.947 94.8482 54.1364 94.3313 53.6072 93.5681C52.8567 92.4854 52.7873 91.0531 53.0312 89.7561C53.2751 88.4591 53.8024 87.2354 54.157 85.9629C54.7049 83.9892 54.8344 81.929 54.9583 79.8839C55.1234 77.1922 55.2885 74.4835 55.0014 71.8012C54.8044 69.9535 54.3935 68.1339 54.0839 66.3012C53.6278 63.539 53.3633 60.7485 53.292 57.9497C53.2451 56.2786 53.322 54.4234 54.476 53.2185C55.0389 52.632 55.7895 52.2786 56.5532 51.9929C57.8348 51.5192 59.2665 51.2411 60.5612 51.6734C61.8559 52.1057 62.8992 53.4666 62.5933 54.7993C62.4526 55.4177 62.0529 55.9591 61.9554 56.5869C61.8259 57.4177 62.265 58.2542 62.8936 58.8162C66.2749 61.8764 71.4368 56.726 73.1237 53.8238Z" fill="#8BC63E"/>
<path d="M73.1588 46.479C74.1856 46.1 75.3016 46.0346 76.3656 46.291C77.0429 46.4526 77.7747 46.7384 78.3996 46.4357C78.6266 46.3267 78.8143 46.1481 79.0432 46.0466C79.6624 45.7741 80.4655 46.1087 81.0134 45.712C81.3587 45.462 81.4712 45.0072 81.5876 44.5936C82.151 42.6197 89.8736 28.33 92.5698 27.4307C92.5698 28.33 91.3406 29.2293 92.1204 30.1289C92.5539 30.6289 93.1619 30.9428 93.7773 31.1871C94.6611 31.5387 93.8841 31.6694 94.8166 31.4776C95.7492 31.2859 96.0165 30.6207 96.1647 29.679C97.5128 31.028 90.5268 45.7703 90.1496 47.1369C90.007 47.6481 90.0201 48.1914 89.9207 48.7139C89.6674 50.0485 88.716 51.1199 87.8848 52.1951C85.2299 55.6534 83.5339 59.7528 82.9686 64.0786C82.9302 64.5919 82.8229 65.0977 82.6496 65.5824C82.4657 65.9541 82.2576 66.3132 82.0267 66.6576C80.6513 68.9846 81.0753 71.9207 81.5425 74.5786C82.2725 78.7421 83.0005 82.8211 84.1826 86.8793C84.3853 87.5729 84.6142 88.2966 85.1302 88.8023C84.967 90.4433 83.3139 91.1914 81.8278 91.9C80.3604 92.601 79.0068 93.5191 77.8123 94.6237C77.3844 95.0184 76.9622 95.4621 76.8065 96.0241C76.6601 96.5523 76.7652 97.1331 76.5776 97.6463C76.3899 98.1594 75.6394 98.5278 75.3091 98.0955C74.8963 96.5485 75.6019 94.9301 75.57 93.3286C75.5474 92.2478 75.1947 91.197 75.144 90.1162C75.0952 88.8925 74.7612 88.041 75.144 86.8793C73.7223 83.4304 73.6014 84.2328 73.971 80.8475C72.6342 77.7208 72.1886 73.7008 72.1886 70.5741C69.3421 67.6944 71.4156 60.4226 68.3646 57.7778C67.8805 57.3587 67.3325 56.838 67.4132 56.2027C67.469 55.9229 67.592 55.6609 67.7716 55.4395C68.8187 53.9583 70.211 52.7496 71.3368 51.3323C72.4626 49.9151 73.3633 48.2835 73.1588 46.479Z" fill="#4B6E82"/>
<path d="M155.312 49.1554L179.471 54.0873L181.889 42.2263C182.551 39.0247 181.907 35.6877 180.097 32.9396C179.215 31.5876 178.069 30.4227 176.726 29.5138C175.383 28.6048 173.871 27.9702 172.279 27.6475C169.099 27.0043 165.797 27.6226 163.087 29.3687C160.378 31.1148 158.478 33.8483 157.799 36.9783C157.775 37.0866 157.752 37.1894 157.731 37.2944L155.312 49.1554Z" fill="#494949"/>
<path d="M163.309 49.9458C163.317 50.321 163.249 50.694 163.108 51.0417C162.522 52.2917 160.73 52.2128 159.543 52.9214C158.064 53.8049 157.738 55.7767 157.602 57.4947C157.449 59.4402 157.344 61.4139 157.741 63.3218C158.139 65.2297 159.096 67.0906 160.695 68.209C162.641 69.5643 165.286 69.6113 167.508 68.7861C169.73 67.9609 171.585 66.365 173.195 64.6207C174.723 62.9665 176.091 61.1225 176.911 59.0229C177.055 58.647 177.183 58.2485 177.066 57.8725C176.892 57.3086 176.278 57.053 175.779 56.7447C174.614 56.0398 173.837 54.8105 173.434 53.5116C173.03 52.2128 172.963 50.8312 172.95 49.4684C172.935 48.053 172.931 46.506 172.03 45.4139C171.129 44.3218 169.568 44.0154 168.146 44.0267C166.983 44.0267 163.763 44.1376 162.969 45.1545C162.318 46.0003 163.356 48.7353 163.309 49.9458Z" fill="#FFB9B9"/>
<path opacity="0.1" d="M163.309 49.9458C163.317 50.321 163.249 50.694 163.108 51.0417C162.522 52.2917 160.73 52.2128 159.543 52.9214C158.064 53.8049 157.738 55.7767 157.602 57.4947C157.449 59.4402 157.344 61.4139 157.741 63.3218C158.139 65.2297 159.096 67.0906 160.695 68.209C162.641 69.5643 165.286 69.6113 167.508 68.7861C169.73 67.9609 171.585 66.365 173.195 64.6207C174.723 62.9665 176.091 61.1225 176.911 59.0229C177.055 58.647 177.183 58.2485 177.066 57.8725C176.892 57.3086 176.278 57.053 175.779 56.7447C174.614 56.0398 173.837 54.8105 173.434 53.5116C173.03 52.2128 172.963 50.8312 172.95 49.4684C172.935 48.053 172.931 46.506 172.03 45.4139C171.129 44.3218 169.568 44.0154 168.146 44.0267C166.983 44.0267 163.763 44.1376 162.969 45.1545C162.318 46.0003 163.356 48.7353 163.309 49.9458Z" fill="#FFB9B9"/>
<path d="M136.614 35.4795C132.739 31.7201 128.335 28.5341 123.83 25.5547C122.658 24.8182 121.53 24.0129 120.452 23.1431C119.327 22.2032 118.345 21.0998 117.15 20.254C115.955 19.4081 114.476 18.8273 113.041 19.1055C111.605 19.3837 110.329 20.7596 110.539 22.1995C110.727 23.4664 111.864 24.3348 112.915 25.0623C114.904 26.4401 116.902 27.8217 119.066 28.9025C119.817 29.2438 120.546 29.633 121.248 30.0679C122.595 30.9777 123.577 32.3235 124.596 33.5886C128.441 38.3738 133.152 42.3911 138.481 45.4307C138.545 45.4683 140.765 40.6694 140.671 40.0472C140.464 38.6168 137.635 36.472 136.614 35.4795Z" fill="#FFB9B9"/>
<path d="M178.789 172.528L172.717 171.528L167.796 121.424L150.286 170.653L143.67 170.538L154.125 109.438L153.697 95.3576L172.7 90.3021C185.51 100.27 183.655 133.213 178.789 172.528Z" fill="#494949"/>
<path d="M172.446 57.5452L172.287 57.634C170.392 58.6908 168.798 59.4489 167.208 59.3966C165.579 59.343 164.075 58.4506 162.319 56.554L162.21 56.4371L162.19 56.2791C162.026 55.0283 161.314 53.8632 160.259 53.4704L160.259 53.4701C160.025 53.3827 159.772 53.331 159.476 53.2748C159.457 53.2711 159.437 53.2674 159.417 53.2637C159.148 53.2129 158.842 53.155 158.544 53.0558C157.657 52.7683 156.956 52.1892 156.337 51.6279C156.217 51.5191 156.1 51.4114 155.986 51.3057C155.487 50.8449 155.029 50.4217 154.501 50.1026C154.018 49.8107 153.488 49.6128 152.911 49.3977C152.705 49.3209 152.493 49.242 152.276 49.1558C151.487 48.843 150.653 48.4414 150.053 47.6873C149.867 47.4545 149.715 47.1979 149.583 46.9759C149.566 46.9479 149.55 46.9204 149.534 46.8936C149.383 46.6411 149.251 46.4339 149.092 46.2626C148.923 46.0837 148.455 45.6865 147.792 45.1541C147.142 44.6317 146.337 44.0045 145.527 43.3792C144.751 42.7807 143.967 42.1816 143.311 41.6808C142.604 41.1406 142.046 40.7147 141.81 40.5272L141.802 40.5209L141.795 40.5143C141.348 40.1286 140.969 39.671 140.673 39.1604C140.611 39.0643 140.462 38.8766 140.221 38.5987C139.981 38.323 139.67 37.9814 139.31 37.5944C138.59 36.8208 137.682 35.8759 136.765 34.9327C135.979 34.1238 135.184 33.3132 134.499 32.6155C133.596 31.6948 132.886 30.9708 132.644 30.7071L132.636 30.6989L132.636 30.6988C132.295 30.3094 131.858 30.0148 131.37 29.8435C131.013 29.7183 130.638 29.662 130.263 29.6759C130.263 30.7907 130.206 32.017 129.678 33.1141C129.078 34.3591 127.666 35.4764 126.139 35.1412L126.137 35.1409C125.982 35.1062 125.81 35.0506 125.671 35.0056C125.617 34.9881 125.568 34.9722 125.526 34.9598C125.351 34.907 125.225 34.8832 125.114 34.889L172.446 57.5452ZM172.446 57.5452L172.511 57.3749M172.446 57.5452L172.511 57.3749M172.511 57.3749C172.693 56.8937 173.031 56.4872 173.469 56.2194C173.906 55.9528 174.418 55.8386 174.926 55.8945C175.552 55.9842 176.132 56.3313 176.788 56.7416C176.788 56.7416 176.788 56.7416 176.788 56.7416L180.372 58.9822L180.372 58.9823L180.381 58.9877C180.954 59.3294 181.504 59.7087 182.028 60.1232C184.339 62.0461 185.273 65.2484 185.541 68.4088C185.642 69.592 185.667 70.7775 185.692 71.9805C185.701 72.3877 185.709 72.7968 185.721 73.2086C185.764 74.7257 185.847 76.2624 186.128 77.7852C185.454 78.3304 184.749 78.8433 184.03 79.3649L184.017 79.3745C183.226 79.9489 182.42 80.5342 181.654 81.1694C181.654 81.1695 181.654 81.1695 181.654 81.1695L181.627 81.1917L181.946 81.5768M172.511 57.3749L181.946 81.5768M179.373 83.4235C179.138 83.75 178.936 84.0967 178.748 84.4196C178.731 84.4475 178.715 84.4752 178.699 84.5027C178.492 84.856 178.298 85.1801 178.073 85.4732L179.373 83.4225C179.373 83.4229 179.373 83.4232 179.373 83.4235ZM179.373 83.4235C180.005 82.5359 180.837 81.8465 181.605 81.2104M179.373 83.4235L181.605 81.2104M127.918 38.4234L128.047 38.5659C129.06 39.6883 131.025 41.4611 133.05 43.2262C134.089 44.1315 135.149 45.0394 136.089 45.845C136.961 46.5917 137.73 47.2507 138.285 47.7386L138.285 47.7387C138.678 48.084 140.753 50.1368 142.783 52.1857C143.802 53.2147 144.817 54.2499 145.614 55.08C146.012 55.4949 146.357 55.8602 146.622 56.1488C146.877 56.4265 147.081 56.659 147.176 56.7943L147.182 56.8029L147.188 56.8116C147.662 57.5548 148.055 58.3476 148.358 59.1759C148.527 59.5844 148.718 59.9622 148.919 60.3584C149.049 60.6158 149.183 60.8809 149.318 61.1673C149.644 61.8612 149.936 62.6167 149.997 63.4463L149.498 63.483L149.997 63.4463C150.116 65.0581 149.631 66.6774 149.184 68.1717C149.112 68.4115 149.041 68.6482 148.974 68.881C148.472 70.6204 148.158 72.1735 148.744 73.6351C148.887 73.9906 149.076 74.3204 149.284 74.683C149.347 74.7923 149.411 74.9045 149.476 75.0214C149.746 75.5042 150.02 76.0481 150.129 76.6682C150.213 77.1361 150.191 77.593 150.138 78.0182C150.107 78.264 150.061 78.5334 150.018 78.7865C149.99 78.9448 149.964 79.0966 149.944 79.2323L149.944 79.2329C149.51 82.09 150.262 84.9979 151.047 87.923L151.047 87.923C151.181 88.4239 151.389 88.9252 151.672 89.3174C151.954 89.7078 152.286 89.96 152.672 90.0406L153.043 90.118L153.069 90.4963L153.181 92.1587C153.219 92.5972 153.234 93.0375 153.225 93.4776L153.225 93.4854H153.225C153.203 94.124 153.086 94.7824 152.977 95.3954C152.936 95.6225 152.897 95.8434 152.864 96.0547C152.737 96.8707 152.689 97.6036 152.893 98.2953C152.985 98.6001 153.103 98.7327 153.188 98.7671C153.276 98.79 153.369 98.7919 153.459 98.7725L153.541 98.7546L153.626 98.765L161.833 99.7791L161.883 99.7852L161.93 99.801C165.646 101.04 167.872 102.285 170.269 103.625C170.514 103.762 170.76 103.9 171.01 104.038L171.048 104.06L171.082 104.087L175.862 107.969L175.863 107.97C176.494 108.486 177.129 108.996 177.784 109.466L127.918 38.4234ZM127.918 38.4234L127.727 38.4036M127.918 38.4234L127.727 38.4036M127.727 38.4036C126.772 38.3044 125.876 37.8932 125.177 37.2333C124.727 36.8063 124.427 36.3049 124.417 35.8142C124.413 35.5934 124.494 35.3545 124.637 35.1714M127.727 38.4036L124.637 35.1714M181.946 81.5768L181.627 81.1917M181.946 81.5768L181.627 81.1917M124.637 35.1714C124.778 34.9899 124.95 34.8977 125.114 34.889L124.637 35.1714ZM181.627 81.1917L181.605 81.2104M181.627 81.1917L181.605 81.2104" fill="#121212" stroke="#121212"/>
<path d="M186.854 121.116C186.595 122.836 185.65 124.528 184.102 125.316C183.173 125.774 182.102 125.848 181.12 125.522C180.441 125.311 179.856 124.871 179.463 124.278C179.26 123.956 179.11 123.604 179.018 123.235C179.018 123.216 179.009 123.195 179.005 123.177C178.864 122.511 178.806 121.832 178.831 121.152C178.83 120.097 178.893 119.043 179.018 117.996C179.123 117.114 179.296 116.242 179.536 115.387C179.885 114.167 180.388 112.992 180.85 111.816C181.09 111.195 181.321 110.573 181.51 109.936C181.625 109.56 181.722 109.173 181.801 108.782L181.829 108.641C181.844 108.562 181.858 108.483 181.871 108.404C182.058 107.333 182.113 106.224 182.595 105.256C183.721 102.983 185.912 103.564 186.246 105.66C186.272 105.822 186.286 105.986 186.29 106.15C186.34 108.803 185.289 111.395 185.77 114.056C185.905 114.705 186.076 115.347 186.28 115.977C186.449 116.558 186.601 117.146 186.717 117.742C186.953 118.851 186.999 119.992 186.854 121.116Z" fill="#FFB9B9"/>
<path d="M49.357 105.75C49.1274 107.232 48.2892 108.689 46.9171 109.367C46.0944 109.762 45.1451 109.826 44.2743 109.545C43.6728 109.363 43.1542 108.985 42.8057 108.474C42.6258 108.196 42.4927 107.893 42.4116 107.575C42.4116 107.559 42.4033 107.541 42.3999 107.525C42.2749 106.952 42.223 106.366 42.2452 105.781C42.2449 104.872 42.3004 103.964 42.4116 103.062C42.5044 102.302 42.6578 101.551 42.8706 100.815C43.18 99.7637 43.6257 98.7516 44.0348 97.738C44.2477 97.2036 44.4523 96.6677 44.6203 96.1188C44.7217 95.7949 44.8082 95.4614 44.878 95.1246L44.903 95.0031C44.9163 94.9351 44.9279 94.8671 44.9396 94.7991C45.1059 93.8761 45.1541 92.9208 45.5816 92.0869C46.5795 90.1292 48.5221 90.6295 48.8181 92.435C48.8405 92.5749 48.8533 92.7161 48.8564 92.8576C48.9013 95.1424 47.9699 97.3753 48.3957 99.6681C48.5157 100.227 48.6668 100.78 48.848 101.323C48.9977 101.823 49.1324 102.33 49.2356 102.843C49.4444 103.799 49.4855 104.781 49.357 105.75Z" fill="#BE6F72"/>
<path d="M186.888 103.831L186.888 103.831C186.956 103.02 187.104 102.059 187.258 101.068C187.349 100.478 187.442 99.8777 187.52 99.2924C187.737 97.6786 187.85 96.1447 187.614 94.9757C187.446 94.1543 187.428 93.2935 187.411 92.4882C187.405 92.1995 187.4 91.9178 187.387 91.6477M186.888 103.831L177.771 88.1513C177.698 85.6138 177.885 83.0514 179.291 81.1553C179.833 80.4248 180.5 79.7544 181.209 79.0762C181.35 78.9406 181.494 78.8044 181.639 78.6672C182.209 78.1275 182.793 77.5739 183.32 76.9945L183.32 76.9943L183.34 76.9725C183.537 76.7546 183.681 76.5959 183.808 76.478C183.939 76.3548 184.007 76.3209 184.036 76.3117C184.036 76.3116 184.036 76.3114 184.037 76.3112C184.043 76.3088 184.061 76.3019 184.125 76.3284C184.213 76.3646 184.347 76.4487 184.558 76.6265L184.558 76.627C184.907 76.9209 185.252 77.2611 185.515 77.6156C185.783 77.9756 185.938 78.3122 185.966 78.6039L185.966 78.6039L185.967 78.607C186.058 79.482 186.074 80.3491 186.089 81.2433C186.092 81.4194 186.095 81.5965 186.099 81.775C186.121 82.8491 186.165 83.9583 186.374 85.0944C186.461 85.5693 186.552 86.0401 186.643 86.5083C186.978 88.2298 187.306 89.9169 187.387 91.6477M186.888 103.831L186.887 103.836M186.888 103.831L186.887 103.836M187.387 91.6477L187.886 91.6245M187.387 91.6477C187.387 91.6478 187.387 91.6478 187.387 91.6478L187.886 91.6245M187.886 91.6245C187.9 91.9223 187.907 92.2211 187.913 92.5199C187.929 93.3112 187.946 94.1027 188.104 94.8763L186.589 81.2403C186.611 82.4841 186.632 83.7314 186.866 85.0041C186.951 85.4672 187.041 85.9301 187.131 86.3936C187.466 88.1201 187.804 89.8536 187.886 91.6245ZM186.887 103.836C186.581 108.058 186.381 110.435 186.192 111.796C186.096 112.481 186.007 112.872 185.923 113.102C185.847 113.31 185.795 113.329 185.792 113.33L185.792 113.33L185.791 113.33M186.887 103.836L185.791 113.33M185.791 113.33L181.853 115.566C181.257 115.868 180.426 115.709 179.879 115.205C179.341 114.707 179.077 113.898 179.124 113.089L179.124 113.089M185.791 113.33L179.124 113.089M179.124 113.089C179.141 112.783 179.199 112.474 179.272 112.141C179.29 112.057 179.31 111.97 179.33 111.881C179.387 111.63 179.448 111.362 179.493 111.099C179.605 110.448 179.771 107.839 179.895 105.287C179.958 103.999 180.01 102.71 180.04 101.664C180.069 100.634 180.078 99.8021 180.048 99.4576L180.047 99.4573M179.124 113.089L180.047 99.4573M180.047 99.4573C179.885 97.6609 179.713 95.7707 179.097 93.9911C178.976 93.6413 178.838 93.297 178.705 92.966C178.679 92.9013 178.654 92.8371 178.628 92.7734C178.471 92.3784 178.325 91.9986 178.211 91.6125L178.211 91.6115M180.047 99.4573L178.211 91.6115M178.211 91.6115C177.885 90.5186 177.807 89.3546 177.771 88.1514L178.211 91.6115Z" fill="#121212" stroke="#121212"/>
<path d="M168.064 49.4631C173.027 49.4631 177.051 45.4367 177.051 40.4699C177.051 35.503 173.027 31.4766 168.064 31.4766C163.1 31.4766 159.076 35.503 159.076 40.4699C159.076 45.4367 163.1 49.4631 168.064 49.4631Z" fill="#FFB9B9"/>
<path d="M179.715 34.24L176.1 40.6628L157.028 36.4235C157.584 34.0316 158.892 31.8765 160.768 30.2592C162.645 28.642 164.997 27.6433 167.496 27.4029C169.995 27.1624 172.516 27.692 174.706 28.9178C176.897 30.1436 178.648 32.0043 179.715 34.24L179.715 34.24Z" fill="#494949"/>
<g opacity="0.2">
<path opacity="0.2" d="M102.506 123.33L102.506 123.33L102.506 123.337C102.506 123.352 102.505 123.366 102.505 123.381C101.513 123.227 100.517 123.085 99.5176 122.954C99.5659 122.581 99.6923 122.222 99.8897 121.9C100.209 121.395 100.647 121.146 101.07 121.16C101.494 121.173 101.915 121.449 102.202 121.97C102.422 122.388 102.527 122.858 102.506 123.33Z" fill="#121212" stroke="#121212"/>
<path opacity="0.2" d="M101.172 117.947C101.537 117.958 101.896 118.163 102.175 118.553C102.454 118.944 102.631 119.499 102.611 120.127C102.592 120.754 102.38 121.297 102.077 121.669C101.774 122.041 101.402 122.223 101.037 122.211C100.672 122.2 100.312 121.995 100.034 121.605C99.7547 121.214 99.5776 120.658 99.5974 120.031C99.6172 119.404 99.8289 118.861 100.132 118.488C100.435 118.116 100.807 117.935 101.172 117.947Z" fill="#121212" stroke="#121212"/>
<path opacity="0.2" d="M101.274 114.728C101.639 114.739 101.999 114.944 102.278 115.334C102.557 115.725 102.734 116.281 102.714 116.908C102.694 117.535 102.482 118.078 102.179 118.451C101.877 118.823 101.505 119.004 101.14 118.992C100.775 118.981 100.415 118.776 100.136 118.386C99.8573 117.995 99.6802 117.44 99.7 116.812C99.7198 116.185 99.9315 115.642 100.235 115.27C100.537 114.897 100.909 114.716 101.274 114.728Z" fill="#121212" stroke="#121212"/>
<path opacity="0.2" d="M101.375 111.51C101.74 111.522 102.1 111.726 102.378 112.117C102.657 112.507 102.834 113.063 102.815 113.69C102.795 114.317 102.583 114.86 102.28 115.233C101.977 115.605 101.605 115.786 101.24 115.775C100.875 115.763 100.516 115.559 100.237 115.168C99.9579 114.777 99.7808 114.222 99.8006 113.595C99.8203 112.967 100.032 112.424 100.335 112.052C100.638 111.68 101.01 111.498 101.375 111.51Z" fill="#121212" stroke="#121212"/>
<path opacity="0.2" d="M101.477 108.292C101.842 108.304 102.202 108.508 102.481 108.899C102.76 109.29 102.937 109.845 102.917 110.472C102.897 111.099 102.686 111.643 102.383 112.015C102.08 112.387 101.708 112.568 101.343 112.557C100.978 112.545 100.618 112.341 100.339 111.95C100.06 111.559 99.8833 111.004 99.9031 110.377C99.9229 109.75 100.135 109.207 100.438 108.834C100.74 108.462 101.112 108.281 101.477 108.292Z" fill="#121212" stroke="#121212"/>
<path opacity="0.2" d="M94.8123 88.6567H95.5705L94.9831 87.86C94.8786 87.7182 94.7783 87.5733 94.6824 87.4255L99.2359 86.8235L99.1824 85.8279L93.8039 85.6986C93.4001 84.6365 93.1967 83.5073 93.2054 82.3688C93.2135 81.3079 93.4055 80.2579 93.7715 79.2653L100.804 83.2075L101.358 82.3783L94.8214 77.2399C95.4466 76.3292 96.2323 75.5387 97.141 74.9078C98.1717 74.1922 99.3386 73.6972 100.569 73.4536C101.799 73.2101 103.066 73.2233 104.291 73.4923C105.516 73.7614 106.672 74.2806 107.688 75.0175C108.703 75.7544 109.557 76.6933 110.194 77.7754C110.831 78.8576 111.239 80.0598 111.391 81.3069C111.544 82.5541 111.438 83.8194 111.081 85.0238C110.724 86.2282 110.122 87.3458 109.314 88.3068L109.061 88.6082L109.295 88.9252C109.588 89.3234 109.848 89.7448 110.073 90.1851L103.562 93.3151L103.923 94.2445L110.812 92.1688C111.132 93.4814 111.158 94.8508 110.887 96.1786C110.582 97.6697 109.91 99.061 108.933 100.226L108.681 100.528L108.913 100.844C109.929 102.225 110.537 103.864 110.666 105.575C110.796 107.285 110.443 108.998 109.646 110.516C108.85 112.035 107.644 113.298 106.165 114.162C104.686 115.026 102.994 115.455 101.283 115.401C99.572 115.347 97.9106 114.812 96.4888 113.856C95.0671 112.901 93.9423 111.564 93.2432 109.998C92.5441 108.432 92.2991 106.701 92.536 105.002C92.773 103.303 93.4824 101.705 94.5831 100.391L94.8352 100.09L94.6026 99.774C93.3889 98.1239 92.7641 96.113 92.8286 94.0642C92.8907 92.0925 93.5878 90.1961 94.8123 88.6567Z" fill="#121212" stroke="#121212"/>
<path opacity="0.1" d="M111.568 94.6574C111.502 96.8193 110.709 98.8954 109.316 100.548C110.388 102.005 111.028 103.734 111.165 105.537C111.302 107.341 110.929 109.147 110.089 110.749C109.25 112.351 107.977 113.683 106.417 114.594C104.857 115.506 103.072 115.959 101.267 115.902C99.4622 115.845 97.7096 115.28 96.2099 114.272C94.7102 113.264 93.5239 111.854 92.7866 110.202C92.0494 108.551 91.7909 106.725 92.0408 104.933C92.2907 103.142 93.0389 101.457 94.1998 100.071C92.967 98.3923 111.602 93.5765 111.568 94.6574Z" fill="#121212"/>
</g>
<path d="M64.3232 48.0176C64.3232 48.0176 62.6747 50.1573 61.3487 52.112C57.3464 58.0121 61.1857 63.914 60.6016 71.0209C59.7518 81.3601 70.0444 102.976 59.7654 101.626C55.468 101.061 49.8793 91.2828 49.8793 91.2828L48.5312 99.8264H42.6895C42.6896 85.8874 43.7916 73.6621 46.1044 63.2787C47.434 57.3092 50.938 53.2287 52.797 51.3676C57.1204 49.2618 59.6385 48.5029 64.3232 48.0176Z" fill="#4B6E82"/>
<path opacity="0.2" d="M51.2277 71.9458C50.2806 79.279 49.9062 83.4546 49.8796 91.2813C52.057 93.4947 53.3383 94.5474 55.7214 95.778C53.4746 93.08 50.6801 79.1702 51.2277 71.9458Z" fill="#121212"/>
<path d="M121.948 9.78012L112.691 8.43594C112.31 8.38071 111.958 8.64381 111.903 9.02359L109.336 26.8134C109.281 27.1932 109.545 27.5458 109.926 27.6011L119.183 28.9452C119.563 29.0005 119.916 28.7374 119.971 28.3576L122.537 10.5678C122.592 10.188 122.328 9.83535 121.948 9.78012Z" fill="#494949"/>
<path d="M118.943 27.1142C118.929 27.2115 118.881 27.2999 118.809 27.3598C118.737 27.4197 118.647 27.4463 118.559 27.4337L110.946 26.3303C110.859 26.3175 110.78 26.2665 110.728 26.1886C110.676 26.1108 110.655 26.0123 110.669 25.915L111.027 23.4346L112.961 10.0605C112.975 9.96314 113.023 9.87479 113.095 9.81486C113.167 9.75493 113.257 9.72834 113.344 9.74092L114.937 9.97184C114.935 10.1603 114.994 10.3413 115.104 10.4821C115.214 10.6229 115.367 10.7143 115.535 10.7397L118.544 11.1758C118.713 11.2 118.886 11.1562 119.031 11.0523C119.177 10.9485 119.286 10.7915 119.338 10.6098L120.955 10.8442C121.043 10.857 121.121 10.9079 121.173 10.9858C121.225 11.0637 121.247 11.1621 121.233 11.2595L119.298 24.6562L118.943 27.1142Z" fill="white"/>
<path d="M118.263 9.94206L116.001 9.64303C115.971 9.63901 115.943 9.66034 115.939 9.69069L115.934 9.7286C115.93 9.75895 115.952 9.78682 115.982 9.79084L118.244 10.0899C118.274 10.0939 118.302 10.0726 118.306 10.0422L118.311 10.0043C118.315 9.97395 118.294 9.94608 118.263 9.94206Z" fill="white"/>
<path d="M118.803 10.1635C118.852 10.17 118.898 10.1355 118.904 10.0863C118.911 10.0371 118.876 9.99197 118.827 9.98545C118.777 9.97892 118.732 10.0135 118.726 10.0627C118.719 10.1118 118.754 10.157 118.803 10.1635Z" fill="white"/>
<rect width="8.38877" height="4.79568" rx="1" transform="matrix(0.989311 0.145818 -0.145499 0.989358 111.453 20.3486)" fill="#8BC63E"/>
<path d="M98.7273 1.97878L89.6572 4.24906C89.2845 4.34234 89.0578 4.71981 89.1508 5.09214L93.5063 22.5334C93.5993 22.9057 93.9768 23.1319 94.3495 23.0386L103.42 20.7684C103.792 20.6751 104.019 20.2976 103.926 19.9253L99.5705 2.48404C99.4775 2.11171 99.1 1.88549 98.7273 1.97878Z" fill="#494949"/>
<path d="M102.504 19.164C102.528 19.2594 102.517 19.3596 102.473 19.4423C102.429 19.5251 102.356 19.5838 102.27 19.6055L94.8124 21.4742C94.7264 21.4956 94.6345 21.4783 94.5569 21.426C94.4792 21.3737 94.4223 21.2907 94.3985 21.1952L93.792 18.7632L90.521 5.64993C90.4971 5.5545 90.5084 5.45438 90.5523 5.37159C90.5962 5.28879 90.6691 5.2301 90.7551 5.20841L92.3149 4.81771C92.3847 4.9928 92.5081 5.13775 92.6629 5.2264C92.8177 5.31505 92.9937 5.34156 93.1591 5.30114L96.1062 4.56279C96.2717 4.52097 96.4152 4.41472 96.5107 4.26331C96.6062 4.11189 96.6473 3.92532 96.6266 3.73742L98.2108 3.3404C98.2968 3.31896 98.3888 3.3363 98.4664 3.38861C98.544 3.44093 98.601 3.52393 98.6248 3.61939L101.903 16.754L102.504 19.164Z" fill="white"/>
<path d="M95.3773 3.52923L93.171 4.11082C93.1413 4.11865 93.1235 4.14904 93.1313 4.1787L93.1411 4.21576C93.1489 4.24542 93.1793 4.26311 93.209 4.25528L95.4153 3.67369C95.4451 3.66586 95.4628 3.63546 95.455 3.60581L95.4453 3.56875C95.4374 3.53909 95.407 3.5214 95.3773 3.52923Z" fill="white"/>
<path d="M95.9608 3.52973C96.0089 3.51706 96.0376 3.46789 96.0249 3.41991C96.0123 3.37193 95.9631 3.3433 95.9151 3.35597C95.8671 3.36864 95.8384 3.4178 95.851 3.46578C95.8636 3.51377 95.9128 3.54239 95.9608 3.52973Z" fill="white"/>
<rect width="8.38928" height="4.7953" rx="1" transform="matrix(0.970673 -0.240403 0.239952 0.970785 93.0166 15.7441)" fill="#8BC63E"/>
<path d="M116.836 21.1339C117.687 18.7489 122.228 24.7313 122.228 24.7313L121.779 26.98C121.779 26.98 117.456 25.2448 116.836 23.3823C116.558 22.5493 116.541 21.9608 116.836 21.1339Z" fill="#FFB9B9"/>
<path d="M95.359 14.076C97.86 14.4648 93.1119 22.1715 93.1119 22.1715L91.7638 21.7219C91.7638 21.7219 91.7566 15.7987 93.4683 14.8392C94.2338 14.41 94.492 13.9412 95.359 14.076Z" fill="#CC9494"/>
</g>
<defs>
<clipPath id="clip0">
<rect width="213" height="134" fill="white"/>
</clipPath>
</defs>
</svg>
