<svg width="159" height="134" viewBox="0 0 159 134" fill="none" xmlns="http://www.w3.org/2000/svg">
<path d="M76.7226 33.9212L76.7158 33.9666L76.6973 34.098L74.7858 47.8316L63.0815 52.1313L62.8981 52.0435L56.3452 48.9276L52.9568 35.9108L52.7246 35.0172L52.7953 34.99L67.2916 29.5371L76.714 33.9159L76.7226 33.9212Z" fill="#8BC63E"/>
<path d="M62.8981 52.0437L56.3452 48.9278L52.7246 35.0174L52.7953 34.9902L62.2396 38.9796L62.8981 52.0437Z" fill="#8BC63E"/>
<path opacity="0.2" d="M63.0623 51.8844L58.0778 42.3207L58.718 39.6094L55.703 36.0547L55.4463 36.2731L58.351 39.6977L56.1812 48.8884L56.5091 48.9663L57.9594 42.8225L62.7636 52.0404L63.0623 51.8844Z" fill="#121212"/>
<path d="M67.2712 30.079L75.6026 33.9508L62.2395 38.6185L53.3736 35.5266L53.3215 35.3263L67.2712 30.079Z" fill="#121212" stroke="#121212"/>
<path d="M62.4912 39.4031L59.5439 37.1269L60.2176 34.5977L68.6379 31.5625L74.3638 31.8997L76.6374 33.8389L76.8057 34.3446L62.4912 39.4031Z" fill="#8BC63E"/>
<path d="M52.8916 35.0173L59.5436 34.7642L63.1472 33.5396L68.7656 31.5605L69.8165 30.0431L67.1946 29.5732L52.8916 35.0173Z" fill="#8BC63E"/>
<path d="M66.1453 32.3038L62.6768 33.5225L62.7883 33.8406L66.2568 32.6219L66.1453 32.3038Z" fill="#CCCCCC"/>
<path d="M20.4601 12.585L18.834 20.7249L26.4221 26.423L29.9453 15.8409L20.4601 12.585Z" fill="#CC9494"/>
<path d="M26.5564 20.0477C30.5975 20.0477 33.8735 16.7677 33.8735 12.7216C33.8735 8.6755 30.5975 5.39551 26.5564 5.39551C22.5152 5.39551 19.2393 8.6755 19.2393 12.7216C19.2393 16.7677 22.5152 20.0477 26.5564 20.0477Z" fill="#FFB9B9"/>
<path d="M10.7046 68.2315C10.7381 70.5951 21.0198 96.9006 19.5922 100.326C17.3419 102.629 12.5015 114.887 10.4335 118.158C10.1626 118.157 8.80762 122.227 8.80762 122.227C8.80762 122.227 12.0597 127.383 15.5827 125.212C20.0126 114.78 31.1069 108.962 31.3029 95.366C31.8384 99.661 33.4191 127.23 33.4191 127.23C33.4191 127.23 33.1159 127.359 39.9412 128.014C41.0008 112.013 45.3311 84.7907 35.6366 67.6886C32.656 66.3322 10.7046 68.2315 10.7046 68.2315Z" fill="#494949"/>
<path d="M33.4188 126.691C33.102 127.301 30.8298 132.932 32.8975 133.497C35.282 134.148 37.5934 133.236 37.5934 133.236C37.5934 133.236 41.7676 134.542 44.3221 132.882C45.5143 131.688 45.2434 130.603 44.6744 129.816C44.3853 129.429 44.0151 129.109 43.5898 128.879C43.1645 128.65 42.6943 128.516 42.212 128.487C40.9156 128.395 40.504 128.154 40.3555 127.56C40.1387 126.691 33.4188 126.691 33.4188 126.691Z" fill="#494949"/>
<path d="M11.1206 121.777C11.1206 121.777 5.29591 123.619 6.52216 125.768C7.31853 127.099 8.48137 128.173 9.87143 128.86C9.87143 128.86 11.0862 133.874 14.4584 133.874C16.1445 133.874 16.7193 132.915 16.8725 131.956C16.9419 131.477 16.9059 130.989 16.7673 130.525C16.6287 130.062 16.3907 129.634 16.0699 129.273C15.2186 128.289 15.0974 127.828 15.4124 127.302C15.8722 126.535 11.1206 121.777 11.1206 121.777Z" fill="#494949"/>
<path d="M36.9919 69.0242C36.9919 69.0242 35.9066 71.1948 31.5707 70.3799C27.2348 69.5675 10.1625 70.3799 10.1625 70.3799C10.1625 70.3799 11.1095 50.9802 8.94153 39.3122C6.77357 27.6442 15.3097 20.9966 15.3097 20.9966L18.0203 18.2827C20.7309 18.0136 26.4547 26.4349 26.4547 26.4349C28.3383 26.7509 30.0967 34.7673 31.5968 42.3526C31.6855 42.7862 31.7689 43.2146 31.8524 43.643C32.5438 47.1797 33.5064 51.1161 34.083 54.6502C34.1247 54.9009 34.1639 55.149 34.2004 55.3972C34.8858 59.9864 35.8176 64.5354 36.9919 69.0242Z" fill="#4B6E82"/>
<path d="M17.9977 8.15974C17.9977 8.15974 16.6296 5.14635 20.1865 3.77662C20.1865 3.77662 23.1963 -1.15439 29.2157 2.13296C29.2157 2.13296 33.3198 3.77662 33.3198 8.15974C33.3198 12.5429 34.6879 13.3647 34.6879 13.3647C34.6879 13.3647 32.6506 11.2721 32.1034 9.62843C31.5562 7.98477 27.3004 7.61186 25.6588 9.25553C24.0171 10.8992 19.9129 10.6252 19.9129 10.6252L20.1866 16.652C20.1866 16.652 18.8185 13.0908 18.2713 13.0908C17.7241 13.0908 17.1768 8.15974 17.9977 8.15974Z" fill="#494949"/>
<path d="M35.0799 7.5343C34.9253 7.07595 34.5987 6.6896 34.1641 6.45071C34.1868 5.96683 34.1214 5.48285 33.9708 5.0207C33.467 3.67063 32.2736 3.74802 31.1476 3.15114C30.6591 2.89217 30.6893 2.66329 30.435 2.23794C30.0936 1.67277 29.5945 1.21113 28.9943 0.905459C28.2998 0.430727 27.4978 0.122296 26.6548 0.00573123C24.8588 -0.105234 23.4819 1.42607 21.7653 1.91752C21.0087 2.13412 20.1958 2.14305 19.4352 2.34784C18.6746 2.55262 17.9157 3.04159 17.8024 3.75346C17.75 4.08211 17.8424 4.41926 17.7893 4.74782C17.6838 5.40084 17.0518 5.85819 16.6287 6.3953C15.6931 7.58306 15.8001 9.26103 16.5483 10.5534C16.7067 10.8219 16.8871 11.0778 17.0878 11.3187C17.1513 11.9329 17.3452 12.5279 17.6574 13.067C18.4056 14.3593 19.6931 15.325 21.038 16.1273C20.9279 15.6995 20.8611 15.2625 20.8385 14.8223C20.8196 14.6755 20.8406 14.5265 20.8997 14.3899C21.0495 14.1061 21.4452 14.0306 21.747 13.8752C22.0348 13.693 22.2681 13.4417 22.4239 13.1459C22.5797 12.8502 22.6525 12.5204 22.6352 12.1892C22.6533 11.5378 22.5009 10.8852 22.5762 10.2372C22.5803 10.0861 22.6184 9.93766 22.688 9.80218C22.7575 9.6667 22.8568 9.5474 22.979 9.45255C23.2121 9.33274 23.4745 9.27603 23.7384 9.28844C25.019 9.24108 26.357 9.21974 27.4865 8.67079C27.853 8.45042 28.2444 8.27094 28.6531 8.13582C29.613 7.9089 30.5941 8.51881 31.1473 9.26528C31.7006 10.0117 31.9764 10.9 32.4868 11.6712C32.9973 12.4423 33.879 13.13 34.8659 13.0386C34.9208 13.039 34.9753 13.0287 35.0259 13.0083C35.0766 12.9878 35.1224 12.9577 35.1607 12.9198C35.203 12.8512 35.222 12.7717 35.2149 12.6922L35.2701 9.27244C35.3158 8.68675 35.2514 8.09793 35.0799 7.5343Z" fill="#494949"/>
<path opacity="0.2" d="M34.0843 54.6514C27.6196 51.133 17.1477 43.417 13.7692 39.243C9.31593 33.7446 14.1736 29.5654 14.1736 29.5654C19.6809 26.0861 26.2656 38.0232 26.2656 38.0232L31.5981 42.3539C31.6868 42.7875 31.7703 43.2159 31.8538 43.6443C32.5451 47.181 33.5078 51.1173 34.0843 54.6514Z" fill="#121212"/>
<path d="M53.3818 50.595C53.3818 50.595 62.9929 54.5014 64.5747 50.11C66.1566 45.7187 56.9867 45.794 56.9867 45.794L53.3867 46.3048L53.3818 50.595Z" fill="#9F616A"/>
<path d="M12.9414 27.7771C12.9414 27.7771 8.08606 31.9588 12.5362 37.4553C16.9863 42.9518 37.4379 54.696 37.4379 54.696L50.7596 51.0902L54.5296 51.7809L55.2404 44.6943L49.6865 45.2371L35.5879 42.2315L26.5978 34.928C26.5978 34.928 18.4472 24.2997 12.9414 27.7771Z" fill="#4B6E82"/>
<path opacity="0.2" d="M30.6286 78.1514L31.4781 98.024L29.3242 78.1514H30.6286Z" fill="#121212"/>
<path d="M122.339 63.9377L114.628 65.7271C114.031 65.8655 113.404 65.7655 112.88 65.4484C112.356 65.1313 111.976 64.6221 111.821 64.0289C111.731 63.6849 111.72 63.3249 111.789 62.9761C111.857 62.6272 112.004 62.2984 112.218 62.0144C112.431 61.7303 112.707 61.4985 113.022 61.3361C113.338 61.1737 113.687 61.0851 114.042 61.0768L121.49 60.9033L122.339 63.9377Z" fill="#FFB9B9"/>
<path d="M130.571 56.3574L127.924 33.0227C129.917 33.5267 131.388 34.5789 132.37 36.0064C133.464 37.5968 133.978 39.6948 133.872 42.1087L133.871 42.1399L133.873 42.171L135.173 58.2184L121.817 64.3811L120.438 60.2377L130.236 56.8869L130.616 56.7568L130.571 56.3574Z" fill="#121212" stroke="#121212"/>
<path d="M128.613 27.0915H145.388V18.7394C145.394 16.4837 144.511 14.3166 142.931 12.7085C142.159 11.9163 141.237 11.287 140.218 10.8578C139.199 10.4287 138.105 10.2084 137 10.21C134.793 10.214 132.676 11.0877 131.107 12.6421C129.538 14.1964 128.643 16.3066 128.616 18.5163C128.615 18.5928 128.613 18.6654 128.613 18.7394L128.613 27.0915Z" fill="#494949"/>
<path d="M152.402 125.239L147.04 124.623L140.623 81.2337L127.349 124.799L121.548 124.975L128.141 71.3764L127.174 59.1429L143.612 53.9502C155.254 62.0875 155.013 90.8291 152.402 125.239Z" fill="#494949"/>
<path d="M135.524 25.4353C139.02 25.4353 141.853 22.5983 141.853 19.0985C141.853 15.5988 139.02 12.7617 135.524 12.7617C132.029 12.7617 129.195 15.5988 129.195 19.0985C129.195 22.5983 132.029 25.4353 135.524 25.4353Z" fill="#FFB9B9"/>
<path d="M141.854 30.5404L131.13 33.3568C132.937 29.8778 133.515 26.6301 132.536 23.6755L140.096 22.4434C139.61 25.2685 140.241 28.1722 141.854 30.5404Z" fill="#FFB9B9"/>
<path d="M126.829 33.6781C126.972 33.2628 127.208 32.8855 127.518 32.5751C127.829 32.2646 128.205 32.029 128.62 31.8861C128.62 31.8861 128.62 31.8861 128.62 31.8861L132.443 30.5704C133.471 31.3061 134.754 31.4096 136.136 31.1244C137.567 30.8291 139.173 30.1062 140.87 29.1371L144.391 30.0566L146.08 42.7414C143.598 46.6161 144.006 51.6389 144.899 56.088C141.965 57.9543 138.869 59.8788 135.887 60.868C132.88 61.8655 130.088 61.8815 127.715 60.0092L125.29 48.2154L125.257 48.0532L125.133 47.9429C124.757 47.6073 124.479 47.0642 124.339 46.2602C124.198 45.4565 124.201 44.4338 124.349 43.1984C124.646 40.7282 125.51 37.5036 126.829 33.6781ZM126.829 33.6781L126.356 33.5151M126.829 33.6781L126.356 33.5151M126.356 33.5151C126.524 33.0281 126.8 32.5857 127.165 32.2215C127.529 31.8574 127.971 31.581 128.457 31.4133M126.356 33.5151C123.711 41.1883 122.844 46.5715 124.8 48.3161L128.457 31.4133M128.457 31.4133L132.536 30.0097C134.343 31.5315 137.306 30.6239 140.799 28.6016L128.457 31.4133Z" fill="#121212" stroke="#121212"/>
<path d="M140.447 61.4729L132.736 63.2622C132.14 63.4006 131.513 63.3007 130.989 62.9836C130.464 62.6665 130.084 62.1572 129.929 61.564C129.839 61.22 129.828 60.8601 129.897 60.5112C129.966 60.1623 130.112 59.8335 130.326 59.5495C130.54 59.2655 130.815 59.0336 131.131 58.8712C131.447 58.7089 131.795 58.6202 132.15 58.612L139.599 58.4385L140.447 61.4729Z" fill="#FFB9B9"/>
<path d="M151.47 133.536C150.569 133.948 149.815 131.397 149.055 132.145C146.93 134.235 141.833 133.767 141.833 133.767C141.662 133.712 141.504 133.622 141.368 133.504C141.232 133.386 141.122 133.242 141.044 133.08C140.965 132.918 140.921 132.741 140.913 132.562C140.904 132.382 140.933 132.202 140.996 132.034C141.071 131.832 141.195 131.652 141.355 131.508C141.516 131.365 141.709 131.263 141.917 131.21L144.177 130.645L147.725 124.397L151.592 123.907L151.69 124.067C152.437 125.273 152.919 126.625 153.103 128.033C153.288 129.441 153.17 130.871 152.758 132.23C152.437 133.261 151.999 133.294 151.47 133.536Z" fill="#494949"/>
<path d="M125.978 133.536C125.078 133.948 124.324 131.397 123.564 132.145C121.439 134.235 116.342 133.767 116.342 133.767C116.171 133.712 116.012 133.622 115.877 133.504C115.741 133.386 115.631 133.242 115.552 133.08C115.474 132.918 115.43 132.741 115.421 132.562C115.413 132.382 115.441 132.202 115.504 132.034C115.58 131.832 115.703 131.652 115.864 131.508C116.024 131.365 116.217 131.263 116.426 131.21L118.686 130.645L122.234 124.397L126.101 123.907L126.198 124.067C126.946 125.273 127.428 126.625 127.612 128.033C127.796 129.441 127.679 130.871 127.267 132.23C126.945 133.261 126.508 133.294 125.978 133.536Z" fill="#494949"/>
<path d="M142.945 13.8146L141.351 18.8924L127.569 18.6471C127.616 16.8706 128.217 15.1531 129.286 13.7346C130.355 12.3162 131.841 11.2676 133.534 10.7353C135.228 10.203 137.045 10.2137 138.732 10.7658C140.419 11.3178 141.892 12.3838 142.945 13.8146H142.945Z" fill="#494949"/>
<path d="M148.677 53.8719L144.908 30.0488C146.88 30.5642 148.641 31.7053 149.921 33.3107C151.35 35.1033 152.082 37.3536 151.981 39.645L151.98 39.6762L151.982 39.7073L153.282 55.7546L139.927 61.9174L138.547 57.774L148.345 54.4232L148.743 54.2871L148.677 53.8719Z" fill="#121212" stroke="#121212"/>
<path d="M115.105 48.7373L104.426 51.0367L102.244 40.5172L106.263 35.1137L109.88 34.4238L113.899 38.5051L115.105 48.7373Z" fill="#CCCCCC"/>
<path d="M110.168 49.1957H103.737L102.86 44.8624L101.9 40.1137L103.335 38.0449L106.093 38.9069L109.077 43.047L109.826 47.2654L109.878 47.5658L110.168 49.1957Z" fill="#E6E6E6"/>
<path d="M120.963 46.6682L113.557 47.5304L114.877 38.1033L117.863 35.4014L120.446 36.0337L122.169 40.0001L120.963 46.6682Z" fill="#CCCCCC"/>
<path d="M121.937 41.0887L121.248 44.884L119.009 57.8162L110.398 60.5772L110.1 60.4152L105.459 57.8737L102.848 44.8553L102.861 44.8605L109.766 47.6423L109.826 47.2636L109.868 46.9893L110.398 43.6198L112.751 41.0887L120.617 39.1924L121.937 41.0887Z" fill="#E6E6E6"/>
<path d="M116.484 40.6914C117.498 40.6914 118.321 39.8677 118.321 38.8516C118.321 37.8354 117.498 37.0117 116.484 37.0117C115.469 37.0117 114.646 37.8354 114.646 38.8516C114.646 39.8677 115.469 40.6914 116.484 40.6914Z" fill="#E6E6E6"/>
<path d="M111.967 39.7986L107.775 40.5459L107.796 40.6591L111.987 39.9118L111.967 39.7986Z" fill="white"/>
<path d="M110.1 60.4171L105.459 57.8755L102.847 44.8571L102.86 44.8624L101.9 40.1137L103.335 38.0449L106.093 38.9069L109.077 43.047L109.826 47.2654L109.868 46.9912L109.878 47.5658L109.907 49.1957L110.1 60.4171Z" fill="#E9EBEE"/>
<path d="M105.516 57.8939L105.405 57.8641L107.695 49.2689L105.073 45.8087L105.165 45.7393L107.82 49.2441L105.516 57.8939Z" fill="#CCCCCC"/>
<path d="M106.808 52.9843L106.704 53.0342L110.345 60.603L110.449 60.5531L106.808 52.9843Z" fill="#CCCCCC"/>
<path opacity="0.2" d="M121.484 44.0981L121.053 46.4831L121.031 46.4854L119.101 57.6348L110.489 60.394L110.437 60.4188L110.403 60.3469L105.552 57.6923L105.496 57.6774L105.526 57.5647L102.939 44.6723L102.953 44.6775L102.666 43.2623L102.88 42.9536L103.542 41.9993L106.298 42.8616L109.283 47.0004L109.327 47.2464L109.641 49.0123L109.766 49.7217L110.032 51.2203L110.285 49.6102L110.375 49.0307L110.604 47.5752L112.958 45.046L114.005 44.7936L114.733 44.6177L115.736 44.3763C115.425 44.1871 115.177 43.9098 115.024 43.5794C114.87 43.2491 114.818 42.8806 114.874 42.5207C114.931 42.1607 115.092 41.8256 115.339 41.5578C115.585 41.2899 115.906 41.1013 116.259 41.016C116.613 40.9307 116.984 40.9524 117.325 41.0785C117.667 41.2045 117.963 41.4292 118.177 41.724C118.39 42.0189 118.512 42.3706 118.526 42.7346C118.539 43.0986 118.445 43.4585 118.254 43.7687L120.823 43.149L121.457 44.059L121.484 44.0981Z" fill="#121212"/>
<path d="M110.375 53.73H103.945L102.107 44.6476L103.543 42.5781L106.299 43.4404L109.284 47.5791L110.375 53.73Z" fill="#E6E6E6"/>
<path d="M119.216 62.3483L110.603 65.1074L105.666 62.4057L103.054 49.3858L109.972 52.1736L110.603 48.1497L112.957 45.6205L120.823 43.7236L122.144 45.6205L121.455 49.4145L119.216 62.3483Z" fill="#E6E6E6"/>
<path d="M116.691 45.2197C117.705 45.2197 118.528 44.396 118.528 43.3799C118.528 42.3638 117.705 41.54 116.691 41.54C115.676 41.54 114.854 42.3638 114.854 43.3799C114.854 44.396 115.676 45.2197 116.691 45.2197Z" fill="#E6E6E6"/>
<path d="M110.312 64.8565L105.671 62.315L103.059 49.2966L103.072 49.3018L102.112 44.5531L103.547 42.4844L106.305 43.3463L109.289 47.4864L110.038 51.7049L110.08 51.4306L110.09 52.0053L110.119 53.6352L110.312 64.8565Z" fill="#E9EBEE"/>
<path d="M105.723 62.4222L105.612 62.3927L107.901 53.7972L105.279 50.3371L105.371 50.2676L108.026 53.7727L105.723 62.4222Z" fill="#CCCCCC"/>
<path d="M107.016 57.5155L106.912 57.5654L110.553 65.1343L110.657 65.0844L107.016 57.5155Z" fill="#CCCCCC"/>
<mask id="path-48-inside-1" fill="white">
<path d="M158.121 133.478H0V134H158.121V133.478Z"/>
</mask>
<path d="M158.121 133.478H0V134H158.121V133.478Z" fill="#121212"/>
<path d="M0 133.478V132.478H-1V133.478H0ZM158.121 133.478H159.121V132.478H158.121V133.478ZM158.121 134V135H159.121V134H158.121ZM0 134H-1V135H0V134ZM0 134.478H158.121V132.478H0V134.478ZM157.121 133.478V134H159.121V133.478H157.121ZM158.121 133H0V135H158.121V133ZM1 134V133.478H-1V134H1Z" fill="#121212" mask="url(#path-48-inside-1)"/>
</svg>
