<svg width="22" height="22" viewBox="0 0 22 22" fill="none" xmlns="http://www.w3.org/2000/svg">
<path fill-rule="evenodd" clip-rule="evenodd" d="M11 19.3716H2.5V10.8716C2.5 6.17716 6.30558 2.37158 11 2.37158C15.6944 2.37158 19.5 6.17716 19.5 10.8716C19.5 15.566 15.6944 19.3716 11 19.3716ZM0.5 10.8716C0.5 5.07259 5.20101 0.371582 11 0.371582C16.799 0.371582 21.5 5.07259 21.5 10.8716C21.5 16.6706 16.799 21.3716 11 21.3716H0.5V10.8716ZM6.90479 13C7.73321 13 8.40479 12.3284 8.40479 11.5C8.40479 10.6716 7.73321 10 6.90479 10C6.07636 10 5.40479 10.6716 5.40479 11.5C5.40479 12.3284 6.07636 13 6.90479 13ZM10.9048 13C11.7332 13 12.4048 12.3284 12.4048 11.5C12.4048 10.6716 11.7332 10 10.9048 10C10.0764 10 9.40479 10.6716 9.40479 11.5C9.40479 12.3284 10.0764 13 10.9048 13ZM16.4048 11.5C16.4048 12.3284 15.7332 13 14.9048 13C14.0764 13 13.4048 12.3284 13.4048 11.5C13.4048 10.6716 14.0764 10 14.9048 10C15.7332 10 16.4048 10.6716 16.4048 11.5Z" fill="#8CAEC5"/>
</svg>
