<svg width="24" height="24" viewBox="0 0 24 24" fill="none" xmlns="http://www.w3.org/2000/svg">
<path d="M24 12C24 18.6273 18.6273 24 12 24C5.37267 24 0 18.6273 0 12C0 5.37267 5.37267 0 12 0C18.6273 0 24 5.37267 24 12Z" fill="#FFCC4D"/>
<path d="M11.9998 14.0001C9.5845 14.0001 7.98184 13.7188 5.99984 13.3335C5.54717 13.2461 4.6665 13.3335 4.6665 14.6668C4.6665 17.3335 7.72984 20.6668 11.9998 20.6668C16.2692 20.6668 19.3332 17.3335 19.3332 14.6668C19.3332 13.3335 18.4525 13.2455 17.9998 13.3335C16.0178 13.7188 14.4152 14.0001 11.9998 14.0001Z" fill="#664500"/>
<path d="M6 14.6665C6 14.6665 8 15.3332 12 15.3332C16 15.3332 18 14.6665 18 14.6665C18 14.6665 16.6667 17.3332 12 17.3332C7.33333 17.3332 6 14.6665 6 14.6665Z" fill="white"/>
<path d="M10.4545 2.94202L7.42652 3.47602L5.86652 0.640686C5.69452 0.32802 5.34118 0.160686 4.99185 0.22202C4.64052 0.28402 4.36718 0.562686 4.31252 0.914686L3.81585 4.11269L0.787849 4.64669C0.431183 4.70935 0.155849 4.99669 0.107183 5.35602C0.058516 5.71535 0.247849 6.06469 0.575849 6.22069L3.28918 7.50869L2.79052 10.7167C2.73518 11.074 2.91652 11.426 3.23918 11.5894C3.35852 11.6494 3.48652 11.678 3.61385 11.678C3.83185 11.678 4.04718 11.5927 4.20785 11.43L6.54918 9.05602L9.56118 10.486C9.88785 10.6407 10.2772 10.568 10.5252 10.3047C10.7732 10.0414 10.8225 9.64869 10.6485 9.33202L9.08318 6.48669L11.1932 4.34802C11.4479 4.09002 11.5058 3.69669 11.3378 3.37535C11.1685 3.05402 10.8092 2.88002 10.4545 2.94202ZM13.5452 2.94202L16.5732 3.47602L18.1332 0.640686C18.3052 0.32802 18.6585 0.160686 19.0078 0.22202C19.3585 0.28402 19.6318 0.562686 19.6865 0.914686L20.1832 4.11269L23.2112 4.64669C23.5685 4.70935 23.8438 4.99602 23.8918 5.35535C23.9398 5.71469 23.7512 6.06402 23.4232 6.22002L20.7098 7.50802L21.2085 10.716C21.2638 11.0734 21.0825 11.4254 20.7598 11.5887C20.6405 11.6487 20.5125 11.6774 20.3852 11.6774C20.1672 11.6774 19.9518 11.592 19.7912 11.4294L17.4498 9.05535L14.4378 10.4854C14.1112 10.64 13.7218 10.5674 13.4738 10.304C13.2258 10.0407 13.1765 9.64802 13.3505 9.33135L14.9158 6.48669L12.8058 4.34802C12.5512 4.09002 12.4932 3.69669 12.6612 3.37535C12.8312 3.05402 13.1905 2.88002 13.5452 2.94202Z" fill="#E95F28"/>
</svg>
