<svg width="24" height="24" viewBox="0 0 24 24" fill="none" xmlns="http://www.w3.org/2000/svg">
<path d="M24 12C24 18.6273 18.6273 24 12 24C5.37333 24 0 18.6273 0 12C0 5.37333 5.37333 0 12 0C18.6273 0 24 5.37333 24 12Z" fill="#FFCC4D"/>
<path d="M7.66667 11.9998C8.58714 11.9998 9.33333 10.3582 9.33333 8.33317C9.33333 6.30813 8.58714 4.6665 7.66667 4.6665C6.74619 4.6665 6 6.30813 6 8.33317C6 10.3582 6.74619 11.9998 7.66667 11.9998Z" fill="#664500"/>
<path d="M16.3332 11.9998C17.2536 11.9998 17.9998 10.3582 17.9998 8.33317C17.9998 6.30813 17.2536 4.6665 16.3332 4.6665C15.4127 4.6665 14.6665 6.30813 14.6665 8.33317C14.6665 10.3582 15.4127 11.9998 16.3332 11.9998Z" fill="#664500"/>
<path d="M11.9998 14.6666C9.5845 14.6666 7.98184 14.3853 5.99984 14C5.54717 13.9126 4.6665 14 4.6665 15.3333C4.6665 18 7.72984 21.3333 11.9998 21.3333C16.2692 21.3333 19.3332 18 19.3332 15.3333C19.3332 14 18.4525 13.912 17.9998 14C16.0178 14.3853 14.4152 14.6666 11.9998 14.6666Z" fill="#664500"/>
<path d="M6 15.3335C6 15.3335 8 16.0002 12 16.0002C16 16.0002 18 15.3335 18 15.3335C18 15.3335 16.6667 18.0002 12 18.0002C7.33333 18.0002 6 15.3335 6 15.3335Z" fill="white"/>
</svg>
