<svg width="24" height="24" viewBox="0 0 24 24" fill="none" xmlns="http://www.w3.org/2000/svg">
<path d="M12 24C18.6274 24 24 18.6274 24 12C24 5.37258 18.6274 0 12 0C5.37258 0 0 5.37258 0 12C0 18.6274 5.37258 24 12 24Z" fill="#FFCC4D"/>
<path d="M7.01011 15.7475C7.04011 15.8668 7.78878 18.6668 12.0001 18.6668C16.2121 18.6668 16.9601 15.8668 16.9901 15.7475C17.0268 15.6028 16.9614 15.4528 16.8321 15.3782C16.7021 15.3042 16.5394 15.3262 16.4321 15.4295C16.4194 15.4422 15.1294 16.6668 12.0001 16.6668C8.87078 16.6668 7.58011 15.4422 7.56811 15.4302C7.50411 15.3668 7.41878 15.3335 7.33344 15.3335C7.27744 15.3335 7.22078 15.3475 7.16944 15.3762C7.03878 15.4508 6.97344 15.6022 7.01011 15.7475Z" fill="#664500"/>
<path d="M8.00016 11.3332C8.92064 11.3332 9.66683 10.2885 9.66683 8.99984C9.66683 7.71117 8.92064 6.6665 8.00016 6.6665C7.07969 6.6665 6.3335 7.71117 6.3335 8.99984C6.3335 10.2885 7.07969 11.3332 8.00016 11.3332Z" fill="#664500"/>
<path d="M16.0002 11.3332C16.9206 11.3332 17.6668 10.2885 17.6668 8.99984C17.6668 7.71117 16.9206 6.6665 16.0002 6.6665C15.0797 6.6665 14.3335 7.71117 14.3335 8.99984C14.3335 10.2885 15.0797 11.3332 16.0002 11.3332Z" fill="#664500"/>
</svg>
