<svg width="24" height="24" viewBox="0 0 24 24" fill="none" xmlns="http://www.w3.org/2000/svg">
<circle cx="6" cy="2" r="1" fill="#EEEEEE"/>
<circle cx="18" cy="2" r="1" fill="#EEEEEE"/>
<path fill-rule="evenodd" clip-rule="evenodd" d="M6 0H2C0.895431 0 0 0.89543 0 2V6V18H6V6H18V0H6Z" fill="#4285F4"/>
<rect x="6" y="18" width="12" height="6" fill="#34A853"/>
<path d="M18 0H22C23.1046 0 24 0.895431 24 2V6H18V0Z" fill="#1967D2"/>
<path d="M0 18H6V24H2C0.89543 24 0 23.1046 0 22V18Z" fill="#188038"/>
<path d="M18 18H24L18 24V18Z" fill="#F72A25"/>
<rect x="18" y="6" width="6" height="12" fill="#FBBC04"/>
<path d="M13.0225 10.2632L13.4891 11.0526L14.2225 10.4211V15H15.0225V9H14.3558L13.0225 10.2632Z" fill="#1E88E5"/>
<path d="M11.2835 11.8651C11.6288 11.5615 11.8432 11.1405 11.8432 10.6756C11.8432 9.75159 10.9962 9 9.95531 9C9.07023 9 8.31332 9.53367 8.11553 10.2974L9.031 10.5201C9.12216 10.1689 9.51056 9.91396 9.95531 9.91396C10.4758 9.91396 10.8995 10.2556 10.8995 10.6756C10.8995 11.0956 10.4758 11.4372 9.95531 11.4372H9.40448V12.3512H9.95531C10.5525 12.3512 11.0564 12.7484 11.0564 13.2186C11.0564 13.6968 10.578 14.086 9.98957 14.086C9.45807 14.086 9.00393 13.7634 8.93211 13.336L8.00006 13.482C8.14481 14.3473 9.00006 15 9.98901 15C11.0979 15 12.0001 14.2008 12.0001 13.2186C12.0001 12.6775 11.7216 12.192 11.2835 11.8651Z" fill="#1E88E5"/>
</svg>
