<svg width="24" height="30" viewBox="0 0 24 30" fill="none" xmlns="http://www.w3.org/2000/svg">
<path fill-rule="evenodd" clip-rule="evenodd" d="M12.6656 29.1986C12.2626 29.4673 11.7368 29.4668 11.3337 29.1981L11.3303 29.1958L11.3223 29.1905L11.2948 29.1719C11.2714 29.156 11.2381 29.1332 11.1955 29.1037C11.1102 29.0447 10.9878 28.9587 10.8333 28.8471C10.5247 28.6242 10.0876 28.2988 9.56499 27.8826C8.5216 27.0517 7.12727 25.8515 5.72886 24.3754C2.98112 21.475 0 17.2824 0 12.6001C0 9.4175 1.26428 6.36525 3.51472 4.11482C5.76515 1.86438 8.8174 0.600098 12 0.600098C15.1826 0.600098 18.2348 1.86438 20.4853 4.11482C22.7357 6.36525 24 9.4175 24 12.6001C24 17.2824 21.0189 21.475 18.2711 24.3754C16.8727 25.8515 15.4784 27.0517 14.435 27.8826C13.9124 28.2988 13.4753 28.6242 13.1667 28.8471C13.0122 28.9587 12.8898 29.0447 12.8045 29.1037C12.7619 29.1332 12.7286 29.156 12.7052 29.1719L12.6777 29.1905L12.6697 29.1958L12.6672 29.1975L12.6656 29.1986ZM5.21177 5.81187C7.01212 4.01152 9.45392 3.0001 12 3.0001C14.5461 3.0001 16.9879 4.01152 18.7882 5.81187C20.5886 7.61222 21.6 10.054 21.6 12.6001C21.6 16.3178 19.1811 19.9252 16.5289 22.7248C15.2273 24.0987 13.9216 25.2235 12.94 26.0051C12.5747 26.296 12.2556 26.5383 12 26.7272C11.7444 26.5383 11.4253 26.296 11.06 26.0051C10.0784 25.2235 8.77273 24.0987 7.47114 22.7248C4.81889 19.9252 2.4 16.3178 2.4 12.6001C2.4 10.054 3.41143 7.61222 5.21177 5.81187Z" fill="white"/>
<path fill-rule="evenodd" clip-rule="evenodd" d="M7.2 12.6001C7.2 9.94913 9.34903 7.8001 12 7.8001C14.651 7.8001 16.8 9.94913 16.8 12.6001C16.8 15.2511 14.651 17.4001 12 17.4001C9.34903 17.4001 7.2 15.2511 7.2 12.6001ZM9.6 12.6001C9.6 11.2746 10.6745 10.2001 12 10.2001C13.3255 10.2001 14.4 11.2746 14.4 12.6001C14.4 13.9256 13.3255 15.0001 12 15.0001C10.6745 15.0001 9.6 13.9256 9.6 12.6001Z" fill="white"/>
</svg>
