<svg width="22" height="21" viewBox="0 0 22 21" fill="none" xmlns="http://www.w3.org/2000/svg">
<path d="M0.407227 16V0.880005H2.63323V9.88901L6.62323 5.584H9.29023L4.85923 10.309L9.94123 16H7.12723L2.63323 10.666V16H0.407227Z" fill="#8CAEC5"/>
<path d="M15.929 12.808C15.383 12.808 14.879 12.745 14.417 12.619L13.514 13.501C13.668 13.599 13.857 13.683 14.081 13.753C14.305 13.823 14.62 13.886 15.026 13.942C15.432 13.998 15.985 14.054 16.685 14.11C18.071 14.236 19.072 14.572 19.688 15.118C20.304 15.65 20.612 16.364 20.612 17.26C20.612 17.876 20.444 18.457 20.108 19.003C19.786 19.563 19.275 20.011 18.575 20.347C17.889 20.697 17.007 20.872 15.929 20.872C14.473 20.872 13.29 20.592 12.38 20.032C11.484 19.486 11.036 18.653 11.036 17.533C11.036 17.099 11.148 16.665 11.372 16.231C11.61 15.811 11.981 15.412 12.485 15.034C12.191 14.908 11.932 14.775 11.708 14.635C11.498 14.481 11.309 14.327 11.141 14.173V13.669L12.947 11.821C12.135 11.121 11.729 10.204 11.729 9.07001C11.729 8.38401 11.89 7.76101 12.212 7.201C12.548 6.62701 13.031 6.17201 13.661 5.836C14.291 5.5 15.047 5.33201 15.929 5.33201C16.517 5.33201 17.063 5.41601 17.567 5.584H21.452V7.054L19.604 7.159C19.94 7.733 20.108 8.37001 20.108 9.07001C20.108 9.77001 19.94 10.4 19.604 10.96C19.282 11.52 18.806 11.968 18.176 12.304C17.56 12.64 16.811 12.808 15.929 12.808ZM15.929 11.065C16.573 11.065 17.091 10.897 17.483 10.561C17.889 10.211 18.092 9.72101 18.092 9.09101C18.092 8.44701 17.889 7.95701 17.483 7.62101C17.091 7.28501 16.573 7.11701 15.929 7.11701C15.271 7.11701 14.739 7.28501 14.333 7.62101C13.941 7.95701 13.745 8.44701 13.745 9.09101C13.745 9.72101 13.941 10.211 14.333 10.561C14.739 10.897 15.271 11.065 15.929 11.065ZM13.136 17.323C13.136 17.925 13.402 18.373 13.934 18.667C14.466 18.975 15.131 19.129 15.929 19.129C16.699 19.129 17.322 18.961 17.798 18.625C18.274 18.303 18.512 17.869 18.512 17.323C18.512 16.917 18.351 16.567 18.029 16.273C17.707 15.993 17.098 15.818 16.202 15.748C15.53 15.706 14.935 15.643 14.417 15.559C13.927 15.825 13.591 16.112 13.409 16.42C13.227 16.728 13.136 17.029 13.136 17.323Z" fill="#8CAEC5"/>
</svg>
