<svg width="24" height="24" viewBox="0 0 24 24" fill="none" xmlns="http://www.w3.org/2000/svg">
<path fill-rule="evenodd" clip-rule="evenodd" d="M3.6 2.4C3.28174 2.4 2.97652 2.52643 2.75147 2.75147C2.52643 2.97652 2.4 3.28174 2.4 3.6V19.9029L5.15147 17.1515C5.37652 16.9264 5.68174 16.8 6 16.8H20.4C20.7183 16.8 21.0235 16.6736 21.2485 16.4485C21.4736 16.2235 21.6 15.9183 21.6 15.6V3.6C21.6 3.28174 21.4736 2.97652 21.2485 2.75147C21.0235 2.52643 20.7183 2.4 20.4 2.4H3.6ZM1.05442 1.05442C1.72955 0.379284 2.64522 0 3.6 0H20.4C21.3548 0 22.2705 0.379285 22.9456 1.05442C23.6207 1.72955 24 2.64522 24 3.6V15.6C24 16.5548 23.6207 17.4705 22.9456 18.1456C22.2705 18.8207 21.3548 19.2 20.4 19.2H6.49706L2.04853 23.6485C1.70533 23.9917 1.18919 24.0944 0.74078 23.9087C0.292371 23.7229 0 23.2854 0 22.8V3.6C0 2.64522 0.379284 1.72955 1.05442 1.05442Z" fill="#8BC63E"/>
<path d="M12 4.8C12.6627 4.8 13.2 5.33726 13.2 6V8.4H15.6C16.2627 8.4 16.8 8.93726 16.8 9.6C16.8 10.2627 16.2627 10.8 15.6 10.8H13.2V13.2C13.2 13.8627 12.6627 14.4 12 14.4C11.3373 14.4 10.8 13.8627 10.8 13.2V10.8H8.4C7.73726 10.8 7.2 10.2627 7.2 9.6C7.2 8.93726 7.73726 8.4 8.4 8.4H10.8V6C10.8 5.33726 11.3373 4.8 12 4.8Z" fill="#8BC63E"/>
</svg>
