<svg width="50" height="56" viewBox="0 0 50 56" fill="none" xmlns="http://www.w3.org/2000/svg">
<path fill-rule="evenodd" clip-rule="evenodd" d="M25 0.505005C23.6855 0.505005 22.3942 0.850468 21.2554 1.50673L13.2658 6.07219C12.7405 6.17612 12.2504 6.44747 11.8815 6.8632L3.75964 11.5042L3.75 11.5098C2.82505 12.0438 2.02734 12.7678 1.4077 13.6308C1.25681 13.7817 1.12291 13.9546 1.01098 14.1481C0.914565 14.3147 0.839538 14.4879 0.785052 14.6644C0.270812 15.6981 0.00118954 16.8386 0 17.9973V38.0024C0.00135019 39.3177 0.348537 40.6094 1.00673 41.7481C1.66493 42.8868 2.61099 43.8323 3.75 44.4899L3.75965 44.4955L21.25 54.4899L21.2546 54.4926C22.0476 54.9497 22.9146 55.2561 23.8119 55.4C24.1653 55.5913 24.57 55.6999 25 55.6999C25.4301 55.6999 25.8347 55.5913 26.1881 55.4C27.0854 55.2561 27.9525 54.9497 28.7455 54.4925L28.75 54.4899L46.2403 44.4955L46.25 44.4899C47.389 43.8323 48.3351 42.8868 48.9933 41.7481C49.6515 40.6094 49.9986 39.3177 50 38.0024V17.9973C49.9988 16.8386 49.7292 15.6981 49.2149 14.6644C49.1605 14.4879 49.0854 14.3147 48.989 14.1481C48.8771 13.9546 48.7432 13.7817 48.5923 13.6308C47.9727 12.7678 47.175 12.0438 46.25 11.5098L28.75 1.50982L28.7448 1.50681C27.6059 0.850497 26.3145 0.505005 25 0.505005ZM27.5 49.4455L43.75 40.1598L43.754 40.1575C44.1319 39.9384 44.4458 39.6241 44.6644 39.2459C44.8838 38.8663 44.9995 38.4357 45 37.9973V19.3437L27.5 29.4669V49.4455ZM22.5 29.4669L5 19.3437V37.9984C5.00064 38.4364 5.11636 38.8666 5.33558 39.2459C5.55421 39.6241 5.86815 39.9384 6.24606 40.1575L6.25 40.1598L22.5 49.4455V29.4669ZM26.25 5.83996L42.4025 15.07L36.263 18.6215L18.9023 8.61012L23.7404 5.84551L23.75 5.83994C24.13 5.62052 24.5612 5.50501 25 5.50501C25.4388 5.50501 25.8699 5.62054 26.25 5.83996ZM25 25.1367L31.2663 21.5119L13.875 11.4828L7.59746 15.07L25 25.1367Z" fill="#8CAEC5"/>
</svg>
