<svg width="28" height="28" viewBox="0 0 28 28" fill="none" xmlns="http://www.w3.org/2000/svg">
<path d="M8.33333 22.4C6.80556 22.4 5.56945 23.66 5.56945 25.2C5.56945 26.74 6.80556 28 8.33333 28C9.86111 28 11.1111 26.74 11.1111 25.2C11.1111 23.66 9.86111 22.4 8.33333 22.4ZM22.2222 22.4C20.6944 22.4 19.4583 23.66 19.4583 25.2C19.4583 26.74 20.6944 28 22.2222 28C23.75 28 25 26.74 25 25.2C25 23.66 23.75 22.4 22.2222 22.4ZM8.56944 17.85L8.61111 17.682L9.86111 15.4H20.2083C21.25 15.4 22.1667 14.826 22.6389 13.958L28 4.144L25.5833 2.8H25.5694L24.0417 5.6L20.2083 12.6H10.4583L10.2778 12.222L7.16667 5.6L5.84722 2.8L4.54167 0H0V2.8H2.77778L7.77778 13.426L5.90278 16.856C5.68056 17.248 5.55556 17.71 5.55556 18.2C5.55556 19.74 6.80556 21 8.33333 21H25V18.2H8.91667C8.73611 18.2 8.56944 18.046 8.56944 17.85Z" fill="white"/>
</svg>
