<svg width="41" height="30" viewBox="0 0 41 30" fill="none" xmlns="http://www.w3.org/2000/svg">
<path d="M36.2094 8.35715H35.2168V19.1571C35.2168 20.8286 34.2242 22.3714 32.2389 22.3714H12.9473V22.8857C12.9473 24.3857 14.6305 25.8857 16.4 25.8857H31.2031L36.8136 29.1429L35.9936 25.8429H36.2094C37.9357 25.8429 38.7557 24.3429 38.7557 22.8429V10.9286C38.7557 9.42858 37.9789 8.35715 36.2094 8.35715Z" fill="white"/>
<path d="M29.3905 0.857147H6.90526C4.92 0.857147 2.63263 2.61429 2.63263 4.28572V17.8286C2.63263 19.3714 4.57473 20.4857 6.43052 20.6571L5.2221 25.2L12.9474 20.6571H29.3905C31.3758 20.6571 33.1884 19.4571 33.1884 17.7857V6.85715V4.28572C33.1884 2.61429 31.3758 0.857147 29.3905 0.857147ZM10.3579 12.2571C9.23579 12.2571 8.32947 11.3571 8.32947 10.2429C8.32947 9.12858 9.23579 8.22858 10.3579 8.22858C11.48 8.22858 12.3863 9.12858 12.3863 10.2429C12.3863 11.3571 11.48 12.2571 10.3579 12.2571ZM17.9105 12.2571C16.7884 12.2571 15.8821 11.3571 15.8821 10.2429C15.8821 9.12858 16.7884 8.22858 17.9105 8.22858C19.0326 8.22858 19.9389 9.12858 19.9389 10.2429C19.9821 11.3571 19.0326 12.2571 17.9105 12.2571ZM25.5063 12.2571C24.3842 12.2571 23.4779 11.3571 23.4779 10.2429C23.4779 9.12858 24.3842 8.22858 25.5063 8.22858C26.6284 8.22858 27.5347 9.12858 27.5347 10.2429C27.5347 11.3571 26.6284 12.2571 25.5063 12.2571Z" fill="white"/>
</svg>
