<svg width="38" height="24" viewBox="0 0 38 24" fill="none" xmlns="http://www.w3.org/2000/svg">
<path d="M0 19.6239V4.61395V4.42395H5.7V18.1039C5.7 19.0159 4.94 19.4973 4.56 19.6239H0Z" fill="white"/>
<path d="M38 19.6239V4.61395V4.42395H32.3V18.1039C32.3 19.0159 33.06 19.4973 33.44 19.6239H38Z" fill="white"/>
<path d="M7.41016 4.04402L11.5902 0.624023H16.9102C16.5302 1.00402 15.2002 2.29602 12.9202 4.42402C9.50016 7.84402 11.5902 10.314 12.1602 11.264C15.0482 14.152 18.5568 11.454 19.9502 9.74402C21.9768 11.454 26.6762 15.482 29.2602 17.914C29.2602 22.284 25.6502 20.194 25.2702 20.574C22.2302 25.704 19.7602 22.094 19.1902 22.094C18.1262 23.766 15.8335 23.5507 14.8202 23.234L8.55016 17.344H7.41016V4.04402Z" fill="white"/>
<path d="M26.5997 0.624023H19.7597C18.4931 1.76402 15.3897 4.65202 13.1097 7.08402C12.3497 10.58 14.9464 10.5674 16.3397 10.124C17.4797 9.11069 20.1017 6.81802 21.4697 5.75402C22.8377 4.69002 23.0531 6.19736 22.9897 7.08402L21.4697 8.60402L30.3997 15.824V4.23402L26.5997 0.624023Z" fill="white"/>
<circle cx="2.5" cy="16.5" r="1.5" fill="#8EC23C"/>
<circle cx="35.5" cy="16.5" r="1.5" fill="#8EC23C"/>
</svg>
