<svg width="34" height="34" viewBox="0 0 34 34" fill="none" xmlns="http://www.w3.org/2000/svg">
<path fill-rule="evenodd" clip-rule="evenodd" d="M27.3107 3.81067C27.6261 3.49523 28.0539 3.31802 28.5 3.31802C28.9461 3.31802 29.3739 3.49523 29.6893 3.81067C30.0048 4.1261 30.182 4.55392 30.182 5.00001C30.182 5.44609 30.0048 5.87391 29.6893 6.18934L15.7331 20.1456L12.5616 20.9385L13.3544 17.7669L27.3107 3.81067ZM28.5 0.318024C27.2583 0.318024 26.0674 0.811303 25.1893 1.68934L10.9393 15.9393C10.7471 16.1316 10.6107 16.3725 10.5448 16.6362L9.04479 22.6362C8.917 23.1474 9.06677 23.6881 9.43934 24.0607C9.81191 24.4332 10.3526 24.583 10.8638 24.4552L16.8638 22.9552C17.1276 22.8893 17.3684 22.7529 17.5607 22.5607L31.8107 8.31067C32.6887 7.43262 33.182 6.24174 33.182 5.00001C33.182 3.75827 32.6887 2.56739 31.8107 1.68934C30.9326 0.811303 29.7417 0.318024 28.5 0.318024ZM4.5 3.50001C3.30653 3.50001 2.16193 3.97411 1.31802 4.81802C0.474106 5.66194 0 6.80653 0 8.00001V29C0 30.1935 0.474106 31.3381 1.31802 32.182C2.16193 33.0259 3.30653 33.5 4.5 33.5H25.5C26.6935 33.5 27.8381 33.0259 28.682 32.182C29.5259 31.3381 30 30.1935 30 29V18.5C30 17.6716 29.3284 17 28.5 17C27.6716 17 27 17.6716 27 18.5V29C27 29.3978 26.842 29.7794 26.5607 30.0607C26.2794 30.342 25.8978 30.5 25.5 30.5H4.5C4.10218 30.5 3.72064 30.342 3.43934 30.0607C3.15804 29.7794 3 29.3978 3 29V8.00001C3 7.60218 3.15804 7.22065 3.43934 6.93935C3.72064 6.65804 4.10218 6.50001 4.5 6.50001H15C15.8284 6.50001 16.5 5.82843 16.5 5.00001C16.5 4.17158 15.8284 3.50001 15 3.50001H4.5Z" fill="white"/>
</svg>
