<svg width="27" height="23" viewBox="0 0 27 23" fill="none" xmlns="http://www.w3.org/2000/svg">
<path d="M9.33944 16.9233L8.28797 15.47L6.06776 15.8098L8.98767 11.3984H3.29395V23H12.9956V11.3984L9.33944 16.9233Z" fill="white"/>
<path d="M25.3075 5.86217H18.8651C19.2418 5.69678 19.5782 5.52403 19.8762 5.34063C21.0219 4.64143 21.6302 3.75555 21.6283 2.87623C21.6283 2.15492 21.2275 1.12167 20.6451 0.691015C20.0617 0.255446 19.288 0 18.4624 0C17.5801 0 16.7602 0.257903 16.0576 0.659084C15.0013 1.26168 14.1748 2.56675 13.5856 3.56233C13.5558 3.61227 13.526 3.66058 13.4972 3.70889C13.2819 3.3249 13.0301 2.5561 12.7446 2.20568C12.2448 1.59818 11.6441 1.06109 10.9387 0.659084C10.238 0.257903 9.41912 0 8.53776 0C7.65929 0.00245622 6.85483 0.316033 6.25316 0.799907C5.65438 1.27887 5.23533 2.35715 5.23148 3.12758C5.22764 3.57707 5.38142 4.04784 5.69955 4.47604C6.09938 5.01232 6.73276 5.47982 7.60739 5.86217H1.67627L1.68973 10.4758H12.8273V5.86217H14.1844V10.4758H25.3239L25.3075 5.86217ZM7.99184 4.41955C7.54492 4.17884 7.27003 3.93731 7.10856 3.72035C6.9519 3.50502 6.89712 3.12676 6.89712 2.94091C6.89327 2.63061 7.07492 2.08615 7.39786 1.8307C7.71311 1.57443 8.14178 1.41642 8.52623 1.41642H8.53776C9.03274 1.41969 9.52292 1.56052 10.0169 1.83807C10.7522 2.25153 11.4452 3.37566 11.9267 4.19931C12.1785 4.6185 12.3707 5.05653 12.5005 5.48473C10.2697 5.28823 8.82802 4.86904 7.99184 4.41955ZM15.6165 3.4166C16.0182 2.92617 16.4921 2.11726 16.9832 1.83807C17.4714 1.56052 17.9674 1.41969 18.4624 1.41642H18.4672C18.8795 1.41642 19.2764 1.55397 19.5465 1.75783C19.8176 1.96497 19.9627 2.34405 19.9627 2.61096C19.9569 2.92617 19.7657 3.65157 18.9016 4.18948C18.0818 4.69874 16.6583 5.22028 14.4698 5.58543C14.6765 4.84611 15.0811 4.0634 15.6165 3.4166Z" fill="white"/>
<path d="M20.9438 15.791L18.7245 15.47L17.6769 16.9405L14.0679 11.4729V23H23.7205V11.3984H18.0268L20.9438 15.791Z" fill="white"/>
</svg>
