<svg width="38" height="41" viewBox="0 0 38 41" fill="none" xmlns="http://www.w3.org/2000/svg">
<g opacity="0.9">
<path d="M19.1941 19.8149C19.0567 19.8149 18.9192 19.7683 18.8276 19.7217L0.957551 9.80266C0.682627 9.66296 0.545166 9.38354 0.545166 9.05757C0.545166 8.73159 0.728448 8.45218 1.00337 8.35904L18.8734 0.0698527C19.1025 -0.0232842 19.3316 -0.0232842 19.5607 0.0698527L37.4307 8.31247C37.7056 8.45218 37.8889 8.73159 37.8889 9.011C37.8889 9.33698 37.7515 9.61639 37.4765 9.75609L19.6065 19.6752C19.4691 19.7683 19.3316 19.8149 19.1941 19.8149ZM3.15694 9.1507L19.1941 18.0453L35.2313 9.1507L19.1941 1.74632L3.15694 9.1507Z" fill="white"/>
<path d="M28.1284 14.8787C27.991 14.8787 27.8535 14.8321 27.7619 14.7855L10.7166 5.70468C10.3042 5.47184 10.1668 5.00616 10.3959 4.58704C10.625 4.16793 11.0832 4.02822 11.4956 4.26106L28.5408 13.3419C28.9532 13.5747 29.0907 14.0404 28.8616 14.4595C28.7241 14.6924 28.4492 14.8787 28.1284 14.8787Z" fill="white"/>
<path d="M19.1934 40.4447C19.0559 40.4447 18.9185 40.3981 18.781 40.3516C18.5519 40.1653 18.4144 39.9324 18.4144 39.6065V18.9766C18.4144 18.6972 18.5977 18.4178 18.8268 18.2315L36.6969 8.31245C36.926 8.17275 37.2468 8.17275 37.5217 8.31245C37.7508 8.45216 37.9341 8.73157 37.9341 9.01098V29.6408C37.9341 29.9202 37.7508 30.1996 37.5217 30.3859L19.6516 40.305C19.4683 40.3981 19.3308 40.4447 19.1934 40.4447ZM20.0182 19.4889V38.256L36.2845 29.2217V10.5012L20.0182 19.4889Z" fill="white"/>
<path d="M19.1935 40.4446C19.056 40.4446 18.9186 40.3981 18.8269 40.3515L0.95694 30.4324C0.682017 30.2927 0.544556 30.0133 0.544556 29.7339V9.10406C0.544556 8.82465 0.682017 8.54524 0.95694 8.40553C1.18604 8.26582 1.50679 8.26582 1.78171 8.40553L19.6517 18.3246C19.9266 18.4643 20.0641 18.7437 20.0641 19.0697V39.6064C20.0641 39.8858 19.9266 40.1652 19.6517 40.3049C19.5142 40.3981 19.331 40.4446 19.1935 40.4446ZM2.14827 29.2216L18.4146 38.2559V19.4888L2.14827 10.5011V29.2216Z" fill="white"/>
<path d="M31.3817 28.0574C30.9235 28.0574 30.5569 27.6848 30.5569 27.2191V18.1849C30.5569 17.8589 30.7402 17.5795 30.9693 17.4398C31.2442 17.3001 31.565 17.3001 31.7941 17.4863L34.2226 19.1162C34.5892 19.3491 34.6809 19.8613 34.4518 20.2804C34.2226 20.653 33.7186 20.7461 33.3062 20.5133L32.1148 19.7216V27.2657C32.2065 27.6848 31.8399 28.0574 31.3817 28.0574Z" fill="white"/>
<path d="M28.9532 22.2829C28.7699 22.2829 28.6325 22.2363 28.4492 22.0966C28.0826 21.8172 28.0368 21.3049 28.2659 20.9324L30.6944 17.626C30.9693 17.2535 31.4733 17.2069 31.8399 17.4397C32.2065 17.7192 32.2523 18.2314 32.0232 18.604L29.5947 21.9103C29.4572 22.1897 29.1823 22.2829 28.9532 22.2829Z" fill="white"/>
<path d="M24.8751 31.3638C24.4169 31.3638 24.0503 30.9912 24.0503 30.5255V21.4913C24.0503 21.1653 24.2336 20.8859 24.4627 20.7462C24.7376 20.6065 25.0584 20.6065 25.2875 20.7928L27.716 22.4226C28.0826 22.6555 28.1743 23.1677 27.9452 23.5869C27.716 23.9594 27.212 24.0525 26.7996 23.8197L25.6082 23.028V30.5721C25.6999 30.9912 25.3333 31.3638 24.8751 31.3638Z" fill="white"/>
<path d="M22.447 25.5895C22.2637 25.5895 22.1262 25.5429 21.9429 25.4032C21.5764 25.1238 21.5306 24.6116 21.7597 24.239L24.1882 20.9327C24.4631 20.5601 24.9671 20.5135 25.3337 20.7464C25.7002 21.0258 25.746 21.5381 25.5169 21.9106L23.0885 25.217C22.951 25.4964 22.7219 25.5895 22.447 25.5895Z" fill="white"/>
</g>
<path d="M18.6496 19.8149C18.5121 19.8149 18.3747 19.7683 18.283 19.7217L0.412995 9.80266C0.138072 9.66296 0.000610352 9.38354 0.000610352 9.05757C0.000610352 8.73159 0.183893 8.45218 0.458816 8.35904L18.3288 0.0698527C18.5579 -0.0232842 18.787 -0.0232842 19.0161 0.0698527L36.8862 8.31247C37.1611 8.45218 37.3444 8.73159 37.3444 9.011C37.3444 9.33698 37.2069 9.61639 36.932 9.75609L19.062 19.6752C18.9245 19.7683 18.787 19.8149 18.6496 19.8149ZM2.61238 9.1507L18.6496 18.0453L34.6868 9.1507L18.6496 1.74632L2.61238 9.1507Z" fill="white"/>
<path d="M27.5839 14.8787C27.4464 14.8787 27.309 14.8321 27.2173 14.7855L10.1721 5.70468C9.75969 5.47184 9.62223 5.00616 9.85133 4.58704C10.0804 4.16793 10.5386 4.02822 10.951 4.26106L27.9963 13.3419C28.4086 13.5747 28.5461 14.0404 28.317 14.4595C28.1795 14.6924 27.9046 14.8787 27.5839 14.8787Z" fill="white"/>
<path d="M18.6488 40.4447C18.5114 40.4447 18.3739 40.3981 18.2364 40.3516C18.0073 40.1653 17.8699 39.9324 17.8699 39.6065V18.9766C17.8699 18.6972 18.0532 18.4178 18.2823 18.2315L36.1524 8.31245C36.3815 8.17275 36.7022 8.17275 36.9771 8.31245C37.2062 8.45216 37.3895 8.73157 37.3895 9.01098V29.6408C37.3895 29.9202 37.2062 30.1996 36.9771 30.3859L19.107 40.305C18.9238 40.3981 18.7863 40.4447 18.6488 40.4447ZM19.4736 19.4889V38.256L35.74 29.2217V10.5012L19.4736 19.4889Z" fill="white"/>
<path d="M18.6489 40.4446C18.5115 40.4446 18.374 40.3981 18.2824 40.3515L0.412384 30.4324C0.137461 30.2927 0 30.0133 0 29.7339V9.10406C0 8.82465 0.137461 8.54524 0.412384 8.40553C0.641487 8.26582 0.96223 8.26582 1.23715 8.40553L19.1071 18.3246C19.3821 18.4643 19.5195 18.7437 19.5195 19.0697V39.6064C19.5195 39.8858 19.3821 40.1652 19.1071 40.3049C18.9697 40.3981 18.7864 40.4446 18.6489 40.4446ZM1.60372 29.2216L17.87 38.2559V19.4888L1.60372 10.5011V29.2216Z" fill="white"/>
<path d="M30.8371 28.0574C30.3789 28.0574 30.0123 27.6848 30.0123 27.2191V18.1849C30.0123 17.8589 30.1956 17.5795 30.4247 17.4398C30.6997 17.3001 31.0204 17.3001 31.2495 17.4863L33.6781 19.1162C34.0447 19.3491 34.1363 19.8613 33.9072 20.2804C33.6781 20.653 33.174 20.7461 32.7616 20.5133L31.5703 19.7216V27.2657C31.6619 27.6848 31.2953 28.0574 30.8371 28.0574Z" fill="white"/>
<path d="M28.4086 22.2829C28.2254 22.2829 28.0879 22.2363 27.9046 22.0966C27.5381 21.8172 27.4922 21.3049 27.7213 20.9324L30.1498 17.626C30.4247 17.2535 30.9288 17.2069 31.2953 17.4397C31.6619 17.7192 31.7077 18.2314 31.4786 18.604L29.0501 21.9103C28.9127 22.1897 28.6377 22.2829 28.4086 22.2829Z" fill="white"/>
<path d="M24.3305 31.3638C23.8723 31.3638 23.5057 30.9912 23.5057 30.5255V21.4913C23.5057 21.1653 23.689 20.8859 23.9181 20.7462C24.1931 20.6065 24.5138 20.6065 24.7429 20.7928L27.1715 22.4226C27.5381 22.6555 27.6297 23.1677 27.4006 23.5869C27.1715 23.9594 26.6675 24.0525 26.2551 23.8197L25.0637 23.028V30.5721C25.1553 30.9912 24.7888 31.3638 24.3305 31.3638Z" fill="white"/>
<path d="M21.9024 25.5895C21.7191 25.5895 21.5817 25.5429 21.3984 25.4032C21.0318 25.1238 20.986 24.6116 21.2151 24.239L23.6436 20.9327C23.9185 20.5601 24.4225 20.5135 24.7891 20.7464C25.1557 21.0258 25.2015 21.5381 24.9724 21.9106L22.5439 25.217C22.4064 25.4964 22.1773 25.5895 21.9024 25.5895Z" fill="white"/>
</svg>
