<svg width="255" height="249" viewBox="0 0 255 249" fill="none" xmlns="http://www.w3.org/2000/svg">
<g opacity="0.5">
<path opacity="0.5" d="M164.721 25.6544C159.84 20.7688 152.722 18.8243 144.666 20.1798C137.14 21.4484 129.611 25.5147 123.477 31.6313C121.698 33.4178 120.202 35.4652 119.042 37.7025C117.913 35.3908 116.43 33.2687 114.646 31.4123C108.592 25.1938 101.149 20.9991 93.6456 19.5983C85.6277 18.0881 78.48 19.923 73.5157 24.7256C68.5513 29.5283 66.4967 36.6 67.7454 44.627C68.9108 52.1783 72.8611 59.7296 78.9152 65.9556C91.6212 79.0344 116.977 73.926 118.051 73.6995L118.369 73.6353L119.345 73.8581C120.416 74.0997 145.677 79.6423 158.602 66.7863C164.751 60.6735 168.849 53.1713 170.147 45.6653C171.528 37.6497 169.602 30.5401 164.721 25.6544ZM113.757 66.1482C107.631 66.9713 92.3591 68.0889 84.7763 60.2846C79.9028 55.2668 76.713 49.2635 75.8049 43.3886C74.9725 38.0272 76.1833 33.47 79.1876 30.5515C80.3662 29.4219 81.7757 28.5602 83.3195 28.0255C85.8471 27.1307 88.8553 26.9646 92.1434 27.58C98.0007 28.6712 103.911 32.0391 108.792 37.0569C116.375 44.88 114.771 60.077 113.757 66.1482ZM162.106 44.2759C161.096 50.1357 157.804 56.0786 152.843 61.0133C145.124 68.6892 129.876 67.3073 123.768 66.3785C122.857 60.2771 121.521 45.0575 129.236 37.3816C134.197 32.4468 140.164 29.1847 146.04 28.1917C149.339 27.6367 152.344 27.8519 154.856 28.7882C156.39 29.3498 157.784 30.236 158.943 31.3859C161.906 34.3648 163.029 38.9409 162.106 44.2835V44.2759Z" fill="url(#paint0_linear)"/>
</g>
<path d="M120.503 72.058L118.089 72.5677C117.064 72.7829 92.8018 77.6686 80.6293 65.1561C74.8477 59.2057 71.0525 51.9602 69.9363 44.7676C68.7444 37.0729 70.693 30.3031 75.4531 25.7082C80.2131 21.1132 87.0467 19.3727 94.7165 20.7999C101.906 22.1402 109.034 26.1537 114.812 32.1041C126.966 44.6204 121.313 68.6637 121.063 69.6793L120.503 72.058ZM84.8558 28.8684C83.3785 29.3798 82.0296 30.2041 80.9018 31.2848C78.0185 34.0712 76.8682 38.4321 77.6628 43.5632C78.5331 49.1851 81.5828 54.9279 86.2483 59.7305C93.5019 67.1987 108.115 66.1491 113.976 65.3411C114.948 59.5228 116.477 44.9791 109.224 37.5108C104.558 32.7082 98.9014 29.4876 93.2975 28.4493C90.157 27.8528 87.2775 28.0151 84.8558 28.8684Z" fill="#8BC63E"/>
<path d="M116.923 72.1633L116.375 69.762C116.144 68.7388 110.907 44.6011 123.276 32.3C129.157 26.4478 136.365 22.5589 143.565 21.3507C151.258 20.0519 158.069 21.9133 162.742 26.5875C167.415 31.2617 169.254 38.0655 167.929 45.7376C166.688 52.9113 162.764 60.085 156.884 65.9486C144.523 78.2307 120.352 72.9448 119.326 72.7108L116.923 72.1633ZM153.312 29.5929C150.906 28.6943 148.015 28.4866 144.878 29.019C139.256 29.9667 133.527 33.0892 128.797 37.8125C121.415 45.1561 122.69 59.7112 123.564 65.5597C129.41 66.447 143.997 67.7722 151.386 60.4248C156.135 55.7015 159.283 50.0154 160.252 44.4085C161.137 39.2925 160.063 34.9128 157.225 32.0773C156.115 30.9767 154.778 30.1291 153.309 29.5929H153.312Z" fill="#8BC63E"/>
<g opacity="0.5">
<path opacity="0.5" d="M235.224 65.729H0V112.694H12.2217V248.621H223.003V112.694H235.224V65.729Z" fill="url(#paint1_linear)"/>
</g>
<path d="M220.335 79.9302H14.8892V246.311H220.335V79.9302Z" fill="#E4E4E4"/>
<path d="M136.966 109.64H98.2578V246.311H136.966V109.64Z" fill="#8BC63E"/>
<path opacity="0.1" d="M220.335 71.0151H14.8892V112.611H220.335V71.0151Z" fill="black"/>
<path d="M232.243 68.0435H2.97803V109.64H232.243V68.0435Z" fill="#E4E4E4"/>
<path d="M136.966 68.0435H98.2578V109.64H136.966V68.0435Z" fill="#8BC63E"/>
<path d="M254.832 71.7818C254.106 69.6863 246.16 75.5877 246.16 75.5877L244.328 75.4782L240.806 72.2236L243.265 69.7694L222.609 52.1032C222.058 51.6316 221.414 51.2802 220.719 51.0715C220.024 50.8628 219.292 50.8014 218.572 50.8912L201.405 53.032C201.333 52.0503 200.724 50.8836 199.869 49.6943C198.109 46.8135 194.401 43.5551 193.027 42.396L190.935 28.3091L192.713 25.6472C192.385 25.5574 192.061 25.449 191.745 25.3225L192.123 24.76L191.983 24.7222L192.161 24.5183H192.138L196.592 19.391C196.92 19.0109 197.089 18.5185 197.061 18.0172C197.034 17.5159 196.813 17.0448 196.444 16.7027L186.527 9.19678C186.828 8.48037 186.973 7.70802 186.951 6.93139C187.026 5.42114 186.36 3.91088 184.113 2.80084C182.723 2.14024 181.267 1.62769 179.769 1.2717C177.301 0.637423 174.707 0.675238 172.258 1.3812L172.129 1.23017C169.076 -2.25097 165.076 2.74043 164.921 2.94809L149.279 20.316C148.852 20.9889 148.695 21.7973 148.838 22.5808C148.981 23.3642 149.414 24.0653 150.051 24.5448L158.33 30.7406L158.303 30.7934L158.773 31.1446C158.417 31.8393 157.944 32.3037 157.312 32.3717L158.58 33.006C158.38 33.145 158.148 33.232 157.906 33.2589L163.71 36.1549C163.71 39.1754 164.021 52.9451 168.928 59.7111C169.432 60.5388 170.03 61.3053 170.711 61.9953C170.711 61.9953 171.127 61.7688 171.891 61.4026L172.769 63.1507C173.732 65.0732 175.276 66.6446 177.184 67.6421C179.092 68.6397 181.266 69.0127 183.398 68.7084L210.641 64.8233L210.354 65.6879L210.509 65.6653L201.677 92.0948L203.138 92.5818L203.111 92.6347L203.316 92.7215L201.48 96.1838L195.699 100.62C195.699 100.62 212.597 109.074 214.376 107.741C216.154 106.408 208.148 100.639 208.148 100.639L207.701 98.8645L209.646 94.7679L211.277 95.3116L224.373 69.1691L224.819 68.2818L233.673 79.3406L236.17 76.8487L236.439 77.1206L236.462 77.0979L239.924 80.5942L242.433 87.4281C242.433 87.4281 255.57 73.8735 254.832 71.7818ZM186.088 20.9579L185.914 20.7578C184.521 22.4011 182.821 23.7579 180.908 24.7524V23.2988L181.006 23.212V22.5814C182.323 21.3721 183.276 19.8199 183.757 18.0995C184.237 16.3791 184.227 14.5589 183.727 12.844L189.474 17.2578L186.088 20.9579ZM166.56 4.57162L166.42 4.43191L166.56 4.56784V4.57162ZM161.962 13.8144C161.925 14.2725 161.909 14.7356 161.917 15.2038C161.907 15.8815 161.945 16.559 162.03 17.2313C162.326 19.5798 163.166 21.4978 164.906 22.4115C166.42 23.2044 167.415 23.1667 168.051 22.6192L168.119 22.6796C168.171 23.5991 168.411 24.4982 168.822 25.3225C165.58 24.6473 162.484 23.4035 159.677 21.6488C159.677 21.6488 159.677 21.7659 159.7 21.9773L157.32 19.6024L161.962 13.8144Z" fill="url(#paint2_linear)"/>
<path d="M205.378 87.6626L201.488 94.9911L207.534 97.5774L211.424 89.3881L205.378 87.6626Z" fill="#FDA57D"/>
<path d="M207.535 97.577L207.966 99.3025C207.966 99.3025 215.742 104.906 214.02 106.201C212.299 107.496 195.858 99.3025 195.858 99.3025L201.473 94.9907L207.535 97.577Z" fill="#333333"/>
<path opacity="0.1" d="M211.008 90.1464L204.893 88.1113L203.073 91.5396L209.12 94.1297L211.008 90.1464Z" fill="black"/>
<path d="M233.003 73.9344L238.842 79.832L243.129 74.8519L236.466 68.6938L233.003 73.9344Z" fill="#FDA57D"/>
<path opacity="0.1" d="M236.704 68.9805L233.242 74.2211L235.455 76.46L239.947 71.9783L236.704 68.9805Z" fill="black"/>
<path d="M243.133 74.8524L244.911 74.9581C244.911 74.9581 252.6 69.2381 253.319 71.2693C254.038 73.3006 241.286 86.4739 241.286 86.4739L238.85 79.8363L243.133 74.8524Z" fill="#333333"/>
<path d="M187.761 30.7408L196.736 20.3805C197.054 20.011 197.216 19.5333 197.189 19.0472C197.163 18.561 196.948 18.104 196.592 17.7715L177.064 2.99365L174.688 6.68623L189.823 18.3114L183.39 25.3417L187.761 30.7408Z" fill="#FDA57D"/>
<path opacity="0.1" d="M186.731 21.7134L183.59 25.1492L187.953 30.5522L192.452 25.372C190.256 24.675 188.283 23.4131 186.731 21.7134Z" fill="black"/>
<path d="M161.697 32.9905L151.538 25.3712C150.919 24.9066 150.497 24.2267 150.357 23.4665C150.217 22.7063 150.368 21.9212 150.781 21.2671L165.985 4.38623L169.095 7.48981L158.595 20.5686L164.808 26.7871L161.697 32.9905Z" fill="#FDA57D"/>
<path opacity="0.1" d="M159.556 31.4618L161.217 32.7078L164.327 26.5044L160.422 22.6079C160.505 23.9294 160.74 29.0567 159.556 31.4618Z" fill="black"/>
<path d="M211.008 63.1018L201.681 91.0188L211.008 94.1224L226.552 63.1018L214.118 60.002L211.008 63.1018Z" fill="#4D8AF0"/>
<path opacity="0.1" d="M210.577 63.9621L210.111 65.3591L219.904 63.9621L223.729 68.7345L226.121 63.9621L213.683 60.8623L210.577 63.9621Z" fill="black"/>
<path d="M165.969 4.42003C165.969 4.42003 169.954 -0.70351 172.977 2.74365C176 6.19082 168.213 6.62123 168.213 6.62123L165.969 4.42003Z" fill="#FDA57D"/>
<path d="M170.593 56.8979L173.598 62.8974C174.533 64.7637 176.034 66.2889 177.886 67.2572C179.739 68.2255 181.85 68.5878 183.92 68.2928L220.331 63.1013L232.769 78.6078L242.096 69.3009L222.042 52.1406C221.507 51.6825 220.882 51.3411 220.207 51.1383C219.531 50.9354 218.821 50.8756 218.122 50.9626L170.593 56.8979Z" fill="#4D8AF0"/>
<path opacity="0.1" d="M161.455 23.4342C161.455 23.4342 162.273 33.5076 159.166 33.855L165.383 36.9586C165.383 36.9586 165.038 55.2251 171.6 61.7759C171.6 61.7759 183.708 55.2289 196.471 55.5725C209.233 55.9161 193.36 43.1657 193.36 43.1657L191.26 29.0448L192.99 26.4585C190.645 25.7594 188.547 24.414 186.935 22.5771C185.206 24.733 181.26 27.6554 177.809 27.6554H176.322C171.202 27.6554 165.757 26.6246 161.444 23.8797L161.455 23.4342Z" fill="black"/>
<path d="M160.88 22.5742C160.88 22.5742 161.697 32.6476 158.591 32.995L164.808 36.0948C164.808 36.0948 164.463 54.3614 171.024 60.9121C171.024 60.9121 183.133 54.3651 195.895 54.7087C208.658 55.0523 192.785 42.3019 192.785 42.3019L190.685 28.1811L192.414 25.5947C190.07 24.8957 187.972 23.5502 186.36 21.7134C184.631 23.8693 180.685 26.7916 177.234 26.7916H175.747C170.491 26.7928 165.339 25.3324 160.869 22.5742H160.88Z" fill="#3AD29F"/>
<path d="M169.068 19.7346V23.1969C169.068 24.9513 169.767 26.6339 171.009 27.8749L178.392 35.2412L180.851 30.3328C181.279 29.4782 181.502 28.5359 181.502 27.5804V19.7271L169.068 19.7346Z" fill="#FDA57D"/>
<path opacity="0.1" d="M169.163 23.7215C169.163 23.8499 169.163 23.9745 169.163 24.0991C170.872 25.6223 173.083 26.4642 175.374 26.4642C177.665 26.4642 179.877 25.6223 181.585 24.0991V20.2593H169.163V23.7215Z" fill="black"/>
<path d="M175.285 25.9381C180.436 25.9381 184.612 21.7713 184.612 16.6312C184.612 11.4911 180.436 7.32422 175.285 7.32422C170.134 7.32422 165.958 11.4911 165.958 16.6312C165.958 21.7713 170.134 25.9381 175.285 25.9381Z" fill="#FDA57D"/>
<path opacity="0.1" d="M169.068 14.0074H184.612C184.612 14.0074 190.829 7.80401 184.612 4.70044C183.262 4.058 181.848 3.55938 180.393 3.21283C170.934 0.819076 161.951 8.62333 163.165 18.2814C163.453 20.5468 164.274 22.4346 165.958 23.3106C172.523 26.7615 169.068 14.0074 169.068 14.0074Z" fill="black"/>
<path d="M169.068 13.5762H184.612C184.612 13.5762 190.829 7.37286 184.612 4.26928C183.262 3.62685 181.848 3.12822 180.393 2.78168C170.934 0.387924 161.951 8.19217 163.165 17.8503C163.453 20.1156 164.274 22.0035 165.958 22.8794C172.523 26.3303 169.068 13.5762 169.068 13.5762Z" fill="#333333"/>
<path d="M169.522 18.2617C169.999 18.2617 170.385 17.5856 170.385 16.7515C170.385 15.9174 169.999 15.2412 169.522 15.2412C169.046 15.2412 168.66 15.9174 168.66 16.7515C168.66 17.5856 169.046 18.2617 169.522 18.2617Z" fill="#FDA57D"/>
<path opacity="0.1" d="M164.77 35.9352L165.201 34.6401L166.495 35.5048L164.77 35.9352Z" fill="black"/>
<path opacity="0.1" d="M192.808 42.3057C192.808 42.3057 188.104 44.571 186.807 46.7118L192.808 42.3057Z" fill="black"/>
<path opacity="0.1" d="M190.689 28.1772L190.258 29.4685L189.391 28.1772H190.689Z" fill="black"/>
<path d="M169.068 13.5762H184.612C184.612 13.5762 190.829 7.37286 184.612 4.26928C183.262 3.62685 181.848 3.12822 180.393 2.78168C170.934 0.387924 161.951 8.19217 163.165 17.8503C163.453 20.1156 164.274 22.0035 165.958 22.8794C172.523 26.3303 169.068 13.5762 169.068 13.5762Z" fill="#333333"/>
<defs>
<linearGradient id="paint0_linear" x1="118.986" y1="75.2513" x2="118.986" y2="19.0848" gradientUnits="userSpaceOnUse">
<stop stop-color="#808080" stop-opacity="0.25"/>
<stop offset="0.54" stop-color="#808080" stop-opacity="0.12"/>
<stop offset="1" stop-color="#808080" stop-opacity="0.1"/>
</linearGradient>
<linearGradient id="paint1_linear" x1="98803.7" y1="147223" x2="98803.7" y2="58629.6" gradientUnits="userSpaceOnUse">
<stop stop-color="#808080" stop-opacity="0.25"/>
<stop offset="0.54" stop-color="#808080" stop-opacity="0.12"/>
<stop offset="1" stop-color="#808080" stop-opacity="0.1"/>
</linearGradient>
<linearGradient id="paint2_linear" x1="86264.5" y1="50871.4" x2="86264.5" y2="20045.8" gradientUnits="userSpaceOnUse">
<stop stop-color="#808080" stop-opacity="0.25"/>
<stop offset="0.54" stop-color="#808080" stop-opacity="0.12"/>
<stop offset="1" stop-color="#808080" stop-opacity="0.1"/>
</linearGradient>
</defs>
</svg>
