<svg width="32" height="32" viewBox="0 0 32 32" fill="none" xmlns="http://www.w3.org/2000/svg">
<path fill-rule="evenodd" clip-rule="evenodd" d="M9.47529 2.95029C8.89845 2.95029 8.34523 3.17944 7.93734 3.58734C7.52944 3.99523 7.30029 4.54845 7.30029 5.12529C7.30029 5.70214 7.52944 6.25536 7.93734 6.66325C8.34523 7.07114 8.89845 7.30029 9.47529 7.30029H14.0486C13.8716 6.83718 13.6475 6.32795 13.3704 5.82408C12.4584 4.16589 11.2064 2.95029 9.47529 2.95029ZM4.40029 5.12529C4.40029 5.88486 4.57057 6.62687 4.88999 7.30029H1.50029C0.69948 7.30029 0.050293 7.94948 0.050293 8.75029V16.0003C0.050293 16.8011 0.69948 17.4503 1.50029 17.4503H2.95029V30.5003C2.95029 31.3011 3.59948 31.9503 4.40029 31.9503H16.0003H27.6003C28.4011 31.9503 29.0503 31.3011 29.0503 30.5003V17.4503H30.5003C31.3011 17.4503 31.9503 16.8011 31.9503 16.0003V8.75029C31.9503 7.94948 31.3011 7.30029 30.5003 7.30029H27.1106C27.43 6.62687 27.6003 5.88486 27.6003 5.12529C27.6003 3.77932 27.0656 2.48847 26.1139 1.53673C25.1621 0.584979 23.8713 0.050293 22.5253 0.050293C19.1815 0.050293 17.1709 2.45969 16.0892 4.42651C16.059 4.48134 16.0294 4.53614 16.0003 4.59086C15.9712 4.53614 15.9416 4.48134 15.9114 4.42651C14.8297 2.45969 12.8191 0.050293 9.47529 0.050293C8.12932 0.050293 6.83847 0.584979 5.88673 1.53673C4.93498 2.48847 4.40029 3.77932 4.40029 5.12529ZM17.952 7.30029H22.5253C23.1022 7.30029 23.6554 7.07114 24.0633 6.66325C24.4712 6.25536 24.7003 5.70214 24.7003 5.12529C24.7003 4.54845 24.4712 3.99523 24.0633 3.58734C23.6554 3.17944 23.1022 2.95029 22.5253 2.95029C20.7942 2.95029 19.5422 4.16589 18.6302 5.82408C18.3531 6.32795 18.129 6.83718 17.952 7.30029ZM17.4503 10.2003V14.5503H27.6003H29.0503V10.2003H22.5253H17.4503ZM9.47529 10.2003H14.5503V14.5503H4.40029H2.95029V10.2003H9.47529ZM17.4503 29.0503H26.1503V17.4503H17.4503V29.0503ZM14.5503 17.4503V29.0503H5.85029V17.4503H14.5503Z" fill="white"/>
</svg>
