<svg width="39" height="46" viewBox="0 0 39 46" fill="none" xmlns="http://www.w3.org/2000/svg">
<path d="M21.88 45.608H16.84C16.456 45.608 16.12 45.272 16.12 44.888V42.584C15.352 42.344 14.584 42.056 13.912 41.672L12.28 43.304C11.992 43.592 11.56 43.592 11.272 43.304L7.71995 39.752C7.43195 39.464 7.43195 39.032 7.71995 38.744L9.35195 37.112C8.96795 36.392 8.67995 35.672 8.43995 34.904H6.13595C5.75195 34.904 5.41595 34.568 5.41595 34.184V29.192C5.41595 28.808 5.75195 28.472 6.13595 28.472H8.96795V29.864H6.80795V33.464H8.96795C9.30395 33.464 9.59195 33.704 9.63995 33.992C9.87995 35 10.264 35.96 10.84 36.824C11.032 37.112 10.984 37.448 10.744 37.688L9.25595 39.224L11.8 41.768L13.336 40.28C13.576 40.04 13.912 39.992 14.2 40.184C15.064 40.712 16.024 41.096 17.032 41.384C17.368 41.48 17.56 41.72 17.56 42.056V44.216H21.16V42.056C21.16 41.72 21.4 41.432 21.688 41.384C22.696 41.144 23.656 40.76 24.52 40.184C24.808 39.992 25.144 40.04 25.384 40.28L26.92 41.768L29.464 39.224L27.976 37.688C27.7359 37.448 27.688 37.112 27.88 36.824C28.408 35.96 28.792 35 29.08 33.992C29.176 33.656 29.416 33.464 29.752 33.464H31.912V29.864H29.752V28.472H32.584C32.968 28.472 33.304 28.808 33.304 29.192V34.232C33.304 34.616 32.968 34.952 32.584 34.952H30.28C30.04 35.72 29.7519 36.488 29.368 37.16L31 38.792C31.288 39.08 31.288 39.512 31 39.8L27.448 43.352C27.16 43.64 26.728 43.64 26.44 43.352L24.808 41.72C24.088 42.104 23.368 42.392 22.6 42.632V44.936C22.6 45.128 22.504 45.32 22.408 45.416C22.312 45.512 22.072 45.608 21.88 45.608Z" fill="white"/>
<path d="M19.384 37.304C16.264 37.304 13.768 34.808 13.768 31.688C13.768 30.584 14.104 29.528 14.68 28.568L15.832 29.336C15.352 30.008 15.112 30.824 15.112 31.64C15.112 33.944 16.984 35.864 19.336 35.864C21.64 35.864 23.56 33.992 23.56 31.64C23.56 30.776 23.32 29.96 22.84 29.288L23.992 28.52C24.616 29.432 24.952 30.536 24.952 31.64C25 34.808 22.456 37.304 19.384 37.304Z" fill="white"/>
<path d="M37.6239 27.704H1.09592C0.711916 27.704 0.375916 27.368 0.375916 26.984V22.328C0.375916 22.04 0.519916 21.8 0.759916 21.704L2.91992 20.696C2.72792 18.104 2.43992 6.82398 11.9919 3.79998C12.0399 3.79998 12.1359 3.75198 12.1839 3.75198H14.3919V5.14398H12.2799C2.77592 8.21598 4.26392 20.456 4.31192 20.984C4.35992 21.272 4.16792 21.608 3.92792 21.704L1.71992 22.712V26.216H36.8079V22.712L34.5999 21.704C34.3119 21.56 34.1679 21.272 34.2159 20.984C34.2639 20.456 35.7999 8.21598 26.2479 5.14398H24.1359V3.79998H26.3439C26.3919 3.79998 26.4879 3.79998 26.5359 3.84798C36.0879 6.87198 35.7999 18.152 35.6079 20.744L37.7679 21.752C38.0079 21.848 38.1519 22.136 38.1519 22.376V27.032C38.3439 27.368 38.0079 27.704 37.6239 27.704Z" fill="white"/>
<path d="M24.9519 9.60798H23.5599V2.02398H15.2079V9.60798H13.8159V1.30398C13.8159 0.919984 14.1519 0.583984 14.5359 0.583984H24.2799C24.6639 0.583984 24.9999 0.919984 24.9999 1.30398V9.60798H24.9519Z" fill="white"/>
<path d="M24.2799 20.408H3.7359V21.8H24.2799V20.408Z" fill="white"/>
<path d="M34.9839 20.408H29.9919V21.8H34.9839V20.408Z" fill="white"/>
<path d="M7.72 15.56L6.328 15.32C7.096 11.144 10.216 9.70397 10.312 9.60797L10.888 10.904L10.6 10.28L10.888 10.904C10.792 10.904 8.344 12.104 7.72 15.56Z" fill="white"/>
<path d="M21.504 45.024H16.464C16.08 45.024 15.744 44.688 15.744 44.304V42C14.976 41.76 14.208 41.472 13.536 41.088L11.904 42.72C11.616 43.008 11.184 43.008 10.896 42.72L7.34404 39.168C7.05604 38.88 7.05604 38.448 7.34404 38.16L8.97604 36.528C8.59204 35.808 8.30404 35.088 8.06404 34.32H5.76004C5.37604 34.32 5.04004 33.984 5.04004 33.6V28.608C5.04004 28.224 5.37604 27.888 5.76004 27.888H8.59204V29.28H6.43204V32.88H8.59204C8.92804 32.88 9.21604 33.12 9.26404 33.408C9.50404 34.416 9.88804 35.376 10.464 36.24C10.656 36.528 10.608 36.864 10.368 37.104L8.88004 38.64L11.424 41.184L12.96 39.696C13.2 39.456 13.536 39.408 13.824 39.6C14.688 40.128 15.648 40.512 16.656 40.8C16.992 40.896 17.184 41.136 17.184 41.472V43.632H20.784V41.472C20.784 41.136 21.024 40.848 21.312 40.8C22.32 40.56 23.28 40.176 24.144 39.6C24.432 39.408 24.768 39.456 25.008 39.696L26.544 41.184L29.088 38.64L27.6 37.104C27.36 36.864 27.312 36.528 27.504 36.24C28.032 35.376 28.416 34.416 28.704 33.408C28.8 33.072 29.04 32.88 29.376 32.88H31.536V29.28H29.376V27.888H32.208C32.592 27.888 32.928 28.224 32.928 28.608V33.648C32.928 34.032 32.592 34.368 32.208 34.368H29.904C29.664 35.136 29.376 35.904 28.992 36.576L30.624 38.208C30.912 38.496 30.912 38.928 30.624 39.216L27.072 42.768C26.784 43.056 26.352 43.056 26.064 42.768L24.432 41.136C23.712 41.52 22.992 41.808 22.224 42.048V44.352C22.224 44.544 22.128 44.736 22.032 44.832C21.936 44.928 21.696 45.024 21.504 45.024Z" fill="white"/>
<path d="M19.0081 36.72C15.8881 36.72 13.3921 34.224 13.3921 31.104C13.3921 30 13.7281 28.944 14.3041 27.984L15.4561 28.752C14.9761 29.424 14.7361 30.24 14.7361 31.056C14.7361 33.36 16.6081 35.28 18.9601 35.28C21.2641 35.28 23.1841 33.408 23.1841 31.056C23.1841 30.192 22.9441 29.376 22.4641 28.704L23.6161 27.936C24.2401 28.848 24.5761 29.952 24.5761 31.056C24.6241 34.224 22.0801 36.72 19.0081 36.72Z" fill="white"/>
<path d="M37.248 27.12H0.72C0.336 27.12 0 26.784 0 26.4V21.744C0 21.456 0.144 21.216 0.384 21.12L2.544 20.112C2.352 17.52 2.064 6.24 11.616 3.216C11.664 3.216 11.76 3.168 11.808 3.168H14.016V4.56H11.904C2.4 7.632 3.888 19.872 3.936 20.4C3.984 20.688 3.792 21.024 3.552 21.12L1.344 22.128V25.632H36.432V22.128L34.224 21.12C33.936 20.976 33.792 20.688 33.84 20.4C33.888 19.872 35.424 7.632 25.872 4.56H23.76V3.216H25.968C26.016 3.216 26.112 3.216 26.16 3.264C35.712 6.288 35.424 17.568 35.232 20.16L37.392 21.168C37.632 21.264 37.776 21.552 37.776 21.792V26.448C37.968 26.784 37.632 27.12 37.248 27.12Z" fill="white"/>
<path d="M24.576 9.024H23.184V1.44H14.832V9.024H13.44V0.72C13.44 0.336 13.776 0 14.16 0H23.904C24.288 0 24.624 0.336 24.624 0.72V9.024H24.576Z" fill="white"/>
<path d="M23.904 19.824H3.35999V21.216H23.904V19.824Z" fill="white"/>
<path d="M34.608 19.824H29.616V21.216H34.608V19.824Z" fill="white"/>
<path d="M7.34409 14.976L5.95209 14.736C6.72009 10.56 9.84009 9.11999 9.93609 9.02399L10.5121 10.32L10.2241 9.69599L10.5121 10.32C10.4161 10.32 7.96809 11.52 7.34409 14.976Z" fill="white"/>
</svg>
