<svg width="27" height="28" viewBox="0 0 27 28" fill="none" xmlns="http://www.w3.org/2000/svg">
<path fill-rule="evenodd" clip-rule="evenodd" d="M21.8485 3.44853C22.1009 3.19619 22.4431 3.05442 22.8 3.05442C23.1569 3.05442 23.4991 3.19619 23.7515 3.44853C24.0038 3.70088 24.1456 4.04313 24.1456 4.4C24.1456 4.75687 24.0038 5.09913 23.7515 5.35148L12.5865 16.5164L10.0492 17.1508L10.6836 14.6135L21.8485 3.44853ZM22.8 0.654419C21.8066 0.654419 20.8539 1.04904 20.1515 1.75148L8.75147 13.1515C8.59768 13.3053 8.48858 13.498 8.43583 13.709L7.23583 18.509C7.1336 18.9179 7.25342 19.3505 7.55147 19.6485C7.84953 19.9466 8.28211 20.0664 8.69104 19.9642L13.491 18.7642C13.702 18.7114 13.8947 18.6023 14.0485 18.4485L25.4485 7.04853C26.151 6.3461 26.5456 5.3934 26.5456 4.4C26.5456 3.40661 26.151 2.45391 25.4485 1.75148C24.7461 1.04904 23.7934 0.654419 22.8 0.654419ZM3.6 3.2C2.64522 3.2 1.72955 3.57929 1.05442 4.25442C0.379284 4.92955 0 5.84522 0 6.8V23.6C0 24.5548 0.379285 25.4705 1.05442 26.1456C1.72955 26.8207 2.64522 27.2 3.6 27.2H20.4C21.3548 27.2 22.2705 26.8207 22.9456 26.1456C23.6207 25.4705 24 24.5548 24 23.6V15.2C24 14.5373 23.4627 14 22.8 14C22.1373 14 21.6 14.5373 21.6 15.2V23.6C21.6 23.9183 21.4736 24.2235 21.2485 24.4485C21.0235 24.6736 20.7183 24.8 20.4 24.8H3.6C3.28174 24.8 2.97652 24.6736 2.75147 24.4485C2.52643 24.2235 2.4 23.9183 2.4 23.6V6.8C2.4 6.48174 2.52643 6.17652 2.75147 5.95148C2.97652 5.72643 3.28174 5.6 3.6 5.6H12C12.6627 5.6 13.2 5.06275 13.2 4.4C13.2 3.73726 12.6627 3.2 12 3.2H3.6Z" fill="#8CAEC5"/>
</svg>
