<svg width="18" height="24" viewBox="0 0 18 24" fill="none" xmlns="http://www.w3.org/2000/svg">
<path fill-rule="evenodd" clip-rule="evenodd" d="M13.8992 2.36397L11.005 5.25816C9.8702 4.46517 8.48942 4 7 4C3.13401 4 0 7.13401 0 11C0 14.5265 2.60771 17.4439 6 17.9291V20H5C4.44772 20 4 20.4477 4 21C4 21.5523 4.44772 22 5 22H6V23C6 23.5523 6.44772 24 7 24C7.55228 24 8 23.5523 8 23V22H9C9.55229 22 10 21.5523 10 21C10 20.4477 9.55228 20 9 20H8V17.9291C11.3923 17.4439 14 14.5265 14 11C14 9.34507 13.4257 7.82427 12.4655 6.62603L15.3138 3.77778L15.3138 7.26347C15.3138 7.81575 15.7615 8.26347 16.3138 8.26347C16.8661 8.26347 17.3138 7.81575 17.3138 7.26347L17.3138 1.36397C17.3138 1.19297 17.2708 1.032 17.1952 0.891233C17.1888 0.879263 17.1821 0.867396 17.1751 0.855641C17.1332 0.784626 17.0817 0.717682 17.0207 0.656663C16.8203 0.456239 16.5559 0.358677 16.2933 0.363974L10.4143 0.363975C9.86199 0.363975 9.41428 0.81169 9.41428 1.36398C9.41428 1.91626 9.86199 2.36398 10.4143 2.36397L13.8992 2.36397ZM7 16C9.76142 16 12 13.7614 12 11C12 8.23858 9.76142 6 7 6C4.23858 6 2 8.23858 2 11C2 13.7614 4.23858 16 7 16Z" fill="#8CAEC5"/>
</svg>
