<svg width="28" height="18" viewBox="0 0 28 18" fill="none" xmlns="http://www.w3.org/2000/svg">
<path d="M25.6895 2.56055C26.4368 3.30794 27.0065 4.1556 27.3984 5.10352C27.7904 6.05143 27.9909 7.05859 28 8.125C28 8.44401 27.9909 8.82682 27.9727 9.27344C27.9544 9.72005 27.918 10.2031 27.8633 10.7227C27.8086 11.2422 27.722 11.7754 27.6035 12.3223C27.485 12.8691 27.3346 13.4115 27.1523 13.9492C26.8789 14.7331 26.5599 15.3711 26.1953 15.8633C25.8307 16.3555 25.4525 16.7428 25.0605 17.0254C24.6686 17.3079 24.2721 17.4993 23.8711 17.5996C23.4701 17.6999 23.0964 17.75 22.75 17.75C22.4492 17.75 22.1758 17.6999 21.9297 17.5996C21.6836 17.4993 21.4466 17.3626 21.2188 17.1895C20.9909 17.0163 20.7812 16.8294 20.5898 16.6289C20.3984 16.4284 20.2025 16.2096 20.002 15.9727C19.8105 15.7539 19.6237 15.5443 19.4414 15.3438C19.2591 15.1432 19.0632 14.9655 18.8535 14.8105C18.6439 14.6556 18.4342 14.5234 18.2246 14.4141C18.015 14.3047 17.7689 14.25 17.4863 14.25H10.5137C10.2493 14.2591 10.0078 14.3138 9.78906 14.4141C9.57031 14.5143 9.35612 14.6419 9.14648 14.7969C8.93685 14.9518 8.74544 15.1341 8.57227 15.3438C8.39909 15.5534 8.20768 15.763 7.99805 15.9727C7.80664 16.1914 7.61523 16.4056 7.42383 16.6152C7.23242 16.8249 7.02279 17.0163 6.79492 17.1895C6.56706 17.3626 6.33008 17.4948 6.08398 17.5859C5.83789 17.6771 5.5599 17.7318 5.25 17.75C4.90365 17.75 4.52995 17.6999 4.12891 17.5996C3.72786 17.4993 3.33138 17.3125 2.93945 17.0391C2.54753 16.7656 2.16927 16.3783 1.80469 15.877C1.4401 15.3757 1.12109 14.7331 0.847656 13.9492C0.665365 13.4206 0.519531 12.8828 0.410156 12.3359C0.300781 11.7891 0.214193 11.2513 0.150391 10.7227C0.0865885 10.194 0.0455729 9.71094 0.0273438 9.27344C0.00911458 8.83594 0 8.45312 0 8.125C0 7.06771 0.195964 6.0651 0.587891 5.11719C0.979818 4.16927 1.55404 3.31706 2.31055 2.56055C3.04883 1.81315 3.89648 1.24349 4.85352 0.851562C5.81055 0.459635 6.81771 0.259115 7.875 0.25H20.125C21.1823 0.25 22.1849 0.445964 23.1328 0.837891C24.0807 1.22982 24.9329 1.80404 25.6895 2.56055ZM25.498 13.375C25.6712 12.8919 25.8079 12.3906 25.9082 11.8711C26.0085 11.3516 26.0814 10.8548 26.127 10.3809C26.1725 9.9069 26.2044 9.4694 26.2227 9.06836C26.2409 8.66732 26.25 8.35286 26.25 8.125C26.25 7.27734 26.0905 6.48438 25.7715 5.74609C25.4525 5.00781 25.015 4.36068 24.459 3.80469C23.903 3.2487 23.2559 2.8112 22.5176 2.49219C21.7793 2.17318 20.9818 2.00911 20.125 2H7.875C7.02734 2 6.23438 2.15951 5.49609 2.47852C4.75781 2.79753 4.11068 3.23503 3.55469 3.79102C2.9987 4.34701 2.5612 4.99414 2.24219 5.73242C1.92318 6.4707 1.75911 7.26823 1.75 8.125C1.75 8.36198 1.75456 8.67643 1.76367 9.06836C1.77279 9.46029 1.80469 9.89323 1.85938 10.3672C1.91406 10.8411 1.99154 11.3424 2.0918 11.8711C2.19206 12.3997 2.32878 12.901 2.50195 13.375C2.72982 14.0312 2.98047 14.5371 3.25391 14.8926C3.52734 15.248 3.79167 15.5078 4.04688 15.6719C4.30208 15.8359 4.53906 15.9316 4.75781 15.959C4.97656 15.9863 5.14062 16 5.25 16C5.45052 16 5.66927 15.8815 5.90625 15.6445C6.14323 15.4076 6.39844 15.1341 6.67188 14.8242C6.89062 14.569 7.12305 14.3092 7.36914 14.0449C7.61523 13.7806 7.89323 13.5345 8.20312 13.3066C8.51302 13.0788 8.85482 12.8919 9.22852 12.7461C9.60221 12.6003 10.0169 12.5182 10.4727 12.5H17.5273C17.9831 12.5182 18.3978 12.6003 18.7715 12.7461C19.1452 12.8919 19.4824 13.0742 19.7832 13.293C20.084 13.5117 20.362 13.7578 20.6172 14.0312C20.8724 14.3047 21.1094 14.569 21.3281 14.8242C21.5924 15.125 21.8431 15.3939 22.0801 15.6309C22.3171 15.8678 22.5404 15.9909 22.75 16C22.8594 16 23.0189 15.9863 23.2285 15.959C23.4382 15.9316 23.6751 15.8359 23.9395 15.6719C24.2038 15.5078 24.4727 15.248 24.7461 14.8926C25.0195 14.5371 25.2702 14.0312 25.498 13.375ZM7 7.25H8.75V9H7V10.75H5.25V9H3.5V7.25H5.25V5.5H7V7.25ZM22.75 9C22.9961 9 23.224 9.04557 23.4336 9.13672C23.6432 9.22786 23.8255 9.35091 23.9805 9.50586C24.1354 9.66081 24.263 9.84766 24.3633 10.0664C24.4635 10.2852 24.5091 10.513 24.5 10.75C24.5 10.9961 24.4544 11.224 24.3633 11.4336C24.2721 11.6432 24.1491 11.8255 23.9941 11.9805C23.8392 12.1354 23.6523 12.263 23.4336 12.3633C23.2148 12.4635 22.987 12.5091 22.75 12.5C22.5039 12.5 22.276 12.4544 22.0664 12.3633C21.8568 12.2721 21.6745 12.1491 21.5195 11.9941C21.3646 11.8392 21.237 11.6523 21.1367 11.4336C21.0365 11.2148 20.9909 10.987 21 10.75C21 10.5039 21.0456 10.276 21.1367 10.0664C21.2279 9.85677 21.3509 9.67448 21.5059 9.51953C21.6608 9.36458 21.8477 9.23698 22.0664 9.13672C22.2852 9.03646 22.513 8.99089 22.75 9ZM19.25 5.5C19.4961 5.5 19.724 5.54557 19.9336 5.63672C20.1432 5.72786 20.3255 5.85091 20.4805 6.00586C20.6354 6.16081 20.763 6.34766 20.8633 6.56641C20.9635 6.78516 21.0091 7.01302 21 7.25C21 7.49609 20.9544 7.72396 20.8633 7.93359C20.7721 8.14323 20.6491 8.32552 20.4941 8.48047C20.3392 8.63542 20.1523 8.76302 19.9336 8.86328C19.7148 8.96354 19.487 9.00911 19.25 9C19.0039 9 18.776 8.95443 18.5664 8.86328C18.3568 8.77214 18.1745 8.64909 18.0195 8.49414C17.8646 8.33919 17.737 8.15234 17.6367 7.93359C17.5365 7.71484 17.4909 7.48698 17.5 7.25C17.5 7.00391 17.5456 6.77604 17.6367 6.56641C17.7279 6.35677 17.8509 6.17448 18.0059 6.01953C18.1608 5.86458 18.3477 5.73698 18.5664 5.63672C18.7852 5.53646 19.013 5.49089 19.25 5.5Z" fill="#8BC63E"/>
</svg>
