<svg width="30" height="27" viewBox="0 0 30 27" fill="none" xmlns="http://www.w3.org/2000/svg">
<path d="M17.6895 9.2445L17.4364 10.45H18.6682H27.2727C28.2299 10.45 29 11.2267 29 12.15V14.85C29 15.0609 28.961 15.2565 28.8843 15.4545L24.7731 24.9559L24.7731 24.9559L24.7692 24.9651C24.5146 25.57 23.9072 26 23.1818 26H10.9091C9.95188 26 9.18182 25.2233 9.18182 24.3V10.8C9.18182 10.3331 9.36847 9.91691 9.68011 9.61672L9.68532 9.61171L9.69045 9.60662L17.963 1.40439L18.701 2.12815C18.7015 2.1286 18.7019 2.12906 18.7024 2.12951C18.8806 2.30659 18.9934 2.55096 19.0038 2.80951L18.9734 3.13013L17.6895 9.2445ZM4.45455 11.8V26H1V11.8H4.45455Z" stroke="#48CEF3" stroke-width="2"/>
</svg>
