<svg width="16" height="16" viewBox="0 0 16 16" fill="none" xmlns="http://www.w3.org/2000/svg">
<path d="M15.9988 8.17658C15.9988 7.5189 15.9443 7.03896 15.8265 6.54126H8.1626V9.50972H12.6611C12.5705 10.2474 12.0807 11.3584 10.9923 12.1049L10.9771 12.2043L13.4002 14.0438L13.5681 14.0603C15.1099 12.6649 15.9988 10.6118 15.9988 8.17658Z" fill="#4285F4"/>
<path d="M8.16265 15.998C10.3666 15.998 12.2168 15.2869 13.5682 14.0605L10.9924 12.1051C10.3031 12.5762 9.37796 12.905 8.16265 12.905C6.00408 12.905 4.17202 11.5097 3.51894 9.58105L3.42321 9.58902L0.903556 11.4999L0.870605 11.5896C2.2129 14.2026 4.9701 15.998 8.16265 15.998Z" fill="#34A853"/>
<path d="M3.519 9.58098C3.34668 9.08327 3.24695 8.54997 3.24695 7.99896C3.24695 7.44789 3.34668 6.91465 3.50994 6.41694L3.50537 6.31094L0.954141 4.36938L0.870669 4.40829C0.317442 5.49261 0 6.71025 0 7.99896C0 9.28767 0.317442 10.5053 0.870669 11.5896L3.519 9.58098Z" fill="#FBBC05"/>
<path d="M8.16265 3.0929C9.69541 3.0929 10.7293 3.7417 11.3189 4.28389L13.6226 2.07972C12.2077 0.791009 10.3666 0 8.16265 0C4.9701 0 2.2129 1.7953 0.870605 4.40827L3.50987 6.41692C4.17202 4.48829 6.00408 3.0929 8.16265 3.0929Z" fill="#EB4335"/>
</svg>
