<svg width="28" height="25" viewBox="0 0 28 25" fill="none" xmlns="http://www.w3.org/2000/svg">
<path d="M28 7.57678V19.8541C28 20.319 27.8997 20.7382 27.6992 21.1119C27.4987 21.4856 27.2298 21.8046 26.8926 22.069C26.5553 22.3333 26.1816 22.5429 25.7715 22.6979C25.3613 22.8528 24.9375 22.9257 24.5 22.9166C24.0716 22.9166 23.6478 22.8437 23.2285 22.6979C22.8092 22.552 22.4355 22.347 22.1074 22.0826C21.7793 21.8183 21.515 21.4948 21.3145 21.1119C21.1139 20.7291 21.0091 20.3099 21 19.8541C21 19.3893 21.1003 18.97 21.3008 18.5963C21.5013 18.2226 21.7702 17.899 22.1074 17.6256C22.4447 17.3522 22.8184 17.1471 23.2285 17.0104C23.6387 16.8737 24.0625 16.8007 24.5 16.7916C25.1016 16.7916 25.6849 16.9329 26.25 17.2155V9.81897L17.5 12.0065V21.6041C17.5 22.069 17.3997 22.4882 17.1992 22.8619C16.9987 23.2356 16.7298 23.5546 16.3926 23.819C16.0553 24.0833 15.6816 24.2929 15.2715 24.4479C14.8613 24.6028 14.4375 24.6757 14 24.6666C13.5716 24.6666 13.1478 24.5937 12.7285 24.4479C12.3092 24.302 11.9355 24.097 11.6074 23.8326C11.2793 23.5683 11.015 23.2448 10.8145 22.8619C10.6139 22.4791 10.5091 22.0599 10.5 21.6041C10.5 21.1393 10.6003 20.72 10.8008 20.3463C11.0013 19.9726 11.2702 19.649 11.6074 19.3756C11.9447 19.1022 12.3184 18.8971 12.7285 18.7604C13.1387 18.6237 13.5625 18.5507 14 18.5416C14.6016 18.5416 15.1849 18.6829 15.75 18.9655V10.6393L28 7.57678ZM14 22.9166C14.1823 22.9166 14.3737 22.8893 14.5742 22.8346C14.7747 22.7799 14.9661 22.6979 15.1484 22.5885C15.3307 22.4791 15.472 22.3424 15.5723 22.1783C15.6725 22.0143 15.7318 21.8229 15.75 21.6041C15.75 21.3854 15.6953 21.194 15.5859 21.0299C15.4766 20.8658 15.3307 20.7291 15.1484 20.6198C14.9661 20.5104 14.7793 20.4283 14.5879 20.3737C14.3965 20.319 14.2005 20.2916 14 20.2916C13.8177 20.2916 13.6263 20.319 13.4258 20.3737C13.2253 20.4283 13.0339 20.5104 12.8516 20.6198C12.6693 20.7291 12.528 20.8658 12.4277 21.0299C12.3275 21.194 12.2682 21.3854 12.25 21.6041C12.25 21.8229 12.3047 22.0143 12.4141 22.1783C12.5234 22.3424 12.6693 22.4791 12.8516 22.5885C13.0339 22.6979 13.2207 22.7799 13.4121 22.8346C13.6035 22.8893 13.7995 22.9166 14 22.9166ZM24.5 21.1666C24.6823 21.1666 24.8737 21.1393 25.0742 21.0846C25.2747 21.0299 25.4661 20.9479 25.6484 20.8385C25.8307 20.7291 25.972 20.5924 26.0723 20.4283C26.1725 20.2643 26.2318 20.0729 26.25 19.8541C26.25 19.6354 26.1953 19.444 26.0859 19.2799C25.9766 19.1158 25.8307 18.9791 25.6484 18.8698C25.4661 18.7604 25.2793 18.6783 25.0879 18.6237C24.8965 18.569 24.7005 18.5416 24.5 18.5416C24.3177 18.5416 24.1263 18.569 23.9258 18.6237C23.7253 18.6783 23.5339 18.7604 23.3516 18.8698C23.1693 18.9791 23.028 19.1158 22.9277 19.2799C22.8275 19.444 22.7682 19.6354 22.75 19.8541C22.75 20.0729 22.8047 20.2643 22.9141 20.4283C23.0234 20.5924 23.1693 20.7291 23.3516 20.8385C23.5339 20.9479 23.7207 21.0299 23.9121 21.0846C24.1035 21.1393 24.2995 21.1666 24.5 21.1666ZM5.25 7.16663H3.5V5.41663H5.25V7.16663ZM3.5 8.91663H5.25V10.6666H3.5V8.91663ZM15.75 5.41663H17.5V7.16663H15.75V5.41663ZM14 15.9166H0V0.166626H21V7.16663L19.25 7.60413V1.91663H17.5V3.66663H15.75V1.91663H5.25V3.66663H3.5V1.91663H1.75V14.1666H3.5V12.4166H5.25V14.1666H14V15.9166Z" fill="#EE2A7B"/>
</svg>
