<svg width="172" height="150" viewBox="0 0 172 150" fill="none" xmlns="http://www.w3.org/2000/svg">
<path opacity="0.35" fill-rule="evenodd" clip-rule="evenodd" d="M74.9436 2.87901C78.3187 0.991563 82.1267 0 86 0C89.8733 0 93.6813 0.991563 97.0564 2.87901C100.432 4.76646 103.26 7.48609 105.269 10.7755L105.29 10.8109L168.919 116.319L168.98 116.422C170.948 119.807 171.989 123.644 172 127.553C172.011 131.461 170.991 135.305 169.043 138.701C167.094 142.096 164.284 144.926 160.893 146.908C157.501 148.891 153.646 149.956 149.711 149.999L149.628 150L22.3715 150H22.289C18.354 149.957 14.499 148.891 11.1075 146.908C7.71592 144.926 4.90601 142.096 2.95732 138.701C1.00862 135.305 -0.0109297 131.461 8.83634e-05 127.553C0.0111069 123.644 1.05232 119.807 3.02012 116.422L3.08115 116.319L66.7096 10.811L73.154 14.6452L66.7312 10.7755C68.74 7.48609 71.5684 4.76646 74.9436 2.87901ZM79.5861 18.5003L16.0063 123.927C15.3665 125.045 15.0281 126.308 15.0245 127.595C15.0208 128.897 15.3606 130.179 16.0102 131.311C16.6598 132.442 17.5964 133.386 18.7269 134.046C19.8476 134.701 21.1199 135.056 22.4196 135.076H149.58C150.88 135.056 152.152 134.701 153.273 134.046C154.404 133.386 155.34 132.442 155.99 131.311C156.639 130.179 156.979 128.897 156.976 127.595C156.972 126.308 156.634 125.045 155.994 123.928L92.423 18.5151L92.4139 18.5003C91.7448 17.4105 90.8055 16.5093 89.6855 15.883C88.5604 15.2538 87.2911 14.9233 86 14.9233C84.7089 14.9233 83.4396 15.2538 82.3145 15.883C81.1945 16.5093 80.2552 17.4105 79.5861 18.5003ZM86 45.5365C90.1489 45.5365 93.5122 48.8772 93.5122 52.9982V82.8447C93.5122 86.9657 90.1489 90.3064 86 90.3064C81.8511 90.3064 78.4878 86.9657 78.4878 82.8447V52.9982C78.4878 48.8772 81.8511 45.5365 86 45.5365ZM86 105.23C81.8511 105.23 78.4878 108.57 78.4878 112.691C78.4878 116.812 81.8511 120.153 86 120.153H86.0751C90.224 120.153 93.5873 116.812 93.5873 112.691C93.5873 108.57 90.224 105.23 86.0751 105.23H86Z" fill="#FC2323"/>
</svg>
