<svg width="40" height="40" viewBox="0 0 40 40" fill="none" xmlns="http://www.w3.org/2000/svg">
<path fill-rule="evenodd" clip-rule="evenodd" d="M19.4885 20.7279L20.8669 19.3494L22.0578 20.5404L24.8267 23.3092C24.9829 23.4654 25.2362 23.4654 25.3924 23.3092L28.3982 20.3034C28.5543 20.1473 28.5544 19.8941 28.3984 19.7379L26.302 17.639L25.1111 16.4481L23.3247 14.6617L22.1338 13.4708L19.7727 11.1098C19.6165 10.9536 19.3633 10.9536 19.207 11.1098L16.2 14.1169C16.0438 14.2731 16.0438 14.5263 16.2 14.6825L19.2681 17.7507L20.1598 18.6423L18.9689 19.8333L12.1114 26.6907C11.9552 26.8469 11.9552 27.1002 12.1114 27.2564L12.2528 27.3978C12.409 27.554 12.6623 27.554 12.8185 27.3978L19.4885 20.7279ZM20.9384 22.1778L24.4382 25.6776C24.8287 26.0681 25.4619 26.0681 25.8524 25.6776L30.8022 20.7279C31.1927 20.3373 31.1927 19.7042 30.8022 19.3136L26.5595 15.071L23.3776 11.889L20.1956 8.70704C19.8051 8.31652 19.1719 8.31652 18.7814 8.70704L13.8316 13.6568C13.4411 14.0473 13.4411 14.6805 13.8316 15.071L17.3671 18.6065L9.70723 26.2665C9.3167 26.657 9.3167 27.2901 9.70723 27.6807L11.8642 29.8377C12.2548 30.2282 12.8879 30.2282 13.2784 29.8377L20.9384 22.1778Z" fill="#48CEF3"/>
<path d="M21.0001 30C20.4478 30 20.0001 30.4477 20.0001 31C20.0001 31.5523 20.4478 32 21.0001 32L31.0001 32C31.5524 32 32.0001 31.5523 32.0001 31C32.0001 30.4477 31.5524 30 31.0001 30L21.0001 30Z" fill="#48CEF3"/>
</svg>
