<svg width="40" height="40" viewBox="0 0 40 40" fill="none" xmlns="http://www.w3.org/2000/svg">
<path fill-rule="evenodd" clip-rule="evenodd" d="M13 12C12.7348 12 12.4804 12.1054 12.2929 12.2929C12.1054 12.4804 12 12.7348 12 13V27C12 27.2652 12.1054 27.5196 12.2929 27.7071C12.4804 27.8946 12.7348 28 13 28H17C17.5523 28 18 28.4477 18 29C18 29.5523 17.5523 30 17 30H13C12.2043 30 11.4413 29.6839 10.8787 29.1213C10.3161 28.5587 10 27.7957 10 27V13C10 12.2044 10.3161 11.4413 10.8787 10.8787C11.4413 10.3161 12.2044 10 13 10H17C17.5523 10 18 10.4477 18 11C18 11.5523 17.5523 12 17 12H13Z" fill="#32CDF8"/>
<path fill-rule="evenodd" clip-rule="evenodd" d="M23.2929 14.2929C23.6834 13.9024 24.3166 13.9024 24.7071 14.2929L29.7071 19.2929C30.0976 19.6834 30.0976 20.3166 29.7071 20.7071L24.7071 25.7071C24.3166 26.0976 23.6834 26.0976 23.2929 25.7071C22.9024 25.3166 22.9024 24.6834 23.2929 24.2929L27.5858 20L23.2929 15.7071C22.9024 15.3166 22.9024 14.6834 23.2929 14.2929Z" fill="#32CDF8"/>
<path fill-rule="evenodd" clip-rule="evenodd" d="M16 20C16 19.4477 16.4477 19 17 19H29C29.5523 19 30 19.4477 30 20C30 20.5523 29.5523 21 29 21H17C16.4477 21 16 20.5523 16 20Z" fill="#32CDF8"/>
</svg>
