<svg width="28" height="17" viewBox="0 0 28 17" fill="none" xmlns="http://www.w3.org/2000/svg">
<path d="M0 14V2.94005V2.80005H4.2V12.88C4.2 13.552 3.64 13.9067 3.36 14H0Z" fill="#48CEF3"/>
<path d="M28 14V2.94005V2.80005H23.8V12.88C23.8 13.552 24.36 13.9067 24.64 14H28Z" fill="#48CEF3"/>
<path d="M5.46057 2.52L8.54057 0H12.4606C12.1806 0.28 11.2006 1.232 9.52057 2.8C7.00057 5.32 8.54057 7.14 8.96057 7.84C11.0886 9.968 13.6739 7.98 14.7006 6.72C16.1939 7.98 19.6566 10.948 21.5606 12.74C21.5606 15.96 18.9006 14.42 18.6206 14.7C16.3806 18.48 14.5606 15.82 14.1406 15.82C13.3566 17.052 11.6672 16.8933 10.9206 16.66L6.30057 12.32H5.46057V2.52Z" fill="#48CEF3"/>
<path d="M19.6 0H14.56C13.6266 0.84 11.34 2.968 9.65996 4.76C9.09996 7.336 11.0133 7.32667 12.04 7C12.88 6.25333 14.812 4.564 15.82 3.78C16.828 2.996 16.9866 4.10667 16.94 4.76L15.82 5.88L22.4 11.2V2.66L19.6 0Z" fill="#48CEF3"/>
<circle cx="1.84171" cy="11.6983" r="1.10526" fill="white"/>
<circle cx="26.1585" cy="11.6983" r="1.10526" fill="#F7FCFD"/>
</svg>
