<svg width="22" height="20" viewBox="0 0 22 20" fill="none" xmlns="http://www.w3.org/2000/svg">
<path fill-rule="evenodd" clip-rule="evenodd" d="M13.2157 1.44386C13.9256 1.1497 14.6865 0.998291 15.455 0.998291C16.2235 0.998291 16.9844 1.1497 17.6943 1.44386C18.4041 1.73797 19.0491 2.16902 19.5923 2.71239C20.1356 3.25559 20.567 3.9008 20.8611 4.6106C21.1552 5.32053 21.3067 6.08147 21.3067 6.84993C21.3067 7.6184 21.1552 8.37933 20.8611 9.08927C20.567 9.79914 20.1359 10.4441 19.5924 10.9873C19.5924 10.9874 19.5925 10.9873 19.5924 10.9873L11.6364 18.9433C11.2849 19.2948 10.7151 19.2948 10.3636 18.9433L2.40761 10.9873C1.31031 9.89003 0.693848 8.40176 0.693848 6.84993C0.693848 5.29811 1.31031 3.80984 2.40761 2.71254C3.50492 1.61523 4.99319 0.998772 6.54501 0.998772C8.09684 0.998772 9.5851 1.61523 10.6824 2.71254L11 3.03014L11.3175 2.71269C11.3175 2.71264 11.3174 2.71274 11.3175 2.71269C11.8607 2.16924 12.5058 1.73799 13.2157 1.44386ZM15.455 2.79829C14.923 2.79829 14.3962 2.90311 13.9047 3.10676C13.4132 3.31041 12.9667 3.6089 12.5906 3.98518L11.6364 4.93933C11.2849 5.2908 10.7151 5.2908 10.3636 4.93933L9.40961 3.98533C8.64987 3.22559 7.61944 2.79877 6.54501 2.79877C5.47057 2.79877 4.44015 3.22559 3.68041 3.98533C2.92067 4.74507 2.49385 5.7755 2.49385 6.84993C2.49385 7.92437 2.92067 8.9548 3.68041 9.71454L11 17.0341L18.3196 9.71454C18.6959 9.33844 18.9945 8.89173 19.1982 8.40024C19.4018 7.90875 19.5067 7.38195 19.5067 6.84993C19.5067 6.31792 19.4018 5.79112 19.1982 5.29963C18.9945 4.80813 18.696 4.36158 18.3198 3.98548C17.9437 3.6092 17.4968 3.31041 17.0053 3.10676C16.5138 2.90311 15.987 2.79829 15.455 2.79829Z" fill="#32CDF8"/>
</svg>
