<svg width="20" height="20" viewBox="0 0 20 20" fill="none" xmlns="http://www.w3.org/2000/svg">
<path fill-rule="evenodd" clip-rule="evenodd" d="M16.1543 0.104031C16.3765 -0.118202 16.7565 0.0391928 16.7565 0.353478V1.99628V3.24351L18.0037 3.24351H19.6465C19.9608 3.24351 20.1182 3.62349 19.896 3.84572L19.1975 4.54424C19.0321 4.70963 18.8078 4.80255 18.5739 4.80255H16.4447L15.8082 5.43913L11.2418 10.0054C10.8974 10.3498 10.339 10.3498 9.99458 10.0054C9.65017 9.66096 9.65017 9.10255 9.99459 8.75814L13.0019 5.75087V3.62178C13.0019 3.38788 13.0948 3.16356 13.2602 2.99817L13.9587 2.29966C14.181 2.07742 14.5609 2.23482 14.5609 2.5491V4.1919L15.1975 3.55532V1.42616C15.1975 1.19226 15.2904 0.967937 15.4558 0.802544L16.1543 0.104031ZM15.8082 5.43913H17.4509C17.7652 5.43913 17.9226 5.81912 17.7004 6.04135L17.0019 6.73986C16.8365 6.90526 16.6122 6.99817 16.3783 6.99817L14.2491 6.99817L15.8082 5.43913ZM11.6862 2.6123C12.1579 2.73361 12.6387 2.44953 12.76 1.9778C12.8813 1.50608 12.5972 1.02533 12.1255 0.904027C8.91431 0.0782796 5.3585 0.921907 2.84138 3.43905C-0.947128 7.2276 -0.947128 13.37 2.84138 17.1586C6.62989 20.9471 12.7723 20.9471 16.5608 17.1586C19.0779 14.6414 19.9215 11.0856 19.0958 7.87439C18.9745 7.40267 18.4938 7.11859 18.022 7.23989C17.5503 7.3612 17.2662 7.84194 17.3875 8.31367C18.0644 10.9457 17.3717 13.8533 15.3136 15.9114C12.2139 19.0111 7.18829 19.0111 4.0886 15.9114C0.988912 12.8116 0.988912 7.786 4.0886 4.68628C6.14668 2.62818 9.05418 1.93548 11.6862 2.6123ZM10.4368 5.95057C10.9171 6.03133 11.3719 5.70742 11.4527 5.22708C11.5335 4.74675 11.2096 4.2919 10.7292 4.21113C8.82927 3.89167 6.80441 4.46491 5.33582 5.93351C2.92495 8.3444 2.92495 12.2532 5.33582 14.6641C7.74669 17.075 11.6555 17.075 14.0664 14.6641C15.5349 13.1955 16.1082 11.1706 15.7887 9.27067C15.708 8.79034 15.2531 8.46642 14.7728 8.54719C14.2924 8.62795 13.9685 9.08281 14.0493 9.56314C14.2782 10.9247 13.8673 12.3687 12.8191 13.4169C11.0971 15.139 8.30509 15.139 6.58304 13.4169C4.86099 11.6948 4.86099 8.90281 6.58304 7.18074C7.63118 6.13259 9.07526 5.72164 10.4368 5.95057ZM9.07748 8.42797C9.42189 8.77239 9.42189 9.33079 9.07748 9.6752C8.73307 10.0196 8.73307 10.578 9.07748 10.9224C9.42189 11.2668 9.98029 11.2668 10.3247 10.9224C10.6691 10.578 11.2275 10.578 11.5719 10.9224C11.9163 11.2668 11.9163 11.8253 11.5719 12.1697C10.5387 13.2029 8.86349 13.2029 7.83026 12.1697C6.79703 11.1364 6.79703 9.46121 7.83026 8.42797C8.17467 8.08356 8.73307 8.08356 9.07748 8.42797Z" fill="#32CDF8"/>
</svg>
