<svg width="24" height="20" viewBox="0 0 24 20" fill="none" xmlns="http://www.w3.org/2000/svg">
<g clip-path="url(#clip0)">
<path d="M8.30163 14.2956L7.36699 13.068L5.39347 13.355L7.98894 9.62866H2.92786V19.4287H11.5515V9.62866L8.30163 14.2956Z" fill="#48CEF3"/>
<path d="M22.4955 4.95189H16.7689C17.1038 4.81219 17.4028 4.66626 17.6677 4.51134C18.6861 3.92071 19.2269 3.17239 19.2251 2.42961C19.2251 1.8203 18.8689 0.947499 18.3512 0.583715C17.8326 0.215781 17.1448 0 16.411 0C15.6267 0 14.8979 0.217856 14.2734 0.556742C13.3345 1.06576 12.5998 2.16818 12.0761 3.00917C12.0496 3.05136 12.0231 3.09217 11.9975 3.13297C11.8061 2.80861 11.5823 2.15919 11.3285 1.86318C10.8843 1.35001 10.3503 0.89632 9.72322 0.556742C9.10041 0.217856 8.37252 0 7.58909 0C6.80823 0.00207482 6.09315 0.26696 5.55834 0.675698C5.02609 1.08029 4.6536 1.99113 4.65018 2.64193C4.64676 3.02162 4.78345 3.4193 5.06624 3.78101C5.42164 4.23401 5.98465 4.62891 6.7621 4.95189H1.48999L1.50195 8.84909H11.402V4.95189H12.6083V8.84909H22.5101L22.4955 4.95189ZM7.10383 3.73328C6.70656 3.52995 6.46222 3.32593 6.3187 3.14265C6.17944 2.96076 6.13074 2.64124 6.13074 2.48425C6.12732 2.22213 6.28879 1.76221 6.57585 1.54643C6.85607 1.32996 7.23711 1.19648 7.57884 1.19648H7.58909C8.02908 1.19924 8.46479 1.3182 8.90392 1.55265C9.55748 1.90191 10.1735 2.85149 10.6015 3.54724C10.8253 3.90134 10.9962 4.27135 11.1115 4.63306C9.1286 4.46708 7.8471 4.11298 7.10383 3.73328ZM13.8813 2.88607C14.2384 2.4718 14.6596 1.78849 15.0961 1.55265C15.5301 1.3182 15.971 1.19924 16.411 1.19648H16.4152C16.7817 1.19648 17.1346 1.31267 17.3747 1.48488C17.6156 1.65985 17.7446 1.98007 17.7446 2.20553C17.7395 2.4718 17.5694 3.08456 16.8014 3.53894C16.0726 3.96912 14.8074 4.40967 12.8621 4.71813C13.0457 4.09361 13.4054 3.43244 13.8813 2.88607Z" fill="#48CEF3"/>
<path d="M18.6169 13.3391L16.6443 13.068L15.713 14.3101L12.505 9.6916V19.4287H21.0851V9.62866H16.024L18.6169 13.3391Z" fill="#48CEF3"/>
</g>
<defs>
<clipPath id="clip0">
<rect width="24" height="19.4286" fill="white"/>
</clipPath>
</defs>
</svg>
