<svg width="22" height="22" viewBox="0 0 22 22" fill="none" xmlns="http://www.w3.org/2000/svg">
<path fill-rule="evenodd" clip-rule="evenodd" d="M15.9498 2.41414C16.3403 2.02361 16.3403 1.39045 15.9498 0.999924C15.5593 0.6094 14.9261 0.6094 14.5356 0.999924L10.3023 5.23327C10.1158 5.41492 10 5.66875 10 5.94963C10 6.10795 10.0368 6.25768 10.1023 6.39073C10.1395 6.46642 10.1868 6.53839 10.2443 6.60459C10.2613 6.62418 10.279 6.64309 10.2975 6.6613L14.5356 10.8994C14.9261 11.2899 15.5593 11.2899 15.9498 10.8994C16.3403 10.5089 16.3403 9.87573 15.9498 9.48521L13.4142 6.94963H20.8995C21.4518 6.94963 21.8995 6.50191 21.8995 5.94963C21.8995 5.39734 21.4518 4.94963 20.8995 4.94963H13.4143L15.9498 2.41414ZM5.94967 10.9999C6.3402 10.6094 6.97336 10.6094 7.36389 10.9999L11.5972 15.2333C11.7837 15.4149 11.8995 15.6687 11.8995 15.9496C11.8995 16.1079 11.8627 16.2577 11.7972 16.3907C11.76 16.4664 11.7127 16.5384 11.6552 16.6046C11.6382 16.6242 11.6204 16.6431 11.602 16.6613L7.36389 20.8994C6.97336 21.2899 6.3402 21.2899 5.94967 20.8994C5.55915 20.5089 5.55915 19.8757 5.94967 19.4852L8.48525 16.9496H1C0.447715 16.9496 0 16.5019 0 15.9496C0 15.3973 0.447716 14.9496 1 14.9496H8.48516L5.94967 12.4141C5.55915 12.0236 5.55915 11.3904 5.94967 10.9999Z" fill="white"/>
</svg>
