<svg width="40" height="40" viewBox="0 0 40 40" fill="none" xmlns="http://www.w3.org/2000/svg">
<path fill-rule="evenodd" clip-rule="evenodd" d="M22.1448 11.6408C22.159 11.5404 22.1664 11.4377 22.1664 11.3333C22.1664 10.1367 21.1964 9.16663 19.9997 9.16663C18.8031 9.16663 17.8331 10.1367 17.8331 11.3333C17.8331 11.4377 17.8405 11.5405 17.8548 11.641C14.7113 12.5664 12.4166 15.4735 12.4166 18.9166L12.4166 25.4166C11.8183 25.4166 11.3333 25.9017 11.3333 26.5C11.3333 27.0983 11.8183 27.5833 12.4166 27.5833H27.5833C28.1816 27.5833 28.6666 27.0983 28.6666 26.5C28.6666 25.9017 28.1816 25.4166 27.5833 25.4166V18.9166C27.5833 15.4734 25.2884 12.5661 22.1448 11.6408ZM17.8334 28.6665C17.8335 29.8631 18.8035 30.833 20.0001 30.833C21.1966 30.833 22.1666 29.8631 22.1667 28.6665H17.8334ZM25.4166 18.9167V25.4166H14.5832V18.9167C14.5832 15.9252 17.0084 13.5 19.9999 13.5L20.2349 13.505C23.1174 13.6281 25.4166 16.0039 25.4166 18.9167Z" fill="#32CDF8"/>
</svg>
