<svg width="22" height="22" viewBox="0 0 22 22" fill="none" xmlns="http://www.w3.org/2000/svg">
<path fill-rule="evenodd" clip-rule="evenodd" d="M10.3989 2.74901C10.5584 2.5896 10.7746 2.50005 11 2.50005C11.2254 2.50005 11.4416 2.5896 11.601 2.74901C11.7604 2.90841 11.85 3.12462 11.85 3.35005V3.42655L11.85 3.42994C11.8517 3.86923 11.9819 4.29841 12.2245 4.66467C12.4662 5.02966 12.809 5.31627 13.2109 5.48951C13.6216 5.66977 14.0768 5.72334 14.5181 5.64332C14.961 5.56302 15.3696 5.3519 15.6914 5.03718L15.6914 5.03722L15.698 5.03059L15.749 4.97959L15.7494 4.97926C15.8283 4.90023 15.9221 4.83753 16.0252 4.79475C16.1284 4.75198 16.239 4.72996 16.3507 4.72996C16.4624 4.72996 16.573 4.75198 16.6762 4.79475C16.7794 4.83753 16.8732 4.90023 16.9521 4.97926L16.9528 4.97992C17.0318 5.05887 17.0945 5.15261 17.1373 5.2558C17.1801 5.35899 17.2021 5.4696 17.2021 5.5813C17.2021 5.693 17.1801 5.80361 17.1373 5.9068C17.0945 6.00999 17.0318 6.10373 16.9528 6.18267L16.9524 6.18301L16.9014 6.23401L16.9014 6.23397L16.8949 6.24067C16.5801 6.56241 16.369 6.97105 16.2887 7.4139C16.219 7.79838 16.2507 8.19333 16.3792 8.56022C16.3892 8.63741 16.4099 8.71302 16.4407 8.78489C16.6138 9.18866 16.9011 9.53302 17.2674 9.77557C17.6336 10.0181 18.0628 10.1483 18.5021 10.15L18.5055 10.1501H18.65C18.8754 10.1501 19.0916 10.2396 19.251 10.399C19.4104 10.5584 19.5 10.7746 19.5 11C19.5 11.2255 19.4104 11.4417 19.251 11.6011C19.0916 11.7605 18.8754 11.85 18.65 11.85L18.5735 11.85L18.5701 11.8501C18.1308 11.8518 17.7016 11.982 17.3354 12.2245C16.9704 12.4663 16.6837 12.8091 16.5105 13.2111C16.3303 13.6217 16.2767 14.0769 16.3567 14.5182C16.437 14.961 16.6481 15.3697 16.9629 15.6914L16.9628 15.6915L16.9695 15.6981L17.0205 15.7491L17.0208 15.7494C17.0998 15.8284 17.1625 15.9221 17.2053 16.0253C17.2481 16.1285 17.2701 16.2391 17.2701 16.3508C17.2701 16.4625 17.2481 16.5731 17.2053 16.6763C17.1625 16.7795 17.0998 16.8732 17.0208 16.9522L17.0201 16.9528C16.9412 17.0319 16.8474 17.0946 16.7442 17.1373C16.641 17.1801 16.5304 17.2021 16.4187 17.2021C16.307 17.2021 16.1964 17.1801 16.0932 17.1373C15.9901 17.0946 15.8963 17.0319 15.8174 16.9528L15.817 16.9525L15.766 16.9015L15.7661 16.9015L15.7594 16.8949C15.4376 16.5802 15.029 16.3691 14.5861 16.2888C14.1448 16.2088 13.6897 16.2623 13.279 16.4425C12.877 16.6158 12.5342 16.9024 12.2925 17.2674C12.0499 17.6337 11.9197 18.0629 11.918 18.5022L11.918 18.5056V18.6501C11.918 18.8755 11.8284 19.0917 11.669 19.2511C11.5096 19.4105 11.2934 19.5001 11.068 19.5001C10.8426 19.5001 10.6264 19.4105 10.4669 19.2511C10.3075 19.0917 10.218 18.8755 10.218 18.6501V18.5736L10.2178 18.5537C10.2072 18.1018 10.0609 17.6636 9.79799 17.296C9.54026 16.9356 9.18211 16.6594 8.76854 16.5017C8.36325 16.3286 7.91587 16.2781 7.48184 16.3568C7.03899 16.4371 6.63035 16.6482 6.30861 16.9629L6.30858 16.9629L6.30194 16.9695L6.25094 17.0205L6.25061 17.0208C6.17167 17.0999 6.07793 17.1626 5.97474 17.2053C5.87155 17.2481 5.76094 17.2701 5.64924 17.2701C5.53754 17.2701 5.42693 17.2481 5.32374 17.2053C5.22055 17.1626 5.1268 17.0999 5.04786 17.0208L5.04719 17.0202C4.96817 16.9412 4.90547 16.8475 4.86269 16.7443C4.81992 16.6411 4.7979 16.5305 4.7979 16.4188C4.7979 16.3071 4.81992 16.1965 4.86269 16.0933C4.90547 15.9901 4.96817 15.8964 5.04719 15.8174L5.04753 15.8171L5.09853 15.7661L5.09856 15.7661L5.10512 15.7594C5.41984 15.4377 5.63096 15.029 5.71126 14.5862C5.79128 14.1448 5.73771 13.6897 5.55745 13.279C5.38421 12.877 5.09759 12.5342 4.73261 12.2925C4.36635 12.05 3.93717 11.9198 3.49788 11.9181V11.918H3.49449H3.34999C3.12455 11.918 2.90835 11.8285 2.74895 11.6691C2.58954 11.5097 2.49999 11.2935 2.49999 11.068C2.49999 10.8426 2.58954 10.6264 2.74895 10.467C2.90835 10.3076 3.12455 10.2181 3.34999 10.2181H3.42649L3.44636 10.2178C3.89822 10.2072 4.33645 10.061 4.70408 9.79805C5.06442 9.54032 5.34059 9.18218 5.49832 8.76861C5.67145 8.36332 5.72195 7.91593 5.64325 7.4819C5.56296 7.03905 5.35184 6.63041 5.03712 6.30867L5.03716 6.30864L5.03053 6.30201L4.97953 6.25101L4.97919 6.25067C4.90016 6.17173 4.83747 6.07799 4.79469 5.9748C4.75192 5.87161 4.7299 5.761 4.7299 5.6493C4.7299 5.5376 4.75192 5.42699 4.79469 5.3238C4.83747 5.22061 4.90016 5.12687 4.97919 5.04792L4.97986 5.04726C5.05881 4.96823 5.15255 4.90553 5.25574 4.86275C5.35893 4.81998 5.46954 4.79796 5.58124 4.79796C5.69294 4.79796 5.80355 4.81998 5.90674 4.86275C6.00993 4.90553 6.10367 4.96823 6.18261 5.04726L6.18295 5.04759L6.23395 5.09859L6.23391 5.09863L6.24061 5.10518C6.56235 5.4199 6.97099 5.63102 7.41384 5.71132C7.79832 5.78103 8.19327 5.74936 8.56016 5.62088C8.63735 5.61079 8.71296 5.59012 8.78483 5.55932C9.1886 5.38627 9.53296 5.09893 9.77551 4.73267C10.0181 4.36642 10.1482 3.93723 10.15 3.49794H10.15V3.49455V3.35005C10.15 3.12462 10.2395 2.90841 10.3989 2.74901ZM18.0676 13.8933L17.29 13.55L18.0713 13.8849C18.1137 13.7859 18.1842 13.7014 18.274 13.6419C18.3635 13.5826 18.4683 13.5507 18.5756 13.55H18.65C19.3263 13.55 19.9749 13.2814 20.4531 12.8032C20.9313 12.325 21.2 11.6764 21.2 11C21.2 10.3237 20.9313 9.67515 20.4531 9.19693C19.9749 8.71871 19.3263 8.45005 18.65 8.45005H18.5076C18.4003 8.44938 18.2955 8.41747 18.206 8.3582C18.1457 8.31828 18.0942 8.26712 18.0539 8.20786C18.0418 8.14993 18.0236 8.09328 17.9996 8.03885C17.955 7.93785 17.9418 7.82582 17.9614 7.7172C17.9809 7.60976 18.0318 7.51053 18.1076 7.43201L18.1542 7.38542L18.1545 7.38509C18.3915 7.14833 18.5794 6.86722 18.7077 6.5578C18.836 6.24823 18.9021 5.91641 18.9021 5.5813C18.9021 5.24619 18.836 4.91437 18.7077 4.6048C18.5795 4.29553 18.3916 4.01453 18.1549 3.77784C17.918 3.54075 17.6368 3.35267 17.3272 3.22434C17.0177 3.09601 16.6858 3.02996 16.3507 3.02996C16.0156 3.02996 15.6838 3.09601 15.3742 3.22434C15.0647 3.35267 14.7834 3.54075 14.5466 3.77784L14.5 3.82444C14.4215 3.90024 14.3223 3.95111 14.2148 3.97059C14.1062 3.99029 13.9942 3.97699 13.8932 3.93242L13.8932 3.93237L13.8848 3.92878C13.7858 3.88633 13.7013 3.81585 13.6418 3.72602C13.5826 3.63653 13.5507 3.53173 13.55 3.42442V3.35005C13.55 2.67375 13.2813 2.02514 12.8031 1.54693C12.3249 1.06871 11.6763 0.800049 11 0.800049C10.3237 0.800049 9.67508 1.06871 9.19687 1.54693C8.71865 2.02514 8.44999 2.67375 8.44999 3.35005V3.49242C8.44932 3.59973 8.41741 3.70453 8.35814 3.79402C8.31822 3.8543 8.26706 3.90586 8.2078 3.94609C8.14988 3.95822 8.09322 3.97639 8.03879 4.00042C7.93779 4.04499 7.82576 4.05829 7.71714 4.03859C7.6097 4.01911 7.51047 3.96824 7.43195 3.89243L7.38536 3.84584C7.14854 3.60875 6.8673 3.42067 6.55774 3.29234C6.24817 3.16401 5.91635 3.09796 5.58124 3.09796C5.24613 3.09796 4.91431 3.16401 4.60474 3.29234C4.29532 3.42061 4.0142 3.60858 3.77745 3.84551C3.54051 4.08226 3.35255 4.36338 3.22428 4.6728C3.09595 4.98237 3.0299 5.31419 3.0299 5.6493C3.0299 5.98441 3.09595 6.31623 3.22428 6.6258C3.35261 6.93536 3.54069 7.2166 3.77778 7.45342L3.82437 7.50001C3.90017 7.57853 3.95105 7.67776 3.97053 7.7852C3.99022 7.89382 3.97693 8.00585 3.93235 8.10685C3.92512 8.12323 3.91841 8.13984 3.91223 8.15665C3.87396 8.26069 3.80528 8.35083 3.71511 8.41532C3.62702 8.47833 3.5224 8.51402 3.41428 8.51805H3.34999C2.67369 8.51805 2.02508 8.78671 1.54687 9.26493C1.06865 9.74314 0.799988 10.3917 0.799988 11.068C0.799988 11.7444 1.06865 12.393 1.54687 12.8712C2.02508 13.3494 2.67369 13.618 3.34999 13.618H3.49236C3.59967 13.6187 3.70447 13.6506 3.79396 13.7099C3.88379 13.7694 3.95427 13.8539 3.99672 13.9529L3.99667 13.9529L4.00035 13.9613C4.04493 14.0622 4.05822 14.1743 4.03853 14.2829C4.01905 14.3903 3.96818 14.4896 3.89238 14.5681L3.84578 14.6147C3.60869 14.8515 3.42061 15.1327 3.29228 15.4423C3.16395 15.7519 3.0979 16.0837 3.0979 16.4188C3.0979 16.7539 3.16395 17.0857 3.29228 17.3953C3.42061 17.7049 3.60869 17.9861 3.84578 18.2229C4.08247 18.4597 4.36347 18.6476 4.67274 18.7758C4.9823 18.9041 5.31413 18.9701 5.64924 18.9701C5.98435 18.9701 6.31617 18.9041 6.62574 18.7758C6.93516 18.6475 7.21628 18.4595 7.45304 18.2226L7.45336 18.2223L7.49994 18.1757C7.57846 18.0999 7.67769 18.049 7.78514 18.0295C7.89376 18.0098 8.00579 18.0231 8.10679 18.0677C8.12317 18.0749 8.13978 18.0816 8.15659 18.0878C8.26063 18.1261 8.35076 18.1948 8.41526 18.2849C8.47826 18.373 8.51396 18.4776 8.51799 18.5858V18.6501C8.51799 19.3264 8.78665 19.975 9.26487 20.4532C9.74308 20.9314 10.3917 21.2001 11.068 21.2001C11.7443 21.2001 12.3929 20.9314 12.8711 20.4532C13.3493 19.975 13.618 19.3264 13.618 18.6501V18.5077C13.6187 18.4004 13.6506 18.2956 13.7098 18.2061C13.7693 18.1162 13.8538 18.0458 13.9528 18.0033L13.9529 18.0034L13.9612 17.9997C14.0622 17.9551 14.1742 17.9418 14.2828 17.9615C14.3903 17.981 14.4895 18.0319 14.568 18.1076L14.6146 18.1543L14.6149 18.1546C14.8517 18.3915 15.1328 18.5795 15.4422 18.7078C15.7518 18.8361 16.0836 18.9021 16.4187 18.9021C16.7538 18.9021 17.0857 18.8361 17.3952 18.7078C17.7047 18.5795 17.9858 18.3915 18.2225 18.1546C18.2224 18.1547 18.2223 18.1548 18.2222 18.1549L17.6215 17.5535L18.2229 18.1543C18.2228 18.1544 18.2226 18.1545 18.2225 18.1546C18.4595 17.9178 18.6474 17.6367 18.7757 17.3273C18.904 17.0177 18.9701 16.6859 18.9701 16.3508C18.9701 16.0157 18.904 15.6839 18.7757 15.3743C18.6474 15.0649 18.4595 14.7838 18.2225 14.547L18.2222 14.5467L18.1756 14.5001C18.0998 14.4215 18.0489 14.3223 18.0294 14.2149C18.0098 14.1063 18.023 13.9942 18.0676 13.8933ZM9.29999 11C9.29999 10.0612 10.0611 9.30005 11 9.30005C11.9389 9.30005 12.7 10.0612 12.7 11C12.7 11.9389 11.9389 12.7001 11 12.7001C10.0611 12.7001 9.29999 11.9389 9.29999 11ZM11 7.60005C9.12222 7.60005 7.59999 9.12228 7.59999 11C7.59999 12.8778 9.12222 14.4001 11 14.4001C12.8778 14.4001 14.4 12.8778 14.4 11C14.4 9.12228 12.8778 7.60005 11 7.60005Z" fill="#32CDF8"/>
</svg>
